<svg width="14" height="10" viewBox="0 0 14 10" fill="none" xmlns="http://www.w3.org/2000/svg">
<path d="M14 0C13.7493 1.03401 13.4846 2.14966 13.206 3.34694C12.9274 4.54422 12.6766 5.71429 12.4537 6.85714C12.2308 8 12.0498 9.04762 11.9104 10H7.9403L7.64776 9.55102C7.89851 8.59864 8.21891 7.57823 8.60896 6.4898C8.99901 5.37415 9.43085 4.2585 9.90448 3.14286C10.3781 2.02721 10.8378 0.979592 11.2836 0H14ZM6.26866 0C6.01791 1.03401 5.75323 2.14966 5.47463 3.34694C5.19602 4.54422 4.94527 5.71429 4.72239 6.85714C4.4995 8 4.31841 9.04762 4.1791 10H0.250746L0 9.55102C0.250746 8.59864 0.571144 7.57823 0.961194 6.4898C1.35124 5.37415 1.76915 4.2585 2.21493 3.14286C2.68856 2.02721 3.14826 0.979592 3.59403 0H6.26866Z" fill="#D75337"/>
</svg>
