<svg width="44" height="44" viewBox="0 0 44 44" fill="none" xmlns="http://www.w3.org/2000/svg">
<path d="M19.4716 0.854191C20.0005 0.325386 20.7179 0.0283203 21.4658 0.0283203C22.2138 0.0283203 22.9311 0.325386 23.4601 0.854191L29.928 7.32212V3.67492C29.928 3.30087 30.0766 2.94214 30.3411 2.67764C30.6056 2.41315 30.9643 2.26456 31.3384 2.26456H34.1591C34.5332 2.26456 34.8919 2.41315 35.1564 2.67764C35.4209 2.94214 35.5695 3.30087 35.5695 3.67492V12.9636L42.2095 19.6007C42.3406 19.7319 42.4446 19.8876 42.5156 20.0589C42.5865 20.2302 42.6231 20.4138 42.6231 20.5993C42.6231 20.7847 42.5865 20.9684 42.5156 21.1397C42.4446 21.311 42.3406 21.4667 42.2095 21.5978C42.0783 21.729 41.9227 21.833 41.7513 21.9039C41.58 21.9749 41.3964 22.0114 41.2109 22.0114C41.0255 22.0114 40.8419 21.9749 40.6705 21.9039C40.4992 21.833 40.3435 21.729 40.2124 21.5978L21.4658 2.84845L7.3622 16.9521V34.7029C7.3622 35.077 7.51079 35.4357 7.77528 35.7002C8.03978 35.9647 8.39851 36.1133 8.77256 36.1133H20.0555C20.4295 36.1133 20.7883 36.2619 21.0527 36.5264C21.3172 36.7909 21.4658 37.1496 21.4658 37.5237C21.4658 37.8977 21.3172 38.2564 21.0527 38.5209C20.7883 38.7854 20.4295 38.934 20.0555 38.934H8.77256C7.6504 38.934 6.57421 38.4882 5.78073 37.6948C4.98724 36.9013 4.54147 35.8251 4.54147 34.7029V19.7728L2.71928 21.5978C2.58815 21.729 2.43247 21.833 2.26114 21.9039C2.08981 21.9749 1.90618 22.0114 1.72074 22.0114C1.53529 22.0114 1.35166 21.9749 1.18033 21.9039C1.00901 21.833 0.853332 21.729 0.722202 21.5978C0.591072 21.4667 0.487054 21.311 0.416087 21.1397C0.34512 20.9684 0.308594 20.7847 0.308594 20.5993C0.308594 20.4138 0.34512 20.2302 0.416087 20.0589C0.487054 19.8876 0.591072 19.7319 0.722202 19.6007L19.4716 0.854191Z" fill="#181818"/>
<path d="M30.5349 22.1633C31.1104 20.2034 33.8856 20.2034 34.4643 22.1633L34.6018 22.6365C34.6876 22.93 34.8382 23.2005 35.0424 23.4282C35.2466 23.6558 35.4992 23.8348 35.7817 23.952C36.0642 24.0692 36.3694 24.1215 36.6747 24.1052C36.9801 24.0889 37.278 24.0044 37.5464 23.8578L37.9812 23.6212C39.7748 22.6429 41.7379 24.6059 40.7628 26.3996L40.523 26.8344C40.377 27.1027 40.2929 27.4002 40.2769 27.7052C40.261 28.0102 40.3134 28.315 40.4306 28.597C40.5477 28.8791 40.7265 29.1314 40.9538 29.3354C41.1811 29.5393 41.4512 29.6898 41.7443 29.7758L42.2207 29.9197C44.1774 30.4952 44.1774 33.2704 42.2207 33.849L41.7411 33.9865C41.4482 34.0731 41.1783 34.2242 40.9514 34.4287C40.7244 34.6332 40.5461 34.886 40.4296 35.1684C40.3131 35.4508 40.2613 35.7557 40.278 36.0607C40.2947 36.3657 40.3795 36.6632 40.5262 36.9312L40.7628 37.366C41.7379 39.1596 39.7748 41.1227 37.9812 40.1475L37.5464 39.9077C37.2781 39.7618 36.9805 39.6777 36.6755 39.6617C36.3705 39.6457 36.0658 39.6982 35.7837 39.8153C35.5017 39.9325 35.2494 40.1112 35.0454 40.3386C34.8414 40.5659 34.6909 40.836 34.605 41.1291L34.4611 41.6055C33.8856 43.5621 31.1104 43.5621 30.5317 41.6055L30.3942 41.1259C30.3076 40.8329 30.1565 40.5631 29.952 40.3361C29.7475 40.1092 29.4948 39.9309 29.2124 39.8144C28.93 39.6979 28.6251 39.6461 28.3201 39.6628C28.015 39.6795 27.7176 39.7643 27.4496 39.9109L27.0148 40.1475C25.2212 41.1227 23.2581 39.1596 24.2332 37.366L24.473 36.9312C24.619 36.6629 24.7031 36.3653 24.7191 36.0603C24.735 35.7553 24.6826 35.4506 24.5654 35.1685C24.4483 34.8864 24.2695 34.6342 24.0422 34.4302C23.8149 34.2262 23.5448 34.0757 23.2517 33.9897L22.7785 33.849C20.8186 33.2704 20.8186 30.4952 22.7785 29.9165L23.2517 29.779C23.5452 29.6931 23.8158 29.5426 24.0434 29.3384C24.2711 29.1342 24.4501 28.8815 24.5672 28.5991C24.6844 28.3166 24.7368 28.0114 24.7205 27.706C24.7042 27.4006 24.6196 27.1028 24.473 26.8344L24.2364 26.3996C23.2581 24.6059 25.2212 22.6429 27.0148 23.618L27.4496 23.8578C27.7179 24.0038 28.0155 24.0878 28.3205 24.1038C28.6255 24.1198 28.9302 24.0673 29.2123 23.9502C29.4943 23.8331 29.7466 23.6543 29.9506 23.427C30.1546 23.1996 30.3051 22.9295 30.391 22.6365L30.5349 22.1633ZM37.2938 31.8828C37.2938 31.253 37.1698 30.6293 36.9287 30.0475C36.6877 29.4656 36.3345 28.937 35.8891 28.4916C35.4438 28.0463 34.9151 27.693 34.3333 27.452C33.7514 27.211 33.1278 27.087 32.498 27.087C31.8682 27.087 31.2446 27.211 30.6627 27.452C30.0809 27.693 29.5522 28.0463 29.1069 28.4916C28.6615 28.937 28.3083 29.4656 28.0673 30.0475C27.8262 30.6293 27.7022 31.253 27.7022 31.8828C27.7022 33.1547 28.2075 34.3745 29.1069 35.2739C30.0062 36.1733 31.2261 36.6786 32.498 36.6786C33.7699 36.6786 34.9898 36.1733 35.8891 35.2739C36.7885 34.3745 37.2938 33.1547 37.2938 31.8828Z" fill="#D75337"/>
</svg>
