<svg width="42" height="53" viewBox="0 0 42 53" fill="none" xmlns="http://www.w3.org/2000/svg">
<path d="M24.3793 13.5042V4.41083C24.3793 2.79732 23.0712 1.48633 21.4548 1.48633H7.6534C6.03412 1.48633 4.72602 2.79443 4.72602 4.41083V38.4878M1.49609 38.4878H15.8103M4.72602 9.00073H11.814M4.72602 16.3855H15.8103" stroke="#181818" stroke-width="2.88129" stroke-linecap="round" stroke-linejoin="round"/>
<mask id="path-2-outside-1_1_52471" maskUnits="userSpaceOnUse" x="18.5645" y="15.3262" width="23" height="27" fill="black">
<rect fill="white" x="18.5645" y="15.3262" width="23" height="27"/>
<path d="M34.6137 25.5215C34.6137 31.7617 25.2475 31.7617 25.2475 25.5215H27.5891C27.5891 28.6475 32.2721 28.6475 32.2721 25.5215M39.2967 36.0585V39.5708H20.5645V36.0585C20.5645 32.9325 26.8046 31.3754 29.9306 31.3754C33.0565 31.3754 39.2967 32.9325 39.2967 36.0585ZM37.0723 36.0585C37.0723 35.3092 33.4078 33.5998 29.9306 33.5998C26.4534 33.5998 22.7889 35.3092 22.7889 36.0585V37.3463H37.0723M30.516 17.3262C30.8438 17.3262 31.1014 17.5837 31.1014 17.9116V21.4239H32.2721V18.4969C33.1007 18.8804 33.7949 19.504 34.2646 20.2869C34.7343 21.0698 34.9579 21.9758 34.9064 22.8873C34.9064 22.8873 35.7259 23.0512 35.7844 24.3508H24.0768C24.0768 23.0512 24.9548 22.8873 24.9548 22.8873C24.9033 21.9758 25.1269 21.0698 25.5966 20.2869C26.0663 19.504 26.7605 18.8804 27.5891 18.4969V21.4239H28.7598V17.9116C28.7598 17.5837 29.0174 17.3262 29.3452 17.3262"/>
</mask>
<path d="M34.6137 25.5215C34.6137 31.7617 25.2475 31.7617 25.2475 25.5215H27.5891C27.5891 28.6475 32.2721 28.6475 32.2721 25.5215M39.2967 36.0585V39.5708H20.5645V36.0585C20.5645 32.9325 26.8046 31.3754 29.9306 31.3754C33.0565 31.3754 39.2967 32.9325 39.2967 36.0585ZM37.0723 36.0585C37.0723 35.3092 33.4078 33.5998 29.9306 33.5998C26.4534 33.5998 22.7889 35.3092 22.7889 36.0585V37.3463H37.0723M30.516 17.3262C30.8438 17.3262 31.1014 17.5837 31.1014 17.9116V21.4239H32.2721V18.4969C33.1007 18.8804 33.7949 19.504 34.2646 20.2869C34.7343 21.0698 34.9579 21.9758 34.9064 22.8873C34.9064 22.8873 35.7259 23.0512 35.7844 24.3508H24.0768C24.0768 23.0512 24.9548 22.8873 24.9548 22.8873C24.9033 21.9758 25.1269 21.0698 25.5966 20.2869C26.0663 19.504 26.7605 18.8804 27.5891 18.4969V21.4239H28.7598V17.9116C28.7598 17.5837 29.0174 17.3262 29.3452 17.3262" fill="#181818"/>
<path d="M25.2475 25.5215V23.7087H23.4347V25.5215H25.2475ZM27.5891 25.5215H29.4019V23.7087H27.5891V25.5215ZM39.2967 39.5708V41.3836H41.1095V39.5708H39.2967ZM20.5645 39.5708H18.7517V41.3836H20.5645V39.5708ZM22.7889 37.3463H20.9761V39.1591H22.7889V37.3463ZM31.1014 21.4239H29.2886V23.2367H31.1014V21.4239ZM32.2721 21.4239V23.2367H34.0849V21.4239H32.2721ZM32.2721 18.4969L33.0335 16.8518L30.4593 15.6605V18.4969H32.2721ZM34.9064 22.8873L33.0965 22.7849L33.0076 24.3563L34.5508 24.6649L34.9064 22.8873ZM35.7844 24.3508V26.1636H37.6807L37.5954 24.2692L35.7844 24.3508ZM24.0768 24.3508H22.264V26.1636H24.0768V24.3508ZM24.9548 22.8873L25.2875 24.6693L26.8548 24.3768L26.7647 22.7849L24.9548 22.8873ZM27.5891 18.4969H29.4019V15.6605L26.8277 16.8518L27.5891 18.4969ZM27.5891 21.4239H25.7763V23.2367H27.5891V21.4239ZM28.7598 21.4239V23.2367H30.5726V21.4239H28.7598ZM32.8009 25.5215C32.8009 26.5893 32.4183 27.2571 31.9463 27.6764C31.4408 28.1254 30.7154 28.3889 29.9306 28.3889C29.1458 28.3889 28.4204 28.1254 27.9149 27.6764C27.4429 27.2571 27.0603 26.5893 27.0603 25.5215H23.4347C23.4347 27.5739 24.2229 29.2462 25.507 30.3869C26.7577 31.498 28.3739 32.0145 29.9306 32.0145C31.4873 32.0145 33.1035 31.498 34.3541 30.3869C35.6383 29.2462 36.4265 27.5739 36.4265 25.5215H32.8009ZM25.2475 27.3343H27.5891V23.7087H25.2475V27.3343ZM25.7763 25.5215C25.7763 26.7942 26.2708 27.8822 27.1156 28.6341C27.9272 29.3563 28.9583 29.6788 29.9306 29.6788C30.9029 29.6788 31.934 29.3563 32.7456 28.6341C33.5904 27.8822 34.0849 26.7942 34.0849 25.5215H30.4593C30.4593 25.6825 30.4301 25.7749 30.4098 25.8214C30.3895 25.8677 30.3648 25.8994 30.3352 25.9257C30.2687 25.9849 30.1291 26.0532 29.9306 26.0532C29.7321 26.0532 29.5925 25.9849 29.526 25.9257C29.4964 25.8994 29.4717 25.8677 29.4514 25.8214C29.4311 25.7749 29.4019 25.6825 29.4019 25.5215H25.7763ZM37.4839 36.0585V39.5708H41.1095V36.0585H37.4839ZM39.2967 37.758H20.5645V41.3836H39.2967V37.758ZM22.3773 39.5708V36.0585H18.7517V39.5708H22.3773ZM22.3773 36.0585C22.3773 35.9408 22.4213 35.7065 22.8184 35.3395C23.2286 34.9606 23.8839 34.5736 24.7483 34.2279C26.4799 33.5356 28.5925 33.1882 29.9306 33.1882V29.5626C28.1427 29.5626 25.5723 29.9938 23.4023 30.8615C22.3159 31.2959 21.2157 31.8842 20.3582 32.6764C19.4877 33.4806 18.7517 34.6131 18.7517 36.0585H22.3773ZM29.9306 33.1882C31.2687 33.1882 33.3813 33.5356 35.1129 34.2279C35.9773 34.5736 36.6326 34.9606 37.0428 35.3395C37.4399 35.7065 37.4839 35.9408 37.4839 36.0585H41.1095C41.1095 34.6131 40.3735 33.4806 39.503 32.6764C38.6455 31.8842 37.5453 31.2959 36.4589 30.8615C34.2889 29.9938 31.7185 29.5626 29.9306 29.5626V33.1882ZM38.8851 36.0585C38.8851 35.2742 38.4458 34.7357 38.2533 34.5225C38.0082 34.2512 37.7178 34.028 37.4519 33.8505C36.9094 33.4883 36.213 33.1481 35.4577 32.8568C33.9462 32.2738 31.938 31.787 29.9306 31.787V35.4126C31.4004 35.4126 32.963 35.7805 34.153 36.2395C34.7485 36.4692 35.1856 36.6968 35.4389 36.8659C35.5708 36.954 35.5939 36.9872 35.5628 36.9528C35.5454 36.9336 35.4832 36.8625 35.4192 36.7384C35.3561 36.616 35.2595 36.3798 35.2595 36.0585H38.8851ZM29.9306 31.787C27.9232 31.787 25.915 32.2738 24.4035 32.8568C23.6482 33.1481 22.9518 33.4883 22.4093 33.8505C22.1434 34.028 21.853 34.2512 21.6079 34.5225C21.4154 34.7357 20.9761 35.2742 20.9761 36.0585H24.6017C24.6017 36.3798 24.5051 36.616 24.442 36.7384C24.378 36.8625 24.3158 36.9336 24.2984 36.9528C24.2673 36.9872 24.2904 36.954 24.4223 36.8659C24.6756 36.6968 25.1127 36.4692 25.7082 36.2395C26.8982 35.7805 28.4608 35.4126 29.9306 35.4126V31.787ZM20.9761 36.0585V37.3463H24.6017V36.0585H20.9761ZM22.7889 39.1591H37.0723V35.5335H22.7889V39.1591ZM30.516 19.139C29.8426 19.139 29.2886 18.5849 29.2886 17.9116H32.9142C32.9142 16.5826 31.845 15.5134 30.516 15.5134V19.139ZM29.2886 17.9116V21.4239H32.9142V17.9116H29.2886ZM31.1014 23.2367H32.2721V19.6111H31.1014V23.2367ZM34.0849 21.4239V18.4969H30.4593V21.4239H34.0849ZM31.5108 20.1421C32.0095 20.3729 32.4274 20.7483 32.7102 21.2196L35.8191 19.3542C35.1624 18.2597 34.1919 17.3879 33.0335 16.8518L31.5108 20.1421ZM32.7102 21.2196C32.9929 21.6909 33.1275 22.2362 33.0965 22.7849L36.7163 22.9897C36.7884 21.7154 36.4758 20.4487 35.8191 19.3542L32.7102 21.2196ZM34.9064 22.8873C34.5508 24.6649 34.5495 24.6647 34.5482 24.6644C34.5478 24.6643 34.5465 24.664 34.5456 24.6639C34.5439 24.6635 34.5422 24.6632 34.5404 24.6628C34.537 24.6621 34.5336 24.6614 34.5302 24.6607C34.5234 24.6592 34.5168 24.6578 34.5103 24.6563C34.4972 24.6533 34.4845 24.6503 34.4722 24.6472C34.4476 24.641 34.4244 24.6345 34.4023 24.6276C34.3584 24.6139 34.3176 24.5984 34.2794 24.5809C34.2027 24.5457 34.1307 24.4995 34.069 24.4404C33.9079 24.2859 33.9627 24.194 33.9735 24.4324L37.5954 24.2692C37.5476 23.208 37.1634 22.3843 36.5779 21.8231C36.304 21.5605 36.0234 21.3921 35.7913 21.2856C35.6753 21.2324 35.5701 21.1939 35.4811 21.1662C35.4365 21.1523 35.3956 21.141 35.359 21.1317C35.3407 21.1271 35.3234 21.123 35.3072 21.1194C35.2991 21.1175 35.2913 21.1158 35.2837 21.1142C35.2799 21.1134 35.2762 21.1126 35.2726 21.1119C35.2708 21.1115 35.269 21.1112 35.2672 21.1108C35.2663 21.1106 35.265 21.1103 35.2645 21.1102C35.2632 21.11 35.2619 21.1097 34.9064 22.8873ZM35.7844 22.538H24.0768V26.1636H35.7844V22.538ZM25.8896 24.3508C25.8896 24.1575 25.9326 24.2903 25.748 24.4614C25.6808 24.5236 25.6078 24.5665 25.5384 24.5966C25.5032 24.6118 25.4659 24.6251 25.4258 24.6369C25.4056 24.6428 25.3842 24.6484 25.3614 24.6538C25.3499 24.6565 25.3381 24.6592 25.3258 24.6617C25.3196 24.663 25.3134 24.6643 25.307 24.6656C25.3038 24.6662 25.3006 24.6668 25.2973 24.6675C25.2957 24.6678 25.2941 24.6681 25.2924 24.6684C25.2916 24.6686 25.2904 24.6688 25.29 24.6689C25.2887 24.6691 25.2875 24.6693 24.9548 22.8873C24.6222 21.1053 24.6209 21.1055 24.6197 21.1058C24.6193 21.1058 24.618 21.1061 24.6172 21.1062C24.6155 21.1066 24.6137 21.1069 24.612 21.1072C24.6085 21.1079 24.605 21.1086 24.6014 21.1093C24.5942 21.1107 24.5866 21.1123 24.5788 21.1139C24.5632 21.1172 24.5465 21.1209 24.5286 21.1251C24.4929 21.1336 24.4526 21.144 24.4084 21.1569C24.3203 21.1827 24.2144 21.219 24.0969 21.2699C23.8628 21.3713 23.5703 21.5364 23.2836 21.802C22.66 22.38 22.264 23.2445 22.264 24.3508H25.8896ZM26.7647 22.7849C26.7337 22.2362 26.8683 21.6909 27.151 21.2196L24.0421 19.3542C23.3854 20.4487 23.0728 21.7154 23.1449 22.9897L26.7647 22.7849ZM27.151 21.2196C27.4338 20.7483 27.8517 20.3729 28.3504 20.1421L26.8277 16.8518C25.6693 17.3879 24.6988 18.2597 24.0421 19.3542L27.151 21.2196ZM25.7763 18.4969V21.4239H29.4019V18.4969H25.7763ZM27.5891 23.2367H28.7598V19.6111H27.5891V23.2367ZM30.5726 21.4239V17.9116H26.947V21.4239H30.5726ZM30.5726 17.9116C30.5726 18.5849 30.0186 19.139 29.3452 19.139V15.5134C28.0162 15.5134 26.947 16.5826 26.947 17.9116H30.5726Z" fill="#F8F8F8" mask="url(#path-2-outside-1_1_52471)"/>
<circle cx="19.9962" cy="41.3341" r="11.3048" fill="#FCF3F0"/>
<path d="M10.2748 41.1277C10.2748 46.502 14.6461 50.8733 20.0203 50.8733C25.3946 50.8733 29.7659 46.502 29.7659 41.1277C29.7659 35.7535 25.3946 31.3822 20.0203 31.3822C14.6461 31.3822 10.2748 35.7535 10.2748 41.1277ZM12.2703 41.1277C12.2703 36.8525 15.7451 33.3777 20.0203 33.3777C24.2955 33.3777 27.7703 36.8525 27.7703 41.1277C27.7703 45.403 24.2955 48.8778 20.0203 48.8778C15.7451 48.8778 12.2703 45.403 12.2703 41.1277Z" fill="#D75337" stroke="#D75337" stroke-width="0.649703"/>
<path d="M22.714 44.6563L22.7132 44.6563C22.5687 44.6563 22.4167 44.6242 22.2786 44.5383L18.9152 42.5202L18.9143 42.5197C18.7912 42.4447 18.6895 42.3392 18.6193 42.2133C18.5491 42.0875 18.5126 41.9458 18.5134 41.8018M22.714 44.6563L18.6758 41.8023M22.714 44.6563C22.8962 44.6555 23.0733 44.5952 23.2182 44.4847C23.3631 44.3742 23.4681 44.2195 23.5172 44.0439C23.5663 43.8684 23.5568 43.6816 23.4901 43.512C23.4235 43.3423 23.3034 43.199 23.148 43.1038L23.148 43.1038L23.1464 43.1028L20.184 41.3333M22.714 44.6563L20.0216 41.4254M18.5134 41.8018C18.5134 41.8016 18.5134 41.8015 18.5134 41.8013L18.6758 41.8023M18.5134 41.8018V41.8023H18.6758M18.5134 41.8018V36.419C18.5134 35.9525 18.8822 35.5837 19.3487 35.5837C19.8152 35.5837 20.184 35.9525 20.184 36.419V41.3333M18.6758 41.8023V36.419C18.6758 36.0422 18.9719 35.7461 19.3487 35.7461C19.7255 35.7461 20.0216 36.0422 20.0216 36.419V41.4254M20.184 41.3333L20.1049 41.286L20.0216 41.4254M20.184 41.3333V41.4254H20.0216" fill="#D75337" stroke="#D75337" stroke-width="0.324852"/>
</svg>
