<svg width="187" height="137" viewBox="0 0 187 137" fill="none" xmlns="http://www.w3.org/2000/svg">
<path d="M167.623 127.629H155.316V127.722H167.623V127.629Z" fill="#EBEBEB"/>
<path d="M123.526 128.64H120.297V128.733H123.526V128.64Z" fill="#EBEBEB"/>
<path d="M154.945 124.181H147.814V124.274H154.945V124.181Z" fill="#EBEBEB"/>
<path d="M35.9952 124.805H19.9473V124.898H35.9952V124.805Z" fill="#EBEBEB"/>
<path d="M41.6587 124.805H39.3066V124.898H41.6587V124.805Z" fill="#EBEBEB"/>
<path d="M84.113 126.373H49.3047V126.466H84.113V126.373Z" fill="#EBEBEB"/>
<path d="M89.035 105.079H17.2857C16.723 105.079 16.1834 104.855 15.7855 104.457C15.3876 104.059 15.1641 103.52 15.1641 102.957V2.10306C15.169 1.54359 15.3947 1.00871 15.792 0.614832C16.1894 0.220956 16.7262 -2.1449e-05 17.2857 1.56152e-09H89.035C89.3137 1.56153e-09 89.5895 0.0548774 89.847 0.1615C90.1044 0.268122 90.3382 0.424402 90.5353 0.621414C90.7323 0.818427 90.8885 1.05232 90.9952 1.30972C91.1018 1.56713 91.1567 1.84302 91.1567 2.12164V102.957C91.1567 103.236 91.1018 103.512 90.9952 103.769C90.8885 104.026 90.7323 104.26 90.5353 104.457C90.3382 104.654 90.1044 104.811 89.847 104.917C89.5895 105.024 89.3137 105.079 89.035 105.079ZM17.2857 0.0743134C16.7479 0.0752956 16.2325 0.289353 15.8522 0.669605C15.472 1.04986 15.2579 1.56531 15.257 2.10306V102.957C15.2579 103.495 15.472 104.01 15.8522 104.391C16.2325 104.771 16.7479 104.985 17.2857 104.986H89.035C89.5728 104.985 90.0882 104.771 90.4685 104.391C90.8487 104.01 91.0628 103.495 91.0638 102.957V2.10306C91.0628 1.56531 90.8487 1.04986 90.4685 0.669605C90.0882 0.289353 89.5728 0.0752956 89.035 0.0743134H17.2857Z" fill="#EBEBEB"/>
<path d="M169.406 105.079H97.6568C97.0941 105.079 96.5545 104.855 96.1566 104.457C95.7587 104.059 95.5352 103.52 95.5352 102.957V2.10306C95.5401 1.54359 95.7657 1.00871 96.1631 0.614832C96.5605 0.220956 97.0973 -2.1449e-05 97.6568 1.56152e-09H169.406C169.969 1.56153e-09 170.508 0.223529 170.906 0.621414C171.304 1.0193 171.528 1.55895 171.528 2.12164V102.957C171.528 103.52 171.304 104.059 170.906 104.457C170.508 104.855 169.969 105.079 169.406 105.079ZM97.6568 0.0743134C97.119 0.0752956 96.6036 0.289353 96.2233 0.669605C95.8431 1.04986 95.629 1.56531 95.6281 2.10306V102.957C95.629 103.495 95.8431 104.01 96.2233 104.391C96.6036 104.771 97.119 104.985 97.6568 104.986H169.406C169.944 104.985 170.459 104.771 170.84 104.391C171.22 104.01 171.434 103.495 171.435 102.957V2.10306C171.434 1.56531 171.22 1.04986 170.84 0.669605C170.459 0.289353 169.944 0.0752956 169.406 0.0743134H97.6568Z" fill="#EBEBEB"/>
<path d="M186.238 121.65H0.455078V121.743H186.238V121.65Z" fill="#EBEBEB"/>
<path d="M79.442 21.2425C79.0515 21.2363 78.6713 21.3678 78.3682 21.6141C78.4296 21.2775 78.4296 20.9326 78.3682 20.596C78.2039 19.7962 77.7759 19.0746 77.1527 18.5471C76.5295 18.0196 75.7472 17.7165 74.9312 17.6866C74.4724 17.6808 74.0205 17.7989 73.6233 18.0285C73.3214 17.4743 72.8802 17.0084 72.3433 16.6767C71.8064 16.3451 71.1923 16.1591 70.5616 16.1372C70.1974 16.1244 69.8352 16.1959 69.5032 16.3461C69.1712 16.4963 68.8784 16.7211 68.6476 17.0031C68.4167 17.285 68.254 17.6164 68.1723 17.9715C68.0905 18.3266 68.0918 18.6958 68.1761 19.0503C68.2014 19.1758 68.2337 19.2999 68.2727 19.4218C68.017 19.3537 67.7535 19.3187 67.4887 19.3178C67.1246 19.305 66.7624 19.3765 66.4304 19.5267C66.0984 19.6769 65.8056 19.9017 65.5747 20.1837C65.3438 20.4656 65.1812 20.797 65.0994 21.1521C65.0177 21.5072 65.019 21.8764 65.1033 22.2309C65.2669 23.031 65.6948 23.7529 66.3181 24.2805C66.9415 24.8082 67.7241 25.111 68.5403 25.1402H80.1443C80.3888 25.1491 80.6322 25.1013 80.8553 25.0007C81.0784 24.9001 81.2753 24.7494 81.4306 24.5603C81.5859 24.3712 81.6955 24.1487 81.7508 23.9103C81.8061 23.6719 81.8056 23.424 81.7494 23.1858C81.637 22.6508 81.3487 22.1688 80.9305 21.8166C80.5124 21.4644 79.9884 21.2623 79.442 21.2425Z" fill="#F5F5F5"/>
<path d="M60.3786 23.643C59.6694 23.6304 58.9786 23.8685 58.4279 24.3156C58.5446 23.7018 58.5446 23.0715 58.4279 22.4577C57.9003 19.5372 55.1098 17.1704 52.1893 17.1704C51.3578 17.1611 50.539 17.3754 49.8187 17.7909C48.704 15.7881 46.5229 14.3613 44.2452 14.3613C41.3247 14.3613 39.3851 16.7282 39.9128 19.6487C39.9573 19.8863 40.0169 20.1209 40.0911 20.351C39.6266 20.2284 39.1484 20.1648 38.668 20.1615C35.7475 20.1615 33.8117 22.5283 34.3356 25.4451C34.8595 28.3619 37.6574 30.7325 40.5742 30.7325H61.6419C63.6038 30.7325 64.9043 29.1422 64.5513 27.1803C64.3475 26.211 63.8267 25.3371 63.0711 24.6966C62.3156 24.0561 61.3682 23.6854 60.3786 23.643Z" fill="#F5F5F5"/>
<path d="M145.511 24.8465C144.801 24.8346 144.11 25.0741 143.56 25.5228C143.676 24.909 143.676 24.2788 143.56 23.665C143.036 20.7482 140.242 18.3813 137.322 18.3813C136.491 18.3721 135.674 18.5865 134.955 19.0018C133.84 16.9991 131.655 15.5723 129.381 15.5723C126.461 15.5723 124.521 17.9391 125.049 20.8559C125.095 21.0945 125.154 21.3302 125.227 21.5619C124.763 21.4364 124.285 21.3715 123.804 21.3687C120.887 21.3687 118.948 23.7356 119.475 26.6561C120.003 29.5766 122.808 31.9546 125.729 31.9546H146.793C148.755 31.9546 150.055 30.3643 149.702 28.4061C149.502 27.4297 148.98 26.5485 148.221 25.9033C147.461 25.2581 146.507 24.886 145.511 24.8465Z" fill="#F5F5F5"/>
<path d="M156.884 20.1459C156.587 20.1398 156.299 20.24 156.07 20.4283C156.118 20.1742 156.118 19.9132 156.07 19.6591C155.947 19.0531 155.623 18.5062 155.151 18.1065C154.68 17.7068 154.087 17.4776 153.469 17.4557C153.122 17.4507 152.78 17.5406 152.481 17.7158C152.252 17.297 151.918 16.9449 151.513 16.6941C151.107 16.4433 150.643 16.3024 150.166 16.2853C149.89 16.2756 149.616 16.3296 149.365 16.4431C149.114 16.5566 148.892 16.7267 148.717 16.9399C148.543 17.1531 148.419 17.4038 148.357 17.6725C148.295 17.9411 148.296 18.2204 148.36 18.4887C148.379 18.5879 148.404 18.6859 148.434 18.7822C148.242 18.7291 148.043 18.7016 147.844 18.7005C147.568 18.69 147.293 18.7435 147.042 18.8568C146.79 18.9701 146.568 19.1401 146.393 19.3535C146.218 19.567 146.095 19.818 146.033 20.087C145.972 20.3559 145.973 20.6355 146.038 20.9039C146.162 21.5092 146.485 22.0552 146.957 22.4542C147.429 22.8532 148.021 23.0819 148.639 23.1035H157.415C157.601 23.1099 157.785 23.0732 157.954 22.9965C158.123 22.9197 158.272 22.8048 158.389 22.6609C158.507 22.517 158.589 22.3479 158.63 22.1669C158.671 21.9858 158.67 21.7977 158.626 21.6173C158.541 21.2132 158.323 20.8491 158.007 20.5827C157.692 20.3162 157.296 20.1625 156.884 20.1459Z" fill="#F0F0F0"/>
<path d="M102.855 37.9848V34.3955H95.6016V37.9848H83.5703V122.427H104.608V37.9848H102.855Z" fill="#F0F0F0"/>
<path d="M93.4715 42.5176H90.3652V45.6239H93.4715V42.5176Z" fill="#FAFAFA"/>
<path d="M97.8133 42.5186H94.707V45.6248H97.8133V42.5186Z" fill="#FAFAFA"/>
<path d="M89.1336 47.2031H86.0273V50.3094H89.1336V47.2031Z" fill="#FAFAFA"/>
<path d="M93.4715 47.2031H90.3652V50.3094H93.4715V47.2031Z" fill="#FAFAFA"/>
<path d="M102.153 47.2031H99.0469V50.3094H102.153V47.2031Z" fill="#FAFAFA"/>
<path d="M89.1336 51.8926H86.0273V54.9989H89.1336V51.8926Z" fill="#FAFAFA"/>
<path d="M97.8133 51.8926H94.707V54.9989H97.8133V51.8926Z" fill="#FAFAFA"/>
<path d="M102.153 51.8926H99.0469V54.9989H102.153V51.8926Z" fill="#FAFAFA"/>
<path d="M89.1336 61.2637H86.0273V64.37H89.1336V61.2637Z" fill="#FAFAFA"/>
<path d="M97.8133 61.2637H94.707V64.37H97.8133V61.2637Z" fill="#FAFAFA"/>
<path d="M89.1336 65.9492H86.0273V69.0555H89.1336V65.9492Z" fill="#FAFAFA"/>
<path d="M93.4715 65.9492H90.3652V69.0555H93.4715V65.9492Z" fill="#FAFAFA"/>
<path d="M102.153 65.9492H99.0469V69.0555H102.153V65.9492Z" fill="#FAFAFA"/>
<path d="M89.1336 89.3506H86.0273V92.4569H89.1336V89.3506Z" fill="#FAFAFA"/>
<path d="M93.4715 89.3506H90.3652V92.4569H93.4715V89.3506Z" fill="#FAFAFA"/>
<path d="M102.153 89.3506H99.0469V92.4569H102.153V89.3506Z" fill="#FAFAFA"/>
<path d="M89.1336 94.0352H86.0273V97.1415H89.1336V94.0352Z" fill="#FAFAFA"/>
<path d="M97.8133 94.0352H94.707V97.1415H97.8133V94.0352Z" fill="#FAFAFA"/>
<path d="M102.153 94.0352H99.0469V97.1415H102.153V94.0352Z" fill="#FAFAFA"/>
<path d="M89.1336 103.41H86.0273V106.516H89.1336V103.41Z" fill="#FAFAFA"/>
<path d="M97.8133 103.41H94.707V106.516H97.8133V103.41Z" fill="#FAFAFA"/>
<path d="M89.1336 108.096H86.0273V111.202H89.1336V108.096Z" fill="#FAFAFA"/>
<path d="M93.4715 108.096H90.3652V111.202H93.4715V108.096Z" fill="#FAFAFA"/>
<path d="M102.153 108.096H99.0469V111.202H102.153V108.096Z" fill="#FAFAFA"/>
<path d="M102.153 70.6387H99.0469V73.745H102.153V70.6387Z" fill="#FAFAFA"/>
<path d="M89.1336 75.3242H86.0273V78.4305H89.1336V75.3242Z" fill="#FAFAFA"/>
<path d="M93.4715 75.3242H90.3652V78.4305H93.4715V75.3242Z" fill="#FAFAFA"/>
<path d="M97.8364 80.062L94.7305 80.0176L94.686 83.1235L97.792 83.168L97.8364 80.062Z" fill="#FAFAFA"/>
<path d="M102.174 80.1245L99.0684 80.0801L99.0239 83.1861L102.13 83.2305L102.174 80.1245Z" fill="#FAFAFA"/>
<path d="M89.1336 84.6953H86.0273V87.8016H89.1336V84.6953Z" fill="#FAFAFA"/>
<path d="M143.224 54.0777V51.1758H149.091V54.0777H158.834V122.427H141.805V54.0777H143.224Z" fill="#F0F0F0"/>
<path d="M150.82 60.2646H153.336V57.7491H150.82V60.2646Z" fill="#FAFAFA"/>
<path d="M147.305 60.2646H149.82V57.7491H147.305V60.2646Z" fill="#FAFAFA"/>
<path d="M154.332 64.0586H156.848V61.5431H154.332V64.0586Z" fill="#FAFAFA"/>
<path d="M150.82 64.0576H153.336V61.5421H150.82V64.0576Z" fill="#FAFAFA"/>
<path d="M143.789 64.0576H146.305V61.5421H143.789V64.0576Z" fill="#FAFAFA"/>
<path d="M154.332 67.8516H156.848V65.3361H154.332V67.8516Z" fill="#FAFAFA"/>
<path d="M147.305 67.8516H149.82V65.3361H147.305V67.8516Z" fill="#FAFAFA"/>
<path d="M143.789 67.8516H146.305V65.3361H143.789V67.8516Z" fill="#FAFAFA"/>
<path d="M154.332 75.4355H156.848V72.92H154.332V75.4355Z" fill="#FAFAFA"/>
<path d="M147.305 75.4355H149.82V72.92H147.305V75.4355Z" fill="#FAFAFA"/>
<path d="M154.332 79.2324H156.848V76.7169H154.332V79.2324Z" fill="#FAFAFA"/>
<path d="M150.82 79.2324H153.336V76.7169H150.82V79.2324Z" fill="#FAFAFA"/>
<path d="M143.789 79.2324H146.305V76.7169H143.789V79.2324Z" fill="#FAFAFA"/>
<path d="M154.332 98.1719H156.848V95.6564H154.332V98.1719Z" fill="#FAFAFA"/>
<path d="M150.82 98.1719H153.336V95.6564H150.82V98.1719Z" fill="#FAFAFA"/>
<path d="M143.789 98.1719H146.305V95.6564H143.789V98.1719Z" fill="#FAFAFA"/>
<path d="M154.332 101.961H156.848V99.4454H154.332V101.961Z" fill="#FAFAFA"/>
<path d="M147.305 101.961H149.82V99.4454H147.305V101.961Z" fill="#FAFAFA"/>
<path d="M143.789 101.961H146.305V99.4454H143.789V101.961Z" fill="#FAFAFA"/>
<path d="M154.332 109.553H156.848V107.037H154.332V109.553Z" fill="#FAFAFA"/>
<path d="M147.305 109.553H149.82V107.037H147.305V109.553Z" fill="#FAFAFA"/>
<path d="M154.332 113.346H156.848V110.83H154.332V113.346Z" fill="#FAFAFA"/>
<path d="M150.82 113.346H153.336V110.83H150.82V113.346Z" fill="#FAFAFA"/>
<path d="M143.789 113.346H146.305V110.83H143.789V113.346Z" fill="#FAFAFA"/>
<path d="M143.789 83.0264H146.305V80.5109H143.789V83.0264Z" fill="#FAFAFA"/>
<path d="M154.332 86.8164H156.848V84.3009H154.332V86.8164Z" fill="#FAFAFA"/>
<path d="M150.82 86.8164H153.336V84.3009H150.82V86.8164Z" fill="#FAFAFA"/>
<path d="M147.329 90.6483L149.844 90.6123L149.808 88.0971L147.293 88.1331L147.329 90.6483Z" fill="#FAFAFA"/>
<path d="M143.809 90.7059L146.324 90.6699L146.288 88.1547L143.773 88.1907L143.809 90.7059Z" fill="#FAFAFA"/>
<path d="M154.332 94.4043H156.848V91.8888H154.332V94.4043Z" fill="#FAFAFA"/>
<path d="M107.801 54.7646H113.612H123.254V122.427H106.396V54.7646H107.801Z" fill="#EBEBEB"/>
<path d="M115.321 60.8887H117.811V58.3992H115.321V60.8887Z" fill="#FAFAFA"/>
<path d="M111.843 60.8887H114.332V58.3992H111.843V60.8887Z" fill="#FAFAFA"/>
<path d="M118.796 64.6445H121.285V62.155H118.796V64.6445Z" fill="#FAFAFA"/>
<path d="M115.321 64.6455H117.811V62.156H115.321V64.6455Z" fill="#FAFAFA"/>
<path d="M108.366 64.6445H110.855V62.155H108.366V64.6445Z" fill="#FAFAFA"/>
<path d="M118.796 68.3975H121.285V65.908H118.796V68.3975Z" fill="#FAFAFA"/>
<path d="M111.843 68.3975H114.332V65.908H111.843V68.3975Z" fill="#FAFAFA"/>
<path d="M108.366 68.3975H110.855V65.908H108.366V68.3975Z" fill="#FAFAFA"/>
<path d="M118.796 75.9111H121.285V73.4216H118.796V75.9111Z" fill="#FAFAFA"/>
<path d="M111.843 75.9111H114.332V73.4216H111.843V75.9111Z" fill="#FAFAFA"/>
<path d="M118.796 79.6641H121.285V77.1746H118.796V79.6641Z" fill="#FAFAFA"/>
<path d="M115.321 79.6641H117.811V77.1746H115.321V79.6641Z" fill="#FAFAFA"/>
<path d="M108.366 79.6641H110.855V77.1746H108.366V79.6641Z" fill="#FAFAFA"/>
<path d="M118.796 98.4131H121.285V95.9236H118.796V98.4131Z" fill="#FAFAFA"/>
<path d="M115.321 98.4131H117.811V95.9236H115.321V98.4131Z" fill="#FAFAFA"/>
<path d="M108.366 98.4131H110.855V95.9236H108.366V98.4131Z" fill="#FAFAFA"/>
<path d="M118.796 102.17H121.285V99.6804H118.796V102.17Z" fill="#FAFAFA"/>
<path d="M111.843 102.17H114.332V99.6804H111.843V102.17Z" fill="#FAFAFA"/>
<path d="M108.366 102.17H110.855V99.6804H108.366V102.17Z" fill="#FAFAFA"/>
<path d="M118.796 109.679H121.285V107.189H118.796V109.679Z" fill="#FAFAFA"/>
<path d="M111.843 109.679H114.332V107.189H111.843V109.679Z" fill="#FAFAFA"/>
<path d="M118.796 113.432H121.285V110.942H118.796V113.432Z" fill="#FAFAFA"/>
<path d="M115.321 113.432H117.811V110.942H115.321V113.432Z" fill="#FAFAFA"/>
<path d="M108.366 113.432H110.855V110.942H108.366V113.432Z" fill="#FAFAFA"/>
<path d="M108.366 83.4199H110.855V80.9304H108.366V83.4199Z" fill="#FAFAFA"/>
<path d="M118.796 87.1729H121.285V84.6834H118.796V87.1729Z" fill="#FAFAFA"/>
<path d="M115.321 87.1729H117.811V84.6834H115.321V87.1729Z" fill="#FAFAFA"/>
<path d="M111.864 90.9731L114.354 90.9375L114.318 88.4483L111.829 88.4839L111.864 90.9731Z" fill="#FAFAFA"/>
<path d="M108.382 91.02L110.871 90.9844L110.835 88.4951L108.346 88.5308L108.382 91.02Z" fill="#FAFAFA"/>
<path d="M118.796 94.6855H121.285V92.1961H118.796V94.6855Z" fill="#FAFAFA"/>
<path d="M30.0098 54.7646H35.8174H45.4632V122.427H28.6016V54.7646H30.0098Z" fill="#F0F0F0"/>
<path d="M37.5261 60.8887H40.0156V58.3992H37.5261V60.8887Z" fill="#FAFAFA"/>
<path d="M34.0496 60.8887H36.5391V58.3992H34.0496V60.8887Z" fill="#FAFAFA"/>
<path d="M41.0007 64.6445H43.4902V62.155H41.0007V64.6445Z" fill="#FAFAFA"/>
<path d="M37.5261 64.6455H40.0156V62.156H37.5261V64.6455Z" fill="#FAFAFA"/>
<path d="M30.5691 64.6445H33.0586V62.155H30.5691V64.6445Z" fill="#FAFAFA"/>
<path d="M41.0007 68.3975H43.4902V65.908H41.0007V68.3975Z" fill="#FAFAFA"/>
<path d="M34.0496 68.3975H36.5391V65.908H34.0496V68.3975Z" fill="#FAFAFA"/>
<path d="M30.5691 68.3975H33.0586V65.908H30.5691V68.3975Z" fill="#FAFAFA"/>
<path d="M41.0007 75.9111H43.4902V73.4216H41.0007V75.9111Z" fill="#FAFAFA"/>
<path d="M34.0496 75.9111H36.5391V73.4216H34.0496V75.9111Z" fill="#FAFAFA"/>
<path d="M41.0007 79.6641H43.4902V77.1746H41.0007V79.6641Z" fill="#FAFAFA"/>
<path d="M37.5261 79.6641H40.0156V77.1746H37.5261V79.6641Z" fill="#FAFAFA"/>
<path d="M30.5691 79.6641H33.0586V77.1746H30.5691V79.6641Z" fill="#FAFAFA"/>
<path d="M41.0007 98.4131H43.4902V95.9236H41.0007V98.4131Z" fill="#FAFAFA"/>
<path d="M37.5261 98.4131H40.0156V95.9236H37.5261V98.4131Z" fill="#FAFAFA"/>
<path d="M30.5691 98.4131H33.0586V95.9236H30.5691V98.4131Z" fill="#FAFAFA"/>
<path d="M41.0007 102.17H43.4902V99.6804H41.0007V102.17Z" fill="#FAFAFA"/>
<path d="M34.0496 102.17H36.5391V99.6804H34.0496V102.17Z" fill="#FAFAFA"/>
<path d="M30.5691 102.17H33.0586V99.6804H30.5691V102.17Z" fill="#FAFAFA"/>
<path d="M41.0007 109.679H43.4902V107.189H41.0007V109.679Z" fill="#FAFAFA"/>
<path d="M34.0496 109.679H36.5391V107.189H34.0496V109.679Z" fill="#FAFAFA"/>
<path d="M41.0007 113.432H43.4902V110.942H41.0007V113.432Z" fill="#FAFAFA"/>
<path d="M37.5261 113.432H40.0156V110.942H37.5261V113.432Z" fill="#FAFAFA"/>
<path d="M30.5691 113.432H33.0586V110.942H30.5691V113.432Z" fill="#FAFAFA"/>
<path d="M30.5691 83.4199H33.0586V80.9304H30.5691V83.4199Z" fill="#FAFAFA"/>
<path d="M41.0007 87.1729H43.4902V84.6834H41.0007V87.1729Z" fill="#FAFAFA"/>
<path d="M37.5261 87.1729H40.0156V84.6834H37.5261V87.1729Z" fill="#FAFAFA"/>
<path d="M34.0694 90.9741L36.5586 90.9385L36.523 88.4492L34.0337 88.4849L34.0694 90.9741Z" fill="#FAFAFA"/>
<path d="M30.5889 91.021L33.0781 90.9854L33.0425 88.4961L30.5533 88.5317L30.5889 91.021Z" fill="#FAFAFA"/>
<path d="M41.0007 94.6855H43.4902V92.1961H41.0007V94.6855Z" fill="#FAFAFA"/>
<path d="M63.2656 122.427H81.7845V44.0605L63.2656 46.041V122.427Z" fill="#F0F0F0"/>
<path d="M75.7225 52.4209H80.7832V47.3602H75.7225V52.4209Z" fill="#FAFAFA"/>
<path d="M69.994 52.4209H75.0547V47.3602H69.994V52.4209Z" fill="#F0F0F0"/>
<path d="M64.2596 52.4209H69.3203V47.3602H64.2596V52.4209Z" fill="#FAFAFA"/>
<path d="M75.7225 58.0762H80.7832V53.0154H75.7225V58.0762Z" fill="#FAFAFA"/>
<path d="M69.994 58.0762H75.0547V53.0154H69.994V58.0762Z" fill="#FAFAFA"/>
<path d="M64.2596 58.0762H69.3203V53.0154H64.2596V58.0762Z" fill="#FAFAFA"/>
<path d="M75.7225 63.7305H80.7832V58.6697H75.7225V63.7305Z" fill="#FAFAFA"/>
<path d="M69.994 63.7305H75.0547V58.6697H69.994V63.7305Z" fill="#F0F0F0"/>
<path d="M64.2596 63.7305H69.3203V58.6697H64.2596V63.7305Z" fill="#FAFAFA"/>
<path d="M75.7225 69.3828H80.7832V64.3221H75.7225V69.3828Z" fill="#F0F0F0"/>
<path d="M69.994 69.3828H75.0547V64.3221H69.994V69.3828Z" fill="#FAFAFA"/>
<path d="M64.2596 69.3828H69.3203V64.3221H64.2596V69.3828Z" fill="#FAFAFA"/>
<path d="M75.7225 75.0371H80.7832V69.9764H75.7225V75.0371Z" fill="#FAFAFA"/>
<path d="M69.994 75.0371H75.0547V69.9764H69.994V75.0371Z" fill="#FAFAFA"/>
<path d="M64.2596 75.0371H69.3203V69.9764H64.2596V75.0371Z" fill="#F0F0F0"/>
<path d="M75.7225 80.6855H80.7832V75.6248H75.7225V80.6855Z" fill="#FAFAFA"/>
<path d="M69.994 80.6855H75.0547V75.6248H69.994V80.6855Z" fill="#F0F0F0"/>
<path d="M64.2596 80.6855H69.3203V75.6248H64.2596V80.6855Z" fill="#FAFAFA"/>
<path d="M75.7225 86.3408H80.7832V81.2801H75.7225V86.3408Z" fill="#F0F0F0"/>
<path d="M69.994 86.3408H75.0547V81.2801H69.994V86.3408Z" fill="#F0F0F0"/>
<path d="M64.2596 86.3408H69.3203V81.2801H64.2596V86.3408Z" fill="#FAFAFA"/>
<path d="M75.7225 91.9961H80.7832V86.9354H75.7225V91.9961Z" fill="#FAFAFA"/>
<path d="M69.994 91.9961H75.0547V86.9354H69.994V91.9961Z" fill="#F0F0F0"/>
<path d="M64.2596 91.9961H69.3203V86.9354H64.2596V91.9961Z" fill="#FAFAFA"/>
<path d="M75.7225 97.6475H80.7832V92.5867H75.7225V97.6475Z" fill="#FAFAFA"/>
<path d="M69.994 97.6475H75.0547V92.5867H69.994V97.6475Z" fill="#FAFAFA"/>
<path d="M64.2596 97.6475H69.3203V92.5867H64.2596V97.6475Z" fill="#FAFAFA"/>
<path d="M75.7225 103.299H80.7832V98.2381H75.7225V103.299Z" fill="#F0F0F0"/>
<path d="M69.994 103.299H75.0547V98.2381H69.994V103.299Z" fill="#FAFAFA"/>
<path d="M64.2596 103.299H69.3203V98.2381H64.2596V103.299Z" fill="#F0F0F0"/>
<path d="M75.7225 108.954H80.7832V103.893H75.7225V108.954Z" fill="#FAFAFA"/>
<path d="M69.994 108.954H75.0547V103.893H69.994V108.954Z" fill="#F0F0F0"/>
<path d="M64.2596 108.954H69.3203V103.893H64.2596V108.954Z" fill="#FAFAFA"/>
<path d="M75.7225 114.605H80.7832V109.545H75.7225V114.605Z" fill="#F0F0F0"/>
<path d="M69.994 114.605H75.0547V109.545H69.994V114.605Z" fill="#FAFAFA"/>
<path d="M64.2596 114.605H69.3203V109.545H64.2596V114.605Z" fill="#FAFAFA"/>
<path d="M125.041 122.428H140.03V58.9902L125.041 60.5954V122.428Z" fill="#F0F0F0"/>
<path d="M135.124 65.7598H139.223V61.6614H135.124V65.7598Z" fill="#FAFAFA"/>
<path d="M130.484 65.7598H134.582V61.6614H130.484V65.7598Z" fill="#F0F0F0"/>
<path d="M125.843 65.7598H129.941V61.6614H125.843V65.7598Z" fill="#FAFAFA"/>
<path d="M135.124 70.334H139.223V66.2356H135.124V70.334Z" fill="#FAFAFA"/>
<path d="M130.484 70.334H134.582V66.2356H130.484V70.334Z" fill="#FAFAFA"/>
<path d="M125.843 70.334H129.941V66.2356H125.843V70.334Z" fill="#FAFAFA"/>
<path d="M135.124 74.915H139.223V70.8167H135.124V74.915Z" fill="#FAFAFA"/>
<path d="M130.484 74.915H134.582V70.8167H130.484V74.915Z" fill="#F0F0F0"/>
<path d="M125.843 74.915H129.941V70.8167H125.843V74.915Z" fill="#FAFAFA"/>
<path d="M135.124 79.4883H139.223V75.3899H135.124V79.4883Z" fill="#F0F0F0"/>
<path d="M130.484 79.4883H134.582V75.3899H130.484V79.4883Z" fill="#FAFAFA"/>
<path d="M125.843 79.4893H129.941V75.3909H125.843V79.4893Z" fill="#FAFAFA"/>
<path d="M135.124 84.0625H139.223V79.9641H135.124V84.0625Z" fill="#FAFAFA"/>
<path d="M130.484 84.0625H134.582V79.9641H130.484V84.0625Z" fill="#FAFAFA"/>
<path d="M125.843 84.0625H129.941V79.9641H125.843V84.0625Z" fill="#F0F0F0"/>
<path d="M135.124 88.6406H139.223V84.5423H135.124V88.6406Z" fill="#FAFAFA"/>
<path d="M130.484 88.6406H134.582V84.5423H130.484V88.6406Z" fill="#F0F0F0"/>
<path d="M125.843 88.6406H129.941V84.5423H125.843V88.6406Z" fill="#FAFAFA"/>
<path d="M135.124 93.2148H139.223V89.1165H135.124V93.2148Z" fill="#F0F0F0"/>
<path d="M130.484 93.2148H134.582V89.1165H130.484V93.2148Z" fill="#F0F0F0"/>
<path d="M125.843 93.2148H129.941V89.1165H125.843V93.2148Z" fill="#FAFAFA"/>
<path d="M135.124 97.793H139.223V93.6946H135.124V97.793Z" fill="#FAFAFA"/>
<path d="M130.484 97.793H134.582V93.6946H130.484V97.793Z" fill="#F0F0F0"/>
<path d="M125.843 97.793H129.941V93.6946H125.843V97.793Z" fill="#FAFAFA"/>
<path d="M135.124 102.366H139.223V98.2678H135.124V102.366Z" fill="#FAFAFA"/>
<path d="M130.484 102.366H134.582V98.2678H130.484V102.366Z" fill="#FAFAFA"/>
<path d="M125.843 102.366H129.941V98.2678H125.843V102.366Z" fill="#FAFAFA"/>
<path d="M135.124 106.944H139.223V102.846H135.124V106.944Z" fill="#F0F0F0"/>
<path d="M130.484 106.944H134.582V102.846H130.484V106.944Z" fill="#FAFAFA"/>
<path d="M125.843 106.944H129.941V102.846H125.843V106.944Z" fill="#F0F0F0"/>
<path d="M135.124 111.518H139.223V107.419H135.124V111.518Z" fill="#FAFAFA"/>
<path d="M130.484 111.518H134.582V107.419H130.484V111.518Z" fill="#F0F0F0"/>
<path d="M125.843 111.518H129.941V107.419H125.843V111.518Z" fill="#FAFAFA"/>
<path d="M135.124 116.096H139.223V111.997H135.124V116.096Z" fill="#F0F0F0"/>
<path d="M130.484 116.096H134.582V111.997H130.484V116.096Z" fill="#FAFAFA"/>
<path d="M125.843 116.096H129.941V111.997H125.843V116.096Z" fill="#FAFAFA"/>
<path d="M46.6641 122.576H61.6567V59.1387L46.6641 60.7438V122.576Z" fill="#F5F5F5"/>
<path d="M56.7473 65.9082H60.8457V61.8098H56.7473V65.9082Z" fill="#FAFAFA"/>
<path d="M52.1106 65.9082H56.209V61.8098H52.1106V65.9082Z" fill="#F0F0F0"/>
<path d="M47.468 65.9082H51.5664V61.8098H47.468V65.9082Z" fill="#FAFAFA"/>
<path d="M56.7473 70.4824H60.8457V66.3841H56.7473V70.4824Z" fill="#FAFAFA"/>
<path d="M52.1106 70.4824H56.209V66.3841H52.1106V70.4824Z" fill="#FAFAFA"/>
<path d="M47.468 70.4824H51.5664V66.3841H47.468V70.4824Z" fill="#FAFAFA"/>
<path d="M56.7473 75.0596H60.8457V70.9612H56.7473V75.0596Z" fill="#FAFAFA"/>
<path d="M52.1106 75.0605H56.209V70.9622H52.1106V75.0605Z" fill="#F0F0F0"/>
<path d="M47.468 75.0605H51.5664V70.9622H47.468V75.0605Z" fill="#FAFAFA"/>
<path d="M56.7473 79.6377H60.8457V75.5393H56.7473V79.6377Z" fill="#F0F0F0"/>
<path d="M52.1106 79.6377H56.209V75.5393H52.1106V79.6377Z" fill="#FAFAFA"/>
<path d="M47.468 79.6377H51.5664V75.5393H47.468V79.6377Z" fill="#FAFAFA"/>
<path d="M56.7473 84.2158H60.8457V80.1174H56.7473V84.2158Z" fill="#FAFAFA"/>
<path d="M52.1106 84.2148H56.209V80.1165H52.1106V84.2148Z" fill="#FAFAFA"/>
<path d="M47.468 84.2148H51.5664V80.1165H47.468V84.2148Z" fill="#F0F0F0"/>
<path d="M56.7473 88.7891H60.8457V84.6907H56.7473V88.7891Z" fill="#FAFAFA"/>
<path d="M52.1106 88.7891H56.209V84.6907H52.1106V88.7891Z" fill="#F0F0F0"/>
<path d="M47.468 88.7891H51.5664V84.6907H47.468V88.7891Z" fill="#FAFAFA"/>
<path d="M56.7473 93.3633H60.8457V89.2649H56.7473V93.3633Z" fill="#F0F0F0"/>
<path d="M52.1106 93.3633H56.209V89.2649H52.1106V93.3633Z" fill="#F0F0F0"/>
<path d="M47.468 93.3633H51.5664V89.2649H47.468V93.3633Z" fill="#FAFAFA"/>
<path d="M56.7473 97.9414H60.8457V93.843H56.7473V97.9414Z" fill="#FAFAFA"/>
<path d="M52.1106 97.9414H56.209V93.843H52.1106V97.9414Z" fill="#F0F0F0"/>
<path d="M47.468 97.9414H51.5664V93.843H47.468V97.9414Z" fill="#FAFAFA"/>
<path d="M56.7473 102.515H60.8457V98.4163H56.7473V102.515Z" fill="#FAFAFA"/>
<path d="M52.1106 102.516H56.209V98.4173H52.1106V102.516Z" fill="#FAFAFA"/>
<path d="M47.468 102.516H51.5664V98.4173H47.468V102.516Z" fill="#FAFAFA"/>
<path d="M56.7473 107.093H60.8457V102.994H56.7473V107.093Z" fill="#F0F0F0"/>
<path d="M52.1106 107.093H56.209V102.994H52.1106V107.093Z" fill="#FAFAFA"/>
<path d="M47.468 107.093H51.5664V102.994H47.468V107.093Z" fill="#F0F0F0"/>
<path d="M56.7473 111.667H60.8457V107.569H56.7473V111.667Z" fill="#FAFAFA"/>
<path d="M52.1106 111.666H56.209V107.568H52.1106V111.666Z" fill="#F0F0F0"/>
<path d="M47.468 111.666H51.5664V107.568H47.468V111.666Z" fill="#FAFAFA"/>
<path d="M56.7473 116.244H60.8457V112.146H56.7473V116.244Z" fill="#F0F0F0"/>
<path d="M52.1106 116.244H56.209V112.146H52.1106V116.244Z" fill="#FAFAFA"/>
<path d="M47.468 116.244H51.5664V112.146H47.468V116.244Z" fill="#FAFAFA"/>
<path d="M122.526 23.2896C122.049 23.2815 121.585 23.442 121.214 23.7429C121.294 23.3318 121.294 22.9092 121.214 22.4981C121.011 21.5214 120.487 20.6409 119.724 19.9976C118.962 19.3543 118.005 18.9853 117.008 18.9497C116.448 18.9432 115.896 19.0869 115.411 19.3658C115.039 18.689 114.498 18.1202 113.841 17.7151C113.184 17.3099 112.433 17.0824 111.661 17.0547C109.692 17.0547 108.388 18.6524 108.741 20.618C108.771 20.7792 108.812 20.9381 108.864 21.0936C108.55 21.0096 108.226 20.9659 107.901 20.9636C105.936 20.9636 104.628 22.5576 104.984 24.5269C105.184 25.5058 105.707 26.3892 106.469 27.0353C107.231 27.6815 108.188 28.053 109.187 28.0902H123.388C123.687 28.1005 123.985 28.0416 124.257 27.9183C124.53 27.7949 124.771 27.6103 124.961 27.3788C125.15 27.1473 125.284 26.8752 125.352 26.5835C125.419 26.2919 125.419 25.9887 125.35 25.6973C125.218 25.037 124.868 24.4402 124.356 24.0033C123.843 23.5665 123.199 23.315 122.526 23.2896Z" fill="#FAFAFA"/>
<path d="M93.3476 137C133.136 137 165.39 135.117 165.39 132.794C165.39 130.471 133.136 128.588 93.3476 128.588C53.5594 128.588 21.3047 130.471 21.3047 132.794C21.3047 135.117 53.5594 137 93.3476 137Z" fill="#F5F5F5"/>
<path d="M136.467 71.6601H133.256C132.36 71.6592 131.5 71.3026 130.866 70.6687C130.233 70.0348 129.876 69.1753 129.875 68.2789V65.0648C129.876 64.1684 130.233 63.3089 130.866 62.675C131.5 62.0411 132.36 61.6846 133.256 61.6836H136.467C137.363 61.6846 138.223 62.041 138.858 62.6748C139.492 63.3086 139.85 64.168 139.852 65.0648V68.2789C139.85 69.1757 139.492 70.0351 138.858 70.6689C138.223 71.3027 137.363 71.6592 136.467 71.6601ZM133.256 62.6682C132.621 62.6692 132.012 62.922 131.563 63.3713C131.113 63.8205 130.861 64.4295 130.86 65.0648V68.2789C130.86 68.9145 131.112 69.5241 131.562 69.9735C132.011 70.423 132.621 70.6755 133.256 70.6755H136.467C137.102 70.6755 137.712 70.423 138.161 69.9735C138.611 69.5241 138.863 68.9145 138.863 68.2789V65.0648C138.862 64.4295 138.609 63.8205 138.16 63.3713C137.711 62.922 137.102 62.6692 136.467 62.6682H133.256Z" fill="#D75337"/>
<g opacity="0.6">
<path d="M136.467 71.6601H133.256C132.36 71.6592 131.5 71.3026 130.866 70.6687C130.233 70.0348 129.876 69.1753 129.875 68.2789V65.0648C129.876 64.1684 130.233 63.3089 130.866 62.675C131.5 62.0411 132.36 61.6846 133.256 61.6836H136.467C137.363 61.6846 138.223 62.041 138.858 62.6748C139.492 63.3086 139.85 64.168 139.852 65.0648V68.2789C139.85 69.1757 139.492 70.0351 138.858 70.6689C138.223 71.3027 137.363 71.6592 136.467 71.6601ZM133.256 62.6682C132.621 62.6692 132.012 62.922 131.563 63.3713C131.113 63.8205 130.861 64.4295 130.86 65.0648V68.2789C130.86 68.9145 131.112 69.5241 131.562 69.9735C132.011 70.423 132.621 70.6755 133.256 70.6755H136.467C137.102 70.6755 137.712 70.423 138.161 69.9735C138.611 69.5241 138.863 68.9145 138.863 68.2789V65.0648C138.862 64.4295 138.609 63.8205 138.16 63.3713C137.711 62.922 137.102 62.6692 136.467 62.6682H133.256Z" fill="white"/>
</g>
<path d="M134.512 69.4164L129.826 64.7347L131.22 63.3376L134.512 66.6296L140.475 60.666L141.869 62.0594L134.512 69.4164Z" fill="#D75337"/>
<path d="M65.6863 35.6967H62.8475C62.061 35.6909 61.3083 35.3758 60.7521 34.8197C60.1959 34.2635 59.8808 33.5108 59.875 32.7242V29.8817C59.876 29.0919 60.1889 28.3345 60.7456 27.7743C61.3023 27.2141 62.0578 26.8965 62.8475 26.8906H65.6863C66.4793 26.8916 67.2395 27.2071 67.8002 27.7678C68.361 28.3285 68.6764 29.0887 68.6774 29.8817V32.6982C68.6779 33.0915 68.6009 33.481 68.4508 33.8445C68.3008 34.2081 68.0806 34.5385 67.8029 34.8169C67.5251 35.0954 67.1952 35.3164 66.8321 35.4673C66.4689 35.6183 66.0796 35.6962 65.6863 35.6967ZM62.8475 27.7452C62.2855 27.7452 61.7464 27.9682 61.3486 28.3653C60.9508 28.7624 60.7269 29.3011 60.7259 29.8631V32.6982C60.7269 33.2602 60.9508 33.7989 61.3486 34.196C61.7464 34.5931 62.2855 34.8161 62.8475 34.8161H65.6863C66.248 34.8161 66.7867 34.593 67.1839 34.1958C67.5811 33.7986 67.8042 33.2599 67.8042 32.6982V29.8557C67.8042 29.294 67.5811 28.7553 67.1839 28.3581C66.7867 27.9609 66.248 27.7378 65.6863 27.7378L62.8475 27.7452Z" fill="#D75337"/>
<g opacity="0.6">
<path d="M65.6863 35.6967H62.8475C62.061 35.6909 61.3083 35.3758 60.7521 34.8197C60.1959 34.2635 59.8808 33.5108 59.875 32.7242V29.8817C59.876 29.0919 60.1889 28.3345 60.7456 27.7743C61.3023 27.2141 62.0578 26.8965 62.8475 26.8906H65.6863C66.4793 26.8916 67.2395 27.2071 67.8002 27.7678C68.361 28.3285 68.6764 29.0887 68.6774 29.8817V32.6982C68.6779 33.0915 68.6009 33.481 68.4508 33.8445C68.3008 34.2081 68.0806 34.5385 67.8029 34.8169C67.5251 35.0954 67.1952 35.3164 66.8321 35.4673C66.4689 35.6183 66.0796 35.6962 65.6863 35.6967ZM62.8475 27.7452C62.2855 27.7452 61.7464 27.9682 61.3486 28.3653C60.9508 28.7624 60.7269 29.3011 60.7259 29.8631V32.6982C60.7269 33.2602 60.9508 33.7989 61.3486 34.196C61.7464 34.5931 62.2855 34.8161 62.8475 34.8161H65.6863C66.248 34.8161 66.7867 34.593 67.1839 34.1958C67.5811 33.7986 67.8042 33.2599 67.8042 32.6982V29.8557C67.8042 29.294 67.5811 28.7553 67.1839 28.3581C66.7867 27.9609 66.248 27.7378 65.6863 27.7378L62.8475 27.7452Z" fill="white"/>
</g>
<path d="M63.9556 33.7087L59.8164 29.5694L61.0463 28.3358L63.9556 31.2452L69.2282 25.9727L70.4618 27.2063L63.9556 33.7087Z" fill="#D75337"/>
<path d="M149.081 31.4347C146.16 30.7425 143.39 29.5237 140.907 27.8379C138.423 29.5243 135.653 30.7432 132.732 31.4347C131.665 31.6885 130.583 31.8759 129.492 31.9957C129.492 32.044 129.492 32.096 129.492 32.1443C129.492 42.1766 133.996 49.1806 140.91 54.6575C147.825 49.1806 152.329 42.1803 152.329 32.1443C152.329 32.096 152.329 32.044 152.329 31.9957C151.236 31.876 150.151 31.6886 149.081 31.4347Z" fill="#D75337"/>
<path opacity="0.1" d="M140.907 27.8379C138.423 29.5243 135.653 30.7432 132.732 31.4347C131.665 31.6885 130.583 31.8759 129.492 31.9957C129.492 32.044 129.492 32.096 129.492 32.1443C129.492 42.1766 133.996 49.1806 140.91 54.6575L140.907 27.8379Z" fill="black"/>
<g opacity="0.5">
<path d="M140.908 52.837L140.603 52.5769C134.372 47.2413 131.314 41.2293 130.942 33.6494L130.924 33.2332L131.333 33.1626C131.92 33.0623 132.507 32.9434 133.071 32.7911C135.751 32.1563 138.314 31.103 140.666 29.6699L140.912 29.5176L141.157 29.6699C143.509 31.1023 146.072 32.1556 148.752 32.7911C149.324 32.9286 149.907 33.0475 150.49 33.1626L150.903 33.2332L150.881 33.6494C150.509 41.2293 147.447 47.245 141.22 52.5769L140.908 52.837ZM131.901 34.0172C132.332 41.0027 135.204 46.6059 140.908 51.596C146.611 46.6096 149.484 41.0027 149.915 34.0172C149.45 33.9318 148.986 33.8315 148.529 33.72C145.847 33.0842 143.277 32.0443 140.908 30.636C138.539 32.0449 135.969 33.0848 133.287 33.72C132.834 33.8315 132.362 33.9281 131.901 34.0172Z" fill="white"/>
</g>
<path opacity="0.9" d="M140.906 51.5962C135.202 46.6061 132.33 41.0029 131.899 34.0174C132.367 33.9283 132.832 33.8316 133.285 33.7202C135.967 33.085 138.537 32.0451 140.906 30.6362V29.5215L140.66 29.6738C138.309 31.1069 135.746 32.1602 133.066 32.795C132.501 32.9325 131.914 33.0514 131.327 33.1665L130.918 33.2371L130.937 33.6533C131.308 41.2332 134.37 47.2452 140.597 52.5809L140.902 52.841L140.906 51.5962Z" fill="#F0F0F0"/>
<g opacity="0.2">
<path d="M140.259 45.5697L135.262 40.5684L136.748 39.0821L140.259 42.5934L146.624 36.2285L148.114 37.7148L140.259 45.5697Z" fill="#D75337"/>
</g>
<g opacity="0.9">
<path d="M140.259 45.5697L135.262 40.5684L136.748 39.0821L140.259 42.5934L146.624 36.2285L148.114 37.7148L140.259 45.5697Z" fill="white"/>
</g>
<path d="M119.371 27.4736H106.393V39.5384H119.371V27.4736Z" fill="#D75337"/>
<path opacity="0.3" d="M119.371 27.4736H106.393V39.5384H119.371V27.4736Z" fill="white"/>
<path d="M125.132 27.4736H118.645V39.5384H125.132V27.4736Z" fill="#D75337"/>
<path d="M114.916 29.8398H110.84V39.5377H114.916V29.8398Z" fill="#263238"/>
<path d="M111.858 29.8398H110.84V39.5377H111.858V29.8398Z" fill="#D75337"/>
<path d="M111.387 37.9297H77.5859V133.942H111.387V37.9297Z" fill="#D75337"/>
<path opacity="0.6" d="M111.387 37.9297H77.5859V133.942H111.387V37.9297Z" fill="white"/>
<path d="M110.881 37.9297V52.1272H103.424V55.2744H110.881V67.4432H103.424V70.5903H110.881V82.7591H103.424V85.9063H110.881V98.075H103.424V101.222H110.881V113.391H103.424V116.538H110.881V133.942H126.862V37.9297H110.881Z" fill="#D75337"/>
<path opacity="0.2" d="M110.881 37.9297V52.1272H103.424V55.2744H110.881V67.4432H103.424V70.5903H110.881V82.7591H103.424V85.9063H110.881V98.075H103.424V101.222H110.881V113.391H103.424V116.538H110.881V133.942H126.862V37.9297H110.881Z" fill="white"/>
<path d="M103.844 113.391H72.8516V116.538H103.844V113.391Z" fill="#D75337"/>
<path d="M103.844 98.0742H72.8516V101.221H103.844V98.0742Z" fill="#D75337"/>
<path d="M103.844 82.7588H72.8516V85.906H103.844V82.7588Z" fill="#D75337"/>
<path d="M103.844 67.4434H72.8516V70.5905H103.844V67.4434Z" fill="#D75337"/>
<path d="M103.844 52.127H72.8516V55.2741H103.844V52.127Z" fill="#D75337"/>
<g opacity="0.4">
<path d="M103.844 113.391H72.8516V116.538H103.844V113.391Z" fill="white"/>
<path d="M103.844 98.0742H72.8516V101.221H103.844V98.0742Z" fill="white"/>
<path d="M103.844 82.7588H72.8516V85.906H103.844V82.7588Z" fill="white"/>
<path d="M103.844 67.4424H72.8516V70.5895H103.844V67.4424Z" fill="white"/>
<path d="M103.844 52.127H72.8516V55.2741H103.844V52.127Z" fill="white"/>
</g>
<path d="M104.36 119.979H84.6152V133.942H104.36V119.979Z" fill="#D75337"/>
<path d="M88.6291 41.6338H80.4473V49.8157H88.6291V41.6338Z" fill="#D75337"/>
<path d="M98.385 41.6338H90.2031V49.8157H98.385V41.6338Z" fill="#D75337"/>
<path opacity="0.7" d="M108.143 41.6338H99.9609V49.8157H108.143V41.6338Z" fill="white"/>
<path opacity="0.7" d="M88.6291 57.2656H80.4473V65.4475H88.6291V57.2656Z" fill="white"/>
<path d="M98.385 57.2656H90.2031V65.4475H98.385V57.2656Z" fill="#D75337"/>
<path opacity="0.7" d="M108.143 57.2656H99.9609V65.4475H108.143V57.2656Z" fill="white"/>
<path opacity="0.7" d="M88.6291 72.582H80.4473V80.7639H88.6291V72.582Z" fill="white"/>
<path opacity="0.7" d="M98.385 72.582H90.2031V80.7639H98.385V72.582Z" fill="white"/>
<path d="M108.143 72.582H99.9609V80.7639H108.143V72.582Z" fill="#D75337"/>
<path opacity="0.7" d="M88.6291 87.8975H80.4473V96.0793H88.6291V87.8975Z" fill="white"/>
<path d="M98.385 87.8975H90.2031V96.0793H98.385V87.8975Z" fill="#D75337"/>
<path opacity="0.7" d="M108.143 87.8975H99.9609V96.0793H108.143V87.8975Z" fill="white"/>
<path d="M88.6291 103.217H80.4473V111.399H88.6291V103.217Z" fill="#D75337"/>
<path d="M98.385 103.217H90.2031V111.399H98.385V103.217Z" fill="#D75337"/>
<path opacity="0.7" d="M108.143 103.217H99.9609V111.399H108.143V103.217Z" fill="white"/>
<path d="M81.3093 41.6338H80.4473V49.8157H81.3093V41.6338Z" fill="#D75337"/>
<path d="M91.0652 41.6338H90.2031V49.8157H91.0652V41.6338Z" fill="#D75337"/>
<path d="M100.823 41.6338H99.9609V49.8157H100.823V41.6338Z" fill="#D75337"/>
<path d="M81.3093 57.2656H80.4473V65.4475H81.3093V57.2656Z" fill="#D75337"/>
<path d="M91.0652 57.2656H90.2031V65.4475H91.0652V57.2656Z" fill="#D75337"/>
<path d="M100.823 57.2656H99.9609V65.4475H100.823V57.2656Z" fill="#D75337"/>
<path d="M81.3093 72.582H80.4473V80.7639H81.3093V72.582Z" fill="#D75337"/>
<path d="M91.0652 72.582H90.2031V80.7639H91.0652V72.582Z" fill="#D75337"/>
<path d="M100.823 72.582H99.9609V80.7639H100.823V72.582Z" fill="#D75337"/>
<path d="M81.3093 87.8975H80.4473V96.0793H81.3093V87.8975Z" fill="#D75337"/>
<path d="M91.0652 87.8975H90.2031V96.0793H91.0652V87.8975Z" fill="#D75337"/>
<path d="M100.823 87.8975H99.9609V96.0793H100.823V87.8975Z" fill="#D75337"/>
<path d="M81.3093 103.217H80.4473V111.399H81.3093V103.217Z" fill="#D75337"/>
<path d="M91.0652 103.217H90.2031V111.399H91.0652V103.217Z" fill="#D75337"/>
<path d="M100.823 103.217H99.9609V111.399H100.823V103.217Z" fill="#D75337"/>
<g opacity="0.2">
<path d="M81.3093 41.6338H80.4473V49.8157H81.3093V41.6338Z" fill="black"/>
<path d="M91.0671 41.6338H90.2051V49.8157H91.0671V41.6338Z" fill="black"/>
<path d="M100.823 41.6338H99.9609V49.8157H100.823V41.6338Z" fill="black"/>
<path d="M81.3093 57.2656H80.4473V65.4475H81.3093V57.2656Z" fill="black"/>
<path d="M91.0671 57.2656H90.2051V65.4475H91.0671V57.2656Z" fill="black"/>
<path d="M100.823 57.2656H99.9609V65.4475H100.823V57.2656Z" fill="black"/>
<path d="M81.3093 72.5811H80.4473V80.7629H81.3093V72.5811Z" fill="black"/>
<path d="M91.0671 72.582H90.2051V80.7639H91.0671V72.582Z" fill="black"/>
<path d="M100.823 72.582H99.9609V80.7639H100.823V72.582Z" fill="black"/>
<path d="M81.3093 87.8975H80.4473V96.0793H81.3093V87.8975Z" fill="black"/>
<path d="M91.0671 87.8975H90.2051V96.0793H91.0671V87.8975Z" fill="black"/>
<path d="M100.823 87.8975H99.9609V96.0793H100.823V87.8975Z" fill="black"/>
<path d="M81.3093 103.217H80.4473V111.399H81.3093V103.217Z" fill="black"/>
<path d="M91.0671 103.217H90.2051V111.399H91.0671V103.217Z" fill="black"/>
<path d="M100.823 103.217H99.9609V111.399H100.823V103.217Z" fill="black"/>
</g>
<path opacity="0.4" d="M103.417 120.923H94.4883V133.943H103.417V120.923Z" fill="white"/>
<path opacity="0.7" d="M94.4873 120.922H85.5586V133.942H94.4873V120.922Z" fill="white"/>
<path d="M86.5024 120.922H85.5586V133.942H86.5024V120.922Z" fill="#D75337"/>
<path opacity="0.2" d="M86.5024 120.922H85.5586V133.942H86.5024V120.922Z" fill="black"/>
<path d="M37.9821 57.2737C38.1358 56.5545 38.3611 55.8524 38.6546 55.1781C38.963 54.435 39.3123 53.6918 39.695 52.9487C40.0777 52.2056 40.479 51.4624 40.8877 50.7193C41.2964 49.9762 41.746 49.233 42.1622 48.5419L38.8775 46.4463C38.3573 47.2377 37.9152 48.0031 37.4656 48.802C37.016 49.6009 36.6035 50.4072 36.206 51.2358C35.8084 52.0644 35.4628 52.9264 35.1247 53.8367C34.7663 54.7966 34.5171 55.7937 34.3816 56.8093C34.3481 57.1562 34.3394 57.5051 34.3556 57.8534H37.9003C37.9102 57.6581 37.9376 57.4641 37.9821 57.2737Z" fill="#F9C8B3"/>
<path d="M64.9421 49.1134C64.1177 50.5559 63.1953 51.9401 62.1814 53.2563C61.9516 53.5481 61.7034 53.8249 61.4383 54.0849C61.2338 54.295 60.9997 54.474 60.7434 54.6163H60.7025C60.7025 54.6163 60.5688 54.5345 60.4127 54.3785C59.9196 53.8934 59.4867 53.3508 59.1234 52.7622C58.711 52.1008 58.3097 51.3874 57.9344 50.6517C57.5591 49.916 57.1913 49.1654 56.8494 48.4C56.5076 47.6346 56.162 46.8431 55.8536 46.1074L52.2383 47.4971C52.569 48.3888 52.9257 49.1914 53.301 50.0237C53.6762 50.856 54.0887 51.6623 54.5308 52.4686C54.9823 53.2927 55.4785 54.0915 56.0171 54.8615C56.2995 55.2554 56.6005 55.6455 56.9349 56.0357C57.2954 56.4588 57.6975 56.8447 58.135 57.1875C58.3984 57.3936 58.6808 57.574 58.9785 57.7263C59.3568 57.9182 59.7653 58.0438 60.1861 58.0978C60.6588 58.1501 61.1372 58.0968 61.5869 57.9418C61.9422 57.8184 62.2767 57.6417 62.579 57.4179C63.0495 57.0713 63.4696 56.6612 63.8274 56.1991C64.1359 55.8043 64.4165 55.3883 64.6672 54.9544C65.1371 54.1424 65.5433 53.2952 65.8822 52.4203C66.2191 51.5724 66.5009 50.7036 66.7256 49.8194L64.9421 49.1134Z" fill="#F9C8B3"/>
<path d="M59.9412 52.2537L55.906 55.2671C55.906 55.2671 55.75 55.0962 55.4936 54.7989C55.3078 54.5834 55.0663 54.2936 54.7876 53.9555C53.2196 52.0456 50.927 48.5566 50.9085 46.8511C50.8787 44.3022 53.5094 43.9269 56.4819 46.5316C57.7601 47.6463 58.4289 49.5227 59.0829 50.6783C59.2984 51.0498 59.4805 51.3917 59.6217 51.6518C59.8297 52.0196 59.9412 52.2537 59.9412 52.2537Z" fill="#263238"/>
<path opacity="0.5" d="M59.9412 52.2537L55.906 55.2671C55.906 55.2671 55.75 55.0962 55.4936 54.7989C55.3078 54.5834 55.0663 54.2936 54.7876 53.9555C53.2196 52.0456 50.927 48.5566 50.9085 46.8511C50.8787 44.3022 53.5094 43.9269 56.4819 46.5316C57.7601 47.6463 58.4289 49.5227 59.0829 50.6783C59.2984 51.0498 59.4805 51.3917 59.6217 51.6518C59.8297 52.0196 59.9412 52.2537 59.9412 52.2537Z" fill="white"/>
<path opacity="0.2" d="M50.8829 47.1443C51.7932 46.5386 52.4583 48.0992 54.2641 49.4182C55.0667 50.009 56.8279 53.8399 56.683 54.687L55.9065 55.2667C55.9065 55.2667 50.8606 49.682 50.8829 47.1443Z" fill="black"/>
<path d="M64.6309 49.7269L66.0688 47.126L67.3842 50.5481C67.3842 50.5481 65.7567 51.908 64.9244 50.994L64.6309 49.7269Z" fill="#F9C8B3"/>
<path d="M67.7367 47.0967L68.3163 49.6568L67.3837 50.5337L66.0684 47.1115L67.7367 47.0967Z" fill="#F9C8B3"/>
<path d="M64.8644 49.5257C64.8372 49.0545 64.7317 48.5911 64.5522 48.1546C64.3293 47.6493 63.8091 47.2257 63.9169 46.947C63.9689 46.8244 64.2884 46.7649 64.4185 46.7947C64.7267 46.9378 64.9853 47.1693 65.1616 47.4598C65.3362 47.7644 65.823 48.8308 65.823 48.8308L64.8644 49.5257Z" fill="#F9C8B3"/>
<path d="M50.6741 32.8809C50.6741 32.8809 51.7888 33.4011 51.2724 34.2334C51.3996 34.3199 51.5075 34.4319 51.5893 34.5622C51.6711 34.6925 51.725 34.8383 51.7477 34.9905C51.7704 35.1427 51.7613 35.2979 51.7211 35.4464C51.6808 35.5949 51.6103 35.7335 51.5139 35.8534C51.5139 35.8534 51.5771 37.3842 50.6741 36.4962C49.7712 35.6082 49.5 33.1149 49.5 33.1149L50.6741 32.8809Z" fill="#263238"/>
<path d="M43.0572 49.4811C42.4169 51.2574 41.6725 52.9944 40.8278 54.683C40.6457 55.0546 40.4562 55.4002 40.3373 55.6751C40.0958 56.1507 39.9435 56.4406 39.9435 56.4406L34.7676 53.5758C34.7676 53.5758 34.8345 53.3566 34.9496 52.9924C35.0425 52.7175 35.1577 52.3533 35.3212 51.9372C36.1832 49.4811 37.9445 45.0966 39.6685 44.8477C42.2472 44.4538 44.105 46.3823 43.0572 49.4811Z" fill="#263238"/>
<path opacity="0.5" d="M43.0572 49.4811C42.4169 51.2574 41.6725 52.9944 40.8278 54.683C40.6457 55.0546 40.4562 55.4002 40.3373 55.6751C40.0958 56.1507 39.9435 56.4406 39.9435 56.4406L34.7676 53.5758C34.7676 53.5758 34.8345 53.3566 34.9496 52.9924C35.0425 52.7175 35.1577 52.3533 35.3212 51.9372C36.1832 49.4811 37.9445 45.0966 39.6685 44.8477C42.2472 44.4538 44.105 46.3823 43.0572 49.4811Z" fill="white"/>
<path d="M62.3347 130.777L64.7648 129.989L63.2562 124.26L60.8262 125.047L62.3347 130.777Z" fill="#CE7A63"/>
<path d="M64.8022 129.676L62.0712 130.56C62.0479 130.567 62.0261 130.578 62.0071 130.593C61.9881 130.608 61.9723 130.626 61.9605 130.647C61.9488 130.668 61.9413 130.692 61.9386 130.716C61.9359 130.74 61.938 130.764 61.9448 130.787L62.5133 132.99C62.55 133.104 62.6298 133.198 62.7355 133.253C62.8412 133.308 62.9643 133.319 63.0781 133.284C64.0256 132.957 64.4603 132.756 65.6791 132.366C66.4222 132.125 69.5842 131.185 70.6023 130.854C71.6204 130.523 71.2674 129.524 70.803 129.572C68.7333 129.791 66.1472 130.007 65.2889 129.687C65.1325 129.629 64.9611 129.625 64.8022 129.676Z" fill="#263238"/>
<path opacity="0.2" d="M60.8262 125.047L63.2562 124.26L64.0328 127.214L61.6027 128.001L60.8262 125.047Z" fill="black"/>
<path d="M54.9034 67.042C54.9034 67.042 58.3515 87.8497 59.3622 95.0915C60.4769 103.036 64.8799 126.27 64.8799 126.27L60.3691 127.514C60.3691 127.514 53.9596 105.001 52.1018 97.2763C50.1325 88.8975 45.7852 67.042 45.7852 67.042H54.9034Z" fill="#263238"/>
<path opacity="0.4" d="M49.3627 75.5693C51.1277 79.9761 51.3283 87.4594 50.6112 90.5397C49.5299 85.4975 48.2889 79.467 47.334 74.7779C47.6758 73.5703 48.2926 72.8903 49.3627 75.5693Z" fill="black"/>
<path d="M60.2687 127.603L65.099 126.273L65.0061 124.304L59.5664 126.184L60.2687 127.603Z" fill="#263238"/>
<path d="M65.8019 129.81C65.5809 129.872 65.3545 129.913 65.1257 129.932C65.114 129.933 65.1024 129.931 65.092 129.926C65.0816 129.92 65.0727 129.912 65.0662 129.903C65.06 129.893 65.0566 129.881 65.0566 129.869C65.0566 129.857 65.06 129.846 65.0662 129.836C65.1257 129.758 65.6607 129.063 65.9951 129.093C66.0329 129.094 66.0696 129.106 66.1016 129.126C66.1335 129.146 66.1596 129.174 66.1772 129.208C66.2112 129.255 66.2319 129.311 66.2372 129.369C66.2424 129.427 66.2319 129.486 66.2069 129.539C66.1089 129.675 65.9651 129.771 65.8019 129.81ZM65.252 129.81C65.7165 129.754 66.0323 129.639 66.1103 129.49C66.1247 129.455 66.1299 129.417 66.1253 129.379C66.1208 129.341 66.1066 129.306 66.0843 129.275C66.077 129.257 66.0646 129.242 66.0487 129.232C66.0329 129.221 66.0142 129.215 65.9951 129.215C65.8168 129.193 65.4787 129.527 65.252 129.799V129.81Z" fill="#D75337"/>
<path d="M65.1349 129.93H65.1052C65.0951 129.928 65.0856 129.924 65.0777 129.917C65.0698 129.911 65.0639 129.902 65.0606 129.892C65.0606 129.863 64.7671 129.183 64.9343 128.867C64.9554 128.826 64.9859 128.79 65.0234 128.763C65.0608 128.736 65.1041 128.718 65.1498 128.711C65.1985 128.695 65.2511 128.697 65.2986 128.716C65.3461 128.735 65.3855 128.77 65.4099 128.815C65.5511 129.06 65.3542 129.684 65.1572 129.907C65.1528 129.917 65.1448 129.925 65.1349 129.93ZM65.1349 128.837C65.112 128.844 65.0907 128.856 65.0722 128.871C65.0537 128.886 65.0384 128.905 65.0272 128.926C64.9694 129.204 65.0019 129.493 65.1201 129.751C65.287 129.493 65.3495 129.181 65.2947 128.878C65.2761 128.845 65.2464 128.811 65.161 128.83L65.1349 128.837Z" fill="#D75337"/>
<path d="M37.8867 131.896H40.4394L41.2903 125.98H38.7376L37.8867 131.896Z" fill="#CE7A63"/>
<path d="M40.6016 131.598H37.7294C37.68 131.597 37.632 131.615 37.5945 131.647C37.5569 131.679 37.5322 131.723 37.525 131.772L37.1869 134.043C37.1793 134.102 37.1847 134.162 37.2028 134.219C37.2208 134.276 37.251 134.329 37.2913 134.373C37.3316 134.417 37.381 134.452 37.4361 134.475C37.4912 134.498 37.5507 134.509 37.6105 134.507C38.61 134.488 39.0968 134.429 40.3564 134.429C41.1329 134.429 44.4436 134.511 45.4988 134.511C46.5541 134.511 46.6135 133.448 46.1862 133.355C44.1872 132.924 41.7275 132.33 41.0401 131.761C40.9187 131.655 40.7628 131.597 40.6016 131.598Z" fill="#263238"/>
<path opacity="0.2" d="M38.7334 125.98H41.2897L40.8513 129.031H38.2949L38.7334 125.98Z" fill="black"/>
<path d="M50.2774 66.9121C50.2774 66.9121 48.8134 86.4342 47.7582 93.7503C46.6063 101.758 42.01 128.306 42.01 128.306H37.332C37.332 128.306 39.7361 102.415 40.1485 94.4934C40.5944 85.888 41.4601 66.9307 41.4601 66.9307L50.2774 66.9121Z" fill="#263238"/>
<path d="M37.1427 128.295H42.1997L42.6345 126.519L37.0312 126.794L37.1427 128.295Z" fill="#263238"/>
<path d="M41.4662 132.044C41.2392 132.039 41.0135 132.008 40.7937 131.951C40.7828 131.949 40.7728 131.944 40.7654 131.936C40.758 131.928 40.7535 131.917 40.7528 131.906C40.7507 131.895 40.7525 131.882 40.7578 131.872C40.7632 131.861 40.7719 131.852 40.7825 131.847C40.868 131.788 41.6334 131.293 41.9344 131.416C41.9691 131.43 41.9992 131.454 42.0215 131.484C42.0438 131.514 42.0574 131.55 42.0607 131.587C42.0703 131.645 42.0659 131.705 42.0478 131.761C42.0297 131.817 41.9985 131.868 41.9567 131.91C41.814 132.011 41.6403 132.058 41.4662 132.044ZM40.9646 131.866C41.4142 131.958 41.7523 131.944 41.8786 131.825C41.9064 131.798 41.9267 131.764 41.9378 131.727C41.9489 131.69 41.9502 131.651 41.9418 131.613C41.9407 131.595 41.9345 131.577 41.924 131.562C41.9136 131.547 41.8991 131.535 41.8824 131.527C41.7189 131.461 41.2767 131.676 40.9535 131.866H40.9646Z" fill="#D75337"/>
<path d="M40.806 131.954H40.78C40.7716 131.949 40.7647 131.942 40.7601 131.934C40.7555 131.925 40.7534 131.915 40.754 131.906C40.754 131.876 40.754 131.14 41.0401 130.891C41.0748 130.859 41.116 130.835 41.161 130.821C41.206 130.807 41.2535 130.803 41.3002 130.81C41.3493 130.811 41.3964 130.829 41.4331 130.862C41.4699 130.895 41.4938 130.939 41.5009 130.988C41.5343 131.267 41.107 131.802 40.8395 131.954H40.806ZM41.2482 130.917C41.1987 130.918 41.1511 130.936 41.1144 130.969C40.9537 131.21 40.8707 131.494 40.8766 131.783C41.1144 131.594 41.4042 131.189 41.382 131.007C41.382 130.969 41.3597 130.929 41.2742 130.921L41.2482 130.917Z" fill="#D75337"/>
<path d="M54.9039 67.0421H41.2377C41.1411 65.8196 41.4235 61.8402 41.2154 56.798C41.0865 53.0499 40.6315 49.3202 39.8555 45.651C39.7961 45.3761 39.7329 45.1048 39.666 44.8299C39.666 44.8299 40.3608 44.6887 41.3529 44.5438C42.1778 44.4212 43.2108 44.2985 44.2251 44.2502C46.1582 44.1405 48.0959 44.1405 50.029 44.2502C50.9207 44.332 51.7939 44.4806 52.4887 44.6218C53.3805 44.8002 53.9044 44.9562 53.9044 44.9562C53.9044 44.9562 57.2708 52.6736 54.9039 67.0421Z" fill="#263238"/>
<path opacity="0.5" d="M54.9039 67.0421H41.2377C41.1411 65.8196 41.4235 61.8402 41.2154 56.798C41.0865 53.0499 40.6315 49.3202 39.8555 45.651C39.7961 45.3761 39.7329 45.1048 39.666 44.8299C39.666 44.8299 40.3608 44.6887 41.3529 44.5438C42.1778 44.4212 43.2108 44.2985 44.2251 44.2502C46.1582 44.1405 48.0959 44.1405 50.029 44.2502C50.9207 44.332 51.7939 44.4806 52.4887 44.6218C53.3805 44.8002 53.9044 44.9562 53.9044 44.9562C53.9044 44.9562 57.2708 52.6736 54.9039 67.0421Z" fill="white"/>
<path d="M46.2454 47.6315L47.6796 45.8257L48.0178 45.3872L48.7832 45.796L50.615 47.1893C52.1013 45.9409 51.3581 44.8225 51.0572 44.3766C50.7228 44.3283 50.3772 44.2837 50.0242 44.2503C48.0899 44.1405 46.1509 44.1405 44.2166 44.2503C43.7968 44.2503 43.3695 44.3023 42.957 44.3431C43.2534 45.0857 43.6978 45.7601 44.2631 46.3254C44.8284 46.8907 45.5029 47.3351 46.2454 47.6315Z" fill="#263238"/>
<path opacity="0.7" d="M46.2454 47.6315L47.6796 45.8257L48.0178 45.3872L48.7832 45.796L50.615 47.1893C52.1013 45.9409 51.3581 44.8225 51.0572 44.3766C50.7228 44.3283 50.3772 44.2837 50.0242 44.2503C48.0899 44.1405 46.1509 44.1405 44.2166 44.2503C43.7968 44.2503 43.3695 44.3023 42.957 44.3431C43.2534 45.0857 43.6978 45.7601 44.2631 46.3254C44.8284 46.8907 45.5029 47.3351 46.2454 47.6315Z" fill="white"/>
<path d="M44.3466 37.7363L45.8997 39.0257L48.0176 40.7832C47.9544 41.065 47.9084 41.3504 47.8801 41.6378C47.7687 42.7859 48.0659 43.83 49.738 44.2387C49.738 44.2387 51.7407 45.5652 48.7682 45.8067C48.7587 46.13 48.7088 46.4508 48.6196 46.7617C48.3583 46.3994 48.035 46.0861 47.6646 45.8365C44.4134 45.7807 43.9824 44.2759 43.9824 44.2759C45.2643 43.0163 44.7776 39.609 44.3466 37.7363Z" fill="#F9C8B3"/>
<path opacity="0.2" d="M48.0148 40.7829C47.9515 41.0647 47.9056 41.3501 47.8773 41.6375C47.0896 41.4777 46.0194 40.638 45.9266 39.8317C45.8867 39.5649 45.8767 39.2944 45.8968 39.0254L48.0148 40.7829Z" fill="black"/>
<path d="M43.7039 35.0464C44.2464 37.5285 44.447 39.0073 45.9035 40.1406C46.3765 40.5134 46.9424 40.75 47.54 40.8248C48.1376 40.8996 48.7443 40.8098 49.2946 40.565C49.8449 40.3203 50.3179 39.9299 50.6625 39.436C51.0072 38.9421 51.2105 38.3635 51.2504 37.7626C51.4436 35.4477 50.5072 31.7729 47.9063 31.0744C47.3449 30.9086 46.7498 30.8931 46.1805 31.0295C45.6112 31.1658 45.0877 31.4492 44.6622 31.8513C44.2368 32.2534 43.9244 32.7601 43.7562 33.3208C43.588 33.8815 43.57 34.4765 43.7039 35.0464Z" fill="#F9C8B3"/>
<path d="M46.9788 35.9381C47.0085 36.1425 47.146 36.3097 47.2797 36.28C47.4135 36.2502 47.4952 36.0868 47.4618 35.8824C47.4283 35.678 47.2983 35.5108 47.1645 35.5405C47.0308 35.5703 46.949 35.7338 46.9788 35.9381Z" fill="#263238"/>
<path d="M49.2873 35.6705C49.3208 35.8749 49.4546 36.0421 49.5883 36.0124C49.7221 35.9827 49.8038 35.8192 49.7741 35.6148C49.7444 35.4105 49.6069 35.2432 49.4731 35.273C49.3394 35.3027 49.2576 35.4588 49.2873 35.6705Z" fill="#263238"/>
<path d="M48.8945 35.8535C49.2352 36.449 49.6538 36.9963 50.1393 37.481C50.0129 37.5972 49.8625 37.6841 49.6987 37.7354C49.535 37.7868 49.3619 37.8014 49.1918 37.7782L48.8945 35.8535Z" fill="#C57D5E"/>
<path d="M48.7197 38.5202C48.4805 38.5242 48.243 38.4792 48.0219 38.3878C47.8007 38.2964 47.6007 38.1606 47.4341 37.9889C47.4282 37.9832 47.4236 37.9763 47.4204 37.9687C47.4173 37.9611 47.4158 37.9529 47.416 37.9447C47.4162 37.9365 47.4182 37.9284 47.4216 37.9209C47.4251 37.9135 47.4301 37.9068 47.4363 37.9014C47.4425 37.896 47.4497 37.8919 47.4576 37.8895C47.4654 37.887 47.4737 37.8862 47.4819 37.8871C47.49 37.888 47.4979 37.8905 47.5051 37.8946C47.5122 37.8987 47.5184 37.9042 47.5233 37.9109C47.7078 38.0933 47.9317 38.2311 48.1777 38.3135C48.4238 38.396 48.6855 38.4209 48.9427 38.3865C48.9505 38.3865 48.9582 38.388 48.9654 38.391C48.9726 38.394 48.9792 38.3983 48.9847 38.4039C48.9902 38.4094 48.9946 38.4159 48.9976 38.4232C49.0006 38.4304 49.0021 38.4381 49.0021 38.4459C49.0021 38.4537 49.0006 38.4614 48.9976 38.4687C48.9946 38.4759 48.9902 38.4824 48.9847 38.4879C48.9792 38.4935 48.9726 38.4979 48.9654 38.5008C48.9582 38.5038 48.9505 38.5054 48.9427 38.5054C48.8687 38.515 48.7943 38.52 48.7197 38.5202Z" fill="#263238"/>
<path d="M46.4732 35.2993C46.4538 35.3048 46.4332 35.3048 46.4138 35.2993C46.3861 35.2836 46.3656 35.2578 46.3566 35.2273C46.3476 35.1968 46.3508 35.164 46.3655 35.1358C46.4547 34.967 46.5841 34.8228 46.7422 34.7159C46.9003 34.609 47.0823 34.5426 47.2721 34.5227C47.288 34.5217 47.304 34.5239 47.319 34.5292C47.3341 34.5345 47.3479 34.5428 47.3597 34.5535C47.3715 34.5642 47.381 34.5773 47.3877 34.5918C47.3943 34.6062 47.398 34.6219 47.3984 34.6379C47.3995 34.6538 47.3972 34.6698 47.3919 34.6848C47.3867 34.6999 47.3784 34.7137 47.3676 34.7255C47.3569 34.7373 47.3439 34.7468 47.3294 34.7534C47.3149 34.7601 47.2992 34.7637 47.2833 34.7642C47.1349 34.7817 46.993 34.8352 46.8699 34.9201C46.7469 35.0049 46.6464 35.1185 46.5773 35.251C46.5654 35.2671 46.5497 35.28 46.5315 35.2885C46.5133 35.2969 46.4933 35.3006 46.4732 35.2993Z" fill="#263238"/>
<path d="M50.4856 34.7531C50.466 34.7525 50.4469 34.7476 50.4295 34.7386C50.4121 34.7296 50.397 34.7167 50.3853 34.7011C50.304 34.5734 50.195 34.4656 50.0663 34.3859C49.9377 34.3061 49.7927 34.2563 49.6421 34.2403C49.6099 34.2394 49.5793 34.2262 49.5565 34.2034C49.5337 34.1806 49.5205 34.15 49.5195 34.1177C49.5195 34.0852 49.5324 34.054 49.5554 34.031C49.5784 34.008 49.6096 33.9951 49.6421 33.9951C49.8356 34.0089 50.0233 34.0674 50.1903 34.166C50.3573 34.2647 50.4991 34.4008 50.6045 34.5636C50.6223 34.5905 50.6291 34.6232 50.6236 34.655C50.6181 34.6868 50.6006 34.7152 50.5748 34.7345C50.5619 34.7433 50.5473 34.7495 50.532 34.7527C50.5167 34.7559 50.501 34.756 50.4856 34.7531Z" fill="#263238"/>
<path d="M43.0305 44.1946C43.094 44.1859 43.1587 44.1952 43.2172 44.2214C43.2756 44.2477 43.3256 44.2899 43.3612 44.3432C44.3607 45.8741 51.3944 56.7907 51.74 61.1974C51.8738 62.9029 50.4098 66.7449 49.4772 69.0003C49.2724 69.4913 48.9088 69.8994 48.4447 70.1594C47.9806 70.4194 47.4427 70.5163 46.9171 70.4346L41.4625 69.58C41.3428 69.5612 41.2282 69.5185 41.1255 69.4544C41.0227 69.3903 40.934 69.3061 40.8646 69.2069C40.7952 69.1076 40.7466 68.9954 40.7216 68.8769C40.6967 68.7584 40.6959 68.6361 40.7194 68.5173C40.9203 67.428 41.0149 66.3217 41.0017 65.2141C41.0017 62.353 40.842 54.6727 40.842 54.6727C40.842 54.6727 43.0714 50.3663 40.411 45.012C40.3875 44.9638 40.3759 44.9108 40.377 44.8572C40.3781 44.8036 40.392 44.7511 40.4174 44.7039C40.4428 44.6568 40.479 44.6163 40.5231 44.5859C40.5672 44.5555 40.6179 44.536 40.6711 44.529L43.0305 44.1946Z" fill="#D75337"/>
<path opacity="0.1" d="M51.7302 61.1977C51.5667 59.1132 49.9058 55.5722 48.0963 52.2578C47.2491 55.7468 46.532 59.4811 46.7363 61.4726C46.8998 63.0741 48.4976 66.3996 49.6308 68.5956C50.5709 66.3179 51.8677 62.7954 51.7302 61.1977Z" fill="black"/>
<path opacity="0.6" d="M50.2821 56.5858C50.048 56.0656 49.7953 55.5305 49.539 54.9881C48.3462 55.0252 47.1758 55.0326 46.0797 55.0215C45.4425 51.2869 44.2856 47.6599 42.6427 44.2461L40.9409 44.4839C42.5835 47.8057 43.7469 51.3435 44.3965 54.9918C42.9102 54.9546 41.6432 54.8952 40.8555 54.8506C40.8555 55.133 40.874 55.7163 40.8889 56.4743C41.7547 56.5263 43.0811 56.5895 44.6603 56.6229C45.3038 61.0682 45.1957 65.5899 44.3408 69.9993L45.9422 70.252C46.8116 65.7625 46.9371 61.1606 46.3138 56.6304H46.9008C47.9895 56.6527 49.1302 56.6341 50.2821 56.5858Z" fill="white"/>
<path d="M51.4547 44.2388C51.4123 44.2296 51.3684 44.2303 51.3264 44.2409C51.2844 44.2514 51.2453 44.2714 51.2123 44.2994C51.1792 44.3274 51.1531 44.3627 51.1358 44.4024C51.1186 44.4422 51.1107 44.4854 51.1128 44.5286C51.1518 46.2347 50.9466 47.9377 50.5035 49.5857C49.4148 53.6729 47.23 58.9565 47.4901 61.4758C47.661 63.1627 49.4259 66.7631 50.5592 68.9368C50.8193 69.4358 51.2486 69.8258 51.7702 70.0369C52.2918 70.2479 52.8715 70.2663 53.4054 70.0887L54.9697 69.5685C55.1727 69.5007 55.3451 69.363 55.456 69.1799C55.567 68.9968 55.6093 68.7803 55.5753 68.5689C55.4453 67.6921 55.345 65.968 55.7463 62.9174C56.3854 58.0611 55.7463 51.7705 55.7463 51.7705C54.841 49.5929 54.2396 47.3012 53.959 44.9597C53.9506 44.9006 53.9245 44.8455 53.884 44.8017C53.8435 44.7579 53.7906 44.7274 53.7324 44.7144L51.4547 44.2388Z" fill="#D75337"/>
<path opacity="0.6" d="M56.0037 56.0401C56.0037 55.6054 55.9739 55.1892 55.9554 54.7991C55.9554 54.669 55.9554 54.539 55.9368 54.4275C55.4463 54.513 54.9298 54.5873 54.4022 54.6505C54.236 51.2986 53.8974 47.9575 53.3879 44.6405L51.6824 44.2949C52.2573 47.778 52.6295 51.2915 52.7971 54.8177C51.4966 54.9254 50.1552 54.9886 48.8436 55.0146C48.669 55.5719 48.5018 56.1293 48.3457 56.6532C49.832 56.6272 51.3777 56.564 52.8788 56.4377C52.9197 57.3146 52.9568 58.2324 52.9866 59.1984C53.15 64.8202 53.1426 68.2238 53.0943 70.1745C53.2025 70.1559 53.3093 70.1299 53.4139 70.0964L54.7255 69.6617C54.7626 67.6107 54.7552 64.3112 54.6029 59.1501C54.5731 58.1395 54.536 57.1845 54.4951 56.2742C55.0116 56.211 55.5206 56.1404 56.0111 56.0587L56.0037 56.0401Z" fill="white"/>
<path d="M45.171 62.401C44.4984 61.9217 42.0461 62.3787 40.9797 62.6091C40.9797 63.6309 41.002 64.5487 41.002 65.2101C41.002 65.6783 41.002 66.1018 40.9648 66.4883C42.0089 66.7001 44.4316 67.1311 45.171 66.7075C46.2857 66.0684 46.1891 63.1293 45.171 62.401Z" fill="#D75337"/>
<path opacity="0.2" d="M45.171 62.401C44.4984 61.9217 42.0461 62.3787 40.9797 62.6091C40.9797 63.6309 41.002 64.5487 41.002 65.2101C41.002 65.6783 41.002 66.1018 40.9648 66.4883C42.0089 66.7001 44.4316 67.1311 45.171 66.7075C46.2857 66.0684 46.1891 63.1293 45.171 62.401Z" fill="black"/>
<path d="M49.7605 65.5073C48.2353 65.5253 46.7113 65.4134 45.2051 65.1729L45.4392 63.8984C48.4135 64.3287 51.4344 64.3287 54.4088 63.8984L54.5834 65.1803C52.9851 65.3995 51.3737 65.5088 49.7605 65.5073Z" fill="#D75337"/>
<g opacity="0.2">
<path d="M49.7605 65.5073C48.2353 65.5253 46.7113 65.4134 45.2051 65.1729L45.4392 63.8984C48.4135 64.3287 51.4344 64.3287 54.4088 63.8984L54.5834 65.1803C52.9851 65.3995 51.3737 65.5088 49.7605 65.5073Z" fill="black"/>
</g>
<path d="M55.8182 62.2526C55.1419 62.156 54.4954 62.1523 54.2242 62.4012C53.429 63.1443 53.3547 66.0686 54.2242 66.7039C54.603 66.8897 55.0305 66.9521 55.4466 66.8823C55.4501 65.5607 55.5457 64.2409 55.7327 62.9325L55.8182 62.2526Z" fill="#D75337"/>
<path opacity="0.2" d="M55.8182 62.2526C55.1419 62.156 54.4954 62.1523 54.2242 62.4012C53.429 63.1443 53.3547 66.0686 54.2242 66.7039C54.603 66.8897 55.0305 66.9521 55.4466 66.8823C55.4501 65.5607 55.5457 64.2409 55.7327 62.9325L55.8182 62.2526Z" fill="black"/>
<path d="M43.7549 34.0402C43.7549 34.0402 41.4884 34.7239 42.3504 35.638C42.3504 35.638 41.5181 36.3254 42.3244 36.983C42.3244 36.983 41.8674 38.1646 43.1901 38.0977C43.1901 38.0977 43.127 39.4948 44.1376 39.0118C44.1376 39.0118 44.4052 39.532 44.9551 39.1121C45.505 38.6923 44.8287 37.2543 44.8287 37.2543C44.8287 37.2543 45.7948 36.8344 45.4753 35.9464C45.4753 35.9464 46.3224 35.5748 45.8877 34.4601C45.8877 34.4601 46.59 33.847 46.3484 33.416L43.7549 34.0402Z" fill="#263238"/>
<path d="M43.1322 37.6362C43.5342 38.1226 44.0922 38.4548 44.7113 38.5763C45.4953 38.7101 45.67 37.9818 45.2724 37.2832C44.9008 36.6516 44.0722 35.823 43.3737 36.0051C42.6752 36.1871 42.6268 37.0269 43.1322 37.6362Z" fill="#F9C8B3"/>
<path d="M50.6744 32.051L43.0461 34.2321C43.0461 34.2321 41.8162 30.4941 45.4799 29.6172C48.9689 28.7812 50.6744 32.051 50.6744 32.051Z" fill="#D75337"/>
<path d="M45.9537 31.6208L42.9068 32.4977C42.8647 32.5089 42.8203 32.5089 42.7781 32.4976C42.736 32.4863 42.6975 32.464 42.6667 32.4332C42.6358 32.4023 42.6136 32.3639 42.6023 32.3217C42.591 32.2796 42.5909 32.2352 42.6022 32.193L42.8028 31.4499C42.8161 31.4013 42.8438 31.3579 42.8823 31.3254C42.9208 31.2929 42.9682 31.2728 43.0183 31.2678L45.8756 30.9817C45.9038 30.9786 45.9323 30.9814 45.9593 30.9901C45.9863 30.9987 46.0111 31.013 46.0322 31.032C46.0532 31.0509 46.07 31.0741 46.0815 31.1C46.0929 31.126 46.0988 31.154 46.0986 31.1824V31.4202C46.1003 31.465 46.087 31.5091 46.0608 31.5455C46.0345 31.5819 45.9968 31.6084 45.9537 31.6208Z" fill="#D75337"/>
<path opacity="0.2" d="M45.9537 31.6208L42.9068 32.4977C42.8647 32.5089 42.8203 32.5089 42.7781 32.4976C42.736 32.4863 42.6975 32.464 42.6667 32.4332C42.6358 32.4023 42.6136 32.3639 42.6023 32.3217C42.591 32.2796 42.5909 32.2352 42.6022 32.193L42.8028 31.4499C42.8161 31.4013 42.8438 31.3579 42.8823 31.3254C42.9208 31.2929 42.9682 31.2728 43.0183 31.2678L45.8756 30.9817C45.9038 30.9786 45.9323 30.9814 45.9593 30.9901C45.9863 30.9987 46.0111 31.013 46.0322 31.032C46.0532 31.0509 46.07 31.0741 46.0815 31.1C46.0929 31.126 46.0988 31.154 46.0986 31.1824V31.4202C46.1003 31.465 46.087 31.5091 46.0608 31.5455C46.0345 31.5819 45.9968 31.6084 45.9537 31.6208Z" fill="white"/>
<path d="M49.4234 30.8144L48.6208 30.937C48.4478 30.9665 48.2702 30.9264 48.1266 30.8255C47.5406 30.3965 46.8487 30.1352 46.1253 30.0697C45.4019 30.0043 44.6744 30.1371 44.0208 30.4539C44.0055 30.4633 43.9872 30.4662 43.9698 30.462C43.9523 30.4579 43.9373 30.4469 43.9279 30.4317C43.9186 30.4164 43.9157 30.398 43.9198 30.3806C43.924 30.3632 43.9349 30.3481 43.9502 30.3388C44.8271 29.6216 46.9748 28.3583 49.5237 30.4242C49.5594 30.4494 49.5866 30.4849 49.6016 30.5259C49.6167 30.5669 49.6189 30.6116 49.608 30.6539C49.5971 30.6962 49.5737 30.7342 49.5407 30.7629C49.5077 30.7915 49.4668 30.8095 49.4234 30.8144Z" fill="#D75337"/>
<path opacity="0.2" d="M49.4234 30.8144L48.6208 30.937C48.4478 30.9665 48.2702 30.9264 48.1266 30.8255C47.5406 30.3965 46.8487 30.1352 46.1253 30.0697C45.4019 30.0043 44.6744 30.1371 44.0208 30.4539C44.0055 30.4633 43.9872 30.4662 43.9698 30.462C43.9523 30.4579 43.9373 30.4469 43.9279 30.4317C43.9186 30.4164 43.9157 30.398 43.9198 30.3806C43.924 30.3632 43.9349 30.3481 43.9502 30.3388C44.8271 29.6216 46.9748 28.3583 49.5237 30.4242C49.5594 30.4494 49.5866 30.4849 49.6016 30.5259C49.6167 30.5669 49.6189 30.6116 49.608 30.6539C49.5971 30.6962 49.5737 30.7342 49.5407 30.7629C49.5077 30.7915 49.4668 30.8095 49.4234 30.8144Z" fill="white"/>
<path opacity="0.6" d="M50.3147 31.4981L48.4569 31.944C48.4167 31.9544 48.3742 31.9513 48.336 31.9352C48.2977 31.9191 48.2658 31.8908 48.2451 31.8548L48.1039 31.6096C48.0894 31.5828 48.0813 31.553 48.0802 31.5226C48.0791 31.4922 48.0851 31.4619 48.0977 31.4342C48.1103 31.4064 48.1292 31.382 48.1528 31.3628C48.1765 31.3436 48.2043 31.3301 48.234 31.3235L49.8651 30.9854C50.0249 31.1474 50.175 31.3186 50.3147 31.4981Z" fill="white"/>
<path d="M50.5601 31.8555C50.5601 31.8555 53.4583 32.5986 50.6753 33.2154C48.5925 33.6382 46.4811 33.9052 44.3586 34.0143L43.099 34.3858C43.036 34.4043 42.9682 34.3971 42.9104 34.3658C42.8526 34.3345 42.8096 34.2816 42.7906 34.2186V34.1778C42.7805 34.1451 42.7771 34.1107 42.7807 34.0766C42.7842 34.0426 42.7947 34.0096 42.8113 33.9798C42.828 33.9499 42.8506 33.9237 42.8777 33.9028C42.9048 33.8819 42.9359 33.8667 42.969 33.8582L50.5601 31.8555Z" fill="#D75337"/>
<path opacity="0.2" d="M50.5601 31.8555C50.5601 31.8555 53.4583 32.5986 50.6753 33.2154C48.5925 33.6382 46.4811 33.9052 44.3586 34.0143L43.099 34.3858C43.036 34.4043 42.9682 34.3971 42.9104 34.3658C42.8526 34.3345 42.8096 34.2816 42.7906 34.2186V34.1778C42.7805 34.1451 42.7771 34.1107 42.7807 34.0766C42.7842 34.0426 42.7947 34.0096 42.8113 33.9798C42.828 33.9499 42.8506 33.9237 42.8777 33.9028C42.9048 33.8819 42.9359 33.8667 42.969 33.8582L50.5601 31.8555Z" fill="white"/>
<path d="M55.7131 54.2793H48.1703L44.332 63.5127L44.5698 63.7171H52.1126L55.9472 54.4837L55.7131 54.2793Z" fill="#263238"/>
<path opacity="0.4" d="M55.7131 54.2793H48.1703L44.332 63.5127L44.5698 63.7171H52.1126L55.9472 54.4837L55.7131 54.2793Z" fill="white"/>
<path d="M52.1131 63.7158H44.5703L48.4086 54.4824H55.9477L52.1131 63.7158Z" fill="#263238"/>
<path d="M53.7579 54.1445H50.8857L50.4473 55.2035L50.5439 55.289H53.4161L53.8582 54.23L53.7579 54.1445Z" fill="#D75337"/>
<path opacity="0.5" d="M53.7579 54.1445H50.8857L50.4473 55.2035L50.5439 55.289H53.4161L53.8582 54.23L53.7579 54.1445Z" fill="white"/>
<path d="M53.4171 55.2894L53.8593 54.2305H50.9871L50.5449 55.2894H53.4171Z" fill="#D75337"/>
<path opacity="0.2" d="M53.4171 55.2894L53.8593 54.2305H50.9871L50.5449 55.2894H53.4171Z" fill="white"/>
<path d="M43.768 59.1127L46.2055 58.0723L45.5924 61.3086C45.5924 61.3086 43.2701 61.8399 43.0918 60.6212L43.768 59.1127Z" fill="#F9C8B3"/>
<path d="M48.4491 59.1052L47.0446 61.7656L45.5918 61.3235L46.2049 58.0723L48.4491 59.1052Z" fill="#F9C8B3"/>
<path d="M37.9817 57.2617H34.3589C34.3303 57.7824 34.3855 58.3043 34.5224 58.8074C34.5521 58.9078 34.5856 59.0081 34.6264 59.1158C34.6751 59.2439 34.7335 59.3682 34.8011 59.4874C34.921 59.7048 35.0683 59.9058 35.2395 60.0856C35.5167 60.3782 35.8423 60.6208 36.2019 60.8027C36.7336 61.0706 37.3021 61.2584 37.8888 61.3601C38.3797 61.45 38.8764 61.5046 39.3751 61.5236C41.2445 61.5743 43.1124 61.3768 44.93 60.9365L44.7293 59.0304C43.0573 58.9602 41.3917 58.7814 39.7429 58.4953C39.3738 58.4215 39.0091 58.3272 38.6505 58.2129C38.3939 58.1238 38.1453 58.0132 37.9074 57.8822C37.9055 57.6741 37.9242 57.4662 37.9631 57.2617H37.9817Z" fill="#F9C8B3"/>
</svg>
