<svg width="152" height="139" viewBox="0 0 152 139" fill="none" xmlns="http://www.w3.org/2000/svg">
<path d="M148.014 127.514H135.719V127.606H148.014V127.514Z" fill="#EBEBEB"/>
<path d="M103.956 128.523H100.73V128.616H103.956V128.523Z" fill="#EBEBEB"/>
<path d="M135.347 124.068H128.223V124.161H135.347V124.068Z" fill="#EBEBEB"/>
<path d="M16.5061 124.692H0.472656V124.785H16.5061V124.692Z" fill="#EBEBEB"/>
<path d="M22.1624 124.692H19.8125V124.785H22.1624V124.692Z" fill="#EBEBEB"/>
<path d="M64.5815 126.259H29.8047V126.352H64.5815V126.259Z" fill="#EBEBEB"/>
<path d="M149.281 104.984H77.5963C77.0344 104.983 76.4958 104.759 76.0985 104.362C75.7012 103.965 75.4775 103.426 75.4766 102.864V2.10116C75.4824 1.5425 75.7082 1.00866 76.105 0.615348C76.5018 0.222036 77.0376 0.000946001 77.5963 0H149.281C149.838 0.00193206 150.373 0.223573 150.768 0.616883C151.164 1.01019 151.388 1.54348 151.393 2.10116V102.864C151.393 103.425 151.171 103.963 150.775 104.36C150.379 104.758 149.842 104.982 149.281 104.984ZM77.5963 0.0742463C77.059 0.0752276 76.544 0.289092 76.1641 0.668999C75.7842 1.04891 75.5704 1.56389 75.5694 2.10116V102.864C75.5704 103.401 75.7842 103.916 76.1641 104.296C76.544 104.676 77.059 104.89 77.5963 104.891H149.281C149.818 104.89 150.333 104.676 150.713 104.296C151.093 103.916 151.307 103.401 151.308 102.864V2.10116C151.307 1.56389 151.093 1.04891 150.713 0.668999C150.333 0.289092 149.818 0.0752276 149.281 0.0742463H77.5963Z" fill="#EBEBEB"/>
<path d="M42.9269 14.8008H17.4902V86.2254H42.9269V14.8008Z" fill="#FAFAFA"/>
<path d="M39.1386 14.8008H37.6499L28.7812 86.2254H30.2662L39.1386 14.8008Z" fill="#F5F5F5"/>
<path d="M42.4772 15.1309H17.3301V15.8919H42.4772V15.1309Z" fill="#E0E0E0"/>
<path d="M42.4772 85.4678H17.3301V87.0938H42.4772V85.4678Z" fill="#EBEBEB"/>
<path d="M42.0573 87.0234H18.2949V87.094H42.0573V87.0234Z" fill="#EBEBEB"/>
<path d="M18.2949 15.1355H42.0573V87.0242H43.4791V14.0664H16.873V87.0242H18.2949V15.1355Z" fill="#EBEBEB"/>
<path d="M71.2335 14.8008H45.7969V86.2254H71.2335V14.8008Z" fill="#FAFAFA"/>
<path d="M64.1754 14.8008H56.064L47.1953 86.2254H55.303L64.1754 14.8008Z" fill="#F5F5F5"/>
<path d="M71.4927 15.1309H45.6328V15.8919H71.4927V15.1309Z" fill="#E0E0E0"/>
<path d="M71.4927 85.4678H45.6328V87.0938H71.4927V85.4678Z" fill="#EBEBEB"/>
<path d="M70.3601 87.0234H46.5977V87.094H70.3601V87.0234Z" fill="#EBEBEB"/>
<path d="M46.5976 15.1355H70.36V87.0242H71.7855V14.0664H45.1758V87.0242H46.5976V15.1355Z" fill="#EBEBEB"/>
<path d="M98.8179 14.8008H74.0977V86.2254H98.8179V14.8008Z" fill="#FAFAFA"/>
<path d="M88.1054 14.8008H86.6167L77.748 86.2254H79.233L88.1054 14.8008Z" fill="#F5F5F5"/>
<path d="M99.0827 15.1309H73.9355V15.8919H99.0827V15.1309Z" fill="#E0E0E0"/>
<path d="M99.0827 85.4678H73.9355V87.0938H99.0827V85.4678Z" fill="#EBEBEB"/>
<path d="M98.6628 87.0234H74.9004V87.094H98.6628V87.0234Z" fill="#EBEBEB"/>
<path d="M74.9003 15.1355H98.6628V87.0242H100.088V14.0664H73.4785V87.0242H74.9003V15.1355Z" fill="#EBEBEB"/>
<path d="M127.837 14.8008H102.4V86.2254H127.837V14.8008Z" fill="#FAFAFA"/>
<path d="M125.347 14.8008H117.24L108.367 86.2254H116.475L125.347 14.8008Z" fill="#F5F5F5"/>
<path d="M127.385 15.1309H102.238V15.8919H127.385V15.1309Z" fill="#E0E0E0"/>
<path d="M127.385 85.4678H102.238V87.0938H127.385V85.4678Z" fill="#EBEBEB"/>
<path d="M103.207 15.1355H126.969V87.0242H128.391V14.0664H101.781V87.0242H103.207V15.1355Z" fill="#EBEBEB"/>
<path d="M126.969 87.0234H103.207V87.094H126.969V87.0234Z" fill="#EBEBEB"/>
<path d="M36.841 66.3789H25.7969V85.4713H36.841V66.3789Z" fill="#EBEBEB"/>
<path d="M34.7228 63.7109V68.4998H33.8504H28.7906H27.9219V63.7109H34.7228Z" fill="#EBEBEB"/>
<path d="M34.7184 68.499H36.1328V67.0846H34.7184V68.499Z" fill="#FAFAFA"/>
<path d="M31.9841 68.499H33.3984V67.0846H31.9841V68.499Z" fill="#FAFAFA"/>
<path d="M29.2458 68.499H30.6602V67.0846H29.2458V68.499Z" fill="#FAFAFA"/>
<path d="M26.5036 68.499H27.918V67.0846H26.5036V68.499Z" fill="#F0F0F0"/>
<path d="M34.7184 71.0684H36.1328V69.654H34.7184V71.0684Z" fill="#F0F0F0"/>
<path d="M31.9841 71.0684H33.3984V69.654H31.9841V71.0684Z" fill="#F0F0F0"/>
<path d="M29.2458 71.0684H30.6602V69.654H29.2458V71.0684Z" fill="#FAFAFA"/>
<path d="M26.5036 71.0684H27.918V69.654H26.5036V71.0684Z" fill="#FAFAFA"/>
<path d="M34.7184 73.6328H36.1328V72.2184H34.7184V73.6328Z" fill="#F0F0F0"/>
<path d="M31.9841 73.6328H33.3984V72.2184H31.9841V73.6328Z" fill="#FAFAFA"/>
<path d="M29.2458 73.6328H30.6602V72.2184H29.2458V73.6328Z" fill="#FAFAFA"/>
<path d="M31.9841 66.2793H33.3984V64.8649H31.9841V66.2793Z" fill="#FAFAFA"/>
<path d="M29.2458 66.2793H30.6602V64.8649H29.2458V66.2793Z" fill="#F0F0F0"/>
<path d="M26.5036 73.6338H27.918V72.2194H26.5036V73.6338Z" fill="#F0F0F0"/>
<path d="M34.7184 76.2021H36.1328V74.7878H34.7184V76.2021Z" fill="#FAFAFA"/>
<path d="M31.9841 76.2021H33.3984V74.7878H31.9841V76.2021Z" fill="#F0F0F0"/>
<path d="M29.2458 76.2021H30.6602V74.7878H29.2458V76.2021Z" fill="#F0F0F0"/>
<path d="M26.5036 76.2021H27.918V74.7878H26.5036V76.2021Z" fill="#FAFAFA"/>
<path d="M34.7184 78.7715H36.1328V77.3571H34.7184V78.7715Z" fill="#F0F0F0"/>
<path d="M31.9841 78.7715H33.3984V77.3571H31.9841V78.7715Z" fill="#FAFAFA"/>
<path d="M29.2458 78.7715H30.6602V77.3571H29.2458V78.7715Z" fill="#FAFAFA"/>
<path d="M26.5036 78.7715H27.918V77.3571H26.5036V78.7715Z" fill="#F0F0F0"/>
<path d="M34.7184 81.3398H36.1328V79.9255H34.7184V81.3398Z" fill="#F0F0F0"/>
<path d="M31.9841 81.3398H33.3984V79.9255H31.9841V81.3398Z" fill="#FAFAFA"/>
<path d="M29.2458 81.3398H30.6602V79.9255H29.2458V81.3398Z" fill="#F0F0F0"/>
<path d="M26.5036 81.3398H27.918V79.9255H26.5036V81.3398Z" fill="#FAFAFA"/>
<path d="M34.7184 83.9092H36.1328V82.4948H34.7184V83.9092Z" fill="#FAFAFA"/>
<path d="M31.9841 83.9092H33.3984V82.4948H31.9841V83.9092Z" fill="#FAFAFA"/>
<path d="M29.2458 83.9092H30.6602V82.4948H29.2458V83.9092Z" fill="#F0F0F0"/>
<path d="M26.5036 83.9092H27.918V82.4948H26.5036V83.9092Z" fill="#F0F0F0"/>
<path d="M114.622 73.333H104.729V85.4722H114.622V73.333Z" fill="#F0F0F0"/>
<path d="M105.59 74.6797H107.891H108.526H109.157V75.9456H108.526H107.891H105.59V74.6797Z" fill="#E6E6E6"/>
<path d="M105.59 77.1348H107.891H108.526H109.157V78.4007H108.526H107.891H105.59V77.1348Z" fill="#FAFAFA"/>
<path d="M105.59 79.584H107.891H108.526H109.157V80.8536H108.526H107.891H105.59V79.584Z" fill="#E6E6E6"/>
<path d="M105.59 82.0371H107.891H108.872H109.157V83.303H108.872H107.891H105.59V82.0371Z" fill="#FAFAFA"/>
<path d="M110.193 74.6797H112.495H113.126H113.761V75.9456H113.126H112.495H110.193V74.6797Z" fill="#FAFAFA"/>
<path d="M110.193 77.1348H112.495H113.386H113.761V78.4007H113.386H112.495H110.193V77.1348Z" fill="#FAFAFA"/>
<path d="M110.193 79.584H112.495H113.126H113.761V80.8536H113.126H112.495H110.193V79.584Z" fill="#E6E6E6"/>
<path d="M110.193 82.0371H112.495H113.126H113.761V83.303H113.126H112.495H110.193V82.0371Z" fill="#FAFAFA"/>
<path d="M66.9562 77.9287H57.9688V85.4721H66.9562V77.9287Z" fill="#F0F0F0"/>
<path d="M65.234 80.0225H66.3848V78.8717H65.234V80.0225Z" fill="#FAFAFA"/>
<path d="M63.0015 80.0225H64.1523V78.8717H63.0015V80.0225Z" fill="#FAFAFA"/>
<path d="M60.7711 80.0225H61.9219V78.8717H60.7711V80.0225Z" fill="#FAFAFA"/>
<path d="M58.5445 80.0225H59.6953V78.8717H58.5445V80.0225Z" fill="#FAFAFA"/>
<path d="M65.234 82.1084H66.3848V80.9576H65.234V82.1084Z" fill="#FAFAFA"/>
<path d="M63.0015 82.1084H64.1523V80.9576H63.0015V82.1084Z" fill="#FAFAFA"/>
<path d="M60.7711 82.1084H61.9219V80.9576H60.7711V82.1084Z" fill="#FAFAFA"/>
<path d="M58.5445 82.1084H59.6953V80.9576H58.5445V82.1084Z" fill="#E6E6E6"/>
<path d="M65.234 84.2021H66.3848V83.0513H65.234V84.2021Z" fill="#E6E6E6"/>
<path d="M63.0015 84.2021H64.1523V83.0513H63.0015V84.2021Z" fill="#E6E6E6"/>
<path d="M60.7711 84.2021H61.9219V83.0513H60.7711V84.2021Z" fill="#FAFAFA"/>
<path d="M58.5445 84.2021H59.6953V83.0513H58.5445V84.2021Z" fill="#E6E6E6"/>
<path d="M56.7511 72.3525H47.7637V85.4718H56.7511V72.3525Z" fill="#F0F0F0"/>
<path d="M56.1751 72.9277H52.7969V76.1686H56.1751V72.9277Z" fill="#FAFAFA"/>
<path d="M51.718 72.9277H48.3398V76.1686H51.718V72.9277Z" fill="#FAFAFA"/>
<path d="M56.1751 77.1084H52.7969V80.3492H56.1751V77.1084Z" fill="#FAFAFA"/>
<path d="M51.718 77.1084H48.3398V80.3492H51.718V77.1084Z" fill="#FAFAFA"/>
<path d="M56.1751 81.292H52.7969V84.5328H56.1751V81.292Z" fill="#FAFAFA"/>
<path d="M51.718 81.292H48.3398V84.5328H51.718V81.292Z" fill="#FAFAFA"/>
<path d="M101.792 119.135H93.8516L98.0316 85.0859C98.1348 84.3768 98.4853 83.727 99.0213 83.2515C99.5574 82.7759 100.244 82.5052 100.961 82.4873H135.652L130.562 119.146L101.792 119.135Z" fill="#F5F5F5"/>
<path d="M127.014 119.135H134.969L139.142 85.0855C139.191 84.7592 139.167 84.4261 139.074 84.1097C138.981 83.7932 138.819 83.501 138.601 83.2535C138.383 83.0059 138.113 82.8091 137.811 82.6767C137.509 82.5442 137.181 82.4795 136.851 82.4869H134.119C133.402 82.5041 132.715 82.7745 132.179 83.2502C131.643 83.7259 131.292 84.3761 131.19 85.0855L127.014 119.135Z" fill="#F0F0F0"/>
<path d="M124.084 119.094L125.524 102.626C125.556 102.269 125.709 101.933 125.957 101.675C126.206 101.416 126.535 101.25 126.891 101.204L127.485 101.13C127.961 101.068 128.402 100.846 128.735 100.5C129.068 100.153 129.272 99.7038 129.315 99.2254L129.578 96.2221C129.603 95.9313 129.568 95.6383 129.474 95.3619C129.38 95.0854 129.23 94.8315 129.033 94.6162C128.835 94.4009 128.596 94.2289 128.329 94.111C128.061 93.9932 127.773 93.9321 127.481 93.9316H140.771C141.062 93.9341 141.349 93.9967 141.614 94.1155C141.879 94.2342 142.117 94.4065 142.313 94.6216C142.508 94.8367 142.657 95.0899 142.75 95.3654C142.843 95.6408 142.879 95.9325 142.853 96.2221L142.59 99.2254C142.547 99.7038 142.343 100.153 142.01 100.5C141.677 100.846 141.236 101.068 140.76 101.13L140.166 101.204C139.81 101.25 139.481 101.416 139.232 101.675C138.984 101.933 138.831 102.269 138.8 102.626L137.359 119.094C137.309 119.673 137.043 120.213 136.614 120.606C136.185 120.999 135.625 121.217 135.043 121.217H121.768C122.349 121.217 122.91 120.999 123.339 120.606C123.768 120.213 124.034 119.673 124.084 119.094Z" fill="#E6E6E6"/>
<path d="M87.5089 98.5028C87.4011 97.2535 86.8289 96.09 85.9052 95.2419C84.9816 94.3938 83.7735 93.9228 82.5195 93.9219H94.0908C95.343 93.9226 96.5496 94.392 97.473 95.2378C98.3964 96.0836 98.9697 97.2444 99.0801 98.4917L100.22 111.548H88.6522L87.5089 98.5028Z" fill="#E6E6E6"/>
<path d="M77.3838 93.9219H82.5217C83.7739 93.9226 84.9805 94.392 85.9039 95.2378C86.8273 96.0836 87.4006 97.2444 87.511 98.4917L88.6544 111.559H116.214L117.354 98.5029C117.462 97.2542 118.034 96.0911 118.956 95.2431C119.879 94.3952 121.086 93.9237 122.34 93.9219H127.481C127.773 93.9223 128.062 93.9834 128.329 94.1012C128.596 94.2191 128.836 94.3911 129.033 94.6064C129.23 94.8218 129.381 95.0757 129.475 95.3521C129.568 95.6286 129.604 95.9215 129.579 96.2124L129.315 99.2156C129.273 99.694 129.068 100.144 128.735 100.49C128.402 100.836 127.961 101.058 127.485 101.12L126.891 101.194C126.535 101.24 126.206 101.406 125.958 101.665C125.709 101.923 125.557 102.259 125.525 102.616L124.085 119.084C124.034 119.664 123.769 120.203 123.34 120.596C122.911 120.99 122.35 121.208 121.768 121.207H83.0859C82.5041 121.208 81.9433 120.99 81.5144 120.596C81.0855 120.203 80.8197 119.664 80.7695 119.084L79.3291 102.616C79.298 102.259 79.1455 101.923 78.897 101.664C78.6485 101.405 78.3188 101.24 77.963 101.194L77.3727 101.12C76.8957 101.059 76.4538 100.837 76.1202 100.491C75.7867 100.145 75.5815 99.6946 75.5388 99.2156L75.2901 96.2235C75.2633 95.9321 75.2975 95.6382 75.3904 95.3607C75.4834 95.0832 75.6331 94.8281 75.8301 94.6116C76.027 94.3951 76.2669 94.2219 76.5344 94.1032C76.8019 93.9845 77.0912 93.9227 77.3838 93.9219Z" fill="#F0F0F0"/>
<path d="M38.6287 91.7754H2.47461C2.47496 92.4142 2.72183 93.0282 3.16375 93.4895C3.60567 93.9508 4.20856 94.2238 4.84677 94.2515C8.73354 94.4297 14.7103 95.0422 16.6036 97.1916C20.1377 101.201 19.7962 115.278 15.5642 118.537C14.2352 119.558 10.367 121.589 10.367 121.589H30.7438C30.7438 121.589 27.128 119.517 25.8695 118.537C21.6635 115.252 21.541 101.182 25.0899 97.1916C26.9127 95.1462 32.5145 94.4854 36.2714 94.2775C36.9096 94.2405 37.5094 93.9606 37.9477 93.4954C38.3861 93.0301 38.6298 92.4146 38.6287 91.7754Z" fill="#F5F5F5"/>
<path d="M6.95312 94.3848C10.6246 94.678 15.0274 95.4056 16.6051 97.1913C17.1177 97.8092 17.5219 98.5097 17.8005 99.2627H23.8738C24.1613 98.51 24.5715 97.81 25.0877 97.1913C26.6691 95.4131 31.1091 94.6817 34.71 94.3848H6.95312Z" fill="#E6E6E6"/>
<path d="M23.2281 91.7942L22.7344 86.1738H29.862L30.3557 91.7942H23.2281Z" fill="#EBEBEB"/>
<path d="M23.2296 91.7942L22.7359 86.1738H22.3535L22.8435 91.7942H23.2296Z" fill="#E0E0E0"/>
<path d="M23.9054 91.2223L23.5156 86.749H29.188L29.5778 91.2223H23.9054Z" fill="#F0F0F0"/>
<path d="M24.3404 90.8518L24.0137 87.1172H28.7543L29.081 90.8518H24.3404Z" fill="#FAFAFA"/>
<path d="M20.9171 91.7748H13.7598L14.5542 82.6982H21.7115L20.9171 91.7748Z" fill="#E6E6E6"/>
<path d="M20.916 91.7758H21.2575L22.052 82.6992H21.7104L20.916 91.7758Z" fill="#E0E0E0"/>
<path d="M20.2667 90.8509H14.5684L15.2032 83.623H20.9015L20.2667 90.8509Z" fill="#F0F0F0"/>
<path d="M19.8508 90.2567H15.0879L15.6187 84.2168H20.3779L19.8508 90.2567Z" fill="#FAFAFA"/>
<path d="M17.4452 86.9347C17.6011 87.0898 17.8119 87.1768 18.0318 87.1768C18.2516 87.1768 18.4625 87.0898 18.6183 86.9347C18.7734 86.7789 18.8604 86.568 18.8604 86.3482C18.8604 86.1284 18.7734 85.9175 18.6183 85.7616C18.4625 85.6066 18.2516 85.5195 18.0318 85.5195C17.8119 85.5195 17.6011 85.6066 17.4452 85.7616C17.2902 85.9175 17.2031 86.1284 17.2031 86.3482C17.2031 86.568 17.2902 86.7789 17.4452 86.9347Z" fill="#EBEBEB"/>
<path d="M17.7975 87.9477C17.7412 87.8912 17.6744 87.8464 17.6008 87.8158C17.5273 87.7853 17.4484 87.7695 17.3687 87.7695C17.289 87.7695 17.2101 87.7853 17.1365 87.8158C17.063 87.8464 16.9961 87.8912 16.9399 87.9477C16.8537 88.0327 16.795 88.1417 16.7714 88.2606C16.7478 88.3794 16.7604 88.5026 16.8076 88.6141C16.8548 88.7257 16.9343 88.8205 17.036 88.8864C17.1377 88.9522 17.2568 88.986 17.378 88.9834C17.4975 88.9823 17.614 88.9458 17.7128 88.8785C17.8117 88.8113 17.8884 88.7163 17.9332 88.6055C17.9781 88.4947 17.9892 88.3731 17.965 88.256C17.9408 88.1389 17.8825 88.0316 17.7975 87.9477Z" fill="#F0F0F0"/>
<path d="M73.8059 138.305C113.558 138.305 145.784 136.424 145.784 134.103C145.784 131.782 113.558 129.9 73.8059 129.9C34.0537 129.9 1.82812 131.782 1.82812 134.103C1.82812 136.424 34.0537 138.305 73.8059 138.305Z" fill="#F5F5F5"/>
<path d="M131.8 108.702C131.867 109.181 130.568 109.496 129.506 109.674C129.595 110.543 130.174 111.423 130.972 112.247C131.978 111.679 133.415 110.929 133.678 111.111C133.942 111.293 132.498 112.265 131.577 112.822C132.234 113.396 132.93 113.923 133.66 114.4C134.113 113.981 134.64 113.609 134.956 113.81C135.271 114.01 135.193 114.671 135.033 115.25C136.125 115.889 136.945 116.278 136.945 116.278C137.268 115.262 137.516 114.224 137.688 113.171C137.632 113.06 137.58 112.952 137.528 112.833C137.35 112.425 137.528 112.254 137.814 112.195C137.895 111.455 137.902 110.709 137.833 109.968C136.593 109.708 135.089 109.225 135.653 108.483C135.991 108.037 136.615 107.985 137.265 108.111C137.175 107.964 137.071 107.825 136.956 107.696C134.703 105.212 133.129 107.696 133.129 107.696C131.819 106.604 129.977 106.897 129.58 108.605C130.308 108.401 131.718 108.111 131.8 108.702Z" fill="#D75337"/>
<path opacity="0.3" d="M131.8 108.702C131.867 109.181 130.568 109.496 129.506 109.674C129.595 110.543 130.174 111.423 130.972 112.247C131.978 111.679 133.415 110.929 133.678 111.111C133.942 111.293 132.498 112.265 131.577 112.822C132.234 113.396 132.93 113.923 133.66 114.4C134.113 113.981 134.64 113.609 134.956 113.81C135.271 114.01 135.193 114.671 135.033 115.25C136.125 115.889 136.945 116.278 136.945 116.278C137.268 115.262 137.516 114.224 137.688 113.171C137.632 113.06 137.58 112.952 137.528 112.833C137.35 112.425 137.528 112.254 137.814 112.195C137.895 111.455 137.902 110.709 137.833 109.968C136.593 109.708 135.089 109.225 135.653 108.483C135.991 108.037 136.615 107.985 137.265 108.111C137.175 107.964 137.071 107.825 136.956 107.696C134.703 105.212 133.129 107.696 133.129 107.696C131.819 106.604 129.977 106.897 129.58 108.605C130.308 108.401 131.718 108.111 131.8 108.702Z" fill="white"/>
<path d="M134.61 126.961L134.287 126.935C134.287 126.768 135.62 110.133 131.889 108.563C131.713 108.483 131.522 108.445 131.329 108.45C131.136 108.455 130.947 108.504 130.775 108.593C129.428 109.295 128.782 112.209 128.774 112.238L128.455 112.168C128.481 112.042 129.142 109.075 130.623 108.303C130.84 108.19 131.079 108.127 131.324 108.12C131.568 108.113 131.811 108.162 132.034 108.262C135.965 109.918 134.688 126.263 134.61 126.961Z" fill="#D75337"/>
<path d="M135.083 126.59C135.016 125.848 133.494 108.24 136.341 106.373C137.024 105.927 137.633 105.831 138.153 106.091C139.501 106.77 139.675 109.651 139.682 109.773H139.356C139.356 109.747 139.185 106.963 138.005 106.369C137.6 106.165 137.099 106.25 136.52 106.633C133.832 108.392 135.387 126.364 135.406 126.545L135.083 126.59Z" fill="#D75337"/>
<path d="M135.512 128.02C135.49 127.448 135.018 113.977 137.613 112.8C137.855 112.686 138.118 112.627 138.385 112.627C138.652 112.627 138.916 112.686 139.158 112.8C140.939 113.583 142.038 116.902 142.083 117.043L141.775 117.143C141.775 117.11 140.661 113.821 139.028 113.097C138.828 113.002 138.61 112.952 138.389 112.952C138.168 112.952 137.95 113.002 137.751 113.097C135.761 114.003 135.694 124.171 135.835 128.013L135.512 128.02Z" fill="#D75337"/>
<path d="M134.85 127.403L134.524 127.366C134.984 123.357 135.856 112.673 134.427 111.403C134.358 111.32 134.266 111.259 134.162 111.227C134.059 111.195 133.949 111.193 133.844 111.222C132.887 111.593 132.304 115.064 132.159 116.374L131.836 116.337C131.892 115.836 132.415 111.422 133.725 110.917C133.886 110.863 134.058 110.858 134.222 110.9C134.385 110.943 134.533 111.033 134.646 111.158C136.491 112.803 134.917 126.809 134.85 127.403Z" fill="#D75337"/>
<path d="M129.408 119.805H141.124L140.144 132.928H130.385L129.408 119.805Z" fill="#D75337"/>
<path opacity="0.2" d="M132.965 119.805L133.292 132.928H140.144L141.124 119.805H132.965Z" fill="white"/>
<path d="M131.007 114.986C130.884 115.305 129.975 115.056 129.258 114.8C129.037 115.48 129.045 116.215 129.28 116.89C130.097 116.89 131.237 116.916 131.341 117.12C131.445 117.324 130.227 117.425 129.459 117.454C129.667 118.033 129.915 118.596 130.201 119.14C130.624 119.036 131.077 118.987 131.2 119.218C131.322 119.448 131.055 119.83 130.754 120.135C131.211 120.903 131.582 121.423 131.582 121.423C132.127 120.905 132.634 120.349 133.1 119.76C133.1 119.671 133.1 119.585 133.1 119.496C133.13 119.184 133.297 119.125 133.498 119.199C133.803 118.77 134.064 118.309 134.273 117.826C133.602 117.239 132.837 116.426 133.438 116.162C133.809 116.003 134.203 116.185 134.552 116.478C134.547 116.353 134.531 116.229 134.504 116.107C133.965 113.801 132.143 114.796 132.143 114.796C131.712 113.683 130.476 113.222 129.644 114.139C130.194 114.284 131.155 114.592 131.007 114.986Z" fill="#D75337"/>
<path opacity="0.3" d="M131.007 114.986C130.884 115.305 129.975 115.056 129.258 114.8C129.037 115.48 129.045 116.215 129.28 116.89C130.097 116.89 131.237 116.916 131.341 117.12C131.445 117.324 130.227 117.425 129.459 117.454C129.667 118.033 129.915 118.596 130.201 119.14C130.624 119.036 131.077 118.987 131.2 119.218C131.322 119.448 131.055 119.83 130.754 120.135C131.211 120.903 131.582 121.423 131.582 121.423C132.127 120.905 132.634 120.349 133.1 119.76C133.1 119.671 133.1 119.585 133.1 119.496C133.13 119.184 133.297 119.125 133.498 119.199C133.803 118.77 134.064 118.309 134.273 117.826C133.602 117.239 132.837 116.426 133.438 116.162C133.809 116.003 134.203 116.185 134.552 116.478C134.547 116.353 134.531 116.229 134.504 116.107C133.965 113.801 132.143 114.796 132.143 114.796C131.712 113.683 130.476 113.222 129.644 114.139C130.194 114.284 131.155 114.592 131.007 114.986Z" fill="white"/>
<path d="M139.704 116.544C139.34 116.576 138.98 116.652 138.635 116.771C138.539 116.523 138.485 116.26 138.475 115.995C138.401 113.634 140.094 114.629 140.985 113.934C141.186 113.758 141.422 113.625 141.678 113.544C141.933 113.464 142.203 113.437 142.469 113.467C142.393 113.596 142.326 113.732 142.269 113.871C142.248 113.923 142.239 113.979 142.243 114.034C142.247 114.09 142.263 114.144 142.29 114.192C142.318 114.241 142.356 114.283 142.402 114.314C142.447 114.346 142.5 114.367 142.555 114.376C142.779 114.421 143.012 114.394 143.219 114.298C143.277 114.262 143.333 114.222 143.386 114.179C143.531 114.427 143.64 114.693 143.713 114.97C143.801 115.3 143.852 115.639 143.865 115.98C143.732 116.008 143.6 116.045 143.472 116.091C143.421 116.114 143.376 116.147 143.339 116.19C143.303 116.232 143.277 116.282 143.263 116.336C143.249 116.39 143.247 116.446 143.257 116.501C143.267 116.555 143.29 116.607 143.323 116.652C143.464 116.794 143.628 116.909 143.81 116.993C143.749 117.374 143.65 117.747 143.513 118.107L143.394 118.126C143.307 118.141 143.222 118.162 143.138 118.189C143.089 118.2 143.041 118.218 142.997 118.241C142.938 118.265 142.887 118.304 142.848 118.354C142.809 118.405 142.783 118.464 142.774 118.526C142.766 118.591 142.774 118.656 142.799 118.716C142.824 118.776 142.864 118.828 142.915 118.868C142.971 118.907 143.029 118.943 143.089 118.976C142.866 119.367 142.543 119.692 142.154 119.919C141.813 119.762 141.48 119.586 141.159 119.391C141.23 119.299 141.3 119.202 141.367 119.106C141.442 118.997 141.477 118.866 141.467 118.734C141.449 118.602 141.38 118.482 141.274 118.4C141.222 118.36 141.162 118.33 141.098 118.313C141.034 118.296 140.968 118.291 140.902 118.3C140.837 118.308 140.773 118.33 140.716 118.363C140.659 118.396 140.609 118.44 140.569 118.493C140.491 118.608 140.405 118.719 140.32 118.831C139.878 118.502 139.482 118.115 139.143 117.68H139.177C139.396 117.624 139.619 117.588 139.845 117.572C139.97 117.547 140.08 117.475 140.154 117.371C140.228 117.267 140.26 117.139 140.244 117.013C140.227 116.886 140.164 116.771 140.066 116.689C139.967 116.608 139.842 116.567 139.715 116.574L139.704 116.544Z" fill="#D75337"/>
<path opacity="0.5" d="M139.704 116.544C139.34 116.576 138.98 116.652 138.635 116.771C138.539 116.523 138.485 116.26 138.475 115.995C138.401 113.634 140.094 114.629 140.985 113.934C141.186 113.758 141.422 113.625 141.678 113.544C141.933 113.464 142.203 113.437 142.469 113.467C142.393 113.596 142.326 113.732 142.269 113.871C142.248 113.923 142.239 113.979 142.243 114.034C142.247 114.09 142.263 114.144 142.29 114.192C142.318 114.241 142.356 114.283 142.402 114.314C142.447 114.346 142.5 114.367 142.555 114.376C142.779 114.421 143.012 114.394 143.219 114.298C143.277 114.262 143.333 114.222 143.386 114.179C143.531 114.427 143.64 114.693 143.713 114.97C143.801 115.3 143.852 115.639 143.865 115.98C143.732 116.008 143.6 116.045 143.472 116.091C143.421 116.114 143.376 116.147 143.339 116.19C143.303 116.232 143.277 116.282 143.263 116.336C143.249 116.39 143.247 116.446 143.257 116.501C143.267 116.555 143.29 116.607 143.323 116.652C143.464 116.794 143.628 116.909 143.81 116.993C143.749 117.374 143.65 117.747 143.513 118.107L143.394 118.126C143.307 118.141 143.222 118.162 143.138 118.189C143.089 118.2 143.041 118.218 142.997 118.241C142.938 118.265 142.887 118.304 142.848 118.354C142.809 118.405 142.783 118.464 142.774 118.526C142.766 118.591 142.774 118.656 142.799 118.716C142.824 118.776 142.864 118.828 142.915 118.868C142.971 118.907 143.029 118.943 143.089 118.976C142.866 119.367 142.543 119.692 142.154 119.919C141.813 119.762 141.48 119.586 141.159 119.391C141.23 119.299 141.3 119.202 141.367 119.106C141.442 118.997 141.477 118.866 141.467 118.734C141.449 118.602 141.38 118.482 141.274 118.4C141.222 118.36 141.162 118.33 141.098 118.313C141.034 118.296 140.968 118.291 140.902 118.3C140.837 118.308 140.773 118.33 140.716 118.363C140.659 118.396 140.609 118.44 140.569 118.493C140.491 118.608 140.405 118.719 140.32 118.831C139.878 118.502 139.482 118.115 139.143 117.68H139.177C139.396 117.624 139.619 117.588 139.845 117.572C139.97 117.547 140.08 117.475 140.154 117.371C140.228 117.267 140.26 117.139 140.244 117.013C140.227 116.886 140.164 116.771 140.066 116.689C139.967 116.608 139.842 116.567 139.715 116.574L139.704 116.544Z" fill="white"/>
<path d="M140.38 108.4C140.585 108.256 140.807 108.138 141.041 108.047C140.983 107.875 140.896 107.715 140.785 107.572C139.786 106.299 139.337 107.572 138.557 107.591C138.373 107.586 138.189 107.62 138.019 107.69C137.848 107.761 137.694 107.866 137.566 107.999C137.663 108.035 137.757 108.077 137.848 108.125C137.882 108.143 137.911 108.169 137.933 108.199C137.955 108.23 137.971 108.265 137.978 108.302C137.985 108.34 137.984 108.378 137.974 108.415C137.964 108.452 137.947 108.486 137.922 108.515C137.829 108.636 137.699 108.723 137.551 108.764C137.504 108.768 137.457 108.768 137.41 108.764C137.445 108.956 137.505 109.143 137.588 109.321C137.688 109.534 137.813 109.734 137.96 109.918C138.043 109.875 138.128 109.837 138.216 109.803C138.252 109.792 138.291 109.789 138.329 109.795C138.367 109.801 138.403 109.816 138.434 109.838C138.466 109.86 138.491 109.89 138.51 109.923C138.528 109.957 138.538 109.995 138.539 110.033C138.527 110.17 138.492 110.303 138.435 110.427C138.632 110.6 138.848 110.752 139.077 110.88L139.148 110.835C139.199 110.806 139.253 110.78 139.307 110.757L139.404 110.72C139.446 110.708 139.49 110.707 139.533 110.717C139.576 110.727 139.616 110.747 139.649 110.776C139.681 110.806 139.705 110.844 139.718 110.886C139.731 110.929 139.733 110.974 139.723 111.017C139.711 111.063 139.697 111.107 139.678 111.151C139.968 111.255 140.28 111.284 140.584 111.236C140.695 111.004 140.793 110.766 140.877 110.523L140.644 110.46C140.556 110.438 140.48 110.386 140.428 110.312C140.403 110.274 140.386 110.231 140.378 110.187C140.369 110.142 140.37 110.096 140.38 110.052C140.401 109.963 140.455 109.886 140.532 109.837C140.57 109.812 140.613 109.796 140.658 109.788C140.702 109.78 140.748 109.782 140.792 109.792L141.07 109.859C141.162 109.486 141.202 109.103 141.189 108.719H141.167C141.028 108.785 140.895 108.863 140.77 108.953C140.693 108.993 140.605 109.003 140.521 108.981C140.438 108.959 140.365 108.906 140.319 108.834C140.272 108.761 140.254 108.673 140.269 108.588C140.284 108.503 140.33 108.427 140.399 108.374L140.38 108.4Z" fill="#D75337"/>
<path opacity="0.3" d="M140.38 108.4C140.585 108.256 140.807 108.138 141.041 108.047C140.983 107.875 140.896 107.715 140.785 107.572C139.786 106.299 139.337 107.572 138.557 107.591C138.373 107.586 138.189 107.62 138.019 107.69C137.848 107.761 137.694 107.866 137.566 107.999C137.663 108.035 137.757 108.077 137.848 108.125C137.882 108.143 137.911 108.169 137.933 108.199C137.955 108.23 137.971 108.265 137.978 108.302C137.985 108.34 137.984 108.378 137.974 108.415C137.964 108.452 137.947 108.486 137.922 108.515C137.829 108.636 137.699 108.723 137.551 108.764C137.504 108.768 137.457 108.768 137.41 108.764C137.445 108.956 137.505 109.143 137.588 109.321C137.688 109.534 137.813 109.734 137.96 109.918C138.043 109.875 138.128 109.837 138.216 109.803C138.252 109.792 138.291 109.789 138.329 109.795C138.367 109.801 138.403 109.816 138.434 109.838C138.466 109.86 138.491 109.89 138.51 109.923C138.528 109.957 138.538 109.995 138.539 110.033C138.527 110.17 138.492 110.303 138.435 110.427C138.632 110.6 138.848 110.752 139.077 110.88L139.148 110.835C139.199 110.806 139.253 110.78 139.307 110.757L139.404 110.72C139.446 110.708 139.49 110.707 139.533 110.717C139.576 110.727 139.616 110.747 139.649 110.776C139.681 110.806 139.705 110.844 139.718 110.886C139.731 110.929 139.733 110.974 139.723 111.017C139.711 111.063 139.697 111.107 139.678 111.151C139.968 111.255 140.28 111.284 140.584 111.236C140.695 111.004 140.793 110.766 140.877 110.523L140.644 110.46C140.556 110.438 140.48 110.386 140.428 110.312C140.403 110.274 140.386 110.231 140.378 110.187C140.369 110.142 140.37 110.096 140.38 110.052C140.401 109.963 140.455 109.886 140.532 109.837C140.57 109.812 140.613 109.796 140.658 109.788C140.702 109.78 140.748 109.782 140.792 109.792L141.07 109.859C141.162 109.486 141.202 109.103 141.189 108.719H141.167C141.028 108.785 140.895 108.863 140.77 108.953C140.693 108.993 140.605 109.003 140.521 108.981C140.438 108.959 140.365 108.906 140.319 108.834C140.272 108.761 140.254 108.673 140.269 108.588C140.284 108.503 140.33 108.427 140.399 108.374L140.38 108.4Z" fill="white"/>
<path d="M130.835 110.764C130.764 111.243 132.063 111.558 133.125 111.736C133.04 112.605 132.461 113.485 131.64 114.305C130.634 113.741 129.198 112.991 128.934 113.173C128.67 113.355 130.114 114.324 131.035 114.884C130.377 115.457 129.682 115.984 128.953 116.462C128.503 116.039 127.972 115.671 127.661 115.872C127.349 116.072 127.419 116.729 127.583 117.312C126.469 117.951 125.667 118.337 125.667 118.337C125.345 117.321 125.096 116.282 124.925 115.23C124.98 115.122 125.036 115.011 125.084 114.896C125.263 114.487 125.084 114.313 124.798 114.257C124.717 113.517 124.711 112.771 124.78 112.03C126.02 111.77 127.527 111.287 126.963 110.545C126.621 110.096 125.998 110.047 125.352 110.174C125.439 110.025 125.541 109.886 125.656 109.758C127.913 107.271 129.483 109.758 129.483 109.758C130.794 108.663 132.635 108.96 133.032 110.667C132.327 110.452 130.92 110.17 130.835 110.764Z" fill="#D75337"/>
<path opacity="0.5" d="M130.835 110.764C130.764 111.243 132.063 111.558 133.125 111.736C133.04 112.605 132.461 113.485 131.64 114.305C130.634 113.741 129.198 112.991 128.934 113.173C128.67 113.355 130.114 114.324 131.035 114.884C130.377 115.457 129.682 115.984 128.953 116.462C128.503 116.039 127.972 115.671 127.661 115.872C127.349 116.072 127.419 116.729 127.583 117.312C126.469 117.951 125.667 118.337 125.667 118.337C125.345 117.321 125.096 116.282 124.925 115.23C124.98 115.122 125.036 115.011 125.084 114.896C125.263 114.487 125.084 114.313 124.798 114.257C124.717 113.517 124.711 112.771 124.78 112.03C126.02 111.77 127.527 111.287 126.963 110.545C126.621 110.096 125.998 110.047 125.352 110.174C125.439 110.025 125.541 109.886 125.656 109.758C127.913 107.271 129.483 109.758 129.483 109.758C130.794 108.663 132.635 108.96 133.032 110.667C132.327 110.452 130.92 110.17 130.835 110.764Z" fill="white"/>
<path d="M15.5632 125.966C15.5632 125.966 13.8333 122.191 15.8082 118.467C17.7831 114.744 18.3586 113.868 17.1001 113.107C15.8416 112.346 15.2439 116.076 15.2439 116.076C14.6195 114.386 14.5557 112.539 15.062 110.809C15.9381 108.117 16.4876 103.729 15.2885 103.258C14.0894 102.786 15.062 108.73 14.0226 110.757C13.4911 109.335 13.1492 107.85 13.0054 106.339C12.8606 104.175 13.0834 100.722 12.1405 99.8351C11.1975 98.9479 10.585 99.5604 11.5168 104.334C12.0747 107.188 12.384 110.085 12.4411 112.991C12.4411 112.991 10.3994 106.736 9.02212 106.543C7.64486 106.35 7.64486 108.399 8.82537 110.144C10.0059 111.889 12.2815 115.056 12.6527 116.678C12.6527 116.678 10.3994 111.963 8.37247 113.411C6.34555 114.859 10.1358 117.699 11.8286 118.727C13.5214 119.755 14.6908 126.218 14.6908 126.218L15.5632 125.966Z" fill="#D75337"/>
<path opacity="0.2" d="M15.5632 125.966C15.5632 125.966 13.8333 122.191 15.8082 118.467C17.7831 114.744 18.3586 113.868 17.1001 113.107C15.8416 112.346 15.2439 116.076 15.2439 116.076C14.6195 114.386 14.5557 112.539 15.062 110.809C15.9381 108.117 16.4876 103.729 15.2885 103.258C14.0894 102.786 15.062 108.73 14.0226 110.757C13.4911 109.335 13.1492 107.85 13.0054 106.339C12.8606 104.175 13.0834 100.722 12.1405 99.8351C11.1975 98.9479 10.585 99.5604 11.5168 104.334C12.0747 107.188 12.384 110.085 12.4411 112.991C12.4411 112.991 10.3994 106.736 9.02212 106.543C7.64486 106.35 7.64486 108.399 8.82537 110.144C10.0059 111.889 12.2815 115.056 12.6527 116.678C12.6527 116.678 10.3994 111.963 8.37247 113.411C6.34555 114.859 10.1358 117.699 11.8286 118.727C13.5214 119.755 14.6908 126.218 14.6908 126.218L15.5632 125.966Z" fill="black"/>
<path d="M14.1977 127.514C14.1977 127.514 15.8831 123.713 13.8599 120.019C11.8367 116.325 11.2613 115.46 12.5049 114.677C13.7485 113.894 14.361 117.628 14.361 117.628C14.9655 115.931 15.0084 114.084 14.4836 112.361C13.574 109.68 12.9726 105.307 14.1643 104.814C15.3559 104.32 14.4576 110.282 15.523 112.29C16.0355 110.861 16.3587 109.371 16.4845 107.858C16.6033 105.693 16.3397 102.245 17.2752 101.343C18.2107 100.44 18.8232 101.046 17.9508 105.834C17.4262 108.694 17.1517 111.595 17.1304 114.503C17.1304 114.503 19.1091 108.21 20.4715 108.006C21.8339 107.802 21.871 109.829 20.7091 111.607C19.5471 113.385 17.3494 116.567 17.0079 118.196C17.0079 118.196 19.2056 113.448 21.2511 114.855C23.2966 116.262 19.5397 119.173 17.8617 120.227C16.1838 121.281 15.0849 127.744 15.0849 127.744L14.1977 127.514Z" fill="#D75337"/>
<path d="M19.8615 125.732H9.80859L10.6253 132.927H19.0485L19.8615 125.732Z" fill="#263238"/>
<path d="M97.1152 39.3496C97.1152 39.3496 97.75 42.828 102.35 44.3983C102.35 44.3983 99.7324 41.874 99.7324 39.3496H97.1152Z" fill="#D75337"/>
<path opacity="0.8" d="M97.1152 39.3496C97.1152 39.3496 97.75 42.828 102.35 44.3983C102.35 44.3983 99.7324 41.874 99.7324 39.3496H97.1152Z" fill="white"/>
<path d="M103.678 31.502H93.3912C92.8192 31.502 92.3555 31.9657 92.3555 32.5377V39.4017C92.3555 39.9737 92.8192 40.4375 93.3912 40.4375H103.678C104.25 40.4375 104.714 39.9737 104.714 39.4017V32.5377C104.714 31.9657 104.25 31.502 103.678 31.502Z" fill="#D75337"/>
<path opacity="0.8" d="M103.678 31.502H93.3912C92.8192 31.502 92.3555 31.9657 92.3555 32.5377V39.4017C92.3555 39.9737 92.8192 40.4375 93.3912 40.4375H103.678C104.25 40.4375 104.714 39.9737 104.714 39.4017V32.5377C104.714 31.9657 104.25 31.502 103.678 31.502Z" fill="white"/>
<path d="M96.0415 35.968C96.0415 36.1039 96.0012 36.2366 95.9258 36.3496C95.8503 36.4625 95.7431 36.5505 95.6176 36.6025C95.4921 36.6545 95.354 36.6681 95.2208 36.6416C95.0875 36.6151 94.9652 36.5497 94.8691 36.4537C94.7731 36.3576 94.7077 36.2352 94.6812 36.102C94.6547 35.9688 94.6683 35.8307 94.7202 35.7052C94.7722 35.5797 94.8603 35.4725 94.9732 35.397C95.0861 35.3215 95.2189 35.2813 95.3547 35.2812C95.4449 35.2812 95.5342 35.299 95.6176 35.3335C95.7009 35.368 95.7766 35.4186 95.8404 35.4824C95.9041 35.5462 95.9547 35.6219 95.9892 35.7052C96.0238 35.7885 96.0415 35.8778 96.0415 35.968Z" fill="#D75337"/>
<path d="M98.5325 36.6548C98.9118 36.6548 99.2192 36.3473 99.2192 35.968C99.2192 35.5887 98.9118 35.2812 98.5325 35.2812C98.1532 35.2812 97.8457 35.5887 97.8457 35.968C97.8457 36.3473 98.1532 36.6548 98.5325 36.6548Z" fill="#D75337"/>
<path d="M101.71 36.6548C102.09 36.6548 102.397 36.3473 102.397 35.968C102.397 35.5887 102.09 35.2812 101.71 35.2812C101.331 35.2812 101.023 35.5887 101.023 35.968C101.023 36.3473 101.331 36.6548 101.71 36.6548Z" fill="#D75337"/>
<path d="M82.9689 48.7168C82.9689 48.7168 82.3378 52.1989 77.7383 53.7692C77.7383 53.7692 80.3369 51.2412 80.3369 48.7168H82.9689Z" fill="#D75337"/>
<path opacity="0.8" d="M82.9689 48.7168C82.9689 48.7168 82.3378 52.1989 77.7383 53.7692C77.7383 53.7692 80.3369 51.2412 80.3369 48.7168H82.9689Z" fill="white"/>
<path d="M76.4119 49.8154H86.6986C87.2707 49.8154 87.7344 49.3517 87.7344 48.7797V41.9157C87.7344 41.3436 87.2707 40.8799 86.6986 40.8799H76.4119C75.8398 40.8799 75.3761 41.3436 75.3761 41.9157V48.7797C75.3761 49.3517 75.8398 49.8154 76.4119 49.8154Z" fill="#D75337"/>
<path opacity="0.8" d="M76.4119 49.8154H86.6986C87.2707 49.8154 87.7344 49.3517 87.7344 48.7797V41.9157C87.7344 41.3436 87.2707 40.8799 86.6986 40.8799H76.4119C75.8398 40.8799 75.3761 41.3436 75.3761 41.9157V48.7797C75.3761 49.3517 75.8398 49.8154 76.4119 49.8154Z" fill="white"/>
<path d="M84.0469 45.3452C84.0461 45.4812 84.0858 45.6143 84.1608 45.7277C84.2358 45.8412 84.3428 45.9298 84.4683 45.9823C84.5937 46.0349 84.7319 46.049 84.8654 46.0229C84.9988 45.9968 85.1215 45.9317 85.218 45.8358C85.3144 45.7399 85.3802 45.6176 85.407 45.4842C85.4338 45.3509 85.4204 45.2126 85.3685 45.0869C85.3166 44.9612 85.2286 44.8537 85.1156 44.7781C85.0026 44.7025 84.8697 44.6621 84.7337 44.6621C84.5522 44.6621 84.378 44.734 84.2493 44.8619C84.1207 44.9899 84.0479 45.1637 84.0469 45.3452Z" fill="#D75337"/>
<path d="M80.8574 45.3452C80.8567 45.4813 80.8964 45.6146 80.9716 45.7281C81.0468 45.8416 81.154 45.9302 81.2797 45.9827C81.4053 46.0351 81.5437 46.049 81.6773 46.0226C81.8108 45.9963 81.9335 45.9308 82.0298 45.8345C82.1261 45.7382 82.1916 45.6155 82.218 45.482C82.2443 45.3484 82.2304 45.21 82.178 45.0844C82.1255 44.9587 82.0369 44.8515 81.9234 44.7763C81.8099 44.7011 81.6766 44.6614 81.5405 44.6621C81.3593 44.6621 81.1856 44.7341 81.0575 44.8622C80.9294 44.9903 80.8574 45.164 80.8574 45.3452Z" fill="#D75337"/>
<path d="M77.6875 45.3452C77.6868 45.4812 77.7264 45.6143 77.8014 45.7277C77.8765 45.8412 77.9835 45.9298 78.1089 45.9823C78.2343 46.0349 78.3725 46.049 78.506 46.0229C78.6394 45.9968 78.7622 45.9317 78.8586 45.8358C78.955 45.7399 79.0208 45.6176 79.0476 45.4842C79.0744 45.3509 79.061 45.2126 79.0091 45.0869C78.9573 44.9612 78.8692 44.8537 78.7562 44.7781C78.6432 44.7025 78.5103 44.6621 78.3743 44.6621C78.1928 44.6621 78.0187 44.734 77.89 44.8619C77.7613 44.9899 77.6885 45.1637 77.6875 45.3452Z" fill="#D75337"/>
<path d="M56.8185 37.2559C56.8185 37.2559 56.1874 40.7343 51.5879 42.3046C51.5879 42.3046 54.1865 39.7802 54.1865 37.2559H56.8185Z" fill="#D75337"/>
<path opacity="0.8" d="M56.8185 37.2559C56.8185 37.2559 56.1874 40.7343 51.5879 42.3046C51.5879 42.3046 54.1865 39.7802 54.1865 37.2559H56.8185Z" fill="white"/>
<path d="M59.1768 29.416H51.9713C51.3993 29.416 50.9355 29.8797 50.9355 30.4517V37.3158C50.9355 37.8878 51.3993 38.3515 51.9713 38.3515H59.1768C59.7489 38.3515 60.2126 37.8878 60.2126 37.3158V30.4517C60.2126 29.8797 59.7489 29.416 59.1768 29.416Z" fill="#D75337"/>
<path opacity="0.8" d="M59.1768 29.416H51.9713C51.3993 29.416 50.9355 29.8797 50.9355 30.4517V37.3158C50.9355 37.8878 51.3993 38.3515 51.9713 38.3515H59.1768C59.7489 38.3515 60.2126 37.8878 60.2126 37.3158V30.4517C60.2126 29.8797 59.7489 29.416 59.1768 29.416Z" fill="white"/>
<path d="M56.0194 38.7561V38.6191C56.0221 38.1489 56.0637 37.7742 56.1443 37.4948C56.2276 37.2153 56.3485 36.9897 56.507 36.8177C56.6655 36.6458 56.8563 36.49 57.0793 36.3503C57.2458 36.2428 57.3949 36.1313 57.5266 36.0158C57.6582 35.9003 57.763 35.7726 57.8409 35.6329C57.9188 35.4905 57.9578 35.332 57.9578 35.1574C57.9578 34.972 57.9135 34.8095 57.8248 34.6698C57.7361 34.5301 57.6166 34.4226 57.4661 34.3474C57.3184 34.2722 57.1545 34.2346 56.9745 34.2346C56.7999 34.2346 56.6346 34.2735 56.4788 34.3514C56.323 34.4267 56.1954 34.5395 56.096 34.6899C55.9966 34.8377 55.9428 35.0217 55.9348 35.242H54.2906C54.304 34.7047 54.433 34.2614 54.6774 33.9122C54.9219 33.5602 55.2457 33.2983 55.6487 33.1263C56.0516 32.9517 56.4963 32.8644 56.9825 32.8644C57.5172 32.8644 57.99 32.9531 58.4011 33.1304C58.8121 33.305 59.1345 33.5589 59.3683 33.892C59.602 34.2252 59.7189 34.6268 59.7189 35.097C59.7189 35.4113 59.6665 35.6907 59.5617 35.9352C59.4596 36.177 59.3159 36.3919 59.1305 36.58C58.9451 36.7653 58.7262 36.9333 58.4736 37.0837C58.2614 37.21 58.0867 37.3416 57.9497 37.4786C57.8154 37.6156 57.7146 37.7742 57.6475 37.9542C57.583 38.1342 57.5494 38.3558 57.5467 38.6191V38.7561H56.0194ZM56.8173 41.3352C56.5487 41.3352 56.319 41.2412 56.1282 41.0532C55.9401 40.8624 55.8475 40.634 55.8501 40.3681C55.8475 40.1048 55.9401 39.8791 56.1282 39.691C56.319 39.503 56.5487 39.409 56.8173 39.409C57.0725 39.409 57.2969 39.503 57.4903 39.691C57.6838 39.8791 57.7818 40.1048 57.7845 40.3681C57.7818 40.5454 57.7348 40.7079 57.6435 40.8557C57.5548 41.0008 57.4379 41.1176 57.2929 41.2063C57.1478 41.2923 56.9893 41.3352 56.8173 41.3352Z" fill="#D75337"/>
<path d="M106.672 54.3148C106.155 54.1177 105.581 54.1337 105.075 54.3592C104.57 54.5846 104.175 55.0012 103.977 55.5176V55.5398C103.605 56.4902 103.234 57.4888 102.863 58.4577C102.492 59.4266 102.091 60.3992 101.69 61.3533C101.289 62.3074 100.862 63.2429 100.42 64.1375C100.201 64.583 99.9635 65.0173 99.7333 65.4257C99.6257 65.6076 99.5143 65.7969 99.4067 65.9454C99.3139 65.8192 99.221 65.6818 99.1282 65.5408C98.8127 65.0545 98.5083 64.5199 98.2076 63.9705C97.9069 63.4211 97.6099 62.8568 97.3204 62.3074L97.2981 62.2665C97.1821 62.0538 96.996 61.888 96.7715 61.7971C96.5469 61.7063 96.2978 61.6961 96.0666 61.7684C95.8354 61.8406 95.6365 61.9908 95.5036 62.1933C95.3707 62.3959 95.3122 62.6382 95.338 62.8791C95.4216 63.5663 95.5455 64.2481 95.7092 64.9208C95.8723 65.6062 96.0782 66.2807 96.3255 66.9403C96.4637 67.2951 96.6211 67.642 96.7969 67.9798C97.0023 68.3827 97.2594 68.7571 97.5616 69.0934C97.776 69.3368 98.0264 69.5459 98.3041 69.7134C98.7346 69.9845 99.236 70.1215 99.7445 70.1069C100.037 70.096 100.326 70.0358 100.598 69.9287C100.825 69.8308 101.04 69.7062 101.237 69.5575C101.45 69.3949 101.644 69.2094 101.816 69.0044C102.253 68.5317 102.654 68.0266 103.015 67.4934L103.097 67.3709C103.405 66.9143 103.676 66.4614 103.936 66.0048C104.507 65.0136 105.005 64.0187 105.473 63.035C105.643 62.6637 105.81 62.2925 105.97 61.9213C106.256 61.2828 106.523 60.6405 106.783 59.9946C107.184 58.97 107.577 57.9714 107.93 56.906C108.094 56.3951 108.054 55.8408 107.82 55.3583C107.585 54.8758 107.174 54.5021 106.672 54.3148Z" fill="#263238"/>
<path opacity="0.2" d="M105.944 61.9372C105.785 62.3084 105.618 62.6796 105.447 63.0508C104.979 64.0532 104.482 65.0481 103.91 66.0207C103.65 66.4773 103.379 66.9302 103.071 67.3868C102.525 64.3539 104.426 60.7344 104.426 60.7344C104.946 60.8309 105.466 61.2764 105.944 61.9372Z" fill="black"/>
<path d="M120.405 65.9009C120.405 66.4429 120.361 67.0145 120.331 67.5751C120.238 69.2753 120.079 71.1352 119.837 73.1436C119.761 73.8118 119.673 74.4985 119.574 75.2039L103.796 75.4749C103.028 73.3737 102.337 68.841 104.498 64.8985C104.498 62.3779 103.878 59.5862 103.8 56.8874C103.752 55.1983 105.218 53.6466 107.219 53.2939C110.285 52.7869 113.401 52.651 116.5 52.8893C118.2 53.0043 119.54 54.0252 119.804 55.4396C120.062 56.9012 120.238 58.376 120.331 59.8572C120.435 61.5463 120.483 63.5584 120.405 65.9009Z" fill="#263238"/>
<path d="M108.837 52.7638C108.467 52.9347 108.174 53.238 108.017 53.6139C107.86 53.9898 107.849 54.411 107.987 54.7945C108.136 55.3501 108.423 55.8589 108.823 56.2731C109.222 56.6874 109.72 56.9935 110.27 57.1629C110.905 57.2965 114.669 55.3068 115.14 53.5434C115.612 51.7801 108.837 52.7638 108.837 52.7638Z" fill="#D75337"/>
<path opacity="0.5" d="M108.837 52.7638C108.467 52.9347 108.174 53.238 108.017 53.6139C107.86 53.9898 107.849 54.411 107.987 54.7945C108.136 55.3501 108.423 55.8589 108.823 56.2731C109.222 56.6874 109.72 56.9935 110.27 57.1629C110.905 57.2965 114.669 55.3068 115.14 53.5434C115.612 51.7801 108.837 52.7638 108.837 52.7638Z" fill="white"/>
<path opacity="0.2" d="M120.332 67.5645C120.24 69.2647 120.08 71.1245 119.839 73.1329C117.982 73.0958 115.221 72.8693 114.556 71.8744C113.539 70.3487 114.348 69.4429 114.348 69.4429C114.348 69.4429 118.695 68.4851 120.332 67.5645Z" fill="black"/>
<path opacity="0.2" d="M120.406 65.9014C118.409 63.8894 117.896 57.7344 117.896 57.7344C117.896 57.7344 119.051 58.6327 120.324 59.8615C120.436 61.5469 120.484 63.559 120.406 65.9014Z" fill="black"/>
<path d="M96.1866 64.1452L93.2168 63.2914L95.3662 60.7373C95.3662 60.7373 97.872 61.4798 97.4711 63.0352L96.1866 64.1452Z" fill="#FF8B7B"/>
<path d="M92.2599 61.4129L93.0024 60.2361C93.0637 60.1358 93.1445 60.0489 93.2402 59.9806C93.3358 59.9124 93.4443 59.8641 93.5591 59.8388C93.6738 59.8135 93.7925 59.8117 93.908 59.8334C94.0235 59.8551 94.1334 59.8999 94.2312 59.9651L95.3857 60.7372L93.2363 63.2913L92.4159 62.4969C92.2694 62.3615 92.174 62.1799 92.1456 61.9825C92.1172 61.7852 92.1576 61.584 92.2599 61.4129Z" fill="#FF8B7B"/>
<path d="M103.705 131.234L106.704 131.283C106.758 131.282 106.811 131.301 106.852 131.337C106.893 131.373 106.92 131.422 106.927 131.476L107.298 133.929C107.307 133.99 107.302 134.052 107.284 134.111C107.267 134.169 107.237 134.223 107.196 134.269C107.155 134.315 107.105 134.352 107.049 134.376C106.993 134.401 106.932 134.413 106.871 134.412C105.787 134.375 104.228 134.29 102.866 134.267C101.273 134.241 101.433 134.308 99.5653 134.267C98.4516 134.267 98.1992 133.102 98.6781 133.005C100.857 132.571 101.08 132.545 103.01 131.427C103.22 131.302 103.46 131.235 103.705 131.234Z" fill="#263238"/>
<path d="M108.217 102.46C111.558 88.4128 114.758 82.3172 113.492 75.3604L103.792 75.4754C103.792 75.4754 99.9684 94.5826 100.781 102.82C101.628 111.388 102.864 131.327 102.864 131.327L107.293 131.39C107.293 131.39 109.873 112.042 108.217 102.46Z" fill="#D75337"/>
<path opacity="0.3" d="M108.217 102.46C111.558 88.4128 114.758 82.3172 113.492 75.3604L103.792 75.4754C103.792 75.4754 99.9684 94.5826 100.781 102.82C101.628 111.388 102.864 131.327 102.864 131.327L107.293 131.39C107.293 131.39 109.873 112.042 108.217 102.46Z" fill="black"/>
<path opacity="0.2" d="M108.701 100.47C110.494 93.309 112.176 88.3308 113.078 84.1582C106.778 86.4227 107.317 94.2705 108.701 100.47Z" fill="black"/>
<path d="M118.826 131.234L121.825 131.282C121.878 131.283 121.929 131.303 121.968 131.338C122.007 131.374 122.031 131.423 122.037 131.475L122.3 133.929C122.305 133.991 122.297 134.054 122.276 134.112C122.255 134.171 122.223 134.225 122.18 134.27C122.137 134.315 122.086 134.351 122.029 134.376C121.971 134.4 121.91 134.412 121.848 134.412C120.767 134.375 120.429 134.289 119.067 134.267C117.478 134.241 118.209 134.308 116.346 134.267C115.232 134.267 115.039 133.109 115.522 133.005C117.048 132.686 117.448 132.077 118.139 131.427C118.336 131.279 118.581 131.211 118.826 131.234Z" fill="#263238"/>
<path d="M118.475 102.459C119.983 88.4121 121.757 82.1606 119.589 75.1963L109.477 75.4673C109.477 75.4673 109.202 94.5745 111.099 102.812C113.074 111.38 117.681 131.319 117.681 131.319L122.136 131.382C122.136 131.382 121.39 112.041 118.475 102.459Z" fill="#D75337"/>
<path opacity="0.3" d="M118.475 102.459C119.983 88.4121 121.757 82.1606 119.589 75.1963L109.477 75.4673C109.477 75.4673 109.202 94.5745 111.099 102.812C113.074 111.38 117.681 131.319 117.681 131.319L122.136 131.382C122.136 131.382 121.39 112.041 118.475 102.459Z" fill="black"/>
<path d="M113.175 49.0254C113.175 50.6402 113.271 52.5298 114.593 53.6658C113.85 54.6569 112.428 56.1753 110.368 55.9117C108.1 55.6221 108.538 53.5618 109.039 52.9159C110.153 52.2737 109.845 51.3085 109.719 50.6365L113.175 49.0254Z" fill="#FF8B7B"/>
<path opacity="0.2" d="M112.414 49.6853C112.414 49.585 112.414 49.4811 112.414 49.3809L109.723 50.6356C109.855 51.0877 109.88 51.5642 109.797 52.0277C111.089 51.6342 112.384 50.6616 112.414 49.6853Z" fill="black"/>
<path d="M114.524 44.5483C114.179 47.2546 114.116 48.8546 112.649 50.1502C110.448 52.0954 107.17 50.5994 106.71 47.8374C106.286 45.3539 106.921 41.3446 109.653 40.4611C110.258 40.267 110.902 40.2293 111.525 40.3515C112.148 40.4738 112.73 40.7521 113.217 41.1603C113.703 41.5685 114.078 42.0934 114.307 42.6859C114.536 43.2784 114.61 43.9192 114.524 44.5483Z" fill="#FF8B7B"/>
<path d="M110.185 45.105C110.185 45.3277 110.04 45.4985 109.895 45.4762C109.751 45.454 109.647 45.2758 109.662 45.0567C109.676 44.8377 109.803 44.6632 109.947 44.6855C110.092 44.7078 110.204 44.886 110.185 45.105Z" fill="#263238"/>
<path d="M107.419 44.9859C107.419 45.2086 107.278 45.3794 107.133 45.3571C106.989 45.3348 106.881 45.1566 106.896 44.9376C106.911 44.7186 107.041 44.5441 107.185 44.5664C107.33 44.5886 107.434 44.7631 107.419 44.9859Z" fill="#263238"/>
<path d="M108.225 45.2676C107.877 45.9035 107.442 46.4882 106.934 47.0049C107.069 47.1326 107.231 47.2293 107.408 47.2883C107.585 47.3472 107.773 47.3671 107.958 47.3465L108.225 45.2676Z" fill="#FF5652"/>
<path d="M110.691 43.6351C110.713 43.631 110.734 43.6235 110.754 43.6128C110.783 43.5932 110.803 43.5633 110.809 43.5294C110.816 43.4955 110.81 43.4602 110.791 43.4309C110.682 43.2546 110.532 43.107 110.353 43.0005C110.175 42.8939 109.974 42.8315 109.767 42.8184C109.75 42.8179 109.732 42.8209 109.716 42.8273C109.7 42.8336 109.686 42.8432 109.674 42.8553C109.662 42.8675 109.652 42.882 109.646 42.898C109.639 42.914 109.636 42.9311 109.637 42.9483C109.637 42.9654 109.64 42.9823 109.647 42.9981C109.653 43.0138 109.663 43.0282 109.675 43.0402C109.687 43.0523 109.701 43.0619 109.717 43.0684C109.733 43.0749 109.75 43.0783 109.767 43.0783C109.931 43.0912 110.09 43.1431 110.23 43.2296C110.37 43.3161 110.487 43.4347 110.572 43.5757C110.586 43.5946 110.604 43.6099 110.624 43.6203C110.645 43.6306 110.668 43.6357 110.691 43.6351Z" fill="#263238"/>
<path d="M106.582 43.8572C106.603 43.8615 106.624 43.8603 106.645 43.8538C106.665 43.8473 106.683 43.8356 106.697 43.82C106.807 43.6994 106.945 43.6069 107.098 43.55C107.251 43.4932 107.415 43.4738 107.577 43.4934C107.594 43.4966 107.611 43.4964 107.628 43.493C107.645 43.4895 107.661 43.4827 107.675 43.473C107.689 43.4634 107.701 43.451 107.71 43.4367C107.72 43.4223 107.726 43.4063 107.729 43.3894C107.733 43.3726 107.732 43.3553 107.729 43.3385C107.725 43.3218 107.719 43.3058 107.709 43.2917C107.699 43.2775 107.687 43.2654 107.673 43.2561C107.658 43.2467 107.642 43.2403 107.625 43.2372C107.421 43.2095 107.213 43.2315 107.019 43.3013C106.826 43.3711 106.651 43.4866 106.512 43.6381C106.499 43.6502 106.49 43.6647 106.483 43.6806C106.476 43.6965 106.473 43.7137 106.473 43.7309C106.473 43.7482 106.476 43.7653 106.483 43.7813C106.49 43.7972 106.499 43.8117 106.512 43.8237C106.531 43.8428 106.556 43.8546 106.582 43.8572Z" fill="#263238"/>
<path d="M108.16 47.8887C108.425 48.2314 108.666 48.5924 108.88 48.969L109.096 48.8873C110.065 48.5161 110.391 48.0261 110.462 47.5918C110.5 47.2575 110.422 46.9203 110.239 46.6377C109.842 47.1389 108.966 47.5546 108.487 47.7514C108.29 47.8516 108.16 47.8887 108.16 47.8887Z" fill="#263238"/>
<path d="M108.486 47.7655L108.709 48.0773C109.619 47.7246 110.216 47.3534 110.394 46.9636C110.357 46.8496 110.304 46.7411 110.239 46.6406C109.841 47.1455 108.965 47.5613 108.486 47.7655Z" fill="white"/>
<path d="M109.094 48.8952C110.063 48.524 110.389 48.0339 110.46 47.5996C110.094 47.7483 109.757 47.9607 109.465 48.227C109.274 48.4048 109.144 48.6388 109.094 48.8952Z" fill="#DE5753"/>
<path d="M108.048 41.5556C108.048 41.5556 107.242 41.0879 107.732 39.9074C108.222 38.7269 112.889 39.5881 114.93 41.3923C116.972 43.1965 114.27 46.6452 114.27 46.6452L113.019 47.3505C113.019 47.3505 111.816 44.5663 112.647 42.5246C112.14 42.1496 111.612 41.8038 111.066 41.4888C110.721 41.3366 109.128 42.3464 108.048 41.5556Z" fill="#263238"/>
<path d="M115.268 47.3841C114.898 47.9607 114.315 48.3676 113.646 48.5164C112.758 48.702 112.365 47.8927 112.654 47.0834C112.914 46.341 113.694 45.3795 114.566 45.554C114.756 45.5956 114.933 45.6837 115.08 45.8104C115.227 45.9371 115.341 46.0985 115.41 46.2799C115.48 46.4614 115.503 46.6573 115.479 46.85C115.454 47.0427 115.381 47.2263 115.268 47.3841Z" fill="#FF8B7B"/>
<path d="M125.264 67.0638C125.264 66.9487 125.264 66.7928 125.242 66.7408L125.194 66.3028C125.153 66.0169 125.112 65.7273 125.056 65.4526C124.597 63.3407 123.86 61.2986 122.866 59.3793C122.395 58.4438 121.897 57.5232 121.355 56.6471C121.088 56.2016 120.813 55.7635 120.527 55.3292C120.241 54.8949 119.959 54.4791 119.625 54.0188C119.298 53.5867 118.816 53.2988 118.281 53.216C117.745 53.1331 117.199 53.2618 116.756 53.5748C116.314 53.8878 116.011 54.3605 115.911 54.893C115.811 55.4255 115.922 55.976 116.221 56.428L116.24 56.4614C116.481 56.8104 116.752 57.2299 117.004 57.6197C117.257 58.0095 117.517 58.4215 117.747 58.8262C118.237 59.6429 118.719 60.4559 119.161 61.2874C120.054 62.8705 120.765 64.5492 121.281 66.2916C121.344 66.4995 121.381 66.7 121.429 66.9041L121.485 67.2048C121.485 67.2754 121.485 67.2457 121.485 67.2531C121.485 67.2531 121.515 67.2048 121.526 67.2197C121.537 67.2345 121.526 67.2902 121.455 67.3682C121.249 67.5964 121.004 67.7862 120.732 67.9287C120.376 68.1385 120.003 68.3186 119.618 68.467C118.756 68.7968 117.875 69.0721 116.978 69.2911C116.518 69.4025 116.054 69.5213 115.583 69.6253C115.111 69.7292 114.628 69.8183 114.179 69.9111H114.12C113.87 69.9575 113.646 70.0942 113.49 70.295C113.335 70.4959 113.258 70.7469 113.276 71.0004C113.293 71.2539 113.403 71.4921 113.585 71.6698C113.767 71.8475 114.007 71.9522 114.261 71.964C116.374 72.1279 118.5 71.9828 120.572 71.5334C121.137 71.4008 121.69 71.2246 122.228 71.0062C122.867 70.7458 123.458 70.3793 123.976 69.9222C124.307 69.6271 124.586 69.2782 124.8 68.8902C125.048 68.4408 125.195 67.943 125.231 67.4313C125.261 67.3162 125.272 67.1937 125.264 67.0638Z" fill="#263238"/>
<path d="M113.679 52.1064C113.745 52.7338 112.995 54.9575 110.367 55.9116C111.381 55.9116 111.822 57.2034 111.822 57.2034C111.822 57.2034 115.308 55.3473 114.892 53.1199C114.84 52.8358 114.691 52.5788 114.469 52.3937C114.247 52.2085 113.967 52.1069 113.679 52.1064Z" fill="#D75337"/>
<path d="M109.553 52.2773C109.619 52.8899 108.907 54.1818 110.369 55.9117C109.352 55.9117 108.747 56.9289 108.747 56.9289C108.355 56.3172 108.124 55.617 108.073 54.8925C108.022 54.168 108.155 53.4423 108.458 52.7822C108.763 52.5063 109.145 52.3302 109.553 52.2773Z" fill="#D75337"/>
<path d="M103.597 74.8695L103.504 76.9966L119.949 76.5512L119.678 74.4277L103.597 74.8695Z" fill="#D75337"/>
<path opacity="0.3" d="M103.597 74.8695L103.504 76.9966L119.949 76.5512L119.678 74.4277L103.597 74.8695Z" fill="black"/>
<path d="M118.34 75.9621L119.951 75.9324L119.736 74.8633L118.34 74.893V75.9621Z" fill="#263238"/>
<path d="M117.899 74.8994L112.078 75.0256V76.0799L117.899 75.9686V74.8994Z" fill="#263238"/>
<path d="M104.774 75.1777L103.504 75.2074V76.2357L104.774 76.2135V75.1777Z" fill="#263238"/>
<path d="M105.148 75.1707V76.2065L111.508 76.0877V75.0371L105.148 75.1707Z" fill="#263238"/>
<path d="M108.605 76.407H107.239C107.154 76.407 107.072 76.3735 107.012 76.3137C106.951 76.2539 106.917 76.1727 106.916 76.0877V75.2785C106.916 75.1941 106.949 75.113 107.008 75.0527C107.067 74.9923 107.147 74.9574 107.232 74.9555L108.598 74.9258C108.684 74.9285 108.767 74.9614 108.832 75.0186C108.862 75.0486 108.886 75.0845 108.903 75.124C108.92 75.1635 108.928 75.2059 108.928 75.2488V76.1026C108.923 76.185 108.887 76.2624 108.827 76.319C108.767 76.3757 108.688 76.4071 108.605 76.407ZM107.258 75.2933V76.1026L108.605 76.0803L108.587 75.2636L107.258 75.2933Z" fill="white"/>
<path d="M108.461 75.8386H108.063C108.018 75.8377 107.975 75.8194 107.944 75.7876C107.912 75.7558 107.894 75.7129 107.893 75.6679C107.893 75.6226 107.911 75.5792 107.943 75.5471C107.975 75.5151 108.018 75.4971 108.063 75.4971H108.461C108.483 75.4966 108.506 75.5007 108.527 75.5091C108.547 75.5175 108.566 75.53 108.582 75.546C108.598 75.562 108.611 75.581 108.619 75.6019C108.628 75.6229 108.632 75.6453 108.631 75.6679C108.631 75.7132 108.613 75.7566 108.581 75.7886C108.549 75.8207 108.506 75.8386 108.461 75.8386Z" fill="white"/>
<path d="M109.645 71.8885H112.418L112.923 66.9512H109.137L109.645 71.8885Z" fill="#D75337"/>
<path d="M108.932 67.1562H113.127V66.6588H108.932V67.1562Z" fill="white"/>
<path d="M109.777 69.2754C109.809 69.4691 109.895 69.6496 110.026 69.7956C110.158 69.9417 110.328 70.0471 110.517 70.0994C110.706 70.1518 110.906 70.1489 111.094 70.0911C111.282 70.0334 111.449 69.9231 111.576 69.7734C111.703 69.6237 111.784 69.4407 111.81 69.2462C111.837 69.0517 111.807 68.8537 111.724 68.6756C111.642 68.4976 111.51 68.3469 111.344 68.2413C111.179 68.1358 110.987 68.0799 110.79 68.0801C110.498 68.1056 110.227 68.2455 110.038 68.4693C109.848 68.6932 109.754 68.9829 109.777 69.2754Z" fill="white"/>
<path d="M115.462 69.7655L112.815 68.9043L112.715 72.2454C112.715 72.2454 115.206 72.7354 115.685 71.4509L115.462 69.7655Z" fill="#FF8B7B"/>
<path d="M110.226 70.196L110.386 71.3728C110.418 71.5993 110.529 71.8073 110.699 71.9596C110.87 72.1119 111.089 72.1986 111.318 72.2043L112.714 72.2415L112.814 68.9004L111.069 69.1046C110.941 69.1192 110.818 69.1592 110.706 69.2224C110.594 69.2855 110.496 69.3705 110.417 69.4722C110.339 69.574 110.281 69.6905 110.249 69.8148C110.216 69.9391 110.208 70.0687 110.226 70.196Z" fill="#FF8B7B"/>
<path opacity="0.7" d="M113.679 52.1064C113.745 52.7338 112.995 54.9575 110.367 55.9116C111.381 55.9116 111.822 57.2034 111.822 57.2034C111.822 57.2034 115.308 55.3473 114.892 53.1199C114.84 52.8358 114.691 52.5788 114.469 52.3937C114.247 52.2085 113.967 52.1069 113.679 52.1064Z" fill="white"/>
<path opacity="0.7" d="M109.553 52.2773C109.619 52.8899 108.907 54.1818 110.369 55.9117C109.352 55.9117 108.747 56.9289 108.747 56.9289C108.355 56.3172 108.124 55.617 108.073 54.8925C108.022 54.168 108.155 53.4423 108.458 52.7822C108.763 52.5063 109.145 52.3302 109.553 52.2773Z" fill="white"/>
<path d="M88.9232 69.8131L91.7482 69.4419L90.5455 66.9844C90.5455 66.9844 87.9468 67.7454 88.0211 68.5881L88.9232 69.8131Z" fill="#FFB573"/>
<path d="M93.1863 67.3517L91.9056 65.8594L90.5469 66.999L91.7497 69.4566L93.1863 67.3517Z" fill="#FFB573"/>
<path d="M74.9771 65.3769C74.9771 65.3769 76.9261 70.1732 80.089 71.9217C83.2518 73.6702 89.2064 69.8131 89.2064 69.8131L88.2857 68.1091C88.2857 68.1091 81.7298 69.7166 81.4588 69.4716C81.1878 69.2265 78.2551 61.3045 74.502 60.2354L74.9771 65.3769Z" fill="#D75337"/>
<path opacity="0.7" d="M89.2089 69.8166C89.2089 69.8166 83.2692 73.6737 80.0878 71.9215C79.0344 71.2938 78.1159 70.4635 77.3852 69.4788C76.4142 68.2239 75.6048 66.852 74.9759 65.3952L74.5156 60.25C78.265 61.308 81.1978 69.2449 81.4725 69.4899C81.7472 69.7349 88.2845 68.1089 88.2845 68.1089L89.2089 69.8166Z" fill="white"/>
<path opacity="0.1" d="M77.3848 69.4788C76.7645 68.6865 76.2143 67.8419 75.7402 66.9544C75.7814 66.2884 75.984 65.6425 76.3305 65.0723C76.3305 65.0723 77.6409 66.6351 77.3848 69.4788Z" fill="black"/>
<path d="M65.3045 47.0678C65.3045 47.0678 67.4576 44.1388 71.3369 46.3253C76.3077 49.1021 73.4158 62.0841 73.4158 62.0841L64.8775 63.4687C64.8775 63.4687 59.6766 48.1852 65.3045 47.0678Z" fill="#263238"/>
<path d="M76.1829 77.1338C76.1829 77.1338 78.065 91.7677 77.8979 101.063C78.5513 109.78 79.1007 128.074 80.0882 130.049C80.0548 130.494 78.4399 130.583 78.0204 130.316C78.0204 130.316 71.5685 115.215 72.452 101.063C66.4641 86.3032 66.8204 77.1338 66.8204 77.1338H76.1829Z" fill="#FFB573"/>
<path d="M73.6318 77.1348C73.6318 77.1348 69.3516 93.6545 67.655 101.766C65.8768 110.282 64.0504 120.572 64.0244 130.261C63.5492 130.544 63.0184 130.959 62.0532 130.662C62.0532 130.662 57.8843 111.262 61.7265 102.141C60.0411 81.9608 65.3794 77.1348 65.3794 77.1348H73.6318Z" fill="#FFB573"/>
<path d="M65.3064 76.7556L76.0387 78.2405C76.1686 75.9648 77.2192 64.7277 77.1858 63.7365C77.1227 61.8804 75.5672 60.2692 73.596 60.0242C73.0503 59.9537 72.4823 59.8869 71.9292 59.8423C70.2396 59.727 68.5441 59.727 66.8545 59.8423C66.3719 59.8646 65.9041 59.9017 65.4624 59.9425C63.8067 60.1022 62.6633 61.6205 63.235 63.1277C63.9552 65.0173 65.0763 75.2409 65.3064 76.7556Z" fill="#D75337"/>
<path opacity="0.7" d="M77.1843 63.7286C77.214 64.7235 76.1671 75.9569 76.0372 78.2363L65.3049 76.7513C65.2789 76.5843 65.2455 76.3207 65.201 75.9792C65.0673 74.9286 64.852 73.1356 64.6033 71.1977C64.4956 70.3959 64.388 69.5643 64.2692 68.7551C64.0613 67.2701 63.846 65.8632 63.6418 64.7866C63.5465 64.2154 63.4088 63.652 63.2297 63.1012C62.6618 61.5866 63.8014 60.0683 65.4571 59.9124C65.8989 59.8715 66.3666 59.8381 66.8492 59.8121C68.5377 59.7006 70.2317 59.7006 71.9202 59.8121C72.4734 59.8604 73.0339 59.9272 73.5908 59.9977C75.5657 60.2613 77.1249 61.8762 77.1843 63.7286Z" fill="white"/>
<path d="M67.2099 54.1143C67.6516 55.7477 68.1936 58.7398 67.1319 59.8275C67.1319 59.8275 66.3709 61.2604 70.6809 61.1268C71.0521 62.0252 71.7946 63.6697 71.7946 63.6697C71.7946 63.6697 71.8465 61.7356 71.5495 61.0711C74.3189 60.8335 72.2178 59.8163 72.2178 59.8163C70.3616 59.382 70.3096 58.0307 70.5324 56.7611L67.2099 54.1143Z" fill="#FFB573"/>
<path opacity="0.2" d="M68.561 55.1982L70.5211 56.7723C70.4622 57.0694 70.4324 57.3715 70.432 57.6743C69.7266 57.5741 68.7169 56.8094 68.5758 56.0818C68.5166 55.7907 68.5116 55.4912 68.561 55.1982Z" fill="black"/>
<path d="M65.6875 51.2744C66.1553 53.7616 66.3038 54.8196 67.7293 56.0112C69.8787 57.8006 72.8263 56.8539 73.1084 54.3222C73.3609 52.0428 72.5516 48.3639 69.9752 47.5435C69.4302 47.3464 68.8423 47.2985 68.2726 47.4048C67.7028 47.5111 67.1718 47.7678 66.7345 48.1483C66.2972 48.5288 65.9696 49.0192 65.7855 49.5688C65.6015 50.1184 65.5676 50.7073 65.6875 51.2744Z" fill="#FFB573"/>
<path d="M67.8364 49.4817C66.4554 51.2525 69.2916 53.2868 66.4554 53.168C63.6192 53.0492 64.7737 49.0845 66.4554 48.1713C68.1371 47.2581 67.8364 49.4817 67.8364 49.4817Z" fill="#263238"/>
<path d="M66.4688 48.2003C66.84 49.8931 67.0961 50.3349 68.6145 49.8745C68.3882 49.5346 68.2884 49.126 68.3323 48.72C68.4839 49.1281 68.7871 49.4619 69.1787 49.6518C69.5864 49.4837 70.0107 49.3593 70.4446 49.2806C70.3617 49.0424 70.3363 48.788 70.3704 48.5381C70.4898 48.8189 70.6885 49.0589 70.9421 49.2286C71.4085 49.2363 71.8709 49.3177 72.3119 49.4699C72.323 47.6806 69.2604 45.7576 66.4688 48.2003Z" fill="#263238"/>
<path d="M69.6487 51.69C69.6784 51.9016 69.8157 52.0612 69.9494 52.0612C70.083 52.0612 70.1721 51.8719 70.1387 51.6603C70.1053 51.4487 69.9753 51.2891 69.838 51.2891C69.7006 51.2891 69.619 51.4784 69.6487 51.69Z" fill="#263238"/>
<path d="M72.203 51.5417C72.2364 51.7496 72.37 51.913 72.5037 51.913C72.6373 51.913 72.7264 51.7274 72.6967 51.5158C72.667 51.3042 72.5297 51.1445 72.396 51.1445C72.2624 51.1445 72.1733 51.3301 72.203 51.5417Z" fill="#263238"/>
<path d="M72.3223 51.1594L72.7974 50.9775C72.7974 50.9775 72.6155 51.3896 72.3223 51.1594Z" fill="#263238"/>
<path d="M71.543 51.9385C71.7983 52.405 72.1128 52.8367 72.4785 53.2229C72.3807 53.3074 72.2653 53.369 72.1407 53.403C72.0161 53.4371 71.8854 53.4428 71.7583 53.4197L71.543 51.9385Z" fill="#ED893E"/>
<path d="M65.443 53.6725C65.5472 53.8917 65.6957 54.087 65.8791 54.2461C66.0624 54.4052 66.2767 54.5246 66.5084 54.5968C67.0913 54.749 67.3437 54.0882 67.1507 53.4237C66.9725 52.8298 66.4602 52.0316 65.8922 52.1764C65.3242 52.3212 65.1497 53.0859 65.443 53.6725Z" fill="#FFB573"/>
<path d="M68.9356 50.5624C68.9678 50.5618 68.9985 50.5484 69.0209 50.5253C69.1204 50.4107 69.2467 50.3225 69.3886 50.2688C69.5305 50.215 69.6835 50.1973 69.8339 50.2172C69.8496 50.2198 69.8656 50.2193 69.881 50.2157C69.8964 50.212 69.9109 50.2053 69.9237 50.196C69.9365 50.1867 69.9473 50.1749 69.9555 50.1613C69.9637 50.1477 69.969 50.1326 69.9713 50.117C69.9738 50.0839 69.9644 50.051 69.9446 50.0244C69.9248 49.9978 69.896 49.9792 69.8636 49.9722C69.6749 49.9433 69.4819 49.9621 69.3022 50.0269C69.1226 50.0918 68.9621 50.2006 68.8353 50.3434C68.8238 50.3548 68.8146 50.3684 68.8083 50.3834C68.8021 50.3983 68.7988 50.4144 68.7988 50.4306C68.7988 50.4469 68.8021 50.4629 68.8083 50.4779C68.8146 50.4929 68.8238 50.5065 68.8353 50.5179C68.8476 50.5324 68.863 50.5439 68.8804 50.5516C68.8977 50.5593 68.9166 50.563 68.9356 50.5624Z" fill="#263238"/>
<path d="M72.7783 50.3351C72.8096 50.3368 72.8402 50.3261 72.8637 50.3054C72.8752 50.294 72.8844 50.2804 72.8907 50.2654C72.8969 50.2504 72.9002 50.2344 72.9002 50.2181C72.9002 50.2019 72.8969 50.1858 72.8907 50.1708C72.8844 50.1559 72.8752 50.1423 72.8637 50.1309C72.7347 49.9774 72.5723 49.8554 72.3889 49.7743C72.2055 49.6933 72.006 49.6552 71.8057 49.6631C71.7898 49.6649 71.7744 49.6699 71.7605 49.6779C71.7467 49.686 71.7347 49.6968 71.7252 49.7097C71.7158 49.7226 71.7092 49.7374 71.7058 49.753C71.7024 49.7686 71.7022 49.7848 71.7054 49.8005C71.7125 49.8329 71.7311 49.8616 71.7577 49.8814C71.7843 49.9012 71.8172 49.9107 71.8502 49.9081C72.0083 49.9042 72.1652 49.9354 72.3097 49.9996C72.4542 50.0638 72.5825 50.1594 72.6855 50.2794C72.6962 50.2946 72.71 50.3074 72.726 50.317C72.742 50.3266 72.7598 50.3328 72.7783 50.3351Z" fill="#263238"/>
<path d="M69.7832 51.3079L70.2584 51.126C70.2584 51.126 70.0616 51.538 69.7832 51.3079Z" fill="#263238"/>
<path d="M71.5968 54.4256C71.3861 54.6975 71.1951 54.984 71.0251 55.2831L70.8543 55.22C70.0822 54.923 69.826 54.5332 69.7703 54.1917C69.746 54.0229 69.7638 53.8507 69.8223 53.6905C69.8515 53.5982 69.894 53.5107 69.9485 53.4307C70.3412 53.8249 70.815 54.1289 71.3369 54.3216C71.4928 54.3884 71.5968 54.4256 71.5968 54.4256Z" fill="#263238"/>
<path d="M71.3388 54.3216L71.1644 54.5703C70.4405 54.2919 69.9653 53.9949 69.8242 53.6905C69.8534 53.5982 69.8959 53.5107 69.9504 53.4307C70.3431 53.8249 70.8169 54.1289 71.3388 54.3216Z" fill="white"/>
<path d="M70.8555 55.2207C70.0833 54.9237 69.8272 54.5339 69.7715 54.1924C70.0624 54.3084 70.3302 54.4756 70.5622 54.6861C70.7129 54.8297 70.8154 55.0165 70.8555 55.2207Z" fill="#DE5753"/>
<path d="M70.8906 59.166C70.8906 59.166 71.7073 60.0421 71.5403 61.0816L73.4187 61.4788C73.3223 60.8636 73.0196 60.2995 72.5601 59.8792C72.1007 59.4589 71.5119 59.2074 70.8906 59.166Z" fill="#D75337"/>
<path d="M70.6816 61.1268C70.6816 61.1268 68.1647 59.679 67.6041 58.8994L66.4904 59.7421C66.4904 59.7421 66.1378 61.0563 67.6598 62.2368L70.6816 61.1268Z" fill="#D75337"/>
<path opacity="0.6" d="M70.8906 59.166C70.8906 59.166 71.7073 60.0421 71.5403 61.0816L73.4187 61.4788C73.3223 60.8636 73.0196 60.2995 72.5601 59.8792C72.1007 59.4589 71.5119 59.2074 70.8906 59.166Z" fill="white"/>
<path opacity="0.6" d="M70.6816 61.1268C70.6816 61.1268 68.1647 59.679 67.6041 58.8994L66.4904 59.7421C66.4904 59.7421 66.1378 61.0563 67.6598 62.2368L70.6816 61.1268Z" fill="white"/>
<path d="M77.6939 134.277H78.2619L78.4141 133.594L80.2517 134.414H84.9032C84.9032 134.414 85.6457 133.672 83.4183 133.082C83.3092 133.053 83.2034 133.013 83.1027 132.963C81.9222 132.413 80.2331 130.55 80.2331 130.55H77.6828C77.6055 130.669 77.5361 130.793 77.4749 130.921C77.189 131.47 76.7102 132.651 77.6939 134.277Z" fill="#263238"/>
<path d="M77.4688 130.91C77.8029 130.538 79.3435 132.176 80.4683 132.732C81.4706 133.23 82.5991 133.445 83.0966 132.937C81.9161 132.387 80.0488 129.967 80.0488 129.967H77.9959C77.9959 129.967 77.5875 130.672 77.4688 130.91Z" fill="#EBB376"/>
<path d="M61.6075 134.277H62.1643L62.3166 133.594L64.1541 134.414H68.8056C68.8056 134.414 69.5481 133.672 67.3207 133.082C67.2116 133.053 67.1059 133.013 67.0052 132.963C65.8247 132.413 64.1356 130.55 64.1356 130.55H61.5852C61.508 130.669 61.4386 130.793 61.3773 130.921C61.1026 131.47 60.6275 132.651 61.6075 134.277Z" fill="#263238"/>
<path d="M61.3809 130.91C61.715 130.538 63.2556 132.176 64.3804 132.732C65.3864 133.23 66.5113 133.445 67.0087 132.937C65.8282 132.387 63.9609 129.967 63.9609 129.967H61.908C61.908 129.967 61.4997 130.672 61.3809 130.91Z" fill="#EBB376"/>
<path d="M60.9963 98.8942C61.2797 99.2069 61.615 99.4681 61.9875 99.6664C62.0394 97.8102 62.5777 96.9267 62.5777 96.9267C62.4857 97.9935 62.5838 99.0682 62.8673 100.101C65.722 101.307 71.2274 102.102 78.11 100.416C78.11 92.342 76.5137 78.755 76.4023 77.4297C76.4023 77.4297 68.2353 77.645 64.9239 77.645C61.297 81.9698 60.3206 95.8538 60.9963 98.8942Z" fill="#263238"/>
<path opacity="0.2" d="M60.9963 98.8942C61.2797 99.2069 61.615 99.4681 61.9875 99.6664C62.0394 97.8102 62.5777 96.9267 62.5777 96.9267C62.4857 97.9935 62.5838 99.0682 62.8673 100.101C65.722 101.307 71.2274 102.102 78.11 100.416C78.11 92.342 76.5137 78.755 76.4023 77.4297C76.4023 77.4297 68.2353 77.645 64.9239 77.645C61.297 81.9698 60.3206 95.8538 60.9963 98.8942Z" fill="white"/>
<path d="M76.3388 77.9323C72.5135 78.3455 68.6544 78.338 64.8307 77.9101C64.7893 77.9059 64.7496 77.8916 64.7151 77.8684C64.6806 77.8452 64.6524 77.8138 64.6329 77.7771C64.6134 77.7404 64.6033 77.6994 64.6035 77.6578C64.6037 77.6163 64.6141 77.5754 64.6339 77.5388L64.9123 76.8929C64.9314 76.8449 64.9657 76.8044 65.0099 76.7776C65.0541 76.7508 65.1059 76.7391 65.1573 76.7444C68.8307 77.1379 72.5355 77.1379 76.2088 76.7444C76.241 76.7413 76.2735 76.7447 76.3044 76.7542C76.3353 76.7638 76.364 76.7794 76.3889 76.8001C76.4137 76.8208 76.4342 76.8462 76.4492 76.8749C76.4642 76.9036 76.4733 76.9349 76.4761 76.9671L76.543 77.6391C76.5488 77.6717 76.5482 77.7052 76.5411 77.7377C76.5341 77.7701 76.5207 77.8008 76.5017 77.8281C76.4827 77.8553 76.4586 77.8785 76.4306 77.8964C76.4027 77.9143 76.3715 77.9265 76.3388 77.9323Z" fill="#263238"/>
<path opacity="0.1" d="M65.4022 64.747C65.4022 64.747 65.2649 67.3641 64.27 68.7637C64.0621 67.2788 63.8468 65.8718 63.6426 64.7952C64.2047 64.5705 64.8286 64.5534 65.4022 64.747Z" fill="black"/>
<path opacity="0.1" d="M67.0853 72.3889V74.7202C66.5048 75.2112 65.8739 75.6392 65.2031 75.9973C65.0695 74.9467 64.8542 73.1536 64.6055 71.2158C65.4058 71.6602 66.2341 72.052 67.0853 72.3889Z" fill="black"/>
<path d="M71.1412 74.9959H68.3682L67.8633 70.0586H71.6498L71.1412 74.9959Z" fill="#D75337"/>
<path d="M71.8551 69.7656H67.6602V70.2631H71.8551V69.7656Z" fill="white"/>
<path d="M71.0078 72.3897C70.9759 72.5834 70.8892 72.7639 70.7581 72.9099C70.6269 73.0559 70.4566 73.1613 70.2675 73.2137C70.0783 73.266 69.8781 73.2632 69.6905 73.2054C69.5029 73.1476 69.3357 73.0374 69.2088 72.8876C69.0819 72.7379 69.0004 72.555 68.9741 72.3605C68.9478 72.1659 68.9777 71.968 69.0603 71.7899C69.1429 71.6118 69.2748 71.4611 69.4403 71.3556C69.6058 71.2501 69.798 71.1941 69.9943 71.1943C70.2867 71.2199 70.5571 71.3598 70.7469 71.5836C70.9367 71.8074 71.0304 72.0971 71.0078 72.3897Z" fill="white"/>
<path d="M69.6634 72.3301L68.9432 71.9068C68.8095 71.8298 68.6595 71.7852 68.5054 71.7768C68.3512 71.7685 68.1973 71.7965 68.056 71.8586L66.7196 72.46C66.4562 72.5779 66.2248 72.7569 66.0447 72.9823C65.8645 73.2076 65.7408 73.4727 65.6838 73.7556L65.6133 74.1268C66.7604 74.9064 68.5831 74.9064 68.5831 74.9064L69.0991 74.9621C69.2048 74.9772 69.3124 74.9712 69.4157 74.9444C69.519 74.9176 69.616 74.8706 69.7009 74.806C69.7859 74.7414 69.8572 74.6605 69.9106 74.5682C69.9641 74.4758 69.9987 74.3737 70.0124 74.2679L70.1386 73.2433C70.1588 73.0611 70.1245 72.877 70.0399 72.7144C69.9553 72.5518 69.8242 72.418 69.6634 72.3301Z" fill="#FFB573"/>
<path d="M64.6264 60.1396C61.4709 60.6371 58.2672 70.5972 58.7424 72.3902C59.2176 74.1833 66.2598 74.5211 66.2598 74.5211L66.4677 72.3902C66.4677 72.3902 62.9299 71.3434 62.425 70.664C61.9201 69.9847 64.6264 65.9457 64.6264 65.9457C65.2205 65.0416 65.565 63.9966 65.625 62.9164C65.6399 60.845 64.6264 60.1396 64.6264 60.1396Z" fill="#D75337"/>
<path opacity="0.7" d="M64.6264 60.1396C61.4709 60.6371 58.2672 70.5972 58.7424 72.3902C59.2176 74.1833 66.2598 74.5211 66.2598 74.5211L66.4677 72.3902C66.4677 72.3902 62.9299 71.3434 62.425 70.664C61.9201 69.9847 64.6264 65.9457 64.6264 65.9457C65.2205 65.0416 65.565 63.9966 65.625 62.9164C65.6399 60.845 64.6264 60.1396 64.6264 60.1396Z" fill="white"/>
<path d="M47.569 45.1889C47.1978 45.1889 46.8971 44.7137 46.8711 44.0938C46.8522 43.8234 46.902 43.5527 47.0159 43.3068C47.053 43.2077 47.1166 43.1208 47.1998 43.0553C47.2829 42.9899 47.3823 42.9485 47.4873 42.9355H47.5059C47.8771 42.9355 48.1778 43.4107 48.2075 44.0492C48.2252 44.3199 48.1741 44.5906 48.059 44.8362C48.0218 44.9353 47.9582 45.0222 47.8751 45.0877C47.792 45.1531 47.6925 45.1946 47.5876 45.2075L47.569 45.1889ZM47.5059 43.1063C47.3834 43.1063 47.2683 43.2103 47.1792 43.3847C47.0787 43.6042 47.0353 43.8456 47.053 44.0864C47.0753 44.6024 47.3128 45.033 47.5913 45.0181C47.6656 45.0051 47.7351 44.9724 47.7925 44.9234C47.85 44.8745 47.8933 44.811 47.9179 44.7397C48.0197 44.5219 48.0644 44.2817 48.0479 44.0418C48.0145 43.5295 47.7732 43.1063 47.5059 43.1063Z" fill="#263238"/>
<path d="M47.0399 44.088C47.0399 44.2885 47.1624 44.4593 47.2961 44.4593C47.4297 44.4593 47.5262 44.2848 47.5188 44.088C47.5114 43.8913 47.3963 43.7168 47.2626 43.7168C47.129 43.7168 47.0288 43.8839 47.0399 44.088Z" fill="#263238"/>
<path d="M47.1445 44.4473C47.414 45.0559 47.7663 45.6243 48.1914 46.1364C48.0569 46.2411 47.9013 46.3155 47.7354 46.3546C47.5695 46.3937 47.397 46.3965 47.2299 46.3628L47.1445 44.4473Z" fill="#ED847E"/>
<path d="M46.2491 42.996C46.2184 42.9916 46.1906 42.9757 46.1711 42.9515C46.1616 42.9391 46.1546 42.9249 46.1505 42.9098C46.1465 42.8946 46.1455 42.8789 46.1475 42.8633C46.1496 42.8478 46.1547 42.8328 46.1626 42.8193C46.1705 42.8058 46.1809 42.7939 46.1934 42.7844C46.3388 42.6635 46.5111 42.5792 46.6959 42.5385C46.8806 42.4978 47.0723 42.5019 47.2551 42.5506C47.2842 42.5622 47.3079 42.5842 47.3216 42.6124C47.3353 42.6405 47.3381 42.6727 47.3294 42.7028C47.3244 42.7177 47.3164 42.7315 47.306 42.7434C47.2956 42.7552 47.283 42.7649 47.2688 42.7718C47.2547 42.7787 47.2393 42.7827 47.2235 42.7836C47.2078 42.7845 47.192 42.7823 47.1772 42.777C47.032 42.7409 46.8804 42.7395 46.7346 42.7731C46.5888 42.8066 46.453 42.8741 46.3382 42.9701C46.326 42.9803 46.3117 42.988 46.2964 42.9924C46.281 42.9969 46.2649 42.9981 46.2491 42.996Z" fill="#263238"/>
<path d="M47.379 46.998C47.379 47.0574 47.3604 47.1131 47.353 47.1725C47.2046 47.9733 46.777 48.6956 46.1462 49.2108C45.5154 49.7261 44.7223 50.0009 43.908 49.9864C43.1484 49.958 42.4257 49.6515 41.8773 49.1251C40.5632 47.9038 40.5335 46.4411 40.2699 43.9613C40.2014 43.3856 40.2813 42.8019 40.5019 42.2658C40.7225 41.7296 41.0765 41.2588 41.5303 40.898C41.9841 40.5371 42.5226 40.2983 43.0947 40.2043C43.6668 40.1102 44.2534 40.1639 44.7989 40.3604C47.2193 41.2068 47.7539 44.7298 47.379 46.998Z" fill="#FFC3BD"/>
<path d="M40.7674 48.0114C41.6881 48.7539 45.6825 47.3914 45.3818 44.3399C45.3818 44.3399 47.0524 42.8736 47.186 40.9989C47.3196 39.1242 46.154 38.1961 44.7285 38.3817C43.4737 38.5488 43.4032 39.2095 43.4032 39.2095C43.4032 39.2095 37.6268 38.9868 38.477 41.4852C35.7558 43.6235 39.6055 47.0908 40.7674 48.0114Z" fill="#263238"/>
<path d="M48.1119 43.9476L45.3594 44.2529L45.3782 44.4227L48.1307 44.1173L48.1119 43.9476Z" fill="#263238"/>
<path d="M44.3 44.6963C44.3688 45.3118 44.6389 45.8873 45.0685 46.3334C45.6402 46.9163 46.1822 46.5191 46.2676 45.7803C46.327 45.1158 46.1042 44.0132 45.4249 43.7051C44.7455 43.397 44.2258 43.9501 44.3 44.6963Z" fill="#FFC3BD"/>
<path opacity="0.2" d="M47.3772 46.9971C47.3772 47.0565 47.3587 47.1121 47.3513 47.1715C47.2029 47.9724 46.7753 48.6947 46.1445 49.2099C45.5137 49.7252 44.7206 50 43.9062 49.9855C44.593 49.5474 45.5248 48.7864 45.8107 47.721C46.2821 45.9613 45.5656 43.7859 45.5656 43.7859L45.9369 43.2773C45.9369 43.2773 46.5977 46.0987 46.5197 46.8411C46.4789 47.3497 47.0209 47.1641 47.3772 46.9971Z" fill="black"/>
<path d="M59.3754 60.5731H56.5986L56.0938 55.6357H59.8803L59.3754 60.5731Z" fill="#D75337"/>
<path d="M60.0855 55.3438H55.8906V55.8412H60.0855V55.3438Z" fill="#D75337"/>
<path d="M59.2383 57.9571C59.2064 58.1503 59.1201 58.3304 58.9894 58.4762C58.8588 58.6221 58.6892 58.7275 58.5006 58.7803C58.312 58.833 58.1123 58.8308 57.9249 58.7739C57.7375 58.7171 57.5703 58.6079 57.4429 58.4592C57.3154 58.3105 57.2331 58.1286 57.2055 57.9347C57.178 57.7408 57.2064 57.5431 57.2873 57.3648C57.3683 57.1865 57.4985 57.0351 57.6626 56.9282C57.8267 56.8214 58.0179 56.7636 58.2137 56.7617C58.508 56.7845 58.7813 56.9232 58.9734 57.1473C59.1655 57.3715 59.2608 57.6627 59.2383 57.9571Z" fill="white"/>
<path opacity="0.8" d="M60.0855 55.3438H55.8906V55.8412H60.0855V55.3438Z" fill="white"/>
<path d="M41.1374 48.2197C41.5086 50.0759 41.5792 51.4791 40.291 52.7079C40.291 52.7079 40.7959 54.564 44.2112 54.564C47.968 54.564 46.0042 52.7079 46.0042 52.7079C43.9551 52.2179 44.007 50.6958 44.3671 49.2703L41.1374 48.2197Z" fill="#FFC3BD"/>
<path d="M39.5648 53.0482C39.2901 52.5359 38.9857 51.9345 39.6131 51.7675C40.2998 51.567 44.7212 51.1921 46.0205 51.5707C45.6196 52.2835 46.2952 53.1522 46.2952 53.1522L39.5648 53.0482Z" fill="#D75337"/>
<path opacity="0.2" d="M39.5648 53.0482C39.2901 52.5359 38.9857 51.9345 39.6131 51.7675C40.2998 51.567 44.7212 51.1921 46.0205 51.5707C45.6196 52.2835 46.2952 53.1522 46.2952 53.1522L39.5648 53.0482Z" fill="black"/>
<path d="M29.9114 131.282C30.0219 131.322 30.1394 131.339 30.2567 131.332C30.3741 131.326 30.4889 131.296 30.5945 131.244C30.6351 131.207 30.663 131.158 30.6744 131.104C30.6857 131.05 30.6798 130.994 30.6576 130.944C30.6458 130.901 30.6247 130.862 30.5958 130.828C30.5669 130.795 30.531 130.768 30.4905 130.751C30.1193 130.573 29.2655 130.922 29.2283 130.936C29.2168 130.942 29.2069 130.95 29.1998 130.96C29.1926 130.971 29.1883 130.983 29.1875 130.996C29.1876 131.008 29.1911 131.02 29.1977 131.031C29.2042 131.041 29.2135 131.05 29.2246 131.055C29.4449 131.155 29.6751 131.231 29.9114 131.282ZM30.3569 130.844C30.3842 130.848 30.4105 130.856 30.4348 130.87C30.4587 130.879 30.4799 130.894 30.4967 130.913C30.5135 130.933 30.5254 130.956 30.5314 130.981C30.5685 131.096 30.5314 131.133 30.5091 131.144C30.3606 131.27 29.8112 131.144 29.4251 130.999C29.7249 130.877 30.0485 130.824 30.3717 130.844H30.3569Z" fill="#D75337"/>
<path d="M29.2576 131.044C29.5657 130.955 30.2339 130.48 30.2413 130.168C30.2417 130.119 30.2254 130.071 30.195 130.033C30.1647 129.994 30.1221 129.968 30.0743 129.957C30.027 129.94 29.9766 129.933 29.9267 129.938C29.8767 129.942 29.8283 129.958 29.7847 129.983C29.4135 130.168 29.187 130.929 29.1759 130.963C29.1707 130.973 29.168 130.984 29.168 130.996C29.168 131.008 29.1707 131.019 29.1759 131.029C29.1859 131.041 29.1993 131.048 29.2142 131.051C29.229 131.054 29.2443 131.051 29.2576 131.044ZM30.0372 130.072H30.0631C30.1448 130.098 30.1448 130.138 30.1448 130.153C30.1448 130.339 29.6993 130.71 29.3764 130.859C29.4634 130.557 29.6378 130.289 29.8775 130.086C29.9234 130.071 29.9728 130.071 30.0186 130.086L30.0372 130.072Z" fill="#D75337"/>
<path d="M29.1212 130.643L26.0994 129.986C26.0459 129.975 25.9903 129.983 25.9418 130.008C25.8932 130.033 25.8546 130.074 25.8321 130.123L24.8038 132.395C24.7786 132.451 24.7662 132.511 24.7677 132.572C24.7691 132.633 24.7844 132.693 24.8122 132.748C24.8401 132.802 24.8798 132.849 24.9285 132.886C24.9772 132.923 25.0336 132.948 25.0934 132.96C26.1514 133.171 26.6748 133.22 28.0038 133.505C28.8205 133.684 30.6655 134.133 31.7941 134.378C32.9226 134.623 33.3124 133.539 32.8706 133.335C30.8994 132.436 30.0753 131.642 29.5296 130.903C29.431 130.768 29.2852 130.675 29.1212 130.643Z" fill="#263238"/>
<path d="M45.2614 75.123C45.2614 75.123 42.4103 92.9087 40.8474 99.576C39.1324 106.871 29.9407 131.015 29.9407 131.015L25.4414 130.113C25.4414 130.113 31.8711 110.438 33.3078 100.237C34.4215 92.4001 36.5894 75.123 36.5894 75.123H45.2614Z" fill="#D75337"/>
<path opacity="0.7" d="M45.2614 75.123C45.2614 75.123 42.4103 92.9087 40.8474 99.576C39.1324 106.871 29.9407 131.015 29.9407 131.015L25.4414 130.113C25.4414 130.113 31.8711 110.438 33.3078 100.237C34.4215 92.4001 36.5894 75.123 36.5894 75.123H45.2614Z" fill="white"/>
<path d="M37.8232 57.4768C37.3369 58.015 36.7912 58.6313 36.2938 59.2327C35.7963 59.8341 35.3026 60.454 34.8348 61.0888C33.9 62.2937 33.0786 63.5824 32.381 64.9385C32.2919 65.1018 32.2214 65.2652 32.1508 65.4285L32.0432 65.6735L31.9912 65.796L31.9689 65.8443C31.9689 65.8109 31.9095 65.9408 31.9467 66.171C32.0958 66.7908 32.3467 67.3817 32.6891 67.9195C33.5285 69.2304 34.4654 70.4763 35.4919 71.6466L34.2706 73.0833C32.7909 72.1218 31.4549 70.9557 30.3021 69.6197C29.6288 68.8594 29.1071 67.9774 28.7652 67.0211C28.5321 66.3382 28.4973 65.6032 28.665 64.9014L28.7058 64.7491L28.7392 64.6526L28.7949 64.4856L28.91 64.1515C28.9843 63.9287 29.0622 63.706 29.155 63.4981C29.8454 61.8569 30.7171 60.298 31.7536 58.8503C32.2622 58.1413 32.7745 57.4433 33.3314 56.7826C33.8882 56.1218 34.445 55.4795 35.0798 54.8262L37.8232 57.4768Z" fill="#FFC3BD"/>
<path d="M34.7529 70.9053L36.609 71.0426L35.7738 73.8231C35.7738 73.8231 34.3742 73.5707 33.8359 72.4793L34.7529 70.9053Z" fill="#FFC3BD"/>
<path d="M39.1737 71.413L37.9709 73.6924L35.7695 73.8371L36.6048 71.0566L39.1737 71.413Z" fill="#FFC3BD"/>
<path d="M47.1381 131.745C47.5094 131.745 47.8323 131.693 47.9474 131.537C47.9773 131.495 47.9934 131.445 47.9934 131.394C47.9934 131.343 47.9773 131.293 47.9474 131.251C47.9255 131.213 47.8961 131.18 47.861 131.154C47.8259 131.128 47.7858 131.109 47.7432 131.099C47.2866 130.973 46.3252 131.522 46.2843 131.544C46.2724 131.551 46.2627 131.56 46.2567 131.572C46.2507 131.584 46.2486 131.598 46.2509 131.611C46.2529 131.625 46.2589 131.637 46.2682 131.647C46.2775 131.657 46.2896 131.664 46.3029 131.667C46.5786 131.716 46.858 131.742 47.1381 131.745ZM47.5762 131.21C47.6181 131.204 47.6605 131.204 47.7024 131.21C47.7285 131.215 47.7533 131.226 47.775 131.241C47.7968 131.257 47.815 131.276 47.8286 131.299C47.8732 131.381 47.8583 131.422 47.8286 131.444C47.7024 131.622 47.0082 131.626 46.4959 131.556C46.8297 131.37 47.1969 131.253 47.5762 131.21Z" fill="#D75337"/>
<path d="M46.3052 131.668H46.3349C46.6653 131.516 47.3224 130.925 47.2741 130.61C47.2741 130.539 47.2073 130.446 47.0291 130.428C46.9629 130.42 46.8959 130.426 46.8321 130.446C46.7683 130.465 46.7091 130.497 46.6579 130.539C46.3089 130.829 46.2347 131.568 46.231 131.601C46.2295 131.612 46.2312 131.624 46.2358 131.634C46.2403 131.645 46.2477 131.654 46.257 131.66C46.2717 131.669 46.2888 131.671 46.3052 131.668ZM46.9771 130.554H47.018C47.1331 130.554 47.1405 130.614 47.1442 130.628C47.1739 130.814 46.7284 131.282 46.4017 131.486C46.4352 131.172 46.5649 130.877 46.773 130.639C46.8295 130.589 46.9014 130.559 46.9771 130.554Z" fill="#D75337"/>
<path d="M46.0165 131.285H43.0132C42.9585 131.285 42.9051 131.303 42.8619 131.336C42.8187 131.37 42.7883 131.417 42.7757 131.471L42.2522 133.917C42.2387 133.976 42.2388 134.038 42.2526 134.097C42.2664 134.156 42.2934 134.212 42.3317 134.259C42.3699 134.306 42.4184 134.344 42.4735 134.37C42.5285 134.395 42.5887 134.408 42.6494 134.407C43.7334 134.389 45.2963 134.326 46.6587 134.326C48.2513 134.326 49.6286 134.411 51.4847 134.411C52.5984 134.411 52.9251 133.271 52.4536 133.167C50.3005 132.696 48.5446 132.644 46.6847 131.497C46.4861 131.365 46.2546 131.292 46.0165 131.285Z" fill="#263238"/>
<path d="M36.3968 53.1082C33.98 53.1638 30.8691 58.6766 30.8691 58.6766L34.7745 63.1574C36.2395 62.1233 37.4091 60.7247 38.1675 59.0998C39.593 56.1782 38.8654 53.0525 36.3968 53.1082Z" fill="#D75337"/>
<path opacity="0.2" d="M37.4841 57.8457C35.9732 58.8295 35.1008 61.0012 34.5996 62.9464L34.7741 63.1431C36.236 62.1121 37.4052 60.7191 38.1671 59.1005C38.2513 58.9272 38.3292 58.7527 38.401 58.577L37.4841 57.8457Z" fill="black"/>
<path d="M51.0976 61.9956C51.0568 63.4397 50.9565 65.1102 50.7635 67.0518C50.5964 68.7706 50.3551 70.6973 50.021 72.8578H36.6568C36.5602 71.0017 37.7964 61.9585 35.8066 53.2235C37.2954 52.968 38.7977 52.7981 40.3059 52.7149C42.2078 52.6146 44.1136 52.6146 46.0155 52.7149C47.3166 52.8326 48.6079 53.041 49.88 53.3385C49.88 53.3385 51.2944 54.7566 51.0976 61.9956Z" fill="#D75337"/>
<path opacity="0.2" d="M51.097 61.9951C51.0562 63.4392 50.9559 65.1097 50.7629 67.0513C49.6492 65.9079 48.2162 64.1223 48.3573 62.5965L51.097 61.9951Z" fill="black"/>
<path opacity="0.2" d="M43.463 81.4587C40.1665 82.0564 40.5155 93.4495 40.9127 99.3075C41.863 95.1645 43.2552 87.1979 44.2055 81.5404C43.9728 81.4356 43.7129 81.407 43.463 81.4587Z" fill="black"/>
<path d="M50.0474 75.1221C50.0474 75.1221 50.3963 92.6775 50.1216 99.8348C49.8395 107.282 47.0553 131.668 47.0553 131.668H42.7787C42.7787 131.668 42.6228 107.72 42.4335 100.403C42.2256 92.4288 41.1973 75.1221 41.1973 75.1221H50.0474Z" fill="#D75337"/>
<path d="M51.0564 55.9336C51.2717 56.6167 51.5242 57.3814 51.7989 58.0979C52.0736 58.8143 52.3409 59.5457 52.6379 60.251C53.1944 61.6413 53.8714 62.9804 54.6611 64.2529C54.8541 64.5573 55.0583 64.8468 55.2662 65.1215L55.4258 65.322C55.3542 65.2611 55.2757 65.2087 55.1919 65.1661C55.0018 65.0691 54.7885 65.0267 54.5757 65.0436C54.4289 65.0511 54.2861 65.0945 54.1599 65.1698C54.0411 65.2589 54.1116 65.2403 54.1599 65.1698C54.2526 65.0824 54.3371 64.9867 54.4123 64.8839C54.6178 64.6117 54.8075 64.3279 54.9803 64.0338C55.7228 62.7605 56.4058 61.2867 57.0778 59.8612L58.8968 60.3698C58.6819 62.0662 58.2746 63.7326 57.6829 65.3368C57.5182 65.7778 57.3209 66.2059 57.0926 66.6176C56.9544 66.8596 56.7994 67.0916 56.6286 67.3118C56.3838 67.6346 56.0787 67.907 55.7302 68.1136C55.4267 68.2874 55.0879 68.3902 54.739 68.4143C54.323 68.4401 53.908 68.3502 53.54 68.1545C53.2792 68.0133 53.0434 67.8302 52.842 67.6125L52.6045 67.3526C52.2926 67.0061 52.0031 66.6535 51.7358 66.2946C50.7122 64.8822 49.8411 63.3653 49.1372 61.7693C48.7919 60.9897 48.4615 60.2064 48.1794 59.412C47.8973 58.6176 47.6225 57.838 47.3887 56.9619L51.0564 55.9336Z" fill="#FFC3BD"/>
<path d="M45.8979 56.1118C44.2497 59.1596 49.2835 63.9077 49.2835 63.9077L54.3063 60.4552C53.52 58.5348 52.5957 56.6737 51.5406 54.8868C49.5545 51.6014 47.1564 53.7954 45.8979 56.1118Z" fill="#D75337"/>
<path d="M58.2809 61.2233L60.7644 59.2966L58.756 57.4404C58.756 57.4404 56.8293 58.5541 57.1003 60.3509L58.2809 61.2233Z" fill="#FFC3BD"/>
<path d="M61.2005 58.0823L59.8529 56.2188L58.7578 57.4215L60.7662 59.2962L61.2005 58.0823Z" fill="#FFC3BD"/>
<path opacity="0.7" d="M50.0474 75.1221C50.0474 75.1221 50.3963 92.6775 50.1216 99.8348C49.8395 107.282 47.0553 131.668 47.0553 131.668H42.7787C42.7787 131.668 42.6228 107.72 42.4335 100.403C42.2256 92.4288 41.1973 75.1221 41.1973 75.1221H50.0474Z" fill="white"/>
<path d="M36.7023 72.3906C35.8249 75.3244 35.5212 78.3999 35.8076 81.4486H50.1408L50.2076 72.5391L36.7023 72.3906Z" fill="#D75337"/>
<path opacity="0.7" d="M36.7023 72.3906C35.8249 75.3244 35.5212 78.3999 35.8076 81.4486H50.1408L50.2076 72.5391L36.7023 72.3906Z" fill="white"/>
<path d="M39.9679 72.7244L36.4561 72.6836L36.3633 73.5968L39.9679 73.6302V72.7244Z" fill="#263238"/>
<path d="M45.9223 72.7955L40.5098 72.7324V73.6345L45.9223 73.6865V72.7955Z" fill="#263238"/>
<path d="M46.3047 72.7979V73.6888L50.2063 73.7222V72.8424L46.3047 72.7979Z" fill="#263238"/>
<path opacity="0.2" d="M43.1133 50.4161C43.2109 50.3567 43.3141 50.307 43.4214 50.2676C43.2543 50.3567 43.1393 50.4049 43.1133 50.4161Z" fill="black"/>
</svg>
