<svg width="56" height="33" viewBox="0 0 56 33" fill="none" xmlns="http://www.w3.org/2000/svg">
<rect x="33.4499" y="1.50222" width="10.2576" height="31.4139" transform="rotate(90 33.4499 1.50222)" fill="white" stroke="#222222" stroke-width="1.9233"/>
<rect x="0.112362" y="-1.35533" width="9.20144" height="23.3578" transform="matrix(-0.763111 0.646267 0.646267 0.763111 40.3631 8.48132)" fill="white" stroke="#222222" stroke-width="1.9233"/>
<rect x="36.2409" y="11.8557" width="9.80795" height="29.8228" transform="rotate(90 36.2409 11.8557)" fill="white" stroke="#222222" stroke-width="1.9233"/>
<rect x="34.448" y="21.6653" width="9.80795" height="32.5521" transform="rotate(90 34.448 21.6653)" fill="white" stroke="#222222" stroke-width="1.9233"/>
<rect x="17.3887" y="10.3916" width="11.2205" height="12.4335" fill="white"/>
<path d="M38.3314 17.7076L38.3325 17.6879V17.6682V8.22059V7.4825H37.5944C33.8831 7.4825 30.4592 6.22964 27.7141 4.09507L27.2623 3.74368L26.8095 4.0939C24.0624 6.2187 20.6376 7.4825 16.9277 7.4825H16.1896V8.22059V17.6682V17.6879L16.1907 17.7076C16.2724 19.2366 16.7094 20.7242 17.4664 22.0456C18.2235 23.3672 19.2789 24.4848 20.5458 25.3031L20.5624 25.3138L20.5797 25.3237L26.8945 28.9374L27.2611 29.1472L27.6277 28.9374L33.9425 25.3237L33.9597 25.3138L33.9764 25.3031C35.2432 24.4848 36.2986 23.3672 37.0557 22.0456C37.8127 20.7242 38.2498 19.2366 38.3314 17.7076ZM27.6918 18.3442L26.523 17.5044V18.5729L25.2041 19.5035L25.7876 17.5225L25.9297 17.0401L25.5327 16.7313L23.9197 15.4767L25.9348 15.4301L26.4512 15.4182L26.6169 14.9289L27.2611 13.026L27.9053 14.9289L28.0709 15.4182L28.5873 15.4301L30.6043 15.4767L28.9776 16.7434L28.5814 17.0519L28.7229 17.5337L29.3003 19.5001L27.6918 18.3442Z" fill="#D75337" stroke="white" stroke-width="1.47619"/>
</svg>
