<svg width="726" height="428" viewBox="0 0 726 428" fill="none" xmlns="http://www.w3.org/2000/svg">
<path d="M508.315 388.672H470.895V388.954H508.315V388.672Z" fill="#EBEBEB"/>
<path d="M374.228 391.744H364.41V392.027H374.228V391.744Z" fill="#EBEBEB"/>
<path d="M469.766 378.188H448.084V378.47H469.766V378.188Z" fill="#EBEBEB"/>
<path d="M108.067 380.083H59.2695V380.365H108.067V380.083Z" fill="#EBEBEB"/>
<path d="M125.291 380.086H118.139V380.368H125.291V380.086Z" fill="#EBEBEB"/>
<path d="M254.385 384.854H148.541V385.136H254.385V384.854Z" fill="#EBEBEB"/>
<path d="M269.352 320.101H51.1799C49.4689 320.101 47.828 319.422 46.6181 318.212C45.4082 317.002 44.7285 315.361 44.7285 313.65V6.97694C44.7434 5.27573 45.4297 3.64927 46.6379 2.45159C47.8462 1.25391 49.4786 0.581966 51.1799 0.582031H269.352C270.2 0.582031 271.039 0.7489 271.821 1.07311C272.604 1.39733 273.315 1.87253 273.914 2.4716C274.513 3.07067 274.988 3.78187 275.313 4.56459C275.637 5.34731 275.804 6.18622 275.804 7.03343V313.65C275.804 314.497 275.637 315.336 275.313 316.119C274.988 316.901 274.513 317.613 273.914 318.212C273.315 318.811 272.604 319.286 271.821 319.61C271.039 319.934 270.2 320.101 269.352 320.101ZM51.1799 0.808C49.5447 0.810987 47.9774 1.46188 46.8211 2.61814C45.6649 3.77439 45.014 5.34175 45.011 6.97694V313.65C45.014 315.285 45.6649 316.852 46.8211 318.009C47.9774 319.165 49.5447 319.816 51.1799 319.819H269.352C270.988 319.816 272.555 319.165 273.711 318.009C274.867 316.852 275.518 315.285 275.521 313.65V6.97694C275.518 5.34175 274.867 3.77439 273.711 2.61814C272.555 1.46188 270.988 0.810987 269.352 0.808H51.1799Z" fill="#EBEBEB"/>
<path d="M513.737 320.101H295.565C293.854 320.101 292.213 319.422 291.003 318.212C289.793 317.002 289.113 315.361 289.113 313.65V6.97694C289.128 5.27573 289.814 3.64927 291.023 2.45159C292.231 1.25391 293.863 0.581966 295.565 0.582031H513.737C515.448 0.582031 517.089 1.26173 518.299 2.4716C519.509 3.68147 520.189 5.32241 520.189 7.03343V313.65C520.189 315.361 519.509 317.002 518.299 318.212C517.089 319.422 515.448 320.101 513.737 320.101ZM295.565 0.808C293.929 0.810987 292.362 1.46188 291.206 2.61814C290.05 3.77439 289.399 5.34175 289.396 6.97694V313.65C289.399 315.285 290.05 316.852 291.206 318.009C292.362 319.165 293.929 319.816 295.565 319.819H513.737C515.372 319.816 516.94 319.165 518.096 318.009C519.252 316.852 519.903 315.285 519.906 313.65V6.97694C519.903 5.34175 519.252 3.77439 518.096 2.61814C516.94 1.46188 515.372 0.810987 513.737 0.808H295.565Z" fill="#EBEBEB"/>
<path d="M564.921 370.492H0V370.775H564.921V370.492Z" fill="#EBEBEB"/>
<path d="M240.181 65.1749C238.993 65.1559 237.837 65.556 236.915 66.3048C237.102 65.2813 237.102 64.2325 236.915 63.209C236.416 60.7769 235.114 58.583 233.219 56.9788C231.324 55.3747 228.946 54.4533 226.464 54.3623C225.069 54.3446 223.695 54.7037 222.487 55.4018C221.569 53.7167 220.228 52.3 218.595 51.2915C216.963 50.283 215.095 49.7175 213.177 49.6509C212.07 49.6121 210.969 49.8296 209.959 50.2862C208.95 50.7429 208.059 51.4265 207.357 52.2838C206.655 53.141 206.161 54.1488 205.912 55.2286C205.663 56.3083 205.667 57.4309 205.924 58.5088C206.001 58.8906 206.099 59.2678 206.218 59.6387C205.44 59.4315 204.639 59.3252 203.834 59.3223C202.726 59.2836 201.625 59.501 200.615 59.9577C199.606 60.4144 198.716 61.098 198.014 61.9552C197.312 62.8125 196.817 63.8203 196.568 64.9C196.32 65.9798 196.324 67.1024 196.58 68.1803C197.078 70.6133 198.379 72.8083 200.274 74.4128C202.17 76.0173 204.549 76.938 207.031 77.027H242.316C243.06 77.0538 243.8 76.9086 244.478 76.6028C245.156 76.2969 245.755 75.8386 246.227 75.2635C246.7 74.6884 247.033 74.0121 247.201 73.2872C247.369 72.5622 247.368 71.8083 247.197 71.084C246.855 69.4571 245.978 67.9915 244.707 66.9207C243.435 65.8498 241.842 65.2352 240.181 65.1749Z" fill="#F5F5F5"/>
<path d="M182.207 72.4734C180.05 72.4349 177.949 73.1591 176.275 74.5185C176.63 72.6521 176.63 70.7356 176.275 68.8693C174.671 59.9887 166.185 52.7916 157.305 52.7916C154.776 52.7634 152.287 53.415 150.097 54.6784C146.707 48.5886 140.075 44.25 133.149 44.25C124.268 44.25 118.371 51.4471 119.975 60.3276C120.11 61.0502 120.292 61.7634 120.517 62.463C119.105 62.0904 117.651 61.8968 116.19 61.8868C107.309 61.8868 101.423 69.0839 103.016 77.9532C104.609 86.8224 113.117 94.0308 121.986 94.0308H186.048C192.014 94.0308 195.968 89.1951 194.895 83.2295C194.275 80.282 192.692 77.6248 190.394 75.6771C188.096 73.7295 185.216 72.6023 182.207 72.4734Z" fill="#F5F5F5"/>
<path d="M441.078 76.1354C438.92 76.0991 436.818 76.8275 435.146 78.1917C435.5 76.3253 435.5 74.409 435.146 72.5425C433.553 63.6733 425.057 56.4762 416.176 56.4762C413.651 56.4483 411.165 57.1 408.979 58.363C405.589 52.2732 398.946 47.9346 392.031 47.9346C383.151 47.9346 377.253 55.1317 378.857 64.0009C378.997 64.7263 379.178 65.4431 379.4 66.1476C377.989 65.766 376.534 65.5685 375.072 65.5601C366.203 65.5601 360.305 72.7572 361.91 81.6377C363.514 90.5183 372.044 97.7493 380.925 97.7493H444.976C450.941 97.7493 454.896 92.9136 453.822 86.9593C453.213 83.9902 451.627 81.3108 449.317 79.3488C447.007 77.3868 444.106 76.2555 441.078 76.1354Z" fill="#F5F5F5"/>
<path d="M475.662 61.8411C474.761 61.8227 473.883 62.1273 473.187 62.6998C473.335 61.9271 473.335 61.1336 473.187 60.361C472.813 58.5183 471.829 56.8553 470.394 55.6399C468.96 54.4245 467.158 53.7274 465.278 53.661C464.223 53.6456 463.184 53.9191 462.273 54.4519C461.578 53.1785 460.564 52.1078 459.329 51.3451C458.095 50.5825 456.684 50.1541 455.234 50.102C454.396 50.0724 453.563 50.2366 452.799 50.5819C452.035 50.9271 451.361 51.4441 450.83 52.0925C450.298 52.7409 449.924 53.5032 449.735 54.3201C449.547 55.137 449.55 55.9863 449.743 56.802C449.801 57.1037 449.876 57.4017 449.969 57.6946C449.384 57.5329 448.78 57.4494 448.173 57.446C447.334 57.4141 446.5 57.5767 445.735 57.9213C444.969 58.2658 444.294 58.7828 443.763 59.4318C443.231 60.0808 442.856 60.8441 442.669 61.662C442.481 62.4799 442.486 63.3301 442.682 64.146C443.058 65.9866 444.043 67.647 445.477 68.8602C446.912 70.0734 448.713 70.7688 450.59 70.8346H477.277C477.842 70.8539 478.403 70.7425 478.917 70.509C479.431 70.2756 479.884 69.9264 480.24 69.4888C480.597 69.0512 480.847 68.537 480.972 67.9865C481.097 67.4359 481.093 66.864 480.961 66.3153C480.7 65.0866 480.038 63.9796 479.079 63.1693C478.119 62.3591 476.917 61.8917 475.662 61.8411Z" fill="#F0F0F0"/>
<path d="M311.373 116.085V105.171H289.319V116.085H252.734V372.853H316.706V116.085H311.373Z" fill="#F0F0F0"/>
<path d="M282.846 129.87H273.4V139.316H282.846V129.87Z" fill="#FAFAFA"/>
<path d="M296.043 129.87H286.598V139.316H296.043V129.87Z" fill="#FAFAFA"/>
<path d="M269.649 144.118H260.203V153.564H269.649V144.118Z" fill="#FAFAFA"/>
<path d="M282.846 144.118H273.4V153.564H282.846V144.118Z" fill="#FAFAFA"/>
<path d="M309.238 144.118H299.793V153.564H309.238V144.118Z" fill="#FAFAFA"/>
<path d="M269.649 158.377H260.203V167.822H269.649V158.377Z" fill="#FAFAFA"/>
<path d="M296.043 158.375H286.598V167.82H296.043V158.375Z" fill="#FAFAFA"/>
<path d="M309.238 158.375H299.793V167.82H309.238V158.375Z" fill="#FAFAFA"/>
<path d="M269.649 186.872H260.203V196.318H269.649V186.872Z" fill="#FAFAFA"/>
<path d="M296.043 186.87H286.598V196.316H296.043V186.87Z" fill="#FAFAFA"/>
<path d="M269.649 201.118H260.203V210.564H269.649V201.118Z" fill="#FAFAFA"/>
<path d="M282.846 201.118H273.4V210.564H282.846V201.118Z" fill="#FAFAFA"/>
<path d="M309.238 201.117H299.793V210.563H309.238V201.117Z" fill="#FAFAFA"/>
<path d="M269.649 272.273H260.203V281.719H269.649V272.273Z" fill="#FAFAFA"/>
<path d="M282.846 272.273H273.4V281.719H282.846V272.273Z" fill="#FAFAFA"/>
<path d="M309.238 272.273H299.793V281.719H309.238V272.273Z" fill="#FAFAFA"/>
<path d="M269.649 286.522H260.203V295.968H269.649V286.522Z" fill="#FAFAFA"/>
<path d="M296.043 286.522H286.598V295.968H296.043V286.522Z" fill="#FAFAFA"/>
<path d="M309.238 286.522H299.793V295.968H309.238V286.522Z" fill="#FAFAFA"/>
<path d="M269.649 315.028H260.203V324.474H269.649V315.028Z" fill="#FAFAFA"/>
<path d="M296.043 315.028H286.598V324.474H296.043V315.028Z" fill="#FAFAFA"/>
<path d="M269.649 329.275H260.203V338.721H269.649V329.275Z" fill="#FAFAFA"/>
<path d="M282.846 329.275H273.4V338.721H282.846V329.275Z" fill="#FAFAFA"/>
<path d="M309.238 329.275H299.793V338.721H309.238V329.275Z" fill="#FAFAFA"/>
<path d="M309.238 215.377H299.793V224.822H309.238V215.377Z" fill="#FAFAFA"/>
<path d="M269.649 229.624H260.203V239.069H269.649V229.624Z" fill="#FAFAFA"/>
<path d="M282.846 229.624H273.4V239.069H282.846V229.624Z" fill="#FAFAFA"/>
<path d="M296.112 244.032L286.668 243.896L286.533 253.341L295.977 253.476L296.112 244.032Z" fill="#FAFAFA"/>
<path d="M309.304 244.22L299.859 244.085L299.724 253.529L309.169 253.665L309.304 244.22Z" fill="#FAFAFA"/>
<path d="M269.649 258.118H260.203V267.564H269.649V258.118Z" fill="#FAFAFA"/>
<path d="M434.13 165.018V156.194H451.971V165.018H481.595V372.853H429.814V165.018H434.13Z" fill="#F0F0F0"/>
<path d="M457.224 183.831H464.873V176.182H457.224V183.831Z" fill="#FAFAFA"/>
<path d="M446.537 183.831H454.186V176.182H446.537V183.831Z" fill="#FAFAFA"/>
<path d="M467.904 195.367H475.553V187.718H467.904V195.367Z" fill="#FAFAFA"/>
<path d="M457.224 195.367H464.873V187.718H457.224V195.367Z" fill="#FAFAFA"/>
<path d="M435.849 195.367H443.498V187.718H435.849V195.367Z" fill="#FAFAFA"/>
<path d="M467.904 206.904H475.553V199.255H467.904V206.904Z" fill="#FAFAFA"/>
<path d="M446.537 206.904H454.186V199.255H446.537V206.904Z" fill="#FAFAFA"/>
<path d="M435.849 206.904H443.498V199.255H435.849V206.904Z" fill="#FAFAFA"/>
<path d="M467.904 229.964H475.553V222.315H467.904V229.964Z" fill="#FAFAFA"/>
<path d="M446.537 229.964H454.186V222.315H446.537V229.964Z" fill="#FAFAFA"/>
<path d="M467.904 241.508H475.553V233.859H467.904V241.508Z" fill="#FAFAFA"/>
<path d="M457.224 241.508H464.873V233.859H457.224V241.508Z" fill="#FAFAFA"/>
<path d="M435.849 241.508H443.498V233.859H435.849V241.508Z" fill="#FAFAFA"/>
<path d="M467.904 299.099H475.553V291.45H467.904V299.099Z" fill="#FAFAFA"/>
<path d="M457.224 299.098H464.873V291.449H457.224V299.098Z" fill="#FAFAFA"/>
<path d="M435.849 299.098H443.498V291.449H435.849V299.098Z" fill="#FAFAFA"/>
<path d="M467.904 310.621H475.553V302.972H467.904V310.621Z" fill="#FAFAFA"/>
<path d="M446.537 310.621H454.186V302.972H446.537V310.621Z" fill="#FAFAFA"/>
<path d="M435.849 310.621H443.498V302.972H435.849V310.621Z" fill="#FAFAFA"/>
<path d="M467.904 333.704H475.553V326.055H467.904V333.704Z" fill="#FAFAFA"/>
<path d="M446.537 333.704H454.186V326.055H446.537V333.704Z" fill="#FAFAFA"/>
<path d="M467.904 345.238H475.553V337.589H467.904V345.238Z" fill="#FAFAFA"/>
<path d="M457.224 345.238H464.873V337.589H457.224V345.238Z" fill="#FAFAFA"/>
<path d="M435.849 345.238H443.498V337.589H435.849V345.238Z" fill="#FAFAFA"/>
<path d="M435.849 253.046H443.498V245.397H435.849V253.046Z" fill="#FAFAFA"/>
<path d="M467.904 264.57H475.553V256.921H467.904V264.57Z" fill="#FAFAFA"/>
<path d="M457.224 264.57H464.873V256.921H457.224V264.57Z" fill="#FAFAFA"/>
<path d="M446.604 276.221L454.252 276.111L454.142 268.463L446.494 268.573L446.604 276.221Z" fill="#FAFAFA"/>
<path d="M435.899 276.397L443.547 276.287L443.437 268.639L435.789 268.748L435.899 276.397Z" fill="#FAFAFA"/>
<path d="M467.904 287.641H475.553V279.992H467.904V287.641Z" fill="#FAFAFA"/>
<path d="M326.413 167.109H344.084H373.404V372.854H322.143V167.109H326.413Z" fill="#EBEBEB"/>
<path d="M349.28 185.73H356.85V178.161H349.28V185.73Z" fill="#FAFAFA"/>
<path d="M338.702 185.73H346.271V178.161H338.702V185.73Z" fill="#FAFAFA"/>
<path d="M359.844 197.153H367.414V189.583H359.844V197.153Z" fill="#FAFAFA"/>
<path d="M349.28 197.153H356.85V189.583H349.28V197.153Z" fill="#FAFAFA"/>
<path d="M328.129 197.153H335.699V189.583H328.129V197.153Z" fill="#FAFAFA"/>
<path d="M359.844 208.562H367.414V200.993H359.844V208.562Z" fill="#FAFAFA"/>
<path d="M338.702 208.565H346.271V200.995H338.702V208.565Z" fill="#FAFAFA"/>
<path d="M328.129 208.562H335.699V200.993H328.129V208.562Z" fill="#FAFAFA"/>
<path d="M359.844 231.41H367.414V223.84H359.844V231.41Z" fill="#FAFAFA"/>
<path d="M338.702 231.41H346.271V223.84H338.702V231.41Z" fill="#FAFAFA"/>
<path d="M359.844 242.82H367.414V235.25H359.844V242.82Z" fill="#FAFAFA"/>
<path d="M349.28 242.82H356.85V235.25H349.28V242.82Z" fill="#FAFAFA"/>
<path d="M328.129 242.82H335.699V235.25H328.129V242.82Z" fill="#FAFAFA"/>
<path d="M359.844 299.833H367.414V292.263H359.844V299.833Z" fill="#FAFAFA"/>
<path d="M349.28 299.833H356.85V292.263H349.28V299.833Z" fill="#FAFAFA"/>
<path d="M328.129 299.833H335.699V292.263H328.129V299.833Z" fill="#FAFAFA"/>
<path d="M359.844 311.255H367.414V303.685H359.844V311.255Z" fill="#FAFAFA"/>
<path d="M338.702 311.255H346.271V303.685H338.702V311.255Z" fill="#FAFAFA"/>
<path d="M328.129 311.255H335.699V303.685H328.129V311.255Z" fill="#FAFAFA"/>
<path d="M359.844 334.088H367.414V326.518H359.844V334.088Z" fill="#FAFAFA"/>
<path d="M338.702 334.09H346.271V326.52H338.702V334.09Z" fill="#FAFAFA"/>
<path d="M359.844 345.5H367.414V337.93H359.844V345.5Z" fill="#FAFAFA"/>
<path d="M349.28 345.5H356.85V337.93H349.28V345.5Z" fill="#FAFAFA"/>
<path d="M328.129 345.5H335.699V337.93H328.129V345.5Z" fill="#FAFAFA"/>
<path d="M328.129 254.243H335.699V246.673H328.129V254.243Z" fill="#FAFAFA"/>
<path d="M359.844 265.655H367.414V258.085H359.844V265.655Z" fill="#FAFAFA"/>
<path d="M349.28 265.655H356.85V258.085H349.28V265.655Z" fill="#FAFAFA"/>
<path d="M338.771 277.209L346.34 277.101L346.232 269.531L338.662 269.64L338.771 277.209Z" fill="#FAFAFA"/>
<path d="M328.181 277.349L335.75 277.24L335.642 269.671L328.073 269.779L328.181 277.349Z" fill="#FAFAFA"/>
<path d="M359.844 288.5H367.414V280.93H359.844V288.5Z" fill="#FAFAFA"/>
<path d="M89.8661 167.109H107.526H136.856V372.854H85.584V167.109H89.8661Z" fill="#F0F0F0"/>
<path d="M112.727 185.73H120.297V178.161H112.727V185.73Z" fill="#FAFAFA"/>
<path d="M102.149 185.73H109.719V178.161H102.149V185.73Z" fill="#FAFAFA"/>
<path d="M123.286 197.153H130.855V189.583H123.286V197.153Z" fill="#FAFAFA"/>
<path d="M112.727 197.153H120.297V189.583H112.727V197.153Z" fill="#FAFAFA"/>
<path d="M91.5746 197.153H99.1445V189.583H91.5746V197.153Z" fill="#FAFAFA"/>
<path d="M123.286 208.565H130.855V200.995H123.286V208.565Z" fill="#FAFAFA"/>
<path d="M102.149 208.562H109.719V200.993H102.149V208.562Z" fill="#FAFAFA"/>
<path d="M91.5746 208.565H99.1445V200.995H91.5746V208.565Z" fill="#FAFAFA"/>
<path d="M123.286 231.41H130.855V223.84H123.286V231.41Z" fill="#FAFAFA"/>
<path d="M102.149 231.408H109.719V223.838H102.149V231.408Z" fill="#FAFAFA"/>
<path d="M123.286 242.82H130.855V235.25H123.286V242.82Z" fill="#FAFAFA"/>
<path d="M112.727 242.82H120.297V235.25H112.727V242.82Z" fill="#FAFAFA"/>
<path d="M91.5746 242.82H99.1445V235.25H91.5746V242.82Z" fill="#FAFAFA"/>
<path d="M123.286 299.833H130.855V292.263H123.286V299.833Z" fill="#FAFAFA"/>
<path d="M112.727 299.833H120.297V292.263H112.727V299.833Z" fill="#FAFAFA"/>
<path d="M91.5746 299.833H99.1445V292.263H91.5746V299.833Z" fill="#FAFAFA"/>
<path d="M123.286 311.255H130.855V303.685H123.286V311.255Z" fill="#FAFAFA"/>
<path d="M102.149 311.255H109.719V303.685H102.149V311.255Z" fill="#FAFAFA"/>
<path d="M91.5746 311.255H99.1445V303.685H91.5746V311.255Z" fill="#FAFAFA"/>
<path d="M123.286 334.09H130.855V326.52H123.286V334.09Z" fill="#FAFAFA"/>
<path d="M102.149 334.088H109.719V326.518H102.149V334.088Z" fill="#FAFAFA"/>
<path d="M123.286 345.5H130.855V337.93H123.286V345.5Z" fill="#FAFAFA"/>
<path d="M112.727 345.5H120.297V337.93H112.727V345.5Z" fill="#FAFAFA"/>
<path d="M91.5746 345.5H99.1445V337.93H91.5746V345.5Z" fill="#FAFAFA"/>
<path d="M91.5746 254.243H99.1445V246.673H91.5746V254.243Z" fill="#FAFAFA"/>
<path d="M123.286 265.655H130.855V258.085H123.286V265.655Z" fill="#FAFAFA"/>
<path d="M112.727 265.655H120.297V258.085H112.727V265.655Z" fill="#FAFAFA"/>
<path d="M102.212 277.212L109.781 277.104L109.673 269.534L102.104 269.643L102.212 277.212Z" fill="#FAFAFA"/>
<path d="M91.632 277.353L99.2012 277.245L99.0928 269.676L91.5237 269.784L91.632 277.353Z" fill="#FAFAFA"/>
<path d="M123.286 288.5H130.855V280.93H123.286V288.5Z" fill="#FAFAFA"/>
<path d="M190.988 372.854H247.3V134.559L190.988 140.581V372.854Z" fill="#F0F0F0"/>
<path d="M228.873 159.979H244.262V144.591H228.873V159.979Z" fill="#FAFAFA"/>
<path d="M211.447 159.979H226.836V144.591H211.447V159.979Z" fill="#F0F0F0"/>
<path d="M194.014 159.979H209.402V144.591H194.014V159.979Z" fill="#FAFAFA"/>
<path d="M228.873 177.176H244.262V161.787H228.873V177.176Z" fill="#FAFAFA"/>
<path d="M211.447 177.176H226.836V161.787H211.447V177.176Z" fill="#FAFAFA"/>
<path d="M194.014 177.176H209.402V161.787H194.014V177.176Z" fill="#FAFAFA"/>
<path d="M228.873 194.372H244.262V178.984H228.873V194.372Z" fill="#FAFAFA"/>
<path d="M211.447 194.372H226.836V178.984H211.447V194.372Z" fill="#F0F0F0"/>
<path d="M194.014 194.372H209.402V178.984H194.014V194.372Z" fill="#FAFAFA"/>
<path d="M228.873 211.557H244.262V196.168H228.873V211.557Z" fill="#F0F0F0"/>
<path d="M211.447 211.557H226.836V196.168H211.447V211.557Z" fill="#FAFAFA"/>
<path d="M194.014 211.557H209.402V196.168H194.014V211.557Z" fill="#FAFAFA"/>
<path d="M228.873 228.752H244.262V213.364H228.873V228.752Z" fill="#FAFAFA"/>
<path d="M211.447 228.752H226.836V213.364H211.447V228.752Z" fill="#FAFAFA"/>
<path d="M194.014 228.752H209.402V213.364H194.014V228.752Z" fill="#F0F0F0"/>
<path d="M228.873 245.928H244.262V230.539H228.873V245.928Z" fill="#FAFAFA"/>
<path d="M211.447 245.928H226.836V230.539H211.447V245.928Z" fill="#F0F0F0"/>
<path d="M194.014 245.928H209.402V230.539H194.014V245.928Z" fill="#FAFAFA"/>
<path d="M228.873 263.123H244.262V247.735H228.873V263.123Z" fill="#F0F0F0"/>
<path d="M211.447 263.123H226.836V247.735H211.447V263.123Z" fill="#F0F0F0"/>
<path d="M194.014 263.123H209.402V247.735H194.014V263.123Z" fill="#FAFAFA"/>
<path d="M228.873 280.319H244.262V264.931H228.873V280.319Z" fill="#FAFAFA"/>
<path d="M211.447 280.319H226.836V264.931H211.447V280.319Z" fill="#F0F0F0"/>
<path d="M194.014 280.319H209.402V264.931H194.014V280.319Z" fill="#FAFAFA"/>
<path d="M228.873 297.504H244.262V282.115H228.873V297.504Z" fill="#FAFAFA"/>
<path d="M211.447 297.504H226.836V282.115H211.447V297.504Z" fill="#FAFAFA"/>
<path d="M194.014 297.506H209.402V282.117H194.014V297.506Z" fill="#FAFAFA"/>
<path d="M228.873 314.69H244.262V299.302H228.873V314.69Z" fill="#F0F0F0"/>
<path d="M211.447 314.69H226.836V299.302H211.447V314.69Z" fill="#FAFAFA"/>
<path d="M194.014 314.69H209.402V299.302H194.014V314.69Z" fill="#F0F0F0"/>
<path d="M228.873 331.887H244.262V316.498H228.873V331.887Z" fill="#FAFAFA"/>
<path d="M211.447 331.887H226.836V316.498H211.447V331.887Z" fill="#F0F0F0"/>
<path d="M194.014 331.887H209.402V316.498H194.014V331.887Z" fill="#FAFAFA"/>
<path d="M228.873 349.07H244.262V333.682H228.873V349.07Z" fill="#F0F0F0"/>
<path d="M211.447 349.07H226.836V333.682H211.447V349.07Z" fill="#FAFAFA"/>
<path d="M194.014 349.07H209.402V333.682H194.014V349.07Z" fill="#FAFAFA"/>
<path d="M378.836 372.853H424.414V179.955L378.836 184.836V372.853Z" fill="#F0F0F0"/>
<path d="M409.499 200.541H421.961V188.079H409.499V200.541Z" fill="#FAFAFA"/>
<path d="M395.387 200.541H407.85V188.079H395.387V200.541Z" fill="#F0F0F0"/>
<path d="M381.276 200.541H393.738V188.079H381.276V200.541Z" fill="#FAFAFA"/>
<path d="M409.499 214.451H421.961V201.989H409.499V214.451Z" fill="#FAFAFA"/>
<path d="M395.387 214.451H407.85V201.989H395.387V214.451Z" fill="#FAFAFA"/>
<path d="M381.276 214.449H393.738V201.987H381.276V214.449Z" fill="#FAFAFA"/>
<path d="M409.499 228.38H421.961V215.918H409.499V228.38Z" fill="#FAFAFA"/>
<path d="M395.387 228.38H407.85V215.918H395.387V228.38Z" fill="#F0F0F0"/>
<path d="M381.276 228.38H393.738V215.918H381.276V228.38Z" fill="#FAFAFA"/>
<path d="M409.499 242.289H421.961V229.827H409.499V242.289Z" fill="#F0F0F0"/>
<path d="M395.387 242.289H407.85V229.827H395.387V242.289Z" fill="#FAFAFA"/>
<path d="M381.276 242.289H393.738V229.827H381.276V242.289Z" fill="#FAFAFA"/>
<path d="M409.499 256.197H421.961V243.735H409.499V256.197Z" fill="#FAFAFA"/>
<path d="M395.387 256.197H407.85V243.735H395.387V256.197Z" fill="#FAFAFA"/>
<path d="M381.276 256.197H393.738V243.735H381.276V256.197Z" fill="#F0F0F0"/>
<path d="M409.499 270.117H421.961V257.655H409.499V270.117Z" fill="#FAFAFA"/>
<path d="M395.387 270.117H407.85V257.655H395.387V270.117Z" fill="#F0F0F0"/>
<path d="M381.276 270.117H393.738V257.655H381.276V270.117Z" fill="#FAFAFA"/>
<path d="M409.499 284.025H421.961V271.563H409.499V284.025Z" fill="#F0F0F0"/>
<path d="M395.387 284.025H407.85V271.563H395.387V284.025Z" fill="#F0F0F0"/>
<path d="M381.276 284.025H393.738V271.563H381.276V284.025Z" fill="#FAFAFA"/>
<path d="M409.499 297.946H421.961V285.484H409.499V297.946Z" fill="#FAFAFA"/>
<path d="M395.387 297.946H407.85V285.484H395.387V297.946Z" fill="#F0F0F0"/>
<path d="M381.276 297.944H393.738V285.482H381.276V297.944Z" fill="#FAFAFA"/>
<path d="M409.499 311.854H421.961V299.391H409.499V311.854Z" fill="#FAFAFA"/>
<path d="M395.387 311.854H407.85V299.391H395.387V311.854Z" fill="#FAFAFA"/>
<path d="M381.276 311.854H393.738V299.391H381.276V311.854Z" fill="#FAFAFA"/>
<path d="M409.499 325.773H421.961V313.311H409.499V325.773Z" fill="#F0F0F0"/>
<path d="M395.387 325.773H407.85V313.311H395.387V325.773Z" fill="#FAFAFA"/>
<path d="M381.276 325.773H393.738V313.311H381.276V325.773Z" fill="#F0F0F0"/>
<path d="M409.499 339.682H421.961V327.219H409.499V339.682Z" fill="#FAFAFA"/>
<path d="M395.387 339.682H407.85V327.219H395.387V339.682Z" fill="#F0F0F0"/>
<path d="M381.276 339.682H393.738V327.219H381.276V339.682Z" fill="#FAFAFA"/>
<path d="M409.499 353.6H421.961V341.137H409.499V353.6Z" fill="#F0F0F0"/>
<path d="M395.387 353.6H407.85V341.137H395.387V353.6Z" fill="#FAFAFA"/>
<path d="M381.276 353.6H393.738V341.137H381.276V353.6Z" fill="#FAFAFA"/>
<path d="M140.506 373.307H186.095V180.409L140.506 185.29V373.307Z" fill="#F5F5F5"/>
<path d="M171.171 200.994H183.633V188.532H171.171V200.994Z" fill="#FAFAFA"/>
<path d="M157.071 200.991H169.533V188.529H157.071V200.991Z" fill="#F0F0F0"/>
<path d="M142.96 200.991H155.422V188.529H142.96V200.991Z" fill="#FAFAFA"/>
<path d="M171.171 214.902H183.633V202.44H171.171V214.902Z" fill="#FAFAFA"/>
<path d="M157.071 214.902H169.533V202.44H157.071V214.902Z" fill="#FAFAFA"/>
<path d="M142.96 214.902H155.422V202.44H142.96V214.902Z" fill="#FAFAFA"/>
<path d="M171.171 228.821H183.633V216.359H171.171V228.821Z" fill="#FAFAFA"/>
<path d="M157.071 228.821H169.533V216.359H157.071V228.821Z" fill="#F0F0F0"/>
<path d="M142.96 228.821H155.422V216.359H142.96V228.821Z" fill="#FAFAFA"/>
<path d="M171.171 242.741H183.633V230.279H171.171V242.741Z" fill="#F0F0F0"/>
<path d="M157.071 242.741H169.533V230.279H157.071V242.741Z" fill="#FAFAFA"/>
<path d="M142.96 242.741H155.422V230.279H142.96V242.741Z" fill="#FAFAFA"/>
<path d="M171.171 256.661H183.633V244.199H171.171V256.661Z" fill="#FAFAFA"/>
<path d="M157.071 256.661H169.533V244.199H157.071V256.661Z" fill="#FAFAFA"/>
<path d="M142.96 256.661H155.422V244.199H142.96V256.661Z" fill="#F0F0F0"/>
<path d="M171.171 270.568H183.633V258.106H171.171V270.568Z" fill="#FAFAFA"/>
<path d="M157.071 270.568H169.533V258.106H157.071V270.568Z" fill="#F0F0F0"/>
<path d="M142.96 270.568H155.422V258.106H142.96V270.568Z" fill="#FAFAFA"/>
<path d="M171.171 284.478H183.633V272.015H171.171V284.478Z" fill="#F0F0F0"/>
<path d="M157.071 284.478H169.533V272.015H157.071V284.478Z" fill="#F0F0F0"/>
<path d="M142.96 284.478H155.422V272.015H142.96V284.478Z" fill="#FAFAFA"/>
<path d="M171.171 298.398H183.633V285.936H171.171V298.398Z" fill="#FAFAFA"/>
<path d="M157.071 298.396H169.533V285.933H157.071V298.396Z" fill="#F0F0F0"/>
<path d="M142.96 298.396H155.422V285.933H142.96V298.396Z" fill="#FAFAFA"/>
<path d="M171.171 312.306H183.633V299.844H171.171V312.306Z" fill="#FAFAFA"/>
<path d="M157.071 312.304H169.533V299.842H157.071V312.304Z" fill="#FAFAFA"/>
<path d="M142.96 312.304H155.422V299.842H142.96V312.304Z" fill="#FAFAFA"/>
<path d="M171.171 326.226H183.633V313.763H171.171V326.226Z" fill="#F0F0F0"/>
<path d="M157.071 326.226H169.533V313.763H157.071V326.226Z" fill="#FAFAFA"/>
<path d="M142.96 326.226H155.422V313.763H142.96V326.226Z" fill="#F0F0F0"/>
<path d="M171.171 340.133H183.633V327.671H171.171V340.133Z" fill="#FAFAFA"/>
<path d="M157.071 340.133H169.533V327.671H157.071V340.133Z" fill="#F0F0F0"/>
<path d="M142.96 340.133H155.422V327.671H142.96V340.133Z" fill="#FAFAFA"/>
<path d="M171.171 354.054H183.633V341.592H171.171V354.054Z" fill="#F0F0F0"/>
<path d="M157.071 354.054H169.533V341.592H157.071V354.054Z" fill="#FAFAFA"/>
<path d="M142.96 354.054H155.422V341.592H142.96V354.054Z" fill="#FAFAFA"/>
<path d="M371.186 71.4021C369.736 71.3775 368.323 71.8656 367.198 72.7805C367.441 71.5306 367.441 70.2455 367.198 68.9955C366.58 66.0254 364.985 63.3482 362.666 61.3921C360.347 59.436 357.44 58.314 354.408 58.2056C352.705 58.1858 351.027 58.6228 349.55 59.471C348.42 57.4129 346.776 55.6832 344.778 54.4514C342.779 53.2195 340.496 52.5276 338.15 52.4434C332.161 52.4434 328.196 57.3017 329.269 63.2785C329.36 63.7686 329.485 64.2518 329.642 64.7247C328.687 64.4692 327.704 64.3363 326.716 64.3293C320.739 64.3293 316.762 69.1763 317.846 75.1645C318.454 78.1411 320.044 80.8272 322.362 82.792C324.679 84.7568 327.589 85.8865 330.625 85.9997H373.807C374.717 86.0309 375.622 85.852 376.451 85.4769C377.28 85.1017 378.012 84.5403 378.589 83.8364C379.166 83.1325 379.573 82.3051 379.778 81.4183C379.984 80.5315 379.982 79.6094 379.773 78.7235C379.373 76.7155 378.308 74.9009 376.75 73.5725C375.192 72.2441 373.232 71.4795 371.186 71.4021Z" fill="#FAFAFA"/>
<path d="M282.462 417.167C403.448 417.167 501.527 411.44 501.527 404.377C501.527 397.313 403.448 391.587 282.462 391.587C161.475 391.587 63.3965 397.313 63.3965 404.377C63.3965 411.44 161.475 417.167 282.462 417.167Z" fill="#F5F5F5"/>
<path d="M506.065 427.162C627.051 427.162 725.13 421.435 725.13 414.372C725.13 407.308 627.051 401.582 506.065 401.582C385.079 401.582 287 407.308 287 414.372C287 421.435 385.079 427.162 506.065 427.162Z" fill="#F5F5F5"/>
<path d="M413.577 218.484H403.815C401.089 218.481 398.475 217.397 396.548 215.469C394.62 213.542 393.536 210.928 393.533 208.202V198.429C393.536 195.703 394.62 193.09 396.548 191.162C398.475 189.235 401.089 188.15 403.815 188.147H413.577C416.304 188.15 418.918 189.234 420.847 191.161C422.777 193.089 423.863 195.702 423.869 198.429V208.202C423.863 210.929 422.777 213.543 420.847 215.47C418.918 217.397 416.304 218.481 413.577 218.484ZM403.815 191.142C401.883 191.145 400.031 191.913 398.665 193.279C397.299 194.645 396.53 196.497 396.527 198.429V208.202C396.527 210.135 397.295 211.989 398.662 213.355C400.028 214.722 401.882 215.49 403.815 215.49H413.577C415.509 215.49 417.363 214.722 418.73 213.355C420.096 211.989 420.864 210.135 420.864 208.202V198.429C420.861 196.497 420.092 194.645 418.726 193.279C417.36 191.913 415.508 191.145 413.577 191.142H403.815Z" fill="#D75337"/>
<g opacity="0.6">
<path d="M413.577 218.484H403.815C401.089 218.481 398.475 217.397 396.548 215.469C394.62 213.542 393.536 210.928 393.533 208.202V198.429C393.536 195.703 394.62 193.09 396.548 191.162C398.475 189.235 401.089 188.15 403.815 188.147H413.577C416.304 188.15 418.918 189.234 420.847 191.161C422.777 193.089 423.863 195.702 423.869 198.429V208.202C423.863 210.929 422.777 213.543 420.847 215.47C418.918 217.397 416.304 218.481 413.577 218.484ZM403.815 191.142C401.883 191.145 400.031 191.913 398.665 193.279C397.299 194.645 396.53 196.497 396.527 198.429V208.202C396.527 210.135 397.295 211.989 398.662 213.355C400.028 214.722 401.882 215.49 403.815 215.49H413.577C415.509 215.49 417.363 214.722 418.73 213.355C420.096 211.989 420.864 210.135 420.864 208.202V198.429C420.861 196.497 420.092 194.645 418.726 193.279C417.36 191.913 415.508 191.145 413.577 191.142H403.815Z" fill="white"/>
</g>
<path d="M407.638 211.66L393.391 197.424L397.628 193.175L407.638 203.186L425.772 185.052L430.009 189.289L407.638 211.66Z" fill="#D75337"/>
<path d="M198.352 109.126H189.72C187.329 109.108 185.04 108.15 183.349 106.459C181.657 104.768 180.699 102.479 180.682 100.087V91.4439C180.685 89.0423 181.636 86.7391 183.329 85.0357C185.022 83.3323 187.319 82.3665 189.72 82.3486H198.352C200.764 82.3516 203.075 83.3108 204.78 85.0159C206.485 86.7209 207.445 89.0326 207.448 91.4439V100.008C207.449 101.204 207.215 102.388 206.759 103.494C206.302 104.599 205.633 105.604 204.788 106.451C203.944 107.297 202.941 107.969 201.836 108.428C200.732 108.887 199.548 109.124 198.352 109.126ZM189.72 84.9473C188.011 84.9473 186.372 85.6254 185.163 86.8328C183.953 88.0403 183.272 89.6783 183.269 91.3874V100.008C183.272 101.717 183.953 103.355 185.163 104.563C186.372 105.77 188.011 106.448 189.72 106.448H198.352C200.06 106.448 201.698 105.77 202.906 104.562C204.114 103.354 204.792 101.716 204.792 100.008V91.3648C204.792 89.6568 204.114 88.0187 202.906 86.8109C201.698 85.6032 200.06 84.9247 198.352 84.9247L189.72 84.9473Z" fill="#D75337"/>
<g opacity="0.6">
<path d="M198.356 109.127H189.724C187.333 109.109 185.044 108.151 183.353 106.46C181.661 104.769 180.703 102.48 180.686 100.088V91.4448C180.688 89.0433 181.64 86.7401 183.333 85.0367C185.026 83.3333 187.323 82.3675 189.724 82.3496H198.356C200.768 82.3526 203.079 83.3118 204.784 85.0168C206.489 86.7219 207.449 89.0335 207.452 91.4448V100.009C207.453 101.205 207.219 102.389 206.763 103.495C206.306 104.6 205.637 105.605 204.792 106.452C203.948 107.298 202.945 107.97 201.84 108.429C200.736 108.888 199.552 109.125 198.356 109.127ZM189.724 84.9482C188.015 84.9482 186.376 85.6264 185.166 86.8338C183.957 88.0412 183.276 89.6793 183.273 91.3883V100.009C183.276 101.718 183.957 103.356 185.166 104.564C186.376 105.771 188.015 106.449 189.724 106.449H198.356C200.064 106.449 201.702 105.771 202.91 104.563C204.118 103.355 204.796 101.717 204.796 100.009V91.3658C204.796 89.6577 204.118 88.0197 202.91 86.8119C201.702 85.6042 200.064 84.9256 198.356 84.9256L189.724 84.9482Z" fill="white"/>
</g>
<path d="M193.09 103.081L180.504 90.4945L184.244 86.7434L193.09 95.5901L209.123 79.5576L212.874 83.3087L193.09 103.081Z" fill="#D75337"/>
<path d="M451.938 96.1664C443.057 94.0617 434.634 90.3555 427.082 85.2295C419.531 90.3575 411.107 94.0639 402.225 96.1664C398.98 96.9382 395.689 97.508 392.373 97.8724C392.373 98.0193 392.373 98.1775 392.373 98.3244C392.373 128.83 406.067 150.128 427.093 166.782C448.119 150.128 461.813 128.841 461.813 98.3244C461.813 98.1775 461.813 98.0193 461.813 97.8724C458.489 97.5084 455.191 96.9387 451.938 96.1664Z" fill="#D75337"/>
<path opacity="0.1" d="M427.082 85.2295C419.531 90.3575 411.107 94.0639 402.225 96.1664C398.98 96.9382 395.689 97.508 392.373 97.8724C392.373 98.0193 392.373 98.1775 392.373 98.3244C392.373 128.83 406.067 150.128 427.093 166.782L427.082 85.2295Z" fill="black"/>
<g opacity="0.5">
<path d="M427.085 161.247L426.159 160.456C407.211 144.231 397.913 125.951 396.783 102.902L396.727 101.636L397.969 101.422C399.755 101.117 401.54 100.755 403.257 100.292C411.406 98.3615 419.2 95.1587 426.351 90.8011L427.097 90.3379L427.842 90.8011C434.995 95.1567 442.788 98.3594 450.936 100.292C452.676 100.71 454.45 101.071 456.224 101.422L457.478 101.636L457.41 102.902C456.281 125.951 446.971 144.243 428.034 160.456L427.085 161.247ZM399.698 104.02C401.009 125.261 409.742 142.299 427.085 157.473C444.428 142.311 453.162 125.261 454.473 104.02C453.06 103.76 451.648 103.455 450.258 103.116C442.103 101.183 434.29 98.021 427.085 93.7387C419.882 98.0229 412.068 101.185 403.912 103.116C402.534 103.455 401.099 103.749 399.698 104.02Z" fill="white"/>
</g>
<path opacity="0.9" d="M427.079 157.474C409.736 142.3 401.002 125.262 399.692 104.021C401.115 103.75 402.528 103.456 403.906 103.117C412.062 101.185 419.876 98.0233 427.079 93.7391V90.3496L426.333 90.8128C419.182 95.1704 411.388 98.3733 403.239 100.304C401.522 100.722 399.737 101.083 397.952 101.433L396.709 101.648L396.765 102.913C397.895 125.962 407.205 144.243 426.141 160.468L427.068 161.259L427.079 157.474Z" fill="#F0F0F0"/>
<g opacity="0.2">
<path d="M425.114 139.145L409.918 123.938L414.437 119.418L425.114 130.095L444.469 110.741L448.999 115.261L425.114 139.145Z" fill="#D75337"/>
</g>
<g opacity="0.9">
<path d="M425.114 139.145L409.918 123.938L414.437 119.418L425.114 130.095L444.469 110.741L448.999 115.261L425.114 139.145Z" fill="white"/>
</g>
<path d="M361.598 84.1211H322.133V120.807H361.598V84.1211Z" fill="#D75337"/>
<path opacity="0.3" d="M361.598 84.1211H322.133V120.807H361.598V84.1211Z" fill="white"/>
<path d="M379.11 84.1211H359.383V120.807H379.11V84.1211Z" fill="#D75337"/>
<path d="M348.051 91.3184H335.656V120.807H348.051V91.3184Z" fill="#263238"/>
<path d="M338.752 91.3184H335.656V120.807H338.752V91.3184Z" fill="#D75337"/>
<path d="M337.317 115.914H234.535V407.865H337.317V115.914Z" fill="#D75337"/>
<path opacity="0.6" d="M337.317 115.914H234.535V407.865H337.317V115.914Z" fill="white"/>
<path d="M335.779 115.914V159.085H313.104V168.655H335.779V205.657H313.104V215.227H335.779V252.23H313.104V261.799H335.779V298.802H313.104V308.371H335.779V345.374H313.104V354.943H335.779V407.865H384.374V115.914H335.779Z" fill="#D75337"/>
<path opacity="0.2" d="M335.779 115.914V159.085H313.104V168.655H335.779V205.657H313.104V215.227H335.779V252.23H313.104V261.799H335.779V298.802H313.104V308.371H335.779V345.374H313.104V354.943H335.779V407.865H384.374V115.914H335.779Z" fill="white"/>
<path d="M314.381 345.374H220.141V354.944H314.381V345.374Z" fill="#D75337"/>
<path d="M314.381 298.802H220.141V308.372H314.381V298.802Z" fill="#D75337"/>
<path d="M314.381 252.231H220.141V261.801H314.381V252.231Z" fill="#D75337"/>
<path d="M314.381 205.658H220.141V215.228H314.381V205.658Z" fill="#D75337"/>
<path d="M314.381 159.086H220.141V168.656H314.381V159.086Z" fill="#D75337"/>
<g opacity="0.4">
<path d="M314.381 345.372H220.141V354.942H314.381V345.372Z" fill="white"/>
<path d="M314.381 298.802H220.141V308.372H314.381V298.802Z" fill="white"/>
<path d="M314.381 252.23H220.141V261.8H314.381V252.23Z" fill="white"/>
<path d="M314.381 205.657H220.141V215.227H314.381V205.657Z" fill="white"/>
<path d="M314.381 159.085H220.141V168.655H314.381V159.085Z" fill="white"/>
</g>
<path d="M315.95 365.404H255.91V407.864H315.95V365.404Z" fill="#D75337"/>
<path d="M268.115 127.178H243.236V152.057H268.115V127.178Z" fill="#D75337"/>
<path d="M297.783 127.178H272.904V152.057H297.783V127.178Z" fill="#D75337"/>
<path opacity="0.7" d="M327.451 127.178H302.572V152.057H327.451V127.178Z" fill="white"/>
<path opacity="0.7" d="M268.115 174.713H243.236V199.592H268.115V174.713Z" fill="white"/>
<path d="M297.783 174.71H272.904V199.589H297.783V174.71Z" fill="#D75337"/>
<path opacity="0.7" d="M327.451 174.713H302.572V199.592H327.451V174.713Z" fill="white"/>
<path opacity="0.7" d="M268.115 221.284H243.236V246.163H268.115V221.284Z" fill="white"/>
<path opacity="0.7" d="M297.783 221.283H272.904V246.162H297.783V221.283Z" fill="white"/>
<path d="M327.451 221.284H302.572V246.163H327.451V221.284Z" fill="#D75337"/>
<path opacity="0.7" d="M268.115 267.854H243.236V292.734H268.115V267.854Z" fill="white"/>
<path d="M297.783 267.854H272.904V292.734H297.783V267.854Z" fill="#D75337"/>
<path opacity="0.7" d="M327.451 267.854H302.572V292.734H327.451V267.854Z" fill="white"/>
<path d="M268.115 314.438H243.236V339.318H268.115V314.438Z" fill="#D75337"/>
<path d="M297.783 314.438H272.904V339.318H297.783V314.438Z" fill="#D75337"/>
<path opacity="0.7" d="M327.451 314.438H302.572V339.318H327.451V314.438Z" fill="white"/>
<path d="M245.858 127.178H243.236V152.057H245.858V127.178Z" fill="#D75337"/>
<path d="M275.526 127.178H272.904V152.057H275.526V127.178Z" fill="#D75337"/>
<path d="M305.194 127.178H302.572V152.057H305.194V127.178Z" fill="#D75337"/>
<path d="M245.858 174.713H243.236V199.592H245.858V174.713Z" fill="#D75337"/>
<path d="M275.526 174.71H272.904V199.589H275.526V174.71Z" fill="#D75337"/>
<path d="M305.194 174.713H302.572V199.592H305.194V174.713Z" fill="#D75337"/>
<path d="M245.858 221.284H243.236V246.163H245.858V221.284Z" fill="#D75337"/>
<path d="M275.526 221.283H272.904V246.162H275.526V221.283Z" fill="#D75337"/>
<path d="M305.194 221.284H302.572V246.163H305.194V221.284Z" fill="#D75337"/>
<path d="M245.858 267.854H243.236V292.734H245.858V267.854Z" fill="#D75337"/>
<path d="M275.526 267.854H272.904V292.734H275.526V267.854Z" fill="#D75337"/>
<path d="M305.194 267.854H302.572V292.734H305.194V267.854Z" fill="#D75337"/>
<path d="M245.858 314.438H243.236V339.318H245.858V314.438Z" fill="#D75337"/>
<path d="M275.526 314.438H272.904V339.318H275.526V314.438Z" fill="#D75337"/>
<path d="M305.194 314.438H302.572V339.318H305.194V314.438Z" fill="#D75337"/>
<g opacity="0.2">
<path d="M245.858 127.178H243.236V152.057H245.858V127.178Z" fill="black"/>
<path d="M275.531 127.178H272.91V152.057H275.531V127.178Z" fill="black"/>
<path d="M305.195 127.178H302.574V152.057H305.195V127.178Z" fill="black"/>
<path d="M245.858 174.71H243.236V199.589H245.858V174.71Z" fill="black"/>
<path d="M275.531 174.71H272.91V199.589H275.531V174.71Z" fill="black"/>
<path d="M305.195 174.71H302.574V199.589H305.195V174.71Z" fill="black"/>
<path d="M245.858 221.282H243.236V246.161H245.858V221.282Z" fill="black"/>
<path d="M275.531 221.281H272.91V246.16H275.531V221.281Z" fill="black"/>
<path d="M305.195 221.281H302.574V246.16H305.195V221.281Z" fill="black"/>
<path d="M245.858 267.855H243.236V292.735H245.858V267.855Z" fill="black"/>
<path d="M275.531 267.854H272.91V292.733H275.531V267.854Z" fill="black"/>
<path d="M305.195 267.854H302.574V292.733H305.195V267.854Z" fill="black"/>
<path d="M245.858 314.438H243.236V339.318H245.858V314.438Z" fill="black"/>
<path d="M275.531 314.438H272.91V339.318H275.531V314.438Z" fill="black"/>
<path d="M305.195 314.438H302.574V339.318H305.195V314.438Z" fill="black"/>
</g>
<path opacity="0.4" d="M313.082 368.277H285.932V407.867H313.082V368.277Z" fill="white"/>
<path opacity="0.7" d="M285.931 368.277H258.781V407.867H285.931V368.277Z" fill="white"/>
<path d="M261.651 368.277H258.781V407.867H261.651V368.277Z" fill="#D75337"/>
<path opacity="0.2" d="M261.651 368.277H258.781V407.867H261.651V368.277Z" fill="black"/>
<path d="M586.821 408.974H579.881L579.033 392.908H585.965L586.821 408.974Z" fill="#FFB8A8"/>
<path d="M621.808 408.974H614.868L612.152 392.908H619.084L621.808 408.974Z" fill="#FFB8A8"/>
<path d="M614.419 408.166H622.207C622.343 408.164 622.475 408.211 622.58 408.297C622.684 408.384 622.754 408.505 622.778 408.639L623.854 414.804C623.876 414.959 623.865 415.116 623.821 415.265C623.777 415.415 623.702 415.553 623.6 415.671C623.498 415.788 623.371 415.882 623.229 415.947C623.088 416.011 622.934 416.044 622.778 416.044C620.062 415.995 618.749 415.832 615.316 415.832C613.212 415.832 607.528 416.052 604.616 416.052C601.705 416.052 601.46 413.173 602.659 412.912C608.066 411.746 611.483 410.131 613.261 408.598C613.582 408.32 613.993 408.166 614.419 408.166Z" fill="#263238"/>
<path d="M579.711 408.166H587.279C587.415 408.164 587.547 408.211 587.652 408.297C587.757 408.384 587.827 408.505 587.85 408.639L588.927 414.804C588.952 414.958 588.943 415.115 588.901 415.264C588.859 415.414 588.785 415.552 588.684 415.67C588.583 415.788 588.458 415.883 588.316 415.947C588.175 416.012 588.022 416.045 587.866 416.044C585.143 415.995 581.196 415.832 577.762 415.832C573.75 415.832 572.73 416.052 568.017 416.052C565.171 416.052 564.518 413.173 565.725 412.912C571.205 411.73 573.187 411.599 578.007 408.712C578.515 408.379 579.104 408.19 579.711 408.166Z" fill="#263238"/>
<path d="M579.491 192.959L570.015 190.178C570.015 190.178 560.359 213.118 557.089 214.643C552.644 216.682 540.778 222.937 535.755 225.889C535.412 227.023 535.404 230.13 535.951 231.027C544.179 230.375 561.06 224.788 564.306 221.673C571.711 214.562 579.491 192.959 579.491 192.959Z" fill="#FFB8A8"/>
<path d="M582.361 188.628C585.052 194.63 566.572 220.955 566.572 220.955L557.602 211.642C557.602 211.642 565.537 191.719 569.834 184.077C574.222 176.224 579.433 182.022 582.361 188.628Z" fill="#D75337"/>
<path opacity="0.4" d="M582.361 188.628C585.052 194.63 566.572 220.955 566.572 220.955L557.602 211.642C557.602 211.642 565.537 191.719 569.834 184.077C574.222 176.224 579.433 182.022 582.361 188.628Z" fill="white"/>
<path d="M556.949 210.819C556.387 211.153 555.18 213.347 554.911 214.44C554.642 215.533 560.954 223.965 563.408 223.623C565.863 223.28 568.669 220.891 569.174 219.602C569.68 218.314 558.132 210.126 556.949 210.819Z" fill="#D75337"/>
<path d="M536.804 225.367L531.096 224.323L531.438 232.478C531.438 232.478 533.444 233.294 537.767 230.619L536.804 225.367Z" fill="#FFB8A8"/>
<path d="M524.197 227.04L525.241 232.055L531.398 232.512L531.056 224.332L524.197 227.04Z" fill="#FFB8A8"/>
<path opacity="0.2" d="M579.033 392.916L579.474 401.194H586.405L585.973 392.916H579.033Z" fill="black"/>
<path opacity="0.2" d="M619.092 392.916H612.152L613.555 401.194H620.495L619.092 392.916Z" fill="black"/>
<path d="M573.544 180.44C573.544 180.44 564.288 204.27 570.209 243.276H607.307C607.829 237.568 605.676 206.912 612.42 180.082C608.343 179.287 604.219 178.761 600.073 178.508C594.82 178.206 589.554 178.206 584.301 178.508C580.671 178.877 577.075 179.523 573.544 180.44Z" fill="#D75337"/>
<path opacity="0.2" d="M573.544 180.44C573.544 180.44 564.288 204.27 570.209 243.276H607.307C607.829 237.568 605.676 206.912 612.42 180.082C608.343 179.287 604.219 178.761 600.073 178.508C594.82 178.206 589.554 178.206 584.301 178.508C580.671 178.877 577.075 179.523 573.544 180.44Z" fill="black"/>
<path opacity="0.2" d="M604.046 186.703C603.23 191.123 604.103 201.684 607.732 213.892C608.173 203.411 609.538 192.989 611.809 182.748V182.699C609.346 182.446 604.837 182.56 604.046 186.703Z" fill="black"/>
<path d="M598.721 163.763C597.481 168.835 596.69 175.123 600.074 178.507C600.074 178.507 597.791 183.661 588.363 183.661C579.743 183.661 584.286 178.507 584.286 178.507C589.995 177.162 590.052 170.165 589.252 166.217L598.721 163.763Z" fill="#FFB8A8"/>
<path d="M588.404 183.653C593.958 185.39 595.059 187.168 595.059 187.168C595.059 187.168 601.983 184.354 601.722 178.254C600.881 177.633 599.973 177.107 599.014 176.688C599.014 176.688 598.427 181.206 588.404 183.653Z" fill="#D75337"/>
<path d="M588.403 183.653C585.288 183.947 582.694 186.614 582.694 186.614C582.694 186.614 580.713 184.534 582.613 178.499C582.613 178.499 584.464 177.871 585.997 177.545C585.957 177.553 584.709 182.348 588.403 183.653Z" fill="#D75337"/>
<path opacity="0.2" d="M589.269 166.226C589.742 168.533 589.921 171.934 588.828 174.552C589.719 174.406 590.585 174.131 591.397 173.737C594.659 172.236 596.339 169.863 598.15 166.397C598.313 165.492 598.508 164.611 598.72 163.763L589.269 166.226Z" fill="black"/>
<path d="M588.168 147.55C585.949 148.276 580.991 152.533 585.721 154.677C590.451 156.822 592.033 146.294 588.168 147.55Z" fill="#263238"/>
<path d="M603.133 157.557C600.972 164.212 600.042 168.159 595.793 170.931C589.407 175.009 582.027 170.116 582.198 163.086C582.345 156.717 585.852 146.906 593.036 145.642C600.221 144.378 605.294 150.927 603.133 157.557Z" fill="#FFB8A8"/>
<path d="M592.71 150.274C589.04 150.894 585.982 150.698 584.873 147.648C583.764 144.598 588.812 141.401 592.294 142.836C594.863 140.162 601.876 142.217 602.782 144.786C606.859 144.525 610.717 149.222 607.952 151.628C608.577 152.016 609.106 152.542 609.497 153.165C609.889 153.789 610.133 154.493 610.212 155.225C610.291 155.957 610.201 156.697 609.951 157.389C609.701 158.082 609.296 158.708 608.768 159.22C609.958 162.76 605.669 166.291 602.284 164.856C598.949 163.861 597.13 164.676 596.665 162.523C596.2 160.37 597.375 158.291 600.213 157.875C598.777 156.162 598.427 153.455 599.397 152.288C595.964 153.846 593.15 151.889 592.71 150.274Z" fill="#263238"/>
<path d="M588.304 164.619C588.953 164.673 589.606 164.599 590.226 164.4C590.846 164.201 591.421 163.882 591.917 163.461C591.947 163.429 591.964 163.386 591.964 163.342C591.964 163.298 591.947 163.256 591.917 163.224C591.903 163.208 591.885 163.196 591.865 163.187C591.846 163.178 591.824 163.174 591.803 163.174C591.781 163.174 591.76 163.178 591.741 163.187C591.721 163.196 591.703 163.208 591.689 163.224C591.145 163.675 590.505 163.998 589.819 164.167C589.133 164.337 588.417 164.349 587.725 164.203C587.682 164.195 587.638 164.205 587.601 164.229C587.565 164.253 587.539 164.29 587.53 164.333C587.523 164.354 587.522 164.375 587.525 164.396C587.528 164.417 587.536 164.437 587.547 164.455C587.559 164.473 587.574 164.488 587.592 164.499C587.61 164.511 587.631 164.518 587.652 164.521C587.868 164.564 588.085 164.597 588.304 164.619Z" fill="#263238"/>
<path d="M603.515 166.747C602.127 167.831 600.374 168.337 598.622 168.158C596.346 167.905 596.175 165.663 597.602 163.966C598.891 162.433 601.631 160.704 603.531 161.83C605.431 162.955 605.219 165.393 603.515 166.747Z" fill="#FFB8A8"/>
<path d="M594.594 243.276C594.594 243.276 593.648 252.002 592.441 263.819C591.055 277.218 589.334 294.613 588.241 307.857C588.241 307.922 588.241 307.98 588.241 308.037C588.029 310.557 587.841 312.93 587.686 315.066C586.137 336.686 588.91 399.579 588.91 399.579H577.15C577.15 399.579 566.32 335.397 566.589 313.395C566.842 292.248 570.202 243.26 570.202 243.26L594.594 243.276Z" fill="#D75337"/>
<path d="M589.87 394.987C589.927 394.987 589.666 399.831 589.666 399.831H576.12L575.777 394.514L589.87 394.987Z" fill="#263238"/>
<path opacity="0.2" d="M592.482 263.819C591.095 277.218 589.374 294.613 588.282 307.857C588.282 307.922 588.282 307.979 588.282 308.037C585.696 295.469 584.889 279.844 585.892 254.114L592.482 263.819Z" fill="black"/>
<path d="M583.363 243.276C583.363 243.276 588.778 293.398 592.146 313.256C595.841 335.006 610.422 399.587 610.422 399.587H623.128C623.128 399.587 614.565 336.792 612.885 315.23C611.075 291.857 607.331 243.276 607.331 243.276H583.363Z" fill="#D75337"/>
<path d="M623.283 395.281C623.34 395.281 623.723 399.832 623.723 399.832H609.762L608.742 394.751L623.283 395.281Z" fill="#263238"/>
<path d="M591.61 157.263C591.463 157.81 591.063 158.193 590.713 158.079C590.362 157.964 590.191 157.491 590.329 156.945C590.468 156.399 590.876 156.015 591.226 156.13C591.577 156.244 591.748 156.741 591.61 157.263Z" fill="#263238"/>
<path d="M585.508 155.926C585.361 156.472 584.962 156.855 584.611 156.741C584.26 156.627 584.089 156.162 584.228 155.608C584.366 155.053 584.774 154.678 585.125 154.792C585.476 154.906 585.647 155.379 585.508 155.926Z" fill="#263238"/>
<path d="M588.355 156.627C587.275 158.164 586 159.554 584.562 160.762C585.28 161.871 587.009 161.814 587.009 161.814L588.355 156.627Z" fill="#DD8572"/>
<path d="M594.929 155.665C594.881 155.652 594.836 155.628 594.798 155.596C594.76 155.564 594.729 155.523 594.709 155.477C594.566 155.1 594.331 154.764 594.027 154.5C593.722 154.235 593.357 154.05 592.964 153.96C592.921 153.955 592.88 153.94 592.844 153.918C592.807 153.895 592.775 153.865 592.751 153.83C592.726 153.795 592.709 153.755 592.701 153.713C592.693 153.67 592.693 153.627 592.703 153.585C592.719 153.498 592.768 153.421 592.839 153.37C592.91 153.318 592.999 153.296 593.086 153.308C593.587 153.41 594.055 153.638 594.445 153.968C594.836 154.299 595.137 154.722 595.321 155.2C595.352 155.282 595.35 155.374 595.317 155.455C595.284 155.537 595.221 155.603 595.141 155.64C595.075 155.672 595.001 155.681 594.929 155.665Z" fill="#263238"/>
<path d="M584.325 153.136C584.281 153.118 584.24 153.093 584.203 153.063C584.172 153.033 584.147 152.996 584.131 152.956C584.114 152.917 584.105 152.874 584.105 152.83C584.105 152.787 584.114 152.744 584.131 152.704C584.147 152.665 584.172 152.628 584.203 152.598C584.548 152.198 584.982 151.886 585.472 151.688C585.961 151.489 586.49 151.41 587.016 151.456C587.059 151.462 587.1 151.477 587.137 151.499C587.173 151.521 587.205 151.551 587.229 151.586C587.254 151.622 587.271 151.662 587.279 151.704C587.287 151.746 587.287 151.79 587.277 151.831C587.26 151.917 587.21 151.993 587.139 152.044C587.069 152.096 586.981 152.119 586.894 152.109C586.476 152.078 586.056 152.146 585.67 152.307C585.283 152.469 584.94 152.719 584.668 153.038C584.624 153.083 584.569 153.116 584.509 153.133C584.449 153.15 584.386 153.151 584.325 153.136Z" fill="#263238"/>
<path d="M616.53 189.55L607.771 194.851C607.771 194.851 617.558 216.054 617.501 219.618C617.338 226.273 620.2 240.699 619.425 248.3C620.502 248.683 623.503 248.773 624.449 248.243C626.186 241.368 628.592 223.304 627.899 218.778C626.382 208.935 616.53 189.55 616.53 189.55Z" fill="#FFB8A8"/>
<path d="M612.421 180.081C618.945 181.035 628.242 214.145 628.242 214.145L616.172 218.721C616.172 218.721 605.66 200.779 603.083 192.714C600.311 184.297 605.432 179.054 612.421 180.081Z" fill="#D75337"/>
<path opacity="0.4" d="M612.421 180.081C618.945 181.035 628.242 214.145 628.242 214.145L616.172 218.721C616.172 218.721 605.66 200.779 603.083 192.714C600.311 184.297 605.432 179.054 612.421 180.081Z" fill="white"/>
<path d="M612.054 409.381C611.588 409.422 611.122 409.295 610.741 409.022C610.62 408.917 610.528 408.782 610.475 408.63C610.422 408.479 610.41 408.316 610.439 408.158C610.444 408.061 610.475 407.967 610.528 407.885C610.581 407.804 610.655 407.737 610.741 407.693C611.557 407.302 613.701 408.672 613.946 408.835C613.973 408.851 613.994 408.876 614.006 408.906C614.018 408.935 614.02 408.967 614.011 408.998C614.003 409.029 613.987 409.058 613.964 409.081C613.941 409.104 613.912 409.121 613.881 409.128C613.284 409.283 612.671 409.368 612.054 409.381ZM611.1 407.921C611.027 407.917 610.954 407.931 610.888 407.962C610.854 407.98 610.825 408.007 610.805 408.04C610.785 408.073 610.774 408.111 610.774 408.15C610.753 408.259 610.76 408.371 610.794 408.477C610.829 408.582 610.889 408.677 610.969 408.753C611.328 409.071 612.234 409.112 613.416 408.876C612.716 408.404 611.928 408.08 611.1 407.921Z" fill="#D75337"/>
<path d="M613.848 409.136C613.824 409.143 613.799 409.143 613.775 409.136C613.073 408.753 611.76 407.228 611.948 406.453C611.978 406.333 612.048 406.227 612.145 406.15C612.242 406.073 612.362 406.031 612.486 406.029C612.609 406.013 612.735 406.022 612.854 406.058C612.974 406.093 613.084 406.153 613.179 406.233C613.954 406.894 613.995 408.9 613.995 408.981C613.995 409.012 613.987 409.042 613.973 409.069C613.959 409.096 613.938 409.119 613.913 409.136C613.892 409.14 613.87 409.14 613.848 409.136ZM612.584 406.29H612.511C612.299 406.29 612.274 406.413 612.266 406.453C612.152 406.91 612.984 408.084 613.669 408.598C613.666 407.818 613.418 407.059 612.959 406.429C612.855 406.338 612.722 406.289 612.584 406.29Z" fill="#D75337"/>
<path d="M576.766 409.382C576.177 409.437 575.586 409.287 575.094 408.957C574.987 408.854 574.906 408.725 574.859 408.583C574.812 408.441 574.8 408.289 574.825 408.142C574.835 408.05 574.867 407.962 574.918 407.886C574.969 407.809 575.038 407.746 575.119 407.702C575.983 407.229 578.707 408.648 579.017 408.811C579.046 408.827 579.069 408.853 579.082 408.884C579.096 408.915 579.098 408.949 579.09 408.982C579.084 409.016 579.068 409.048 579.043 409.073C579.018 409.098 578.986 409.114 578.952 409.121C578.233 409.273 577.501 409.361 576.766 409.382ZM575.575 407.922C575.469 407.916 575.363 407.936 575.266 407.979C575.234 407.998 575.207 408.024 575.187 408.055C575.167 408.086 575.155 408.121 575.151 408.158C575.135 408.255 575.143 408.353 575.174 408.446C575.205 408.539 575.259 408.622 575.331 408.688C575.739 409.063 576.872 409.129 578.422 408.876C577.535 408.395 576.572 408.072 575.575 407.922Z" fill="#D75337"/>
<path d="M578.927 409.137H578.854C578.038 408.762 576.407 407.261 576.611 406.479C576.611 406.291 576.799 406.063 577.247 406.022C577.408 406.001 577.571 406.015 577.726 406.063C577.881 406.111 578.023 406.192 578.144 406.299C578.96 407.025 579.09 408.892 579.099 408.974C579.098 409.003 579.09 409.032 579.076 409.058C579.062 409.083 579.042 409.105 579.017 409.121C578.99 409.138 578.958 409.143 578.927 409.137ZM577.361 406.291H577.264C576.97 406.291 576.946 406.438 576.937 406.47C576.84 406.943 577.908 408.101 578.74 408.632C578.698 407.852 578.413 407.104 577.924 406.495C577.769 406.358 577.568 406.285 577.361 406.291Z" fill="#D75337"/>
<path d="M640.311 255.002L598.624 260.439C596.797 260.677 595.51 262.351 595.748 264.178L599.297 291.398C599.536 293.224 601.21 294.512 603.036 294.274L644.723 288.837C646.55 288.599 647.838 286.925 647.6 285.098L644.05 257.879C643.812 256.052 642.138 254.764 640.311 255.002Z" fill="#263238"/>
<path opacity="0.3" d="M640.311 255.002L598.624 260.439C596.797 260.677 595.51 262.351 595.748 264.178L599.297 291.398C599.536 293.224 601.21 294.512 603.036 294.274L644.723 288.837C646.55 288.599 647.838 286.925 647.6 285.098L644.05 257.879C643.812 256.052 642.138 254.764 640.311 255.002Z" fill="black"/>
<path d="M617.51 263.999C616.813 263.998 616.135 263.766 615.585 263.338C614.919 262.824 614.482 262.068 614.37 261.234L613.636 255.574C613.582 255.162 613.61 254.743 613.718 254.341C613.827 253.94 614.013 253.564 614.267 253.234C614.52 252.905 614.837 252.628 615.197 252.421C615.558 252.214 615.956 252.08 616.368 252.027L625.787 250.795C626.621 250.686 627.464 250.913 628.13 251.425C628.797 251.938 629.233 252.694 629.343 253.527L630.085 259.187C630.189 260.02 629.961 260.86 629.45 261.526C628.938 262.192 628.185 262.629 627.353 262.743L617.926 263.966C617.788 263.985 617.649 263.996 617.51 263.999ZM626.203 252.581H626.032L616.604 253.813C616.432 253.835 616.265 253.891 616.114 253.977C615.964 254.064 615.831 254.18 615.725 254.318C615.619 254.455 615.541 254.613 615.496 254.781C615.451 254.949 615.44 255.124 615.463 255.297L616.197 260.957C616.245 261.307 616.43 261.623 616.71 261.837C616.848 261.944 617.006 262.021 617.174 262.066C617.342 262.111 617.517 262.122 617.689 262.098L627.108 260.875C627.457 260.826 627.773 260.643 627.988 260.364C628.203 260.085 628.3 259.732 628.258 259.383L627.549 253.788C627.527 253.615 627.471 253.448 627.384 253.297C627.297 253.146 627.181 253.014 627.043 252.907C626.806 252.714 626.509 252.608 626.203 252.606V252.581Z" fill="#263238"/>
<path d="M644.282 254.486L602.595 259.922C600.768 260.16 599.48 261.834 599.718 263.661L603.268 290.881C603.506 292.708 605.18 293.995 607.007 293.757L648.694 288.321C650.521 288.082 651.808 286.409 651.57 284.582L648.021 257.362C647.782 255.535 646.108 254.248 644.282 254.486Z" fill="#263238"/>
<path d="M619.817 247.158L617.158 252.337L624.955 252.695C625.517 251.565 625.722 250.289 625.541 249.039C625.36 247.789 624.803 246.624 623.943 245.698L619.817 247.158Z" fill="#FFB8A8"/>
<path d="M620.135 256.349L624.783 255.713L624.955 252.696L617.158 252.337L617.281 254.025C617.304 254.369 617.398 254.705 617.557 255.012C617.716 255.318 617.936 255.589 618.203 255.806C618.471 256.024 618.781 256.185 619.113 256.278C619.445 256.372 619.793 256.396 620.135 256.349Z" fill="#FFB8A8"/>
<path d="M614.353 216.837C614.231 217.473 615.096 219.83 615.732 220.743C616.368 221.657 626.888 222.464 628.242 220.393C629.596 218.321 629.653 214.635 629.008 213.404C628.364 212.172 614.606 215.459 614.353 216.837Z" fill="#D75337"/>
<path d="M460.676 191.384C459.363 193.105 457.935 194.989 456.598 196.84C455.261 198.691 453.972 200.575 452.741 202.484C450.271 206.146 448.139 210.024 446.371 214.072C446.167 214.553 445.98 215.035 445.817 215.516C445.73 215.755 445.648 215.991 445.572 216.225L445.458 216.584L445.409 216.755V216.804C445.26 217.429 445.229 218.076 445.319 218.713C445.601 220.764 446.084 222.783 446.763 224.739C448.157 228.955 450.025 233.302 451.86 237.518L447.692 240.161C444.566 236.303 441.859 232.123 439.619 227.691C438.384 225.299 437.445 222.766 436.822 220.148C436.417 218.454 436.35 216.697 436.626 214.977L436.691 214.586L436.756 214.325L436.879 213.819C436.952 213.485 437.034 213.151 437.131 212.824C437.311 212.164 437.507 211.528 437.719 210.892C439.424 206.093 441.65 201.496 444.357 197.183C445.662 195.071 446.999 192.999 448.435 191.001C449.87 189.003 451.289 187.062 452.944 185.072L460.676 191.384Z" fill="#263238"/>
<path d="M450.758 236.01L455.048 238.285L450.155 244.067C450.155 244.067 447.072 241.979 446.893 238.799L450.758 236.01Z" fill="#FFC3BD"/>
<path d="M460.823 241.849L455.538 246.049L450.115 244.067L455.049 238.285L460.823 241.849Z" fill="#FFC3BD"/>
<path d="M524.939 223.613L530.011 226.231L529.563 228.058L525.485 232.135C525.485 232.135 522.549 229.852 522.614 226.671L524.939 223.613Z" fill="#FFC3BD"/>
<path d="M525.672 224.332L530.32 223.459L533.305 224.731L531.315 225.066L530.01 226.248L525.672 224.332Z" fill="#FFC3BD"/>
<path d="M535.092 232.739L530.052 233.824C529.524 233.936 528.973 233.87 528.487 233.636L525.461 232.169L529.539 228.091L532.238 227.275L535.614 231.149C535.719 231.278 535.79 231.432 535.82 231.596C535.851 231.76 535.839 231.928 535.787 232.087C535.735 232.245 535.644 232.388 535.523 232.502C535.402 232.616 535.253 232.697 535.092 232.739Z" fill="#FFC3BD"/>
<path d="M479.262 158.323C479.376 158.87 479.751 159.253 480.077 159.139C480.404 159.025 480.632 158.56 480.526 158.013C480.42 157.467 480.029 157.084 479.71 157.198C479.392 157.312 479.123 157.777 479.262 158.323Z" fill="#263238"/>
<path d="M479.701 159.261C480.693 160.801 481.893 162.198 483.265 163.412C482.449 164.513 480.753 164.431 480.753 164.431L479.701 159.261Z" fill="#FF5652"/>
<path d="M476.677 155.689C476.596 155.685 476.518 155.654 476.457 155.599C476.397 155.537 476.363 155.453 476.363 155.367C476.363 155.28 476.397 155.196 476.457 155.134C476.802 154.744 477.235 154.442 477.72 154.253C478.205 154.064 478.729 153.995 479.246 154.049C479.322 154.074 479.387 154.125 479.429 154.193C479.47 154.261 479.486 154.342 479.473 154.421C479.46 154.5 479.42 154.572 479.359 154.623C479.298 154.675 479.22 154.703 479.14 154.702C478.73 154.664 478.316 154.724 477.933 154.877C477.55 155.03 477.209 155.272 476.938 155.583C476.906 155.619 476.866 155.648 476.82 155.666C476.775 155.684 476.726 155.692 476.677 155.689Z" fill="#263238"/>
<path d="M464.443 167.986C465.389 172.798 465.952 179.461 462.592 182.666C462.592 182.666 463.905 187.559 472.843 187.559C482.678 187.559 477.573 183.269 477.573 183.269C473.495 182.005 473.495 177.349 474.458 173.613L464.443 167.986Z" fill="#FFC3BD"/>
<path d="M461.181 185.961C460.366 184.672 460.635 180.766 461.613 180.13C463.179 179.102 469.638 179.217 478.209 181.72C477.051 185.455 478.935 187.559 478.935 187.559L461.181 185.961Z" fill="#D75337"/>
<path opacity="0.2" d="M454.003 192.885C450.945 195.902 450.056 202.084 450.391 206.3C451.141 205.02 451.94 203.739 452.764 202.492C453.995 200.575 455.308 198.708 456.629 196.832C456.996 196.318 457.371 195.796 457.755 195.274C457.828 194.94 457.893 194.606 457.959 194.279L454.003 192.885Z" fill="black"/>
<path d="M432.344 407.922C432.878 408.108 433.465 408.076 433.975 407.832C434.074 407.742 434.142 407.624 434.17 407.494C434.197 407.364 434.184 407.228 434.13 407.106C434.1 407.006 434.049 406.913 433.98 406.835C433.911 406.756 433.826 406.693 433.731 406.649C432.842 406.225 430.795 407.057 430.713 407.09C430.685 407.101 430.661 407.12 430.644 407.145C430.626 407.169 430.616 407.198 430.615 407.228C430.614 407.259 430.622 407.289 430.638 407.316C430.654 407.342 430.677 407.362 430.705 407.375C431.231 407.615 431.78 407.798 432.344 407.922ZM433.421 406.87L433.6 406.927C433.657 406.952 433.707 406.989 433.748 407.035C433.789 407.082 433.819 407.136 433.837 407.196C433.918 407.473 433.837 407.563 433.78 407.595C433.429 407.897 432.149 407.595 431.194 407.245C431.907 406.941 432.68 406.804 433.453 406.845L433.421 406.87Z" fill="#D75337"/>
<path d="M430.746 407.367H430.819C431.57 407.155 433.16 406.021 433.176 405.279C433.179 405.162 433.14 405.047 433.067 404.954C432.994 404.862 432.892 404.798 432.777 404.774C432.664 404.731 432.543 404.715 432.424 404.724C432.304 404.734 432.188 404.771 432.083 404.831C431.211 405.279 430.656 407.098 430.632 407.171C430.62 407.195 430.613 407.222 430.613 407.249C430.613 407.276 430.62 407.302 430.632 407.326C430.664 407.353 430.704 407.368 430.746 407.367ZM432.605 405.034H432.679C432.866 405.1 432.866 405.198 432.866 405.238C432.866 405.679 431.806 406.559 431.031 406.918C431.239 406.199 431.657 405.557 432.23 405.075C432.292 405.041 432.36 405.02 432.43 405.013C432.5 405.006 432.571 405.013 432.638 405.034H432.605Z" fill="#D75337"/>
<path d="M480.91 408.997C481.725 408.997 482.541 408.883 482.843 408.5C482.912 408.401 482.95 408.283 482.95 408.162C482.95 408.04 482.912 407.922 482.843 407.823C482.731 407.64 482.553 407.508 482.345 407.456C481.252 407.162 478.953 408.467 478.855 408.524C478.826 408.54 478.804 408.564 478.79 408.593C478.777 408.623 478.774 408.656 478.781 408.688C478.786 408.719 478.8 408.749 478.822 408.772C478.844 408.796 478.872 408.812 478.904 408.818C479.566 408.935 480.237 408.995 480.91 408.997ZM481.954 407.725C482.054 407.712 482.155 407.712 482.255 407.725C482.318 407.739 482.378 407.765 482.43 407.803C482.482 407.841 482.525 407.889 482.557 407.945C482.671 408.141 482.631 408.231 482.557 408.288C482.255 408.712 480.592 408.72 479.368 408.549C480.169 408.111 481.047 407.831 481.954 407.725Z" fill="#D75337"/>
<path d="M478.919 408.818H478.984C479.799 408.467 481.349 407.04 481.235 406.298C481.235 406.118 481.08 405.906 480.656 405.857C480.501 405.843 480.345 405.86 480.197 405.906C480.048 405.952 479.911 406.027 479.791 406.127C478.976 406.82 478.772 408.573 478.764 408.663C478.763 408.689 478.769 408.716 478.78 408.74C478.791 408.764 478.808 408.785 478.829 408.801C478.857 408.816 478.888 408.821 478.919 408.818ZM480.55 406.151H480.648C480.925 406.151 480.941 406.29 480.949 406.322C481.023 406.771 479.954 407.888 479.147 408.369C479.22 407.622 479.521 406.916 480.011 406.347C480.155 406.224 480.336 406.155 480.525 406.151H480.55Z" fill="#D75337"/>
<path d="M471.693 408.664H478.266L478.919 393.43H472.346L471.693 408.664Z" fill="#FFC3BD"/>
<path d="M423.529 405.85L429.874 407.195L435.632 392.622L429.287 391.276L423.529 405.85Z" fill="#FFC3BD"/>
<path d="M430.461 406.363L423.235 404.798C423.109 404.771 422.977 404.788 422.861 404.845C422.746 404.903 422.653 404.998 422.599 405.116L420.087 410.555C420.027 410.688 419.997 410.833 420 410.98C420.004 411.126 420.04 411.269 420.107 411.4C420.173 411.53 420.269 411.643 420.385 411.731C420.502 411.82 420.637 411.88 420.78 411.909C423.317 412.406 424.573 412.529 427.745 413.214C429.702 413.638 434.114 414.714 436.814 415.293C439.513 415.872 440.434 413.287 439.382 412.806C434.669 410.653 432.695 408.728 431.415 406.983C431.185 406.665 430.845 406.444 430.461 406.363Z" fill="#263238"/>
<path d="M478.224 407.921H471.039C470.909 407.923 470.783 407.968 470.681 408.049C470.579 408.13 470.507 408.243 470.477 408.369L469.18 414.217C469.148 414.358 469.148 414.505 469.181 414.646C469.214 414.788 469.278 414.92 469.369 415.032C469.46 415.145 469.575 415.236 469.706 415.298C469.838 415.36 469.981 415.392 470.126 415.391C472.719 415.342 476.463 415.195 479.716 415.195C483.525 415.195 484.879 415.399 489.34 415.399C492.039 415.399 492.789 412.675 491.664 412.423C486.518 411.297 484.251 411.175 479.806 408.435C479.336 408.122 478.788 407.944 478.224 407.921Z" fill="#263238"/>
<path opacity="0.2" d="M478.92 393.438L478.585 401.283H472.004L472.338 393.438H478.92Z" fill="black"/>
<path opacity="0.2" d="M429.287 391.276L435.632 392.622L432.663 400.133L426.318 398.795L429.287 391.276Z" fill="black"/>
<path d="M476.399 241.352C476.399 241.352 468.928 291.62 464.834 310.451C460.349 331.075 436.291 399.343 436.291 399.343L424.482 396.749C424.482 396.749 441.315 341.147 445.074 312.318C447.969 290.177 453.67 241.368 453.67 241.368L476.399 241.352Z" fill="#263238"/>
<path opacity="0.1" d="M476.399 241.352C476.399 241.352 468.928 291.62 464.834 310.451C460.349 331.075 436.291 399.343 436.291 399.343L424.482 396.749C424.482 396.749 441.315 341.147 445.074 312.318C447.969 290.177 453.67 241.368 453.67 241.368L476.399 241.352Z" fill="white"/>
<path d="M439.104 395.371C439.153 395.371 436.91 399.628 436.91 399.628L423.666 396.757L424.783 392.777L439.104 395.371Z" fill="#263238"/>
<path opacity="0.3" d="M471.679 259.26C463.051 260.957 463.964 293.145 465 309.7C467.446 297.998 471.132 275.449 473.628 259.497C473.023 259.202 472.337 259.119 471.679 259.26Z" fill="black"/>
<path d="M488.91 241.352C488.91 241.352 489.815 290.527 489.097 310.589C488.355 331.45 481.073 399.767 481.073 399.767H469.892C469.892 399.767 469.484 332.674 468.987 312.18C468.448 289.842 465.725 241.352 465.725 241.352H488.91Z" fill="#263238"/>
<path opacity="0.1" d="M488.91 241.352C488.91 241.352 489.815 290.527 489.097 310.589C488.355 331.45 481.073 399.767 481.073 399.767H469.892C469.892 399.767 469.484 332.674 468.987 312.18C468.448 289.842 465.725 241.352 465.725 241.352H488.91Z" fill="white"/>
<path d="M483.2 395.33C483.249 395.33 482.564 399.954 482.564 399.954H468.994L468.627 395.828L483.2 395.33Z" fill="#263238"/>
<path d="M489.773 190.756C491.119 197.867 493.614 217.733 489.716 246.636L451.647 246.048C451.427 241 455.44 213.599 451.729 189.272C451.626 188.582 451.661 187.878 451.832 187.202C452.004 186.525 452.308 185.89 452.728 185.333C453.148 184.775 453.675 184.307 454.278 183.956C454.88 183.605 455.547 183.377 456.239 183.286C458.164 183.025 460.398 182.78 462.6 182.674C467.579 182.389 472.57 182.389 477.548 182.674C479.179 182.829 480.811 183.066 482.262 183.318C484.12 183.651 485.834 184.54 487.175 185.868C488.516 187.197 489.422 188.901 489.773 190.756Z" fill="#263238"/>
<path opacity="0.2" d="M490.818 197.818L484.408 199.409C483.919 205.395 487.866 212.172 491.813 217.35C491.853 210.826 491.521 204.305 490.818 197.818Z" fill="black"/>
<path d="M488.183 187.56C489.267 189.509 490.442 191.637 491.649 193.619C492.856 195.601 494.095 197.631 495.343 199.589C497.747 203.435 500.476 207.069 503.498 210.451C503.873 210.835 504.24 211.226 504.615 211.585L504.893 211.854L505.113 212.05C505.235 212.18 505.447 212.327 505.602 212.466C506.353 213.053 507.233 213.673 508.204 214.268C510.12 215.45 512.175 216.608 514.263 217.726C518.439 219.968 522.761 222.17 527.026 224.397L525.338 229.037C520.511 227.881 515.759 226.435 511.107 224.707C508.775 223.834 506.434 222.888 504.094 221.738C502.849 221.145 501.642 220.475 500.481 219.732C500.163 219.504 499.861 219.324 499.518 219.055L499.029 218.68L498.63 218.345C498.083 217.905 497.586 217.448 497.08 216.992C495.153 215.195 493.355 213.266 491.698 211.218C490.067 209.236 488.542 207.14 487.098 205.11C485.655 203.079 484.285 200.926 483.02 198.765C481.756 196.604 480.501 194.483 479.326 192.135L488.183 187.56Z" fill="#263238"/>
<path d="M460.766 160.867C462.544 167.505 463.212 171.469 467.347 174.241C473.512 178.401 481.211 173.63 481.423 166.592C481.635 160.263 478.691 150.469 471.572 149.132C470.002 148.827 468.38 148.929 466.861 149.428C465.342 149.927 463.976 150.807 462.893 151.983C461.81 153.159 461.046 154.593 460.674 156.148C460.301 157.703 460.333 159.328 460.766 160.867Z" fill="#FFC3BD"/>
<path d="M474.556 160.949C476.138 158.625 476.741 155.053 475.632 153.332C476.668 153.764 484.138 154.278 481.211 148.961C478.283 143.643 472.411 142.175 467.298 143.643L469.785 144.361C469.785 144.361 462.796 143.855 459.395 146.685C460.431 146.742 461.328 146.685 461.328 146.685C461.328 146.685 453.842 150.217 457.104 152.9C451.844 156.904 455.407 162.449 464.068 170.719C465.577 172.081 469.85 171.583 470.796 170.768C470.193 167.163 473.667 162.27 474.556 160.949Z" fill="#263238"/>
<path d="M475.436 156.423C476.986 157.556 478.902 160.892 479.791 162.556C480.68 164.219 481.618 164.007 482.066 164.668C482.515 165.328 484.35 176.501 482.384 178.287C480.419 180.073 474.506 177.251 473.732 175.196C472.957 173.141 474.376 168.101 474.759 166.951C475.162 164.965 475.044 162.909 474.417 160.982C473.732 159.033 475.436 156.423 475.436 156.423Z" fill="#263238"/>
<path d="M471.946 161.259C472.157 162.072 472.529 162.835 473.04 163.501C473.552 164.168 474.192 164.726 474.922 165.141C476.724 165.956 476.945 163.86 476.594 161.879C476.276 160.076 475.778 158.616 474.319 157.915C472.598 157.026 471.35 159.285 471.946 161.259Z" fill="#FFC3BD"/>
</svg>
