<svg width="555" height="424" viewBox="0 0 555 424" fill="none" xmlns="http://www.w3.org/2000/svg">
<path d="M81.1824 380.487C189.432 438.498 364.94 438.498 473.189 380.487C581.438 322.475 581.426 228.432 473.189 170.421C364.952 112.409 189.432 112.409 81.1824 170.421C-27.0668 228.432 -27.0548 322.487 81.1824 380.487Z" fill="#F5F5F5"/>
<path d="M116.41 5.13008L108.025 9.92146C108.025 9.55012 108.097 9.17879 108.097 8.81944V6.42375C108.097 2.13547 105.079 0.434524 101.365 2.54273C99.7629 3.52081 98.3933 4.83719 97.3526 6.39979C96.7417 0.997512 92.5613 -1.01487 87.3626 1.95579C81.8046 5.16601 77.2887 12.976 77.2887 19.4084V23.0019C77.2716 24.4682 77.5913 25.9189 78.2231 27.2423L71.3115 31.2311C70.2244 31.9401 69.3196 32.8952 68.6704 34.019C68.0211 35.1427 67.6456 36.4036 67.5742 37.6995C67.5742 40.0952 69.2512 41.0534 71.3115 39.8556L116.41 13.7546C117.498 13.0462 118.403 12.0913 119.053 10.9674C119.702 9.84352 120.077 8.5823 120.148 7.28619C120.172 4.91446 118.495 3.94421 116.41 5.13008Z" fill="#EBEBEB"/>
<path d="M152.07 29.3983L145.781 32.9918C145.799 32.7126 145.799 32.4326 145.781 32.1534V30.3686C145.781 27.1344 143.506 25.8168 140.703 27.4339C139.497 28.1777 138.464 29.17 137.672 30.3446C137.217 26.2719 134.019 24.7627 130.138 27.0026C127.921 28.4438 126.076 30.3886 124.754 32.6786C123.432 34.9685 122.671 37.5385 122.531 40.1789V42.898C122.508 43.9872 122.729 45.0679 123.178 46.0603L117.956 49.0669C117.136 49.6034 116.454 50.3253 115.965 51.1744C115.475 52.0234 115.193 52.9757 115.141 53.9541C115.141 55.7509 116.398 56.4816 117.956 55.5832L152.01 35.9146C152.83 35.3807 153.512 34.661 154.001 33.8138C154.49 32.9667 154.773 32.0161 154.825 31.0394C154.885 29.2306 153.627 28.4999 152.07 29.3983Z" fill="#EBEBEB"/>
<path d="M488.64 62.0633L482.352 65.6568C482.369 65.3776 482.369 65.0976 482.352 64.8183V62.9976C482.352 59.7634 480.076 58.4458 477.273 60.0749C476.062 60.8118 475.028 61.8054 474.242 62.9856C473.787 58.9129 470.649 57.3917 466.708 59.6317C464.493 61.0741 462.651 63.0196 461.331 65.3094C460.011 67.5993 459.252 70.1686 459.114 72.8079V75.5271C459.083 76.6156 459.3 77.697 459.748 78.6894L454.538 81.696C453.716 82.2318 453.032 82.9533 452.541 83.8023C452.05 84.6513 451.766 85.6039 451.711 86.5831C451.711 88.3799 452.981 89.1106 454.538 88.2122L488.593 68.5436C489.412 68.0098 490.094 67.29 490.583 66.4429C491.073 65.5958 491.355 64.6452 491.407 63.6684C491.455 61.8956 490.198 61.1649 488.64 62.0633Z" fill="#EBEBEB"/>
<path d="M113.236 178.697L19.8164 232.636V237.128L105.45 286.563L198.87 232.636V228.144L113.236 178.697Z" fill="#D75337"/>
<path opacity="0.15" d="M19.8164 232.637L105.45 282.072V286.564L19.8164 237.129V232.637Z" fill="black"/>
<path opacity="0.1" d="M105.449 282.071L198.869 228.145V232.636L105.449 286.563V282.071Z" fill="black"/>
<path d="M190.559 211.925L186.867 219.199L187.465 219.503L191.157 212.229L190.559 211.925Z" fill="#455A64"/>
<path d="M183.734 211.356L183.164 211.709L186.764 217.524L187.335 217.171L183.734 211.356Z" fill="#455A64"/>
<path d="M187.731 210.68V228.216C187.729 228.265 187.713 228.312 187.685 228.352C187.658 228.392 187.62 228.424 187.575 228.444C187.454 228.509 187.318 228.543 187.18 228.543C187.042 228.543 186.907 228.509 186.785 228.444C186.738 228.426 186.698 228.395 186.668 228.354C186.638 228.314 186.621 228.266 186.617 228.216V210.68H187.731Z" fill="#455A64"/>
<path d="M200.99 205.229C200.99 206.84 200.512 208.415 199.617 209.755C198.722 211.094 197.45 212.138 195.962 212.755C194.473 213.371 192.836 213.532 191.255 213.218C189.675 212.904 188.224 212.128 187.085 210.989C185.946 209.85 185.17 208.398 184.856 206.818C184.541 205.238 184.703 203.601 185.319 202.112C185.936 200.624 186.98 199.352 188.319 198.457C189.659 197.562 191.234 197.084 192.845 197.084C195.004 197.087 197.074 197.946 198.601 199.473C200.128 201 200.987 203.07 200.99 205.229Z" fill="#D75337"/>
<path opacity="0.2" d="M195.398 203.147C196.452 199.84 197.566 198.547 196.859 198.14C195.51 197.374 193.971 197.009 192.422 197.089C190.873 197.168 189.379 197.688 188.116 198.587C186.852 199.487 185.871 200.728 185.289 202.165C184.707 203.603 184.547 205.177 184.829 206.702C185.11 208.227 185.821 209.64 186.878 210.775C187.935 211.91 189.294 212.719 190.796 213.108C192.297 213.497 193.878 213.45 195.353 212.971C196.829 212.492 198.136 211.602 199.123 210.405C196.668 211.112 194.032 207.435 195.398 203.147Z" fill="black"/>
<path d="M185.742 207.528C185.742 208.661 185.407 209.768 184.777 210.709C184.148 211.651 183.254 212.385 182.208 212.818C181.162 213.252 180.01 213.365 178.9 213.144C177.789 212.923 176.769 212.378 175.968 211.577C175.167 210.776 174.622 209.756 174.401 208.645C174.18 207.535 174.293 206.384 174.727 205.337C175.16 204.291 175.894 203.397 176.836 202.768C177.777 202.139 178.884 201.803 180.017 201.803C181.535 201.803 182.992 202.406 184.065 203.48C185.139 204.554 185.742 206.01 185.742 207.528Z" fill="#D75337"/>
<path opacity="0.2" d="M180.018 201.803C178.816 201.803 177.646 202.184 176.676 202.893C176.52 206.379 179.491 209.792 178.652 210.942C177.814 212.092 175.789 211.386 175.059 210.403C175.563 211.272 176.287 211.993 177.158 212.493C178.03 212.994 179.017 213.256 180.022 213.254C181.026 213.252 182.013 212.986 182.882 212.482C183.751 211.978 184.472 211.254 184.973 210.383C185.474 209.512 185.737 208.525 185.736 207.52C185.735 206.516 185.469 205.529 184.965 204.66C184.462 203.79 183.739 203.068 182.868 202.567C181.998 202.066 181.01 201.802 180.006 201.803H180.018Z" fill="black"/>
<path d="M187.181 211.867C192.983 211.867 197.686 207.163 197.686 201.362C197.686 195.56 192.983 190.856 187.181 190.856C181.379 190.856 176.676 195.56 176.676 201.362C176.676 207.163 181.379 211.867 187.181 211.867Z" fill="#D75337"/>
<path opacity="0.1" d="M197.396 203.756C196.999 205.457 196.185 207.032 195.026 208.339C193.868 209.646 192.401 210.643 190.76 211.241C189.119 211.839 187.355 212.018 185.627 211.762C183.9 211.506 182.263 210.824 180.865 209.777C179.468 208.729 178.353 207.35 177.623 205.763C176.893 204.177 176.569 202.433 176.682 200.691C176.795 198.948 177.341 197.261 178.27 195.782C179.199 194.303 180.482 193.079 182.004 192.221C181.116 192.744 180.309 193.394 179.608 194.149C179.086 196.395 179.318 198.75 180.268 200.85C181.218 202.951 182.833 204.68 184.865 205.771C186.896 206.861 189.23 207.253 191.506 206.884C193.781 206.516 195.872 205.408 197.456 203.732L197.396 203.756Z" fill="black"/>
<path d="M34.9146 216.402L31.2227 223.676L31.8208 223.979L35.5127 216.705L34.9146 216.402Z" fill="#455A64"/>
<path d="M28.0606 215.823L27.4902 216.176L31.0904 221.991L31.6607 221.638L28.0606 215.823Z" fill="#455A64"/>
<path d="M32.071 215.148V232.685C32.0662 232.734 32.0481 232.782 32.0186 232.822C31.9891 232.862 31.9492 232.893 31.9033 232.912C31.78 232.972 31.6449 233.003 31.508 233.003C31.3712 233.003 31.2361 232.972 31.1128 232.912C31.0683 232.893 31.0302 232.861 31.0027 232.821C30.9753 232.78 30.9594 232.734 30.957 232.685V215.148H32.071Z" fill="#455A64"/>
<path d="M45.3298 209.685C45.3298 211.296 44.852 212.871 43.957 214.211C43.062 215.55 41.7899 216.594 40.3015 217.211C38.8131 217.827 37.1754 217.989 35.5953 217.674C34.0153 217.36 32.5639 216.584 31.4248 215.445C30.2856 214.306 29.5099 212.855 29.1956 211.274C28.8813 209.694 29.0426 208.057 29.6591 206.568C30.2756 205.08 31.3196 203.808 32.6591 202.913C33.9986 202.018 35.5734 201.54 37.1844 201.54C39.3447 201.54 41.4165 202.398 42.944 203.926C44.4716 205.453 45.3298 207.525 45.3298 209.685Z" fill="#D75337"/>
<path opacity="0.2" d="M39.7475 207.601C40.8016 204.295 41.9156 203.001 41.2088 202.606C39.9883 201.904 38.6041 201.536 37.196 201.54C35.8236 201.539 34.4732 201.886 33.2703 202.546C32.0675 203.207 31.051 204.161 30.3155 205.32C29.5799 206.479 29.1491 207.804 29.0629 209.174C28.9768 210.544 29.2382 211.913 29.8228 213.155C30.4074 214.397 31.2962 215.471 32.4069 216.277C33.5175 217.083 34.8139 217.596 36.1756 217.767C37.5373 217.938 38.9202 217.763 40.1959 217.257C41.4717 216.751 42.5988 215.93 43.4728 214.872C41.0531 215.579 38.3699 211.889 39.7475 207.601Z" fill="black"/>
<path d="M30.0823 211.998C30.0823 213.131 29.7464 214.238 29.1173 215.179C28.4882 216.121 27.5939 216.855 26.5477 217.288C25.5015 217.721 24.3502 217.835 23.2395 217.614C22.1289 217.393 21.1086 216.848 20.3079 216.047C19.5071 215.246 18.9618 214.226 18.7409 213.115C18.52 212.005 18.6333 210.853 19.0667 209.807C19.5001 208.761 20.2339 207.867 21.1755 207.237C22.1171 206.608 23.2241 206.272 24.3566 206.272C25.1089 206.271 25.8542 206.418 26.5496 206.705C27.2449 206.992 27.8768 207.414 28.4088 207.946C28.9408 208.478 29.3624 209.11 29.6496 209.805C29.9368 210.501 30.0838 211.246 30.0823 211.998Z" fill="#D75337"/>
<path opacity="0.2" d="M24.3575 206.273C23.1573 206.268 21.9869 206.646 21.0155 207.351C20.8598 210.848 23.8185 214.262 22.992 215.4C22.1655 216.538 20.1171 215.843 19.3984 214.873C19.9029 215.742 20.6271 216.463 21.4982 216.963C22.3694 217.464 23.357 217.726 24.3616 217.724C25.3663 217.722 26.3528 217.456 27.2219 216.952C28.0911 216.448 28.8124 215.724 29.3133 214.853C29.8142 213.982 30.0772 212.995 30.0758 211.99C30.0744 210.985 29.8086 209.999 29.3053 209.129C28.8019 208.26 28.0786 207.538 27.208 207.037C26.3374 206.535 25.3502 206.272 24.3455 206.273H24.3575Z" fill="black"/>
<path d="M31.507 216.322C37.3089 216.322 42.0121 211.618 42.0121 205.817C42.0121 200.015 37.3089 195.312 31.507 195.312C25.7052 195.312 21.002 200.015 21.002 205.817C21.002 211.618 25.7052 216.322 31.507 216.322Z" fill="#D75337"/>
<path opacity="0.1" d="M41.7259 208.224C41.3248 209.92 40.5077 211.489 39.3484 212.79C38.1891 214.09 36.7241 215.082 35.0856 215.675C33.4471 216.268 31.6868 216.444 29.9634 216.186C28.2401 215.929 26.608 215.246 25.2146 214.2C23.8211 213.154 22.7101 211.777 21.9818 210.194C21.2536 208.611 20.931 206.871 21.0433 205.133C21.1555 203.394 21.699 201.71 22.6247 200.234C23.5504 198.758 24.8292 197.535 26.3456 196.677C25.4394 197.199 24.6125 197.849 23.89 198.605C23.3722 200.848 23.6065 203.199 24.5567 205.296C25.5068 207.393 27.1201 209.119 29.148 210.209C31.1759 211.298 33.5058 211.691 35.7787 211.326C38.0516 210.96 40.1413 209.858 41.7259 208.188V208.224Z" fill="black"/>
<path d="M134.438 251.85L147.482 244.327L159.185 251.083L146.152 258.593L134.438 251.85Z" fill="#F0F0F0"/>
<path d="M43.1878 232.637L43.1758 192.186L105.464 228.133V268.596L43.1878 232.637Z" fill="#F0F0F0"/>
<path d="M43.1758 208.237L105.464 244.208V228.133L43.1758 192.186V208.237Z" fill="#E0E0E0"/>
<path d="M175.513 228.132V188.807L152.155 183.189V178.697L105.463 228.132V268.595L175.513 228.132Z" fill="#FAFAFA"/>
<path d="M152.154 178.697V183.189L179.405 189.933V185.441L152.154 178.697Z" fill="#263238"/>
<path d="M117.142 149.482L179.406 185.441L152.155 178.698L89.8789 142.738L117.142 149.482Z" fill="#37474F"/>
<path d="M101.557 234.9L152.166 178.697V174.205L97.6641 237.128L101.557 234.9Z" fill="#37474F"/>
<path d="M89.8906 138.246L152.167 174.205L97.7604 237.188L35.3887 201.169L89.8906 138.246Z" fill="#455A64"/>
<path d="M70.3535 196.51L78.1994 201.038V212.405L70.3535 207.913V196.51Z" fill="#263238"/>
<path d="M78.1992 201.038L86.0331 196.51V203.421L78.1992 212.405V201.038Z" fill="#37474F"/>
<path d="M78.1995 188.808L69.5391 193.803V196.067L78.1995 201.038L86.8479 196.067V193.803L78.1995 188.808Z" fill="#F5F5F5"/>
<path d="M69.5391 196.067L78.1995 201.038V198.774L69.5391 193.803V196.067Z" fill="#E0E0E0"/>
<path d="M86.8477 196.067L78.1992 201.038V198.774L86.8477 193.803V196.067Z" fill="#EBEBEB"/>
<path d="M72.4492 193.801L78.1989 190.483L83.9485 193.801L78.1989 197.107L72.4492 193.801Z" fill="#D75337"/>
<path d="M78.1989 190.483V197.107L72.4492 193.801L78.1989 190.483Z" fill="#37474F"/>
<path d="M78.1992 190.483L83.9489 193.801L78.1992 197.107V190.483Z" fill="#263238"/>
<path d="M110.506 238.709L128.03 228.6V242.087L110.506 252.197V238.709Z" fill="#455A64"/>
<path d="M127.252 241.633V229.056L110.506 238.71V251.3L127.252 241.633Z" fill="#E0E0E0"/>
<path d="M128.03 242.088L127.252 241.633L110.506 251.299V252.198L128.03 242.088Z" fill="#37474F"/>
<path d="M110.506 245.453L128.03 235.343V234.433L110.506 244.542V245.453Z" fill="#455A64"/>
<path d="M153.328 213.974L170.841 203.864V217.352L153.328 227.462V213.974Z" fill="#455A64"/>
<path d="M170.062 216.896V204.318L153.328 213.973V226.562L170.062 216.896Z" fill="#E0E0E0"/>
<path d="M170.841 217.352L170.062 216.896L153.328 226.563V227.461L170.841 217.352Z" fill="#37474F"/>
<path d="M153.328 220.718L170.841 210.609V209.698L153.328 219.82V220.718Z" fill="#455A64"/>
<path d="M134.438 251.849V224.886L147.482 217.363V244.327L134.438 251.849Z" fill="#37474F"/>
<path d="M147.027 243.98V217.627L134.438 224.886V251.238L147.027 243.98Z" fill="#455A64"/>
<path d="M147.483 217.363L147.027 217.627V243.979L147.483 244.327V217.363Z" fill="#263238"/>
<path d="M91.2453 233.427L82.0938 228.145V241.62L91.2453 246.903V233.427Z" fill="#455A64"/>
<path d="M82.8711 241.165V228.588L91.244 233.427V246.005L82.8711 241.165Z" fill="#FAFAFA"/>
<path d="M82.0938 241.619L82.8724 241.164L91.2453 246.003V246.902L82.0938 241.619Z" fill="#37474F"/>
<path d="M91.2453 240.123L82.0938 234.876V233.966L91.2453 239.212V240.123Z" fill="#455A64"/>
<path d="M82.8711 228.588L91.244 233.427V236.026L82.8711 231.223V228.588Z" fill="#F5F5F5"/>
<path d="M63.9933 217.687L54.8418 212.404V225.892L63.9933 231.175V217.687Z" fill="#455A64"/>
<path d="M55.6328 225.438V212.86L63.9938 217.688V230.265L55.6328 225.438Z" fill="#FAFAFA"/>
<path d="M54.8418 225.893L55.6324 225.438L63.9933 230.265V231.175L54.8418 225.893Z" fill="#37474F"/>
<path d="M63.9933 224.382L54.8418 219.136V218.226L63.9933 223.472V224.382Z" fill="#455A64"/>
<path d="M55.6328 212.86L63.9938 217.688V220.179L55.6328 215.388V212.86Z" fill="#F5F5F5"/>
<path d="M437.266 174.768L343.846 228.707V233.198L437.266 287.137L530.697 233.198V228.707L437.266 174.768Z" fill="#D75337"/>
<path opacity="0.15" d="M343.846 228.706L437.278 282.645L437.266 287.137L343.846 233.198V228.706Z" fill="black"/>
<path opacity="0.1" d="M437.278 282.645L530.698 228.706V233.198L437.266 287.137L437.278 282.645Z" fill="black"/>
<path d="M522.645 212.635L518.953 219.909L519.551 220.213L523.243 212.939L522.645 212.635Z" fill="#455A64"/>
<path d="M516.758 210.019L516.188 210.375L519.813 216.189L520.383 215.833L516.758 210.019Z" fill="#455A64"/>
<path d="M519.833 211.397V228.934C519.83 228.983 519.815 229.029 519.787 229.07C519.76 229.11 519.721 229.142 519.677 229.161C519.555 229.227 519.42 229.261 519.282 229.261C519.144 229.261 519.008 229.227 518.886 229.161C518.841 229.142 518.801 229.111 518.771 229.071C518.742 229.031 518.724 228.983 518.719 228.934V211.397H519.833Z" fill="#455A64"/>
<path d="M533.093 205.947C533.093 207.558 532.616 209.133 531.721 210.472C530.826 211.812 529.554 212.856 528.065 213.472C526.577 214.089 524.939 214.25 523.359 213.936C521.779 213.622 520.328 212.846 519.188 211.707C518.049 210.568 517.274 209.116 516.959 207.536C516.645 205.956 516.806 204.318 517.423 202.83C518.039 201.342 519.083 200.07 520.423 199.175C521.762 198.279 523.337 197.802 524.948 197.802C527.108 197.802 529.18 198.66 530.708 200.187C532.235 201.715 533.093 203.787 533.093 205.947Z" fill="#D75337"/>
<path opacity="0.2" d="M527.501 203.863C528.555 200.557 529.681 199.263 528.962 198.856C527.613 198.092 526.073 197.729 524.524 197.81C522.976 197.891 521.482 198.412 520.22 199.313C518.957 200.213 517.978 201.456 517.397 202.894C516.817 204.332 516.658 205.905 516.941 207.43C517.224 208.955 517.937 210.367 518.995 211.501C520.053 212.635 521.412 213.443 522.914 213.831C524.415 214.219 525.996 214.17 527.471 213.69C528.946 213.21 530.253 212.319 531.238 211.122C528.819 211.828 526.147 208.115 527.501 203.863Z" fill="black"/>
<path d="M517.846 208.247C517.846 209.38 517.51 210.487 516.881 211.428C516.252 212.37 515.358 213.104 514.311 213.537C513.265 213.97 512.114 214.084 511.003 213.863C509.893 213.642 508.872 213.097 508.072 212.296C507.271 211.495 506.725 210.475 506.505 209.364C506.284 208.254 506.397 207.102 506.83 206.056C507.264 205.01 507.998 204.116 508.939 203.486C509.881 202.857 510.988 202.521 512.12 202.521C513.639 202.521 515.095 203.125 516.169 204.198C517.243 205.272 517.846 206.729 517.846 208.247Z" fill="#D75337"/>
<path opacity="0.2" d="M512.119 202.521C510.918 202.523 509.748 202.905 508.777 203.612C508.621 207.097 511.592 210.511 510.765 211.661C509.939 212.811 507.891 212.104 507.172 211.122C507.676 211.991 508.4 212.712 509.272 213.212C510.143 213.713 511.13 213.975 512.135 213.973C513.14 213.971 514.126 213.705 514.995 213.201C515.865 212.697 516.586 211.973 517.087 211.102C517.588 210.231 517.851 209.244 517.849 208.239C517.848 207.234 517.582 206.248 517.079 205.378C516.575 204.509 515.852 203.787 514.981 203.286C514.111 202.784 513.124 202.521 512.119 202.521Z" fill="black"/>
<path d="M519.282 212.583C525.084 212.583 529.788 207.88 529.788 202.078C529.788 196.277 525.084 191.573 519.282 191.573C513.481 191.573 508.777 196.277 508.777 202.078C508.777 207.88 513.481 212.583 519.282 212.583Z" fill="#D75337"/>
<path opacity="0.1" d="M529.5 204.522C529.094 206.216 528.273 207.783 527.11 209.081C525.948 210.379 524.481 211.368 522.841 211.957C521.201 212.547 519.441 212.72 517.718 212.46C515.995 212.201 514.364 211.516 512.971 210.469C511.578 209.422 510.468 208.045 509.74 206.461C509.012 204.878 508.689 203.139 508.801 201.4C508.912 199.661 509.455 197.977 510.379 196.5C511.303 195.023 512.581 193.799 514.096 192.938C513.181 193.454 512.349 194.104 511.628 194.867C511.106 197.113 511.338 199.468 512.288 201.568C513.238 203.669 514.854 205.398 516.885 206.489C518.916 207.579 521.25 207.97 523.526 207.602C525.802 207.233 527.893 206.126 529.476 204.45L529.5 204.522Z" fill="black"/>
<path d="M358.911 212.251L355.219 219.525L355.817 219.829L359.509 212.555L358.911 212.251Z" fill="#455A64"/>
<path d="M353.07 210.217L352.5 210.572L356.125 216.386L356.695 216.03L353.07 210.217Z" fill="#455A64"/>
<path d="M356.1 211.015V228.551C356.094 228.6 356.076 228.647 356.046 228.687C356.017 228.727 355.978 228.758 355.933 228.779C355.809 228.838 355.674 228.869 355.537 228.869C355.4 228.869 355.265 228.838 355.142 228.779C355.1 228.756 355.064 228.724 355.036 228.684C355.009 228.644 354.992 228.599 354.986 228.551V211.015H356.1Z" fill="#455A64"/>
<path d="M369.361 205.552C369.361 207.163 368.883 208.737 367.988 210.077C367.093 211.416 365.821 212.46 364.333 213.077C362.844 213.693 361.207 213.855 359.627 213.54C358.047 213.226 356.595 212.45 355.456 211.311C354.317 210.172 353.541 208.721 353.227 207.141C352.913 205.561 353.074 203.923 353.69 202.435C354.307 200.946 355.351 199.674 356.69 198.779C358.03 197.884 359.605 197.406 361.216 197.406C363.375 197.409 365.445 198.269 366.972 199.795C368.499 201.322 369.358 203.392 369.361 205.552Z" fill="#D75337"/>
<path opacity="0.2" d="M363.768 203.469C364.822 200.163 365.936 198.869 365.229 198.462C363.881 197.698 362.342 197.335 360.794 197.415C359.246 197.496 357.753 198.016 356.49 198.915C355.227 199.815 354.248 201.056 353.666 202.492C353.084 203.929 352.924 205.502 353.205 207.027C353.486 208.551 354.197 209.964 355.253 211.098C356.309 212.233 357.667 213.043 359.167 213.433C360.667 213.823 362.248 213.777 363.723 213.3C365.197 212.823 366.506 211.934 367.493 210.74C365.086 211.435 362.403 207.757 363.768 203.469Z" fill="black"/>
<path d="M354.112 207.851C354.114 208.984 353.78 210.093 353.152 211.036C352.525 211.979 351.631 212.715 350.585 213.15C349.539 213.585 348.388 213.7 347.276 213.481C346.165 213.261 345.143 212.717 344.341 211.916C343.539 211.116 342.993 210.096 342.771 208.985C342.549 207.874 342.662 206.722 343.095 205.675C343.528 204.628 344.262 203.733 345.204 203.103C346.145 202.474 347.253 202.138 348.386 202.138C349.902 202.138 351.357 202.739 352.43 203.81C353.504 204.882 354.108 206.335 354.112 207.851Z" fill="#D75337"/>
<path opacity="0.2" d="M348.385 202.126C347.185 202.122 346.014 202.499 345.043 203.204C344.887 206.702 347.858 210.104 347.019 211.254C346.181 212.404 344.144 211.697 343.426 210.727C343.93 211.595 344.654 212.316 345.526 212.817C346.397 213.317 347.384 213.579 348.389 213.577C349.394 213.575 350.38 213.309 351.249 212.805C352.118 212.301 352.84 211.577 353.341 210.707C353.842 209.836 354.105 208.848 354.103 207.844C354.102 206.839 353.836 205.852 353.333 204.983C352.829 204.113 352.106 203.392 351.235 202.89C350.365 202.389 349.378 202.125 348.373 202.126H348.385Z" fill="black"/>
<path d="M355.536 212.188C361.338 212.188 366.041 207.485 366.041 201.683C366.041 195.881 361.338 191.178 355.536 191.178C349.735 191.178 345.031 195.881 345.031 201.683C345.031 207.485 349.735 212.188 355.536 212.188Z" fill="#D75337"/>
<path opacity="0.1" d="M365.768 204.09C365.369 205.79 364.553 207.363 363.393 208.668C362.234 209.973 360.767 210.969 359.126 211.565C357.485 212.161 355.722 212.338 353.995 212.082C352.268 211.825 350.633 211.142 349.236 210.094C347.84 209.046 346.726 207.667 345.997 206.081C345.267 204.495 344.944 202.752 345.057 201.01C345.17 199.268 345.716 197.582 346.644 196.103C347.573 194.625 348.855 193.401 350.375 192.543C349.467 193.062 348.639 193.711 347.92 194.471C347.408 196.714 347.647 199.063 348.599 201.158C349.552 203.252 351.165 204.975 353.192 206.064C355.219 207.152 357.547 207.545 359.819 207.182C362.091 206.819 364.181 205.72 365.768 204.054V204.09Z" fill="black"/>
<path d="M456.084 151.313L463.918 155.841V164.897L456.084 160.369V151.313Z" fill="#E0E0E0"/>
<path d="M463.918 155.841L471.764 151.313V169.413L463.918 164.897V155.841Z" fill="#F0F0F0"/>
<path d="M463.918 143.611L455.27 148.594V150.858L463.918 155.841L472.578 150.858V148.594L463.918 143.611Z" fill="#455A64"/>
<path d="M455.27 150.858L463.918 155.841V153.577L455.27 148.594V150.858Z" fill="#37474F"/>
<path d="M472.578 150.858L463.918 155.841V153.577L472.578 148.594V150.858Z" fill="#263238"/>
<path d="M458.168 148.594L463.918 145.288L469.679 148.594L463.918 151.912L458.168 148.594Z" fill="#D75337"/>
<path d="M463.918 145.288V151.912L458.168 148.594L463.918 145.288Z" fill="#37474F"/>
<path d="M463.918 145.288L469.68 148.594L463.918 151.912V145.288Z" fill="#263238"/>
<path d="M437.278 242.193L437.266 201.742L460.588 215.218V255.669L437.278 242.193Z" fill="#F0F0F0"/>
<path d="M437.266 201.742L460.588 215.218V231.329L437.266 217.877V201.742Z" fill="#E0E0E0"/>
<path d="M507.34 228.707V188.255L483.934 174.768L460.588 215.219V255.67L507.34 228.707Z" fill="#FAFAFA"/>
<path d="M456.731 221.962L483.934 174.767V170.275L452.838 224.214L456.731 221.962Z" fill="#37474F"/>
<path d="M437.266 143.312L483.934 170.276L452.838 224.215L437.278 215.219L437.266 143.312Z" fill="#455A64"/>
<path d="M483.934 174.767L511.232 190.495L515.125 188.255L483.934 170.275V174.767Z" fill="#263238"/>
<path d="M493.695 210.451L502.847 205.204V218.692L493.695 223.938V210.451Z" fill="#455A64"/>
<path d="M502.068 218.238V205.66L493.695 210.452V223.029L502.068 218.238Z" fill="#E0E0E0"/>
<path d="M502.847 218.692L502.068 218.236L493.695 223.028V223.938L502.847 218.692Z" fill="#37474F"/>
<path d="M493.695 217.195L502.847 211.948V211.038L493.695 216.285V217.195Z" fill="#455A64"/>
<path d="M464.973 227.017L474.124 221.771V235.246L464.973 240.505V227.017Z" fill="#455A64"/>
<path d="M473.346 234.803V222.214L464.973 227.017V239.595L473.346 234.803Z" fill="#E0E0E0"/>
<path d="M474.124 235.247L473.346 234.804L464.973 239.595V240.505L474.124 235.247Z" fill="#37474F"/>
<path d="M464.973 233.761L474.124 228.515V227.604L464.973 232.851V233.761Z" fill="#455A64"/>
<path d="M478.102 194.999L489.781 188.255V198.365L478.102 205.109V194.999Z" fill="#455A64"/>
<path d="M489.002 197.91V188.698L478.102 194.999V204.21L489.002 197.91Z" fill="#E0E0E0"/>
<path d="M489.781 198.365L489.002 197.91L478.102 204.211V205.109L489.781 198.365Z" fill="#37474F"/>
<path d="M511.233 190.495H507.34V188.255L511.233 190.495Z" fill="black"/>
<path d="M477.418 245.943V218.98L490.462 211.457V238.421L477.418 245.943Z" fill="#37474F"/>
<path d="M490.007 238.073V211.721L477.418 218.98V245.332L490.007 238.073Z" fill="#455A64"/>
<path d="M490.463 211.457L490.008 211.721V238.073L490.463 238.42V211.457Z" fill="#263238"/>
<path d="M437.267 242.193V201.742L413.957 215.218V255.669L437.267 242.193Z" fill="#FAFAFA"/>
<path d="M437.267 201.742L413.957 215.218V231.329L437.279 217.877L437.267 201.742Z" fill="#F5F5F5"/>
<path d="M367.205 228.707V188.255L390.599 174.768L413.957 215.219V255.67L367.205 228.707Z" fill="#EBEBEB"/>
<path d="M417.813 221.962L390.598 174.767V170.275L421.706 224.214L417.813 221.962Z" fill="#455A64"/>
<path d="M437.266 143.312L390.598 170.276L421.706 224.215L437.266 215.219V143.312Z" fill="#37474F"/>
<path d="M390.598 174.767L363.311 190.495L359.418 188.255L390.598 170.275V174.767Z" fill="#263238"/>
<path d="M384.142 211.482L374.99 206.235V219.723L384.142 224.958V211.482Z" fill="#455A64"/>
<path d="M375.77 219.267V206.678L384.142 211.481V224.058L375.77 219.267Z" fill="#FAFAFA"/>
<path d="M375.77 206.678L384.142 211.517V213.182L375.77 208.379V206.678Z" fill="#F5F5F5"/>
<path d="M397.762 219.375L406.135 224.214V225.879L397.762 221.076V219.375Z" fill="#F5F5F5"/>
<path d="M374.99 219.723L375.769 219.268L384.142 224.059V224.957L374.99 219.723Z" fill="#37474F"/>
<path d="M384.142 218.225L374.99 212.979V212.068L384.142 217.315V218.225Z" fill="#455A64"/>
<path d="M396.445 194.999L384.766 188.255V198.365L396.445 205.109V194.999Z" fill="#455A64"/>
<path d="M385.543 197.91V188.698L396.443 194.999V204.21L385.543 197.91Z" fill="#FAFAFA"/>
<path d="M385.543 188.698L396.443 194.999V196.664L385.543 190.411V188.698Z" fill="#F5F5F5"/>
<path d="M384.766 198.365L385.544 197.91L396.445 204.211V205.109L384.766 198.365Z" fill="#37474F"/>
<path d="M363.312 190.495H367.205V188.255L363.312 190.495Z" fill="black"/>
<path d="M406.134 224.214L396.982 218.932V232.407L406.134 237.69V224.214Z" fill="#455A64"/>
<path d="M397.762 231.952V219.375L406.135 224.214V236.792L397.762 231.952Z" fill="#FAFAFA"/>
<path d="M396.982 232.408L397.761 231.953L406.134 236.792V237.691L396.982 232.408Z" fill="#37474F"/>
<path d="M406.134 230.911L396.982 225.664V224.754L406.134 230V230.911Z" fill="#455A64"/>
<path d="M397.762 219.375L406.135 224.214V225.879L397.762 221.076V219.375Z" fill="#F5F5F5"/>
<path d="M452.837 224.214L441.146 217.458V229.892L452.837 236.635V224.214Z" fill="#263238"/>
<path d="M441.865 229.473V217.878L452.837 224.215V235.81L441.865 229.473Z" fill="#FAFAFA"/>
<path d="M441.865 217.878V220.573L452.837 226.922V224.215L441.865 217.878Z" fill="#F0F0F0"/>
<path d="M441.148 229.892L441.867 229.473L452.839 235.809V236.636L441.148 229.892Z" fill="#37474F"/>
<path d="M441.148 223.675L441.867 223.256L452.839 229.592V230.431L441.148 223.675Z" fill="#37474F"/>
<path d="M446.752 233.127L447.471 233.534V221.113L446.752 220.693V233.127Z" fill="#37474F"/>
<path d="M429.277 251.237L431.349 250.04C431.92 246.671 432.005 243.238 431.601 239.846C430.559 233.234 426.043 230.946 424.414 231.605C422.785 232.264 422.402 234.228 425.36 238.049C428.035 241.917 429.407 246.537 429.277 251.237Z" fill="#D75337"/>
<g opacity="0.2">
<path d="M429.277 251.237L431.349 250.04C431.92 246.671 432.005 243.238 431.601 239.846C430.559 233.234 426.043 230.946 424.414 231.605C422.785 232.264 422.402 234.228 425.36 238.049C428.035 241.917 429.407 246.537 429.277 251.237Z" fill="black"/>
</g>
<path d="M430.032 248.65C430.012 248.649 429.992 248.643 429.974 248.634C429.957 248.624 429.941 248.611 429.929 248.595C429.916 248.58 429.907 248.561 429.902 248.542C429.897 248.522 429.897 248.502 429.9 248.482C430.762 242.289 428.271 235.498 425.468 232.755C425.441 232.728 425.426 232.691 425.426 232.653C425.426 232.615 425.441 232.578 425.468 232.551C425.495 232.524 425.532 232.509 425.57 232.509C425.608 232.509 425.645 232.524 425.672 232.551C428.522 235.33 431.062 242.23 430.199 248.53C430.197 248.549 430.19 248.567 430.18 248.584C430.17 248.6 430.157 248.614 430.141 248.626C430.125 248.637 430.108 248.645 430.089 248.649C430.07 248.653 430.051 248.653 430.032 248.65Z" fill="white"/>
<path d="M423.527 254.604C423.191 254.796 422.52 254.389 422.257 254.209C421.816 253.905 421.462 253.492 421.227 253.011C420.961 252.469 420.869 251.858 420.963 251.262C421.015 250.947 421.087 250.635 421.179 250.328C421.275 250.016 421.359 249.717 421.442 249.418C421.551 249.123 421.596 248.809 421.574 248.495C421.493 248.194 421.351 247.912 421.157 247.667C420.964 247.422 420.722 247.219 420.448 247.07C420.14 246.892 419.878 246.644 419.683 246.347C419.487 246.049 419.364 245.71 419.322 245.357C419.361 244.775 419.593 244.223 419.981 243.788C420.34 243.333 420.76 242.937 421.083 242.458C421.304 242.2 421.435 241.877 421.457 241.538C421.478 241.199 421.389 240.862 421.203 240.577C420.9 240.113 420.635 239.624 420.412 239.116C420.303 238.861 420.269 238.581 420.314 238.307C420.358 238.033 420.48 237.778 420.664 237.571C420.845 237.435 421.052 237.336 421.272 237.281C421.492 237.225 421.721 237.214 421.946 237.247C422.371 237.296 422.78 237.44 423.143 237.667C424.341 238.326 425.012 239.739 426.27 240.242C426.768 240.401 427.276 240.525 427.791 240.613C428.05 240.659 428.296 240.76 428.513 240.909C428.73 241.057 428.913 241.251 429.049 241.476C429.516 242.398 428.653 243.536 428.977 244.518C429.3 245.501 430.115 245.716 430.582 246.507C430.782 246.846 430.863 247.243 430.81 247.633C430.767 248.299 430.605 248.953 430.33 249.561C430.017 250.159 429.665 250.735 429.276 251.286L423.527 254.604Z" fill="#D75337"/>
<g opacity="0.1">
<path d="M423.527 254.604C423.191 254.796 422.52 254.389 422.257 254.209C421.816 253.905 421.462 253.492 421.227 253.011C420.961 252.469 420.869 251.858 420.963 251.262C421.015 250.947 421.087 250.635 421.179 250.328C421.275 250.016 421.359 249.717 421.442 249.418C421.551 249.123 421.596 248.809 421.574 248.495C421.493 248.194 421.351 247.912 421.157 247.667C420.964 247.422 420.722 247.219 420.448 247.07C420.14 246.892 419.878 246.644 419.683 246.347C419.487 246.049 419.364 245.71 419.322 245.357C419.361 244.775 419.593 244.223 419.981 243.788C420.34 243.333 420.76 242.937 421.083 242.458C421.304 242.2 421.435 241.877 421.457 241.538C421.478 241.199 421.389 240.862 421.203 240.577C420.9 240.113 420.635 239.624 420.412 239.116C420.303 238.861 420.269 238.581 420.314 238.307C420.358 238.033 420.48 237.778 420.664 237.571C420.845 237.435 421.052 237.336 421.272 237.281C421.492 237.225 421.721 237.214 421.946 237.247C422.371 237.296 422.78 237.44 423.143 237.667C424.341 238.326 425.012 239.739 426.27 240.242C426.768 240.401 427.276 240.525 427.791 240.613C428.05 240.659 428.296 240.76 428.513 240.909C428.73 241.057 428.913 241.251 429.049 241.476C429.516 242.398 428.653 243.536 428.977 244.518C429.3 245.501 430.115 245.716 430.582 246.507C430.782 246.846 430.863 247.243 430.81 247.633C430.767 248.299 430.605 248.953 430.33 249.561C430.017 250.159 429.665 250.735 429.276 251.286L423.527 254.604Z" fill="black"/>
</g>
<path d="M426.894 252.818C426.856 252.813 426.82 252.794 426.794 252.766C426.768 252.737 426.752 252.701 426.75 252.662C427.002 246.793 424.235 240.312 422.222 238.432C422.208 238.419 422.197 238.402 422.189 238.385C422.181 238.367 422.176 238.348 422.176 238.328C422.175 238.309 422.179 238.289 422.185 238.271C422.192 238.253 422.203 238.236 422.216 238.222C422.23 238.208 422.246 238.197 422.263 238.189C422.281 238.181 422.3 238.176 422.32 238.176C422.339 238.175 422.359 238.179 422.377 238.185C422.395 238.192 422.412 238.203 422.426 238.216C424.474 240.133 427.301 246.721 427.05 252.674C427.047 252.713 427.029 252.75 427 252.777C426.971 252.803 426.933 252.818 426.894 252.818Z" fill="white"/>
<path d="M426.006 245.883C424.613 245.505 423.184 245.276 421.742 245.2C421.722 245.2 421.702 245.196 421.684 245.188C421.666 245.18 421.649 245.168 421.636 245.154C421.622 245.139 421.612 245.122 421.605 245.103C421.599 245.084 421.596 245.064 421.598 245.044C421.601 245.005 421.619 244.968 421.648 244.942C421.677 244.915 421.715 244.9 421.754 244.9C423.221 244.977 424.675 245.214 426.09 245.607C426.108 245.613 426.125 245.622 426.14 245.634C426.154 245.646 426.166 245.66 426.175 245.677C426.184 245.694 426.19 245.712 426.192 245.731C426.193 245.75 426.191 245.769 426.186 245.787C426.172 245.822 426.147 245.851 426.114 245.868C426.081 245.886 426.043 245.891 426.006 245.883Z" fill="white"/>
<path d="M477.418 245.943L490.462 238.421L502.165 245.177L489.121 252.687L477.418 245.943Z" fill="#F0F0F0"/>
<path d="M266.476 265.493L152.609 331.231V336.286L270.849 404.551L384.704 338.813V333.758L266.476 265.493Z" fill="#D75337"/>
<path d="M319.027 356.517L332.084 364.147L354.016 351.486L340.924 343.88L319.027 356.517Z" fill="#F0F0F0"/>
<path opacity="0.15" d="M152.609 331.231L270.849 399.497V404.551L152.609 336.286V331.231Z" fill="black"/>
<path opacity="0.1" d="M270.85 399.497L384.705 333.76V338.815L270.85 404.552V399.497Z" fill="black"/>
<path d="M371.91 311.373L366.836 321.371L367.658 321.789L372.733 311.791L371.91 311.373Z" fill="#263238"/>
<path d="M362.481 310.524L361.707 311.003L366.656 318.998L367.431 318.519L362.481 310.524Z" fill="#263238"/>
<path d="M367.959 309.598V333.686C367.952 333.754 367.927 333.818 367.887 333.873C367.847 333.927 367.794 333.971 367.731 333.998C367.563 334.084 367.376 334.129 367.186 334.129C366.997 334.129 366.81 334.084 366.641 333.998C366.581 333.97 366.529 333.926 366.491 333.872C366.453 333.817 366.43 333.753 366.426 333.686V309.598H367.959Z" fill="#263238"/>
<path d="M375.014 313.288C381.193 313.288 386.202 308.279 386.202 302.1C386.202 295.921 381.193 290.912 375.014 290.912C368.835 290.912 363.826 295.921 363.826 302.1C363.826 308.279 368.835 313.288 375.014 313.288Z" fill="#455A64"/>
<path d="M378.523 299.248C379.961 294.696 381.506 292.923 380.524 292.372C378.671 291.322 376.557 290.823 374.43 290.933C372.303 291.043 370.251 291.758 368.517 292.994C366.782 294.229 365.436 295.935 364.637 297.909C363.838 299.883 363.62 302.044 364.007 304.139C364.394 306.233 365.37 308.173 366.822 309.732C368.274 311.29 370.14 312.402 372.202 312.936C374.264 313.47 376.435 313.405 378.461 312.748C380.487 312.09 382.283 310.869 383.638 309.226C380.332 310.184 376.655 305.141 378.523 299.248Z" fill="#37474F"/>
<path d="M357.393 313.132C361.733 313.132 365.251 309.614 365.251 305.274C365.251 300.934 361.733 297.416 357.393 297.416C353.053 297.416 349.535 300.934 349.535 305.274C349.535 309.614 353.053 313.132 357.393 313.132Z" fill="#455A64"/>
<path d="M357.393 297.404C355.742 297.402 354.132 297.922 352.794 298.89C352.59 303.681 356.663 308.377 355.525 309.958C354.387 311.539 351.572 310.557 350.602 309.227C351.296 310.416 352.292 311.402 353.488 312.085C354.683 312.768 356.038 313.125 357.415 313.12C358.792 313.115 360.144 312.748 361.335 312.056C362.525 311.363 363.513 310.371 364.199 309.176C364.885 307.982 365.246 306.629 365.244 305.251C365.242 303.874 364.878 302.521 364.189 301.329C363.499 300.137 362.509 299.147 361.316 298.458C360.123 297.769 358.771 297.406 357.393 297.404Z" fill="#37474F"/>
<path d="M381.249 300.081C383.079 292.329 378.278 284.561 370.525 282.731C362.773 280.902 355.006 285.703 353.176 293.455C351.347 301.207 356.148 308.974 363.9 310.804C371.652 312.634 379.419 307.833 381.249 300.081Z" fill="#455A64"/>
<path d="M381.266 300.087C380.705 302.398 379.579 304.535 377.989 306.304C376.398 308.073 374.394 309.42 372.155 310.224C369.916 311.028 367.513 311.263 365.16 310.91C362.808 310.556 360.58 309.624 358.677 308.197C356.773 306.77 355.254 304.893 354.254 302.735C353.255 300.576 352.807 298.203 352.95 295.828C353.093 293.454 353.824 291.152 355.076 289.129C356.328 287.107 358.063 285.426 360.124 284.239C358.875 284.952 357.737 285.844 356.746 286.887C356.496 287.967 356.367 289.072 356.363 290.181C356.339 293.079 357.191 295.916 358.808 298.322C360.425 300.727 362.731 302.587 365.424 303.658C368.117 304.729 371.071 304.961 373.898 304.324C376.725 303.687 379.293 302.21 381.266 300.087Z" fill="#37474F"/>
<path d="M174.971 308.517L169.896 318.515L170.719 318.932L175.793 308.934L174.971 308.517Z" fill="#263238"/>
<path d="M165.567 307.722L164.793 308.201L169.742 316.196L170.516 315.717L165.567 307.722Z" fill="#263238"/>
<path d="M171.068 306.784V330.873C171.064 330.939 171.041 331.003 171.003 331.058C170.965 331.113 170.913 331.156 170.853 331.184C170.684 331.27 170.497 331.315 170.308 331.315C170.118 331.315 169.931 331.27 169.763 331.184C169.701 331.157 169.647 331.114 169.607 331.059C169.567 331.005 169.542 330.94 169.535 330.873V306.784H171.068Z" fill="#263238"/>
<path d="M178.1 310.484C184.279 310.484 189.288 305.475 189.288 299.296C189.288 293.117 184.279 288.108 178.1 288.108C171.921 288.108 166.912 293.117 166.912 299.296C166.912 305.475 171.921 310.484 178.1 310.484Z" fill="#455A64"/>
<path d="M181.609 296.433C183.047 291.881 184.58 290.109 183.61 289.558C181.757 288.508 179.643 288.008 177.516 288.118C175.389 288.229 173.337 288.944 171.603 290.179C169.868 291.415 168.522 293.12 167.723 295.095C166.924 297.069 166.706 299.23 167.093 301.324C167.48 303.419 168.456 305.359 169.908 306.917C171.36 308.476 173.226 309.587 175.288 310.122C177.35 310.656 179.521 310.59 181.547 309.933C183.573 309.276 185.369 308.054 186.724 306.411C183.418 307.381 179.729 302.327 181.609 296.433Z" fill="#37474F"/>
<path d="M160.481 310.316C164.821 310.316 168.339 306.798 168.339 302.458C168.339 298.119 164.821 294.601 160.481 294.601C156.141 294.601 152.623 298.119 152.623 302.458C152.623 306.798 156.141 310.316 160.481 310.316Z" fill="#455A64"/>
<path d="M160.48 294.601C158.83 294.598 157.221 295.114 155.88 296.074C155.664 300.865 159.749 305.561 158.611 307.142C157.473 308.723 154.658 307.741 153.676 306.411C154.369 307.602 155.363 308.589 156.558 309.275C157.753 309.96 159.107 310.319 160.485 310.316C161.862 310.313 163.215 309.948 164.407 309.257C165.599 308.566 166.588 307.575 167.276 306.381C167.964 305.187 168.325 303.834 168.325 302.456C168.324 301.078 167.962 299.725 167.273 298.532C166.585 297.338 165.595 296.347 164.402 295.657C163.21 294.967 161.857 294.603 160.48 294.601Z" fill="#37474F"/>
<path d="M180.504 304.179C186.136 298.547 186.136 289.416 180.504 283.783C174.872 278.151 165.74 278.151 160.108 283.784C154.476 289.416 154.476 298.547 160.108 304.179C165.74 309.812 174.872 309.812 180.504 304.179Z" fill="#455A64"/>
<path d="M184.341 297.272C183.78 299.585 182.655 301.723 181.064 303.494C179.474 305.264 177.469 306.612 175.229 307.417C172.99 308.221 170.585 308.457 168.232 308.103C165.878 307.749 163.65 306.816 161.746 305.388C159.842 303.96 158.322 302.082 157.323 299.922C156.325 297.762 155.878 295.387 156.023 293.012C156.168 290.636 156.901 288.334 158.155 286.312C159.41 284.289 161.147 282.61 163.211 281.425C161.957 282.131 160.818 283.024 159.833 284.072C159.582 285.152 159.454 286.257 159.449 287.366C159.427 290.262 160.281 293.096 161.897 295.498C163.513 297.901 165.818 299.759 168.508 300.83C171.198 301.9 174.149 302.134 176.974 301.499C179.799 300.864 182.367 299.391 184.341 297.272Z" fill="#37474F"/>
<path d="M205.158 316.066L297.129 369.155V288.253L205.158 235.164V316.066Z" fill="#F0F0F0"/>
<path d="M270.849 338.814V384.332L178.891 331.232V285.726L270.849 338.814Z" fill="#F0F0F0"/>
<path d="M178.891 300.89L270.849 353.991V338.814L178.891 285.726V300.89Z" fill="#E0E0E0"/>
<path d="M205.158 250.329L297.129 303.417V288.253L205.158 235.152V250.329Z" fill="#E0E0E0"/>
<path d="M297.129 288.252L358.435 252.855V333.758L297.129 369.154V288.252Z" fill="#FAFAFA"/>
<path d="M270.85 338.814L297.13 313.539V369.155L270.85 384.332V338.814Z" fill="#FAFAFA"/>
<path d="M327.782 235.152L297.129 288.253L358.435 252.856L327.782 235.152Z" fill="#FAFAFA"/>
<path d="M292.746 295.835L327.783 235.152V231.367L292.746 292.05V295.835Z" fill="#D75337"/>
<path opacity="0.1" d="M292.746 295.835L327.783 235.152V231.367L292.746 292.05V295.835Z" fill="black"/>
<path d="M235.816 178.277L200.785 238.952L292.747 292.047L327.778 231.371L235.816 178.277Z" fill="#D75337"/>
<path d="M200.787 238.949L292.746 292.05V295.835L200.787 242.746V238.949Z" fill="#D75337"/>
<path opacity="0.15" d="M200.787 238.949L292.746 292.05V295.835L200.787 242.746V238.949Z" fill="black"/>
<path d="M327.783 231.367L366.102 253.491L362.808 255.384L327.783 235.152V231.367Z" fill="#D75337"/>
<path opacity="0.15" d="M327.783 231.367L366.102 253.491L362.808 255.384L327.783 235.152V231.367Z" fill="black"/>
<path d="M362.808 255.383H358.436V252.855L362.808 255.383Z" fill="#D75337"/>
<path opacity="0.3" d="M362.808 255.383H358.436V252.855L362.808 255.383Z" fill="black"/>
<path d="M219.27 238.23V220.023L229.751 213.974L240.196 232.061V250.328L219.27 238.23Z" fill="#F0F0F0"/>
<path opacity="0.2" d="M229.75 213.974L216.813 221.437L215.16 220.478L229.75 212.058V213.974Z" fill="black"/>
<path d="M240.197 250.329L250.654 232.193L255.997 222.922L240.197 232.061V250.329Z" fill="#FAFAFA"/>
<path opacity="0.4" d="M216.814 221.437H219.27V220.023L216.814 221.437Z" fill="black"/>
<path d="M242.689 236.374L229.752 213.974V212.058L244.306 237.308L242.689 236.374Z" fill="#D75337"/>
<path opacity="0.1" d="M242.689 236.374L229.752 213.974V212.058L244.306 237.308L242.689 236.374Z" fill="black"/>
<path d="M244.306 237.308L229.752 212.058L244.809 203.361L259.363 228.612L244.306 237.308Z" fill="#D75337"/>
<path opacity="0.3" d="M244.306 237.308L229.752 212.058L244.809 203.361L259.363 228.612L244.306 237.308Z" fill="white"/>
<path d="M234.973 229.138L224.504 223.089V235.163L234.973 241.212V229.138Z" fill="#455A64"/>
<path d="M225.57 234.541V223.7L234.973 229.138V239.967L225.57 234.541Z" fill="#E0E0E0"/>
<path d="M224.504 235.164L225.57 234.541L234.973 239.967V241.213L224.504 235.164Z" fill="#37474F"/>
<path d="M263.051 263.517V245.31L273.544 239.261L283.989 257.348V275.615L263.051 263.517Z" fill="#F0F0F0"/>
<path opacity="0.2" d="M273.543 239.26L260.606 246.723L258.941 245.765L273.543 237.344V239.26Z" fill="black"/>
<path d="M283.988 275.616L294.433 257.48L299.776 248.209L283.988 257.349V275.616Z" fill="#FAFAFA"/>
<path opacity="0.4" d="M260.607 246.723H263.051V245.31L260.607 246.723Z" fill="black"/>
<path d="M286.482 261.66L273.545 239.26V237.344L288.087 262.594L286.482 261.66Z" fill="#D75337"/>
<path opacity="0.1" d="M286.482 261.66L273.545 239.26V237.344L288.087 262.594L286.482 261.66Z" fill="black"/>
<path d="M288.087 262.594L273.545 237.343L288.59 228.635L303.144 253.885L288.087 262.594Z" fill="#D75337"/>
<path opacity="0.3" d="M288.087 262.594L273.545 237.343L288.59 228.635L303.144 253.885L288.087 262.594Z" fill="white"/>
<path d="M278.754 254.413L268.285 248.376V260.45L278.754 266.499V254.413Z" fill="#455A64"/>
<path d="M269.363 259.827V248.986L278.754 254.413V265.253L269.363 259.827Z" fill="#E0E0E0"/>
<path d="M268.285 260.45L269.363 259.827L278.754 265.253V266.499L268.285 260.45Z" fill="#37474F"/>
<path d="M205.159 257.024L297.129 310.113V313.539L266.476 346.408L174.506 293.307V289.893L205.159 257.024Z" fill="#D75337"/>
<path d="M205.159 257.024L297.129 310.113L266.476 342.982L174.506 289.893L205.159 257.024Z" fill="#D75337"/>
<path opacity="0.1" d="M266.477 342.982V346.408L297.129 313.539V310.113L266.477 342.982Z" fill="black"/>
<path opacity="0.15" d="M266.476 346.408L174.506 293.307V289.894L266.476 342.982V346.408Z" fill="black"/>
<path d="M213.928 316.054L192.031 303.417V326.679L213.928 339.316V316.054Z" fill="#263238"/>
<path d="M193.373 325.9V304.195L213.928 316.066V337.759L193.373 325.9Z" fill="#FAFAFA"/>
<path d="M193.373 304.195V309.262L213.928 321.121V316.054L193.373 304.195Z" fill="#F0F0F0"/>
<path d="M192.031 326.679L193.373 325.9L213.928 337.759V339.316L192.031 326.679Z" fill="#37474F"/>
<path d="M192.031 315.048L193.373 314.27L213.928 326.128V327.685L192.031 315.048Z" fill="#37474F"/>
<path d="M202.523 332.74L203.865 333.518V310.256L202.523 309.478V332.74Z" fill="#37474F"/>
<path d="M253.336 338.814L231.439 326.177V349.439L253.336 362.076V338.814Z" fill="#263238"/>
<path d="M232.781 348.66V326.955L253.336 338.814V360.519L232.781 348.66Z" fill="#FAFAFA"/>
<path d="M232.781 326.955V332.01L253.336 343.881V338.814L232.781 326.955Z" fill="#F0F0F0"/>
<path d="M231.441 349.438L232.783 348.659L253.338 360.518V362.075L231.441 349.438Z" fill="#37474F"/>
<path d="M231.441 337.807L232.783 337.028L253.338 348.887V350.444L231.441 337.807Z" fill="#37474F"/>
<path d="M241.934 355.498L243.275 356.277V333.015L241.934 332.236V355.498Z" fill="#37474F"/>
<path d="M283.988 341.352L305.885 328.703V351.965L283.988 364.603V341.352Z" fill="#263238"/>
<path d="M304.543 351.187V329.482L283.988 341.353V363.046L304.543 351.187Z" fill="#E6E6E6"/>
<path d="M304.543 329.482V331.71L283.988 343.569V341.353L304.543 329.482Z" fill="#E0E0E0"/>
<path d="M305.885 351.965L304.543 351.187L283.988 363.045V364.602L305.885 351.965Z" fill="#37474F"/>
<path d="M305.885 340.335L304.543 339.557L283.988 351.415V352.972L305.885 340.335Z" fill="#37474F"/>
<path d="M295.392 358.027L294.051 358.805V335.543L295.392 334.765V358.027Z" fill="#37474F"/>
<path d="M318.619 266.068L340.516 253.431V276.693L318.619 289.33V266.068Z" fill="#263238"/>
<path d="M339.174 275.914V254.209L318.619 266.068V287.773L339.174 275.914Z" fill="#E6E6E6"/>
<path d="M339.174 254.209V256.437L318.619 268.296V266.068L339.174 254.209Z" fill="#E0E0E0"/>
<path d="M340.516 276.693L339.174 275.914L318.619 287.773V289.33L340.516 276.693Z" fill="#37474F"/>
<path d="M340.516 265.062L339.174 264.283L318.619 276.154V277.711L340.516 265.062Z" fill="#37474F"/>
<path d="M330.021 282.754L328.68 283.533V260.271L330.021 259.492V282.754Z" fill="#37474F"/>
<path d="M319.027 356.517V316.066L340.924 303.417V343.88L319.027 356.517Z" fill="#37474F"/>
<path d="M340.121 343.27V303.885L319.027 316.067V355.452L340.121 343.27Z" fill="#455A64"/>
<path d="M340.924 303.417L340.121 303.884V343.269L340.924 343.88V303.417Z" fill="#263238"/>
<path d="M443.949 20.5949C443.881 17.4226 443.068 14.3108 441.573 11.5117C440.079 8.71256 437.946 6.30491 435.348 4.48389C432.952 2.96262 430.652 2.73504 428.976 3.59748C418.854 8.67634 347.726 54.2783 343.186 56.5302H343.126C342.647 56.8477 342.262 57.2869 342.009 57.8027C341.757 58.3185 341.646 58.8922 341.689 59.4649C341.716 61.064 342.123 62.6337 342.875 64.0454C343.626 65.457 344.702 66.6705 346.013 67.5863C346.467 67.9406 347.007 68.1673 347.577 68.2431C348.148 68.319 348.728 68.2411 349.259 68.0175H349.331C356.518 64.0527 426.724 34.1305 441.074 26.4404C442.763 25.5061 443.853 23.4937 443.949 20.5949Z" fill="#D75337"/>
<path opacity="0.1" d="M441.157 10.7605C439.749 8.23448 437.757 6.08224 435.347 4.4838C432.952 2.96254 430.676 2.73495 428.999 3.58542L428.783 3.7052C419.548 8.4247 366.615 42.1919 348.803 53.1762L348.683 53.248L347.964 53.6912L347.749 53.823L347.342 54.0746L346.862 54.362C344.982 55.5599 343.712 56.2546 343.269 56.5062H343.209C343.057 56.5965 342.916 56.7051 342.79 56.8296C342.454 57.1744 342.19 57.5833 342.016 58.0319C341.841 58.4805 341.758 58.9596 341.772 59.4409C341.748 59.7799 341.748 60.1201 341.772 60.4591C341.772 60.5908 341.772 60.7226 341.831 60.8543C341.891 60.9861 341.903 61.2616 341.951 61.4772C341.999 61.6928 342.035 61.8126 342.083 61.9683C342.131 62.1241 342.203 62.3636 342.275 62.5553C342.347 62.7469 342.382 62.8428 342.43 62.9865V63.0584L441.157 10.7605Z" fill="black"/>
<path d="M346 67.5976C344.695 66.684 343.624 65.4759 342.872 64.0712C342.121 62.6665 341.711 61.1047 341.676 59.5122C341.784 56.5894 343.868 55.4634 346.347 57.0087C347.654 57.9235 348.726 59.1334 349.478 60.5403C350.229 61.9473 350.638 63.5115 350.672 65.1061C350.576 68.0288 348.48 69.1668 346 67.5976Z" fill="#D75337"/>
<path d="M324.737 69.5627C324.766 70.7863 325.08 71.9862 325.657 73.0659C326.233 74.1457 327.055 75.0751 328.055 75.7795C328.403 76.0483 328.816 76.2198 329.251 76.2767C329.687 76.3335 330.13 76.2735 330.535 76.1029L347.736 66.9394C348.101 66.6969 348.396 66.3617 348.589 65.9682C348.783 65.5747 348.869 65.1369 348.838 64.6994C348.812 63.4755 348.498 62.2749 347.921 61.1949C347.345 60.1148 346.522 59.1857 345.52 58.4826C345.174 58.2108 344.762 58.0363 344.326 57.9773C343.89 57.9184 343.446 57.977 343.04 58.1472L325.839 67.3107C325.472 67.5543 325.177 67.8914 324.983 68.2872C324.789 68.683 324.704 69.1233 324.737 69.5627Z" fill="#37474F"/>
<path d="M325.864 67.3107C325.493 67.5514 325.192 67.8872 324.994 68.2832C324.796 68.6792 324.708 69.121 324.738 69.5627C324.732 70.4718 324.911 71.3725 325.265 72.2099L347.449 60.3752C346.947 59.6241 346.299 58.9807 345.545 58.4826C345.199 58.2108 344.787 58.0363 344.351 57.9773C343.915 57.9184 343.471 57.977 343.065 58.1472L325.864 67.3107Z" fill="#263238"/>
<path d="M346.813 84.8234C346.813 73.8033 339.531 62.7831 324.953 54.3742C295.821 37.5445 248.578 37.5445 219.435 54.3742C204.869 62.7591 197.586 73.8033 197.586 84.8234V105.187C197.586 116.207 204.869 127.227 219.447 135.648C248.578 152.418 295.821 152.418 324.953 135.648C339.531 127.263 346.813 116.207 346.813 105.187V84.8234ZM223.016 60.615C236.025 53.1045 253.477 48.972 272.128 48.972C290.778 48.972 308.267 53.1045 321.239 60.615C333.002 67.4068 339.483 76.0073 339.483 84.8354C339.483 93.6635 333.002 102.252 321.239 109.044C308.231 116.554 290.778 120.687 272.128 120.687C253.477 120.687 235.989 116.554 223.016 109.044C211.241 102.252 204.773 93.6516 204.773 84.8354C204.773 76.0193 211.277 67.4068 223.016 60.615Z" fill="#D75337"/>
<path opacity="0.3" d="M219.423 115.284C248.566 132.114 295.797 132.114 324.941 115.284C354.085 98.4543 354.085 71.1914 324.941 54.3737C295.797 37.5559 248.566 37.5439 219.423 54.3737C190.279 71.2034 190.303 98.4663 219.423 115.284ZM204.785 84.8348C204.785 76.0067 211.266 67.4062 223.028 60.6144C236.049 53.1039 253.502 48.9714 272.14 48.9714C290.778 48.9714 308.279 53.1039 321.252 60.6144C333.015 67.4062 339.495 76.0067 339.495 84.8348C339.495 93.6629 333.015 102.251 321.252 109.043C308.231 116.554 290.778 120.686 272.14 120.686C253.502 120.686 236.001 116.554 223.028 109.043C211.278 102.251 204.797 93.651 204.797 84.8348H204.785Z" fill="white"/>
<path d="M204.799 84.8222C204.841 88.4115 205.847 91.9236 207.71 94.9919C210.668 89.8651 215.879 85.0618 223.054 80.9292C236.051 73.4067 253.515 69.2742 272.166 69.2742C290.816 69.2742 308.305 73.4067 321.277 80.9292C328.464 85.0618 333.663 89.8651 336.634 94.9919C338.488 91.9203 339.488 88.4096 339.532 84.8222C339.532 76.0061 333.052 67.4055 321.277 60.6138C308.281 53.1033 290.816 48.9707 272.166 48.9707C253.515 48.9707 236.015 53.1033 223.054 60.6138C211.279 67.4055 204.799 76.0061 204.799 84.8222Z" fill="#D75337"/>
<path opacity="0.1" d="M204.799 84.8222C204.841 88.4115 205.847 91.9236 207.71 94.9919C210.668 89.8651 215.879 85.0618 223.054 80.9292C236.051 73.4067 253.515 69.2742 272.166 69.2742C290.816 69.2742 308.305 73.4067 321.277 80.9292C328.464 85.0618 333.663 89.8651 336.634 94.9919C338.488 91.9203 339.488 88.4096 339.532 84.8222C339.532 76.0061 333.052 67.4055 321.277 60.6138C308.281 53.1033 290.816 48.9707 272.166 48.9707C253.515 48.9707 236.015 53.1033 223.054 60.6138C211.279 67.4055 204.799 76.0061 204.799 84.8222Z" fill="black"/>
<path opacity="0.4" d="M223.019 69.8142C236.04 62.3037 253.492 58.1592 272.131 58.1592C290.769 58.1592 308.27 62.3037 321.242 69.8142C330.945 75.4201 337.042 82.2478 338.887 89.4229C337.042 96.61 330.945 103.438 321.242 109.044C308.222 116.554 290.769 120.687 272.131 120.687C253.492 120.687 235.992 116.554 223.019 109.044C213.317 103.438 207.22 96.598 205.375 89.4229C207.244 82.2478 213.341 75.4201 223.019 69.8142Z" fill="white"/>
<path opacity="0.1" d="M254.617 126.663V147.027C241.728 145.23 229.462 141.433 219.448 135.623C204.87 127.238 197.587 116.182 197.587 105.15V84.7867C197.593 82.5416 197.891 80.3067 198.474 78.1387C194.88 91.2551 201.924 105.138 219.424 115.272C229.51 121.105 241.728 124.903 254.617 126.663Z" fill="black"/>
</svg>
