<svg width="476" height="364" viewBox="0 0 476 364" fill="none" xmlns="http://www.w3.org/2000/svg">
<path d="M70.2297 326.414C162.973 376.116 313.342 376.116 406.085 326.414C498.829 276.712 498.819 196.14 406.085 146.438C313.352 96.7356 162.973 96.7356 70.2297 146.438C-22.514 196.14 -22.5037 276.722 70.2297 326.414Z" fill="#F5F5F5"/>
<path d="M100.411 4.82237L93.2273 8.92743C93.2273 8.60929 93.2889 8.29115 93.2889 7.98327V5.93074C93.2889 2.25671 90.7027 0.799403 87.5213 2.60563C86.1483 3.44361 84.9749 4.57143 84.0833 5.91021C83.5599 1.28175 79.9782 -0.442376 75.5242 2.10276C70.7623 4.85315 66.8933 11.5444 66.8933 17.0555V20.1342C66.8787 21.3905 67.1525 22.6334 67.6938 23.7672L61.7723 27.1847C60.8409 27.7922 60.0657 28.6104 59.5094 29.5732C58.9532 30.536 58.6314 31.6163 58.5703 32.7265C58.5703 34.7791 60.0071 35.6001 61.7723 34.5738L100.411 12.2115C101.343 11.6046 102.119 10.7865 102.675 9.82358C103.231 8.86066 103.553 7.78009 103.613 6.66964C103.634 4.63763 102.197 3.80636 100.411 4.82237Z" fill="#EBEBEB"/>
<path d="M130.964 25.6145L125.576 28.6933C125.591 28.4541 125.591 28.2141 125.576 27.9749V26.4458C125.576 23.6749 123.626 22.546 121.225 23.9314C120.192 24.5687 119.307 25.4189 118.628 26.4253C118.238 22.936 115.498 21.6429 112.173 23.562C110.274 24.7967 108.693 26.463 107.561 28.4249C106.428 30.3868 105.776 32.5887 105.656 34.8509V37.1805C105.636 38.1137 105.825 39.0396 106.21 39.8899L101.736 42.4658C101.033 42.9254 100.449 43.544 100.03 44.2714C99.6111 44.9988 99.3693 45.8147 99.3242 46.653C99.3242 48.1924 100.402 48.8184 101.736 48.0487L130.913 31.1974C131.615 30.74 132.199 30.1234 132.618 29.3976C133.037 28.6718 133.279 27.8574 133.324 27.0205C133.376 25.4708 132.298 24.8448 130.964 25.6145Z" fill="#EBEBEB"/>
<path d="M419.323 53.6009L413.935 56.6797C413.95 56.4405 413.95 56.2005 413.935 55.9613V54.4014C413.935 51.6305 411.986 50.5016 409.584 51.8973C408.547 52.5287 407.66 53.38 406.988 54.3911C406.598 50.9018 403.909 49.5985 400.532 51.5176C398.635 52.7534 397.057 54.4202 395.926 56.3821C394.795 58.3439 394.144 60.5452 394.026 62.8065V65.1361C394 66.0688 394.186 66.9952 394.57 67.8455L390.106 70.4214C389.402 70.8805 388.816 71.4987 388.395 72.2261C387.974 72.9534 387.731 73.7696 387.684 74.6086C387.684 76.148 388.771 76.774 390.106 76.0043L419.282 59.153C419.985 58.6956 420.569 58.079 420.988 57.3532C421.407 56.6274 421.649 55.813 421.694 54.9761C421.735 53.4572 420.657 52.8312 419.323 53.6009Z" fill="#EBEBEB"/>
<path d="M97.6947 153.528L17.6562 199.741V203.59L91.024 245.944L171.062 199.741V195.893L97.6947 153.528Z" fill="#D75337"/>
<path opacity="0.15" d="M17.6562 199.741L91.024 242.095V245.944L17.6562 203.59V199.741Z" fill="black"/>
<path opacity="0.1" d="M91.0234 242.095L171.062 195.893V199.741L91.0234 245.944V242.095Z" fill="black"/>
<path d="M163.942 181.996L160.779 188.229L161.292 188.489L164.455 182.257L163.942 181.996Z" fill="#455A64"/>
<path d="M158.094 181.509L157.605 181.812L160.69 186.794L161.179 186.492L158.094 181.509Z" fill="#455A64"/>
<path d="M161.519 180.93V195.954C161.517 195.996 161.503 196.036 161.48 196.071C161.456 196.105 161.424 196.132 161.385 196.149C161.281 196.205 161.165 196.234 161.047 196.234C160.929 196.234 160.812 196.205 160.708 196.149C160.668 196.134 160.633 196.107 160.608 196.073C160.582 196.038 160.567 195.997 160.564 195.954V180.93H161.519Z" fill="#455A64"/>
<path d="M172.879 176.26C172.879 177.64 172.47 178.989 171.703 180.137C170.936 181.285 169.846 182.179 168.571 182.707C167.296 183.235 165.893 183.374 164.539 183.104C163.185 182.835 161.942 182.17 160.966 181.194C159.99 180.219 159.325 178.975 159.056 177.621C158.787 176.268 158.925 174.864 159.453 173.589C159.981 172.314 160.876 171.224 162.023 170.457C163.171 169.691 164.52 169.281 165.9 169.281C167.75 169.284 169.524 170.02 170.832 171.328C172.14 172.636 172.876 174.41 172.879 176.26Z" fill="#D75337"/>
<path opacity="0.2" d="M168.087 174.476C168.99 171.643 169.945 170.535 169.339 170.186C168.184 169.53 166.865 169.218 165.538 169.286C164.211 169.353 162.931 169.799 161.848 170.569C160.765 171.34 159.925 172.403 159.427 173.635C158.928 174.867 158.791 176.215 159.032 177.522C159.273 178.828 159.882 180.039 160.788 181.011C161.694 181.984 162.858 182.677 164.144 183.011C165.431 183.344 166.785 183.303 168.049 182.893C169.313 182.482 170.434 181.72 171.279 180.695C169.175 181.3 166.917 178.15 168.087 174.476Z" fill="black"/>
<path d="M159.815 178.23C159.815 179.2 159.527 180.148 158.988 180.955C158.449 181.762 157.683 182.391 156.787 182.762C155.89 183.133 154.904 183.23 153.952 183.041C153.001 182.852 152.127 182.385 151.441 181.699C150.755 181.012 150.287 180.138 150.098 179.187C149.909 178.235 150.006 177.249 150.377 176.352C150.749 175.456 151.377 174.69 152.184 174.151C152.991 173.612 153.939 173.324 154.909 173.324C156.21 173.324 157.458 173.841 158.378 174.761C159.298 175.681 159.815 176.929 159.815 178.23Z" fill="#D75337"/>
<path opacity="0.2" d="M154.911 173.324C153.882 173.324 152.879 173.651 152.048 174.258C151.914 177.245 154.459 180.169 153.741 181.155C153.023 182.14 151.288 181.534 150.662 180.693C151.094 181.437 151.715 182.055 152.461 182.484C153.208 182.912 154.054 183.137 154.914 183.135C155.775 183.134 156.62 182.905 157.365 182.474C158.11 182.042 158.728 181.422 159.157 180.676C159.586 179.93 159.811 179.084 159.81 178.223C159.809 177.362 159.581 176.517 159.15 175.772C158.719 175.027 158.099 174.409 157.353 173.979C156.607 173.549 155.761 173.324 154.901 173.324H154.911Z" fill="black"/>
<path d="M161.047 181.946C166.018 181.946 170.048 177.916 170.048 172.946C170.048 167.975 166.018 163.945 161.047 163.945C156.076 163.945 152.047 167.975 152.047 172.946C152.047 177.916 156.076 181.946 161.047 181.946Z" fill="#D75337"/>
<path opacity="0.1" d="M169.799 174.997C169.459 176.454 168.761 177.804 167.768 178.924C166.776 180.043 165.52 180.898 164.114 181.41C162.708 181.922 161.196 182.076 159.716 181.857C158.236 181.638 156.833 181.053 155.636 180.156C154.439 179.258 153.484 178.076 152.858 176.717C152.232 175.358 151.955 173.864 152.052 172.371C152.149 170.878 152.616 169.432 153.413 168.165C154.209 166.898 155.308 165.849 156.611 165.114C155.851 165.563 155.159 166.119 154.559 166.767C154.111 168.69 154.31 170.708 155.124 172.508C155.938 174.308 157.322 175.789 159.062 176.723C160.803 177.658 162.802 177.993 164.752 177.677C166.702 177.362 168.494 176.412 169.85 174.977L169.799 174.997Z" fill="black"/>
<path d="M30.5928 185.831L27.4297 192.063L27.9422 192.324L31.1053 186.091L30.5928 185.831Z" fill="#455A64"/>
<path d="M24.7191 185.335L24.2305 185.638L27.3149 190.62L27.8036 190.318L24.7191 185.335Z" fill="#455A64"/>
<path d="M28.1556 184.758V199.782C28.1515 199.825 28.136 199.865 28.1107 199.9C28.0854 199.934 28.0513 199.961 28.0119 199.977C27.9063 200.028 27.7905 200.055 27.6733 200.055C27.556 200.055 27.4402 200.028 27.3346 199.977C27.2965 199.96 27.2639 199.933 27.2403 199.899C27.2168 199.864 27.2032 199.824 27.2012 199.782V184.758H28.1556Z" fill="#455A64"/>
<path d="M39.5158 180.077C39.5158 181.457 39.1065 182.807 38.3397 183.954C37.5729 185.102 36.483 185.996 35.2078 186.525C33.9326 187.053 32.5295 187.191 31.1757 186.922C29.822 186.652 28.5786 185.988 27.6026 185.012C26.6266 184.036 25.962 182.792 25.6927 181.439C25.4234 180.085 25.5616 178.682 26.0898 177.407C26.618 176.131 27.5125 175.042 28.6601 174.275C29.8077 173.508 31.157 173.099 32.5372 173.099C34.388 173.099 36.1631 173.834 37.4718 175.143C38.7806 176.451 39.5158 178.226 39.5158 180.077Z" fill="#D75337"/>
<path opacity="0.2" d="M34.7323 178.292C35.6354 175.459 36.5898 174.351 35.9843 174.012C34.9387 173.41 33.7527 173.095 32.5463 173.099C31.3705 173.098 30.2135 173.395 29.183 173.961C28.1524 174.527 27.2815 175.344 26.6513 176.337C26.0212 177.33 25.652 178.466 25.5782 179.639C25.5044 180.813 25.7283 181.986 26.2292 183.05C26.7301 184.114 27.4916 185.034 28.4432 185.725C29.3947 186.415 30.5054 186.855 31.672 187.001C32.8387 187.148 34.0235 186.998 35.1165 186.564C36.2095 186.13 37.1752 185.428 37.924 184.521C35.8509 185.126 33.5521 181.966 34.7323 178.292Z" fill="black"/>
<path d="M26.4517 182.059C26.4517 183.029 26.164 183.978 25.625 184.784C25.086 185.591 24.3198 186.22 23.4234 186.591C22.5271 186.962 21.5407 187.059 20.5892 186.87C19.6376 186.681 18.7635 186.214 18.0774 185.528C17.3914 184.842 16.9242 183.967 16.7349 183.016C16.5456 182.064 16.6428 181.078 17.014 180.182C17.3853 179.285 18.0141 178.519 18.8208 177.98C19.6275 177.441 20.576 177.153 21.5462 177.153C22.1908 177.152 22.8293 177.278 23.4251 177.524C24.0208 177.77 24.5622 178.131 25.0179 178.587C25.4737 179.043 25.835 179.584 26.0811 180.18C26.3271 180.776 26.4531 181.414 26.4517 182.059Z" fill="#D75337"/>
<path opacity="0.2" d="M21.5476 177.153C20.5193 177.15 19.5165 177.473 18.6843 178.077C18.5509 181.074 21.0857 183.999 20.3776 184.973C19.6695 185.948 17.9146 185.353 17.2988 184.522C17.731 185.266 18.3515 185.884 19.0979 186.313C19.8443 186.741 20.6903 186.966 21.5511 186.964C22.4119 186.963 23.257 186.735 24.0017 186.303C24.7463 185.871 25.3643 185.251 25.7935 184.505C26.2227 183.759 26.448 182.913 26.4468 182.052C26.4456 181.191 26.2179 180.346 25.7866 179.601C25.3553 178.856 24.7356 178.238 23.9897 177.808C23.2439 177.378 22.3981 177.153 21.5373 177.153H21.5476Z" fill="black"/>
<path d="M27.6722 185.763C32.643 185.763 36.6726 181.734 36.6726 176.763C36.6726 171.792 32.643 167.763 27.6722 167.763C22.7015 167.763 18.6719 171.792 18.6719 176.763C18.6719 181.734 22.7015 185.763 27.6722 185.763Z" fill="#D75337"/>
<path opacity="0.1" d="M36.4282 178.826C36.0845 180.279 35.3844 181.623 34.3912 182.737C33.398 183.852 32.1428 184.702 30.739 185.21C29.3352 185.718 27.827 185.868 26.3505 185.648C24.8741 185.427 23.4758 184.842 22.2819 183.946C21.088 183.049 20.1362 181.87 19.5123 180.514C18.8883 179.157 18.612 177.667 18.7081 176.177C18.8043 174.687 19.2699 173.245 20.063 171.98C20.8561 170.715 21.9517 169.668 23.2509 168.933C22.4745 169.38 21.7661 169.937 21.1471 170.585C20.7035 172.507 20.9042 174.521 21.7183 176.317C22.5323 178.114 23.9145 179.593 25.6519 180.526C27.3893 181.46 29.3855 181.796 31.3328 181.483C33.2802 181.17 35.0706 180.226 36.4282 178.795V178.826Z" fill="black"/>
<path d="M115.859 216.202L127.035 209.757L137.062 215.545L125.896 221.98L115.859 216.202Z" fill="#F0F0F0"/>
<path d="M37.6802 199.741L37.6699 165.084L91.0357 195.882V230.549L37.6802 199.741Z" fill="#F0F0F0"/>
<path d="M37.6699 178.836L91.0357 209.655V195.882L37.6699 165.084V178.836Z" fill="#E0E0E0"/>
<path d="M151.051 195.882V162.19L131.039 157.377V153.528L91.0352 195.882V230.55L151.051 195.882Z" fill="#FAFAFA"/>
<path d="M131.039 153.528V157.377L154.387 163.155V159.306L131.039 153.528Z" fill="#263238"/>
<path d="M101.041 128.498L154.387 159.306L131.039 153.528L77.6836 122.72L101.041 128.498Z" fill="#37474F"/>
<path d="M87.6889 201.681L131.049 153.528V149.68L84.3535 203.589L87.6889 201.681Z" fill="#37474F"/>
<path d="M77.6931 118.871L131.049 149.68L84.4357 203.641L30.998 172.781L77.6931 118.871Z" fill="#455A64"/>
<path d="M60.9551 168.789L67.6771 172.668V182.408L60.9551 178.559V168.789Z" fill="#263238"/>
<path d="M67.6758 172.668L74.3876 168.789V174.711L67.6758 182.408V172.668Z" fill="#37474F"/>
<path d="M67.6758 162.19L60.2559 166.47V168.41L67.6758 172.669L75.0854 168.41V166.47L67.6758 162.19Z" fill="#F5F5F5"/>
<path d="M60.2559 168.409L67.6758 172.668V170.729L60.2559 166.47V168.409Z" fill="#E0E0E0"/>
<path d="M75.0854 168.409L67.6758 172.668V170.729L75.0854 166.47V168.409Z" fill="#EBEBEB"/>
<path d="M62.75 166.469L67.6761 163.626L72.6021 166.469L67.6761 169.301L62.75 166.469Z" fill="#D75337"/>
<path d="M67.6761 163.626V169.301L62.75 166.469L67.6761 163.626Z" fill="#37474F"/>
<path d="M67.6758 163.626L72.6019 166.469L67.6758 169.301V163.626Z" fill="#263238"/>
<path d="M95.3555 204.944L110.37 196.282V207.838L95.3555 216.5V204.944Z" fill="#455A64"/>
<path d="M109.703 207.449V196.673L95.3555 204.945V215.731L109.703 207.449Z" fill="#E0E0E0"/>
<path d="M110.37 207.839L109.703 207.449L95.3555 215.731V216.501L110.37 207.839Z" fill="#37474F"/>
<path d="M95.3555 210.722L110.37 202.06V201.28L95.3555 209.942V210.722Z" fill="#455A64"/>
<path d="M132.043 183.752L147.047 175.09V186.646L132.043 195.307V183.752Z" fill="#455A64"/>
<path d="M146.38 186.255V175.479L132.043 183.751V194.537L146.38 186.255Z" fill="#E0E0E0"/>
<path d="M147.047 186.646L146.38 186.256L132.043 194.538V195.308L147.047 186.646Z" fill="#37474F"/>
<path d="M132.043 189.531L147.047 180.869V180.089L132.043 188.761V189.531Z" fill="#455A64"/>
<path d="M115.859 216.201V193.1L127.035 186.655V209.757L115.859 216.201Z" fill="#37474F"/>
<path d="M126.645 209.46V186.882L115.859 193.101V215.679L126.645 209.46Z" fill="#455A64"/>
<path d="M127.036 186.655L126.646 186.881V209.459L127.036 209.757V186.655Z" fill="#263238"/>
<path d="M78.8543 200.418L71.0137 195.893V207.438L78.8543 211.964V200.418Z" fill="#455A64"/>
<path d="M71.6797 207.048V196.272L78.8533 200.419V211.194L71.6797 207.048Z" fill="#FAFAFA"/>
<path d="M71.0137 207.437L71.6807 207.047L78.8543 211.193V211.963L71.0137 207.437Z" fill="#37474F"/>
<path d="M78.8543 206.155L71.0137 201.66V200.88L78.8543 205.375V206.155Z" fill="#455A64"/>
<path d="M71.6797 196.272L78.8533 200.419V202.646L71.6797 198.53V196.272Z" fill="#F5F5F5"/>
<path d="M55.5047 186.933L47.6641 182.407V193.963L55.5047 198.489V186.933Z" fill="#455A64"/>
<path d="M48.3418 193.574V182.798L55.5051 186.934V197.709L48.3418 193.574Z" fill="#FAFAFA"/>
<path d="M47.6641 193.963L48.3414 193.573L55.5047 197.709V198.489L47.6641 193.963Z" fill="#37474F"/>
<path d="M55.5047 192.67L47.6641 188.174V187.395L55.5047 191.89V192.67Z" fill="#455A64"/>
<path d="M48.3418 182.798L55.5051 186.934V189.068L48.3418 184.963V182.798Z" fill="#F5F5F5"/>
<path d="M375.308 150.161L295.27 196.374V200.222L375.308 246.435L455.357 200.222V196.374L375.308 150.161Z" fill="#D75337"/>
<path opacity="0.15" d="M295.27 196.374L375.318 242.587L375.308 246.435L295.27 200.223V196.374Z" fill="black"/>
<path opacity="0.1" d="M375.319 242.587L455.357 196.374V200.223L375.309 246.435L375.319 242.587Z" fill="black"/>
<path d="M448.458 182.605L445.295 188.837L445.807 189.097L448.97 182.865L448.458 182.605Z" fill="#455A64"/>
<path d="M443.414 180.363L442.926 180.668L446.032 185.649L446.52 185.344L443.414 180.363Z" fill="#455A64"/>
<path d="M446.048 181.544V196.568C446.046 196.61 446.033 196.65 446.009 196.685C445.985 196.719 445.953 196.746 445.915 196.763C445.811 196.819 445.694 196.848 445.576 196.848C445.458 196.848 445.342 196.819 445.237 196.763C445.198 196.747 445.164 196.72 445.139 196.686C445.113 196.651 445.098 196.611 445.094 196.568V181.544H446.048Z" fill="#455A64"/>
<path d="M457.41 176.875C457.41 178.255 457.001 179.605 456.234 180.752C455.467 181.9 454.378 182.794 453.102 183.322C451.827 183.851 450.424 183.989 449.07 183.72C447.717 183.45 446.473 182.786 445.497 181.81C444.521 180.834 443.856 179.59 443.587 178.237C443.318 176.883 443.456 175.48 443.984 174.204C444.513 172.929 445.407 171.839 446.555 171.073C447.702 170.306 449.051 169.896 450.432 169.896C452.283 169.896 454.058 170.632 455.366 171.94C456.675 173.249 457.41 175.024 457.41 176.875Z" fill="#D75337"/>
<path opacity="0.2" d="M452.617 175.089C453.52 172.256 454.485 171.148 453.869 170.799C452.713 170.144 451.394 169.834 450.067 169.903C448.74 169.972 447.461 170.419 446.379 171.191C445.298 171.962 444.459 173.027 443.961 174.259C443.463 175.491 443.328 176.839 443.57 178.145C443.813 179.452 444.423 180.662 445.329 181.633C446.236 182.605 447.401 183.297 448.687 183.629C449.974 183.961 451.328 183.919 452.592 183.508C453.855 183.097 454.975 182.334 455.819 181.308C453.746 181.913 451.458 178.732 452.617 175.089Z" fill="black"/>
<path d="M444.346 178.845C444.346 179.815 444.059 180.764 443.52 181.57C442.981 182.377 442.214 183.006 441.318 183.377C440.422 183.748 439.435 183.846 438.484 183.656C437.532 183.467 436.658 183 435.972 182.314C435.286 181.628 434.819 180.754 434.629 179.802C434.44 178.85 434.537 177.864 434.909 176.968C435.28 176.071 435.909 175.305 436.715 174.766C437.522 174.227 438.47 173.939 439.441 173.939C440.742 173.939 441.99 174.456 442.909 175.376C443.829 176.296 444.346 177.544 444.346 178.845Z" fill="#D75337"/>
<path opacity="0.2" d="M439.44 173.939C438.411 173.941 437.408 174.268 436.576 174.873C436.443 177.86 438.988 180.785 438.28 181.77C437.572 182.755 435.817 182.15 435.201 181.308C435.633 182.052 436.254 182.67 437 183.099C437.747 183.527 438.593 183.752 439.453 183.751C440.314 183.749 441.159 183.521 441.904 183.089C442.649 182.657 443.267 182.037 443.696 181.291C444.125 180.545 444.35 179.699 444.349 178.838C444.348 177.977 444.12 177.132 443.689 176.387C443.258 175.642 442.638 175.024 441.892 174.594C441.146 174.165 440.3 173.939 439.44 173.939Z" fill="black"/>
<path d="M445.577 182.56C450.547 182.56 454.577 178.531 454.577 173.56C454.577 168.589 450.547 164.56 445.577 164.56C440.606 164.56 436.576 168.589 436.576 173.56C436.576 178.531 440.606 182.56 445.577 182.56Z" fill="#D75337"/>
<path opacity="0.1" d="M454.331 175.653C453.983 177.105 453.279 178.448 452.283 179.56C451.287 180.672 450.03 181.519 448.626 182.024C447.221 182.53 445.713 182.678 444.236 182.455C442.76 182.232 441.362 181.646 440.169 180.749C438.976 179.852 438.025 178.672 437.401 177.315C436.777 175.959 436.501 174.469 436.597 172.979C436.692 171.489 437.157 170.047 437.949 168.781C438.741 167.516 439.835 166.467 441.133 165.729C440.35 166.171 439.637 166.728 439.019 167.382C438.572 169.306 438.77 171.323 439.584 173.123C440.398 174.923 441.782 176.404 443.523 177.339C445.263 178.273 447.263 178.608 449.212 178.293C451.162 177.977 452.954 177.028 454.31 175.592L454.331 175.653Z" fill="black"/>
<path d="M308.177 182.276L305.014 188.508L305.526 188.768L308.689 182.536L308.177 182.276Z" fill="#455A64"/>
<path d="M303.172 180.533L302.684 180.838L305.789 185.819L306.278 185.514L303.172 180.533Z" fill="#455A64"/>
<path d="M305.769 181.217V196.241C305.764 196.283 305.748 196.324 305.723 196.358C305.697 196.392 305.664 196.419 305.625 196.436C305.52 196.487 305.404 196.514 305.287 196.514C305.169 196.514 305.053 196.487 304.948 196.436C304.912 196.417 304.881 196.389 304.857 196.355C304.834 196.321 304.819 196.282 304.814 196.241V181.217H305.769Z" fill="#455A64"/>
<path d="M317.131 176.536C317.131 177.916 316.722 179.266 315.955 180.413C315.188 181.561 314.098 182.455 312.823 182.984C311.548 183.512 310.145 183.65 308.791 183.381C307.437 183.111 306.194 182.447 305.218 181.471C304.242 180.495 303.577 179.251 303.308 177.898C303.039 176.544 303.177 175.141 303.705 173.866C304.233 172.59 305.128 171.501 306.275 170.734C307.423 169.967 308.772 169.558 310.152 169.558C312.002 169.56 313.776 170.296 315.084 171.605C316.392 172.913 317.128 174.686 317.131 176.536Z" fill="#D75337"/>
<path opacity="0.2" d="M312.339 174.752C313.242 171.919 314.197 170.811 313.591 170.462C312.436 169.807 311.117 169.496 309.791 169.565C308.465 169.634 307.185 170.08 306.104 170.85C305.022 171.621 304.183 172.684 303.684 173.915C303.186 175.146 303.049 176.494 303.29 177.8C303.53 179.106 304.139 180.316 305.044 181.288C305.948 182.261 307.112 182.954 308.397 183.289C309.683 183.623 311.037 183.583 312.3 183.174C313.564 182.765 314.685 182.005 315.531 180.981C313.468 181.576 311.169 178.426 312.339 174.752Z" fill="black"/>
<path d="M304.065 178.507C304.067 179.477 303.781 180.427 303.243 181.235C302.705 182.043 301.94 182.673 301.044 183.046C300.148 183.419 299.161 183.518 298.209 183.329C297.256 183.141 296.381 182.675 295.694 181.989C295.007 181.304 294.539 180.43 294.349 179.478C294.159 178.526 294.255 177.539 294.626 176.642C294.997 175.745 295.626 174.978 296.433 174.439C297.24 173.899 298.189 173.611 299.159 173.611C300.459 173.611 301.705 174.127 302.625 175.045C303.544 175.962 304.062 177.207 304.065 178.507Z" fill="#D75337"/>
<path opacity="0.2" d="M299.159 173.601C298.131 173.597 297.128 173.92 296.296 174.524C296.162 177.521 298.707 180.436 297.989 181.421C297.271 182.406 295.526 181.8 294.91 180.969C295.342 181.714 295.963 182.331 296.709 182.76C297.456 183.189 298.302 183.413 299.162 183.412C300.023 183.41 300.868 183.182 301.613 182.75C302.358 182.318 302.976 181.698 303.405 180.952C303.834 180.206 304.059 179.36 304.058 178.499C304.057 177.639 303.829 176.793 303.398 176.048C302.967 175.303 302.347 174.685 301.601 174.255C300.855 173.826 300.009 173.6 299.149 173.601H299.159Z" fill="black"/>
<path d="M305.286 182.221C310.256 182.221 314.286 178.192 314.286 173.221C314.286 168.25 310.256 164.221 305.286 164.221C300.315 164.221 296.285 168.25 296.285 173.221C296.285 178.192 300.315 182.221 305.286 182.221Z" fill="#D75337"/>
<path opacity="0.1" d="M314.052 175.284C313.71 176.74 313.011 178.088 312.018 179.206C311.024 180.324 309.768 181.177 308.362 181.688C306.956 182.198 305.445 182.35 303.965 182.13C302.486 181.91 301.085 181.325 299.888 180.428C298.692 179.53 297.738 178.348 297.113 176.99C296.488 175.631 296.211 174.138 296.308 172.645C296.405 171.152 296.872 169.708 297.668 168.441C298.463 167.174 299.562 166.126 300.864 165.391C300.086 165.835 299.377 166.392 298.76 167.043C298.322 168.965 298.527 170.977 299.343 172.771C300.159 174.565 301.541 176.042 303.278 176.974C305.014 177.907 307.009 178.243 308.955 177.932C310.902 177.621 312.692 176.68 314.052 175.253V175.284Z" fill="black"/>
<path d="M391.432 130.066L398.143 133.946V141.704L391.432 137.825V130.066Z" fill="#E0E0E0"/>
<path d="M398.143 133.946L404.865 130.066V145.573L398.143 141.704V133.946Z" fill="#F0F0F0"/>
<path d="M398.142 123.468L390.732 127.737V129.677L398.142 133.946L405.562 129.677V127.737L398.142 123.468Z" fill="#455A64"/>
<path d="M390.732 129.676L398.142 133.945V132.006L390.732 127.736V129.676Z" fill="#37474F"/>
<path d="M405.562 129.676L398.143 133.945V132.006L405.562 127.736V129.676Z" fill="#263238"/>
<path d="M393.217 127.737L398.143 124.904L403.079 127.737L398.143 130.58L393.217 127.737Z" fill="#D75337"/>
<path d="M398.143 124.904V130.58L393.217 127.737L398.143 124.904Z" fill="#37474F"/>
<path d="M398.143 124.904L403.079 127.737L398.143 130.58V124.904Z" fill="#263238"/>
<path d="M375.319 207.929L375.309 173.272L395.29 184.818V219.475L375.319 207.929Z" fill="#F0F0F0"/>
<path d="M375.309 173.272L395.29 184.818V198.621L375.309 187.096V173.272Z" fill="#E0E0E0"/>
<path d="M435.344 196.374V161.717L415.291 150.161L395.289 184.818V219.475L435.344 196.374Z" fill="#FAFAFA"/>
<path d="M391.986 190.596L415.292 150.161V146.312L388.65 192.525L391.986 190.596Z" fill="#37474F"/>
<path d="M375.309 123.212L415.292 146.313L388.65 192.526L375.319 184.819L375.309 123.212Z" fill="#455A64"/>
<path d="M415.291 150.161L438.68 163.636L442.015 161.717L415.291 146.312V150.161Z" fill="#263238"/>
<path d="M423.654 180.733L431.495 176.238V187.794L423.654 192.289V180.733Z" fill="#455A64"/>
<path d="M430.828 187.405V176.629L423.654 180.734V191.51L430.828 187.405Z" fill="#E0E0E0"/>
<path d="M431.495 187.793L430.828 187.403L423.654 191.508V192.288L431.495 187.793Z" fill="#37474F"/>
<path d="M423.654 186.511L431.495 182.016V181.236L423.654 185.731V186.511Z" fill="#455A64"/>
<path d="M399.047 194.927L406.888 190.432V201.977L399.047 206.482V194.927Z" fill="#455A64"/>
<path d="M406.22 201.598V190.812L399.047 194.927V205.703L406.22 201.598Z" fill="#E0E0E0"/>
<path d="M406.888 201.977L406.22 201.598L399.047 205.703V206.483L406.888 201.977Z" fill="#37474F"/>
<path d="M399.047 200.705L406.888 196.21V195.43L399.047 199.925V200.705Z" fill="#455A64"/>
<path d="M410.295 167.495L420.301 161.717V170.378L410.295 176.156V167.495Z" fill="#455A64"/>
<path d="M419.634 169.989V162.097L410.295 167.495V175.387L419.634 169.989Z" fill="#E0E0E0"/>
<path d="M420.301 170.379L419.634 169.989L410.295 175.387V176.157L420.301 170.379Z" fill="#37474F"/>
<path d="M438.681 163.636H435.346V161.717L438.681 163.636Z" fill="black"/>
<path d="M409.709 211.142V188.041L420.885 181.596V204.697L409.709 211.142Z" fill="#37474F"/>
<path d="M420.495 204.399V181.821L409.709 188.04V210.618L420.495 204.399Z" fill="#455A64"/>
<path d="M420.886 181.596L420.496 181.821V204.399L420.886 204.697V181.596Z" fill="#263238"/>
<path d="M375.309 207.929V173.272L355.338 184.818V219.475L375.309 207.929Z" fill="#FAFAFA"/>
<path d="M375.309 173.272L355.338 184.818V198.621L375.319 187.096L375.309 173.272Z" fill="#F5F5F5"/>
<path d="M315.283 196.374V161.717L335.326 150.161L355.338 184.818V219.475L315.283 196.374Z" fill="#EBEBEB"/>
<path d="M358.641 190.596L335.324 150.161V146.312L361.976 192.525L358.641 190.596Z" fill="#455A64"/>
<path d="M375.308 123.212L335.324 146.313L361.976 192.526L375.308 184.819V123.212Z" fill="#37474F"/>
<path d="M335.325 150.161L311.947 163.636L308.611 161.717L335.325 146.312V150.161Z" fill="#263238"/>
<path d="M329.794 181.617L321.953 177.122V188.678L329.794 193.163V181.617Z" fill="#455A64"/>
<path d="M322.621 188.287V177.501L329.795 181.616V192.392L322.621 188.287Z" fill="#FAFAFA"/>
<path d="M322.621 177.501L329.795 181.647V183.074L322.621 178.958V177.501Z" fill="#F5F5F5"/>
<path d="M341.463 188.379L348.636 192.525V193.952L341.463 189.836V188.379Z" fill="#F5F5F5"/>
<path d="M321.953 188.677L322.62 188.287L329.794 192.392V193.162L321.953 188.677Z" fill="#37474F"/>
<path d="M329.794 187.394L321.953 182.899V182.119L329.794 186.614V187.394Z" fill="#455A64"/>
<path d="M340.334 167.495L330.328 161.717V170.378L340.334 176.156V167.495Z" fill="#455A64"/>
<path d="M330.994 169.989V162.097L340.333 167.495V175.387L330.994 169.989Z" fill="#FAFAFA"/>
<path d="M330.994 162.097L340.333 167.495V168.921L330.994 163.564V162.097Z" fill="#F5F5F5"/>
<path d="M330.328 170.379L330.995 169.989L340.334 175.387V176.157L330.328 170.379Z" fill="#37474F"/>
<path d="M311.947 163.636H315.283V161.717L311.947 163.636Z" fill="black"/>
<path d="M348.636 192.525L340.795 187.999V199.545L348.636 204.07V192.525Z" fill="#455A64"/>
<path d="M341.463 199.155V188.379L348.636 192.525V203.301L341.463 199.155Z" fill="#FAFAFA"/>
<path d="M340.795 199.545L341.462 199.155L348.636 203.301V204.071L340.795 199.545Z" fill="#37474F"/>
<path d="M348.636 198.262L340.795 193.767V192.987L348.636 197.482V198.262Z" fill="#455A64"/>
<path d="M341.463 188.379L348.636 192.525V193.952L341.463 189.836V188.379Z" fill="#F5F5F5"/>
<path d="M388.649 192.525L378.633 186.737V197.39L388.649 203.168V192.525Z" fill="#263238"/>
<path d="M379.248 197.031V187.097L388.649 192.526V202.46L379.248 197.031Z" fill="#FAFAFA"/>
<path d="M379.248 187.097V189.406L388.649 194.845V192.526L379.248 187.097Z" fill="#F0F0F0"/>
<path d="M378.635 197.389L379.251 197.03L388.651 202.459V203.167L378.635 197.389Z" fill="#37474F"/>
<path d="M378.635 192.063L379.251 191.704L388.651 197.133V197.851L378.635 192.063Z" fill="#37474F"/>
<path d="M383.436 200.161L384.051 200.51V189.868L383.436 189.509V200.161Z" fill="#37474F"/>
<path d="M368.465 215.678L370.241 214.652C370.73 211.766 370.802 208.825 370.456 205.918C369.564 200.253 365.695 198.293 364.299 198.858C362.903 199.422 362.575 201.105 365.11 204.379C367.401 207.693 368.577 211.651 368.465 215.678Z" fill="#D75337"/>
<g opacity="0.2">
<path d="M368.463 215.678L370.239 214.652C370.728 211.766 370.8 208.825 370.454 205.918C369.562 200.253 365.693 198.293 364.297 198.858C362.901 199.422 362.573 201.105 365.108 204.379C367.399 207.693 368.575 211.651 368.463 215.678Z" fill="black"/>
</g>
<path d="M369.11 213.461C369.093 213.46 369.076 213.455 369.061 213.447C369.046 213.439 369.033 213.428 369.022 213.414C369.011 213.401 369.004 213.385 368.999 213.368C368.995 213.352 368.994 213.334 368.997 213.317C369.736 208.012 367.602 202.193 365.2 199.842C365.177 199.819 365.164 199.788 365.164 199.755C365.164 199.722 365.177 199.691 365.2 199.668C365.223 199.645 365.255 199.632 365.287 199.632C365.32 199.632 365.352 199.645 365.375 199.668C367.817 202.049 369.993 207.96 369.254 213.358C369.251 213.375 369.246 213.39 369.237 213.404C369.229 213.418 369.217 213.43 369.204 213.44C369.19 213.45 369.175 213.456 369.159 213.46C369.143 213.464 369.126 213.464 369.11 213.461Z" fill="white"/>
<path d="M363.538 218.563C363.25 218.727 362.676 218.378 362.45 218.224C362.072 217.963 361.768 217.61 361.567 217.198C361.34 216.733 361.261 216.21 361.342 215.699C361.386 215.429 361.448 215.162 361.526 214.899C361.608 214.632 361.68 214.375 361.752 214.119C361.845 213.866 361.884 213.597 361.865 213.329C361.795 213.07 361.673 212.829 361.508 212.619C361.342 212.409 361.135 212.235 360.9 212.107C360.636 211.955 360.412 211.742 360.244 211.488C360.077 211.233 359.971 210.943 359.936 210.64C359.969 210.141 360.168 209.668 360.5 209.295C360.808 208.905 361.167 208.567 361.444 208.156C361.633 207.935 361.746 207.658 361.764 207.368C361.783 207.077 361.706 206.789 361.547 206.545C361.287 206.147 361.061 205.728 360.869 205.293C360.776 205.075 360.747 204.834 360.785 204.6C360.823 204.365 360.927 204.147 361.085 203.969C361.241 203.852 361.418 203.768 361.606 203.72C361.795 203.673 361.991 203.663 362.183 203.692C362.548 203.734 362.898 203.857 363.209 204.051C364.236 204.616 364.81 205.827 365.888 206.258C366.314 206.394 366.75 206.5 367.191 206.576C367.413 206.615 367.624 206.701 367.81 206.829C367.996 206.956 368.152 207.122 368.269 207.315C368.669 208.105 367.93 209.08 368.207 209.921C368.484 210.763 369.182 210.948 369.582 211.625C369.754 211.915 369.823 212.255 369.777 212.59C369.741 213.161 369.602 213.72 369.367 214.242C369.099 214.754 368.797 215.248 368.464 215.72L363.538 218.563Z" fill="#D75337"/>
<g opacity="0.1">
<path d="M363.538 218.563C363.25 218.727 362.676 218.378 362.45 218.224C362.072 217.963 361.768 217.61 361.567 217.198C361.34 216.733 361.261 216.21 361.342 215.699C361.386 215.429 361.448 215.162 361.526 214.899C361.608 214.632 361.68 214.375 361.752 214.119C361.845 213.866 361.884 213.597 361.865 213.329C361.795 213.07 361.673 212.829 361.508 212.619C361.342 212.409 361.135 212.235 360.9 212.107C360.636 211.955 360.412 211.742 360.244 211.488C360.077 211.233 359.971 210.943 359.936 210.64C359.969 210.141 360.168 209.668 360.5 209.295C360.808 208.905 361.167 208.567 361.444 208.156C361.633 207.935 361.746 207.658 361.764 207.368C361.783 207.077 361.706 206.789 361.547 206.545C361.287 206.147 361.061 205.728 360.869 205.293C360.776 205.075 360.747 204.834 360.785 204.6C360.823 204.365 360.927 204.147 361.085 203.969C361.241 203.852 361.418 203.768 361.606 203.72C361.795 203.673 361.991 203.663 362.183 203.692C362.548 203.734 362.898 203.857 363.209 204.051C364.236 204.616 364.81 205.827 365.888 206.258C366.314 206.394 366.75 206.5 367.191 206.576C367.413 206.615 367.624 206.701 367.81 206.829C367.996 206.956 368.152 207.122 368.269 207.315C368.669 208.105 367.93 209.08 368.207 209.921C368.484 210.763 369.182 210.948 369.582 211.625C369.754 211.915 369.823 212.255 369.777 212.59C369.741 213.161 369.602 213.72 369.367 214.242C369.099 214.754 368.797 215.248 368.464 215.72L363.538 218.563Z" fill="black"/>
</g>
<path d="M366.423 217.032C366.39 217.028 366.36 217.012 366.338 216.987C366.315 216.963 366.302 216.932 366.3 216.899C366.515 211.87 364.145 206.318 362.421 204.707C362.409 204.695 362.399 204.682 362.392 204.666C362.385 204.651 362.381 204.635 362.381 204.618C362.38 204.601 362.383 204.585 362.389 204.569C362.395 204.554 362.404 204.539 362.416 204.527C362.427 204.515 362.441 204.505 362.456 204.498C362.471 204.492 362.488 204.488 362.504 204.487C362.521 204.487 362.538 204.49 362.553 204.496C362.569 204.502 362.583 204.511 362.595 204.522C364.35 206.164 366.772 211.808 366.557 216.909C366.554 216.943 366.539 216.974 366.514 216.997C366.489 217.02 366.457 217.032 366.423 217.032Z" fill="white"/>
<path d="M365.662 211.091C364.468 210.767 363.243 210.571 362.008 210.506C361.991 210.506 361.974 210.502 361.959 210.495C361.943 210.489 361.929 210.479 361.917 210.466C361.906 210.453 361.897 210.439 361.891 210.422C361.886 210.406 361.884 210.389 361.885 210.372C361.888 210.339 361.903 210.307 361.928 210.284C361.952 210.262 361.985 210.249 362.019 210.249C363.275 210.314 364.521 210.517 365.734 210.855C365.749 210.859 365.764 210.867 365.776 210.877C365.789 210.888 365.799 210.9 365.807 210.914C365.814 210.929 365.819 210.944 365.821 210.961C365.822 210.977 365.821 210.993 365.816 211.008C365.804 211.038 365.782 211.063 365.754 211.078C365.726 211.093 365.693 211.098 365.662 211.091Z" fill="white"/>
<path d="M409.709 211.142L420.885 204.697L430.912 210.485L419.736 216.92L409.709 211.142Z" fill="#F0F0F0"/>
<path d="M228.985 227.892L131.428 284.213V288.544L232.73 347.031L330.277 290.709V286.378L228.985 227.892Z" fill="#D75337"/>
<path d="M274.008 305.877L285.194 312.414L303.985 301.567L292.768 295.05L274.008 305.877Z" fill="#F0F0F0"/>
<path opacity="0.15" d="M131.428 284.213L232.73 342.7V347.031L131.428 288.544V284.213Z" fill="black"/>
<path opacity="0.1" d="M232.73 342.701L330.277 286.38V290.711L232.73 347.032V342.701Z" fill="black"/>
<path d="M319.316 267.2L314.969 275.766L315.673 276.123L320.021 267.558L319.316 267.2Z" fill="#263238"/>
<path d="M311.237 266.471L310.574 266.882L314.815 273.732L315.478 273.321L311.237 266.471Z" fill="#263238"/>
<path d="M315.931 265.679V286.317C315.925 286.375 315.904 286.43 315.869 286.477C315.835 286.523 315.789 286.56 315.736 286.584C315.591 286.658 315.431 286.696 315.269 286.696C315.107 286.696 314.946 286.658 314.802 286.584C314.75 286.56 314.705 286.523 314.673 286.476C314.64 286.429 314.621 286.374 314.617 286.317V265.679H315.931Z" fill="#263238"/>
<path d="M321.974 268.84C327.268 268.84 331.559 264.548 331.559 259.254C331.559 253.96 327.268 249.669 321.974 249.669C316.68 249.669 312.389 253.96 312.389 259.254C312.389 264.548 316.68 268.84 321.974 268.84Z" fill="#455A64"/>
<path d="M324.982 256.81C326.213 252.911 327.537 251.392 326.696 250.92C325.108 250.02 323.297 249.592 321.474 249.687C319.652 249.781 317.895 250.394 316.409 251.452C314.922 252.511 313.769 253.972 313.085 255.663C312.4 257.355 312.213 259.207 312.544 261.001C312.876 262.795 313.713 264.458 314.957 265.793C316.2 267.128 317.799 268.08 319.566 268.538C321.332 268.996 323.192 268.94 324.928 268.377C326.664 267.813 328.203 266.767 329.364 265.359C326.531 266.18 323.381 261.86 324.982 256.81Z" fill="#37474F"/>
<path d="M306.877 268.706C310.595 268.706 313.609 265.692 313.609 261.974C313.609 258.255 310.595 255.241 306.877 255.241C303.159 255.241 300.145 258.255 300.145 261.974C300.145 265.692 303.159 268.706 306.877 268.706Z" fill="#455A64"/>
<path d="M306.878 255.231C305.463 255.23 304.083 255.675 302.937 256.504C302.762 260.609 306.251 264.632 305.277 265.987C304.302 267.341 301.89 266.5 301.059 265.361C301.654 266.379 302.507 267.224 303.531 267.809C304.556 268.395 305.716 268.7 306.896 268.696C308.076 268.692 309.234 268.377 310.254 267.784C311.275 267.191 312.121 266.34 312.709 265.317C313.296 264.294 313.605 263.134 313.603 261.954C313.602 260.774 313.29 259.616 312.699 258.594C312.109 257.573 311.26 256.724 310.238 256.134C309.216 255.544 308.057 255.233 306.878 255.231Z" fill="#37474F"/>
<path d="M327.316 257.525C328.883 250.883 324.77 244.228 318.128 242.661C311.487 241.093 304.832 245.207 303.264 251.848C301.697 258.49 305.81 265.145 312.452 266.712C319.093 268.28 325.748 264.167 327.316 257.525Z" fill="#455A64"/>
<path d="M327.332 257.53C326.851 259.51 325.886 261.34 324.523 262.856C323.161 264.372 321.444 265.526 319.525 266.215C317.607 266.904 315.548 267.105 313.533 266.802C311.517 266.499 309.608 265.701 307.978 264.478C306.347 263.256 305.045 261.648 304.189 259.798C303.332 257.949 302.948 255.916 303.071 253.881C303.194 251.847 303.82 249.875 304.893 248.142C305.966 246.409 307.452 244.969 309.218 243.952C308.148 244.563 307.173 245.327 306.324 246.22C306.109 247.146 305.999 248.092 305.995 249.042C305.975 251.525 306.705 253.957 308.09 256.017C309.475 258.078 311.451 259.672 313.758 260.589C316.065 261.507 318.596 261.706 321.018 261.16C323.441 260.614 325.641 259.349 327.332 257.53Z" fill="#37474F"/>
<path d="M150.586 264.753L146.238 273.318L146.943 273.676L151.29 265.11L150.586 264.753Z" fill="#263238"/>
<path d="M142.528 264.071L141.865 264.481L146.106 271.331L146.769 270.921L142.528 264.071Z" fill="#263238"/>
<path d="M147.241 263.268V283.906C147.237 283.963 147.218 284.018 147.186 284.065C147.153 284.111 147.109 284.149 147.057 284.173C146.912 284.246 146.752 284.285 146.59 284.285C146.427 284.285 146.267 284.246 146.123 284.173C146.07 284.149 146.023 284.112 145.989 284.066C145.955 284.019 145.934 283.964 145.928 283.906V263.268H147.241Z" fill="#263238"/>
<path d="M153.267 266.438C158.561 266.438 162.852 262.147 162.852 256.853C162.852 251.559 158.561 247.268 153.267 247.268C147.973 247.268 143.682 251.559 143.682 256.853C143.682 262.147 147.973 266.438 153.267 266.438Z" fill="#455A64"/>
<path d="M156.273 254.399C157.504 250.499 158.818 248.981 157.987 248.508C156.399 247.609 154.588 247.181 152.765 247.276C150.943 247.37 149.186 247.982 147.7 249.041C146.213 250.1 145.06 251.561 144.376 253.252C143.691 254.944 143.504 256.795 143.835 258.59C144.167 260.384 145.004 262.047 146.248 263.382C147.491 264.717 149.09 265.669 150.857 266.127C152.623 266.585 154.484 266.529 156.219 265.966C157.955 265.402 159.494 264.356 160.655 262.948C157.822 263.779 154.662 259.448 156.273 254.399Z" fill="#37474F"/>
<path d="M138.172 266.294C141.89 266.294 144.904 263.28 144.904 259.561C144.904 255.843 141.89 252.829 138.172 252.829C134.454 252.829 131.439 255.843 131.439 259.561C131.439 263.28 134.454 266.294 138.172 266.294Z" fill="#455A64"/>
<path d="M138.171 252.829C136.758 252.827 135.379 253.269 134.23 254.091C134.045 258.196 137.545 262.219 136.57 263.574C135.595 264.929 133.183 264.087 132.342 262.948C132.936 263.968 133.787 264.814 134.811 265.401C135.835 265.989 136.995 266.296 138.175 266.294C139.356 266.291 140.515 265.978 141.536 265.386C142.557 264.795 143.405 263.945 143.994 262.922C144.583 261.899 144.893 260.74 144.893 259.559C144.892 258.379 144.581 257.219 143.992 256.197C143.402 255.175 142.554 254.325 141.532 253.734C140.51 253.143 139.351 252.831 138.171 252.829Z" fill="#37474F"/>
<path d="M155.327 261.036C160.152 256.211 160.152 248.387 155.327 243.562C150.501 238.736 142.678 238.736 137.852 243.562C133.027 248.387 133.027 256.211 137.852 261.036C142.678 265.861 150.501 265.861 155.327 261.036Z" fill="#455A64"/>
<path d="M158.613 255.118C158.133 257.1 157.168 258.932 155.806 260.449C154.443 261.966 152.725 263.121 150.806 263.81C148.888 264.499 146.827 264.701 144.811 264.398C142.795 264.095 140.885 263.295 139.254 262.072C137.623 260.849 136.321 259.239 135.465 257.389C134.61 255.538 134.227 253.504 134.351 251.468C134.475 249.433 135.103 247.461 136.178 245.728C137.253 243.995 138.741 242.557 140.509 241.541C139.435 242.146 138.46 242.911 137.615 243.809C137.401 244.735 137.29 245.681 137.287 246.631C137.268 249.112 137.999 251.54 139.384 253.599C140.769 255.657 142.743 257.249 145.048 258.166C147.353 259.084 149.881 259.284 152.301 258.74C154.722 258.196 156.922 256.934 158.613 255.118Z" fill="#37474F"/>
<path d="M176.449 271.22L255.246 316.704V247.39L176.449 201.906V271.22Z" fill="#F0F0F0"/>
<path d="M232.73 290.71V329.708L153.943 284.213V245.226L232.73 290.71Z" fill="#F0F0F0"/>
<path d="M153.943 258.218L232.73 303.712V290.71L153.943 245.226V258.218Z" fill="#E0E0E0"/>
<path d="M176.449 214.899L255.246 260.383V247.391L176.449 201.896V214.899Z" fill="#E0E0E0"/>
<path d="M255.246 247.39L307.77 217.063V286.377L255.246 316.704V247.39Z" fill="#FAFAFA"/>
<path d="M232.73 290.709L255.247 269.055V316.704L232.73 329.707V290.709Z" fill="#FAFAFA"/>
<path d="M281.508 201.896L255.246 247.391L307.77 217.065L281.508 201.896Z" fill="#FAFAFA"/>
<path d="M251.49 253.887L281.509 201.896V198.653L251.49 250.644V253.887Z" fill="#D75337"/>
<path opacity="0.1" d="M251.49 253.887L281.509 201.896V198.653L251.49 250.644V253.887Z" fill="black"/>
<path d="M202.716 153.168L172.703 205.152L251.493 250.642L281.506 198.657L202.716 153.168Z" fill="#D75337"/>
<path d="M172.703 205.149L251.49 250.644V253.887L172.703 208.403V205.149Z" fill="#D75337"/>
<path opacity="0.15" d="M172.703 205.149L251.49 250.644V253.887L172.703 208.403V205.149Z" fill="black"/>
<path d="M281.51 198.653L314.34 217.608L311.518 219.23L281.51 201.896V198.653Z" fill="#D75337"/>
<path opacity="0.15" d="M281.51 198.653L314.34 217.608L311.518 219.23L281.51 201.896V198.653Z" fill="black"/>
<path d="M311.517 219.229H307.771V217.063L311.517 219.229Z" fill="#D75337"/>
<path opacity="0.3" d="M311.517 219.229H307.771V217.063L311.517 219.229Z" fill="black"/>
<path d="M188.539 204.533V188.934L197.519 183.751L206.468 199.248V214.898L188.539 204.533Z" fill="#F0F0F0"/>
<path opacity="0.2" d="M197.517 183.751L186.434 190.145L185.018 189.324L197.517 182.109V183.751Z" fill="black"/>
<path d="M206.469 214.899L215.428 199.361L220.005 191.418L206.469 199.248V214.899Z" fill="#FAFAFA"/>
<path opacity="0.4" d="M186.436 190.146H188.539V188.935L186.436 190.146Z" fill="black"/>
<path d="M208.603 202.943L197.52 183.751V182.109L209.989 203.743L208.603 202.943Z" fill="#D75337"/>
<path opacity="0.1" d="M208.603 202.943L197.52 183.751V182.109L209.989 203.743L208.603 202.943Z" fill="black"/>
<path d="M209.989 203.744L197.52 182.11L210.42 174.659L222.889 196.293L209.989 203.744Z" fill="#D75337"/>
<path opacity="0.3" d="M209.989 203.744L197.52 182.11L210.42 174.659L222.889 196.293L209.989 203.744Z" fill="white"/>
<path d="M201.993 196.743L193.023 191.561V201.905L201.993 207.088V196.743Z" fill="#455A64"/>
<path d="M193.938 201.373V192.085L201.994 196.744V206.022L193.938 201.373Z" fill="#E0E0E0"/>
<path d="M193.023 201.907L193.937 201.373L201.993 206.022V207.089L193.023 201.907Z" fill="#37474F"/>
<path d="M226.049 226.198V210.599L235.039 205.416L243.988 220.913V236.563L226.049 226.198Z" fill="#F0F0F0"/>
<path opacity="0.2" d="M235.038 205.416L223.954 211.81L222.527 210.989L235.038 203.774V205.416Z" fill="black"/>
<path d="M243.988 236.564L252.937 221.026L257.514 213.083L243.988 220.913V236.564Z" fill="#FAFAFA"/>
<path opacity="0.4" d="M223.955 211.81H226.049V210.599L223.955 211.81Z" fill="black"/>
<path d="M246.123 224.608L235.039 205.416V203.774L247.498 225.408L246.123 224.608Z" fill="#D75337"/>
<path opacity="0.1" d="M246.123 224.608L235.039 205.416V203.774L247.498 225.408L246.123 224.608Z" fill="black"/>
<path d="M247.498 225.407L235.039 203.773L247.929 196.312L260.398 217.946L247.498 225.407Z" fill="#D75337"/>
<path opacity="0.3" d="M247.498 225.407L235.039 203.773L247.929 196.312L260.398 217.946L247.498 225.407Z" fill="white"/>
<path d="M239.503 218.398L230.533 213.226V223.57L239.503 228.753V218.398Z" fill="#455A64"/>
<path d="M231.457 223.037V213.749L239.503 218.398V227.686L231.457 223.037Z" fill="#E0E0E0"/>
<path d="M230.533 223.571L231.457 223.037L239.503 227.686V228.753L230.533 223.571Z" fill="#37474F"/>
<path d="M176.45 220.636L255.246 266.12V269.055L228.984 297.216L150.188 251.721V248.796L176.45 220.636Z" fill="#D75337"/>
<path d="M176.45 220.636L255.246 266.12L228.984 294.281L150.188 248.796L176.45 220.636Z" fill="#D75337"/>
<path opacity="0.1" d="M228.984 294.281V297.216L255.247 269.055V266.12L228.984 294.281Z" fill="black"/>
<path opacity="0.15" d="M228.984 297.216L150.188 251.722V248.797L228.984 294.281V297.216Z" fill="black"/>
<path d="M183.963 271.21L165.203 260.383V280.313L183.963 291.14V271.21Z" fill="#263238"/>
<path d="M166.352 279.646V261.05L183.962 271.22V289.806L166.352 279.646Z" fill="#FAFAFA"/>
<path d="M166.352 261.05V265.391L183.962 275.551V271.21L166.352 261.05Z" fill="#F0F0F0"/>
<path d="M165.203 280.313L166.353 279.646L183.963 289.806V291.14L165.203 280.313Z" fill="#37474F"/>
<path d="M165.203 270.348L166.353 269.681L183.963 279.841V281.175L165.203 270.348Z" fill="#37474F"/>
<path d="M174.191 285.505L175.341 286.172V266.242L174.191 265.575V285.505Z" fill="#37474F"/>
<path d="M217.725 290.71L198.965 279.883V299.813L217.725 310.64V290.71Z" fill="#263238"/>
<path d="M200.115 299.146V280.55L217.726 290.71V309.306L200.115 299.146Z" fill="#FAFAFA"/>
<path d="M200.115 280.55V284.881L217.726 295.051V290.71L200.115 280.55Z" fill="#F0F0F0"/>
<path d="M198.967 299.812L200.116 299.145L217.727 309.305V310.639L198.967 299.812Z" fill="#37474F"/>
<path d="M198.967 289.847L200.116 289.18L217.727 299.34V300.674L198.967 289.847Z" fill="#37474F"/>
<path d="M207.957 305.004L209.106 305.671V285.741L207.957 285.074V305.004Z" fill="#37474F"/>
<path d="M243.988 292.884L262.748 282.047V301.977L243.988 312.804V292.884Z" fill="#263238"/>
<path d="M261.599 301.311V282.715L243.988 292.885V311.471L261.599 301.311Z" fill="#E6E6E6"/>
<path d="M261.599 282.715V284.624L243.988 294.784V292.885L261.599 282.715Z" fill="#E0E0E0"/>
<path d="M262.748 301.977L261.599 301.31L243.988 311.47V312.804L262.748 301.977Z" fill="#37474F"/>
<path d="M262.748 292.013L261.599 291.346L243.988 301.506V302.84L262.748 292.013Z" fill="#37474F"/>
<path d="M253.759 307.17L252.609 307.837V287.907L253.759 287.24V307.17Z" fill="#37474F"/>
<path d="M273.658 228.384L292.418 217.557V237.487L273.658 248.314V228.384Z" fill="#263238"/>
<path d="M291.269 236.82V218.224L273.658 228.384V246.98L291.269 236.82Z" fill="#E6E6E6"/>
<path d="M291.269 218.224V220.132L273.658 230.292V228.384L291.269 218.224Z" fill="#E0E0E0"/>
<path d="M292.418 237.486L291.269 236.819L273.658 246.979V248.313L292.418 237.486Z" fill="#37474F"/>
<path d="M292.418 227.522L291.269 226.854L273.658 237.025V238.359L292.418 227.522Z" fill="#37474F"/>
<path d="M283.427 242.68L282.277 243.347V223.417L283.427 222.75V242.68Z" fill="#37474F"/>
<path d="M274.008 305.877V271.22L292.768 260.383V295.05L274.008 305.877Z" fill="#37474F"/>
<path d="M292.08 294.528V260.784L274.008 271.221V304.965L292.08 294.528Z" fill="#455A64"/>
<path d="M292.768 260.383L292.08 260.783V294.527L292.768 295.05V260.383Z" fill="#263238"/>
<path d="M381.034 18.072C380.976 15.3541 380.279 12.688 378.999 10.2899C377.719 7.89168 375.892 5.8289 373.665 4.26872C371.613 2.96536 369.642 2.77038 368.206 3.50929C359.534 7.86065 298.594 46.9306 294.705 48.86H294.653C294.243 49.132 293.913 49.5083 293.697 49.9501C293.48 50.392 293.385 50.8836 293.422 51.3743C293.446 52.7443 293.794 54.0892 294.438 55.2986C295.082 56.5081 296.003 57.5478 297.126 58.3324C297.515 58.6359 297.978 58.8302 298.467 58.8951C298.956 58.9601 299.453 58.8933 299.908 58.7018H299.969C306.127 55.3049 366.276 29.6688 378.571 23.0802C380.018 22.2797 380.952 20.5556 381.034 18.072Z" fill="#D75337"/>
<path opacity="0.1" d="M378.641 9.64586C377.435 7.48166 375.728 5.63771 373.664 4.26823C371.611 2.96487 369.661 2.76988 368.224 3.49853L368.04 3.60115C360.127 7.64464 314.776 36.5751 299.516 45.9859L299.413 46.0475L298.798 46.4272L298.613 46.5401L298.264 46.7556L297.853 47.0019C296.242 48.0282 295.154 48.6234 294.775 48.8389H294.723C294.593 48.9164 294.472 49.0094 294.364 49.116C294.076 49.4115 293.851 49.7618 293.701 50.1461C293.551 50.5304 293.48 50.9409 293.492 51.3533C293.472 51.6437 293.472 51.9352 293.492 52.2256C293.492 52.3385 293.492 52.4514 293.543 52.5643C293.594 52.6772 293.605 52.9132 293.646 53.0979C293.687 53.2827 293.717 53.3853 293.759 53.5187C293.8 53.6521 293.861 53.8574 293.923 54.0216C293.984 54.1858 294.015 54.2679 294.056 54.391V54.4526L378.641 9.64586Z" fill="black"/>
<path d="M297.115 58.3419C295.997 57.5591 295.079 56.5241 294.435 55.3206C293.792 54.1172 293.441 52.779 293.41 51.4146C293.503 48.9105 295.288 47.9458 297.413 49.2697C298.532 50.0535 299.451 51.0901 300.095 52.2955C300.738 53.5009 301.089 54.8411 301.117 56.2073C301.035 58.7114 299.239 59.6863 297.115 58.3419Z" fill="#D75337"/>
<path d="M278.899 60.025C278.923 61.0733 279.192 62.1014 279.686 63.0264C280.18 63.9515 280.884 64.7478 281.741 65.3513C282.039 65.5816 282.393 65.7286 282.766 65.7773C283.139 65.826 283.519 65.7746 283.866 65.6284L298.603 57.7775C298.916 57.5697 299.168 57.2826 299.334 56.9454C299.5 56.6083 299.573 56.2332 299.547 55.8584C299.525 54.8097 299.255 53.7811 298.762 52.8558C298.268 51.9305 297.563 51.1344 296.704 50.5321C296.408 50.2991 296.055 50.1497 295.681 50.0992C295.308 50.0486 294.927 50.0989 294.58 50.2447L279.843 58.0956C279.528 58.3043 279.275 58.5931 279.109 58.9322C278.943 59.2713 278.87 59.6485 278.899 60.025Z" fill="#37474F"/>
<path d="M279.864 58.0956C279.546 58.3018 279.288 58.5895 279.119 58.9288C278.949 59.2681 278.873 59.6466 278.9 60.025C278.894 60.8039 279.048 61.5756 279.351 62.2931L298.358 52.1536C297.927 51.51 297.372 50.9588 296.726 50.5321C296.429 50.2991 296.076 50.1497 295.703 50.0992C295.329 50.0486 294.949 50.0989 294.601 50.2447L279.864 58.0956Z" fill="#263238"/>
<path d="M297.811 73.1002C297.811 63.6585 291.571 54.2169 279.082 47.0125C254.123 32.5935 213.647 32.5935 188.678 47.0125C176.199 54.1964 169.959 63.6585 169.959 73.1002V90.5467C169.959 99.9883 176.199 109.43 188.688 116.645C213.647 131.012 254.123 131.012 279.082 116.645C291.571 109.461 297.811 99.9883 297.811 90.5467V73.1002ZM191.747 52.3594C202.892 45.9247 217.845 42.3841 233.824 42.3841C249.802 42.3841 264.786 45.9247 275.9 52.3594C285.978 58.1783 291.53 65.5469 291.53 73.1104C291.53 80.674 285.978 88.0323 275.9 93.8513C264.755 100.286 249.802 103.827 233.824 103.827C217.845 103.827 202.861 100.286 191.747 93.8513C181.658 88.0323 176.117 80.6638 176.117 73.1104C176.117 65.5571 181.689 58.1783 191.747 52.3594Z" fill="#D75337"/>
<path opacity="0.3" d="M188.668 99.1972C213.637 113.616 254.103 113.616 279.072 99.1972C304.041 84.7782 304.041 61.4204 279.072 47.0116C254.103 32.6028 213.637 32.5926 188.668 47.0116C163.699 61.4306 163.72 84.7884 188.668 99.1972ZM176.127 73.1095C176.127 65.5459 181.679 58.1774 191.757 52.3584C202.913 45.9238 217.866 42.3831 233.834 42.3831C249.803 42.3831 264.797 45.9238 275.911 52.3584C285.989 58.1774 291.541 65.5459 291.541 73.1095C291.541 80.6731 285.989 88.0314 275.911 93.8503C264.756 100.285 249.803 103.826 233.834 103.826C217.866 103.826 202.872 100.285 191.757 93.8503C181.69 88.0314 176.138 80.6628 176.138 73.1095H176.127Z" fill="white"/>
<path d="M176.139 73.0989C176.175 76.1741 177.036 79.1832 178.633 81.8119C181.167 77.4195 185.632 73.3042 191.779 69.7636C202.914 63.3186 217.877 59.778 233.856 59.778C249.835 59.778 264.818 63.3186 275.933 69.7636C282.09 73.3042 286.544 77.4195 289.089 81.8119C290.678 79.1803 291.535 76.1725 291.573 73.0989C291.573 65.5456 286.021 58.177 275.933 52.3581C264.798 45.9234 249.835 42.3828 233.856 42.3828C217.877 42.3828 202.883 45.9234 191.779 52.3581C181.691 58.177 176.139 65.5456 176.139 73.0989Z" fill="#D75337"/>
<path opacity="0.1" d="M176.139 73.0989C176.175 76.1741 177.036 79.1832 178.633 81.8119C181.167 77.4195 185.632 73.3042 191.779 69.7636C202.914 63.3186 217.877 59.778 233.856 59.778C249.835 59.778 264.818 63.3186 275.933 69.7636C282.09 73.3042 286.544 77.4195 289.089 81.8119C290.678 79.1803 291.535 76.1725 291.573 73.0989C291.573 65.5456 286.021 58.177 275.933 52.3581C264.798 45.9234 249.835 42.3828 233.856 42.3828C217.877 42.3828 202.883 45.9234 191.779 52.3581C181.691 58.177 176.139 65.5456 176.139 73.0989Z" fill="black"/>
<path opacity="0.4" d="M191.75 60.2404C202.905 53.8058 217.858 50.2549 233.827 50.2549C249.795 50.2549 264.789 53.8058 275.903 60.2404C284.216 65.0434 289.44 70.8931 291.02 77.0404C289.44 83.198 284.216 89.0477 275.903 93.8506C264.748 100.285 249.795 103.826 233.827 103.826C217.858 103.826 202.864 100.285 191.75 93.8506C183.437 89.0477 178.213 83.1877 176.633 77.0404C178.234 70.8931 183.457 65.0434 191.75 60.2404Z" fill="white"/>
<path opacity="0.1" d="M218.821 108.947V126.394C207.779 124.854 197.27 121.601 188.69 116.624C176.201 109.44 169.961 99.9672 169.961 90.5153V73.0688C169.965 71.1453 170.221 69.2305 170.72 67.373C167.641 78.6107 173.676 90.5051 188.67 99.1873C197.311 104.185 207.779 107.438 218.821 108.947Z" fill="black"/>
</svg>
