<svg width="680" height="472" viewBox="0 0 680 472" fill="none" xmlns="http://www.w3.org/2000/svg">
<path d="M679.085 445.247H0V445.587H679.085V445.247Z" fill="#EBEBEB"/>
<path d="M611.041 467.1H566.059V467.439H611.041V467.1Z" fill="#EBEBEB"/>
<path d="M449.853 470.794H438.051V471.133H449.853V470.794Z" fill="#EBEBEB"/>
<path d="M564.7 454.496H538.637V454.836H564.7V454.496Z" fill="#EBEBEB"/>
<path d="M129.909 456.777H71.25V457.117H129.909V456.777Z" fill="#EBEBEB"/>
<path d="M150.607 456.777H142.01V457.117H150.607V456.777Z" fill="#EBEBEB"/>
<path d="M305.792 462.509H178.559V462.848H305.792V462.509Z" fill="#EBEBEB"/>
<path d="M321.887 384.673H59.6381C57.5836 384.669 55.6146 383.85 54.1631 382.396C52.7117 380.942 51.8965 378.972 51.8965 376.917V8.26928C51.9144 6.22662 52.7375 4.27351 54.187 2.83417C55.6365 1.39484 57.5953 0.58553 59.6381 0.582031H321.887C323.944 0.582031 325.917 1.39909 327.371 2.85346C328.825 4.30784 329.642 6.28039 329.642 8.33718V376.917C329.642 378.974 328.825 380.947 327.371 382.401C325.917 383.856 323.944 384.673 321.887 384.673ZM59.6381 0.853666C57.6737 0.857264 55.791 1.64013 54.4032 3.03044C53.0154 4.42075 52.236 6.30488 52.236 8.26928V376.917C52.236 378.882 53.0154 380.766 54.4032 382.156C55.791 383.547 57.6737 384.329 59.6381 384.333H321.887C323.853 384.329 325.737 383.547 327.127 382.157C328.517 380.767 329.299 378.883 329.303 376.917V8.26928C329.299 6.30364 328.517 4.41953 327.127 3.02961C325.737 1.63969 323.853 0.857257 321.887 0.853666H59.6381Z" fill="#EBEBEB"/>
<path d="M615.672 384.673H353.409C351.354 384.669 349.383 383.851 347.93 382.397C346.476 380.944 345.658 378.973 345.654 376.917V8.26928C345.676 6.22538 346.502 4.27228 347.954 2.83332C349.405 1.39436 351.365 0.585492 353.409 0.582031H615.672C617.712 0.5891 619.668 1.39999 621.114 2.83894C622.561 4.27789 623.382 6.22897 623.4 8.26928V376.917C623.4 378.97 622.587 380.938 621.138 382.392C619.69 383.845 617.724 384.665 615.672 384.673ZM353.409 0.853666C351.444 0.857257 349.56 1.63969 348.17 3.02961C346.78 4.41953 345.997 6.30364 345.994 8.26928V376.917C345.997 378.883 346.78 380.767 348.17 382.157C349.56 383.547 351.444 384.329 353.409 384.333H615.672C617.638 384.329 619.522 383.547 620.912 382.157C622.302 380.767 623.084 378.883 623.088 376.917V8.26928C623.084 6.30364 622.302 4.41953 620.912 3.02961C619.522 1.63969 617.638 0.857257 615.672 0.853666H353.409Z" fill="#EBEBEB"/>
<path d="M77.9995 437.329H593.276V253.419H610.524V247.647H600.094L574.832 209.645H560.408V209.591H479.841L456.861 163.128H339.624V145.852H353.627V138.939H338.673L316.793 98.1396H258.609L230.278 138.939H215.772V145.852H229.775V209.591H188.256L170.029 248.856H137.515V235.084H111.709V248.856H105.407V176.588H102.284V248.856H88.2129L68.2614 295.237H60.2754V302.354H77.9995V437.329Z" fill="#F0F0F0"/>
<path d="M159.531 106.262C180.376 106.262 197.274 89.3631 197.274 68.518C197.274 47.6728 180.376 30.7744 159.531 30.7744C138.685 30.7744 121.787 47.6728 121.787 68.518C121.787 89.3631 138.685 106.262 159.531 106.262Z" fill="#FAFAFA"/>
<path d="M139.96 68.0964C139.958 67.0739 139.718 66.0661 139.258 65.1528C138.798 64.2396 138.132 63.4462 137.312 62.8357C136.492 62.2252 135.54 61.8144 134.534 61.636C133.527 61.4576 132.492 61.5165 131.512 61.8081C131.806 59.8341 131.669 57.8201 131.113 55.9037C130.556 53.9872 129.593 52.2135 128.288 50.7036C126.983 49.1937 125.367 47.9832 123.552 47.1549C121.736 46.3265 119.763 45.8998 117.768 45.9039C116.906 45.9086 116.047 45.9904 115.201 46.1484C113.836 43.8923 111.773 42.1425 109.325 41.164C106.876 40.1855 104.175 40.0315 101.632 40.7254C99.0879 41.4193 96.8395 42.9233 95.2271 45.0095C93.6147 47.0958 92.7261 49.6507 92.6958 52.2873H92.4921C89.524 52.2873 86.6774 53.4664 84.5786 55.5651C82.4799 57.6639 81.3008 60.5105 81.3008 63.4786C81.3008 66.4467 82.4799 69.2933 84.5786 71.3921C86.6774 73.4908 89.524 74.6699 92.4921 74.6699H133.577C135.289 74.6273 136.917 73.9151 138.11 72.6861C139.304 71.4572 139.968 69.8094 139.96 68.0964Z" fill="#F5F5F5"/>
<path d="M476.718 98.4928C476.718 96.753 476.026 95.0844 474.796 93.8542C473.566 92.624 471.897 91.9328 470.158 91.9328C469.519 91.9327 468.883 92.0241 468.27 92.2045C468.563 90.2305 468.427 88.2165 467.87 86.3001C467.314 84.3836 466.35 82.6099 465.045 81.1C463.74 79.5901 462.125 78.3796 460.309 77.5513C458.494 76.7229 456.521 76.2962 454.525 76.3003C453.668 76.2989 452.813 76.3808 451.972 76.5448C450.604 74.293 448.541 72.5472 446.094 71.5708C443.647 70.5944 440.949 70.4403 438.407 71.1318C435.865 71.8233 433.616 73.3229 432.001 75.4043C430.386 77.4856 429.492 80.0359 429.453 82.6701H429.182C426.213 82.6701 423.367 83.8492 421.268 85.948C419.169 88.0468 417.99 90.8933 417.99 93.8614C417.99 96.8296 419.169 99.6761 421.268 101.775C423.367 103.874 426.213 105.053 429.182 105.053H470.266C471.988 105.028 473.631 104.325 474.839 103.097C476.046 101.869 476.721 100.215 476.718 98.4928Z" fill="#F5F5F5"/>
<path d="M291.625 56.0501C291.625 55.0282 291.863 54.0205 292.321 53.1071C292.78 52.1937 293.445 51.4 294.264 50.7892C295.083 50.1784 296.034 49.7674 297.04 49.589C298.046 49.4107 299.08 49.4698 300.059 49.7618C299.782 47.7904 299.93 45.7826 300.493 43.873C301.056 41.9634 302.02 40.1962 303.322 38.69C304.623 37.1838 306.232 35.9734 308.04 35.1399C309.848 34.3064 311.813 33.8692 313.804 33.8576C314.666 33.8556 315.525 33.9374 316.371 34.1021C317.739 31.8494 319.803 30.1032 322.252 29.1271C324.7 28.151 327.399 27.998 329.942 28.6912C332.485 29.3844 334.733 30.8862 336.347 32.9698C337.961 35.0534 338.854 37.6056 338.889 40.241H339.093C342.061 40.241 344.908 41.4201 347.007 43.5189C349.105 45.6177 350.284 48.4642 350.284 51.4323C350.284 54.4005 349.105 57.247 347.007 59.3458C344.908 61.4446 342.061 62.6237 339.093 62.6237H297.995C296.285 62.5775 294.661 61.8638 293.47 60.6352C292.28 59.4066 291.617 57.7608 291.625 56.0501Z" fill="#F5F5F5"/>
<path d="M595.503 184.016C595.503 182.276 594.812 180.608 593.582 179.377C592.352 178.147 590.683 177.456 588.943 177.456C588.303 177.454 587.666 177.55 587.055 177.741C587.153 177.071 587.203 176.395 587.205 175.717C587.205 172.033 585.741 168.499 583.135 165.893C580.53 163.287 576.996 161.823 573.311 161.823C572.454 161.829 571.599 161.911 570.757 162.068C569.389 159.815 567.325 158.069 564.877 157.093C562.428 156.117 559.729 155.964 557.186 156.657C554.643 157.35 552.395 158.852 550.781 160.936C549.167 163.019 548.275 165.571 548.239 168.207H548.035C545.067 168.207 542.22 169.386 540.122 171.485C538.023 173.583 536.844 176.43 536.844 179.398C536.844 182.366 538.023 185.213 540.122 187.312C542.22 189.41 545.067 190.589 548.035 190.589H589.133C590.843 190.543 592.468 189.83 593.658 188.601C594.849 187.372 595.511 185.727 595.503 184.016Z" fill="#F5F5F5"/>
<path d="M222.264 87.7498C222.264 86.6692 221.835 85.6328 221.071 84.8687C220.307 84.1046 219.271 83.6753 218.19 83.6753C217.794 83.6709 217.399 83.7305 217.022 83.8519C217.081 83.4334 217.113 83.0114 217.117 82.5888C217.121 81.4522 216.9 80.326 216.467 79.2749C216.035 78.2237 215.399 77.2683 214.597 76.4633C213.794 75.6583 212.841 75.0196 211.791 74.5838C210.741 74.148 209.616 73.9237 208.479 73.9237C207.946 73.925 207.414 73.975 206.89 74.0731C206.043 72.6584 204.756 71.56 203.226 70.9454C201.696 70.3309 200.006 70.2341 198.416 70.6697C196.826 71.1054 195.422 72.0497 194.419 73.3582C193.415 74.6668 192.868 76.2678 192.86 77.9167H192.738C191.798 77.8752 190.859 78.0244 189.979 78.3555C189.098 78.6866 188.293 79.1926 187.614 79.843C186.934 80.4935 186.393 81.2749 186.023 82.1401C185.653 83.0053 185.463 83.9364 185.463 84.8773C185.463 85.8182 185.653 86.7493 186.023 87.6145C186.393 88.4797 186.934 89.2611 187.614 89.9116C188.293 90.562 189.098 91.068 189.979 91.3991C190.859 91.7302 191.798 91.8795 192.738 91.8379H218.285C219.351 91.8131 220.366 91.371 221.11 90.6066C221.854 89.8422 222.268 88.8165 222.264 87.7498Z" fill="#F5F5F5"/>
<path d="M238.861 159.053C238.861 157.972 239.291 156.936 240.055 156.172C240.819 155.408 241.855 154.978 242.936 154.978C243.336 154.982 243.734 155.041 244.118 155.155C244.052 154.742 244.02 154.324 244.022 153.905C244.022 152.771 244.246 151.648 244.68 150.6C245.114 149.552 245.75 148.6 246.552 147.797C247.355 146.995 248.307 146.359 249.355 145.925C250.403 145.491 251.526 145.267 252.66 145.267C253.194 145.269 253.725 145.319 254.25 145.417C255.101 144.017 256.384 142.932 257.906 142.325C259.428 141.719 261.107 141.624 262.687 142.055C264.268 142.486 265.666 143.419 266.67 144.714C267.674 146.009 268.229 147.595 268.252 149.233H268.374C270.167 149.313 271.861 150.081 273.101 151.377C274.342 152.674 275.034 154.399 275.034 156.194C275.034 157.989 274.342 159.714 273.101 161.011C271.861 162.307 270.167 163.075 268.374 163.155H242.827C241.761 163.126 240.748 162.681 240.007 161.914C239.265 161.147 238.854 160.12 238.861 159.053Z" fill="#F5F5F5"/>
<path d="M544.625 69.2104C544.624 68.5748 544.771 67.9477 545.056 67.3793C545.34 66.8108 545.754 66.3168 546.263 65.9367C546.772 65.5566 547.364 65.3009 547.99 65.1902C548.616 65.0794 549.259 65.1167 549.868 65.2989C549.813 64.8846 549.786 64.4672 549.786 64.0494C549.784 62.9157 550.006 61.7927 550.439 60.7448C550.871 59.6969 551.506 58.7445 552.307 57.9422C553.108 57.1399 554.06 56.5034 555.107 56.0692C556.154 55.6349 557.277 55.4114 558.41 55.4114C558.948 55.4127 559.484 55.4627 560.013 55.5608C560.861 54.1575 562.143 53.0689 563.665 52.46C565.188 51.8511 566.867 51.7551 568.449 52.1867C570.031 52.6182 571.428 53.5537 572.431 54.8513C573.433 56.1488 573.985 57.7378 574.002 59.3773H574.138C575.931 59.4565 577.624 60.2244 578.865 61.5211C580.105 62.8178 580.798 64.5433 580.798 66.3379C580.798 68.1325 580.105 69.8579 578.865 71.1546C577.624 72.4513 575.931 73.2193 574.138 73.2985H548.7C548.163 73.2985 547.632 73.1927 547.137 72.9871C546.642 72.7814 546.192 72.4801 545.814 72.1003C545.435 71.7205 545.135 71.2697 544.931 70.7738C544.727 70.2779 544.623 69.7466 544.625 69.2104Z" fill="#F5F5F5"/>
<path d="M337.336 467.331C482.772 467.331 600.671 460.448 600.671 451.956C600.671 443.465 482.772 436.582 337.336 436.582C191.899 436.582 74 443.465 74 451.956C74 460.448 191.899 467.331 337.336 467.331Z" fill="#F5F5F5"/>
<path d="M63.223 385.271H615.863C617.642 385.271 619.349 385.977 620.607 387.236C621.865 388.494 622.572 390.2 622.572 391.98V444.84H56.5137V391.98C56.5137 390.2 57.2205 388.494 58.4788 387.236C59.737 385.977 61.4436 385.271 63.223 385.271Z" fill="#E0E0E0"/>
<path d="M385.925 389.765L383.766 387.66H331.517L329.059 389.765H385.925Z" fill="#F0F0F0"/>
<path d="M327.795 390.84L322.158 395.675H392.023L387.038 390.84H327.795Z" fill="#F0F0F0"/>
<path d="M320.908 396.747L310.246 405.888H402.547L393.135 396.747H320.908Z" fill="#F0F0F0"/>
<path d="M405.319 408.577H307.11L288.91 424.155H421.372L405.319 408.577Z" fill="#F0F0F0"/>
<path d="M425.799 428.447H283.897L266.336 443.496H441.309L425.799 428.447Z" fill="#F0F0F0"/>
<path d="M371.283 445.206H369.721V435.02H371.283V445.206ZM371.283 428.65H369.721V418.464H371.283V428.65ZM371.283 412.094H369.721V401.908H371.283V412.094ZM371.283 395.551H369.721V385.352H371.283V395.551ZM371.283 378.995H369.721V368.796H371.283V378.995ZM371.283 362.439H369.721V352.253H371.283V362.439ZM371.283 345.883H369.721V335.697H371.283V345.883ZM371.283 329.327H369.721V319.141H371.283V329.327ZM371.283 312.771H369.721V302.585H371.283V312.771ZM371.283 296.215H369.721V286.029H371.283V296.215ZM371.283 279.659H369.721V269.5H371.283V279.659ZM371.283 263.103H369.721V252.916H371.283V263.103ZM371.283 246.547H369.721V236.36H371.283V246.547ZM371.283 229.991H369.721V219.804H371.283V229.991ZM371.283 213.434H369.721V203.248H371.283V213.434ZM371.283 196.878H369.721V186.651H371.283V196.878ZM371.283 180.322H369.721V170.136H371.283V180.322ZM371.283 163.766H369.721V153.58H371.283V163.766ZM371.283 147.21H369.721V137.024H371.283V147.21ZM371.283 130.654H369.721V120.468H371.283V130.654ZM371.283 114.111H369.721V103.912H371.283V114.111ZM371.283 97.5553H369.721V87.3555H371.283V97.5553ZM371.283 80.9992H369.721V70.8129H371.283V80.9992ZM371.283 64.4431H369.721V54.2568H371.283V64.4431Z" fill="#263238"/>
<g opacity="0.7">
<path d="M371.283 445.206H369.721V435.02H371.283V445.206ZM371.283 428.65H369.721V418.464H371.283V428.65ZM371.283 412.094H369.721V401.908H371.283V412.094ZM371.283 395.551H369.721V385.352H371.283V395.551ZM371.283 378.995H369.721V368.796H371.283V378.995ZM371.283 362.439H369.721V352.253H371.283V362.439ZM371.283 345.883H369.721V335.697H371.283V345.883ZM371.283 329.327H369.721V319.141H371.283V329.327ZM371.283 312.771H369.721V302.585H371.283V312.771ZM371.283 296.215H369.721V286.029H371.283V296.215ZM371.283 279.659H369.721V269.5H371.283V279.659ZM371.283 263.103H369.721V252.916H371.283V263.103ZM371.283 246.547H369.721V236.36H371.283V246.547ZM371.283 229.991H369.721V219.804H371.283V229.991ZM371.283 213.434H369.721V203.248H371.283V213.434ZM371.283 196.878H369.721V186.651H371.283V196.878ZM371.283 180.322H369.721V170.136H371.283V180.322ZM371.283 163.766H369.721V153.58H371.283V163.766ZM371.283 147.21H369.721V137.024H371.283V147.21ZM371.283 130.654H369.721V120.468H371.283V130.654ZM371.283 114.111H369.721V103.912H371.283V114.111ZM371.283 97.5553H369.721V87.3555H371.283V97.5553ZM371.283 80.9992H369.721V70.8129H371.283V80.9992ZM371.283 64.4431H369.721V54.2568H371.283V64.4431Z" fill="white"/>
</g>
<path d="M366.109 274.036H202.504V386.126H366.109V274.036Z" fill="#263238"/>
<path opacity="0.8" d="M366.109 274.036H202.504V386.126H366.109V274.036Z" fill="white"/>
<path opacity="0.05" d="M328.461 274.036H202.504V386.126H328.461V274.036Z" fill="black"/>
<path d="M366.109 303.195H340.209V386.125H366.109V303.195Z" fill="#263238"/>
<path d="M285.976 328.675H271.539V352.443H285.976V328.675Z" fill="#263238"/>
<path d="M285.976 303.195H271.539V326.963H285.976V303.195Z" fill="#263238"/>
<path d="M302.519 328.675H287.688V352.443H302.519V328.675Z" fill="#263238"/>
<path d="M302.519 303.195H287.688V326.963H302.519V303.195Z" fill="#263238"/>
<path d="M235.48 328.675H221.043V352.443H235.48V328.675Z" fill="#263238"/>
<path d="M235.48 303.195H221.043V326.963H235.48V303.195Z" fill="#263238"/>
<path d="M252.023 328.675H237.191V352.443H252.023V328.675Z" fill="#263238"/>
<path d="M252.023 303.195H237.191V326.963H252.023V303.195Z" fill="#263238"/>
<path d="M366.109 194.08H218.082V270.355H366.109V194.08Z" fill="#263238"/>
<path opacity="0.8" d="M366.109 194.08H218.082V270.355H366.109V194.08Z" fill="white"/>
<path opacity="0.05" d="M326.776 194.08H218.082V270.355H326.776V194.08Z" fill="black"/>
<path d="M295.117 239.945H280.68V263.713H295.117V239.945Z" fill="#263238"/>
<path d="M295.117 214.467H280.68V238.235H295.117V214.467Z" fill="#263238"/>
<path d="M311.646 239.945H296.814V263.713H311.646V239.945Z" fill="#263238"/>
<path d="M311.648 214.467H296.816V238.235H311.648V214.467Z" fill="#263238"/>
<path d="M244.621 239.945H230.184V263.713H244.621V239.945Z" fill="#263238"/>
<path d="M261.15 239.945H246.318V263.713H261.15V239.945Z" fill="#263238"/>
<path opacity="0.5" d="M244.621 239.945H230.184V263.713H244.621V239.945Z" fill="white"/>
<path opacity="0.5" d="M261.15 239.945H246.318V263.713H261.15V239.945Z" fill="white"/>
<path opacity="0.3" d="M230.184 214.467V226.229L233.321 214.467H230.184Z" fill="white"/>
<path opacity="0.3" d="M230.184 239.945V248.977L232.601 239.945H230.184Z" fill="white"/>
<path opacity="0.3" d="M261.148 239.945H257.739L251.383 263.727H258.934L261.148 255.456V239.945Z" fill="white"/>
<path opacity="0.3" d="M261.148 227.274L258.215 238.235H261.148V227.274Z" fill="white"/>
<path d="M354.455 239.945H340.018V263.713H354.455V239.945Z" fill="#263238"/>
<path d="M354.455 214.467H340.018V238.235H354.455V214.467Z" fill="#263238"/>
<path d="M366.11 239.945H356.154V263.727H366.11V239.945Z" fill="#263238"/>
<path d="M366.11 214.467H356.154V238.235H366.11V214.467Z" fill="#263238"/>
<path opacity="0.5" d="M354.455 239.945H340.018V263.713H354.455V239.945Z" fill="white"/>
<path opacity="0.5" d="M354.455 214.467H340.018V238.235H354.455V214.467Z" fill="white"/>
<path opacity="0.5" d="M366.11 239.945H356.154V263.727H366.11V239.945Z" fill="white"/>
<path opacity="0.5" d="M366.11 214.467H356.154V238.235H366.11V214.467Z" fill="white"/>
<path opacity="0.3" d="M340.018 214.467V226.229L343.169 214.467H340.018Z" fill="white"/>
<path opacity="0.3" d="M340.018 239.945V248.977L342.435 239.945H340.018Z" fill="white"/>
<path opacity="0.3" d="M349.267 214.467L342.897 238.235H340.398L346.768 214.467H349.267Z" fill="white"/>
<path opacity="0.3" d="M366.108 245.474V263.727H361.219L366.108 245.474Z" fill="white"/>
<path opacity="0.4" d="M366.11 270.463V283.053H328.204L328.041 280.445L327.633 274.035L327.402 270.463H366.11Z" fill="white"/>
<path opacity="0.4" d="M366.109 280.446H328.963V287.346H366.109V280.446Z" fill="white"/>
<path d="M366.109 383.585V386.125H192.752L196.392 383.585H366.109Z" fill="#263238"/>
<path d="M567.268 175.447H563.438V277.908H567.268V175.447Z" fill="#D75337"/>
<path d="M447.884 260.226H374.773V386.128H447.884V260.226Z" fill="#D75337"/>
<path opacity="0.8" d="M447.884 260.226H374.773V386.128H447.884V260.226Z" fill="white"/>
<path d="M527.364 281.426H443.334V386.127H527.364V281.426Z" fill="#D75337"/>
<path opacity="0.4" d="M527.378 281.411H443.348V386.112H527.378V281.411Z" fill="white"/>
<path opacity="0.1" d="M527.378 281.411V321.857L478.796 342.705V386.126H443.348V281.411H527.378Z" fill="black"/>
<path d="M561.835 286.179H555.451V386.126H561.835V286.179Z" fill="#D75337"/>
<path d="M546.989 286.179H540.605V386.126H546.989V286.179Z" fill="#D75337"/>
<path d="M532.131 286.179H525.748V386.126H532.131V286.179Z" fill="#D75337"/>
<path d="M517.286 286.179H510.902V386.126H517.286V286.179Z" fill="#D75337"/>
<path d="M502.428 286.179H496.045V386.126H502.428V286.179Z" fill="#D75337"/>
<path d="M481.037 247.539V250.486H491.577V253.338H481.037V254.113H491.577V257.046H481.037V257.807H491.577V260.74H481.037V261.501H491.577V264.435H481.037V265.209H491.577V268.143H481.037V268.903H491.577V271.837H481.037V272.611H491.577V275.545H481.037V276.292H491.577V277.908H493.804V276.292H523.521V277.908H525.748V276.292H555.492V277.908H557.733V250.486H561.889V247.553L481.037 247.539ZM493.804 250.473H523.521V253.325H493.804V250.473ZM493.804 254.099H523.521V257.033H493.804V254.099ZM493.804 257.793H523.521V260.727H493.804V257.793ZM493.804 261.487H523.521V264.421H493.804V261.487ZM493.804 265.195H523.521V268.143H493.804V265.195ZM493.804 268.89H523.521V271.823H493.804V268.89ZM493.804 275.531V272.597H523.521V275.531H493.804ZM525.748 250.486H555.492V253.338H525.748V250.486ZM525.748 254.113H555.492V257.046H525.748V254.113ZM525.748 257.807H555.492V260.74H525.748V257.807ZM525.748 261.501H555.492V264.435H525.748V261.501ZM525.748 265.209H555.492V268.143H525.748V265.209ZM525.748 268.903H555.492V271.837H525.748V268.903ZM525.748 275.545V272.611H555.492V275.545H525.748Z" fill="#D75337"/>
<g opacity="0.2">
<path d="M481.037 247.538V250.485H491.577V253.337H481.037V254.112H491.577V257.045H481.037V257.806H491.577V260.74H481.037V261.5H491.577V264.434H481.037V265.208H491.577V268.142H481.037V268.902H491.577V271.836H481.037V272.61H491.577V275.544H481.037V276.291H491.577V277.907H493.804V276.291H523.521V277.907H525.748V276.291H555.492V277.907H557.733V250.485H561.889V247.552L481.037 247.538ZM493.804 250.472H523.521V253.324H493.804V250.472ZM493.804 254.098H523.521V257.032H493.804V254.098ZM493.804 257.792H523.521V260.726H493.804V257.792ZM493.804 261.487H523.521V264.42H493.804V261.487ZM493.804 265.194H523.521V268.142H493.804V265.194ZM493.804 268.889H523.521V271.822H493.804V268.889ZM493.804 275.53V272.596H523.521V275.53H493.804ZM525.748 250.485H555.492V253.337H525.748V250.485ZM525.748 254.112H555.492V257.045H525.748V254.112ZM525.748 257.806H555.492V260.74H525.748V257.806ZM525.748 261.5H555.492V264.434H525.748V261.5ZM525.748 265.208H555.492V268.142H525.748V265.208ZM525.748 268.902H555.492V271.836H525.748V268.902ZM525.748 275.544V272.61H555.492V275.544H525.748Z" fill="black"/>
</g>
<path d="M484.228 175.447H374.773V277.12H484.228V175.447Z" fill="#D75337"/>
<path opacity="0.8" d="M484.228 175.447H374.773V277.12H484.228V175.447Z" fill="white"/>
<path d="M474.504 189.912H374.773V277.12H474.504V189.912Z" fill="#D75337"/>
<path opacity="0.1" d="M374.773 189.912V196.581H467.917V271.457H374.773V277.12H474.504V189.912H374.773Z" fill="white"/>
<path d="M460.909 196.58H374.773V270.437H460.909V196.58Z" fill="#D75337"/>
<path opacity="0.5" d="M460.909 196.58H374.773V270.437H460.909V196.58Z" fill="white"/>
<path opacity="0.3" d="M460.908 196.58V237.325L452.039 270.437H435.035L454.81 196.58H460.908Z" fill="white"/>
<path opacity="0.3" d="M450.003 196.58L430.228 270.437H427.756L447.531 196.58H450.003Z" fill="white"/>
<path d="M450.002 343.97V303.198H458.667V296.095H394.656V351.196H458.667V343.97H450.002Z" fill="#D75337"/>
<path d="M451.849 303.198H407.613V343.984H451.849V303.198Z" fill="black"/>
<path d="M451.849 303.198H407.613V343.984H451.849V303.198Z" fill="#D75337"/>
<path opacity="0.5" d="M451.849 303.198H407.613V343.984H451.849V303.198Z" fill="white"/>
<path opacity="0.3" d="M437.684 303.198L426.778 343.971H409.773L420.68 303.198H437.684Z" fill="white"/>
<path opacity="0.3" d="M447.79 303.198L436.883 343.971H431.98L442.9 303.198H447.79Z" fill="white"/>
<path opacity="0.1" d="M400.7 296.095H394.656V351.196H400.7V296.095Z" fill="black"/>
<path d="M391.765 286.274H375.793V386.127H391.765V286.274Z" fill="#D75337"/>
<path opacity="0.3" d="M391.765 286.274H375.793V386.127H391.765V286.274Z" fill="white"/>
<path opacity="0.2" d="M391.763 286.274H383.777V386.127H391.763V286.274Z" fill="white"/>
<path d="M512.193 286.274H496.221V386.127H512.193V286.274Z" fill="#D75337"/>
<path opacity="0.3" d="M512.193 286.274H496.221V386.127H512.193V286.274Z" fill="white"/>
<path opacity="0.2" d="M512.193 286.274H504.207V386.127H512.193V286.274Z" fill="white"/>
<path d="M575.973 277.121H374.773V287.484H575.973V277.121Z" fill="#D75337"/>
<path opacity="0.3" d="M575.973 277.121H374.773V287.484H575.973V277.121Z" fill="white"/>
<path opacity="0.2" d="M512.192 277.121H383.777V287.484H512.192V277.121Z" fill="white"/>
<path d="M571.124 168.113H374.773V178.476H571.124V168.113Z" fill="#D75337"/>
<path opacity="0.3" d="M571.124 168.113H374.773V178.476H571.124V168.113Z" fill="white"/>
<path opacity="0.2" d="M571.123 168.113H383.777V178.476H571.123V168.113Z" fill="white"/>
<path d="M586.295 386.127H374.773V383.587H582.655L586.295 386.127Z" fill="#D75337"/>
<path d="M119.517 370.002C119.517 370.002 112.55 364.19 106.587 370.002C100.625 375.815 99.457 411.78 99.457 411.78" stroke="#D75337" stroke-width="1.17966" stroke-miterlimit="10"/>
<path d="M98.956 418.679C98.956 418.679 103.03 376.454 87.6152 358.716" stroke="#D75337" stroke-width="1.17966" stroke-miterlimit="10"/>
<path d="M100.504 414.224C100.504 414.224 97.3392 366.159 108.938 355.497" stroke="#D75337" stroke-width="1.17966" stroke-miterlimit="10"/>
<path d="M98.9562 414.224C98.9562 414.224 98.6981 382.47 90.0738 377.554C81.4494 372.637 77.0625 388.718 77.0625 388.718" stroke="#D75337" stroke-width="1.17966" stroke-miterlimit="10"/>
<path d="M102.365 414.224C102.365 414.224 101.007 389.845 107.634 381.126C114.262 372.406 121.338 384.86 121.338 384.86" stroke="#D75337" stroke-width="1.17966" stroke-miterlimit="10"/>
<path d="M100.044 417.539C100.044 417.539 104.363 360.496 97.2188 350.853" stroke="#D75337" stroke-width="1.17966" stroke-miterlimit="10"/>
<path d="M82.6986 382.226C82.6986 382.226 86.9905 383.801 85.7138 387.55C84.4371 391.298 70.8554 397.437 70.8554 397.437C70.8554 397.437 65.1647 392.222 70.3936 383.747C75.6226 375.272 82.5764 379.509 82.6986 382.226Z" fill="#D75337"/>
<path opacity="0.2" d="M82.6986 382.226C82.6986 382.226 86.9905 383.801 85.7138 387.55C84.4371 391.298 70.8554 397.437 70.8554 397.437C70.8554 397.437 65.1647 392.222 70.3936 383.747C75.6226 375.272 82.5764 379.509 82.6986 382.226Z" fill="white"/>
<path d="M101.373 375.042C101.373 375.042 96.7961 374.852 96.538 378.79C96.28 382.729 106.453 393.635 106.453 393.635C106.453 393.635 113.705 391.014 112.157 381.181C110.609 371.348 102.514 372.611 101.373 375.042Z" fill="#D75337"/>
<path opacity="0.2" d="M101.373 375.042C101.373 375.042 96.7961 374.852 96.538 378.79C96.28 382.729 106.453 393.635 106.453 393.635C106.453 393.635 113.705 391.014 112.157 381.181C110.609 371.348 102.514 372.611 101.373 375.042Z" fill="white"/>
<path d="M105.243 356.163C105.243 356.163 102.201 355.837 102.446 353.977C102.69 352.116 114.302 347.335 121.148 355.077C121.148 355.077 116.761 362.601 110.418 362.71C104.075 362.818 105.243 356.163 105.243 356.163Z" fill="#D75337"/>
<path opacity="0.2" d="M105.243 356.163C105.243 356.163 102.201 355.837 102.446 353.977C102.69 352.116 114.302 347.335 121.148 355.077C121.148 355.077 116.761 362.601 110.418 362.71C104.075 362.818 105.243 356.163 105.243 356.163Z" fill="white"/>
<path d="M99.567 351.654C99.567 351.654 102.283 353.012 103.098 351.287C103.913 349.562 96.5518 339.376 86.6508 342.31C86.6508 342.31 86.3791 351.029 91.7167 354.465C97.0543 357.901 99.567 351.654 99.567 351.654Z" fill="#D75337"/>
<path opacity="0.2" d="M99.567 351.654C99.567 351.654 102.283 353.012 103.098 351.287C103.913 349.562 96.5518 339.376 86.6508 342.31C86.6508 342.31 86.3791 351.029 91.7167 354.465C97.0543 357.901 99.567 351.654 99.567 351.654Z" fill="white"/>
<path d="M114.004 380.65C114.004 380.65 111.899 378.953 114.167 378.124C116.435 377.296 127.586 377.526 127.749 388.568C127.749 388.568 114.764 390.728 113.162 386.518C111.559 382.307 114.004 380.65 114.004 380.65Z" fill="#D75337"/>
<path opacity="0.2" d="M114.004 380.65C114.004 380.65 111.899 378.953 114.167 378.124C116.435 377.296 127.586 377.526 127.749 388.568C127.749 388.568 114.764 390.728 113.162 386.518C111.559 382.307 114.004 380.65 114.004 380.65Z" fill="white"/>
<path d="M87.5337 355.891C87.5337 355.891 89.6389 354.194 87.3708 353.351C85.1026 352.509 73.952 352.767 73.7891 363.809C73.7891 363.809 86.7732 365.969 88.3758 361.759C89.9785 357.548 87.5337 355.891 87.5337 355.891Z" fill="#D75337"/>
<path opacity="0.2" d="M87.5337 355.891C87.5337 355.891 89.6389 354.194 87.3708 353.351C85.1026 352.509 73.952 352.767 73.7891 363.809C73.7891 363.809 86.7732 365.969 88.3758 361.759C89.9785 357.548 87.5337 355.891 87.5337 355.891Z" fill="white"/>
<path d="M94.3924 364.788C94.3924 364.788 94.5825 362.71 92.9119 363.525C91.2414 364.34 85.4284 370.601 91.4587 376.55C91.4587 376.55 99.6077 370.547 98.1002 367.423C96.5926 364.3 94.3924 364.788 94.3924 364.788Z" fill="#D75337"/>
<path opacity="0.2" d="M94.3924 364.788C94.3924 364.788 94.5825 362.71 92.9119 363.525C91.2414 364.34 85.4284 370.601 91.4587 376.55C91.4587 376.55 99.6077 370.547 98.1002 367.423C96.5926 364.3 94.3924 364.788 94.3924 364.788Z" fill="white"/>
<path d="M115.893 367.721C115.893 367.721 114.63 366.078 116.477 365.874C118.324 365.67 126.582 367.871 124.626 376.115C124.626 376.115 114.562 375.368 114.127 371.931C113.693 368.495 115.893 367.721 115.893 367.721Z" fill="#D75337"/>
<path opacity="0.2" d="M115.893 367.721C115.893 367.721 114.63 366.078 116.477 365.874C118.324 365.67 126.582 367.871 124.626 376.115C124.626 376.115 114.562 375.368 114.127 371.931C113.693 368.495 115.893 367.721 115.893 367.721Z" fill="white"/>
<path d="M81.8972 444.839H116.422L120.143 407.041H78.1758L81.8972 444.839Z" fill="#D75337"/>
<path opacity="0.5" d="M81.8972 444.839H116.422L120.143 407.041H78.1758L81.8972 444.839Z" fill="white"/>
<path d="M76.3285 411.21H121.99V402.871H76.3285V411.21Z" fill="#D75337"/>
<path opacity="0.2" d="M76.3285 411.21H121.99V402.871H76.3285V411.21Z" fill="white"/>
<path d="M582.925 413.317C582.925 413.317 589.118 399.736 582.042 386.453C574.966 373.17 572.902 370.005 577.424 367.289C581.947 364.573 584.011 377.951 584.011 377.951C586.247 371.895 586.476 365.281 584.663 359.086C581.526 349.443 579.557 333.729 583.848 332.044C588.14 330.36 584.663 351.643 588.385 358.896C590.289 353.804 591.517 348.484 592.038 343.073C592.554 335.331 591.739 322.958 595.135 319.78C598.53 316.602 600.69 318.802 597.362 335.902C595.362 346.117 594.258 356.488 594.062 366.895C594.062 366.895 601.41 344.472 606.353 343.806C611.297 343.141 611.284 350.407 607.06 356.709C602.836 363.011 594.673 374.297 593.342 380.11C593.342 380.11 601.423 363.228 608.676 368.403C615.928 373.577 602.36 383.764 596.303 387.417C590.245 391.071 586.049 414.187 586.049 414.187L582.925 413.317Z" fill="#D75337"/>
<path opacity="0.6" d="M582.925 413.317C582.925 413.317 589.118 399.736 582.042 386.453C574.966 373.17 572.902 370.005 577.424 367.289C581.947 364.573 584.011 377.951 584.011 377.951C586.247 371.895 586.476 365.281 584.663 359.086C581.526 349.443 579.557 333.729 583.848 332.044C588.14 330.36 584.663 351.643 588.385 358.896C590.289 353.804 591.517 348.484 592.038 343.073C592.554 335.331 591.739 322.958 595.135 319.78C598.53 316.602 600.69 318.802 597.362 335.902C595.362 346.117 594.258 356.488 594.062 366.895C594.062 366.895 601.41 344.472 606.353 343.806C611.297 343.141 611.284 350.407 607.06 356.709C602.836 363.011 594.673 374.297 593.342 380.11C593.342 380.11 601.423 363.228 608.676 368.403C615.928 373.577 602.36 383.764 596.303 387.417C590.245 391.071 586.049 414.187 586.049 414.187L582.925 413.317Z" fill="white"/>
<path d="M587.815 418.9C587.815 418.9 581.785 405.318 589.024 392.049C596.263 378.78 598.354 375.751 593.872 372.912C589.39 370.074 587.163 383.492 587.163 383.492C584.99 377.396 584.838 370.763 586.728 364.573C589.988 354.971 592.161 339.298 587.869 337.546C583.577 335.794 586.81 357.13 583.007 364.329C581.172 359.209 580.013 353.871 579.557 348.452C579.136 340.697 580.087 328.337 576.732 325.118C573.378 321.899 571.177 324.045 574.315 341.199C576.183 351.444 577.156 361.833 577.221 372.247C577.221 372.247 570.131 349.701 565.201 348.981C560.271 348.262 560.19 355.514 564.346 361.87C568.502 368.227 576.501 379.649 577.778 385.475C577.778 385.475 569.901 368.471 562.58 373.537C555.26 378.603 568.705 389.007 574.722 392.782C580.739 396.558 584.664 419.701 584.664 419.701L587.815 418.9Z" fill="#D75337"/>
<path opacity="0.7" d="M587.815 418.9C587.815 418.9 581.785 405.318 589.024 392.049C596.263 378.78 598.354 375.751 593.872 372.912C589.39 370.074 587.163 383.492 587.163 383.492C584.99 377.396 584.838 370.763 586.728 364.573C589.988 354.971 592.161 339.298 587.869 337.546C583.577 335.794 586.81 357.13 583.007 364.329C581.172 359.209 580.013 353.871 579.557 348.452C579.136 340.697 580.087 328.337 576.732 325.118C573.378 321.899 571.177 324.045 574.315 341.199C576.183 351.444 577.156 361.833 577.221 372.247C577.221 372.247 570.131 349.701 565.201 348.981C560.271 348.262 560.19 355.514 564.346 361.87C568.502 368.227 576.501 379.649 577.778 385.475C577.778 385.475 569.901 368.471 562.58 373.537C555.26 378.603 568.705 389.007 574.722 392.782C580.739 396.558 584.664 419.701 584.664 419.701L587.815 418.9Z" fill="white"/>
<path d="M559.973 409.148H609.845L605.811 444.841H564.006L559.973 409.148Z" fill="#D75337"/>
<path d="M158.446 173.225C158.446 167.352 152.554 162.582 145.276 162.582C137.997 162.582 132.105 167.333 132.105 173.225C132.105 178.384 136.638 182.679 142.663 183.677C144.033 186.552 146.319 188.892 149.162 190.329C149.162 190.329 146.806 188.514 147.024 183.763C153.467 183.078 158.446 178.622 158.446 173.225Z" fill="#D75337"/>
<path opacity="0.8" d="M158.446 173.225C158.446 167.352 152.554 162.582 145.276 162.582C137.997 162.582 132.105 167.333 132.105 173.225C132.105 178.384 136.638 182.679 142.663 183.677C144.033 186.552 146.319 188.892 149.162 190.329C149.162 190.329 146.806 188.514 147.024 183.763C153.467 183.078 158.446 178.622 158.446 173.225Z" fill="#D75337"/>
<path d="M139.992 168.654C141.693 166.554 144.259 167.78 145.418 169.737C147.033 168.141 149.827 167.609 150.939 170.079C152.839 174.232 147.47 177.159 144.981 178.251L144.278 178.565C144.107 178.432 143.907 178.28 143.669 178.08C141.531 176.389 137.141 172.198 139.992 168.654Z" fill="white"/>
<path d="M212.495 255.754C210.48 260.828 203.619 261.893 198.07 259.612C192.521 257.332 184.881 243.848 184.881 243.848L192.606 229.898L212.495 255.754Z" fill="#D75337"/>
<path opacity="0.2" d="M212.495 255.754C210.48 260.828 203.619 261.893 198.07 259.612C192.521 257.332 184.881 243.848 184.881 243.848L192.606 229.898L212.495 255.754Z" fill="black"/>
<path d="M160.261 192.136C161.558 190.105 163.367 188.45 165.505 187.337C167.643 186.225 170.036 185.694 172.443 185.798C180.786 186.178 183.732 186.929 184.882 194.264C186.032 201.6 186.602 202.598 189.234 204.166C191.866 205.734 185.547 209.183 186.64 212.347C187.733 215.512 191.115 215.312 190.925 218.229C190.735 221.146 187.029 221.08 186.64 223.351C186.25 225.622 188.179 229.594 186.64 232.787C185.1 235.98 154.247 246.546 150.142 238.726C146.037 230.905 152.584 227.066 153.334 223.351C154.085 219.636 151.947 219.807 151.795 215.398C151.643 210.989 154.646 210.646 154.959 208.166C155.273 205.686 152.213 203.415 153.154 200.622C154.094 197.828 157.553 192.136 160.261 192.136Z" fill="#263238"/>
<path d="M140.65 439.015L136.754 433.903L143.368 427.527L149.382 421.73L155.036 427.014L147.425 433.361L140.65 439.015Z" fill="#EEC1BB"/>
<path d="M136.524 432.344C137.095 431.925 141.941 439.185 141.941 439.185C141.941 439.185 140.858 446.787 143.043 451.624C145.229 456.46 140.943 456.08 137.456 451.5L128.723 440.097C126.215 436.753 130.576 436.667 136.524 432.344Z" fill="#263238"/>
<path d="M143.583 444.659C142.481 444.403 141.768 441.267 141.683 440.64C141.673 440.609 141.673 440.576 141.683 440.545C141.679 440.523 141.679 440.5 141.683 440.478C141.683 440.478 141.683 440.478 141.683 440.421C141.708 440.414 141.734 440.414 141.759 440.421C141.863 440.421 143.906 439.737 145.009 440.421C145.185 440.519 145.336 440.655 145.451 440.819C145.566 440.984 145.643 441.173 145.674 441.371C145.759 441.799 145.674 442.103 145.436 442.265C145.199 442.426 144.315 442.312 143.536 441.98C144.027 442.433 144.38 443.016 144.553 443.662C144.57 443.795 144.56 443.931 144.525 444.061C144.489 444.191 144.428 444.313 144.345 444.419C144.262 444.525 144.158 444.613 144.041 444.679C143.923 444.745 143.793 444.787 143.659 444.802L143.583 444.659ZM143.688 444.213C143.688 444.213 143.868 444.26 144.087 443.975C144.164 443.865 144.195 443.728 144.173 443.595C144.078 442.873 142.994 441.828 142.272 441.181C142.576 442.531 143.165 444.089 143.688 444.213ZM142.415 440.678C143.593 441.409 144.885 441.989 145.208 441.761C145.313 441.695 145.275 441.467 145.208 441.343C145.186 441.215 145.136 441.094 145.06 440.989C144.984 440.883 144.885 440.796 144.771 440.735C144.449 440.567 144.088 440.489 143.726 440.507C143.284 440.521 142.845 440.578 142.415 440.678Z" fill="#D75337"/>
<path opacity="0.2" d="M147.423 433.361L143.365 427.527L149.38 421.73L155.034 427.014L147.423 433.361Z" fill="black"/>
<path d="M179.731 447.101H173.307L172.253 438.15L171.293 429.94L178.923 428.695L179.351 438.435L179.731 447.101Z" fill="#EEC1BB"/>
<path d="M171.931 446.684C171.931 445.98 180.654 446.532 180.654 446.532C180.654 446.532 186.004 451.976 191.211 453.183C196.418 454.39 193.511 457.535 187.695 457.535H173.309C169.175 457.554 171.76 454.029 171.931 446.684Z" fill="#263238"/>
<path d="M181.622 447.699L181.546 447.652V447.585C181.546 447.585 181.546 447.538 181.546 447.509C181.542 447.478 181.542 447.446 181.546 447.414C181.546 447.319 182.316 445.295 183.447 444.811C183.625 444.731 183.817 444.689 184.012 444.689C184.207 444.689 184.4 444.731 184.578 444.811C184.967 445.001 185.167 445.248 185.148 445.542C185.148 445.999 184.501 446.493 183.789 446.835C184.449 446.725 185.127 446.801 185.746 447.053C185.86 447.115 185.96 447.199 186.04 447.3C186.12 447.401 186.178 447.518 186.212 447.642C186.278 447.803 186.293 447.98 186.256 448.15C186.218 448.32 186.13 448.474 186.003 448.593C185.776 448.744 185.506 448.818 185.233 448.802C183.975 448.647 182.753 448.274 181.622 447.699ZM182.42 447.557C183.703 448.099 185.271 448.583 185.708 448.241C185.708 448.241 185.851 448.127 185.765 447.785C185.749 447.719 185.719 447.658 185.676 447.605C185.633 447.553 185.579 447.51 185.518 447.481C185.197 447.333 184.845 447.268 184.492 447.291C183.796 447.293 183.102 447.367 182.42 447.509V447.557ZM183.627 445.238C182.933 445.689 182.408 446.358 182.135 447.139C183.418 446.654 184.663 445.98 184.692 445.58C184.692 445.466 184.502 445.352 184.378 445.295C184.254 445.233 184.118 445.2 183.979 445.2C183.864 445.171 183.744 445.168 183.627 445.191V445.238Z" fill="#D75337"/>
<path opacity="0.2" d="M179.351 438.634L172.253 438.321L171.293 430.025L178.923 428.742L179.351 438.634Z" fill="black"/>
<path d="M195.78 292.46C195.78 292.46 210.984 337.349 213.958 357.076C216.932 376.802 153.295 429.569 153.295 429.569L146.396 422.223C146.396 422.223 192.796 370.626 192.796 361.751C192.796 352.876 177.013 312.339 177.013 312.339C177.013 312.339 175.15 295.995 195.78 292.46Z" fill="#263238"/>
<path opacity="0.2" d="M195.78 292.46C195.78 292.46 210.984 337.349 213.958 357.076C216.932 376.802 153.295 429.569 153.295 429.569L146.396 422.223C146.396 422.223 192.796 370.626 192.796 361.751C192.796 352.876 177.013 312.339 177.013 312.339C177.013 312.339 175.15 295.995 195.78 292.46Z" fill="white"/>
<mask id="mask0_1_45597" style="mask-type:luminance" maskUnits="userSpaceOnUse" x="146" y="292" width="69" height="138">
<path d="M195.78 292.462C195.78 292.462 210.984 337.351 213.958 357.078C216.932 376.804 153.295 429.571 153.295 429.571L146.396 422.225C146.396 422.225 192.796 370.628 192.796 361.753C192.796 352.877 177.013 312.341 177.013 312.341C177.013 312.341 175.15 295.997 195.78 292.462Z" fill="white"/>
</mask>
<g mask="url(#mask0_1_45597)">
<path opacity="0.2" d="M182.848 378.133L182.031 405.005C175.132 411.343 171.075 414.916 165.877 419.259C165.06 415.724 163.026 408.341 163.463 401.965C170.305 394.591 176.301 386.001 182.848 378.133Z" fill="black"/>
</g>
<path opacity="0.2" d="M185.043 333.985C181.109 323.219 177.336 313.897 177.336 313.897C177.324 312.026 177.626 310.166 178.23 308.395C178.763 308.075 179.334 307.823 179.93 307.645C179.93 307.645 185.48 316.795 185.043 333.985Z" fill="black"/>
<path d="M179.961 305.887L181.196 369.106V433.797H170.249C144.593 311.218 162.172 280.487 162.172 280.487H162.229C162.229 280.44 162.229 280.383 162.286 280.345C166.42 271.156 193.511 277.931 193.511 277.931C195.411 285.533 196.704 300.993 196.704 300.993L179.961 305.887Z" fill="#263238"/>
<path opacity="0.2" d="M179.961 305.887L181.196 369.106V433.797H170.249C144.593 311.218 162.172 280.487 162.172 280.487H162.229C162.229 280.44 162.229 280.383 162.286 280.345C166.42 271.156 193.511 277.931 193.511 277.931C195.411 285.533 196.704 300.993 196.704 300.993L179.961 305.887Z" fill="white"/>
<path d="M168.871 432.239L182.326 430.272L181.196 435.651L170.097 437.143L168.871 432.239Z" fill="#D75337"/>
<path d="M146.379 419.753L155.407 429.559L150.893 432.144L143.928 424.761L146.379 419.753Z" fill="#D75337"/>
<path d="M197.329 289.01C192.219 291.141 186.901 292.734 181.46 293.761C164.451 297.096 156.27 295.661 156.27 295.661C158.664 289.96 159.814 281.864 159.776 272.856C159.739 268.182 159.421 263.514 158.826 258.878C158.826 258.678 158.826 258.479 158.75 258.279C158.303 254.858 157.714 251.409 156.992 247.998C156.479 245.572 155.89 243.18 155.224 240.824C154.759 239.142 154.274 237.498 153.723 235.873C153.124 234.048 152.469 232.129 151.766 230.086C156.021 228.728 160.368 227.68 164.774 226.95C169.427 226.122 174.133 225.623 178.857 225.458C184.967 225.411 191.97 226.105 191.97 226.105C191.97 226.105 192.968 226.342 193.595 232.756C193.775 234.657 193.433 239.408 193.063 245.508C192.255 258.602 193.291 277.883 197.329 289.01Z" fill="#D75337"/>
<path opacity="0.3" d="M169.602 247.676C170.884 245.519 171.996 243.419 172.899 241.575H171.283C170.694 242.782 170.01 244.112 169.25 245.5C169.374 246.184 169.497 246.915 169.602 247.676Z" fill="white"/>
<path opacity="0.3" d="M175.322 241.499L173.963 241.566C172.87 243.818 171.464 246.488 169.801 249.167C169.858 249.709 169.905 250.27 169.943 250.821C171.944 247.838 173.741 244.724 175.322 241.499Z" fill="white"/>
<path opacity="0.3" d="M188.938 269.416C188.862 268.78 188.786 268.086 188.71 267.345C187.675 269.16 186.506 271.051 185.232 272.885L186.905 272.514C187.617 271.488 188.302 270.452 188.938 269.416Z" fill="white"/>
<path opacity="0.3" d="M188.531 265.72C188.455 265.036 188.389 264.342 188.313 263.658C186.63 267.038 184.702 270.29 182.545 273.389L183.875 273.151C185.578 270.772 187.133 268.29 188.531 265.72Z" fill="white"/>
<path opacity="0.3" d="M181.214 273.618C183.866 269.912 186.184 265.978 188.142 261.863C188.047 260.799 187.961 259.792 187.904 258.908C185.604 264.178 182.767 269.196 179.438 273.884L181.214 273.618Z" fill="white"/>
<path opacity="0.3" d="M170.049 254.252C173.14 250.201 175.805 245.841 178.002 241.243L176.425 241.405C174.59 245.233 172.455 248.909 170.039 252.399C170.049 253.017 170.058 253.634 170.049 254.252Z" fill="white"/>
<path opacity="0.3" d="M188.303 272.164L189.253 271.897C189.253 271.631 189.177 271.289 189.139 270.947C188.854 271.337 188.578 271.745 188.303 272.164Z" fill="white"/>
<path opacity="0.3" d="M178.105 274.082C182.026 268.699 185.286 262.864 187.817 256.703V256.351C187.817 256.228 188.292 244.711 187.009 239.247C184.451 240.155 181.804 240.792 179.113 241.148C176.655 246.415 173.58 251.372 169.952 255.914C169.869 257.004 169.694 258.084 169.43 259.145C169.971 264.435 170.202 269.753 170.123 275.071C171.691 274.871 174.741 274.548 178.105 274.082Z" fill="white"/>
<path opacity="0.3" d="M170.238 241.557C169.611 241.557 168.984 241.5 168.338 241.462C168.509 242.127 168.718 243.011 168.937 244.037C169.45 243.182 169.849 242.346 170.238 241.557Z" fill="white"/>
<path d="M176.491 224.662C176.123 223.496 175.962 222.273 176.016 221.051C176.047 219.739 176.171 218.431 176.387 217.136L167.075 215.397C167.075 215.397 169.859 220.89 168.025 225.413C163.719 226.171 159.553 227.58 155.672 229.594C161.327 233.438 168.073 235.351 174.905 235.048C186.212 234.478 190.251 226.686 190.251 226.686C185.796 225.306 181.155 224.624 176.491 224.662Z" fill="#EEC1BB"/>
<path opacity="0.2" d="M176.386 217.136C176.17 218.431 176.046 219.739 176.016 221.051C171.531 220.016 167.074 215.397 167.074 215.397L176.386 217.136Z" fill="black"/>
<path opacity="0.1" d="M176.491 224.662C176.123 223.496 175.962 222.273 176.016 221.051C176.047 219.739 176.171 218.431 176.387 217.136L167.075 215.397C167.075 215.397 169.859 220.89 168.025 225.413C163.719 226.171 159.553 227.58 155.672 229.594C161.327 233.438 168.073 235.351 174.905 235.048C186.212 234.478 190.251 226.686 190.251 226.686C185.796 225.306 181.155 224.624 176.491 224.662Z" fill="black"/>
<path d="M175.941 219.159C175.04 219.165 174.14 219.092 173.252 218.941C171.667 218.67 170.16 218.061 168.833 217.154C167.507 216.247 166.391 215.064 165.564 213.686C160.642 205.97 162.714 192.686 172.159 192.173C179.818 191.754 182.507 195.717 183.505 203.575C184.654 212.403 183.267 219.055 175.941 219.159Z" fill="#EEC1BB"/>
<path d="M178.523 203.415C179.199 204.525 180.006 205.549 180.928 206.465C180.718 206.79 180.422 207.051 180.073 207.219C179.724 207.387 179.336 207.455 178.951 207.416L178.523 203.415Z" fill="#D4827D"/>
<path d="M173.802 203.045C173.802 203.672 173.555 204.213 173.137 204.242C172.719 204.27 172.339 203.795 172.282 203.168C172.225 202.541 172.539 201.999 172.957 201.971C173.375 201.942 173.755 202.418 173.802 203.045Z" fill="#263238"/>
<path d="M172.785 202.008L174.106 201.371C174.106 201.371 173.517 202.54 172.785 202.008Z" fill="#263238"/>
<path d="M181.603 202.304C181.651 202.932 181.356 203.473 180.938 203.502C180.52 203.53 180.14 203.055 180.083 202.418C180.026 201.782 180.339 201.259 180.758 201.231C181.176 201.202 181.556 201.677 181.603 202.304Z" fill="#263238"/>
<path d="M180.586 201.266L181.907 200.62C181.907 200.62 181.318 201.827 180.586 201.266Z" fill="#263238"/>
<path d="M173.441 197.79C172.831 197.749 172.22 197.849 171.655 198.081C171.09 198.313 170.586 198.672 170.182 199.13" stroke="#263238" stroke-width="0.566379" stroke-linecap="round" stroke-linejoin="round"/>
<path d="M178.953 197.134C179.467 196.971 180.012 196.928 180.545 197.007C181.078 197.086 181.587 197.286 182.032 197.59" stroke="#263238" stroke-width="0.566379" stroke-linecap="round" stroke-linejoin="round"/>
<path d="M178.003 210.522C177.69 211.405 177.442 212.311 177.262 213.23H176.758C174.525 213.126 173.518 212.337 173.081 211.491C172.875 211.075 172.774 210.615 172.786 210.152C172.784 209.892 172.816 209.633 172.881 209.382C174.24 210.056 175.727 210.435 177.243 210.494L178.003 210.522Z" fill="#263238"/>
<path d="M177.242 210.474L177.004 211.263C174.885 211.158 173.412 210.807 172.785 210.132C172.783 209.872 172.815 209.614 172.88 209.362C174.239 210.037 175.726 210.416 177.242 210.474Z" fill="white"/>
<path d="M176.757 213.212C174.524 213.107 173.517 212.318 173.08 211.473C173.93 211.529 174.763 211.735 175.541 212.081C176.054 212.322 176.479 212.717 176.757 213.212Z" fill="#DE5753"/>
<path d="M164.489 205.534C164.489 205.534 167.73 199.044 166.922 194.217C166.922 194.217 181.755 187.185 183.351 202.55C183.351 202.55 184.083 188.781 170.903 189.247C157.724 189.713 158.835 208.926 165.943 214.295C165.943 214.247 162.494 209.591 164.489 205.534Z" fill="#263238"/>
<path d="M165.829 207.082C165.701 206.201 165.23 205.405 164.517 204.871C163.805 204.337 162.909 204.107 162.028 204.231C159.671 204.621 158.806 209.562 164.774 210.408C165.648 210.503 166.085 209.648 165.829 207.082Z" fill="#EEC1BB"/>
<path opacity="0.1" d="M175.939 219.16C175.038 219.166 174.138 219.092 173.25 218.941C171.666 218.671 170.158 218.061 168.832 217.154C167.505 216.247 166.39 215.064 165.562 213.686C166.609 212.307 168.061 211.29 169.715 210.779C170.865 210.646 173.963 216.328 175.939 219.16Z" fill="black"/>
<path d="M188.397 209.363C188.397 209.363 184.473 218.694 185.166 220.195C185.86 221.697 189.233 230.163 189.233 230.163L193.528 227.902L190.174 221.051C190.174 221.051 194.06 214.865 193.528 214.247C192.996 213.629 189.86 208.707 188.397 209.363Z" fill="#EEC1BB"/>
<path d="M187.172 228.282L193.586 224.481C193.586 224.481 213.759 248.798 212.496 255.753C211.83 259.383 205.844 261.607 201.093 257.065C196.693 252.903 193.728 242.849 187.172 228.282Z" fill="#D75337"/>
<path opacity="0.1" d="M187.172 228.282L193.586 224.481C193.586 224.481 213.759 248.798 212.496 255.753C211.83 259.383 205.844 261.607 201.093 257.065C196.693 252.903 193.728 242.849 187.172 228.282Z" fill="black"/>
<path d="M164.975 214.248C164.975 214.248 168.719 211.227 169.859 211.293C171 211.36 174.61 221.413 175.399 222.268C176.188 223.123 173.613 231.238 173.613 231.238L168.377 231.305L170.277 224.52C170.277 224.52 163.208 215.569 164.975 214.248Z" fill="#EEC1BB"/>
<path opacity="0.2" d="M159.776 272.858C159.739 268.184 159.422 263.516 158.826 258.88C161.299 255.821 164.596 253.536 168.328 252.295C168.328 252.295 168.576 267.936 159.776 272.858Z" fill="black"/>
<path d="M168.377 228.719L175.029 230.163C175.029 230.163 168.558 258.917 164.082 262.927C159.607 266.937 155.159 266.452 151.815 261.027C148.47 255.601 147.311 231.313 151.815 230.002C153.547 232.753 155.045 235.645 156.29 238.649C157.496 241.339 158.513 244.111 159.331 246.944L168.377 228.719Z" fill="#D75337"/>
<path opacity="0.1" d="M175.009 230.154C175.009 230.154 168.538 258.917 164.063 262.927C159.587 266.937 155.14 266.453 151.795 261.027C148.45 255.601 147.291 231.313 151.795 230.002C153.528 232.753 155.025 235.646 156.271 238.649C157.221 240.758 157.829 242.45 158.295 243.79C159.045 245.871 159.311 246.944 159.311 246.944L168.377 228.69L175.009 230.154Z" fill="black"/>
<path opacity="0.2" d="M159.311 246.974C159.311 246.974 155.947 251.526 154.959 254.405C154.959 254.405 153.904 247.848 158.294 243.819C159.045 245.9 159.311 246.974 159.311 246.974Z" fill="black"/>
</svg>
