<svg width="457" height="419" viewBox="0 0 457 419" fill="none" xmlns="http://www.w3.org/2000/svg">
<path d="M445.913 385.967H408.754V386.247H445.913V385.967Z" fill="#EBEBEB"/>
<path d="M312.76 389.017H303.01V389.297H312.76V389.017Z" fill="#EBEBEB"/>
<path d="M407.636 375.554H386.105V375.834H407.636V375.554Z" fill="#EBEBEB"/>
<path d="M48.4578 377.439H0V377.72H48.4578V377.439Z" fill="#EBEBEB"/>
<path d="M65.5552 377.439H58.4531V377.72H65.5552V377.439Z" fill="#EBEBEB"/>
<path d="M193.752 382.174H88.6465V382.454H193.752V382.174Z" fill="#EBEBEB"/>
<path d="M449.742 317.875H233.09C231.392 317.872 229.764 317.196 228.563 315.995C227.362 314.794 226.687 313.166 226.684 311.468V6.93237C226.701 5.24394 227.384 3.6305 228.583 2.4418C229.782 1.25309 231.401 0.58489 233.09 0.582031H449.742C451.428 0.587871 453.043 1.25774 454.238 2.44644C455.433 3.63514 456.111 5.2469 456.126 6.93237V311.468C456.126 313.163 455.454 314.789 454.258 315.99C453.061 317.191 451.437 317.869 449.742 317.875ZM233.09 0.806426C231.466 0.809392 229.91 1.45575 228.762 2.60395C227.613 3.75214 226.967 5.30858 226.964 6.93237V311.468C226.967 313.092 227.613 314.648 228.762 315.797C229.91 316.945 231.466 317.591 233.09 317.594H449.742C451.366 317.591 452.922 316.945 454.07 315.797C455.219 314.648 455.865 313.092 455.868 311.468V6.93237C455.865 5.30858 455.219 3.75214 454.07 2.60395C452.922 1.45575 451.366 0.809392 449.742 0.806426H233.09Z" fill="#EBEBEB"/>
<path d="M128.305 45.3145H51.4277V261.181H128.305V45.3145Z" fill="#FAFAFA"/>
<path d="M116.865 45.3145H112.366L85.5625 261.181H90.0504L116.865 45.3145Z" fill="#F5F5F5"/>
<path d="M126.951 46.3125H50.9492V48.6125H126.951V46.3125Z" fill="#E0E0E0"/>
<path d="M126.951 258.892H50.9492V263.806H126.951V258.892Z" fill="#EBEBEB"/>
<path d="M125.682 263.593H53.8652V263.806H125.682V263.593Z" fill="#EBEBEB"/>
<path d="M53.8675 46.324H125.685V263.593H129.982V43.0928H49.5703V263.593H53.8675V46.324Z" fill="#EBEBEB"/>
<path d="M213.858 45.3145H136.98V261.181H213.858V45.3145Z" fill="#FAFAFA"/>
<path d="M192.53 45.3145H168.015L141.211 261.181H165.715L192.53 45.3145Z" fill="#F5F5F5"/>
<path d="M214.645 46.3125H136.488V48.6125H214.645V46.3125Z" fill="#E0E0E0"/>
<path d="M214.645 258.892H136.488V263.806H214.645V258.892Z" fill="#EBEBEB"/>
<path d="M211.221 263.593H139.404V263.806H211.221V263.593Z" fill="#EBEBEB"/>
<path d="M139.407 46.324H211.224V263.593H215.532V43.0928H135.109V263.593H139.407V46.324Z" fill="#EBEBEB"/>
<path d="M297.231 45.3145H222.52V261.181H297.231V45.3145Z" fill="#FAFAFA"/>
<path d="M264.854 45.3145H260.355L233.551 261.181H238.039L264.854 45.3145Z" fill="#F5F5F5"/>
<path d="M298.029 46.3125H222.027V48.6125H298.029V46.3125Z" fill="#E0E0E0"/>
<path d="M298.029 258.892H222.027V263.806H298.029V258.892Z" fill="#EBEBEB"/>
<path d="M296.761 263.593H224.943V263.806H296.761V263.593Z" fill="#EBEBEB"/>
<path d="M224.946 46.324H296.763V263.593H301.071V43.0928H220.648V263.593H224.946V46.324Z" fill="#EBEBEB"/>
<path d="M384.936 45.3145H308.059V261.181H384.936V45.3145Z" fill="#FAFAFA"/>
<path d="M377.409 45.3145H352.905L326.09 261.181H350.594L377.409 45.3145Z" fill="#F5F5F5"/>
<path d="M383.569 46.3125H307.566V48.6125H383.569V46.3125Z" fill="#E0E0E0"/>
<path d="M383.569 258.892H307.566V263.806H383.569V258.892Z" fill="#EBEBEB"/>
<path d="M310.492 46.324H382.309V263.593H386.606V43.0928H306.184V263.593H310.492V46.324Z" fill="#EBEBEB"/>
<path d="M382.311 263.593H310.494V263.806H382.311V263.593Z" fill="#EBEBEB"/>
<path d="M109.922 201.2H76.543V258.903H109.922V201.2Z" fill="#EBEBEB"/>
<path d="M103.511 193.134V207.607H100.875H85.5824H82.957V193.134H103.511Z" fill="#EBEBEB"/>
<path d="M103.501 207.606H107.775V203.332H103.501V207.606Z" fill="#FAFAFA"/>
<path d="M95.2312 207.606H99.5059V203.332H95.2312V207.606Z" fill="#FAFAFA"/>
<path d="M86.9616 207.606H91.2363V203.332H86.9616V207.606Z" fill="#FAFAFA"/>
<path d="M78.6706 207.606H82.9453V203.332H78.6706V207.606Z" fill="#F0F0F0"/>
<path d="M103.501 215.371H107.775V211.096H103.501V215.371Z" fill="#F0F0F0"/>
<path d="M95.2312 215.371H99.5059V211.096H95.2312V215.371Z" fill="#F0F0F0"/>
<path d="M86.9616 215.371H91.2363V211.096H86.9616V215.371Z" fill="#FAFAFA"/>
<path d="M78.6706 215.371H82.9453V211.096H78.6706V215.371Z" fill="#FAFAFA"/>
<path d="M103.501 223.125H107.775V218.85H103.501V223.125Z" fill="#F0F0F0"/>
<path d="M95.2312 223.125H99.5059V218.85H95.2312V223.125Z" fill="#FAFAFA"/>
<path d="M86.9616 223.125H91.2363V218.85H86.9616V223.125Z" fill="#FAFAFA"/>
<path d="M95.2312 200.898H99.5059V196.624H95.2312V200.898Z" fill="#FAFAFA"/>
<path d="M86.9616 200.898H91.2363V196.624H86.9616V200.898Z" fill="#F0F0F0"/>
<path d="M78.6706 223.125H82.9453V218.85H78.6706V223.125Z" fill="#F0F0F0"/>
<path d="M103.501 230.889H107.775V226.614H103.501V230.889Z" fill="#FAFAFA"/>
<path d="M95.2312 230.889H99.5059V226.614H95.2312V230.889Z" fill="#F0F0F0"/>
<path d="M86.9616 230.889H91.2363V226.614H86.9616V230.889Z" fill="#F0F0F0"/>
<path d="M78.6706 230.889H82.9453V226.614H78.6706V230.889Z" fill="#FAFAFA"/>
<path d="M103.501 238.653H107.775V234.379H103.501V238.653Z" fill="#F0F0F0"/>
<path d="M95.2312 238.653H99.5059V234.379H95.2312V238.653Z" fill="#FAFAFA"/>
<path d="M86.9616 238.653H91.2363V234.379H86.9616V238.653Z" fill="#FAFAFA"/>
<path d="M78.6706 238.653H82.9453V234.379H78.6706V238.653Z" fill="#F0F0F0"/>
<path d="M103.501 246.416H107.775V242.141H103.501V246.416Z" fill="#F0F0F0"/>
<path d="M95.2312 246.416H99.5059V242.141H95.2312V246.416Z" fill="#FAFAFA"/>
<path d="M86.9616 246.416H91.2363V242.141H86.9616V246.416Z" fill="#F0F0F0"/>
<path d="M78.6706 246.416H82.9453V242.141H78.6706V246.416Z" fill="#FAFAFA"/>
<path d="M103.501 254.182H107.775V249.907H103.501V254.182Z" fill="#FAFAFA"/>
<path d="M95.2312 254.182H99.5059V249.907H95.2312V254.182Z" fill="#FAFAFA"/>
<path d="M86.9616 254.182H91.2363V249.907H86.9616V254.182Z" fill="#F0F0F0"/>
<path d="M78.6706 254.182H82.9453V249.907H78.6706V254.182Z" fill="#F0F0F0"/>
<path d="M344.994 222.217H315.094V258.905H344.994V222.217Z" fill="#F0F0F0"/>
<path d="M317.695 226.287H324.652H326.57H328.477V230.113H326.57H324.652H317.695V226.287Z" fill="#E6E6E6"/>
<path d="M317.695 233.705H324.652H326.57H328.477V237.531H326.57H324.652H317.695V233.705Z" fill="#FAFAFA"/>
<path d="M317.695 241.108H324.652H326.57H328.477V244.946H326.57H324.652H317.695V241.108Z" fill="#E6E6E6"/>
<path d="M317.695 248.524H324.652H327.614H328.477V252.35H327.614H324.652H317.695V248.524Z" fill="#FAFAFA"/>
<path d="M331.609 226.287H338.566H340.473H342.392V230.113H340.473H338.566H331.609V226.287Z" fill="#FAFAFA"/>
<path d="M331.609 233.705H338.566H341.258H342.392V237.531H341.258H338.566H331.609V233.705Z" fill="#FAFAFA"/>
<path d="M331.609 241.108H338.566H340.473H342.392V244.946H340.473H338.566H331.609V241.108Z" fill="#E6E6E6"/>
<path d="M331.609 248.524H338.566H340.473H342.392V252.35H340.473H338.566H331.609V248.524Z" fill="#FAFAFA"/>
<path d="M200.932 236.106H173.77V258.905H200.932V236.106Z" fill="#F0F0F0"/>
<path d="M195.729 242.434H199.207V238.956H195.729V242.434Z" fill="#FAFAFA"/>
<path d="M188.983 242.434H192.461V238.956H188.983V242.434Z" fill="#FAFAFA"/>
<path d="M182.243 242.434H185.721V238.956H182.243V242.434Z" fill="#FAFAFA"/>
<path d="M175.51 242.434H178.988V238.956H175.51V242.434Z" fill="#FAFAFA"/>
<path d="M195.725 248.739H199.203V245.261H195.725V248.739Z" fill="#FAFAFA"/>
<path d="M188.983 248.739H192.461V245.261H188.983V248.739Z" fill="#FAFAFA"/>
<path d="M182.243 248.739H185.721V245.261H182.243V248.739Z" fill="#FAFAFA"/>
<path d="M175.51 248.739H178.988V245.261H175.51V248.739Z" fill="#E6E6E6"/>
<path d="M195.725 255.065H199.203V251.587H195.725V255.065Z" fill="#E6E6E6"/>
<path d="M188.983 255.065H192.461V251.587H188.983V255.065Z" fill="#E6E6E6"/>
<path d="M182.243 255.065H185.721V251.587H182.243V255.065Z" fill="#FAFAFA"/>
<path d="M175.51 255.065H178.988V251.587H175.51V255.065Z" fill="#E6E6E6"/>
<path d="M170.091 219.253H142.928V258.903H170.091V219.253Z" fill="#F0F0F0"/>
<path d="M168.349 220.992H158.139V230.787H168.349V220.992Z" fill="#FAFAFA"/>
<path d="M154.878 220.992H144.668V230.787H154.878V220.992Z" fill="#FAFAFA"/>
<path d="M168.351 233.627H158.141V243.422H168.351V233.627Z" fill="#FAFAFA"/>
<path d="M154.878 233.627H144.668V243.422H154.878V233.627Z" fill="#FAFAFA"/>
<path d="M168.352 246.27H158.143V256.064H168.352V246.27Z" fill="#FAFAFA"/>
<path d="M154.878 246.27H144.668V256.064H154.878V246.27Z" fill="#FAFAFA"/>
<path d="M306.22 360.644H282.221L294.854 257.738C295.166 255.594 296.225 253.631 297.845 252.193C299.465 250.756 301.541 249.938 303.706 249.884H408.554L393.172 360.678L306.22 360.644Z" fill="#F5F5F5"/>
<path d="M382.445 360.644H406.489L419.1 257.737C419.247 256.751 419.177 255.744 418.895 254.788C418.613 253.832 418.125 252.948 417.465 252.2C416.806 251.452 415.991 250.857 415.078 250.457C414.164 250.057 413.174 249.861 412.177 249.884H403.92C401.754 249.936 399.677 250.753 398.056 252.191C396.436 253.628 395.377 255.593 395.067 257.737L382.445 360.644Z" fill="#F0F0F0"/>
<path d="M373.591 360.519L377.944 310.748C378.04 309.669 378.502 308.654 379.252 307.873C380.003 307.092 380.998 306.59 382.073 306.451L383.868 306.227C385.308 306.041 386.641 305.369 387.647 304.322C388.652 303.275 389.271 301.917 389.399 300.471L390.196 291.394C390.272 290.515 390.165 289.63 389.881 288.794C389.597 287.959 389.143 287.191 388.547 286.541C387.951 285.89 387.226 285.37 386.419 285.014C385.612 284.658 384.739 284.473 383.857 284.472H424.023C424.902 284.479 425.77 284.668 426.572 285.027C427.374 285.386 428.093 285.907 428.684 286.557C429.275 287.207 429.725 287.972 430.006 288.805C430.287 289.637 430.393 290.519 430.318 291.394L429.521 300.471C429.392 301.917 428.774 303.275 427.768 304.322C426.762 305.369 425.429 306.041 423.99 306.227L422.195 306.451C421.12 306.59 420.125 307.092 419.374 307.873C418.623 308.654 418.162 309.669 418.066 310.748L413.713 360.519C413.561 362.271 412.757 363.902 411.461 365.09C410.165 366.278 408.47 366.937 406.711 366.936H366.59C368.348 366.937 370.043 366.278 371.34 365.09C372.636 363.902 373.439 362.271 373.591 360.519Z" fill="#E6E6E6"/>
<path d="M263.054 298.286C262.728 294.51 260.999 290.993 258.207 288.43C255.416 285.867 251.764 284.443 247.975 284.44H282.946C286.731 284.443 290.378 285.861 293.168 288.418C295.959 290.974 297.692 294.482 298.026 298.252L301.47 337.711H266.51L263.054 298.286Z" fill="#E6E6E6"/>
<path d="M232.45 284.44H247.978C251.763 284.443 255.41 285.861 258.2 288.418C260.991 290.974 262.724 294.482 263.058 298.252L266.513 337.745H349.808L353.253 298.286C353.578 294.512 355.306 290.997 358.095 288.434C360.884 285.871 364.533 284.446 368.321 284.44H383.86C384.742 284.442 385.615 284.626 386.422 284.983C387.229 285.339 387.954 285.859 388.55 286.509C389.146 287.16 389.6 287.928 389.884 288.763C390.168 289.599 390.275 290.484 390.199 291.363L389.402 300.44C389.274 301.886 388.655 303.244 387.65 304.291C386.644 305.338 385.311 306.009 383.871 306.195L382.076 306.42C381.001 306.559 380.006 307.06 379.255 307.842C378.505 308.623 378.043 309.638 377.947 310.717L373.594 360.487C373.442 362.239 372.639 363.871 371.343 365.059C370.046 366.247 368.351 366.906 366.593 366.905H249.684C247.925 366.906 246.23 366.247 244.934 365.059C243.638 363.871 242.834 362.239 242.683 360.487L238.329 310.717C238.236 309.637 237.775 308.621 237.024 307.84C236.272 307.058 235.276 306.557 234.201 306.42L232.417 306.195C230.975 306.012 229.639 305.341 228.631 304.294C227.623 303.247 227.003 301.887 226.874 300.44L226.122 291.397C226.041 290.516 226.145 289.628 226.426 288.789C226.707 287.95 227.159 287.179 227.754 286.525C228.35 285.871 229.075 285.347 229.883 284.988C230.692 284.63 231.566 284.443 232.45 284.44Z" fill="#F0F0F0"/>
<path d="M115.319 277.954H6.05078C6.05185 279.885 6.79794 281.741 8.13356 283.135C9.46918 284.529 11.2913 285.354 13.2202 285.438C24.9672 285.976 43.0308 287.827 48.7529 294.324C59.434 306.441 58.4018 348.986 45.6114 358.837C41.5947 361.922 29.9038 368.059 29.9038 368.059H91.4886C91.4886 368.059 80.5607 361.799 76.7572 358.837C64.0453 348.907 63.675 306.385 74.4011 294.324C79.9099 288.142 96.8404 286.144 108.195 285.516C110.124 285.404 111.936 284.559 113.261 283.152C114.586 281.746 115.322 279.886 115.319 277.954Z" fill="#F5F5F5"/>
<path d="M19.5898 285.843C30.6861 286.729 43.9926 288.928 48.761 294.325C50.3103 296.193 51.5319 298.309 52.3737 300.585H70.7291C71.5981 298.31 72.8378 296.195 74.398 294.325C79.1776 288.951 92.5963 286.74 103.479 285.843H19.5898Z" fill="#E6E6E6"/>
<path d="M68.7774 278.01L67.2852 261.023H88.8269L90.3192 278.01H68.7774Z" fill="#EBEBEB"/>
<path d="M68.7768 278.01L67.2845 261.023H66.1289L67.6099 278.01H68.7768Z" fill="#E0E0E0"/>
<path d="M70.8167 276.282L69.6387 262.763H86.7823L87.9604 276.282H70.8167Z" fill="#F0F0F0"/>
<path d="M72.1338 275.161L71.1465 263.874H85.474L86.4613 275.161H72.1338Z" fill="#FAFAFA"/>
<path d="M61.7878 277.955H40.1562L42.5573 250.522H64.1888L61.7878 277.955Z" fill="#E6E6E6"/>
<path d="M61.7891 277.955H62.8213L65.2223 250.522H64.1901L61.7891 277.955Z" fill="#E0E0E0"/>
<path d="M59.8238 275.16H42.6016L44.5201 253.315H61.7423L59.8238 275.16Z" fill="#F0F0F0"/>
<path d="M58.5667 273.366H44.1719L45.7763 255.111H60.1599L58.5667 273.366Z" fill="#FAFAFA"/>
<path d="M51.2981 263.323C51.7691 263.792 52.4064 264.055 53.0708 264.055C53.7352 264.055 54.3726 263.792 54.8435 263.323C55.3122 262.852 55.5753 262.215 55.5753 261.55C55.5753 260.886 55.3122 260.249 54.8435 259.778C54.3726 259.309 53.7352 259.046 53.0708 259.046C52.4064 259.046 51.7691 259.309 51.2981 259.778C50.8295 260.249 50.5664 260.886 50.5664 261.55C50.5664 262.215 50.8295 262.852 51.2981 263.323Z" fill="#EBEBEB"/>
<path d="M52.3608 266.387C52.1909 266.216 51.9889 266.081 51.7666 265.989C51.5442 265.896 51.3057 265.849 51.0649 265.849C50.8241 265.849 50.5857 265.896 50.3633 265.989C50.1409 266.081 49.939 266.216 49.7691 266.387C49.5084 266.644 49.331 266.974 49.2596 267.333C49.1883 267.692 49.2264 268.064 49.3691 268.401C49.5117 268.738 49.7522 269.025 50.0596 269.224C50.3669 269.423 50.7269 269.525 51.093 269.517C51.4543 269.514 51.8064 269.404 52.1051 269.2C52.4038 268.997 52.6355 268.71 52.7712 268.375C52.9068 268.04 52.9402 267.673 52.8672 267.319C52.7941 266.965 52.6179 266.641 52.3608 266.387Z" fill="#F0F0F0"/>
<path d="M221.632 418.581C341.775 418.581 439.171 412.895 439.171 405.88C439.171 398.866 341.775 393.18 221.632 393.18C101.489 393.18 4.09375 398.866 4.09375 405.88C4.09375 412.895 101.489 418.581 221.632 418.581Z" fill="#F5F5F5"/>
<path d="M396.906 329.109C397.108 330.556 393.181 331.51 389.973 332.048C390.242 334.674 391.992 337.333 394.404 339.824C397.445 338.107 401.787 335.841 402.584 336.39C403.38 336.94 399.016 339.88 396.233 341.563C398.218 343.297 400.321 344.89 402.527 346.331C403.896 345.063 405.489 343.941 406.443 344.547C407.397 345.153 407.161 347.15 406.679 348.9C409.977 350.83 412.457 352.008 412.457 352.008C413.432 348.937 414.182 345.798 414.701 342.617C414.533 342.281 414.375 341.955 414.218 341.596C413.68 340.362 414.218 339.846 415.082 339.667C415.328 337.43 415.347 335.175 415.138 332.935C411.391 332.149 406.847 330.691 408.552 328.447C409.573 327.101 411.458 326.944 413.422 327.325C413.15 326.879 412.838 326.458 412.491 326.068C405.68 318.562 400.923 326.068 400.923 326.068C396.962 322.77 391.398 323.656 390.197 328.817C392.396 328.2 396.66 327.325 396.906 329.109Z" fill="#D75337"/>
<path opacity="0.3" d="M396.906 329.109C397.108 330.556 393.181 331.51 389.973 332.048C390.242 334.674 391.992 337.333 394.404 339.824C397.445 338.107 401.787 335.841 402.584 336.39C403.38 336.94 399.016 339.88 396.233 341.563C398.218 343.297 400.321 344.89 402.527 346.331C403.896 345.063 405.489 343.941 406.443 344.547C407.397 345.153 407.161 347.15 406.679 348.9C409.977 350.83 412.457 352.008 412.457 352.008C413.432 348.937 414.182 345.798 414.701 342.617C414.533 342.281 414.375 341.955 414.218 341.596C413.68 340.362 414.218 339.846 415.082 339.667C415.328 337.43 415.347 335.175 415.138 332.935C411.391 332.149 406.847 330.691 408.552 328.447C409.573 327.101 411.458 326.944 413.422 327.325C413.15 326.879 412.838 326.458 412.491 326.068C405.68 318.562 400.923 326.068 400.923 326.068C396.962 322.77 391.398 323.656 390.197 328.817C392.396 328.2 396.66 327.325 396.906 329.109Z" fill="white"/>
<path d="M405.395 384.298L404.419 384.22C404.419 383.715 408.447 333.44 397.171 328.694C396.64 328.452 396.061 328.335 395.478 328.351C394.895 328.366 394.323 328.514 393.805 328.783C389.733 330.904 387.78 339.711 387.758 339.801L386.793 339.588C386.872 339.206 388.869 330.242 393.345 327.908C394 327.565 394.724 327.375 395.463 327.354C396.202 327.332 396.936 327.48 397.609 327.785C409.49 332.789 405.631 382.189 405.395 384.298Z" fill="#D75337"/>
<path d="M406.824 383.175C406.622 380.931 402.022 327.716 410.627 322.072C412.692 320.726 414.532 320.434 416.102 321.22C420.175 323.273 420.702 331.979 420.725 332.35H419.737C419.737 332.271 419.221 323.856 415.654 322.061C414.431 321.444 412.916 321.702 411.166 322.858C403.043 328.176 407.744 382.49 407.8 383.04L406.824 383.175Z" fill="#D75337"/>
<path d="M408.127 387.496C408.06 385.768 406.635 345.052 414.477 341.495C415.207 341.151 416.004 340.973 416.811 340.973C417.618 340.973 418.415 341.151 419.145 341.495C424.53 343.862 427.851 353.893 427.986 354.319L427.055 354.622C427.055 354.521 423.689 344.58 418.752 342.392C418.149 342.105 417.49 341.956 416.822 341.956C416.155 341.956 415.495 342.105 414.892 342.392C408.879 345.13 408.677 375.861 409.103 387.473L408.127 387.496Z" fill="#D75337"/>
<path d="M406.126 385.633L405.139 385.52C406.53 373.403 409.167 341.113 404.847 337.276C404.637 337.025 404.359 336.84 404.047 336.742C403.735 336.645 403.401 336.639 403.085 336.726C400.191 337.848 398.429 348.338 397.992 352.299L397.016 352.187C397.184 350.672 398.766 337.332 402.726 335.806C403.211 335.644 403.732 335.626 404.226 335.756C404.721 335.885 405.166 336.156 405.509 336.535C411.085 341.506 406.328 383.837 406.126 385.633Z" fill="#D75337"/>
<path d="M389.68 362.667H425.089L422.127 402.329H392.63L389.68 362.667Z" fill="#D75337"/>
<path opacity="0.2" d="M400.428 362.667L401.415 402.329H422.127L425.089 362.667H400.428Z" fill="white"/>
<path d="M394.502 348.102C394.132 349.067 391.383 348.315 389.218 347.541C388.548 349.597 388.572 351.816 389.285 353.858C391.753 353.858 395.198 353.936 395.512 354.553C395.826 355.17 392.146 355.473 389.823 355.563C390.452 357.311 391.201 359.013 392.067 360.657C393.346 360.343 394.715 360.197 395.085 360.892C395.456 361.588 394.648 362.744 393.739 363.664C395.119 365.986 396.241 367.557 396.241 367.557C397.888 365.992 399.421 364.312 400.83 362.53C400.83 362.261 400.83 362.003 400.83 361.734C400.92 360.791 401.425 360.612 402.03 360.836C402.955 359.538 403.741 358.147 404.375 356.685C402.345 354.912 400.033 352.455 401.851 351.659C402.973 351.176 404.162 351.726 405.217 352.612C405.203 352.234 405.155 351.859 405.071 351.49C403.444 344.523 397.935 347.53 397.935 347.53C396.634 344.164 392.898 342.773 390.384 345.544C392.045 345.981 394.951 346.913 394.502 348.102Z" fill="#D75337"/>
<path opacity="0.3" d="M394.502 348.102C394.132 349.067 391.383 348.315 389.218 347.541C388.548 349.597 388.572 351.816 389.285 353.858C391.753 353.858 395.198 353.936 395.512 354.553C395.826 355.17 392.146 355.473 389.823 355.563C390.452 357.311 391.201 359.013 392.067 360.657C393.346 360.343 394.715 360.197 395.085 360.892C395.456 361.588 394.648 362.744 393.739 363.664C395.119 365.986 396.241 367.557 396.241 367.557C397.888 365.992 399.421 364.312 400.83 362.53C400.83 362.261 400.83 362.003 400.83 361.734C400.92 360.791 401.425 360.612 402.03 360.836C402.955 359.538 403.741 358.147 404.375 356.685C402.345 354.912 400.033 352.455 401.851 351.659C402.973 351.176 404.162 351.726 405.217 352.612C405.203 352.234 405.155 351.859 405.071 351.49C403.444 344.523 397.935 347.53 397.935 347.53C396.634 344.164 392.898 342.773 390.384 345.544C392.045 345.981 394.951 346.913 394.502 348.102Z" fill="white"/>
<path d="M420.791 352.814C419.69 352.91 418.605 353.14 417.56 353.499C417.27 352.749 417.107 351.957 417.077 351.154C416.853 344.018 421.969 347.025 424.662 344.927C425.271 344.393 425.985 343.992 426.757 343.749C427.53 343.505 428.345 343.425 429.15 343.513C428.919 343.906 428.716 344.315 428.544 344.736C428.481 344.892 428.454 345.061 428.466 345.229C428.477 345.397 428.526 345.56 428.609 345.707C428.692 345.854 428.807 345.98 428.945 346.076C429.083 346.172 429.242 346.235 429.408 346.262C430.085 346.399 430.789 346.316 431.416 346.026C431.592 345.917 431.76 345.797 431.921 345.667C432.357 346.416 432.689 347.22 432.908 348.057C433.174 349.054 433.329 350.078 433.368 351.109C432.965 351.194 432.567 351.306 432.179 351.446C432.025 351.514 431.888 351.615 431.779 351.743C431.67 351.871 431.591 352.022 431.547 352.185C431.504 352.347 431.498 352.518 431.53 352.683C431.562 352.848 431.63 353.004 431.73 353.14C432.155 353.569 432.653 353.918 433.2 354.172C433.017 355.322 432.717 356.45 432.303 357.538L431.944 357.594C431.682 357.64 431.423 357.704 431.169 357.785C431.022 357.82 430.879 357.873 430.743 357.942C430.566 358.016 430.412 358.135 430.294 358.286C430.176 358.437 430.099 358.616 430.07 358.806C430.045 359 430.071 359.198 430.145 359.379C430.22 359.56 430.341 359.718 430.496 359.838C430.665 359.957 430.841 360.066 431.024 360.163C430.349 361.346 429.373 362.329 428.196 363.013C427.165 362.539 426.161 362.007 425.189 361.42C425.402 361.139 425.616 360.848 425.818 360.556C426.044 360.228 426.151 359.832 426.121 359.434C426.066 359.034 425.857 358.671 425.537 358.424C425.379 358.302 425.198 358.212 425.005 358.16C424.812 358.108 424.611 358.095 424.413 358.121C424.215 358.147 424.024 358.212 423.851 358.312C423.678 358.412 423.526 358.546 423.405 358.705C423.17 359.053 422.912 359.389 422.654 359.726C421.317 358.731 420.121 357.561 419.097 356.248H419.198C419.86 356.077 420.536 355.968 421.218 355.922C421.595 355.845 421.929 355.627 422.153 355.313C422.376 355 422.473 354.613 422.423 354.231C422.374 353.849 422.181 353.499 421.885 353.253C421.588 353.007 421.21 352.883 420.825 352.904L420.791 352.814Z" fill="#D75337"/>
<path opacity="0.5" d="M420.791 352.814C419.69 352.91 418.605 353.14 417.56 353.499C417.27 352.749 417.107 351.957 417.077 351.154C416.853 344.018 421.969 347.025 424.662 344.927C425.271 344.393 425.985 343.992 426.757 343.749C427.53 343.505 428.345 343.425 429.15 343.513C428.919 343.906 428.716 344.315 428.544 344.736C428.481 344.892 428.454 345.061 428.466 345.229C428.477 345.397 428.526 345.56 428.609 345.707C428.692 345.854 428.807 345.98 428.945 346.076C429.083 346.172 429.242 346.235 429.408 346.262C430.085 346.399 430.789 346.316 431.416 346.026C431.592 345.917 431.76 345.797 431.921 345.667C432.357 346.416 432.689 347.22 432.908 348.057C433.174 349.054 433.329 350.078 433.368 351.109C432.965 351.194 432.567 351.306 432.179 351.446C432.025 351.514 431.888 351.615 431.779 351.743C431.67 351.871 431.591 352.022 431.547 352.185C431.504 352.347 431.498 352.518 431.53 352.683C431.562 352.848 431.63 353.004 431.73 353.14C432.155 353.569 432.653 353.918 433.2 354.172C433.017 355.322 432.717 356.45 432.303 357.538L431.944 357.594C431.682 357.64 431.423 357.704 431.169 357.785C431.022 357.82 430.879 357.873 430.743 357.942C430.566 358.016 430.412 358.135 430.294 358.286C430.176 358.437 430.099 358.616 430.07 358.806C430.045 359 430.071 359.198 430.145 359.379C430.22 359.56 430.341 359.718 430.496 359.838C430.665 359.957 430.841 360.066 431.024 360.163C430.349 361.346 429.373 362.329 428.196 363.013C427.165 362.539 426.161 362.007 425.189 361.42C425.402 361.139 425.616 360.848 425.818 360.556C426.044 360.228 426.151 359.832 426.121 359.434C426.066 359.034 425.857 358.671 425.537 358.424C425.379 358.302 425.198 358.212 425.005 358.16C424.812 358.108 424.611 358.095 424.413 358.121C424.215 358.147 424.024 358.212 423.851 358.312C423.678 358.412 423.526 358.546 423.405 358.705C423.17 359.053 422.912 359.389 422.654 359.726C421.317 358.731 420.121 357.561 419.097 356.248H419.198C419.86 356.077 420.536 355.968 421.218 355.922C421.595 355.845 421.929 355.627 422.153 355.313C422.376 355 422.473 354.613 422.423 354.231C422.374 353.849 422.181 353.499 421.885 353.253C421.588 353.007 421.21 352.883 420.825 352.904L420.791 352.814Z" fill="white"/>
<path d="M422.835 328.199C423.456 327.765 424.126 327.407 424.832 327.133C424.658 326.614 424.396 326.128 424.058 325.697C421.04 321.848 419.682 325.697 417.326 325.753C416.769 325.739 416.214 325.842 415.698 326.054C415.183 326.267 414.717 326.584 414.331 326.987C414.623 327.096 414.908 327.223 415.183 327.368C415.284 327.423 415.372 327.499 415.439 327.592C415.507 327.685 415.554 327.791 415.575 327.904C415.596 328.017 415.593 328.133 415.564 328.244C415.535 328.355 415.481 328.458 415.408 328.546C415.125 328.911 414.731 329.175 414.286 329.298C414.144 329.31 414.001 329.31 413.859 329.298C413.966 329.88 414.147 330.446 414.398 330.981C414.7 331.625 415.076 332.232 415.52 332.787C415.772 332.658 416.03 332.542 416.294 332.44C416.405 332.405 416.522 332.396 416.637 332.415C416.752 332.433 416.86 332.477 416.955 332.545C417.05 332.612 417.127 332.701 417.182 332.803C417.237 332.905 417.267 333.019 417.27 333.135C417.236 333.547 417.13 333.95 416.956 334.325C417.553 334.848 418.204 335.307 418.897 335.693L419.11 335.559C419.266 335.471 419.428 335.393 419.593 335.323L419.884 335.211C420.012 335.175 420.147 335.172 420.276 335.201C420.405 335.231 420.525 335.292 420.625 335.379C420.723 335.47 420.795 335.586 420.835 335.714C420.874 335.842 420.879 335.978 420.849 336.108C420.815 336.246 420.77 336.381 420.715 336.512C421.591 336.827 422.533 336.916 423.452 336.77C423.788 336.07 424.084 335.351 424.339 334.616L423.632 334.425C423.368 334.36 423.136 334.2 422.981 333.977C422.905 333.862 422.853 333.734 422.828 333.599C422.803 333.464 422.805 333.325 422.835 333.191C422.897 332.923 423.063 332.689 423.295 332.541C423.41 332.467 423.539 332.417 423.674 332.394C423.809 332.37 423.947 332.375 424.081 332.406L424.922 332.608C425.2 331.482 425.321 330.323 425.281 329.163H425.214C424.792 329.361 424.391 329.598 424.013 329.87C423.782 329.992 423.514 330.022 423.261 329.955C423.009 329.888 422.791 329.729 422.65 329.509C422.509 329.29 422.456 329.025 422.5 328.768C422.545 328.511 422.684 328.279 422.891 328.12L422.835 328.199Z" fill="#D75337"/>
<path opacity="0.3" d="M422.835 328.199C423.456 327.765 424.126 327.407 424.832 327.133C424.658 326.614 424.396 326.128 424.058 325.697C421.04 321.848 419.682 325.697 417.326 325.753C416.769 325.739 416.214 325.842 415.698 326.054C415.183 326.267 414.717 326.584 414.331 326.987C414.623 327.096 414.908 327.223 415.183 327.368C415.284 327.423 415.372 327.499 415.439 327.592C415.507 327.685 415.554 327.791 415.575 327.904C415.596 328.017 415.593 328.133 415.564 328.244C415.535 328.355 415.481 328.458 415.408 328.546C415.125 328.911 414.731 329.175 414.286 329.298C414.144 329.31 414.001 329.31 413.859 329.298C413.966 329.88 414.147 330.446 414.398 330.981C414.7 331.625 415.076 332.232 415.52 332.787C415.772 332.658 416.03 332.542 416.294 332.44C416.405 332.405 416.522 332.396 416.637 332.415C416.752 332.433 416.86 332.477 416.955 332.545C417.05 332.612 417.127 332.701 417.182 332.803C417.237 332.905 417.267 333.019 417.27 333.135C417.236 333.547 417.13 333.95 416.956 334.325C417.553 334.848 418.204 335.307 418.897 335.693L419.11 335.559C419.266 335.471 419.428 335.393 419.593 335.323L419.884 335.211C420.012 335.175 420.147 335.172 420.276 335.201C420.405 335.231 420.525 335.292 420.625 335.379C420.723 335.47 420.795 335.586 420.835 335.714C420.874 335.842 420.879 335.978 420.849 336.108C420.815 336.246 420.77 336.381 420.715 336.512C421.591 336.827 422.533 336.916 423.452 336.77C423.788 336.07 424.084 335.351 424.339 334.616L423.632 334.425C423.368 334.36 423.136 334.2 422.981 333.977C422.905 333.862 422.853 333.734 422.828 333.599C422.803 333.464 422.805 333.325 422.835 333.191C422.897 332.923 423.063 332.689 423.295 332.541C423.41 332.467 423.539 332.417 423.674 332.394C423.809 332.37 423.947 332.375 424.081 332.406L424.922 332.608C425.2 331.482 425.321 330.323 425.281 329.163H425.214C424.792 329.361 424.391 329.598 424.013 329.87C423.782 329.992 423.514 330.022 423.261 329.955C423.009 329.888 422.791 329.729 422.65 329.509C422.509 329.29 422.456 329.025 422.5 328.768C422.545 328.511 422.684 328.279 422.891 328.12L422.835 328.199Z" fill="white"/>
<path d="M393.988 335.343C393.775 336.791 397.701 337.744 400.91 338.283C400.652 340.908 398.902 343.567 396.422 346.047C393.382 344.342 389.04 342.075 388.243 342.625C387.447 343.175 391.811 346.103 394.594 347.797C392.606 349.527 390.503 351.12 388.299 352.566C386.942 351.287 385.337 350.176 384.395 350.782C383.453 351.388 383.666 353.373 384.159 355.135C380.793 357.065 378.37 358.232 378.37 358.232C377.395 355.16 376.645 352.021 376.126 348.841C376.294 348.515 376.463 348.179 376.608 347.831C377.147 346.597 376.608 346.069 375.745 345.901C375.499 343.665 375.48 341.409 375.688 339.169C379.436 338.384 383.991 336.925 382.286 334.681C381.253 333.324 379.369 333.178 377.416 333.559C377.681 333.111 377.989 332.69 378.336 332.303C385.158 324.786 389.904 332.303 389.904 332.303C393.864 328.993 399.429 329.891 400.63 335.052C398.498 334.401 394.246 333.548 393.988 335.343Z" fill="#D75337"/>
<path opacity="0.5" d="M393.988 335.343C393.775 336.791 397.701 337.744 400.91 338.283C400.652 340.908 398.902 343.567 396.422 346.047C393.382 344.342 389.04 342.075 388.243 342.625C387.447 343.175 391.811 346.103 394.594 347.797C392.606 349.527 390.503 351.12 388.299 352.566C386.942 351.287 385.337 350.176 384.395 350.782C383.453 351.388 383.666 353.373 384.159 355.135C380.793 357.065 378.37 358.232 378.37 358.232C377.395 355.16 376.645 352.021 376.126 348.841C376.294 348.515 376.463 348.179 376.608 347.831C377.147 346.597 376.608 346.069 375.745 345.901C375.499 343.665 375.48 341.409 375.688 339.169C379.436 338.384 383.991 336.925 382.286 334.681C381.253 333.324 379.369 333.178 377.416 333.559C377.681 333.111 377.989 332.69 378.336 332.303C385.158 324.786 389.904 332.303 389.904 332.303C393.864 328.993 399.429 329.891 400.63 335.052C398.498 334.401 394.246 333.548 393.988 335.343Z" fill="white"/>
<path d="M45.609 381.287C45.609 381.287 40.3806 369.877 46.3495 358.623C52.3184 347.37 54.0574 344.722 50.2539 342.422C46.4505 340.122 44.6441 351.398 44.6441 351.398C42.7569 346.288 42.5641 340.706 44.0943 335.477C46.7422 327.343 48.4027 314.081 44.7787 312.656C41.1548 311.231 44.0943 329.194 40.9528 335.32C39.3466 331.024 38.313 326.535 37.8786 321.969C37.4411 315.428 38.1142 304.993 35.2644 302.312C32.4146 299.63 30.5634 301.482 33.3795 315.91C35.0657 324.534 36.0004 333.289 36.1732 342.074C36.1732 342.074 30.0024 323.169 25.8399 322.586C21.6774 322.002 21.6774 328.196 25.2453 333.469C28.8131 338.742 35.6908 348.312 36.8128 353.215C36.8128 353.215 30.0024 338.967 23.8765 343.342C17.7505 347.718 29.2058 356.301 34.322 359.409C39.4382 362.517 42.9724 382.05 42.9724 382.05L45.609 381.287Z" fill="#D75337"/>
<path opacity="0.2" d="M45.609 381.287C45.609 381.287 40.3806 369.877 46.3495 358.623C52.3184 347.37 54.0574 344.722 50.2539 342.422C46.4505 340.122 44.6441 351.398 44.6441 351.398C42.7569 346.288 42.5641 340.706 44.0943 335.477C46.7422 327.343 48.4027 314.081 44.7787 312.656C41.1548 311.231 44.0943 329.194 40.9528 335.32C39.3466 331.024 38.313 326.535 37.8786 321.969C37.4411 315.428 38.1142 304.993 35.2644 302.312C32.4146 299.63 30.5634 301.482 33.3795 315.91C35.0657 324.534 36.0004 333.289 36.1732 342.074C36.1732 342.074 30.0024 323.169 25.8399 322.586C21.6774 322.002 21.6774 328.196 25.2453 333.469C28.8131 338.742 35.6908 348.312 36.8128 353.215C36.8128 353.215 30.0024 338.967 23.8765 343.342C17.7505 347.718 29.2058 356.301 34.322 359.409C39.4382 362.517 42.9724 382.05 42.9724 382.05L45.609 381.287Z" fill="black"/>
<path d="M41.4775 385.967C41.4775 385.967 46.5712 374.478 40.4565 363.315C34.3417 352.151 32.6027 349.537 36.3613 347.169C40.1199 344.802 41.9711 356.089 41.9711 356.089C43.7979 350.959 43.9277 345.378 42.3414 340.168C39.5926 332.068 37.775 318.851 41.3765 317.359C44.978 315.867 42.2628 333.885 45.4829 339.955C47.0318 335.636 48.0087 331.132 48.3888 326.559C48.7478 320.018 47.9512 309.595 50.7786 306.868C53.6059 304.142 55.4572 305.971 52.8206 320.444C51.235 329.088 50.4054 337.854 50.341 346.642C50.341 346.642 56.3211 327.625 60.4387 327.008C64.5564 326.391 64.6685 332.517 61.1568 337.891C57.645 343.265 51.003 352.88 49.9708 357.806C49.9708 357.806 56.6128 343.456 62.7949 347.708C68.9769 351.96 57.6226 360.756 52.5513 363.943C47.48 367.129 44.159 386.663 44.159 386.663L41.4775 385.967Z" fill="#D75337"/>
<path d="M58.6016 380.581H28.2188L30.6871 402.325H56.1445L58.6016 380.581Z" fill="#263238"/>
<path d="M292.086 119.512C292.086 119.512 294.005 130.025 307.906 134.77C307.906 134.77 299.996 127.141 299.996 119.512H292.086Z" fill="#D75337"/>
<path opacity="0.8" d="M292.086 119.512C292.086 119.512 294.005 130.025 307.906 134.77C307.906 134.77 299.996 127.141 299.996 119.512H292.086Z" fill="white"/>
<path d="M311.919 95.793H280.83C279.101 95.793 277.699 97.1944 277.699 98.9233V119.668C277.699 121.397 279.101 122.799 280.83 122.799H311.919C313.648 122.799 315.05 121.397 315.05 119.668V98.9233C315.05 97.1944 313.648 95.793 311.919 95.793Z" fill="#D75337"/>
<path opacity="0.8" d="M311.919 95.793H280.83C279.101 95.793 277.699 97.1944 277.699 98.9233V119.668C277.699 121.397 279.101 122.799 280.83 122.799H311.919C313.648 122.799 315.05 121.397 315.05 119.668V98.9233C315.05 97.1944 313.648 95.793 311.919 95.793Z" fill="white"/>
<path d="M288.837 109.29C288.837 109.701 288.715 110.102 288.487 110.444C288.259 110.785 287.935 111.051 287.556 111.208C287.176 111.365 286.759 111.406 286.356 111.326C285.954 111.246 285.584 111.048 285.293 110.758C285.003 110.468 284.806 110.098 284.725 109.695C284.645 109.293 284.686 108.875 284.844 108.496C285.001 108.117 285.267 107.793 285.608 107.565C285.949 107.337 286.351 107.215 286.761 107.215C287.034 107.215 287.304 107.269 287.556 107.373C287.807 107.477 288.036 107.63 288.229 107.823C288.422 108.016 288.575 108.244 288.679 108.496C288.783 108.748 288.837 109.018 288.837 109.29Z" fill="#D75337"/>
<path d="M296.369 111.366C297.515 111.366 298.444 110.437 298.444 109.29C298.444 108.144 297.515 107.215 296.369 107.215C295.222 107.215 294.293 108.144 294.293 109.29C294.293 110.437 295.222 111.366 296.369 111.366Z" fill="#D75337"/>
<path d="M305.972 111.366C307.118 111.366 308.048 110.437 308.048 109.29C308.048 108.144 307.118 107.215 305.972 107.215C304.826 107.215 303.896 108.144 303.896 109.29C303.896 110.437 304.826 111.366 305.972 111.366Z" fill="#D75337"/>
<path d="M249.336 147.817C249.336 147.817 247.429 158.341 233.527 163.087C233.527 163.087 241.381 155.447 241.381 147.817H249.336Z" fill="#D75337"/>
<path opacity="0.8" d="M249.336 147.817C249.336 147.817 247.429 158.341 233.527 163.087C233.527 163.087 241.381 155.447 241.381 147.817H249.336Z" fill="white"/>
<path d="M229.508 151.139H260.598C262.327 151.139 263.729 149.737 263.729 148.008V127.263C263.729 125.534 262.327 124.133 260.598 124.133H229.508C227.78 124.133 226.378 125.534 226.378 127.263V148.008C226.378 149.737 227.78 151.139 229.508 151.139Z" fill="#D75337"/>
<path opacity="0.8" d="M229.508 151.139H260.598C262.327 151.139 263.729 149.737 263.729 148.008V127.263C263.729 125.534 262.327 124.133 260.598 124.133H229.508C227.78 124.133 226.378 125.534 226.378 127.263V148.008C226.378 149.737 227.78 151.139 229.508 151.139Z" fill="white"/>
<path d="M252.59 137.63C252.588 138.041 252.708 138.443 252.934 138.786C253.161 139.129 253.484 139.397 253.863 139.555C254.242 139.714 254.66 139.757 255.064 139.678C255.467 139.599 255.838 139.403 256.129 139.113C256.421 138.823 256.619 138.453 256.7 138.05C256.781 137.647 256.741 137.229 256.584 136.849C256.427 136.469 256.161 136.145 255.82 135.916C255.478 135.687 255.077 135.565 254.666 135.565C254.117 135.565 253.591 135.783 253.202 136.169C252.813 136.556 252.593 137.081 252.59 137.63Z" fill="#D75337"/>
<path d="M242.951 137.63C242.949 138.041 243.069 138.444 243.296 138.787C243.524 139.13 243.848 139.398 244.227 139.557C244.607 139.715 245.025 139.757 245.429 139.677C245.833 139.598 246.204 139.4 246.495 139.109C246.785 138.818 246.983 138.447 247.063 138.043C247.143 137.64 247.101 137.221 246.942 136.842C246.784 136.462 246.516 136.138 246.173 135.911C245.83 135.683 245.427 135.563 245.016 135.565C244.468 135.565 243.943 135.783 243.556 136.17C243.169 136.557 242.951 137.082 242.951 137.63Z" fill="#D75337"/>
<path d="M233.371 137.63C233.369 138.041 233.489 138.443 233.715 138.786C233.942 139.129 234.266 139.397 234.645 139.555C235.024 139.714 235.441 139.757 235.845 139.678C236.248 139.599 236.619 139.403 236.91 139.113C237.202 138.823 237.401 138.453 237.482 138.05C237.563 137.647 237.522 137.229 237.365 136.849C237.209 136.469 236.943 136.145 236.601 135.916C236.26 135.687 235.858 135.565 235.447 135.565C234.898 135.565 234.372 135.783 233.983 136.169C233.594 136.556 233.374 137.081 233.371 137.63Z" fill="#D75337"/>
<path d="M170.289 113.182C170.289 113.182 168.382 123.694 154.48 128.44C154.48 128.44 162.334 120.811 162.334 113.182H170.289Z" fill="#D75337"/>
<path opacity="0.8" d="M170.289 113.182C170.289 113.182 168.382 123.694 154.48 128.44C154.48 128.44 162.334 120.811 162.334 113.182H170.289Z" fill="white"/>
<path d="M177.417 89.4863H155.64C153.911 89.4863 152.51 90.8878 152.51 92.6166V113.362C152.51 115.091 153.911 116.492 155.64 116.492H177.417C179.146 116.492 180.548 115.091 180.548 113.362V92.6166C180.548 90.8878 179.146 89.4863 177.417 89.4863Z" fill="#D75337"/>
<path opacity="0.8" d="M177.417 89.4863H155.64C153.911 89.4863 152.51 90.8878 152.51 92.6166V113.362C152.51 115.091 153.911 116.492 155.64 116.492H177.417C179.146 116.492 180.548 115.091 180.548 113.362V92.6166C180.548 90.8878 179.146 89.4863 177.417 89.4863Z" fill="white"/>
<path d="M167.88 117.471V117.057C167.888 115.636 168.014 114.503 168.257 113.659C168.509 112.814 168.874 112.132 169.354 111.613C169.833 111.093 170.409 110.622 171.083 110.2C171.586 109.875 172.037 109.538 172.435 109.189C172.833 108.84 173.15 108.454 173.385 108.032C173.62 107.601 173.738 107.122 173.738 106.595C173.738 106.034 173.604 105.543 173.336 105.121C173.068 104.699 172.707 104.374 172.252 104.147C171.806 103.919 171.31 103.805 170.766 103.805C170.239 103.805 169.739 103.923 169.268 104.159C168.797 104.386 168.412 104.727 168.111 105.182C167.811 105.628 167.648 106.185 167.624 106.85H162.655C162.695 105.226 163.085 103.887 163.824 102.831C164.563 101.767 165.541 100.976 166.759 100.456C167.977 99.9283 169.321 99.6644 170.791 99.6644C172.407 99.6644 173.836 99.9324 175.078 100.468C176.32 100.996 177.295 101.763 178.001 102.77C178.707 103.777 179.061 104.991 179.061 106.412C179.061 107.362 178.902 108.206 178.586 108.945C178.277 109.676 177.843 110.326 177.282 110.894C176.722 111.454 176.06 111.962 175.297 112.416C174.656 112.798 174.128 113.196 173.714 113.61C173.308 114.024 173.003 114.503 172.8 115.047C172.605 115.591 172.504 116.261 172.496 117.057V117.471H167.88ZM170.291 125.266C169.479 125.266 168.785 124.982 168.209 124.413C167.64 123.837 167.36 123.147 167.368 122.343C167.36 121.547 167.64 120.865 168.209 120.297C168.785 119.728 169.479 119.444 170.291 119.444C171.063 119.444 171.741 119.728 172.325 120.297C172.91 120.865 173.206 121.547 173.214 122.343C173.206 122.879 173.064 123.37 172.788 123.817C172.52 124.255 172.167 124.608 171.729 124.876C171.29 125.136 170.811 125.266 170.291 125.266Z" fill="#D75337"/>
<path d="M320.959 164.736C319.397 164.141 317.662 164.189 316.135 164.871C314.608 165.552 313.414 166.811 312.814 168.372V168.439C311.692 171.311 310.57 174.329 309.448 177.258C308.326 180.186 307.114 183.126 305.902 186.009C304.691 188.892 303.4 191.72 302.065 194.424C301.403 195.77 300.685 197.083 299.99 198.317C299.664 198.867 299.328 199.439 299.002 199.888C298.722 199.506 298.441 199.091 298.161 198.665C297.207 197.195 296.287 195.579 295.378 193.919C294.47 192.258 293.572 190.553 292.697 188.892L292.629 188.769C292.279 188.126 291.717 187.625 291.038 187.35C290.359 187.076 289.606 187.045 288.908 187.263C288.209 187.482 287.608 187.936 287.206 188.548C286.804 189.16 286.628 189.892 286.705 190.62C286.958 192.697 287.333 194.758 287.827 196.791C288.32 198.862 288.943 200.901 289.69 202.895C290.108 203.967 290.583 205.015 291.115 206.036C291.736 207.254 292.512 208.385 293.426 209.402C294.074 210.138 294.831 210.769 295.67 211.276C296.971 212.095 298.486 212.509 300.023 212.465C300.908 212.432 301.78 212.25 302.604 211.926C303.289 211.631 303.937 211.254 304.534 210.804C305.177 210.313 305.764 209.753 306.284 209.133C307.605 207.704 308.817 206.178 309.908 204.566L310.155 204.196C311.086 202.816 311.905 201.447 312.69 200.067C314.418 197.072 315.922 194.065 317.335 191.092C317.851 189.97 318.356 188.848 318.839 187.726C319.703 185.796 320.51 183.855 321.296 181.903C322.507 178.806 323.697 175.788 324.763 172.568C325.257 171.024 325.138 169.349 324.429 167.89C323.721 166.432 322.478 165.303 320.959 164.736Z" fill="#263238"/>
<path opacity="0.2" d="M318.759 187.772C318.277 188.894 317.772 190.016 317.256 191.138C315.842 194.167 314.338 197.174 312.611 200.114C311.825 201.494 311.006 202.862 310.075 204.242C308.426 195.076 314.17 184.137 314.17 184.137C315.741 184.428 317.312 185.775 318.759 187.772Z" fill="black"/>
<path d="M362.47 199.754C362.47 201.392 362.335 203.12 362.245 204.814C361.965 209.953 361.483 215.574 360.753 221.644C360.521 223.663 360.256 225.739 359.957 227.871L312.273 228.69C309.951 222.339 307.864 208.64 314.394 196.725C314.394 189.107 312.52 180.669 312.284 172.513C312.138 167.408 316.57 162.718 322.618 161.652C331.884 160.12 341.302 159.709 350.667 160.429C355.805 160.777 359.856 163.862 360.652 168.137C361.432 172.554 361.964 177.012 362.245 181.488C362.56 186.593 362.706 192.674 362.47 199.754Z" fill="#263238"/>
<path d="M327.5 160.048C326.382 160.564 325.498 161.481 325.023 162.617C324.547 163.753 324.514 165.026 324.931 166.185C325.382 167.864 326.251 169.402 327.458 170.654C328.665 171.906 330.169 172.831 331.831 173.343C333.75 173.747 345.126 167.733 346.551 162.404C347.976 157.074 327.5 160.048 327.5 160.048Z" fill="#D75337"/>
<path opacity="0.5" d="M327.5 160.048C326.382 160.564 325.498 161.481 325.023 162.617C324.547 163.753 324.514 165.026 324.931 166.185C325.382 167.864 326.251 169.402 327.458 170.654C328.665 171.906 330.169 172.831 331.831 173.343C333.75 173.747 345.126 167.733 346.551 162.404C347.976 157.074 327.5 160.048 327.5 160.048Z" fill="white"/>
<path opacity="0.2" d="M362.249 204.779C361.968 209.918 361.486 215.539 360.756 221.609C355.147 221.497 346.799 220.812 344.791 217.805C341.717 213.194 344.163 210.456 344.163 210.456C344.163 210.456 357.301 207.562 362.249 204.779Z" fill="black"/>
<path opacity="0.2" d="M362.471 199.753C356.435 193.672 354.887 175.069 354.887 175.069C354.887 175.069 358.376 177.784 362.224 181.498C362.561 186.592 362.707 192.673 362.471 199.753Z" fill="black"/>
<path d="M289.277 194.446L280.301 191.866L286.797 184.146C286.797 184.146 294.37 186.39 293.159 191.091L289.277 194.446Z" fill="#FF8B7B"/>
<path d="M277.404 186.189L279.648 182.633C279.833 182.329 280.077 182.067 280.366 181.861C280.655 181.654 280.983 181.508 281.33 181.432C281.677 181.355 282.036 181.35 282.385 181.415C282.734 181.481 283.066 181.616 283.361 181.814L286.851 184.147L280.354 191.866L277.875 189.465C277.432 189.056 277.144 188.507 277.058 187.911C276.972 187.314 277.094 186.706 277.404 186.189Z" fill="#FF8B7B"/>
<path d="M311.991 397.21L321.056 397.356C321.22 397.354 321.379 397.413 321.503 397.52C321.627 397.628 321.707 397.777 321.729 397.939L322.851 405.355C322.877 405.539 322.863 405.726 322.81 405.903C322.757 406.08 322.666 406.244 322.543 406.383C322.42 406.521 322.269 406.632 322.099 406.706C321.93 406.781 321.746 406.817 321.561 406.814C318.285 406.702 313.573 406.444 309.455 406.376C304.642 406.298 305.124 406.5 299.481 406.376C296.115 406.376 295.352 402.853 296.799 402.562C303.385 401.249 304.058 401.17 309.893 397.793C310.527 397.415 311.252 397.213 311.991 397.21Z" fill="#263238"/>
<path d="M325.636 310.246C335.734 267.791 345.405 249.368 341.579 228.343L312.262 228.691C312.262 228.691 300.706 286.438 303.163 311.335C305.721 337.23 309.457 397.491 309.457 397.491L322.842 397.681C322.842 397.681 330.64 339.204 325.636 310.246Z" fill="#D75337"/>
<path opacity="0.3" d="M325.636 310.246C335.734 267.791 345.405 249.368 341.579 228.343L312.262 228.691C312.262 228.691 300.706 286.438 303.163 311.335C305.721 337.23 309.457 397.491 309.457 397.491L322.842 397.681C322.842 397.681 330.64 339.204 325.636 310.246Z" fill="black"/>
<path opacity="0.2" d="M327.094 304.231C332.513 282.588 337.596 267.543 340.322 254.932C321.283 261.776 322.909 285.494 327.094 304.231Z" fill="black"/>
<path d="M357.689 397.208L366.755 397.354C366.914 397.356 367.068 397.416 367.186 397.524C367.303 397.631 367.378 397.778 367.394 397.937L368.191 405.353C368.205 405.541 368.18 405.729 368.117 405.907C368.054 406.084 367.956 406.246 367.827 406.383C367.698 406.521 367.542 406.63 367.369 406.703C367.196 406.777 367.01 406.814 366.822 406.812C363.557 406.7 362.536 406.442 358.418 406.374C353.616 406.296 355.827 406.498 350.194 406.374C346.829 406.374 346.245 402.874 347.704 402.56C352.315 401.595 353.527 399.755 355.614 397.791C356.209 397.345 356.949 397.137 357.689 397.208Z" fill="#263238"/>
<path d="M356.637 310.244C361.192 267.789 366.555 248.895 360.003 227.847L329.44 228.666C329.44 228.666 328.61 286.413 334.343 311.31C340.312 337.205 354.236 397.466 354.236 397.466L367.699 397.657C367.699 397.657 365.444 339.202 356.637 310.244Z" fill="#D75337"/>
<path opacity="0.3" d="M356.637 310.244C361.192 267.789 366.555 248.895 360.003 227.847L329.44 228.666C329.44 228.666 328.61 286.413 334.343 311.31C340.312 337.205 354.236 397.466 354.236 397.466L367.699 397.657C367.699 397.657 365.444 339.202 356.637 310.244Z" fill="black"/>
<path d="M340.615 148.75C340.615 153.631 340.907 159.341 344.901 162.775C342.657 165.77 338.36 170.359 332.133 169.563C325.278 168.687 326.602 162.46 328.117 160.508C331.483 158.567 330.551 155.65 330.17 153.619L340.615 148.75Z" fill="#FF8B7B"/>
<path opacity="0.2" d="M338.318 150.745C338.318 150.442 338.318 150.128 338.318 149.825L330.184 153.617C330.583 154.984 330.66 156.424 330.408 157.825C334.312 156.636 338.228 153.696 338.318 150.745Z" fill="black"/>
<path d="M344.686 135.217C343.643 143.396 343.452 148.232 339.02 152.147C332.367 158.026 322.46 153.505 321.069 145.157C319.79 137.651 321.708 125.534 329.966 122.864C331.793 122.277 333.74 122.163 335.623 122.533C337.507 122.902 339.266 123.743 340.736 124.977C342.206 126.211 343.34 127.797 344.03 129.588C344.721 131.379 344.947 133.315 344.686 135.217Z" fill="#FF8B7B"/>
<path d="M331.582 136.901C331.582 137.574 331.145 138.09 330.707 138.023C330.27 137.955 329.955 137.417 330 136.755C330.045 136.093 330.427 135.565 330.864 135.633C331.302 135.7 331.638 136.239 331.582 136.901Z" fill="#263238"/>
<path d="M323.223 136.541C323.223 137.214 322.796 137.73 322.359 137.663C321.921 137.596 321.596 137.057 321.641 136.395C321.686 135.733 322.078 135.206 322.516 135.273C322.954 135.341 323.268 135.868 323.223 136.541Z" fill="#263238"/>
<path d="M325.662 137.394C324.609 139.316 323.295 141.083 321.758 142.644C322.169 143.03 322.658 143.322 323.193 143.501C323.727 143.679 324.294 143.739 324.854 143.677L325.662 137.394Z" fill="#FF5652"/>
<path d="M333.108 132.459C333.175 132.446 333.239 132.424 333.299 132.391C333.385 132.332 333.445 132.242 333.466 132.139C333.487 132.037 333.468 131.93 333.411 131.842C333.08 131.309 332.626 130.863 332.088 130.541C331.549 130.219 330.941 130.03 330.315 129.99C330.263 129.989 330.211 129.998 330.163 130.017C330.114 130.036 330.07 130.065 330.034 130.102C329.997 130.139 329.968 130.183 329.949 130.231C329.93 130.279 329.92 130.331 329.922 130.383C329.922 130.435 329.932 130.486 329.952 130.533C329.972 130.581 330.001 130.624 330.037 130.661C330.074 130.697 330.117 130.726 330.164 130.746C330.212 130.766 330.263 130.776 330.315 130.776C330.811 130.815 331.29 130.972 331.714 131.233C332.137 131.494 332.492 131.853 332.749 132.279C332.79 132.336 332.844 132.383 332.906 132.414C332.969 132.445 333.038 132.461 333.108 132.459Z" fill="#263238"/>
<path d="M320.687 133.13C320.749 133.143 320.814 133.14 320.875 133.12C320.936 133.101 320.991 133.065 321.034 133.018C321.367 132.654 321.782 132.374 322.244 132.202C322.707 132.031 323.204 131.972 323.693 132.031C323.744 132.041 323.797 132.04 323.847 132.03C323.898 132.019 323.946 131.999 323.989 131.97C324.032 131.94 324.068 131.903 324.096 131.86C324.125 131.816 324.144 131.768 324.153 131.717C324.163 131.666 324.163 131.614 324.152 131.563C324.142 131.512 324.121 131.464 324.092 131.421C324.063 131.379 324.025 131.342 323.982 131.314C323.939 131.286 323.89 131.266 323.839 131.257C323.222 131.173 322.594 131.24 322.008 131.45C321.422 131.661 320.896 132.011 320.473 132.469C320.436 132.505 320.406 132.549 320.386 132.597C320.366 132.645 320.355 132.697 320.355 132.749C320.355 132.801 320.366 132.853 320.386 132.901C320.406 132.949 320.436 132.993 320.473 133.03C320.53 133.087 320.606 133.123 320.687 133.13Z" fill="#263238"/>
<path d="M325.457 145.315C326.259 146.351 326.986 147.442 327.634 148.58L328.284 148.333C331.213 147.211 332.2 145.73 332.413 144.418C332.53 143.408 332.292 142.388 331.74 141.534C330.54 143.049 327.892 144.305 326.444 144.9C325.85 145.203 325.457 145.315 325.457 145.315Z" fill="#263238"/>
<path d="M326.447 144.944L327.12 145.887C329.869 144.821 331.676 143.699 332.214 142.521C332.1 142.177 331.942 141.848 331.743 141.545C330.542 143.071 327.895 144.327 326.447 144.944Z" fill="white"/>
<path d="M328.283 148.356C331.212 147.234 332.199 145.753 332.412 144.44C331.306 144.89 330.287 145.532 329.405 146.337C328.827 146.874 328.434 147.581 328.283 148.356Z" fill="#DE5753"/>
<path d="M325.119 126.175C325.119 126.175 322.684 124.761 324.165 121.193C325.646 117.625 339.749 120.228 345.92 125.681C352.091 131.134 343.923 141.557 343.923 141.557L340.142 143.689C340.142 143.689 336.507 135.274 339.02 129.103C337.488 127.97 335.892 126.925 334.241 125.973C333.197 125.513 328.384 128.565 325.119 126.175Z" fill="#263238"/>
<path d="M346.944 143.79C345.825 145.533 344.063 146.763 342.041 147.212C339.36 147.773 338.171 145.327 339.046 142.882C339.831 140.638 342.187 137.732 344.824 138.259C345.397 138.385 345.931 138.651 346.376 139.034C346.822 139.417 347.165 139.905 347.375 140.453C347.585 141.001 347.656 141.594 347.581 142.176C347.506 142.759 347.287 143.313 346.944 143.79Z" fill="#FF8B7B"/>
<path d="M377.158 203.265C377.158 202.917 377.158 202.446 377.09 202.289L376.945 200.965C376.821 200.101 376.698 199.226 376.529 198.396C375.14 192.013 372.914 185.841 369.91 180.041C368.485 177.213 366.981 174.431 365.343 171.783C364.536 170.437 363.705 169.113 362.841 167.8C361.977 166.487 361.125 165.231 360.115 163.839C359.127 162.534 357.67 161.663 356.051 161.413C354.433 161.163 352.781 161.552 351.444 162.498C350.108 163.443 349.192 164.872 348.89 166.482C348.588 168.091 348.924 169.755 349.827 171.121L349.883 171.222C350.612 172.277 351.431 173.544 352.194 174.722C352.957 175.901 353.742 177.146 354.438 178.369C355.919 180.837 357.377 183.294 358.713 185.807C361.41 190.592 363.559 195.666 365.119 200.932C365.31 201.56 365.422 202.166 365.568 202.783L365.736 203.692C365.736 203.905 365.736 203.815 365.736 203.838C365.736 203.838 365.826 203.692 365.86 203.737C365.893 203.781 365.86 203.95 365.646 204.185C365.023 204.875 364.282 205.449 363.459 205.879C362.383 206.514 361.257 207.058 360.093 207.506C357.488 208.503 354.824 209.335 352.115 209.997C350.724 210.334 349.322 210.693 347.897 211.007C346.472 211.321 345.013 211.59 343.656 211.871H343.476C342.721 212.011 342.044 212.424 341.574 213.031C341.103 213.638 340.873 214.397 340.925 215.163C340.978 215.929 341.31 216.649 341.859 217.186C342.408 217.723 343.136 218.04 343.903 218.075C350.29 218.571 356.715 218.132 362.976 216.774C364.683 216.373 366.356 215.841 367.98 215.181C369.913 214.394 371.7 213.286 373.264 211.904C374.264 211.012 375.106 209.958 375.755 208.785C376.503 207.427 376.947 205.923 377.057 204.376C377.147 204.028 377.18 203.658 377.158 203.265Z" fill="#263238"/>
<path d="M342.141 158.062C342.343 159.959 340.076 166.679 332.133 169.563C335.196 169.563 336.531 173.467 336.531 173.467C336.531 173.467 347.066 167.857 345.81 161.125C345.652 160.267 345.199 159.49 344.529 158.931C343.859 158.371 343.014 158.064 342.141 158.062Z" fill="#D75337"/>
<path d="M329.664 158.577C329.866 160.428 327.712 164.333 332.132 169.561C329.058 169.561 327.229 172.635 327.229 172.635C326.045 170.787 325.345 168.671 325.192 166.481C325.039 164.291 325.439 162.098 326.354 160.103C327.276 159.269 328.431 158.737 329.664 158.577Z" fill="#D75337"/>
<path d="M311.671 226.858L311.391 233.286L361.094 231.94L360.275 225.522L311.671 226.858Z" fill="#D75337"/>
<path opacity="0.3" d="M311.671 226.858L311.391 233.286L361.094 231.94L360.275 225.522L311.671 226.858Z" fill="black"/>
<path d="M356.221 230.158L361.09 230.068L360.439 226.837L356.221 226.927V230.158Z" fill="#263238"/>
<path d="M354.897 226.95L337.305 227.332V230.518L354.897 230.181V226.95Z" fill="#263238"/>
<path d="M315.228 227.791L311.391 227.881V230.989L315.228 230.921V227.791Z" fill="#263238"/>
<path d="M316.359 227.769V230.899L335.579 230.54V227.365L316.359 227.769Z" fill="#263238"/>
<path d="M326.802 231.505H322.673C322.416 231.505 322.17 231.404 321.987 231.223C321.804 231.042 321.7 230.797 321.697 230.54V228.094C321.697 227.839 321.797 227.594 321.975 227.412C322.153 227.229 322.396 227.124 322.651 227.118L326.78 227.028C327.041 227.037 327.291 227.136 327.487 227.309C327.579 227.4 327.652 227.508 327.702 227.627C327.752 227.747 327.778 227.875 327.778 228.004V230.585C327.764 230.834 327.655 231.068 327.473 231.239C327.292 231.41 327.052 231.505 326.802 231.505ZM322.729 228.139V230.585L326.802 230.518L326.746 228.049L322.729 228.139Z" fill="white"/>
<path d="M326.365 229.789H325.165C325.029 229.786 324.899 229.731 324.803 229.635C324.707 229.539 324.651 229.409 324.648 229.273C324.648 229.136 324.703 229.005 324.8 228.908C324.896 228.811 325.028 228.757 325.165 228.757H326.365C326.433 228.755 326.501 228.768 326.564 228.793C326.628 228.819 326.685 228.856 326.733 228.905C326.782 228.953 326.82 229.01 326.845 229.074C326.87 229.137 326.883 229.205 326.881 229.273C326.881 229.41 326.827 229.541 326.73 229.638C326.633 229.735 326.502 229.789 326.365 229.789Z" fill="white"/>
<path d="M329.945 217.85H338.326L339.852 202.928H328.408L329.945 217.85Z" fill="#D75337"/>
<path d="M327.79 203.546H340.469V202.042H327.79V203.546Z" fill="white"/>
<path d="M330.348 209.951C330.444 210.536 330.706 211.082 331.103 211.523C331.499 211.964 332.014 212.283 332.585 212.441C333.157 212.599 333.762 212.591 334.329 212.416C334.896 212.241 335.401 211.908 335.785 211.456C336.169 211.003 336.415 210.45 336.494 209.862C336.574 209.274 336.483 208.676 336.234 208.138C335.984 207.6 335.586 207.144 335.085 206.825C334.585 206.506 334.004 206.337 333.411 206.338C332.527 206.415 331.71 206.838 331.136 207.514C330.563 208.191 330.28 209.066 330.348 209.951Z" fill="white"/>
<path d="M347.529 211.432L339.529 208.829L339.227 218.927C339.227 218.927 346.755 220.408 348.202 216.526L347.529 211.432Z" fill="#FF8B7B"/>
<path d="M331.705 212.734L332.188 216.291C332.283 216.975 332.619 217.604 333.134 218.064C333.65 218.524 334.313 218.787 335.004 218.804L339.222 218.916L339.525 208.818L334.252 209.435C333.866 209.48 333.493 209.601 333.154 209.791C332.816 209.982 332.519 210.239 332.282 210.547C332.044 210.854 331.871 211.206 331.772 211.582C331.673 211.958 331.65 212.349 331.705 212.734Z" fill="#FF8B7B"/>
<path opacity="0.7" d="M342.141 158.062C342.343 159.959 340.076 166.679 332.133 169.563C335.196 169.563 336.531 173.467 336.531 173.467C336.531 173.467 347.066 167.857 345.81 161.125C345.652 160.267 345.199 159.49 344.529 158.931C343.859 158.371 343.014 158.064 342.141 158.062Z" fill="white"/>
<path opacity="0.7" d="M329.664 158.577C329.866 160.428 327.712 164.333 332.132 169.561C329.058 169.561 327.229 172.635 327.229 172.635C326.045 170.787 325.345 168.671 325.192 166.481C325.039 164.291 325.439 162.098 326.354 160.103C327.276 159.269 328.431 158.737 329.664 158.577Z" fill="white"/>
<path d="M267.319 211.58L275.857 210.458L272.222 203.03C272.222 203.03 264.368 205.33 264.593 207.877L267.319 211.58Z" fill="#FFC8B7"/>
<path d="M280.196 204.143L276.325 199.633L272.219 203.077L275.854 210.505L280.196 204.143Z" fill="#FFC8B7"/>
<path d="M225.165 198.172C225.165 198.172 231.055 212.668 240.614 217.952C250.173 223.237 268.17 211.58 268.17 211.58L265.387 206.43C265.387 206.43 245.573 211.288 244.754 210.547C243.935 209.807 235.072 185.864 223.729 182.633L225.165 198.172Z" fill="#D75337"/>
<path opacity="0.7" d="M268.181 211.591C268.181 211.591 250.229 223.248 240.614 217.952C237.431 216.055 234.654 213.546 232.446 210.57C229.512 206.777 227.065 202.631 225.165 198.228L223.773 182.678C235.105 185.875 243.969 209.863 244.799 210.604C245.629 211.344 265.387 206.43 265.387 206.43L268.181 211.591Z" fill="#D8AEAE"/>
<path opacity="0.1" d="M232.447 210.57C230.572 208.175 228.909 205.623 227.477 202.94C227.601 200.928 228.213 198.975 229.26 197.252C229.26 197.252 233.221 201.975 232.447 210.57Z" fill="black"/>
<path d="M195.939 142.837C195.939 142.837 202.446 133.984 214.17 140.593C229.194 148.985 220.454 188.22 220.454 188.22L194.648 192.405C194.648 192.405 178.929 146.214 195.939 142.837Z" fill="#263238"/>
<path d="M228.812 233.705C228.812 233.705 234.5 277.933 233.996 306.027C235.97 332.371 237.631 387.662 240.615 393.63C240.514 394.977 235.634 395.246 234.366 394.438C234.366 394.438 214.866 348.797 217.536 306.027C199.439 261.418 200.516 233.705 200.516 233.705H228.812Z" fill="#FFC8B7"/>
<path d="M221.104 233.705C221.104 233.705 208.167 283.633 203.04 308.148C197.666 333.886 192.146 364.987 192.067 394.27C190.631 395.123 189.026 396.379 186.109 395.482C186.109 395.482 173.51 336.848 185.122 309.281C180.028 248.291 196.162 233.705 196.162 233.705H221.104Z" fill="#FFC8B7"/>
<path d="M195.94 232.56L228.376 237.048C228.768 230.17 231.944 196.208 231.843 193.212C231.652 187.603 226.951 182.733 220.993 181.993C219.344 181.78 217.627 181.578 215.955 181.443C210.849 181.095 205.725 181.095 200.618 181.443C199.16 181.51 197.746 181.622 196.411 181.746C191.407 182.228 187.951 186.817 189.679 191.372C191.856 197.083 195.244 227.982 195.94 232.56Z" fill="#D75337"/>
<path opacity="0.7" d="M231.842 193.191C231.932 196.198 228.768 230.149 228.375 237.038L195.939 232.55C195.86 232.045 195.759 231.248 195.625 230.216C195.221 227.041 194.57 221.622 193.818 215.765C193.493 213.342 193.168 210.828 192.809 208.382C192.18 203.895 191.53 199.642 190.913 196.389C190.624 194.662 190.208 192.96 189.667 191.295C187.951 186.717 191.395 182.128 196.399 181.657C197.734 181.534 199.148 181.433 200.606 181.354C205.709 181.017 210.829 181.017 215.932 181.354C217.604 181.5 219.298 181.702 220.981 181.915C226.95 182.712 231.662 187.592 231.842 193.191Z" fill="#D8AEAE"/>
<path d="M201.691 164.133C203.026 169.069 204.664 178.113 201.455 181.4C201.455 181.4 199.155 185.731 212.181 185.327C213.303 188.042 215.547 193.012 215.547 193.012C215.547 193.012 215.704 187.167 214.807 185.158C223.177 184.44 216.826 181.366 216.826 181.366C211.217 180.054 211.06 175.97 211.733 172.132L201.691 164.133Z" fill="#FFC8B7"/>
<path opacity="0.2" d="M205.777 167.408L211.701 172.165C211.524 173.063 211.433 173.976 211.432 174.892C209.3 174.589 206.249 172.278 205.822 170.078C205.643 169.199 205.628 168.293 205.777 167.408Z" fill="black"/>
<path d="M197.095 155.55C198.509 163.067 198.958 166.265 203.266 169.867C209.762 175.274 218.671 172.413 219.524 164.762C220.287 157.873 217.841 146.754 210.054 144.274C208.407 143.679 206.63 143.534 204.908 143.855C203.186 144.177 201.581 144.952 200.26 146.102C198.938 147.252 197.948 148.735 197.392 150.396C196.835 152.057 196.733 153.836 197.095 155.55Z" fill="#FFC8B7"/>
<path d="M203.59 150.13C199.416 155.481 207.988 161.63 199.416 161.271C190.844 160.912 194.334 148.929 199.416 146.169C204.499 143.409 203.59 150.13 203.59 150.13Z" fill="#263238"/>
<path d="M199.451 146.258C200.573 151.375 201.347 152.71 205.936 151.319C205.252 150.291 204.951 149.056 205.083 147.829C205.541 149.062 206.458 150.071 207.642 150.645C208.874 150.137 210.156 149.761 211.467 149.523C211.217 148.804 211.14 148.035 211.243 147.279C211.604 148.128 212.204 148.853 212.971 149.366C214.381 149.39 215.778 149.636 217.111 150.096C217.145 144.688 207.888 138.876 199.451 146.258Z" fill="#263238"/>
<path d="M209.065 156.805C209.155 157.444 209.57 157.926 209.974 157.926C210.378 157.926 210.647 157.354 210.546 156.715C210.445 156.075 210.053 155.593 209.637 155.593C209.222 155.593 208.975 156.165 209.065 156.805Z" fill="#263238"/>
<path d="M216.781 156.358C216.882 156.986 217.286 157.48 217.69 157.48C218.094 157.48 218.363 156.919 218.273 156.279C218.183 155.64 217.768 155.157 217.364 155.157C216.96 155.157 216.691 155.718 216.781 156.358Z" fill="#263238"/>
<path d="M217.143 155.2L218.579 154.65C218.579 154.65 218.029 155.896 217.143 155.2Z" fill="#263238"/>
<path d="M214.785 157.558C215.557 158.968 216.507 160.272 217.613 161.44C217.317 161.695 216.968 161.881 216.592 161.984C216.215 162.087 215.82 162.104 215.436 162.034L214.785 157.558Z" fill="#ED893E"/>
<path d="M196.354 162.796C196.669 163.459 197.117 164.049 197.672 164.53C198.226 165.011 198.873 165.372 199.574 165.59C201.335 166.05 202.098 164.053 201.515 162.045C200.976 160.249 199.428 157.837 197.711 158.275C195.995 158.712 195.467 161.024 196.354 162.796Z" fill="#FFC8B7"/>
<path d="M206.911 153.395C207.009 153.393 207.101 153.353 207.169 153.283C207.47 152.936 207.852 152.67 208.281 152.508C208.709 152.345 209.172 152.291 209.626 152.352C209.674 152.36 209.722 152.358 209.769 152.347C209.815 152.336 209.859 152.316 209.898 152.288C209.937 152.259 209.969 152.224 209.994 152.183C210.019 152.142 210.035 152.096 210.042 152.049C210.049 151.949 210.021 151.849 209.961 151.769C209.901 151.689 209.814 151.633 209.716 151.611C209.146 151.524 208.562 151.581 208.02 151.777C207.477 151.973 206.991 152.301 206.608 152.733C206.573 152.768 206.546 152.809 206.527 152.854C206.508 152.899 206.498 152.948 206.498 152.997C206.498 153.046 206.508 153.094 206.527 153.14C206.546 153.185 206.573 153.226 206.608 153.26C206.645 153.304 206.692 153.339 206.744 153.362C206.797 153.386 206.854 153.397 206.911 153.395Z" fill="#263238"/>
<path d="M218.523 152.712C218.617 152.717 218.71 152.685 218.781 152.622C218.816 152.587 218.844 152.546 218.863 152.501C218.882 152.456 218.891 152.407 218.891 152.358C218.891 152.309 218.882 152.261 218.863 152.215C218.844 152.17 218.816 152.129 218.781 152.095C218.391 151.631 217.9 151.262 217.346 151.017C216.792 150.772 216.189 150.657 215.583 150.681C215.535 150.686 215.489 150.701 215.447 150.726C215.405 150.75 215.369 150.782 215.34 150.822C215.312 150.861 215.292 150.905 215.281 150.952C215.271 151 215.271 151.049 215.28 151.096C215.302 151.194 215.358 151.281 215.438 151.341C215.519 151.4 215.618 151.429 215.718 151.421C216.196 151.409 216.67 151.504 217.107 151.698C217.543 151.892 217.931 152.181 218.242 152.543C218.275 152.589 218.317 152.628 218.365 152.657C218.413 152.686 218.467 152.705 218.523 152.712Z" fill="#263238"/>
<path d="M209.471 155.65L210.907 155.101C210.907 155.101 210.312 156.346 209.471 155.65Z" fill="#263238"/>
<path d="M214.954 165.073C214.318 165.895 213.74 166.761 213.227 167.665L212.71 167.474C210.377 166.577 209.603 165.399 209.434 164.366C209.361 163.856 209.415 163.336 209.591 162.852C209.679 162.573 209.808 162.308 209.973 162.066C211.16 163.258 212.592 164.177 214.169 164.759C214.64 164.961 214.954 165.073 214.954 165.073Z" fill="#263238"/>
<path d="M214.167 164.759L213.64 165.511C211.452 164.669 210.016 163.772 209.59 162.852C209.678 162.573 209.806 162.308 209.971 162.066C211.158 163.258 212.59 164.177 214.167 164.759Z" fill="white"/>
<path d="M212.71 167.475C210.376 166.577 209.602 165.399 209.434 164.367C210.313 164.718 211.122 165.223 211.823 165.859C212.279 166.293 212.589 166.858 212.71 167.475Z" fill="#DE5753"/>
<path d="M212.812 179.402C212.812 179.402 215.281 182.05 214.776 185.192L220.453 186.392C220.162 184.533 219.247 182.828 217.858 181.558C216.47 180.287 214.69 179.527 212.812 179.402Z" fill="#D75337"/>
<path d="M212.184 185.326C212.184 185.326 204.577 180.95 202.883 178.594L199.517 181.141C199.517 181.141 198.451 185.112 203.051 188.68L212.184 185.326Z" fill="#D75337"/>
<path opacity="0.6" d="M212.812 179.402C212.812 179.402 215.281 182.05 214.776 185.192L220.453 186.392C220.162 184.533 219.247 182.828 217.858 181.558C216.47 180.287 214.69 179.527 212.812 179.402Z" fill="white"/>
<path opacity="0.6" d="M212.184 185.326C212.184 185.326 204.577 180.95 202.883 178.594L199.517 181.141C199.517 181.141 198.451 185.112 203.051 188.68L212.184 185.326Z" fill="white"/>
<path d="M233.378 406.407H235.095L235.555 404.343L241.108 406.822H255.167C255.167 406.822 257.411 404.578 250.679 402.794C250.349 402.709 250.029 402.589 249.725 402.435C246.157 400.775 241.052 395.143 241.052 395.143H233.344C233.111 395.503 232.901 395.877 232.716 396.265C231.852 397.925 230.405 401.493 233.378 406.407Z" fill="#263238"/>
<path d="M232.695 396.233C233.705 395.111 238.361 400.059 241.761 401.741C244.79 403.245 248.201 403.896 249.704 402.359C246.136 400.698 240.493 393.383 240.493 393.383H234.289C234.289 393.383 233.054 395.515 232.695 396.233Z" fill="#FFC8B7"/>
<path d="M184.763 406.407H186.446L186.906 404.343L192.46 406.822H206.518C206.518 406.822 208.762 404.578 202.03 402.794C201.701 402.709 201.381 402.589 201.077 402.435C197.509 400.775 192.404 395.143 192.404 395.143H184.696C184.463 395.503 184.253 395.877 184.068 396.265C183.238 397.925 181.801 401.493 184.763 406.407Z" fill="#263238"/>
<path d="M184.078 396.233C185.088 395.111 189.744 400.059 193.144 401.741C196.184 403.245 199.584 403.896 201.087 402.359C197.519 400.698 191.876 393.383 191.876 393.383H185.671C185.671 393.383 184.437 395.515 184.078 396.233Z" fill="#FFC8B7"/>
<path d="M182.911 299.473C183.768 300.418 184.781 301.207 185.907 301.806C186.064 296.197 187.691 293.526 187.691 293.526C187.413 296.751 187.709 299.999 188.566 303.119C197.194 306.766 213.833 309.167 234.634 304.073C234.634 279.67 229.81 238.606 229.473 234.601C229.473 234.601 204.79 235.251 194.782 235.251C183.82 248.322 180.869 290.284 182.911 299.473Z" fill="#263238"/>
<path opacity="0.2" d="M182.911 299.473C183.768 300.418 184.781 301.207 185.907 301.806C186.064 296.197 187.691 293.526 187.691 293.526C187.413 296.751 187.709 299.999 188.566 303.119C197.194 306.766 213.833 309.167 234.634 304.073C234.634 279.67 229.81 238.606 229.473 234.601C229.473 234.601 204.79 235.251 194.782 235.251C183.82 248.322 180.869 290.284 182.911 299.473Z" fill="white"/>
<path d="M229.284 236.117C217.723 237.366 206.059 237.344 194.503 236.05C194.378 236.038 194.258 235.994 194.154 235.924C194.049 235.854 193.964 235.759 193.905 235.648C193.846 235.537 193.816 235.414 193.816 235.288C193.817 235.162 193.848 235.039 193.908 234.928L194.75 232.976C194.807 232.831 194.911 232.708 195.045 232.627C195.178 232.546 195.335 232.511 195.49 232.527C206.592 233.716 217.789 233.716 228.891 232.527C228.989 232.518 229.087 232.528 229.18 232.557C229.274 232.586 229.36 232.633 229.435 232.695C229.51 232.758 229.572 232.835 229.618 232.922C229.663 233.008 229.691 233.103 229.699 233.2L229.901 235.231C229.919 235.33 229.917 235.431 229.895 235.529C229.874 235.627 229.834 235.72 229.776 235.802C229.719 235.885 229.646 235.955 229.561 236.009C229.477 236.063 229.383 236.1 229.284 236.117Z" fill="#263238"/>
<path opacity="0.1" d="M196.23 196.265C196.23 196.265 195.815 204.175 192.808 208.405C192.18 203.917 191.529 199.665 190.912 196.411C192.611 195.732 194.497 195.68 196.23 196.265Z" fill="black"/>
<path opacity="0.1" d="M201.311 219.365V226.411C199.557 227.894 197.65 229.188 195.623 230.27C195.219 227.095 194.568 221.676 193.816 215.819C196.235 217.162 198.739 218.347 201.311 219.365Z" fill="black"/>
<path d="M213.575 227.242H205.194L203.668 212.32H215.112L213.575 227.242Z" fill="#D75337"/>
<path d="M215.731 211.434H203.053V212.937H215.731V211.434Z" fill="white"/>
<path d="M213.171 219.367C213.074 219.952 212.812 220.498 212.416 220.939C212.019 221.38 211.505 221.699 210.933 221.857C210.361 222.015 209.756 222.007 209.189 221.832C208.622 221.657 208.117 221.324 207.733 220.872C207.35 220.419 207.104 219.866 207.024 219.278C206.945 218.69 207.035 218.092 207.285 217.554C207.534 217.016 207.933 216.56 208.433 216.241C208.933 215.922 209.514 215.753 210.108 215.754C210.991 215.831 211.808 216.254 212.382 216.93C212.956 217.607 213.239 218.482 213.171 219.367Z" fill="white"/>
<path d="M209.108 219.186L206.931 217.907C206.527 217.674 206.074 217.539 205.608 217.514C205.142 217.489 204.677 217.573 204.25 217.761L200.211 219.579C199.415 219.935 198.716 220.476 198.171 221.157C197.627 221.838 197.253 222.64 197.08 223.494L196.867 224.616C200.334 226.973 205.843 226.973 205.843 226.973L207.402 227.141C207.722 227.187 208.047 227.169 208.359 227.088C208.671 227.007 208.965 226.864 209.221 226.669C209.478 226.474 209.694 226.23 209.855 225.95C210.017 225.671 210.121 225.363 210.163 225.043L210.544 221.946C210.605 221.396 210.501 220.839 210.246 220.348C209.99 219.856 209.594 219.452 209.108 219.186Z" fill="#FFC8B7"/>
<path d="M193.884 182.342C184.348 183.845 174.665 213.948 176.101 219.367C177.537 224.786 198.821 225.807 198.821 225.807L199.449 219.367C199.449 219.367 188.757 216.203 187.231 214.15C185.705 212.096 193.884 199.889 193.884 199.889C195.68 197.157 196.721 193.999 196.903 190.734C196.947 184.474 193.884 182.342 193.884 182.342Z" fill="#D75337"/>
<path opacity="0.7" d="M193.884 182.342C184.348 183.845 174.665 213.948 176.101 219.367C177.537 224.786 198.821 225.807 198.821 225.807L199.449 219.367C199.449 219.367 188.757 216.203 187.231 214.15C185.705 212.096 193.884 199.889 193.884 199.889C195.68 197.157 196.721 193.999 196.903 190.734C196.947 184.474 193.884 182.342 193.884 182.342Z" fill="#D8AEAE"/>
<path d="M142.336 137.157C141.214 137.157 140.305 135.721 140.227 133.847C140.17 133.03 140.32 132.212 140.664 131.469C140.777 131.169 140.969 130.907 141.22 130.709C141.471 130.511 141.772 130.386 142.089 130.347H142.145C143.267 130.347 144.176 131.783 144.266 133.713C144.319 134.531 144.165 135.349 143.817 136.091C143.705 136.39 143.512 136.653 143.261 136.851C143.01 137.049 142.709 137.174 142.392 137.213L142.336 137.157ZM142.145 130.863C141.775 130.863 141.427 131.177 141.158 131.704C140.854 132.368 140.723 133.097 140.776 133.825C140.844 135.384 141.562 136.686 142.403 136.641C142.628 136.601 142.838 136.503 143.011 136.355C143.185 136.207 143.316 136.015 143.391 135.799C143.698 135.141 143.833 134.415 143.783 133.69C143.682 132.142 142.953 130.863 142.145 130.863Z" fill="#263238"/>
<path d="M140.741 133.827C140.741 134.433 141.111 134.949 141.515 134.949C141.919 134.949 142.211 134.422 142.188 133.827C142.166 133.232 141.818 132.705 141.414 132.705C141.01 132.705 140.707 133.21 140.741 133.827Z" fill="#263238"/>
<path d="M141.055 134.915C141.869 136.754 142.934 138.472 144.219 140.02C143.812 140.337 143.342 140.562 142.84 140.68C142.339 140.798 141.818 140.806 141.313 140.704L141.055 134.915Z" fill="#ED847E"/>
<path d="M138.349 130.526C138.256 130.513 138.172 130.465 138.114 130.392C138.085 130.354 138.064 130.311 138.051 130.266C138.039 130.22 138.036 130.172 138.042 130.125C138.048 130.078 138.064 130.033 138.088 129.992C138.112 129.951 138.143 129.915 138.181 129.887C138.62 129.521 139.141 129.266 139.699 129.143C140.258 129.02 140.837 129.033 141.39 129.18C141.478 129.215 141.549 129.282 141.591 129.367C141.632 129.452 141.64 129.549 141.614 129.64C141.599 129.685 141.575 129.727 141.544 129.763C141.512 129.798 141.474 129.828 141.431 129.849C141.388 129.869 141.342 129.882 141.294 129.884C141.247 129.887 141.199 129.88 141.154 129.864C140.715 129.755 140.257 129.751 139.816 129.852C139.376 129.954 138.965 130.158 138.618 130.448C138.581 130.479 138.538 130.502 138.492 130.515C138.446 130.529 138.397 130.533 138.349 130.526Z" fill="#263238"/>
<path d="M141.763 142.623C141.763 142.803 141.707 142.971 141.684 143.15C141.236 145.571 139.943 147.754 138.037 149.311C136.131 150.868 133.734 151.699 131.272 151.655C128.977 151.569 126.793 150.643 125.135 149.052C121.163 145.361 121.074 140.94 120.277 133.445C120.07 131.705 120.311 129.941 120.978 128.321C121.645 126.7 122.715 125.277 124.086 124.187C125.458 123.096 127.085 122.375 128.814 122.09C130.543 121.806 132.316 121.968 133.965 122.562C141.28 125.12 142.896 135.768 141.763 142.623Z" fill="#FFC3BD"/>
<path d="M121.777 145.686C124.559 147.93 136.632 143.812 135.723 134.59C135.723 134.59 140.772 130.158 141.176 124.492C141.58 118.826 138.057 116.021 133.748 116.582C129.956 117.087 129.743 119.084 129.743 119.084C129.743 119.084 112.285 118.411 114.854 125.962C106.63 132.424 118.265 142.904 121.777 145.686Z" fill="#263238"/>
<path d="M143.983 133.404L135.664 134.327L135.721 134.84L144.04 133.917L143.983 133.404Z" fill="#263238"/>
<path d="M132.461 135.668C132.669 137.528 133.485 139.267 134.783 140.616C136.511 142.377 138.149 141.177 138.407 138.944C138.587 136.936 137.914 133.603 135.86 132.672C133.807 131.741 132.236 133.413 132.461 135.668Z" fill="#FFC3BD"/>
<path opacity="0.2" d="M141.76 142.622C141.76 142.802 141.704 142.97 141.681 143.149C141.233 145.57 139.941 147.753 138.034 149.31C136.128 150.867 133.731 151.698 131.27 151.654C133.345 150.33 136.161 148.03 137.025 144.81C138.45 139.492 136.285 132.917 136.285 132.917L137.407 131.38C137.407 131.38 139.404 139.907 139.168 142.151C139.045 143.688 140.683 143.127 141.76 142.622Z" fill="black"/>
<path d="M178.02 183.652H169.627L168.102 168.729H179.546L178.02 183.652Z" fill="#D75337"/>
<path d="M180.167 167.845H167.488V169.348H180.167V167.845Z" fill="#D75337"/>
<path d="M177.606 175.744C177.51 176.328 177.249 176.872 176.854 177.313C176.459 177.753 175.946 178.072 175.377 178.232C174.807 178.391 174.203 178.384 173.637 178.212C173.07 178.04 172.565 177.71 172.18 177.261C171.795 176.812 171.546 176.262 171.463 175.676C171.379 175.09 171.465 174.492 171.71 173.954C171.954 173.415 172.348 172.957 172.844 172.634C173.34 172.311 173.918 172.137 174.509 172.131C175.399 172.2 176.225 172.619 176.806 173.296C177.386 173.974 177.674 174.854 177.606 175.744Z" fill="white"/>
<path opacity="0.8" d="M180.167 167.845H167.488V169.348H180.167V167.845Z" fill="white"/>
<path d="M122.898 146.313C124.02 151.923 124.233 156.164 120.34 159.878C120.34 159.878 121.866 165.488 132.188 165.488C143.542 165.488 137.607 159.878 137.607 159.878C131.414 158.397 131.571 153.797 132.659 149.489L122.898 146.313Z" fill="#FFC3BD"/>
<path d="M118.145 160.909C117.315 159.36 116.395 157.543 118.291 157.038C120.366 156.432 133.729 155.299 137.656 156.443C136.444 158.598 138.486 161.223 138.486 161.223L118.145 160.909Z" fill="#D75337"/>
<path opacity="0.2" d="M118.145 160.909C117.315 159.36 116.395 157.543 118.291 157.038C120.366 156.432 133.729 155.299 137.656 156.443C136.444 158.598 138.486 161.223 138.486 161.223L118.145 160.909Z" fill="black"/>
<path d="M88.971 397.354C89.3051 397.475 89.66 397.527 90.0147 397.508C90.3693 397.488 90.7165 397.398 91.0355 397.242C91.1583 397.129 91.2427 396.981 91.2769 396.818C91.3112 396.655 91.2934 396.485 91.2262 396.333C91.1907 396.204 91.127 396.085 91.0396 395.984C90.9523 395.883 90.8436 395.803 90.7213 395.749C89.5994 395.211 87.0188 396.266 86.9066 396.31C86.8718 396.327 86.842 396.352 86.8203 396.383C86.7985 396.415 86.7857 396.452 86.7832 396.49C86.7835 396.527 86.7941 396.564 86.8139 396.596C86.8337 396.627 86.8619 396.653 86.8954 396.669C87.5612 396.97 88.2569 397.2 88.971 397.354ZM90.3174 396.03C90.3999 396.042 90.4795 396.069 90.553 396.109C90.6251 396.137 90.6893 396.183 90.74 396.241C90.7908 396.3 90.8267 396.37 90.8447 396.445C90.9569 396.793 90.8447 396.905 90.7774 396.939C90.3286 397.32 88.6681 396.939 87.5013 396.501C88.4074 396.131 89.3853 395.97 90.3623 396.03H90.3174Z" fill="#D75337"/>
<path d="M86.9974 396.636C87.9286 396.367 89.9482 394.931 89.9706 393.988C89.9718 393.84 89.9225 393.696 89.8307 393.579C89.7389 393.463 89.6101 393.382 89.4657 393.349C89.3228 393.298 89.1706 393.279 89.0196 393.292C88.8686 393.306 88.7222 393.352 88.5906 393.427C87.4686 393.988 86.7842 396.288 86.7506 396.389C86.7348 396.42 86.7266 396.455 86.7266 396.49C86.7266 396.525 86.7348 396.56 86.7506 396.591C86.7806 396.625 86.8214 396.648 86.8662 396.656C86.911 396.665 86.9572 396.657 86.9974 396.636ZM89.3535 393.696H89.4321C89.6789 393.775 89.6789 393.898 89.6789 393.943C89.6789 394.504 88.3325 395.626 87.3564 396.075C87.6194 395.164 88.1465 394.352 88.8711 393.741C89.0096 393.696 89.1589 393.696 89.2974 393.741L89.3535 393.696Z" fill="#D75337"/>
<path d="M86.5819 395.425L77.449 393.439C77.2873 393.407 77.1193 393.43 76.9726 393.505C76.8259 393.581 76.7091 393.704 76.6412 393.854L73.5334 400.721C73.4571 400.888 73.4198 401.071 73.4242 401.256C73.4286 401.44 73.4746 401.621 73.5587 401.785C73.6429 401.949 73.763 402.092 73.9102 402.203C74.0573 402.314 74.2277 402.39 74.4085 402.426C77.6061 403.065 79.1881 403.211 83.2047 404.075C85.6731 404.614 91.2492 405.971 94.66 406.712C98.0708 407.452 99.2489 404.176 97.9137 403.559C91.9561 400.844 89.4653 398.443 87.816 396.21C87.518 395.803 87.0774 395.522 86.5819 395.425Z" fill="#263238"/>
<path d="M135.365 227.624C135.365 227.624 126.748 281.378 122.025 301.528C116.841 323.575 89.0611 396.548 89.0611 396.548L75.4629 393.821C75.4629 393.821 94.8954 334.357 99.2374 303.525C102.603 279.84 109.156 227.624 109.156 227.624H135.365Z" fill="#D75337"/>
<path opacity="0.7" d="M135.365 227.624C135.365 227.624 126.748 281.378 122.025 301.528C116.841 323.575 89.0611 396.548 89.0611 396.548L75.4629 393.821C75.4629 393.821 94.8954 334.357 99.2374 303.525C102.603 279.84 109.156 227.624 109.156 227.624H135.365Z" fill="white"/>
<path d="M112.881 174.295C111.412 175.922 109.762 177.784 108.259 179.602C106.755 181.42 105.263 183.293 103.85 185.212C101.024 188.853 98.5416 192.748 96.4333 196.847C96.164 197.34 95.9508 197.834 95.7377 198.328L95.4123 199.068L95.2552 199.438L95.1879 199.584C95.1879 199.483 95.0084 199.876 95.1206 200.572C95.5712 202.445 96.3295 204.231 97.3645 205.856C99.9013 209.818 102.733 213.584 105.835 217.121L102.144 221.463C97.6723 218.557 93.6343 215.032 90.1503 210.995C88.1153 208.697 86.5386 206.031 85.5053 203.141C84.8007 201.077 84.6957 198.856 85.2024 196.734L85.3258 196.274L85.4268 195.983L85.5951 195.478L85.9429 194.468C86.1673 193.795 86.4029 193.122 86.6834 192.493C88.7701 187.533 91.4043 182.822 94.5372 178.446C96.0743 176.303 97.6226 174.194 99.3055 172.197C100.988 170.2 102.671 168.259 104.59 166.284L112.881 174.295Z" fill="#FFC3BD"/>
<path d="M103.603 214.879L109.213 215.294L106.689 223.698C106.689 223.698 102.459 222.935 100.832 219.636L103.603 214.879Z" fill="#FFC3BD"/>
<path d="M116.964 216.413L113.329 223.302L106.676 223.739L109.2 215.336L116.964 216.413Z" fill="#FFC3BD"/>
<path d="M141.032 398.756C142.154 398.756 143.13 398.599 143.478 398.128C143.568 398.002 143.617 397.851 143.617 397.696C143.617 397.541 143.568 397.39 143.478 397.264C143.411 397.149 143.323 397.05 143.216 396.971C143.11 396.891 142.989 396.835 142.861 396.804C141.481 396.422 138.575 398.083 138.451 398.15C138.415 398.169 138.386 398.198 138.368 398.235C138.35 398.271 138.344 398.312 138.35 398.352C138.356 398.393 138.375 398.431 138.403 398.461C138.431 398.491 138.467 398.512 138.507 398.521C139.341 398.67 140.185 398.749 141.032 398.756ZM142.356 397.141C142.482 397.123 142.611 397.123 142.737 397.141C142.816 397.156 142.891 397.188 142.957 397.234C143.022 397.281 143.078 397.341 143.119 397.41C143.253 397.657 143.209 397.78 143.119 397.847C142.737 398.386 140.639 398.397 139.091 398.184C140.1 397.624 141.209 397.27 142.356 397.141Z" fill="#D75337"/>
<path d="M138.517 398.521H138.607C139.605 398.061 141.591 396.277 141.445 395.324C141.445 395.111 141.243 394.83 140.705 394.774C140.505 394.751 140.302 394.77 140.109 394.828C139.917 394.885 139.737 394.982 139.583 395.111C138.528 395.986 138.304 398.218 138.293 398.319C138.288 398.354 138.293 398.388 138.307 398.42C138.321 398.452 138.343 398.479 138.371 398.499C138.415 398.524 138.467 398.531 138.517 398.521ZM140.548 395.155H140.671C141.019 395.155 141.041 395.335 141.053 395.38C141.142 395.941 139.796 397.355 138.809 397.972C138.91 397.024 139.302 396.13 139.931 395.414C140.102 395.261 140.319 395.17 140.548 395.155Z" fill="#D75337"/>
<path d="M137.643 397.365H128.567C128.401 397.363 128.24 397.418 128.109 397.52C127.979 397.622 127.887 397.765 127.849 397.926L126.267 405.32C126.226 405.499 126.226 405.685 126.268 405.864C126.309 406.043 126.391 406.21 126.507 406.352C126.622 406.495 126.769 406.61 126.935 406.687C127.102 406.765 127.284 406.804 127.467 406.801C130.743 406.745 135.467 406.554 139.584 406.554C144.398 406.554 148.56 406.812 154.17 406.812C157.536 406.812 158.523 403.368 157.098 403.054C150.591 401.629 145.284 401.472 139.663 398.005C139.063 397.607 138.363 397.386 137.643 397.365Z" fill="#263238"/>
<path d="M108.573 161.091C101.269 161.259 91.8672 177.921 91.8672 177.921L103.67 191.463C108.098 188.338 111.633 184.11 113.925 179.2C118.233 170.37 116.034 160.923 108.573 161.091Z" fill="#D75337"/>
<path opacity="0.2" d="M111.86 175.407C107.294 178.38 104.657 184.944 103.143 190.823L103.67 191.418C108.088 188.302 111.622 184.091 113.925 179.199C114.179 178.676 114.415 178.149 114.632 177.617L111.86 175.407Z" fill="black"/>
<path d="M153.003 187.949C152.88 192.314 152.577 197.363 151.993 203.231C151.488 208.425 150.759 214.248 149.749 220.778H109.358C109.067 215.168 112.803 187.837 106.789 161.437C111.289 160.665 115.829 160.152 120.387 159.9C126.135 159.597 131.895 159.597 137.643 159.9C141.576 160.256 145.478 160.886 149.323 161.785C149.323 161.785 153.598 166.071 153.003 187.949Z" fill="#D75337"/>
<path opacity="0.2" d="M153.003 187.949C152.879 192.314 152.576 197.363 151.993 203.23C148.627 199.775 144.296 194.378 144.723 189.767L153.003 187.949Z" fill="black"/>
<path opacity="0.2" d="M129.924 246.775C119.961 248.582 121.016 283.015 122.216 300.719C125.089 288.198 129.296 264.121 132.168 247.022C131.465 246.705 130.679 246.619 129.924 246.775Z" fill="black"/>
<path d="M149.828 227.624C149.828 227.624 150.882 280.682 150.052 302.313C149.199 324.82 140.785 398.522 140.785 398.522H127.86C127.86 398.522 127.388 326.144 126.816 304.03C126.188 279.93 123.08 227.624 123.08 227.624H149.828Z" fill="#D75337"/>
<path d="M152.88 169.629C153.531 171.693 154.294 174.005 155.124 176.17C155.954 178.335 156.762 180.546 157.66 182.677C159.342 186.879 161.388 190.926 163.774 194.772C164.358 195.692 164.975 196.567 165.603 197.398L166.086 198.003C165.869 197.819 165.632 197.661 165.379 197.532C164.804 197.239 164.159 197.111 163.516 197.162C163.073 197.185 162.641 197.316 162.26 197.543C161.901 197.813 162.114 197.757 162.26 197.543C162.54 197.279 162.795 196.99 163.023 196.68C163.644 195.857 164.217 194.999 164.739 194.11C166.983 190.262 169.048 185.808 171.078 181.499L176.576 183.036C175.926 188.163 174.696 193.2 172.907 198.048C172.41 199.381 171.813 200.675 171.123 201.919C170.705 202.651 170.237 203.352 169.721 204.017C168.981 204.993 168.059 205.816 167.006 206.441C166.088 206.966 165.064 207.277 164.01 207.349C162.753 207.427 161.498 207.155 160.386 206.564C159.598 206.137 158.885 205.584 158.277 204.926L157.559 204.141C156.616 203.093 155.741 202.028 154.933 200.943C151.839 196.674 149.207 192.09 147.079 187.266C146.036 184.91 145.037 182.543 144.185 180.142C143.332 177.741 142.502 175.385 141.795 172.737L152.88 169.629Z" fill="#FFC3BD"/>
<path d="M137.283 170.168C132.302 179.379 147.516 193.729 147.516 193.729L162.696 183.295C160.319 177.49 157.526 171.866 154.337 166.465C148.335 156.536 141.087 163.167 137.283 170.168Z" fill="#D75337"/>
<path d="M174.713 185.616L182.219 179.793L176.149 174.184C176.149 174.184 170.326 177.55 171.145 182.98L174.713 185.616Z" fill="#FFC3BD"/>
<path d="M183.533 176.125L179.46 170.493L176.15 174.128L182.22 179.794L183.533 176.125Z" fill="#FFC3BD"/>
<path opacity="0.7" d="M149.828 227.624C149.828 227.624 150.882 280.682 150.052 302.313C149.199 324.82 140.785 398.522 140.785 398.522H127.86C127.86 398.522 127.388 326.144 126.816 304.03C126.188 279.93 123.08 227.624 123.08 227.624H149.828Z" fill="white"/>
<path d="M109.494 219.365C106.843 228.232 105.925 237.527 106.79 246.741H150.11L150.312 219.814L109.494 219.365Z" fill="#D75337"/>
<path opacity="0.7" d="M109.494 219.365C106.843 228.232 105.925 237.527 106.79 246.741H150.11L150.312 219.814L109.494 219.365Z" fill="white"/>
<path d="M119.367 220.375L108.753 220.252L108.473 223.012L119.367 223.113V220.375Z" fill="#263238"/>
<path d="M137.362 220.589L121.004 220.398V223.125L137.362 223.282V220.589Z" fill="#263238"/>
<path d="M138.52 220.599V223.291L150.311 223.392V220.733L138.52 220.599Z" fill="#263238"/>
<path opacity="0.2" d="M128.871 152.955C129.166 152.775 129.478 152.625 129.802 152.506C129.297 152.775 128.95 152.921 128.871 152.955Z" fill="black"/>
</svg>
