<svg width="726" height="428" viewBox="0 0 726 428" fill="none" xmlns="http://www.w3.org/2000/svg">
<path d="M508.315 388.672H470.895V388.954H508.315V388.672Z" fill="#EBEBEB"/>
<path d="M374.228 391.744H364.41V392.027H374.228V391.744Z" fill="#EBEBEB"/>
<path d="M469.766 378.188H448.084V378.47H469.766V378.188Z" fill="#EBEBEB"/>
<path d="M108.067 380.083H59.2695V380.365H108.067V380.083Z" fill="#EBEBEB"/>
<path d="M125.291 380.086H118.139V380.368H125.291V380.086Z" fill="#EBEBEB"/>
<path d="M254.385 384.854H148.541V385.136H254.385V384.854Z" fill="#EBEBEB"/>
<path d="M269.352 320.101H51.1799C49.4689 320.101 47.828 319.422 46.6181 318.212C45.4082 317.002 44.7285 315.361 44.7285 313.65V6.97694C44.7434 5.27573 45.4297 3.64927 46.6379 2.45159C47.8462 1.25391 49.4786 0.581966 51.1799 0.582031H269.352C270.2 0.582031 271.039 0.7489 271.821 1.07311C272.604 1.39733 273.315 1.87253 273.914 2.4716C274.513 3.07067 274.988 3.78187 275.313 4.56459C275.637 5.34731 275.804 6.18622 275.804 7.03343V313.65C275.804 314.497 275.637 315.336 275.313 316.119C274.988 316.901 274.513 317.613 273.914 318.212C273.315 318.811 272.604 319.286 271.821 319.61C271.039 319.934 270.2 320.101 269.352 320.101ZM51.1799 0.808C49.5447 0.810987 47.9774 1.46188 46.8211 2.61814C45.6649 3.77439 45.014 5.34175 45.011 6.97694V313.65C45.014 315.285 45.6649 316.852 46.8211 318.009C47.9774 319.165 49.5447 319.816 51.1799 319.819H269.352C270.988 319.816 272.555 319.165 273.711 318.009C274.867 316.852 275.518 315.285 275.521 313.65V6.97694C275.518 5.34175 274.867 3.77439 273.711 2.61814C272.555 1.46188 270.988 0.810987 269.352 0.808H51.1799Z" fill="#EBEBEB"/>
<path d="M513.737 320.101H295.565C293.854 320.101 292.213 319.422 291.003 318.212C289.793 317.002 289.113 315.361 289.113 313.65V6.97694C289.128 5.27573 289.814 3.64927 291.023 2.45159C292.231 1.25391 293.863 0.581966 295.565 0.582031H513.737C515.448 0.582031 517.089 1.26173 518.299 2.4716C519.509 3.68147 520.189 5.32241 520.189 7.03343V313.65C520.189 315.361 519.509 317.002 518.299 318.212C517.089 319.422 515.448 320.101 513.737 320.101ZM295.565 0.808C293.929 0.810987 292.362 1.46188 291.206 2.61814C290.05 3.77439 289.399 5.34175 289.396 6.97694V313.65C289.399 315.285 290.05 316.852 291.206 318.009C292.362 319.165 293.929 319.816 295.565 319.819H513.737C515.372 319.816 516.94 319.165 518.096 318.009C519.252 316.852 519.903 315.285 519.906 313.65V6.97694C519.903 5.34175 519.252 3.77439 518.096 2.61814C516.94 1.46188 515.372 0.810987 513.737 0.808H295.565Z" fill="#EBEBEB"/>
<path d="M564.921 370.492H0V370.775H564.921V370.492Z" fill="#EBEBEB"/>
<path d="M240.181 65.1749C238.993 65.1559 237.837 65.556 236.915 66.3048C237.102 65.2813 237.102 64.2325 236.915 63.209C236.416 60.7769 235.114 58.583 233.219 56.9788C231.324 55.3747 228.946 54.4533 226.464 54.3623C225.069 54.3446 223.695 54.7037 222.487 55.4018C221.569 53.7167 220.228 52.3 218.595 51.2915C216.963 50.283 215.095 49.7175 213.177 49.6509C212.07 49.6121 210.969 49.8296 209.959 50.2862C208.95 50.7429 208.059 51.4265 207.357 52.2838C206.655 53.141 206.161 54.1488 205.912 55.2286C205.663 56.3083 205.667 57.4309 205.924 58.5088C206.001 58.8906 206.099 59.2678 206.218 59.6387C205.44 59.4315 204.639 59.3252 203.834 59.3223C202.726 59.2836 201.625 59.501 200.615 59.9577C199.606 60.4144 198.716 61.098 198.014 61.9552C197.312 62.8125 196.817 63.8203 196.568 64.9C196.32 65.9798 196.324 67.1024 196.58 68.1803C197.078 70.6133 198.379 72.8083 200.274 74.4128C202.17 76.0173 204.549 76.938 207.031 77.027H242.316C243.06 77.0538 243.8 76.9086 244.478 76.6028C245.156 76.2969 245.755 75.8386 246.227 75.2635C246.7 74.6884 247.033 74.0121 247.201 73.2872C247.369 72.5622 247.368 71.8083 247.197 71.084C246.855 69.4571 245.978 67.9915 244.707 66.9207C243.435 65.8498 241.842 65.2352 240.181 65.1749Z" fill="#F5F5F5"/>
<path d="M182.207 72.4734C180.05 72.4349 177.949 73.1591 176.275 74.5185C176.63 72.6521 176.63 70.7356 176.275 68.8693C174.671 59.9887 166.185 52.7916 157.305 52.7916C154.776 52.7634 152.287 53.415 150.097 54.6784C146.707 48.5886 140.075 44.25 133.149 44.25C124.268 44.25 118.371 51.4471 119.975 60.3276C120.11 61.0502 120.292 61.7634 120.517 62.463C119.105 62.0904 117.651 61.8968 116.19 61.8868C107.309 61.8868 101.423 69.0839 103.016 77.9532C104.609 86.8224 113.117 94.0308 121.986 94.0308H186.048C192.014 94.0308 195.968 89.1951 194.895 83.2295C194.275 80.282 192.692 77.6248 190.394 75.6771C188.096 73.7295 185.216 72.6023 182.207 72.4734Z" fill="#F5F5F5"/>
<path d="M441.078 76.1354C438.92 76.0991 436.818 76.8275 435.146 78.1917C435.5 76.3253 435.5 74.409 435.146 72.5425C433.553 63.6733 425.057 56.4762 416.176 56.4762C413.651 56.4483 411.165 57.1 408.979 58.363C405.589 52.2732 398.946 47.9346 392.031 47.9346C383.151 47.9346 377.253 55.1317 378.857 64.0009C378.997 64.7263 379.178 65.4431 379.4 66.1476C377.989 65.766 376.534 65.5685 375.072 65.5601C366.203 65.5601 360.305 72.7572 361.91 81.6377C363.514 90.5183 372.044 97.7493 380.925 97.7493H444.976C450.941 97.7493 454.896 92.9136 453.822 86.9593C453.213 83.9902 451.627 81.3108 449.317 79.3488C447.007 77.3868 444.106 76.2555 441.078 76.1354Z" fill="#F5F5F5"/>
<path d="M475.662 61.8411C474.761 61.8227 473.883 62.1273 473.187 62.6998C473.335 61.9271 473.335 61.1336 473.187 60.361C472.813 58.5183 471.829 56.8553 470.394 55.6399C468.96 54.4245 467.158 53.7274 465.278 53.661C464.223 53.6456 463.184 53.9191 462.273 54.4519C461.578 53.1785 460.564 52.1078 459.329 51.3451C458.095 50.5825 456.684 50.1541 455.234 50.102C454.396 50.0724 453.563 50.2366 452.799 50.5819C452.035 50.9271 451.361 51.4441 450.83 52.0925C450.298 52.7409 449.924 53.5032 449.735 54.3201C449.547 55.137 449.55 55.9863 449.743 56.802C449.801 57.1037 449.876 57.4017 449.969 57.6946C449.384 57.5329 448.78 57.4494 448.173 57.446C447.334 57.4141 446.5 57.5767 445.735 57.9213C444.969 58.2658 444.294 58.7828 443.763 59.4318C443.231 60.0808 442.856 60.8441 442.669 61.662C442.481 62.4799 442.486 63.3301 442.682 64.146C443.058 65.9866 444.043 67.647 445.477 68.8602C446.912 70.0734 448.713 70.7688 450.59 70.8346H477.277C477.842 70.8539 478.403 70.7425 478.917 70.509C479.431 70.2756 479.884 69.9264 480.24 69.4888C480.597 69.0512 480.847 68.537 480.972 67.9865C481.097 67.4359 481.093 66.864 480.961 66.3153C480.7 65.0866 480.038 63.9796 479.079 63.1693C478.119 62.3591 476.917 61.8917 475.662 61.8411Z" fill="#F0F0F0"/>
<path d="M311.373 116.085V105.171H289.319V116.085H252.734V372.853H316.706V116.085H311.373Z" fill="#F0F0F0"/>
<path d="M282.846 129.87H273.4V139.316H282.846V129.87Z" fill="#FAFAFA"/>
<path d="M296.043 129.87H286.598V139.316H296.043V129.87Z" fill="#FAFAFA"/>
<path d="M269.649 144.118H260.203V153.564H269.649V144.118Z" fill="#FAFAFA"/>
<path d="M282.846 144.118H273.4V153.564H282.846V144.118Z" fill="#FAFAFA"/>
<path d="M309.238 144.118H299.793V153.564H309.238V144.118Z" fill="#FAFAFA"/>
<path d="M269.649 158.377H260.203V167.822H269.649V158.377Z" fill="#FAFAFA"/>
<path d="M296.043 158.375H286.598V167.82H296.043V158.375Z" fill="#FAFAFA"/>
<path d="M309.238 158.375H299.793V167.82H309.238V158.375Z" fill="#FAFAFA"/>
<path d="M269.649 186.872H260.203V196.318H269.649V186.872Z" fill="#FAFAFA"/>
<path d="M296.043 186.87H286.598V196.316H296.043V186.87Z" fill="#FAFAFA"/>
<path d="M269.649 201.118H260.203V210.564H269.649V201.118Z" fill="#FAFAFA"/>
<path d="M282.846 201.118H273.4V210.564H282.846V201.118Z" fill="#FAFAFA"/>
<path d="M309.238 201.117H299.793V210.563H309.238V201.117Z" fill="#FAFAFA"/>
<path d="M269.649 272.273H260.203V281.719H269.649V272.273Z" fill="#FAFAFA"/>
<path d="M282.846 272.273H273.4V281.719H282.846V272.273Z" fill="#FAFAFA"/>
<path d="M309.238 272.273H299.793V281.719H309.238V272.273Z" fill="#FAFAFA"/>
<path d="M269.649 286.522H260.203V295.968H269.649V286.522Z" fill="#FAFAFA"/>
<path d="M296.043 286.522H286.598V295.968H296.043V286.522Z" fill="#FAFAFA"/>
<path d="M309.238 286.522H299.793V295.968H309.238V286.522Z" fill="#FAFAFA"/>
<path d="M269.649 315.028H260.203V324.474H269.649V315.028Z" fill="#FAFAFA"/>
<path d="M296.043 315.028H286.598V324.474H296.043V315.028Z" fill="#FAFAFA"/>
<path d="M269.649 329.275H260.203V338.721H269.649V329.275Z" fill="#FAFAFA"/>
<path d="M282.846 329.275H273.4V338.721H282.846V329.275Z" fill="#FAFAFA"/>
<path d="M309.238 329.275H299.793V338.721H309.238V329.275Z" fill="#FAFAFA"/>
<path d="M309.238 215.377H299.793V224.822H309.238V215.377Z" fill="#FAFAFA"/>
<path d="M269.649 229.624H260.203V239.069H269.649V229.624Z" fill="#FAFAFA"/>
<path d="M282.846 229.624H273.4V239.069H282.846V229.624Z" fill="#FAFAFA"/>
<path d="M296.112 244.032L286.668 243.896L286.533 253.341L295.977 253.476L296.112 244.032Z" fill="#FAFAFA"/>
<path d="M309.304 244.22L299.859 244.085L299.724 253.529L309.169 253.665L309.304 244.22Z" fill="#FAFAFA"/>
<path d="M269.649 258.118H260.203V267.564H269.649V258.118Z" fill="#FAFAFA"/>
<path d="M434.13 165.018V156.194H451.971V165.018H481.595V372.853H429.814V165.018H434.13Z" fill="#F0F0F0"/>
<path d="M457.224 183.831H464.873V176.182H457.224V183.831Z" fill="#FAFAFA"/>
<path d="M446.537 183.831H454.186V176.182H446.537V183.831Z" fill="#FAFAFA"/>
<path d="M467.904 195.367H475.553V187.718H467.904V195.367Z" fill="#FAFAFA"/>
<path d="M457.224 195.367H464.873V187.718H457.224V195.367Z" fill="#FAFAFA"/>
<path d="M435.849 195.367H443.498V187.718H435.849V195.367Z" fill="#FAFAFA"/>
<path d="M467.904 206.904H475.553V199.255H467.904V206.904Z" fill="#FAFAFA"/>
<path d="M446.537 206.904H454.186V199.255H446.537V206.904Z" fill="#FAFAFA"/>
<path d="M435.849 206.904H443.498V199.255H435.849V206.904Z" fill="#FAFAFA"/>
<path d="M467.904 229.964H475.553V222.315H467.904V229.964Z" fill="#FAFAFA"/>
<path d="M446.537 229.964H454.186V222.315H446.537V229.964Z" fill="#FAFAFA"/>
<path d="M467.904 241.508H475.553V233.859H467.904V241.508Z" fill="#FAFAFA"/>
<path d="M457.224 241.508H464.873V233.859H457.224V241.508Z" fill="#FAFAFA"/>
<path d="M435.849 241.508H443.498V233.859H435.849V241.508Z" fill="#FAFAFA"/>
<path d="M467.904 299.099H475.553V291.45H467.904V299.099Z" fill="#FAFAFA"/>
<path d="M457.224 299.098H464.873V291.449H457.224V299.098Z" fill="#FAFAFA"/>
<path d="M435.849 299.098H443.498V291.449H435.849V299.098Z" fill="#FAFAFA"/>
<path d="M467.904 310.621H475.553V302.972H467.904V310.621Z" fill="#FAFAFA"/>
<path d="M446.537 310.621H454.186V302.972H446.537V310.621Z" fill="#FAFAFA"/>
<path d="M435.849 310.621H443.498V302.972H435.849V310.621Z" fill="#FAFAFA"/>
<path d="M467.904 333.704H475.553V326.055H467.904V333.704Z" fill="#FAFAFA"/>
<path d="M446.537 333.704H454.186V326.055H446.537V333.704Z" fill="#FAFAFA"/>
<path d="M467.904 345.238H475.553V337.589H467.904V345.238Z" fill="#FAFAFA"/>
<path d="M457.224 345.238H464.873V337.589H457.224V345.238Z" fill="#FAFAFA"/>
<path d="M435.849 345.238H443.498V337.589H435.849V345.238Z" fill="#FAFAFA"/>
<path d="M435.849 253.046H443.498V245.397H435.849V253.046Z" fill="#FAFAFA"/>
<path d="M467.904 264.57H475.553V256.921H467.904V264.57Z" fill="#FAFAFA"/>
<path d="M457.224 264.57H464.873V256.921H457.224V264.57Z" fill="#FAFAFA"/>
<path d="M446.604 276.221L454.252 276.111L454.142 268.463L446.494 268.573L446.604 276.221Z" fill="#FAFAFA"/>
<path d="M435.899 276.397L443.547 276.287L443.437 268.639L435.789 268.748L435.899 276.397Z" fill="#FAFAFA"/>
<path d="M467.904 287.641H475.553V279.992H467.904V287.641Z" fill="#FAFAFA"/>
<path d="M326.413 167.109H344.084H373.404V372.854H322.143V167.109H326.413Z" fill="#EBEBEB"/>
<path d="M349.28 185.73H356.85V178.161H349.28V185.73Z" fill="#FAFAFA"/>
<path d="M338.702 185.73H346.271V178.161H338.702V185.73Z" fill="#FAFAFA"/>
<path d="M359.844 197.153H367.414V189.583H359.844V197.153Z" fill="#FAFAFA"/>
<path d="M349.28 197.153H356.85V189.583H349.28V197.153Z" fill="#FAFAFA"/>
<path d="M328.129 197.153H335.699V189.583H328.129V197.153Z" fill="#FAFAFA"/>
<path d="M359.844 208.562H367.414V200.993H359.844V208.562Z" fill="#FAFAFA"/>
<path d="M338.702 208.565H346.271V200.995H338.702V208.565Z" fill="#FAFAFA"/>
<path d="M328.129 208.562H335.699V200.993H328.129V208.562Z" fill="#FAFAFA"/>
<path d="M359.844 231.41H367.414V223.84H359.844V231.41Z" fill="#FAFAFA"/>
<path d="M338.702 231.41H346.271V223.84H338.702V231.41Z" fill="#FAFAFA"/>
<path d="M359.844 242.82H367.414V235.25H359.844V242.82Z" fill="#FAFAFA"/>
<path d="M349.28 242.82H356.85V235.25H349.28V242.82Z" fill="#FAFAFA"/>
<path d="M328.129 242.82H335.699V235.25H328.129V242.82Z" fill="#FAFAFA"/>
<path d="M359.844 299.833H367.414V292.263H359.844V299.833Z" fill="#FAFAFA"/>
<path d="M349.28 299.833H356.85V292.263H349.28V299.833Z" fill="#FAFAFA"/>
<path d="M328.129 299.833H335.699V292.263H328.129V299.833Z" fill="#FAFAFA"/>
<path d="M359.844 311.255H367.414V303.685H359.844V311.255Z" fill="#FAFAFA"/>
<path d="M338.702 311.255H346.271V303.685H338.702V311.255Z" fill="#FAFAFA"/>
<path d="M328.129 311.255H335.699V303.685H328.129V311.255Z" fill="#FAFAFA"/>
<path d="M359.844 334.088H367.414V326.518H359.844V334.088Z" fill="#FAFAFA"/>
<path d="M338.702 334.09H346.271V326.52H338.702V334.09Z" fill="#FAFAFA"/>
<path d="M359.844 345.5H367.414V337.93H359.844V345.5Z" fill="#FAFAFA"/>
<path d="M349.28 345.5H356.85V337.93H349.28V345.5Z" fill="#FAFAFA"/>
<path d="M328.129 345.5H335.699V337.93H328.129V345.5Z" fill="#FAFAFA"/>
<path d="M328.129 254.243H335.699V246.673H328.129V254.243Z" fill="#FAFAFA"/>
<path d="M359.844 265.655H367.414V258.085H359.844V265.655Z" fill="#FAFAFA"/>
<path d="M349.28 265.655H356.85V258.085H349.28V265.655Z" fill="#FAFAFA"/>
<path d="M338.771 277.209L346.34 277.101L346.232 269.531L338.662 269.64L338.771 277.209Z" fill="#FAFAFA"/>
<path d="M328.181 277.349L335.75 277.24L335.642 269.671L328.073 269.779L328.181 277.349Z" fill="#FAFAFA"/>
<path d="M359.844 288.5H367.414V280.93H359.844V288.5Z" fill="#FAFAFA"/>
<path d="M89.8661 167.109H107.526H136.856V372.854H85.584V167.109H89.8661Z" fill="#F0F0F0"/>
<path d="M112.727 185.73H120.297V178.161H112.727V185.73Z" fill="#FAFAFA"/>
<path d="M102.149 185.73H109.719V178.161H102.149V185.73Z" fill="#FAFAFA"/>
<path d="M123.286 197.153H130.855V189.583H123.286V197.153Z" fill="#FAFAFA"/>
<path d="M112.727 197.153H120.297V189.583H112.727V197.153Z" fill="#FAFAFA"/>
<path d="M91.5746 197.153H99.1445V189.583H91.5746V197.153Z" fill="#FAFAFA"/>
<path d="M123.286 208.565H130.855V200.995H123.286V208.565Z" fill="#FAFAFA"/>
<path d="M102.149 208.562H109.719V200.993H102.149V208.562Z" fill="#FAFAFA"/>
<path d="M91.5746 208.565H99.1445V200.995H91.5746V208.565Z" fill="#FAFAFA"/>
<path d="M123.286 231.41H130.855V223.84H123.286V231.41Z" fill="#FAFAFA"/>
<path d="M102.149 231.408H109.719V223.838H102.149V231.408Z" fill="#FAFAFA"/>
<path d="M123.286 242.82H130.855V235.25H123.286V242.82Z" fill="#FAFAFA"/>
<path d="M112.727 242.82H120.297V235.25H112.727V242.82Z" fill="#FAFAFA"/>
<path d="M91.5746 242.82H99.1445V235.25H91.5746V242.82Z" fill="#FAFAFA"/>
<path d="M123.286 299.833H130.855V292.263H123.286V299.833Z" fill="#FAFAFA"/>
<path d="M112.727 299.833H120.297V292.263H112.727V299.833Z" fill="#FAFAFA"/>
<path d="M91.5746 299.833H99.1445V292.263H91.5746V299.833Z" fill="#FAFAFA"/>
<path d="M123.286 311.255H130.855V303.685H123.286V311.255Z" fill="#FAFAFA"/>
<path d="M102.149 311.255H109.719V303.685H102.149V311.255Z" fill="#FAFAFA"/>
<path d="M91.5746 311.255H99.1445V303.685H91.5746V311.255Z" fill="#FAFAFA"/>
<path d="M123.286 334.09H130.855V326.52H123.286V334.09Z" fill="#FAFAFA"/>
<path d="M102.149 334.088H109.719V326.518H102.149V334.088Z" fill="#FAFAFA"/>
<path d="M123.286 345.5H130.855V337.93H123.286V345.5Z" fill="#FAFAFA"/>
<path d="M112.727 345.5H120.297V337.93H112.727V345.5Z" fill="#FAFAFA"/>
<path d="M91.5746 345.5H99.1445V337.93H91.5746V345.5Z" fill="#FAFAFA"/>
<path d="M91.5746 254.243H99.1445V246.673H91.5746V254.243Z" fill="#FAFAFA"/>
<path d="M123.286 265.655H130.855V258.085H123.286V265.655Z" fill="#FAFAFA"/>
<path d="M112.727 265.655H120.297V258.085H112.727V265.655Z" fill="#FAFAFA"/>
<path d="M102.212 277.212L109.781 277.104L109.673 269.534L102.104 269.643L102.212 277.212Z" fill="#FAFAFA"/>
<path d="M91.632 277.353L99.2012 277.245L99.0928 269.676L91.5237 269.784L91.632 277.353Z" fill="#FAFAFA"/>
<path d="M123.286 288.5H130.855V280.93H123.286V288.5Z" fill="#FAFAFA"/>
<path d="M190.988 372.854H247.3V134.559L190.988 140.581V372.854Z" fill="#F0F0F0"/>
<path d="M228.873 159.979H244.262V144.591H228.873V159.979Z" fill="#FAFAFA"/>
<path d="M211.447 159.979H226.836V144.591H211.447V159.979Z" fill="#F0F0F0"/>
<path d="M194.014 159.979H209.402V144.591H194.014V159.979Z" fill="#FAFAFA"/>
<path d="M228.873 177.176H244.262V161.787H228.873V177.176Z" fill="#FAFAFA"/>
<path d="M211.447 177.176H226.836V161.787H211.447V177.176Z" fill="#FAFAFA"/>
<path d="M194.014 177.176H209.402V161.787H194.014V177.176Z" fill="#FAFAFA"/>
<path d="M228.873 194.372H244.262V178.984H228.873V194.372Z" fill="#FAFAFA"/>
<path d="M211.447 194.372H226.836V178.984H211.447V194.372Z" fill="#F0F0F0"/>
<path d="M194.014 194.372H209.402V178.984H194.014V194.372Z" fill="#FAFAFA"/>
<path d="M228.873 211.557H244.262V196.168H228.873V211.557Z" fill="#F0F0F0"/>
<path d="M211.447 211.557H226.836V196.168H211.447V211.557Z" fill="#FAFAFA"/>
<path d="M194.014 211.557H209.402V196.168H194.014V211.557Z" fill="#FAFAFA"/>
<path d="M228.873 228.752H244.262V213.364H228.873V228.752Z" fill="#FAFAFA"/>
<path d="M211.447 228.752H226.836V213.364H211.447V228.752Z" fill="#FAFAFA"/>
<path d="M194.014 228.752H209.402V213.364H194.014V228.752Z" fill="#F0F0F0"/>
<path d="M228.873 245.928H244.262V230.539H228.873V245.928Z" fill="#FAFAFA"/>
<path d="M211.447 245.928H226.836V230.539H211.447V245.928Z" fill="#F0F0F0"/>
<path d="M194.014 245.928H209.402V230.539H194.014V245.928Z" fill="#FAFAFA"/>
<path d="M228.873 263.123H244.262V247.735H228.873V263.123Z" fill="#F0F0F0"/>
<path d="M211.447 263.123H226.836V247.735H211.447V263.123Z" fill="#F0F0F0"/>
<path d="M194.014 263.123H209.402V247.735H194.014V263.123Z" fill="#FAFAFA"/>
<path d="M228.873 280.319H244.262V264.931H228.873V280.319Z" fill="#FAFAFA"/>
<path d="M211.447 280.319H226.836V264.931H211.447V280.319Z" fill="#F0F0F0"/>
<path d="M194.014 280.319H209.402V264.931H194.014V280.319Z" fill="#FAFAFA"/>
<path d="M228.873 297.504H244.262V282.115H228.873V297.504Z" fill="#FAFAFA"/>
<path d="M211.447 297.504H226.836V282.115H211.447V297.504Z" fill="#FAFAFA"/>
<path d="M194.014 297.506H209.402V282.117H194.014V297.506Z" fill="#FAFAFA"/>
<path d="M228.873 314.69H244.262V299.302H228.873V314.69Z" fill="#F0F0F0"/>
<path d="M211.447 314.69H226.836V299.302H211.447V314.69Z" fill="#FAFAFA"/>
<path d="M194.014 314.69H209.402V299.302H194.014V314.69Z" fill="#F0F0F0"/>
<path d="M228.873 331.887H244.262V316.498H228.873V331.887Z" fill="#FAFAFA"/>
<path d="M211.447 331.887H226.836V316.498H211.447V331.887Z" fill="#F0F0F0"/>
<path d="M194.014 331.887H209.402V316.498H194.014V331.887Z" fill="#FAFAFA"/>
<path d="M228.873 349.07H244.262V333.682H228.873V349.07Z" fill="#F0F0F0"/>
<path d="M211.447 349.07H226.836V333.682H211.447V349.07Z" fill="#FAFAFA"/>
<path d="M194.014 349.07H209.402V333.682H194.014V349.07Z" fill="#FAFAFA"/>
<path d="M378.836 372.853H424.414V179.955L378.836 184.836V372.853Z" fill="#F0F0F0"/>
<path d="M409.499 200.541H421.961V188.079H409.499V200.541Z" fill="#FAFAFA"/>
<path d="M395.387 200.541H407.85V188.079H395.387V200.541Z" fill="#F0F0F0"/>
<path d="M381.276 200.541H393.738V188.079H381.276V200.541Z" fill="#FAFAFA"/>
<path d="M409.499 214.451H421.961V201.989H409.499V214.451Z" fill="#FAFAFA"/>
<path d="M395.387 214.451H407.85V201.989H395.387V214.451Z" fill="#FAFAFA"/>
<path d="M381.276 214.449H393.738V201.987H381.276V214.449Z" fill="#FAFAFA"/>
<path d="M409.499 228.38H421.961V215.918H409.499V228.38Z" fill="#FAFAFA"/>
<path d="M395.387 228.38H407.85V215.918H395.387V228.38Z" fill="#F0F0F0"/>
<path d="M381.276 228.38H393.738V215.918H381.276V228.38Z" fill="#FAFAFA"/>
<path d="M409.499 242.289H421.961V229.827H409.499V242.289Z" fill="#F0F0F0"/>
<path d="M395.387 242.289H407.85V229.827H395.387V242.289Z" fill="#FAFAFA"/>
<path d="M381.276 242.289H393.738V229.827H381.276V242.289Z" fill="#FAFAFA"/>
<path d="M409.499 256.197H421.961V243.735H409.499V256.197Z" fill="#FAFAFA"/>
<path d="M395.387 256.197H407.85V243.735H395.387V256.197Z" fill="#FAFAFA"/>
<path d="M381.276 256.197H393.738V243.735H381.276V256.197Z" fill="#F0F0F0"/>
<path d="M409.499 270.117H421.961V257.655H409.499V270.117Z" fill="#FAFAFA"/>
<path d="M395.387 270.117H407.85V257.655H395.387V270.117Z" fill="#F0F0F0"/>
<path d="M381.276 270.117H393.738V257.655H381.276V270.117Z" fill="#FAFAFA"/>
<path d="M409.499 284.025H421.961V271.563H409.499V284.025Z" fill="#F0F0F0"/>
<path d="M395.387 284.025H407.85V271.563H395.387V284.025Z" fill="#F0F0F0"/>
<path d="M381.276 284.025H393.738V271.563H381.276V284.025Z" fill="#FAFAFA"/>
<path d="M409.499 297.946H421.961V285.484H409.499V297.946Z" fill="#FAFAFA"/>
<path d="M395.387 297.946H407.85V285.484H395.387V297.946Z" fill="#F0F0F0"/>
<path d="M381.276 297.944H393.738V285.482H381.276V297.944Z" fill="#FAFAFA"/>
<path d="M409.499 311.854H421.961V299.391H409.499V311.854Z" fill="#FAFAFA"/>
<path d="M395.387 311.854H407.85V299.391H395.387V311.854Z" fill="#FAFAFA"/>
<path d="M381.276 311.854H393.738V299.391H381.276V311.854Z" fill="#FAFAFA"/>
<path d="M409.499 325.773H421.961V313.311H409.499V325.773Z" fill="#F0F0F0"/>
<path d="M395.387 325.773H407.85V313.311H395.387V325.773Z" fill="#FAFAFA"/>
<path d="M381.276 325.773H393.738V313.311H381.276V325.773Z" fill="#F0F0F0"/>
<path d="M409.499 339.682H421.961V327.219H409.499V339.682Z" fill="#FAFAFA"/>
<path d="M395.387 339.682H407.85V327.219H395.387V339.682Z" fill="#F0F0F0"/>
<path d="M381.276 339.682H393.738V327.219H381.276V339.682Z" fill="#FAFAFA"/>
<path d="M409.499 353.6H421.961V341.137H409.499V353.6Z" fill="#F0F0F0"/>
<path d="M395.387 353.6H407.85V341.137H395.387V353.6Z" fill="#FAFAFA"/>
<path d="M381.276 353.6H393.738V341.137H381.276V353.6Z" fill="#FAFAFA"/>
<path d="M140.506 373.307H186.095V180.409L140.506 185.29V373.307Z" fill="#F5F5F5"/>
<path d="M171.171 200.994H183.633V188.532H171.171V200.994Z" fill="#FAFAFA"/>
<path d="M157.071 200.991H169.533V188.529H157.071V200.991Z" fill="#F0F0F0"/>
<path d="M142.96 200.991H155.422V188.529H142.96V200.991Z" fill="#FAFAFA"/>
<path d="M171.171 214.902H183.633V202.44H171.171V214.902Z" fill="#FAFAFA"/>
<path d="M157.071 214.902H169.533V202.44H157.071V214.902Z" fill="#FAFAFA"/>
<path d="M142.96 214.902H155.422V202.44H142.96V214.902Z" fill="#FAFAFA"/>
<path d="M171.171 228.821H183.633V216.359H171.171V228.821Z" fill="#FAFAFA"/>
<path d="M157.071 228.821H169.533V216.359H157.071V228.821Z" fill="#F0F0F0"/>
<path d="M142.96 228.821H155.422V216.359H142.96V228.821Z" fill="#FAFAFA"/>
<path d="M171.171 242.741H183.633V230.279H171.171V242.741Z" fill="#F0F0F0"/>
<path d="M157.071 242.741H169.533V230.279H157.071V242.741Z" fill="#FAFAFA"/>
<path d="M142.96 242.741H155.422V230.279H142.96V242.741Z" fill="#FAFAFA"/>
<path d="M171.171 256.661H183.633V244.199H171.171V256.661Z" fill="#FAFAFA"/>
<path d="M157.071 256.661H169.533V244.199H157.071V256.661Z" fill="#FAFAFA"/>
<path d="M142.96 256.661H155.422V244.199H142.96V256.661Z" fill="#F0F0F0"/>
<path d="M171.171 270.568H183.633V258.106H171.171V270.568Z" fill="#FAFAFA"/>
<path d="M157.071 270.568H169.533V258.106H157.071V270.568Z" fill="#F0F0F0"/>
<path d="M142.96 270.568H155.422V258.106H142.96V270.568Z" fill="#FAFAFA"/>
<path d="M171.171 284.478H183.633V272.015H171.171V284.478Z" fill="#F0F0F0"/>
<path d="M157.071 284.478H169.533V272.015H157.071V284.478Z" fill="#F0F0F0"/>
<path d="M142.96 284.478H155.422V272.015H142.96V284.478Z" fill="#FAFAFA"/>
<path d="M171.171 298.398H183.633V285.936H171.171V298.398Z" fill="#FAFAFA"/>
<path d="M157.071 298.396H169.533V285.933H157.071V298.396Z" fill="#F0F0F0"/>
<path d="M142.96 298.396H155.422V285.933H142.96V298.396Z" fill="#FAFAFA"/>
<path d="M171.171 312.306H183.633V299.844H171.171V312.306Z" fill="#FAFAFA"/>
<path d="M157.071 312.304H169.533V299.842H157.071V312.304Z" fill="#FAFAFA"/>
<path d="M142.96 312.304H155.422V299.842H142.96V312.304Z" fill="#FAFAFA"/>
<path d="M171.171 326.226H183.633V313.763H171.171V326.226Z" fill="#F0F0F0"/>
<path d="M157.071 326.226H169.533V313.763H157.071V326.226Z" fill="#FAFAFA"/>
<path d="M142.96 326.226H155.422V313.763H142.96V326.226Z" fill="#F0F0F0"/>
<path d="M171.171 340.133H183.633V327.671H171.171V340.133Z" fill="#FAFAFA"/>
<path d="M157.071 340.133H169.533V327.671H157.071V340.133Z" fill="#F0F0F0"/>
<path d="M142.96 340.133H155.422V327.671H142.96V340.133Z" fill="#FAFAFA"/>
<path d="M171.171 354.054H183.633V341.592H171.171V354.054Z" fill="#F0F0F0"/>
<path d="M157.071 354.054H169.533V341.592H157.071V354.054Z" fill="#FAFAFA"/>
<path d="M142.96 354.054H155.422V341.592H142.96V354.054Z" fill="#FAFAFA"/>
<path d="M371.186 71.4021C369.736 71.3775 368.323 71.8656 367.198 72.7805C367.441 71.5306 367.441 70.2455 367.198 68.9955C366.58 66.0254 364.985 63.3482 362.666 61.3921C360.347 59.436 357.44 58.314 354.408 58.2056C352.705 58.1858 351.027 58.6228 349.55 59.471C348.42 57.4129 346.776 55.6832 344.778 54.4514C342.779 53.2195 340.496 52.5276 338.15 52.4434C332.161 52.4434 328.196 57.3017 329.269 63.2785C329.36 63.7686 329.485 64.2518 329.642 64.7247C328.687 64.4692 327.704 64.3363 326.716 64.3293C320.739 64.3293 316.762 69.1763 317.846 75.1645C318.454 78.1411 320.044 80.8272 322.362 82.792C324.679 84.7568 327.589 85.8865 330.625 85.9997H373.807C374.717 86.0309 375.622 85.852 376.451 85.4769C377.28 85.1017 378.012 84.5403 378.589 83.8364C379.166 83.1325 379.573 82.3051 379.778 81.4183C379.984 80.5315 379.982 79.6094 379.773 78.7235C379.373 76.7155 378.308 74.9009 376.75 73.5725C375.192 72.2441 373.232 71.4795 371.186 71.4021Z" fill="#FAFAFA"/>
<path d="M282.462 417.167C403.448 417.167 501.527 411.44 501.527 404.377C501.527 397.313 403.448 391.587 282.462 391.587C161.475 391.587 63.3965 397.313 63.3965 404.377C63.3965 411.44 161.475 417.167 282.462 417.167Z" fill="#F5F5F5"/>
<path d="M506.065 427.162C627.051 427.162 725.13 421.435 725.13 414.372C725.13 407.308 627.051 401.582 506.065 401.582C385.079 401.582 287 407.308 287 414.372C287 421.435 385.079 427.162 506.065 427.162Z" fill="#F5F5F5"/>
<path d="M413.577 218.484H403.815C401.089 218.481 398.475 217.397 396.548 215.469C394.62 213.542 393.536 210.928 393.533 208.202V198.429C393.536 195.703 394.62 193.09 396.548 191.162C398.475 189.235 401.089 188.15 403.815 188.147H413.577C416.304 188.15 418.918 189.234 420.847 191.161C422.777 193.089 423.863 195.702 423.869 198.429V208.202C423.863 210.929 422.777 213.543 420.847 215.47C418.918 217.397 416.304 218.481 413.577 218.484ZM403.815 191.142C401.883 191.145 400.031 191.913 398.665 193.279C397.299 194.645 396.53 196.497 396.527 198.429V208.202C396.527 210.135 397.295 211.989 398.662 213.355C400.028 214.722 401.882 215.49 403.815 215.49H413.577C415.509 215.49 417.363 214.722 418.73 213.355C420.096 211.989 420.864 210.135 420.864 208.202V198.429C420.861 196.497 420.092 194.645 418.726 193.279C417.36 191.913 415.508 191.145 413.577 191.142H403.815Z" fill="#D75337"/>
<g opacity="0.6">
<path d="M413.577 218.484H403.815C401.089 218.481 398.475 217.397 396.548 215.469C394.62 213.542 393.536 210.928 393.533 208.202V198.429C393.536 195.703 394.62 193.09 396.548 191.162C398.475 189.235 401.089 188.15 403.815 188.147H413.577C416.304 188.15 418.918 189.234 420.847 191.161C422.777 193.089 423.863 195.702 423.869 198.429V208.202C423.863 210.929 422.777 213.543 420.847 215.47C418.918 217.397 416.304 218.481 413.577 218.484ZM403.815 191.142C401.883 191.145 400.031 191.913 398.665 193.279C397.299 194.645 396.53 196.497 396.527 198.429V208.202C396.527 210.135 397.295 211.989 398.662 213.355C400.028 214.722 401.882 215.49 403.815 215.49H413.577C415.509 215.49 417.363 214.722 418.73 213.355C420.096 211.989 420.864 210.135 420.864 208.202V198.429C420.861 196.497 420.092 194.645 418.726 193.279C417.36 191.913 415.508 191.145 413.577 191.142H403.815Z" fill="white"/>
</g>
<path d="M407.638 211.66L393.391 197.424L397.628 193.175L407.638 203.186L425.772 185.052L430.009 189.289L407.638 211.66Z" fill="#D75337"/>
<path d="M198.352 109.126H189.72C187.329 109.108 185.04 108.15 183.349 106.459C181.657 104.768 180.699 102.479 180.682 100.087V91.4439C180.685 89.0423 181.636 86.7391 183.329 85.0357C185.022 83.3323 187.319 82.3665 189.72 82.3486H198.352C200.764 82.3516 203.075 83.3108 204.78 85.0159C206.485 86.7209 207.445 89.0326 207.448 91.4439V100.008C207.449 101.204 207.215 102.388 206.759 103.494C206.302 104.599 205.633 105.604 204.788 106.451C203.944 107.297 202.941 107.969 201.836 108.428C200.732 108.887 199.548 109.124 198.352 109.126ZM189.72 84.9473C188.011 84.9473 186.372 85.6254 185.163 86.8328C183.953 88.0403 183.272 89.6783 183.269 91.3874V100.008C183.272 101.717 183.953 103.355 185.163 104.563C186.372 105.77 188.011 106.448 189.72 106.448H198.352C200.06 106.448 201.698 105.77 202.906 104.562C204.114 103.354 204.792 101.716 204.792 100.008V91.3648C204.792 89.6568 204.114 88.0187 202.906 86.8109C201.698 85.6032 200.06 84.9247 198.352 84.9247L189.72 84.9473Z" fill="#D75337"/>
<g opacity="0.6">
<path d="M198.356 109.127H189.724C187.333 109.109 185.044 108.151 183.353 106.46C181.661 104.769 180.703 102.48 180.686 100.088V91.4448C180.688 89.0433 181.64 86.7401 183.333 85.0367C185.026 83.3333 187.323 82.3675 189.724 82.3496H198.356C200.768 82.3526 203.079 83.3118 204.784 85.0168C206.489 86.7219 207.449 89.0335 207.452 91.4448V100.009C207.453 101.205 207.219 102.389 206.763 103.495C206.306 104.6 205.637 105.605 204.792 106.452C203.948 107.298 202.945 107.97 201.84 108.429C200.736 108.888 199.552 109.125 198.356 109.127ZM189.724 84.9482C188.015 84.9482 186.376 85.6264 185.166 86.8338C183.957 88.0412 183.276 89.6793 183.273 91.3883V100.009C183.276 101.718 183.957 103.356 185.166 104.564C186.376 105.771 188.015 106.449 189.724 106.449H198.356C200.064 106.449 201.702 105.771 202.91 104.563C204.118 103.355 204.796 101.717 204.796 100.009V91.3658C204.796 89.6577 204.118 88.0197 202.91 86.8119C201.702 85.6042 200.064 84.9256 198.356 84.9256L189.724 84.9482Z" fill="white"/>
</g>
<path d="M193.09 103.081L180.504 90.4945L184.244 86.7434L193.09 95.5901L209.123 79.5576L212.874 83.3087L193.09 103.081Z" fill="#D75337"/>
<path d="M451.938 96.1664C443.057 94.0617 434.634 90.3555 427.082 85.2295C419.531 90.3575 411.107 94.0639 402.225 96.1664C398.98 96.9382 395.689 97.508 392.373 97.8724C392.373 98.0193 392.373 98.1775 392.373 98.3244C392.373 128.83 406.067 150.128 427.093 166.782C448.119 150.128 461.813 128.841 461.813 98.3244C461.813 98.1775 461.813 98.0193 461.813 97.8724C458.489 97.5084 455.191 96.9387 451.938 96.1664Z" fill="#D75337"/>
<path opacity="0.1" d="M427.082 85.2295C419.531 90.3575 411.107 94.0639 402.225 96.1664C398.98 96.9382 395.689 97.508 392.373 97.8724C392.373 98.0193 392.373 98.1775 392.373 98.3244C392.373 128.83 406.067 150.128 427.093 166.782L427.082 85.2295Z" fill="black"/>
<g opacity="0.5">
<path d="M427.085 161.247L426.159 160.456C407.211 144.231 397.913 125.951 396.783 102.902L396.727 101.636L397.969 101.422C399.755 101.117 401.54 100.755 403.257 100.292C411.406 98.3615 419.2 95.1587 426.351 90.8011L427.097 90.3379L427.842 90.8011C434.995 95.1567 442.788 98.3594 450.936 100.292C452.676 100.71 454.45 101.071 456.224 101.422L457.478 101.636L457.41 102.902C456.281 125.951 446.971 144.243 428.034 160.456L427.085 161.247ZM399.698 104.02C401.009 125.261 409.742 142.299 427.085 157.473C444.428 142.311 453.162 125.261 454.473 104.02C453.06 103.76 451.648 103.455 450.258 103.116C442.103 101.183 434.29 98.021 427.085 93.7387C419.882 98.0229 412.068 101.185 403.912 103.116C402.534 103.455 401.099 103.749 399.698 104.02Z" fill="white"/>
</g>
<path opacity="0.9" d="M427.079 157.474C409.736 142.3 401.002 125.262 399.692 104.021C401.115 103.75 402.528 103.456 403.906 103.117C412.062 101.185 419.876 98.0233 427.079 93.7391V90.3496L426.333 90.8128C419.182 95.1704 411.388 98.3733 403.239 100.304C401.522 100.722 399.737 101.083 397.952 101.433L396.709 101.648L396.765 102.913C397.895 125.962 407.205 144.243 426.141 160.468L427.068 161.259L427.079 157.474Z" fill="#F0F0F0"/>
<g opacity="0.2">
<path d="M425.114 139.145L409.918 123.938L414.437 119.418L425.114 130.095L444.469 110.741L448.999 115.261L425.114 139.145Z" fill="#D75337"/>
</g>
<g opacity="0.9">
<path d="M425.114 139.145L409.918 123.938L414.437 119.418L425.114 130.095L444.469 110.741L448.999 115.261L425.114 139.145Z" fill="white"/>
</g>
<path d="M361.598 84.1211H322.133V120.807H361.598V84.1211Z" fill="#D75337"/>
<path opacity="0.3" d="M361.598 84.1211H322.133V120.807H361.598V84.1211Z" fill="white"/>
<path d="M379.11 84.1211H359.383V120.807H379.11V84.1211Z" fill="#D75337"/>
<path d="M348.051 91.3184H335.656V120.807H348.051V91.3184Z" fill="#263238"/>
<path d="M338.752 91.3184H335.656V120.807H338.752V91.3184Z" fill="#D75337"/>
<path d="M337.317 115.914H234.535V407.865H337.317V115.914Z" fill="#D75337"/>
<path opacity="0.6" d="M337.317 115.914H234.535V407.865H337.317V115.914Z" fill="white"/>
<path d="M335.779 115.914V159.085H313.104V168.655H335.779V205.657H313.104V215.227H335.779V252.23H313.104V261.799H335.779V298.802H313.104V308.371H335.779V345.374H313.104V354.943H335.779V407.865H384.374V115.914H335.779Z" fill="#D75337"/>
<path opacity="0.2" d="M335.779 115.914V159.085H313.104V168.655H335.779V205.657H313.104V215.227H335.779V252.23H313.104V261.799H335.779V298.802H313.104V308.371H335.779V345.374H313.104V354.943H335.779V407.865H384.374V115.914H335.779Z" fill="white"/>
<path d="M314.381 345.374H220.141V354.944H314.381V345.374Z" fill="#D75337"/>
<path d="M314.381 298.802H220.141V308.372H314.381V298.802Z" fill="#D75337"/>
<path d="M314.381 252.231H220.141V261.801H314.381V252.231Z" fill="#D75337"/>
<path d="M314.381 205.658H220.141V215.228H314.381V205.658Z" fill="#D75337"/>
<path d="M314.381 159.086H220.141V168.656H314.381V159.086Z" fill="#D75337"/>
<g opacity="0.4">
<path d="M314.381 345.372H220.141V354.942H314.381V345.372Z" fill="white"/>
<path d="M314.381 298.802H220.141V308.372H314.381V298.802Z" fill="white"/>
<path d="M314.381 252.23H220.141V261.8H314.381V252.23Z" fill="white"/>
<path d="M314.381 205.657H220.141V215.227H314.381V205.657Z" fill="white"/>
<path d="M314.381 159.085H220.141V168.655H314.381V159.085Z" fill="white"/>
</g>
<path d="M315.95 365.404H255.91V407.864H315.95V365.404Z" fill="#D75337"/>
<path d="M268.115 127.178H243.236V152.057H268.115V127.178Z" fill="#D75337"/>
<path d="M297.783 127.178H272.904V152.057H297.783V127.178Z" fill="#D75337"/>
<path opacity="0.7" d="M327.451 127.178H302.572V152.057H327.451V127.178Z" fill="white"/>
<path opacity="0.7" d="M268.115 174.713H243.236V199.592H268.115V174.713Z" fill="white"/>
<path d="M297.783 174.71H272.904V199.589H297.783V174.71Z" fill="#D75337"/>
<path opacity="0.7" d="M327.451 174.713H302.572V199.592H327.451V174.713Z" fill="white"/>
<path opacity="0.7" d="M268.115 221.284H243.236V246.163H268.115V221.284Z" fill="white"/>
<path opacity="0.7" d="M297.783 221.283H272.904V246.162H297.783V221.283Z" fill="white"/>
<path d="M327.451 221.284H302.572V246.163H327.451V221.284Z" fill="#D75337"/>
<path opacity="0.7" d="M268.115 267.854H243.236V292.734H268.115V267.854Z" fill="white"/>
<path d="M297.783 267.854H272.904V292.734H297.783V267.854Z" fill="#D75337"/>
<path opacity="0.7" d="M327.451 267.854H302.572V292.734H327.451V267.854Z" fill="white"/>
<path d="M268.115 314.438H243.236V339.318H268.115V314.438Z" fill="#D75337"/>
<path d="M297.783 314.438H272.904V339.318H297.783V314.438Z" fill="#D75337"/>
<path opacity="0.7" d="M327.451 314.438H302.572V339.318H327.451V314.438Z" fill="white"/>
<path d="M245.858 127.178H243.236V152.057H245.858V127.178Z" fill="#D75337"/>
<path d="M275.526 127.178H272.904V152.057H275.526V127.178Z" fill="#D75337"/>
<path d="M305.194 127.178H302.572V152.057H305.194V127.178Z" fill="#D75337"/>
<path d="M245.858 174.713H243.236V199.592H245.858V174.713Z" fill="#D75337"/>
<path d="M275.526 174.71H272.904V199.589H275.526V174.71Z" fill="#D75337"/>
<path d="M305.194 174.713H302.572V199.592H305.194V174.713Z" fill="#D75337"/>
<path d="M245.858 221.284H243.236V246.163H245.858V221.284Z" fill="#D75337"/>
<path d="M275.526 221.283H272.904V246.162H275.526V221.283Z" fill="#D75337"/>
<path d="M305.194 221.284H302.572V246.163H305.194V221.284Z" fill="#D75337"/>
<path d="M245.858 267.854H243.236V292.734H245.858V267.854Z" fill="#D75337"/>
<path d="M275.526 267.854H272.904V292.734H275.526V267.854Z" fill="#D75337"/>
<path d="M305.194 267.854H302.572V292.734H305.194V267.854Z" fill="#D75337"/>
<path d="M245.858 314.438H243.236V339.318H245.858V314.438Z" fill="#D75337"/>
<path d="M275.526 314.438H272.904V339.318H275.526V314.438Z" fill="#D75337"/>
<path d="M305.194 314.438H302.572V339.318H305.194V314.438Z" fill="#D75337"/>
<g opacity="0.2">
<path d="M245.858 127.178H243.236V152.057H245.858V127.178Z" fill="black"/>
<path d="M275.531 127.178H272.91V152.057H275.531V127.178Z" fill="black"/>
<path d="M305.195 127.178H302.574V152.057H305.195V127.178Z" fill="black"/>
<path d="M245.858 174.71H243.236V199.589H245.858V174.71Z" fill="black"/>
<path d="M275.531 174.71H272.91V199.589H275.531V174.71Z" fill="black"/>
<path d="M305.195 174.71H302.574V199.589H305.195V174.71Z" fill="black"/>
<path d="M245.858 221.282H243.236V246.161H245.858V221.282Z" fill="black"/>
<path d="M275.531 221.281H272.91V246.16H275.531V221.281Z" fill="black"/>
<path d="M305.195 221.281H302.574V246.16H305.195V221.281Z" fill="black"/>
<path d="M245.858 267.855H243.236V292.735H245.858V267.855Z" fill="black"/>
<path d="M275.531 267.854H272.91V292.733H275.531V267.854Z" fill="black"/>
<path d="M305.195 267.854H302.574V292.733H305.195V267.854Z" fill="black"/>
<path d="M245.858 314.438H243.236V339.318H245.858V314.438Z" fill="black"/>
<path d="M275.531 314.438H272.91V339.318H275.531V314.438Z" fill="black"/>
<path d="M305.195 314.438H302.574V339.318H305.195V314.438Z" fill="black"/>
</g>
<path opacity="0.4" d="M313.082 368.277H285.932V407.867H313.082V368.277Z" fill="white"/>
<path opacity="0.7" d="M285.931 368.277H258.781V407.867H285.931V368.277Z" fill="white"/>
<path d="M261.651 368.277H258.781V407.867H261.651V368.277Z" fill="#D75337"/>
<path opacity="0.2" d="M261.651 368.277H258.781V407.867H261.651V368.277Z" fill="black"/>
</svg>
