<svg width="589" height="440" viewBox="0 0 589 440" fill="none" xmlns="http://www.w3.org/2000/svg">
<path d="M589 386.259H0V386.553H589V386.259Z" fill="#EBEBEB"/>
<path d="M529.982 405.212H490.967V405.506H529.982V405.212Z" fill="#EBEBEB"/>
<path d="M390.176 408.416H379.939V408.711H390.176V408.416Z" fill="#EBEBEB"/>
<path d="M489.789 394.281H467.184V394.576H489.789V394.281Z" fill="#EBEBEB"/>
<path d="M112.677 396.261H61.7988V396.555H112.677V396.261Z" fill="#EBEBEB"/>
<path d="M130.629 396.261H123.172V396.555H130.629V396.261Z" fill="#EBEBEB"/>
<path d="M265.226 401.232H154.871V401.527H265.226V401.232Z" fill="#EBEBEB"/>
<path d="M279.186 333.72H51.7263C49.9444 333.717 48.2366 333.007 46.9777 331.746C45.7188 330.485 45.0117 328.776 45.0117 326.994V7.24951C45.0272 5.47783 45.7411 3.78381 46.9983 2.53541C48.2556 1.28702 49.9546 0.585066 51.7263 0.582031H279.186C280.97 0.582031 282.681 1.2907 283.943 2.55214C285.204 3.81358 285.913 5.52446 285.913 7.30841V326.994C285.913 328.778 285.204 330.489 283.943 331.75C282.681 333.012 280.97 333.72 279.186 333.72ZM51.7263 0.817632C50.0225 0.820753 48.3896 1.49977 47.1859 2.70564C45.9822 3.91152 45.3062 5.54571 45.3062 7.24951V326.994C45.3062 328.698 45.9822 330.332 47.1859 331.538C48.3896 332.744 50.0225 333.423 51.7263 333.426H279.186C280.891 333.423 282.525 332.744 283.731 331.539C284.936 330.333 285.615 328.699 285.618 326.994V7.24951C285.615 5.54463 284.936 3.91046 283.731 2.70492C282.525 1.49939 280.891 0.820746 279.186 0.817632H51.7263Z" fill="#EBEBEB"/>
<path d="M533.999 333.72H306.527C304.744 333.717 303.035 333.008 301.774 331.747C300.514 330.486 299.804 328.777 299.801 326.994V7.24951C299.819 5.47676 300.536 3.78275 301.795 2.53468C303.054 1.2866 304.754 0.585033 306.527 0.582031H533.999C535.769 0.588162 537.465 1.29148 538.719 2.53955C539.974 3.78761 540.686 5.47986 540.702 7.24951V326.994C540.702 328.774 539.996 330.481 538.74 331.742C537.484 333.003 535.779 333.714 533.999 333.72ZM306.527 0.817632C304.822 0.820746 303.188 1.49939 301.983 2.70492C300.777 3.91046 300.098 5.54463 300.095 7.24951V326.994C300.098 328.699 300.777 330.333 301.983 331.539C303.188 332.744 304.822 333.423 306.527 333.426H533.999C535.704 333.423 537.338 332.744 538.544 331.539C539.749 330.333 540.428 328.699 540.431 326.994V7.24951C540.428 5.54463 539.749 3.91046 538.544 2.70492C537.338 1.49939 535.704 0.820746 533.999 0.817632H306.527Z" fill="#EBEBEB"/>
<path d="M542.387 381.641V303.316H504.667V281.912H486.609V218.971L463.272 195.635H415.929V263.076H350.962V276.411H305.02V258.906H255.673V245.712H217.141V167.575H148.935V217.369H133.232V235.404H96.7259V264.972H77.2183L62.1988 279.992V295.259H47.2617V381.641H542.387Z" fill="#F0F0F0"/>
<path d="M496.445 303.316H504.02L504.668 302.88V303.316H542.387V381.641H496.445V303.316Z" fill="#E6E6E6"/>
<path d="M417.047 281.452H424.621L425.269 280.887V281.452H463.001V381.641H417.047V281.452Z" fill="#E6E6E6"/>
<path d="M304.372 264.594V276.409H306.233L308.212 289.038L302.617 381.64H240.383V258.904H255.025H303.477L304.372 264.594Z" fill="#E6E6E6"/>
<path d="M159.489 235.405V381.642H46.6133V295.259L61.5503 295.884V265.008L76.5698 264.973H96.0775V235.405H129.203H132.572H159.489Z" fill="#E6E6E6"/>
<path d="M76.4997 279.743H83.3203V272.923H76.4997V279.743Z" fill="white"/>
<path d="M88.5505 279.743H95.3711V272.923H88.5505V279.743Z" fill="white"/>
<path d="M76.4997 292.456H83.3203V285.635H76.4997V292.456Z" fill="white"/>
<path d="M88.5505 292.456H95.3711V285.635H88.5505V292.456Z" fill="white"/>
<path d="M113.736 247.727H120.557V240.906H113.736V247.727Z" fill="white"/>
<path d="M125.787 247.727H132.607V240.906H125.787V247.727Z" fill="white"/>
<path d="M504.349 321.174H511.17V314.353H504.349V321.174Z" fill="white"/>
<path d="M516.4 321.174H523.221V314.353H516.4V321.174Z" fill="white"/>
<path d="M255.061 285.765V278.944H248.24V285.765H255.061Z" fill="white"/>
<path d="M255.061 273.713V266.893H248.24V273.713H255.061Z" fill="white"/>
<path d="M134.55 279.743H141.371V272.923H134.55V279.743Z" fill="white"/>
<path d="M146.601 279.743H153.422V272.923H146.601V279.743Z" fill="white"/>
<path d="M459.584 230.327H466.404V223.507H459.584V230.327Z" fill="white"/>
<path d="M471.648 230.327H478.469V223.507H471.648V230.327Z" fill="white"/>
<path d="M471.648 243.036H478.469V236.216H471.648V243.036Z" fill="white"/>
<path d="M528.004 176.186C528.117 175.496 528.176 174.799 528.181 174.101C528.184 172.354 527.842 170.623 527.176 169.008C526.51 167.393 525.531 165.926 524.297 164.689C523.063 163.453 521.597 162.472 519.983 161.803C518.37 161.134 516.64 160.789 514.893 160.789C514.17 160.792 513.449 160.856 512.737 160.978C511.216 158.436 508.984 156.396 506.315 155.11C503.647 153.824 500.66 153.348 497.725 153.742C494.789 154.135 492.033 155.381 489.798 157.324C487.563 159.268 485.946 161.824 485.148 164.677C484.2 164.377 483.21 164.226 482.215 164.229C480.921 164.231 479.64 164.487 478.445 164.984C477.25 165.481 476.164 166.209 475.251 167.126C474.337 168.043 473.613 169.131 473.121 170.327C472.628 171.524 472.376 172.806 472.379 174.101C472.382 174.801 472.457 175.5 472.603 176.186H528.004Z" fill="#F0F0F0"/>
<path d="M107.198 198.628C107.278 198.133 107.321 197.633 107.328 197.132C107.331 195.746 107.032 194.376 106.452 193.117C105.871 191.858 105.023 190.741 103.967 189.844C102.91 188.947 101.671 188.291 100.335 187.922C98.9985 187.553 97.5981 187.48 96.2309 187.708C95.1381 185.881 93.5334 184.414 91.6156 183.49C89.6977 182.565 87.5509 182.224 85.4409 182.507C83.3308 182.79 81.3502 183.686 79.7442 185.084C78.1381 186.481 76.9772 188.319 76.4051 190.37C75.7227 190.157 75.0115 190.049 74.2965 190.052C72.422 190.052 70.6242 190.797 69.2987 192.122C67.9732 193.448 67.2285 195.245 67.2285 197.12C67.229 197.623 67.2843 198.125 67.3934 198.616L107.198 198.628Z" fill="#F0F0F0"/>
<path d="M214.491 50.7287C214.686 49.5606 214.789 48.3789 214.797 47.1947C214.81 41.1388 212.417 35.3258 208.145 31.0337C203.872 26.7416 198.071 24.3218 192.015 24.3062C190.775 24.3145 189.538 24.4248 188.316 24.636C185.701 20.2681 181.863 16.7623 177.277 14.5519C172.692 12.3415 167.558 11.5236 162.513 12.1991C157.467 12.8746 152.73 15.014 148.887 18.3529C145.044 21.6917 142.263 26.0835 140.89 30.9854C138.356 30.1969 135.672 30.0151 133.056 30.4546C130.439 30.8942 127.962 31.9427 125.825 33.5157C123.688 35.0886 121.951 37.1419 120.753 39.5099C119.556 41.8778 118.932 44.4941 118.932 47.1476C118.938 48.3359 119.068 49.5203 119.32 50.6816L214.491 50.7287Z" fill="#F0F0F0"/>
<path d="M292.213 439.458C418.356 439.458 520.615 433.488 520.615 426.123C520.615 418.758 418.356 412.788 292.213 412.788C166.07 412.788 63.8105 418.758 63.8105 426.123C63.8105 433.488 166.07 439.458 292.213 439.458Z" fill="#F5F5F5"/>
<path d="M113.206 82.2881H145.884C149.806 82.2974 153.565 83.8588 156.34 86.6312C159.115 89.4036 160.679 93.1615 160.692 97.0838V127.382H115.362C111.44 127.369 107.682 125.805 104.91 123.03C102.137 120.256 100.576 116.497 100.566 112.574V94.9045C100.573 91.5562 101.907 88.3473 104.277 85.9819C106.647 83.6165 109.858 82.2881 113.206 82.2881Z" fill="#D75337"/>
<path d="M160.692 123.06V136.018L147.145 122.471L160.692 123.06Z" fill="#D75337"/>
<g opacity="0.6">
<path d="M113.206 82.2881H145.884C149.806 82.2974 153.565 83.8588 156.34 86.6312C159.115 89.4036 160.679 93.1615 160.692 97.0838V127.382H115.362C111.44 127.369 107.682 125.805 104.91 123.03C102.137 120.256 100.576 116.497 100.566 112.574V94.9045C100.573 91.5562 101.907 88.3473 104.277 85.9819C106.647 83.6165 109.858 82.2881 113.206 82.2881Z" fill="white"/>
<path d="M160.692 123.059V136.017L147.145 122.47L160.692 123.059Z" fill="white"/>
</g>
<path d="M478.48 106.012C470.016 106.012 461.742 103.502 454.704 98.7999C447.666 94.0973 442.181 87.4134 438.941 79.5933C435.702 71.7732 434.855 63.1682 436.506 54.8665C438.157 46.5647 442.233 38.9391 448.219 32.9538C454.204 26.9686 461.829 22.8926 470.131 21.2413C478.433 19.59 487.038 20.4375 494.858 23.6767C502.678 26.9159 509.362 32.4012 514.065 39.4391C518.767 46.477 521.277 54.7513 521.277 63.2157C521.265 74.5623 516.752 85.4406 508.728 93.4638C500.705 101.487 489.827 106 478.48 106.012ZM478.48 26.3207C471.18 26.3207 464.044 28.4856 457.975 32.5415C451.905 36.5974 447.175 42.3621 444.382 49.1066C441.589 55.8511 440.859 63.2724 442.284 70.432C443.709 77.5915 447.225 84.1676 452.388 89.3287C457.55 94.4897 464.127 98.0038 471.287 99.4265C478.447 100.849 485.868 100.117 492.612 97.3215C499.356 94.5263 505.119 89.794 509.173 83.7232C513.227 77.6524 515.389 70.5157 515.387 63.2157C515.375 53.4323 511.482 44.0534 504.563 37.1366C497.644 30.2199 488.264 26.3301 478.48 26.3207Z" fill="#D75337"/>
<path d="M477.762 76.582L463 62.8498L465.737 60.0957L477.034 70.5995L491.669 48.582L495 50.6476L477.762 76.582Z" fill="#D75337"/>
<g opacity="0.8">
<path d="M478.48 106.012C470.016 106.012 461.742 103.502 454.704 98.7999C447.666 94.0973 442.181 87.4134 438.941 79.5933C435.702 71.7732 434.855 63.1682 436.506 54.8665C438.157 46.5647 442.233 38.9391 448.219 32.9538C454.204 26.9686 461.829 22.8926 470.131 21.2413C478.433 19.59 487.038 20.4375 494.858 23.6767C502.678 26.9159 509.362 32.4012 514.065 39.4391C518.767 46.477 521.277 54.7513 521.277 63.2157C521.265 74.5623 516.752 85.4406 508.728 93.4638C500.705 101.487 489.827 106 478.48 106.012ZM478.48 26.3207C471.18 26.3207 464.044 28.4856 457.975 32.5415C451.905 36.5974 447.175 42.3621 444.382 49.1066C441.589 55.8511 440.859 63.2724 442.284 70.432C443.709 77.5915 447.225 84.1676 452.388 89.3287C457.55 94.4897 464.127 98.0038 471.287 99.4265C478.447 100.849 485.868 100.117 492.612 97.3215C499.356 94.5263 505.119 89.794 509.173 83.7232C513.227 77.6524 515.389 70.5157 515.387 63.2157C515.375 53.4323 511.482 44.0534 504.563 37.1366C497.644 30.2199 488.264 26.3301 478.48 26.3207Z" fill="white"/>
</g>
<path d="M373.954 55.5606L214.924 55.6901C210.238 55.6901 205.743 57.5518 202.429 60.8656C199.116 64.1793 197.254 68.6738 197.254 73.3601L197.537 405.014C197.537 409.701 199.398 414.195 202.712 417.509C206.026 420.823 210.52 422.684 215.207 422.684L374.237 422.543C378.923 422.543 383.417 420.681 386.731 417.367C390.045 414.054 391.907 409.559 391.907 404.873L391.636 73.2188C391.634 70.8983 391.176 68.6009 390.286 66.4577C389.397 64.3144 388.094 62.3674 386.452 60.7276C384.81 59.0879 382.861 57.7877 380.717 56.9011C378.572 56.0145 376.274 55.559 373.954 55.5606Z" fill="#263238"/>
<path d="M373.472 407.936L216.067 408.066C214.505 408.066 213.007 407.445 211.902 406.341C210.798 405.236 210.177 403.738 210.177 402.176L209.895 74.2208C209.895 72.6586 210.515 71.1605 211.62 70.0559C212.724 68.9513 214.222 68.3308 215.785 68.3308L373.177 68.2012C374.739 68.2012 376.237 68.8217 377.342 69.9263C378.447 71.0309 379.067 72.529 379.067 74.0912L379.338 402.046C379.338 403.604 378.721 405.099 377.621 406.203C376.522 407.307 375.03 407.93 373.472 407.936Z" fill="#D75337"/>
<path opacity="0.1" d="M308.918 385.188H280.587C277.334 385.188 274.697 387.826 274.697 391.078V392.775C274.697 396.028 277.334 398.665 280.587 398.665H308.918C312.171 398.665 314.808 396.028 314.808 392.775V391.078C314.808 387.826 312.171 385.188 308.918 385.188Z" fill="black"/>
<path opacity="0.1" d="M308.846 286.364H280.515C277.262 286.364 274.625 289.001 274.625 292.254V314.931C274.625 318.184 277.262 320.821 280.515 320.821H308.846C312.099 320.821 314.736 318.184 314.736 314.931V292.254C314.736 289.001 312.099 286.364 308.846 286.364Z" fill="black"/>
<path opacity="0.1" d="M258.91 286.413H230.579C227.326 286.413 224.689 289.05 224.689 292.303V314.98C224.689 318.233 227.326 320.87 230.579 320.87H258.91C262.163 320.87 264.8 318.233 264.8 314.98V292.303C264.8 289.05 262.163 286.413 258.91 286.413Z" fill="black"/>
<path opacity="0.1" d="M358.781 286.331H330.451C327.198 286.331 324.561 288.968 324.561 292.221V314.898C324.561 318.151 327.198 320.788 330.451 320.788H358.781C362.034 320.788 364.671 318.151 364.671 314.898V292.221C364.671 288.968 362.034 286.331 358.781 286.331Z" fill="black"/>
<path opacity="0.1" d="M308.881 330.705H280.55C277.297 330.705 274.66 333.342 274.66 336.595V359.272C274.66 362.525 277.297 365.162 280.55 365.162H308.881C312.134 365.162 314.771 362.525 314.771 359.272V336.595C314.771 333.342 312.134 330.705 308.881 330.705Z" fill="black"/>
<path opacity="0.1" d="M258.947 330.742H230.617C227.364 330.742 224.727 333.379 224.727 336.632V359.309C224.727 362.562 227.364 365.199 230.617 365.199H258.947C262.2 365.199 264.837 362.562 264.837 359.309V336.632C264.837 333.379 262.2 330.742 258.947 330.742Z" fill="black"/>
<path opacity="0.1" d="M358.817 330.658H330.486C327.233 330.658 324.596 333.295 324.596 336.548V359.225C324.596 362.478 327.233 365.115 330.486 365.115H358.817C362.07 365.115 364.707 362.478 364.707 359.225V336.548C364.707 333.295 362.07 330.658 358.817 330.658Z" fill="black"/>
<path opacity="0.1" d="M379.291 322.013L379.185 207.982C336.223 257.294 256.26 349.884 210.318 403.201C210.559 404.563 211.272 405.797 212.332 406.687C213.391 407.577 214.73 408.065 216.114 408.066L304.759 407.995L379.291 322.013Z" fill="white"/>
<path opacity="0.1" d="M210.035 239.199L358.322 68.2236H288.914C270.549 89.2274 239.191 125.463 209.988 159.283L210.035 239.199Z" fill="white"/>
<path opacity="0.1" d="M210.094 310.61L379.113 115.745L379.078 74.0674L210.059 268.932L210.094 310.61Z" fill="white"/>
<path opacity="0.2" d="M215.785 68.2705H373.189C374.751 68.2705 376.249 68.8911 377.354 69.9957C378.458 71.1002 379.079 72.5984 379.079 74.1605V81.5819H209.895V74.1605C209.895 72.5984 210.515 71.1002 211.62 69.9957C212.724 68.8911 214.222 68.2705 215.785 68.2705Z" fill="black"/>
<path opacity="0.6" d="M354.871 78.2122L354.376 77.7174L354.27 77.5996H354.212C354.155 77.5247 354.104 77.446 354.058 77.364C353.807 76.9226 353.677 76.4228 353.681 75.9151C353.681 75.9151 353.681 74.4897 353.681 74.4308C353.677 73.8798 353.507 73.3429 353.194 72.8894C352.881 72.4358 352.44 72.0864 351.926 71.8863C351.926 71.8863 351.926 71.8863 351.926 71.7921C351.926 71.7921 351.926 71.7332 351.926 71.6978V71.6036C351.941 71.4622 351.927 71.3191 351.883 71.1837C351.84 71.0484 351.768 70.9237 351.673 70.8178C351.578 70.712 351.462 70.6273 351.332 70.5694C351.202 70.5114 351.061 70.4814 350.919 70.4814C350.777 70.4814 350.636 70.5114 350.506 70.5694C350.376 70.6273 350.26 70.712 350.165 70.8178C350.07 70.9237 349.998 71.0484 349.955 71.1837C349.911 71.3191 349.896 71.4622 349.912 71.6036V71.6978C349.912 71.6978 349.912 71.7685 349.912 71.7921C349.912 71.7921 349.912 71.7921 349.912 71.8745C349.397 72.0754 348.954 72.4266 348.641 72.8825C348.328 73.3383 348.159 73.8778 348.157 74.4308V75.8562C348.165 76.3846 348.031 76.9056 347.768 77.364C347.708 77.4668 347.641 77.5652 347.568 77.6585L347.462 77.7645L346.967 78.2593C346.909 78.3189 346.869 78.3939 346.853 78.4753C346.836 78.5567 346.843 78.6411 346.873 78.7187C346.905 78.7952 346.959 78.8606 347.028 78.9067C347.097 78.9527 347.178 78.9775 347.261 78.9779H350.018C350.105 79.1323 350.232 79.2607 350.385 79.3501C350.538 79.4394 350.712 79.4865 350.89 79.4865C351.067 79.4865 351.241 79.4394 351.394 79.3501C351.547 79.2607 351.674 79.1323 351.761 78.9779H354.518C354.6 78.9758 354.68 78.9499 354.748 78.9031C354.816 78.8564 354.868 78.791 354.9 78.7148C354.931 78.6386 354.939 78.5549 354.924 78.474C354.908 78.3931 354.87 78.3185 354.812 78.2593L354.871 78.2122Z" fill="white"/>
<g opacity="0.6">
<path opacity="0.6" d="M228.196 78.0442L230.752 78.042L230.749 74.6258L228.193 74.628L228.196 78.0442Z" fill="white"/>
<path opacity="0.6" d="M224.016 78.0657L226.572 78.0635L226.568 73.5046L224.012 73.5068L224.016 78.0657Z" fill="white"/>
<path opacity="0.6" d="M219.858 78.0491L222.414 78.0469L222.409 72.3571L219.853 72.3594L219.858 78.0491Z" fill="white"/>
<path opacity="0.6" d="M215.664 78.0686L218.221 78.0664L218.215 71.234L215.658 71.2362L215.664 78.0686Z" fill="white"/>
</g>
<path opacity="0.6" d="M362.174 73.2656H360.654V76.6818H362.174V73.2656Z" fill="white"/>
<path opacity="0.6" d="M362.16 77.9461L374.258 77.9355L374.253 72.0338L362.155 72.0443L362.16 77.9461Z" fill="white"/>
<path d="M303.299 68.2714C303.301 70.017 302.786 71.724 301.818 73.1765C300.849 74.629 299.472 75.7618 297.86 76.4314C296.248 77.101 294.474 77.2774 292.761 76.9383C291.049 76.5992 289.476 75.7598 288.241 74.5263C287.006 73.2928 286.164 71.7207 285.823 70.0088C285.481 68.297 285.655 66.5223 286.323 64.9094C286.99 63.2965 288.121 61.9178 289.572 60.9478C291.024 59.9777 292.73 59.46 294.476 59.46C296.814 59.46 299.056 60.3879 300.71 62.0401C302.365 63.6922 303.296 65.9334 303.299 68.2714Z" fill="#263238"/>
<path opacity="0.1" d="M299.034 68.2697C299.036 69.1719 298.771 70.0545 298.271 70.8057C297.772 71.557 297.06 72.1431 296.228 72.49C295.395 72.8368 294.478 72.9288 293.593 72.7542C292.708 72.5796 291.894 72.1464 291.255 71.5093C290.617 70.8722 290.181 70.0599 290.004 69.1752C289.828 68.2906 289.917 67.3734 290.262 66.5396C290.607 65.7059 291.191 64.9932 291.941 64.4918C292.691 63.9903 293.573 63.7227 294.475 63.7227C295.682 63.7227 296.84 64.2013 297.694 65.0537C298.549 65.9062 299.031 67.0627 299.034 68.2697Z" fill="#E0E0E0"/>
<path d="M300.07 75.2093C300.07 75.2093 307.209 68.2591 320.544 68.2473L300.059 67.0693L300.07 75.2093Z" fill="#263238"/>
<path d="M288.913 75.2208C288.913 75.2208 281.751 68.2824 268.416 68.2942L288.901 67.1162L288.913 75.2208Z" fill="#263238"/>
<path opacity="0.3" d="M357.569 120.893H244.858C238.352 120.893 233.078 126.167 233.078 132.673V306.392C233.078 312.898 238.352 318.172 244.858 318.172H357.569C364.075 318.172 369.349 312.898 369.349 306.392V132.673C369.349 126.167 364.075 120.893 357.569 120.893Z" fill="black"/>
<path d="M353.598 112.504H240.887C234.382 112.504 229.107 117.778 229.107 124.284V298.004C229.107 304.509 234.382 309.784 240.887 309.784H353.598C360.104 309.784 365.378 304.509 365.378 298.004V124.284C365.378 117.778 360.104 112.504 353.598 112.504Z" fill="white"/>
<path d="M345.847 137.019C344.174 137.019 342.539 136.523 341.148 135.593C339.757 134.664 338.673 133.343 338.032 131.797C337.392 130.252 337.225 128.551 337.551 126.911C337.878 125.27 338.683 123.763 339.866 122.58C341.049 121.397 342.556 120.591 344.197 120.265C345.837 119.939 347.538 120.106 349.083 120.746C350.629 121.387 351.95 122.471 352.879 123.862C353.809 125.252 354.305 126.888 354.305 128.561C354.302 130.803 353.41 132.952 351.824 134.538C350.239 136.123 348.089 137.016 345.847 137.019ZM345.847 121.705C344.479 121.705 343.142 122.11 342.005 122.87C340.868 123.63 339.982 124.71 339.458 125.973C338.935 127.237 338.798 128.627 339.065 129.968C339.332 131.31 339.99 132.542 340.957 133.509C341.924 134.476 343.156 135.135 344.498 135.401C345.839 135.668 347.229 135.531 348.493 135.008C349.756 134.485 350.836 133.598 351.596 132.461C352.356 131.324 352.762 129.987 352.762 128.619C352.769 127.706 352.596 126.801 352.252 125.955C351.908 125.109 351.4 124.34 350.757 123.692C350.114 123.043 349.349 122.529 348.507 122.178C347.664 121.826 346.76 121.646 345.847 121.646V121.705Z" fill="#E0E0E0"/>
<path d="M348.431 124.897L342.184 131.145L343.266 132.227L349.514 125.98L348.431 124.897Z" fill="#E0E0E0"/>
<path d="M343.266 124.907L342.184 125.99L348.431 132.238L349.514 131.155L343.266 124.907Z" fill="#E0E0E0"/>
<path d="M326.527 294.914H269.217C266.093 294.914 263.097 293.673 260.888 291.464C258.679 289.255 257.438 286.259 257.438 283.134C257.438 280.01 258.679 277.014 260.888 274.805C263.097 272.596 266.093 271.354 269.217 271.354H326.527C329.651 271.354 332.648 272.596 334.857 274.805C337.066 277.014 338.307 280.01 338.307 283.134C338.307 286.259 337.066 289.255 334.857 291.464C332.648 293.673 329.651 294.914 326.527 294.914Z" fill="#E0E0E0"/>
<path d="M325.17 292.843H267.86C264.868 292.843 261.999 291.655 259.884 289.539C257.769 287.424 256.58 284.555 256.58 281.563C256.58 278.572 257.769 275.702 259.884 273.587C261.999 271.472 264.868 270.283 267.86 270.283H325.17C328.161 270.283 331.031 271.472 333.146 273.587C335.261 275.702 336.45 278.572 336.45 281.563C336.45 284.555 335.261 287.424 333.146 289.539C331.031 291.655 328.161 292.843 325.17 292.843Z" fill="white" stroke="#D75337"/>
<path d="M327.246 229.664H261.996V233.198H327.246V229.664Z" fill="#E0E0E0"/>
<path d="M327.212 253.873H261.963V257.407H327.212V253.873Z" fill="#F5F5F5"/>
<path d="M340.558 238.31H248.697V244.2H340.558V238.31Z" fill="#E0E0E0"/>
<path d="M275.505 285.266V277.743H278.837C279.302 277.743 279.725 277.851 280.105 278.066C280.484 278.273 280.782 278.556 280.997 278.914C281.219 279.273 281.33 279.681 281.33 280.14C281.33 280.591 281.219 281.003 280.997 281.375C280.782 281.741 280.484 282.031 280.105 282.246C279.725 282.461 279.302 282.568 278.837 282.568H277.063V285.266H275.505ZM279.772 285.266L277.859 281.87L279.514 281.601L281.641 285.276L279.772 285.266ZM277.063 281.257H278.761C278.955 281.257 279.123 281.214 279.267 281.128C279.417 281.035 279.532 280.91 279.61 280.752C279.689 280.587 279.729 280.405 279.729 280.204C279.729 279.989 279.682 279.803 279.589 279.645C279.496 279.488 279.36 279.366 279.181 279.28C279.001 279.187 278.794 279.14 278.557 279.14H277.063V281.257ZM285.302 285.373C284.686 285.373 284.145 285.248 283.68 284.997C283.221 284.746 282.863 284.402 282.605 283.965C282.354 283.528 282.229 283.027 282.229 282.461C282.229 282.017 282.301 281.612 282.444 281.246C282.587 280.881 282.788 280.566 283.046 280.301C283.304 280.029 283.608 279.821 283.959 279.677C284.317 279.527 284.704 279.452 285.12 279.452C285.507 279.452 285.865 279.523 286.194 279.667C286.524 279.81 286.807 280.011 287.043 280.269C287.287 280.519 287.473 280.82 287.602 281.171C287.731 281.515 287.788 281.888 287.774 282.289L287.763 282.762H283.196L282.949 281.827H286.506L286.334 282.02V281.784C286.32 281.59 286.255 281.418 286.141 281.268C286.033 281.11 285.893 280.989 285.722 280.903C285.55 280.809 285.356 280.763 285.141 280.763C284.826 280.763 284.557 280.824 284.335 280.946C284.12 281.067 283.956 281.246 283.841 281.483C283.726 281.719 283.669 282.006 283.669 282.343C283.669 282.686 283.741 282.984 283.884 283.235C284.034 283.485 284.242 283.682 284.507 283.826C284.779 283.962 285.098 284.03 285.464 284.03C285.714 284.03 285.944 283.99 286.151 283.912C286.359 283.833 286.581 283.697 286.818 283.503L287.548 284.524C287.341 284.71 287.111 284.868 286.861 284.997C286.61 285.119 286.352 285.212 286.087 285.276C285.822 285.341 285.56 285.373 285.302 285.373ZM292.824 287.63V283.901L293.136 283.955C293.122 284.134 293.053 284.309 292.932 284.481C292.817 284.646 292.663 284.796 292.47 284.932C292.283 285.069 292.076 285.176 291.846 285.255C291.617 285.334 291.377 285.373 291.126 285.373C290.625 285.373 290.177 285.248 289.783 284.997C289.396 284.739 289.088 284.388 288.859 283.944C288.637 283.5 288.526 282.991 288.526 282.418C288.526 281.845 288.637 281.336 288.859 280.892C289.081 280.448 289.385 280.1 289.772 279.849C290.159 279.592 290.596 279.463 291.083 279.463C291.363 279.463 291.624 279.506 291.868 279.592C292.119 279.67 292.341 279.778 292.534 279.914C292.727 280.05 292.885 280.204 293.007 280.376C293.129 280.548 293.197 280.727 293.211 280.913L292.835 280.967L292.889 279.57H294.35V287.63H292.824ZM291.438 284.051C291.724 284.051 291.975 283.983 292.19 283.847C292.405 283.711 292.57 283.521 292.685 283.278C292.806 283.034 292.867 282.747 292.867 282.418C292.867 282.088 292.806 281.802 292.685 281.558C292.57 281.307 292.405 281.114 292.19 280.978C291.975 280.842 291.724 280.774 291.438 280.774C291.151 280.774 290.901 280.845 290.686 280.989C290.471 281.125 290.302 281.318 290.181 281.569C290.066 281.812 290.009 282.095 290.009 282.418C290.009 282.74 290.066 283.027 290.181 283.278C290.302 283.521 290.471 283.711 290.686 283.847C290.901 283.983 291.151 284.051 291.438 284.051ZM297.836 285.373C297.421 285.373 297.063 285.284 296.762 285.104C296.468 284.918 296.239 284.657 296.074 284.32C295.916 283.976 295.838 283.564 295.838 283.084V279.581H297.364V282.837C297.364 283.095 297.407 283.321 297.493 283.514C297.579 283.7 297.7 283.844 297.858 283.944C298.016 284.044 298.209 284.094 298.438 284.094C298.603 284.094 298.754 284.069 298.89 284.019C299.033 283.962 299.155 283.883 299.255 283.783C299.362 283.682 299.445 283.564 299.502 283.428C299.56 283.292 299.588 283.145 299.588 282.987V279.581H301.114V285.266H299.663L299.61 284.094L299.889 283.965C299.803 284.23 299.66 284.47 299.459 284.685C299.259 284.9 299.019 285.069 298.739 285.19C298.46 285.312 298.159 285.373 297.836 285.373ZM305.347 285.373C304.731 285.373 304.19 285.248 303.724 284.997C303.266 284.746 302.908 284.402 302.65 283.965C302.399 283.528 302.274 283.027 302.274 282.461C302.274 282.017 302.345 281.612 302.488 281.246C302.632 280.881 302.832 280.566 303.09 280.301C303.348 280.029 303.653 279.821 304.004 279.677C304.362 279.527 304.749 279.452 305.164 279.452C305.551 279.452 305.909 279.523 306.239 279.667C306.568 279.81 306.851 280.011 307.088 280.269C307.331 280.519 307.518 280.82 307.647 281.171C307.776 281.515 307.833 281.888 307.819 282.289L307.808 282.762H303.241L302.994 281.827H306.551L306.379 282.02V281.784C306.364 281.59 306.3 281.418 306.185 281.268C306.078 281.11 305.938 280.989 305.766 280.903C305.594 280.809 305.401 280.763 305.186 280.763C304.871 280.763 304.602 280.824 304.38 280.946C304.165 281.067 304 281.246 303.885 281.483C303.771 281.719 303.714 282.006 303.714 282.343C303.714 282.686 303.785 282.984 303.928 283.235C304.079 283.485 304.287 283.682 304.552 283.826C304.824 283.962 305.143 284.03 305.508 284.03C305.759 284.03 305.988 283.99 306.196 283.912C306.404 283.833 306.626 283.697 306.862 283.503L307.593 284.524C307.385 284.71 307.156 284.868 306.905 284.997C306.654 285.119 306.397 285.212 306.131 285.276C305.866 285.341 305.605 285.373 305.347 285.373ZM310.859 285.373C310.329 285.373 309.856 285.287 309.441 285.115C309.032 284.936 308.703 284.692 308.452 284.384L309.408 283.568C309.623 283.804 309.867 283.976 310.139 284.084C310.411 284.184 310.684 284.234 310.956 284.234C311.063 284.234 311.16 284.223 311.246 284.202C311.339 284.173 311.418 284.137 311.483 284.094C311.547 284.044 311.594 283.987 311.622 283.922C311.658 283.851 311.676 283.775 311.676 283.697C311.676 283.539 311.611 283.417 311.483 283.331C311.411 283.288 311.3 283.242 311.149 283.192C310.999 283.134 310.805 283.073 310.569 283.009C310.204 282.916 309.892 282.808 309.634 282.686C309.383 282.558 309.183 282.414 309.032 282.257C308.903 282.106 308.803 281.945 308.731 281.773C308.667 281.594 308.635 281.397 308.635 281.182C308.635 280.924 308.692 280.691 308.807 280.483C308.921 280.269 309.079 280.086 309.279 279.935C309.487 279.785 309.724 279.67 309.989 279.592C310.254 279.506 310.533 279.463 310.827 279.463C311.121 279.463 311.407 279.498 311.687 279.57C311.966 279.642 312.224 279.746 312.46 279.882C312.704 280.011 312.915 280.165 313.094 280.344L312.278 281.246C312.149 281.125 312.002 281.014 311.837 280.913C311.68 280.813 311.515 280.734 311.343 280.677C311.171 280.62 311.017 280.591 310.881 280.591C310.759 280.591 310.648 280.602 310.548 280.623C310.454 280.645 310.376 280.68 310.311 280.731C310.247 280.774 310.197 280.827 310.161 280.892C310.132 280.956 310.118 281.028 310.118 281.107C310.118 281.186 310.136 281.261 310.171 281.332C310.214 281.404 310.272 281.465 310.343 281.515C310.422 281.558 310.537 281.608 310.687 281.666C310.845 281.723 311.056 281.787 311.321 281.859C311.665 281.952 311.955 282.056 312.192 282.171C312.435 282.285 312.629 282.418 312.772 282.568C312.894 282.697 312.983 282.844 313.041 283.009C313.098 283.174 313.127 283.356 313.127 283.557C313.127 283.908 313.026 284.22 312.826 284.492C312.632 284.764 312.364 284.979 312.02 285.137C311.676 285.294 311.289 285.373 310.859 285.373ZM314.763 285.266V278.141H316.289V285.266H314.763ZM313.699 280.946V279.581H317.46V280.946H313.699Z" fill="#D75337"/>
</svg>
