<svg width="383" height="30" viewBox="0 0 383 30" fill="none" xmlns="http://www.w3.org/2000/svg">
<path d="M14.1484 15.001L367.321 15.0009" stroke="#F3D8D2" stroke-width="0.988991" stroke-linecap="round"/>
<path d="M14.1484 15.001H116.064" stroke="#D75337" stroke-width="1.97798" stroke-linecap="round"/>
<rect x="1.58938" y="1.7759" width="26.6004" height="26.6004" rx="13.3002" fill="#D75337"/>
<rect x="1.58938" y="1.7759" width="26.6004" height="26.6004" rx="13.3002" stroke="white" stroke-width="2.82125"/>
<path d="M15.7178 12.1276V18.5762H14.3544V13.4217H14.3167L12.8399 14.3474V13.1383L14.4363 12.1276H15.7178Z" fill="white"/>
<rect x="52.0904" y="1.7759" width="26.6004" height="26.6004" rx="13.3002" fill="#D75337"/>
<rect x="52.0904" y="1.7759" width="26.6004" height="26.6004" rx="13.3002" stroke="white" stroke-width="2.82125"/>
<path d="M62.9133 18.5762V17.5938L65.2087 15.4684C65.4039 15.2795 65.5677 15.1094 65.6999 14.9583C65.8343 14.8072 65.9361 14.6592 66.0054 14.5143C66.0746 14.3674 66.1093 14.2089 66.1093 14.0389C66.1093 13.8499 66.0662 13.6873 65.9802 13.5508C65.8941 13.4123 65.7765 13.3063 65.6275 13.2328C65.4785 13.1572 65.3095 13.1194 65.1206 13.1194C64.9232 13.1194 64.7511 13.1593 64.6042 13.2391C64.4572 13.3189 64.3439 13.4333 64.2641 13.5823C64.1843 13.7313 64.1445 13.9087 64.1445 14.1144H62.8503C62.8503 13.6925 62.9458 13.3262 63.1369 13.0155C63.3279 12.7049 63.5955 12.4645 63.9398 12.2945C64.2841 12.1245 64.6808 12.0394 65.13 12.0394C65.5918 12.0394 65.9938 12.1213 66.336 12.285C66.6802 12.4467 66.9479 12.6713 67.1389 12.9589C67.3299 13.2464 67.4254 13.576 67.4254 13.9476C67.4254 14.1911 67.3771 14.4314 67.2806 14.6686C67.1861 14.9058 67.0171 15.1693 66.7736 15.4589C66.5301 15.7465 66.1869 16.0918 65.744 16.4949L64.8025 17.4174V17.4615H67.5104V18.5762H62.9133Z" fill="white"/>
<rect x="102.543" y="1.7759" width="26.6004" height="26.6004" rx="13.3002" fill="#D75337"/>
<rect x="102.543" y="1.7759" width="26.6004" height="26.6004" rx="13.3002" stroke="white" stroke-width="2.82125"/>
<path d="M115.75 18.6643C115.28 18.6643 114.861 18.5835 114.494 18.4219C114.128 18.2582 113.84 18.0335 113.628 17.7481C113.418 17.4605 113.31 17.1288 113.303 16.7531H114.676C114.685 16.9105 114.736 17.049 114.831 17.1687C114.927 17.2862 115.055 17.3776 115.215 17.4426C115.374 17.5077 115.554 17.5402 115.753 17.5402C115.961 17.5402 116.145 17.5035 116.304 17.43C116.464 17.3566 116.589 17.2548 116.679 17.1246C116.769 16.9945 116.814 16.8444 116.814 16.6743C116.814 16.5022 116.766 16.35 116.669 16.2178C116.575 16.0834 116.439 15.9785 116.26 15.9029C116.084 15.8273 115.874 15.7896 115.63 15.7896H115.029V14.7883H115.63C115.836 14.7883 116.018 14.7526 116.175 14.6812C116.335 14.6098 116.458 14.5112 116.547 14.3852C116.635 14.2572 116.679 14.1081 116.679 13.9381C116.679 13.7765 116.64 13.6348 116.562 13.513C116.487 13.3892 116.38 13.2926 116.241 13.2234C116.105 13.1541 115.945 13.1194 115.763 13.1194C115.578 13.1194 115.409 13.153 115.256 13.2202C115.102 13.2853 114.98 13.3787 114.887 13.5004C114.795 13.6222 114.746 13.7649 114.739 13.9287H113.433C113.439 13.5571 113.545 13.2297 113.751 12.9463C113.956 12.6629 114.233 12.4414 114.582 12.2819C114.932 12.1203 115.328 12.0394 115.769 12.0394C116.214 12.0394 116.603 12.1203 116.937 12.2819C117.271 12.4435 117.53 12.6618 117.715 12.9368C117.902 13.2097 117.994 13.5162 117.992 13.8562C117.994 14.2173 117.882 14.5185 117.655 14.7599C117.43 15.0013 117.138 15.1546 116.776 15.2196V15.27C117.251 15.3309 117.612 15.4957 117.86 15.7644C118.109 16.031 118.233 16.3647 118.231 16.7657C118.233 17.133 118.127 17.4594 117.913 17.7449C117.701 18.0304 117.408 18.255 117.035 18.4187C116.661 18.5825 116.233 18.6643 115.75 18.6643Z" fill="white"/>
<rect x="153.199" y="1.97742" width="26.1973" height="26.1973" rx="13.0987" stroke="white" stroke-width="2.41821"/>
<rect x="154.811" y="3.58956" width="22.973" height="22.973" rx="11.4865" fill="white"/>
<rect x="154.811" y="3.58956" width="22.973" height="22.973" rx="11.4865" stroke="#D75337" stroke-width="0.806072"/>
<path d="M163.223 17.4426V16.3689L165.915 12.1276H166.841V13.6138H166.293L164.596 16.2996V16.35H168.421V17.4426H163.223ZM166.318 18.5762V17.1152L166.343 16.6397V12.1276H167.622V18.5762H166.318Z" fill="#D75337"/>
<rect x="203.652" y="1.68347" width="26.1973" height="26.1973" rx="13.0987" stroke="white" stroke-width="2.41821"/>
<rect x="205.264" y="3.29561" width="22.973" height="22.973" rx="11.4865" fill="white"/>
<rect x="205.264" y="3.29561" width="22.973" height="22.973" rx="11.4865" stroke="#D75337" stroke-width="0.806072"/>
<path d="M216.629 18.3704C216.184 18.3704 215.787 18.2885 215.439 18.1248C215.092 17.9611 214.817 17.7354 214.614 17.4478C214.41 17.1602 214.304 16.8307 214.296 16.4591H215.618C215.633 16.7089 215.738 16.9115 215.933 17.0668C216.128 17.2222 216.36 17.2998 216.629 17.2998C216.843 17.2998 217.032 17.2526 217.196 17.1581C217.362 17.0616 217.491 16.9283 217.583 16.7582C217.677 16.5861 217.725 16.3888 217.725 16.1663C217.725 15.9396 217.676 15.7402 217.58 15.568C217.485 15.3959 217.354 15.2616 217.186 15.165C217.018 15.0684 216.826 15.0191 216.61 15.017C216.421 15.017 216.237 15.0558 216.059 15.1335C215.883 15.2112 215.745 15.3172 215.647 15.4515L214.434 15.2343L214.74 11.8337H218.682V12.9483H215.864L215.697 14.5636H215.735C215.848 14.4041 216.019 14.2718 216.248 14.1669C216.477 14.0619 216.733 14.0094 217.016 14.0094C217.405 14.0094 217.751 14.1007 218.055 14.2834C218.36 14.466 218.6 14.7168 218.776 15.0359C218.953 15.3529 219.04 15.7181 219.038 16.1317C219.04 16.5662 218.939 16.9524 218.735 17.2904C218.534 17.6262 218.252 17.8907 217.888 18.0839C217.527 18.2749 217.108 18.3704 216.629 18.3704Z" fill="#D75337"/>
<rect x="254.105" y="1.68347" width="26.1973" height="26.1973" rx="13.0987" stroke="white" stroke-width="2.41821"/>
<rect x="255.717" y="3.29561" width="22.973" height="22.973" rx="11.4865" fill="white"/>
<rect x="255.717" y="3.29561" width="22.973" height="22.973" rx="11.4865" stroke="#D75337" stroke-width="0.806072"/>
<path d="M267.202 18.3704C266.87 18.3683 266.55 18.3127 266.241 18.2035C265.935 18.0944 265.66 17.917 265.416 17.6714C265.173 17.4258 264.98 17.1004 264.837 16.6953C264.696 16.2901 264.626 15.7926 264.626 15.2028C264.628 14.6612 264.69 14.1773 264.812 13.7512C264.936 13.323 265.112 12.9598 265.341 12.6618C265.572 12.3637 265.848 12.137 266.169 11.9816C266.49 11.8242 266.85 11.7455 267.249 11.7455C267.679 11.7455 268.059 11.8295 268.389 11.9974C268.718 12.1632 268.983 12.3889 269.182 12.6744C269.384 12.9598 269.505 13.28 269.547 13.6347H268.203C268.15 13.4101 268.04 13.2338 267.872 13.1057C267.704 12.9777 267.497 12.9137 267.249 12.9137C266.829 12.9137 266.51 13.0963 266.292 13.4615C266.075 13.8268 265.965 14.3232 265.961 14.9509H266.005C266.102 14.7599 266.232 14.5972 266.396 14.4628C266.561 14.3264 266.749 14.2225 266.959 14.1511C267.171 14.0776 267.395 14.0409 267.63 14.0409C268.012 14.0409 268.352 14.1312 268.65 14.3117C268.948 14.4901 269.183 14.7357 269.355 15.0485C269.528 15.3613 269.614 15.7192 269.614 16.1222C269.614 16.5588 269.512 16.9472 269.308 17.2872C269.107 17.6273 268.824 17.8939 268.461 18.087C268.1 18.278 267.68 18.3725 267.202 18.3704ZM267.195 17.2998C267.405 17.2998 267.593 17.2494 267.759 17.1487C267.925 17.0479 268.055 16.9115 268.149 16.7394C268.244 16.5672 268.291 16.3741 268.291 16.16C268.291 15.9459 268.244 15.7538 268.149 15.5838C268.057 15.4137 267.929 15.2784 267.765 15.1776C267.602 15.0768 267.415 15.0265 267.205 15.0265C267.047 15.0265 266.902 15.0558 266.767 15.1146C266.635 15.1734 266.518 15.2553 266.418 15.3602C266.319 15.4652 266.241 15.5869 266.185 15.7255C266.128 15.8619 266.1 16.0078 266.1 16.1631C266.1 16.371 266.147 16.5609 266.241 16.7331C266.338 16.9052 266.468 17.0427 266.632 17.1455C266.798 17.2484 266.985 17.2998 267.195 17.2998Z" fill="#D75337"/>
<rect x="304.558" y="1.68347" width="26.1973" height="26.1973" rx="13.0987" stroke="white" stroke-width="2.41821"/>
<rect x="306.171" y="3.29561" width="22.973" height="22.973" rx="11.4865" fill="white"/>
<rect x="306.171" y="3.29561" width="22.973" height="22.973" rx="11.4865" stroke="#D75337" stroke-width="0.806072"/>
<path d="M315.435 18.2822L318.108 12.9924V12.9483H314.994V11.8337H319.519V12.964L316.842 18.2822H315.435Z" fill="#D75337"/>
<rect x="355.012" y="1.68347" width="26.1973" height="26.1973" rx="13.0987" stroke="white" stroke-width="2.41821"/>
<rect x="356.624" y="3.29561" width="22.973" height="22.973" rx="11.4865" fill="white"/>
<rect x="356.624" y="3.29561" width="22.973" height="22.973" rx="11.4865" stroke="#D75337" stroke-width="0.806072"/>
<path d="M368.039 18.3704C367.554 18.3704 367.122 18.2917 366.745 18.1342C366.369 17.9747 366.074 17.7574 365.86 17.4825C365.646 17.2075 365.539 16.8957 365.539 16.5473C365.539 16.2786 365.599 16.0319 365.721 15.8073C365.845 15.5806 366.013 15.3928 366.225 15.2437C366.437 15.0926 366.674 14.996 366.937 14.954V14.91C366.592 14.8407 366.313 14.6738 366.099 14.4093C365.885 14.1427 365.778 13.8331 365.778 13.4804C365.778 13.1467 365.875 12.8496 366.071 12.5893C366.266 12.327 366.534 12.1212 366.874 11.9722C367.216 11.8211 367.604 11.7455 368.039 11.7455C368.473 11.7455 368.86 11.8211 369.201 11.9722C369.543 12.1233 369.811 12.3301 370.007 12.5925C370.202 12.8528 370.3 13.1488 370.303 13.4804C370.3 13.8352 370.191 14.1448 369.975 14.4093C369.759 14.6738 369.482 14.8407 369.144 14.91V14.954C369.402 14.996 369.636 15.0926 369.846 15.2437C370.058 15.3928 370.226 15.5806 370.35 15.8073C370.476 16.0319 370.54 16.2786 370.542 16.5473C370.54 16.8957 370.432 17.2075 370.218 17.4825C370.003 17.7574 369.707 17.9747 369.33 18.1342C368.954 18.2917 368.524 18.3704 368.039 18.3704ZM368.039 17.3691C368.255 17.3691 368.444 17.3303 368.605 17.2526C368.767 17.1728 368.893 17.0637 368.983 16.9251C369.076 16.7845 369.122 16.6229 369.122 16.4402C369.122 16.2534 369.075 16.0886 368.98 15.9459C368.886 15.801 368.758 15.6877 368.596 15.6058C368.434 15.5219 368.249 15.4799 368.039 15.4799C367.831 15.4799 367.645 15.5219 367.481 15.6058C367.318 15.6877 367.189 15.801 367.094 15.9459C367.002 16.0886 366.955 16.2534 366.955 16.4402C366.955 16.6229 367.001 16.7845 367.091 16.9251C367.181 17.0637 367.308 17.1728 367.472 17.2526C367.636 17.3303 367.825 17.3691 368.039 17.3691ZM368.039 14.488C368.219 14.488 368.38 14.4513 368.52 14.3778C368.661 14.3043 368.771 14.2025 368.851 14.0724C368.931 13.9422 368.971 13.7922 368.971 13.6221C368.971 13.4542 368.931 13.3073 368.851 13.1813C368.771 13.0533 368.662 12.9535 368.524 12.8822C368.385 12.8087 368.223 12.772 368.039 12.772C367.856 12.772 367.694 12.8087 367.554 12.8822C367.413 12.9535 367.303 13.0533 367.223 13.1813C367.145 13.3073 367.107 13.4542 367.107 13.6221C367.107 13.7922 367.147 13.9422 367.226 14.0724C367.306 14.2025 367.416 14.3043 367.557 14.3778C367.698 14.4513 367.858 14.488 368.039 14.488Z" fill="#D75337"/>
</svg>
