<svg width="44" height="42" viewBox="0 0 44 42" fill="none" xmlns="http://www.w3.org/2000/svg">
<path d="M21.8264 0.15625L6.88324 15.0994L8.1941 16.4103H5.57239L0.00195312 21.9807V41.6463H2.8911L7.43197 37.1068L7.43059 37.1054L9.11003 35.4274L11.6583 32.8805L11.6569 32.8791L13.4056 31.1318L15.9539 28.5849L15.9525 28.5835L17.8398 26.6976L32.7885 41.6463H43.6509V21.9807L21.8264 0.15625ZM3.60472 23.4717L9.11003 17.9664L10.9973 19.8537L3.60472 27.2463V23.4717ZM3.60472 35.8375V32.3401L13.5442 22.402L15.2929 24.1493L3.60472 35.8375ZM34.2809 38.0435L11.6569 15.4195L13.2671 13.8094L37.5012 38.0435H34.2809ZM40.0481 35.4967L15.814 11.2625L17.5627 9.51375L40.0481 31.9992V35.4967ZM40.0481 26.9054L20.1096 6.96687L21.8264 5.25001L40.0481 23.4717V26.9054Z" fill="#D75337"/>
<path d="M11.971 41.6469H2.89062L7.4315 37.1074L11.971 41.6469Z" fill="#D75337"/>
<path d="M20.4235 41.6467H15.3297L11.7269 38.0439L9.10938 35.4277L11.6576 32.8809L20.4235 41.6467Z" fill="#D75337"/>
<path d="M29.0159 41.6474H23.9222L20.3194 38.0446L13.4062 31.1328L15.9545 28.5859L29.0159 41.6474Z" fill="#D75337"/>
</svg>
