<svg width="96" height="66" viewBox="0 0 96 66" fill="none" xmlns="http://www.w3.org/2000/svg">
<path d="M101.194 63.9238H68.9551V64.869H101.194V63.9238Z" fill="#E8D5F0"/>
<path d="M80.2221 58.8047H68.9551V61.2585H80.2221V58.8047Z" fill="#E8D5F0"/>
<path d="M111.127 48.9951H62.5703V53.4972H111.127V48.9951Z" fill="#E8D5F0"/>
<path d="M51.1464 -7H2.58984V20.9813H51.1464V-7Z" fill="#F2E2F9"/>
<path d="M41.2193 7.93164H8.98047V8.87677H41.2193V7.93164Z" fill="white" fill-opacity="0.63"/>
<path d="M43.4405 11.4551H8.98047V12.4867H43.4405V11.4551Z" fill="white" fill-opacity="0.63"/>
<path d="M43.4405 15.0215H8.98047V16.0531H43.4405V15.0215Z" fill="white" fill-opacity="0.63"/>
<path d="M20.2475 2.81152H8.98047V5.26529H20.2475V2.81152Z" fill="white" fill-opacity="0.63"/>
<path d="M67.1472 95.3464L37.3651 95.2092C35.6452 95.1998 33.9994 94.5081 32.7891 93.286C31.5789 92.064 30.9031 90.4116 30.9102 88.6917L31.2262 14.0322C31.2298 13.1801 31.4012 12.3371 31.7307 11.5513C32.0602 10.7654 32.5414 10.0523 33.1467 9.45253C33.7519 8.85278 34.4695 8.3782 35.2583 8.05592C36.0471 7.73364 36.8917 7.56999 37.7438 7.5743L67.5229 7.71145C69.2428 7.72013 70.8889 8.41107 72.0998 9.63254C73.3106 10.854 73.9872 12.5061 73.9808 14.226L73.6648 88.8825C73.6613 89.7349 73.4899 90.5782 73.1604 91.3644C72.831 92.1505 72.3499 92.8641 71.7447 93.4643C71.1395 94.0645 70.422 94.5397 69.6332 94.8626C68.8443 95.1855 67.9996 95.3499 67.1472 95.3464Z" fill="#455A64"/>
<path d="M67.4799 10.2782H61.7077C61.5194 10.2817 61.3336 10.3223 61.1609 10.3976C60.9882 10.4729 60.8321 10.5815 60.7014 10.7171C60.5707 10.8528 60.4681 11.0129 60.3993 11.1883C60.3305 11.3636 60.2969 11.5508 60.3004 11.7391V12.7856C60.304 12.9738 60.2704 13.1609 60.2015 13.3361C60.1327 13.5113 60.03 13.6711 59.8993 13.8066C59.7685 13.942 59.6124 14.0503 59.4397 14.1253C59.2671 14.2003 59.0814 14.2405 58.8932 14.2436L47.641 14.1929C47.2604 14.1828 46.8993 14.0219 46.6371 13.7458C46.375 13.4696 46.2331 13.1007 46.2427 12.72V11.6735C46.2523 11.2934 46.1109 10.9249 45.8493 10.6488C45.5878 10.3728 45.2275 10.2116 44.8474 10.2007H42.817L37.7634 10.1768C36.5613 10.1697 35.4055 10.6391 34.5488 11.4824C33.6922 12.3256 33.2045 13.4739 33.1927 14.6759L32.8946 87.5495C32.8918 88.1458 33.0066 88.7368 33.2322 89.2888C33.4579 89.8407 33.7901 90.3428 34.2098 90.7664C34.6295 91.19 35.1285 91.5268 35.6784 91.7575C36.2283 91.9883 36.8182 92.1084 37.4145 92.1112L67.134 92.2483C67.7307 92.2511 68.3221 92.1362 68.8744 91.9104C69.4268 91.6846 69.9292 91.3522 70.3531 90.9322C70.777 90.5122 71.1139 90.0129 71.3448 89.4626C71.5757 88.9124 71.6959 88.3221 71.6987 87.7254L71.9968 14.8518C72.004 13.6464 71.5322 12.4876 70.6852 11.6299C69.8381 10.7723 68.6852 10.2861 67.4799 10.2782Z" fill="white"/>
<path d="M45.7894 31.6998L38.1211 31.665L38.1147 33.0723L45.783 33.1071L45.7894 31.6998Z" fill="#6D2794"/>
<path opacity="0.1" d="M45.7894 31.6998L38.1211 31.665L38.1147 33.0723L45.783 33.1071L45.7894 31.6998Z" fill="black"/>
<path d="M68.2691 40.3413C68.3293 40.3352 68.3884 40.3212 68.445 40.2996C68.5275 40.2673 68.5992 40.2124 68.652 40.1412C68.7047 40.07 68.7363 39.9854 68.7431 39.8971C68.7431 39.423 68.7431 38.7313 68.7431 37.8428C68.7431 37.3986 68.7431 36.9007 68.7431 36.3521C68.7431 36.2179 68.7431 36.0778 68.7431 35.9377C68.7625 35.8017 68.7329 35.6632 68.6596 35.5471C68.6186 35.4914 68.5652 35.446 68.5036 35.4144C68.4421 35.3829 68.374 35.366 68.3048 35.3652H67.8397H63.5315L38.5943 35.2728C38.5305 35.2717 38.4673 35.286 38.4102 35.3146C38.3531 35.3431 38.3038 35.3851 38.2663 35.4368C38.1943 35.5534 38.1668 35.6921 38.1888 35.8273C38.1888 36.1255 38.1888 36.4236 38.1888 36.7218C38.1888 37.3181 38.1888 37.9144 38.1888 38.5107C38.1888 38.8088 38.1888 39.107 38.1888 39.4051C38.1764 39.544 38.1764 39.6837 38.1888 39.8225C38.2045 39.8821 38.2336 39.9372 38.2739 39.9837C38.3142 40.0303 38.3647 40.0669 38.4214 40.0909C38.4801 40.1143 38.543 40.1254 38.6062 40.1237H40.1238L46.7457 40.1594L57.9561 40.228L65.5142 40.2876L67.5684 40.3115H68.1021C68.2243 40.3115 68.284 40.3115 68.284 40.3115H68.1021H67.5684H65.5142H57.9561L46.7457 40.2757L40.1238 40.2489H38.6062C38.5227 40.2523 38.4394 40.238 38.3617 40.2072C38.2832 40.1736 38.2134 40.1227 38.1576 40.0581C38.1018 39.9935 38.0615 39.917 38.0397 39.8345C38.0225 39.7562 38.0164 39.6759 38.0218 39.5959V39.3753C38.0218 39.0772 38.0218 38.779 38.0218 38.4809C38.0218 37.8846 38.0218 37.2883 38.0218 36.692C38.0218 36.3938 38.0218 36.0957 38.0218 35.7975C38.0162 35.7181 38.0162 35.6384 38.0218 35.559C38.033 35.4713 38.0669 35.388 38.1202 35.3175C38.1717 35.2455 38.2397 35.1871 38.3186 35.1471C38.3976 35.1071 38.485 35.0868 38.5734 35.0879L63.5106 35.2251L67.8189 35.2549H68.284C68.3659 35.255 68.4466 35.2748 68.5193 35.3127C68.5919 35.3505 68.6544 35.4054 68.7014 35.4725C68.7854 35.6022 68.8194 35.758 68.7968 35.9108C68.7968 36.051 68.7968 36.1911 68.7968 36.3253C68.7968 36.8679 68.7968 37.3658 68.7968 37.816C68.7968 38.7104 68.7759 39.3962 68.7699 39.8732C68.7627 39.9649 68.7293 40.0527 68.6739 40.1261C68.6184 40.1995 68.5431 40.2556 68.4569 40.2876C68.4005 40.3226 68.3354 40.3412 68.2691 40.3413Z" fill="#6D2794"/>
<path d="M54.4488 36.7686H40.4238V38.0834H54.4488V36.7686Z" fill="#6D2794"/>
<path opacity="0.2" d="M54.4488 36.7686H40.4238V38.0834H54.4488V36.7686Z" fill="white"/>
<path d="M45.7328 44.5377L38.0645 44.5029L38.0581 45.9102L45.7264 45.945L45.7328 44.5377Z" fill="#6D2794"/>
<path opacity="0.1" d="M45.7328 44.5377L38.0645 44.5029L38.0581 45.9102L45.7264 45.945L45.7328 44.5377Z" fill="black"/>
<path d="M68.0759 53.1786C68.1361 53.1712 68.1959 53.1602 68.2548 53.1458C68.3381 53.1193 68.4147 53.0752 68.4795 53.0166C68.5443 52.958 68.5958 52.8861 68.6305 52.8059C68.6774 52.6855 68.6958 52.5559 68.6841 52.4273C68.6841 52.2841 68.6841 52.1291 68.6841 51.9562C68.6841 51.6103 68.6841 51.2168 68.6841 50.7636V48.8703C68.6984 48.7333 68.6681 48.5953 68.5977 48.4768C68.5241 48.3553 68.4085 48.2651 68.2727 48.2234C68.1242 48.1969 67.973 48.1888 67.8225 48.1995H63.5321L38.6814 48.1071C38.5477 48.1074 38.4187 48.1562 38.3184 48.2445C38.218 48.3328 38.1531 48.4546 38.1358 48.5871C38.1358 48.8703 38.1358 49.1834 38.1358 49.4815C38.1358 50.0778 38.1358 50.6741 38.1358 51.2704C38.1358 51.5686 38.1358 51.8667 38.1358 52.1649C38.1247 52.3042 38.1307 52.4444 38.1537 52.5823C38.1909 52.7032 38.2675 52.8082 38.3713 52.8804C38.4815 52.9503 38.6108 52.9837 38.741 52.9759H39.1555H40.0171L46.6152 53.0087L57.7868 53.0772L65.318 53.1369L67.3663 53.1607H65.318H57.7868L46.6092 53.1488L40.0111 53.1249H38.7142C38.5529 53.1345 38.3929 53.0916 38.258 53.0027C38.1224 52.9087 38.0234 52.7707 37.9778 52.6121C37.9511 52.4606 37.943 52.3064 37.9539 52.153C37.9539 51.8548 37.9539 51.5567 37.9539 51.2585C37.9539 50.6622 37.9539 50.0659 37.9539 49.4696C37.9539 49.1715 37.9539 48.8733 37.9539 48.5752C37.9757 48.4047 38.0588 48.248 38.1878 48.1344C38.3168 48.0208 38.4827 47.9581 38.6546 47.958L63.5053 48.0952L67.7957 48.128C67.9554 48.1181 68.1158 48.1292 68.2727 48.1607C68.4276 48.2114 68.5583 48.3176 68.6394 48.4589C68.7166 48.5902 68.75 48.7427 68.7348 48.8942C68.7348 49.0343 68.7348 49.1715 68.7348 49.3086C68.7348 49.8483 68.7348 50.3432 68.7348 50.7994C68.7348 51.2555 68.7348 51.6401 68.7348 51.992C68.7348 52.1619 68.7348 52.3199 68.7348 52.466C68.7457 52.5994 68.7242 52.7333 68.6722 52.8566C68.6335 52.9389 68.5775 53.0118 68.5081 53.0705C68.4386 53.1291 68.3573 53.1721 68.2697 53.1965C68.2046 53.2019 68.139 53.1958 68.0759 53.1786Z" fill="#6D2794"/>
<path d="M45.6781 57.9332L38.0098 57.8984L38.0034 59.3057L45.6717 59.3405L45.6781 57.9332Z" fill="#6D2794"/>
<path opacity="0.1" d="M45.6781 57.9332L38.0098 57.8984L38.0034 59.3057L45.6717 59.3405L45.6781 57.9332Z" fill="black"/>
<path d="M68.0139 66.5689C68.0742 66.5618 68.1339 66.5509 68.1928 66.5361C68.2757 66.5098 68.3521 66.4661 68.4168 66.408C68.4816 66.3499 68.5333 66.2788 68.5685 66.1992C68.6152 66.0788 68.6336 65.9492 68.6221 65.8206C68.6221 65.6745 68.6221 65.5224 68.6221 65.3465C68.6221 65.0036 68.6221 64.6071 68.6221 64.1539V62.2607C68.6364 62.1236 68.6061 61.9856 68.5357 61.8671C68.4604 61.7478 68.3452 61.6591 68.2107 61.6167C68.0623 61.5891 67.9111 61.5801 67.7605 61.5898H63.4701L38.6194 61.4974C38.4858 61.4977 38.3567 61.5466 38.2564 61.6349C38.156 61.7232 38.0911 61.8449 38.0738 61.9774C38.0738 62.2756 38.0738 62.5737 38.0738 62.8719C38.0738 63.4682 38.0738 64.0645 38.0738 64.6608C38.0738 64.9589 38.0738 65.2571 38.0738 65.5552C38.0627 65.6936 38.0687 65.8328 38.0917 65.9696C38.1274 66.0913 38.2044 66.1967 38.3093 66.2678C38.4188 66.3393 38.5487 66.3728 38.679 66.3632H39.976L46.574 66.399L57.7457 66.4675L65.2769 66.5272L67.3252 66.551H65.2769H57.7457L46.574 66.5182L39.976 66.4914H38.679C38.5177 66.5023 38.3572 66.4593 38.2229 66.3692C38.0872 66.2752 37.9882 66.1372 37.9426 65.9786C37.9159 65.8271 37.9079 65.6729 37.9188 65.5194C37.9188 65.2213 37.9188 64.9231 37.9188 64.625C37.9188 64.0287 37.9188 63.4324 37.9188 62.8361C37.9188 62.5379 37.9188 62.2398 37.9188 61.9267C37.9398 61.7565 38.0224 61.5998 38.1509 61.4862C38.2793 61.3725 38.4449 61.3097 38.6164 61.3096L63.4671 61.4467L67.7575 61.4795C67.9173 61.4697 68.0776 61.4807 68.2346 61.5123C68.3895 61.5629 68.5201 61.6691 68.6013 61.8105C68.6784 61.9418 68.7118 62.0942 68.6967 62.2458C68.6967 62.3859 68.6967 62.526 68.6967 62.6602C68.6967 63.1998 68.6967 63.6948 68.6967 64.1509C68.6967 64.6071 68.6967 64.9917 68.6967 65.3435C68.6967 65.5135 68.6967 65.6715 68.6967 65.8176C68.7081 65.9509 68.6866 66.0851 68.6341 66.2082C68.5954 66.2904 68.5394 66.3634 68.4699 66.422C68.4005 66.4807 68.3192 66.5237 68.2316 66.5481C68.1617 66.572 68.0871 66.5791 68.0139 66.5689Z" fill="#6D2794"/>
<path d="M54.1478 49.9797L40.123 49.916L40.1171 51.2308L54.1419 51.2945L54.1478 49.9797Z" fill="#6D2794"/>
<path opacity="0.2" d="M54.1478 49.9797L40.123 49.916L40.1171 51.2308L54.1419 51.2945L54.1478 49.9797Z" fill="white"/>
<path d="M41.3908 64.1357C41.382 64.2556 41.3382 64.3703 41.2648 64.4656C41.1914 64.5608 41.0917 64.6325 40.9779 64.6716C40.8642 64.7107 40.7415 64.7155 40.6251 64.6855C40.5086 64.6555 40.4035 64.592 40.3229 64.5029C40.2422 64.4137 40.1894 64.3028 40.1712 64.184C40.1529 64.0651 40.17 63.9435 40.2202 63.8342C40.2704 63.725 40.3516 63.6329 40.4537 63.5693C40.5558 63.5058 40.6743 63.4736 40.7945 63.4768C40.9606 63.486 41.1164 63.5604 41.228 63.6838C41.3396 63.8071 41.3981 63.9695 41.3908 64.1357Z" fill="#6D2794"/>
<path d="M43.2894 64.1452C43.2953 64.2293 43.2838 64.3137 43.2556 64.3931C43.2275 64.4725 43.1833 64.5453 43.1258 64.6069C43.0684 64.6685 42.9988 64.7177 42.9216 64.7513C42.8443 64.7849 42.7609 64.8022 42.6767 64.8022C42.5924 64.8022 42.5091 64.7849 42.4318 64.7513C42.3545 64.7177 42.285 64.6685 42.2275 64.6069C42.1701 64.5453 42.1259 64.4725 42.0977 64.3931C42.0696 64.3137 42.0581 64.2293 42.064 64.1452C42.0581 64.0612 42.0696 63.9768 42.0977 63.8974C42.1259 63.818 42.1701 63.7452 42.2275 63.6836C42.285 63.6219 42.3545 63.5728 42.4318 63.5392C42.5091 63.5056 42.5924 63.4883 42.6767 63.4883C42.7609 63.4883 42.8443 63.5056 42.9216 63.5392C42.9988 63.5728 43.0684 63.6219 43.1258 63.6836C43.1833 63.7452 43.2275 63.818 43.2556 63.8974C43.2838 63.9768 43.2953 64.0612 43.2894 64.1452Z" fill="#6D2794"/>
<path d="M45.1935 64.1552C45.1847 64.2752 45.1409 64.3899 45.0675 64.4851C44.9941 64.5804 44.8944 64.652 44.7807 64.6911C44.667 64.7302 44.5443 64.7351 44.4278 64.7051C44.3114 64.6751 44.2063 64.6116 44.1256 64.5224C44.0449 64.4332 43.9922 64.3224 43.9739 64.2035C43.9557 64.0846 43.9727 63.963 44.0229 63.8538C44.0731 63.7445 44.1543 63.6524 44.2564 63.5889C44.3585 63.5253 44.477 63.4931 44.5972 63.4963C44.7631 63.5063 44.9184 63.5809 45.0298 63.7041C45.1413 63.8273 45.2001 63.9892 45.1935 64.1552Z" fill="#6D2794"/>
<path d="M47.0939 64.163C47.0851 64.283 47.0413 64.3977 46.9679 64.4929C46.8945 64.5882 46.7948 64.6598 46.6811 64.6989C46.5674 64.738 46.4447 64.7429 46.3282 64.7129C46.2118 64.6829 46.1067 64.6194 46.026 64.5302C45.9453 64.4411 45.8926 64.3302 45.8743 64.2113C45.8561 64.0925 45.8731 63.9708 45.9233 63.8616C45.9735 63.7523 46.0547 63.6602 46.1568 63.5967C46.2589 63.5331 46.3774 63.5009 46.4976 63.5041C46.6634 63.5141 46.8187 63.5887 46.9302 63.7119C47.0417 63.8351 47.1005 63.997 47.0939 64.163Z" fill="#6D2794"/>
<path d="M48.9926 64.1688C48.9843 64.289 48.941 64.404 48.8679 64.4997C48.7949 64.5953 48.6953 64.6674 48.5816 64.707C48.4679 64.7465 48.3451 64.7518 48.2284 64.7221C48.1117 64.6924 48.0063 64.6291 47.9253 64.54C47.8444 64.451 47.7914 64.34 47.7729 64.2211C47.7544 64.1021 47.7713 63.9804 47.8215 63.8709C47.8717 63.7615 47.9529 63.6692 48.0551 63.6056C48.1573 63.5419 48.2759 63.5097 48.3963 63.5129C48.5616 63.5229 48.7164 63.5971 48.8278 63.7196C48.9392 63.8422 48.9983 64.0034 48.9926 64.1688Z" fill="#6D2794"/>
<path d="M50.893 64.1784C50.8848 64.2979 50.8419 64.4124 50.7696 64.5078C50.6972 64.6032 50.5985 64.6754 50.4856 64.7155C50.3728 64.7555 50.2507 64.7617 50.1343 64.7333C50.018 64.7048 49.9125 64.643 49.8309 64.5554C49.7492 64.4677 49.695 64.3582 49.6748 64.2401C49.6546 64.1221 49.6694 64.0007 49.7173 63.8909C49.7652 63.7812 49.8442 63.6878 49.9445 63.6223C50.0448 63.5569 50.162 63.5222 50.2818 63.5225C50.4497 63.5287 50.6083 63.6012 50.7229 63.7242C50.8374 63.8471 50.8986 64.0104 50.893 64.1784Z" fill="#6D2794"/>
<path d="M52.7933 64.1872C52.7992 64.2713 52.7877 64.3556 52.7595 64.4351C52.7314 64.5145 52.6872 64.5873 52.6298 64.6489C52.5723 64.7105 52.5027 64.7597 52.4255 64.7932C52.3482 64.8268 52.2649 64.8442 52.1806 64.8442C52.0963 64.8442 52.013 64.8268 51.9357 64.7932C51.8584 64.7597 51.7889 64.7105 51.7314 64.6489C51.674 64.5873 51.6298 64.5145 51.6017 64.4351C51.5735 64.3556 51.562 64.2713 51.5679 64.1872C51.562 64.1032 51.5735 64.0188 51.6017 63.9394C51.6298 63.86 51.674 63.7872 51.7314 63.7256C51.7889 63.6639 51.8584 63.6148 51.9357 63.5812C52.013 63.5476 52.0963 63.5303 52.1806 63.5303C52.2649 63.5303 52.3482 63.5476 52.4255 63.5812C52.5027 63.6148 52.5723 63.6639 52.6298 63.7256C52.6872 63.7872 52.7314 63.86 52.7595 63.9394C52.7877 64.0188 52.7992 64.1032 52.7933 64.1872Z" fill="#6D2794"/>
<path d="M54.6918 64.196C54.6837 64.3154 54.6408 64.43 54.5684 64.5254C54.496 64.6208 54.3973 64.693 54.2845 64.733C54.1716 64.7731 54.0495 64.7793 53.9331 64.7508C53.8168 64.7224 53.7113 64.6605 53.6297 64.5729C53.548 64.4853 53.4938 64.3757 53.4736 64.2577C53.4534 64.1396 53.4682 64.0183 53.5161 63.9085C53.5641 63.7987 53.643 63.7054 53.7433 63.6399C53.8436 63.5744 53.9608 63.5397 54.0806 63.54C54.2485 63.5463 54.4071 63.6188 54.5217 63.7417C54.6363 63.8647 54.6974 64.028 54.6918 64.196Z" fill="#6D2794"/>
<path d="M56.5922 64.205C56.5839 64.3251 56.5406 64.4401 56.4675 64.5358C56.3945 64.6315 56.2949 64.7036 56.1812 64.7431C56.0675 64.7827 55.9447 64.7879 55.828 64.7582C55.7113 64.7286 55.6059 64.6652 55.525 64.5762C55.444 64.4871 55.391 64.3762 55.3725 64.2572C55.354 64.1382 55.3709 64.0165 55.4211 63.907C55.4713 63.7976 55.5525 63.7053 55.6547 63.6417C55.7569 63.578 55.8755 63.5458 55.9959 63.549C56.1612 63.5591 56.316 63.6332 56.4274 63.7558C56.5388 63.8783 56.5979 64.0395 56.5922 64.205Z" fill="#6D2794"/>
<g opacity="0.2">
<path d="M41.3927 64.1367C41.3839 64.2566 41.3401 64.3713 41.2667 64.4666C41.1934 64.5618 41.0936 64.6334 40.9799 64.6725C40.8662 64.7116 40.7435 64.7165 40.627 64.6865C40.5106 64.6565 40.4055 64.593 40.3248 64.5039C40.2441 64.4147 40.1914 64.3038 40.1731 64.1849C40.1549 64.0661 40.1719 63.9445 40.2221 63.8352C40.2724 63.726 40.3536 63.6338 40.4556 63.5703C40.5577 63.5068 40.6762 63.4746 40.7964 63.4778C40.9625 63.487 41.1183 63.5614 41.2299 63.6847C41.3416 63.8081 41.4001 63.9705 41.3927 64.1367Z" fill="white"/>
<path d="M43.2894 64.1452C43.2953 64.2293 43.2838 64.3137 43.2556 64.3931C43.2275 64.4725 43.1833 64.5453 43.1258 64.6069C43.0684 64.6685 42.9988 64.7177 42.9216 64.7513C42.8443 64.7849 42.7609 64.8022 42.6767 64.8022C42.5924 64.8022 42.5091 64.7849 42.4318 64.7513C42.3545 64.7177 42.285 64.6685 42.2275 64.6069C42.1701 64.5453 42.1259 64.4725 42.0977 64.3931C42.0696 64.3137 42.0581 64.2293 42.064 64.1452C42.0581 64.0612 42.0696 63.9768 42.0977 63.8974C42.1259 63.818 42.1701 63.7452 42.2275 63.6836C42.285 63.6219 42.3545 63.5728 42.4318 63.5392C42.5091 63.5056 42.5924 63.4883 42.6767 63.4883C42.7609 63.4883 42.8443 63.5056 42.9216 63.5392C42.9988 63.5728 43.0684 63.6219 43.1258 63.6836C43.1833 63.7452 43.2275 63.818 43.2556 63.8974C43.2838 63.9768 43.2953 64.0612 43.2894 64.1452Z" fill="white"/>
<path d="M45.1974 64.1552C45.1886 64.2752 45.1448 64.3899 45.0714 64.4851C44.998 64.5804 44.8983 64.652 44.7846 64.6911C44.6709 64.7302 44.5482 64.7351 44.4317 64.7051C44.3153 64.6751 44.2102 64.6116 44.1295 64.5224C44.0488 64.4332 43.9961 64.3224 43.9778 64.2035C43.9596 64.0846 43.9766 63.963 44.0268 63.8538C44.0771 63.7445 44.1582 63.6524 44.2603 63.5889C44.3624 63.5253 44.4809 63.4931 44.6011 63.4963C44.767 63.5063 44.9223 63.5809 45.0337 63.7041C45.1452 63.8273 45.204 63.9892 45.1974 64.1552Z" fill="white"/>
<path d="M47.0939 64.163C47.0851 64.283 47.0413 64.3977 46.9679 64.4929C46.8945 64.5882 46.7948 64.6598 46.6811 64.6989C46.5674 64.738 46.4447 64.7429 46.3282 64.7129C46.2118 64.6829 46.1067 64.6194 46.026 64.5302C45.9453 64.4411 45.8926 64.3302 45.8743 64.2113C45.8561 64.0925 45.8731 63.9708 45.9233 63.8616C45.9735 63.7523 46.0547 63.6602 46.1568 63.5967C46.2589 63.5331 46.3774 63.5009 46.4976 63.5041C46.6634 63.5141 46.8187 63.5887 46.9302 63.7119C47.0417 63.8351 47.1005 63.997 47.0939 64.163Z" fill="white"/>
<path d="M48.9906 64.1688C48.9824 64.289 48.939 64.404 48.866 64.4997C48.7929 64.5953 48.6933 64.6674 48.5796 64.707C48.4659 64.7465 48.3431 64.7518 48.2264 64.7221C48.1098 64.6924 48.0044 64.6291 47.9234 64.54C47.8424 64.451 47.7894 64.34 47.7709 64.2211C47.7525 64.1021 47.7694 63.9804 47.8196 63.8709C47.8697 63.7615 47.951 63.6692 48.0531 63.6056C48.1553 63.5419 48.274 63.5097 48.3943 63.5129C48.5596 63.5229 48.7145 63.5971 48.8258 63.7196C48.9372 63.8422 48.9964 64.0034 48.9906 64.1688Z" fill="white"/>
<path d="M50.8949 64.1784C50.8868 64.2979 50.8439 64.4124 50.7715 64.5078C50.6991 64.6032 50.6005 64.6754 50.4876 64.7155C50.3747 64.7555 50.2526 64.7617 50.1363 64.7333C50.0199 64.7048 49.9145 64.643 49.8328 64.5554C49.7512 64.4677 49.6969 64.3582 49.6767 64.2401C49.6566 64.1221 49.6714 64.0007 49.7193 63.8909C49.7672 63.7812 49.8461 63.6878 49.9464 63.6223C50.0467 63.5569 50.164 63.5222 50.2837 63.5225C50.4516 63.5287 50.6103 63.6012 50.7248 63.7242C50.8394 63.8471 50.9006 64.0104 50.8949 64.1784Z" fill="white"/>
<path d="M52.7933 64.1872C52.7992 64.2713 52.7877 64.3556 52.7595 64.4351C52.7314 64.5145 52.6872 64.5873 52.6298 64.6489C52.5723 64.7105 52.5027 64.7597 52.4255 64.7932C52.3482 64.8268 52.2649 64.8442 52.1806 64.8442C52.0963 64.8442 52.013 64.8268 51.9357 64.7932C51.8584 64.7597 51.7889 64.7105 51.7314 64.6489C51.674 64.5873 51.6298 64.5145 51.6017 64.4351C51.5735 64.3556 51.562 64.2713 51.5679 64.1872C51.562 64.1032 51.5735 64.0188 51.6017 63.9394C51.6298 63.86 51.674 63.7872 51.7314 63.7256C51.7889 63.6639 51.8584 63.6148 51.9357 63.5812C52.013 63.5476 52.0963 63.5303 52.1806 63.5303C52.2649 63.5303 52.3482 63.5476 52.4255 63.5812C52.5027 63.6148 52.5723 63.6639 52.6298 63.7256C52.6872 63.7872 52.7314 63.86 52.7595 63.9394C52.7877 64.0188 52.7992 64.1032 52.7933 64.1872Z" fill="white"/>
<path d="M54.6937 64.1969C54.6856 64.3164 54.6427 64.4309 54.5703 64.5264C54.498 64.6218 54.3993 64.694 54.2864 64.734C54.1735 64.7741 54.0514 64.7803 53.9351 64.7518C53.8188 64.7234 53.7133 64.6615 53.6316 64.5739C53.55 64.4863 53.4957 64.3767 53.4756 64.2587C53.4554 64.1406 53.4702 64.0192 53.5181 63.9095C53.566 63.7997 53.645 63.7064 53.7453 63.6409C53.8455 63.5754 53.9628 63.5407 54.0825 63.541C54.2505 63.5472 54.4091 63.6198 54.5237 63.7427C54.6382 63.8656 54.6994 64.029 54.6937 64.1969Z" fill="white"/>
<path d="M56.5922 64.205C56.5839 64.3251 56.5406 64.4401 56.4675 64.5358C56.3945 64.6315 56.2949 64.7036 56.1812 64.7431C56.0675 64.7827 55.9447 64.7879 55.828 64.7582C55.7113 64.7286 55.6059 64.6652 55.525 64.5762C55.444 64.4871 55.391 64.3762 55.3725 64.2572C55.354 64.1382 55.3709 64.0165 55.4211 63.907C55.4713 63.7976 55.5525 63.7053 55.6547 63.6417C55.7569 63.578 55.8755 63.5458 55.9959 63.549C56.1612 63.5591 56.316 63.6332 56.4274 63.7558C56.5388 63.8783 56.5979 64.0395 56.5922 64.205Z" fill="white"/>
</g>
<path d="M53.8964 21.1637C54.1035 21.0724 54.2792 20.9223 54.4017 20.732C54.5241 20.5417 54.5879 20.3196 54.5851 20.0933C54.5928 19.9462 54.5705 19.7991 54.5195 19.6609C54.4685 19.5226 54.39 19.3963 54.2886 19.2894C54.1872 19.1826 54.0651 19.0975 53.9297 19.0393C53.7944 18.9812 53.6486 18.9512 53.5013 18.9512C53.354 18.9512 53.2083 18.9812 53.0729 19.0393C52.9376 19.0975 52.8155 19.1826 52.7141 19.2894C52.6127 19.3963 52.5341 19.5226 52.4831 19.6609C52.4322 19.7991 52.4098 19.9462 52.4176 20.0933C52.413 20.3219 52.4763 20.5466 52.5994 20.7393C52.7225 20.9319 52.8999 21.0837 53.1093 21.1756C51.4396 21.426 51.5142 23.2388 51.5142 23.2388L55.4617 23.2567C55.4617 23.2567 55.5541 21.4111 53.8964 21.1637Z" fill="#6D2794"/>
<path opacity="0.1" d="M53.8964 21.1637C54.1035 21.0724 54.2792 20.9223 54.4017 20.732C54.5241 20.5417 54.5879 20.3196 54.5851 20.0933C54.5928 19.9462 54.5705 19.7991 54.5195 19.6609C54.4685 19.5226 54.39 19.3963 54.2886 19.2894C54.1872 19.1826 54.0651 19.0975 53.9297 19.0393C53.7944 18.9812 53.6486 18.9512 53.5013 18.9512C53.354 18.9512 53.2083 18.9812 53.0729 19.0393C52.9376 19.0975 52.8155 19.1826 52.7141 19.2894C52.6127 19.3963 52.5341 19.5226 52.4831 19.6609C52.4322 19.7991 52.4098 19.9462 52.4176 20.0933C52.413 20.3219 52.4763 20.5466 52.5994 20.7393C52.7225 20.9319 52.8999 21.0837 53.1093 21.1756C51.4396 21.426 51.5142 23.2388 51.5142 23.2388L55.4617 23.2567C55.4617 23.2567 55.5541 21.4111 53.8964 21.1637Z" fill="black"/>
<path d="M60.3117 24.4262L46.2422 24.3623L46.2346 26.0438L60.3041 26.1077L60.3117 24.4262Z" fill="#6D2794"/>
<path opacity="0.2" d="M60.3117 24.4262L46.2422 24.3623L46.2346 26.0438L60.3041 26.1077L60.3117 24.4262Z" fill="white"/>
<path d="M8.58398 33.1406H8.44385L8.03837 33.1705C7.81893 33.1836 7.60072 33.2125 7.38542 33.2569C7.24597 33.2765 7.10764 33.3034 6.97099 33.3374L6.50886 33.4656C5.72229 33.7069 4.98017 34.0745 4.3115 34.5539C3.42805 35.1951 2.69036 36.0161 2.14694 36.9629C1.82754 37.5087 1.57337 38.0901 1.38964 38.6952C1.19659 39.3528 1.08544 40.0317 1.0587 40.7166C1.04093 41.0764 1.04691 41.4369 1.07659 41.7959C1.07659 41.9778 1.12727 42.1597 1.15112 42.3445C1.17119 42.5308 1.20608 42.7153 1.25548 42.8961C1.52358 44.0925 2.06757 45.2097 2.84404 46.1585C3.62052 47.1074 4.608 47.8616 5.72771 48.3612C6.53811 48.7108 7.40672 48.906 8.28881 48.9366C9.19988 48.9867 10.1118 48.856 10.9722 48.552L11.2345 48.4536H11.2703L11.3001 48.4715L15.0598 50.3796L14.9495 50.475C14.547 49.2288 14.1594 48.0213 13.7837 46.8615V46.8167L13.8165 46.7839C14.7285 45.8653 15.4056 44.7403 15.7902 43.5043C16.1386 42.3743 16.2403 41.1827 16.0884 40.01C15.9533 38.9678 15.6182 37.9615 15.1015 37.0464C14.6562 36.2603 14.0817 35.5547 13.4021 34.9594C12.8414 34.4881 12.2208 34.0931 11.5565 33.7846C11.0539 33.5679 10.5304 33.403 9.99422 33.2927L9.39793 33.1943L8.96561 33.1615L8.70324 33.1436H8.61379C8.64352 33.1403 8.67352 33.1403 8.70324 33.1436H8.96859L9.40091 33.1615L9.99721 33.248C10.54 33.3502 11.0707 33.5091 11.5804 33.722C12.2561 34.0268 12.8878 34.4209 13.4587 34.8938C14.1508 35.4865 14.7375 36.1922 15.1939 36.9808C15.7253 37.9058 16.0706 38.9257 16.2106 39.9832C16.3752 41.174 16.2806 42.3862 15.9334 43.5371C15.5462 44.7988 14.8587 45.9478 13.9298 46.8853L13.9477 46.8078C14.3233 47.9676 14.7139 49.1751 15.1194 50.4184L15.1761 50.6003L15.0061 50.5138L11.2464 48.6086H11.312L11.0437 48.707C10.1668 49.0156 9.23799 49.1493 8.30968 49.1006C7.40858 49.0663 6.5218 48.864 5.69491 48.5043C4.11762 47.8288 2.80532 46.6547 1.95911 45.162C1.5697 44.4726 1.28531 43.729 1.11535 42.9557C1.0688 42.7702 1.03395 42.582 1.01099 42.3922C0.987142 42.2044 0.948383 42.0195 0.939439 41.8347C0.858747 40.7738 0.970872 39.7071 1.27038 38.6862C1.45868 38.0728 1.71994 37.4842 2.04855 36.9331C2.60493 35.9777 3.358 35.1515 4.25784 34.5092C4.93751 34.0285 5.6921 33.6638 6.49097 33.4299L6.95907 33.3106C7.09684 33.2786 7.23616 33.2538 7.37648 33.2361C7.59402 33.1958 7.81427 33.1719 8.03538 33.1645L8.44385 33.1496C8.49029 33.1433 8.53712 33.1403 8.58398 33.1406Z" fill="#6D2794"/>
<path d="M10.2829 40.0934H9.73134L8.53875 38.4178V37.3176C8.53875 37.3176 7.68604 37.264 7.78741 38.704C7.88878 40.1441 7.78741 39.7774 7.78741 39.7774C7.78741 39.7774 5.97765 39.7774 5.82857 39.9414C5.6795 40.1053 5.67055 41.8525 5.64968 42.8274C5.63826 43.0625 5.7057 43.2946 5.84128 43.4869C5.97687 43.6792 6.17283 43.8207 6.39804 43.8888C6.46116 43.9063 6.52633 43.9154 6.59184 43.9157C7.04502 43.9157 9.34971 43.549 9.34971 43.549H10.3008L10.2829 40.0934Z" fill="#6D2794"/>
<path d="M11.8602 39.7979L11.5203 43.5665H10.5781V39.8754L11.8602 39.7979Z" fill="#6D2794"/>
<path d="M51.1954 40.8198C51.0762 40.6976 50.781 40.7572 50.781 40.7572C50.8106 40.5856 50.8106 40.4101 50.781 40.2384C50.7273 40.0715 50.3517 40.1043 50.3517 40.1043C50.3344 39.9637 50.3344 39.8215 50.3517 39.6809C50.3547 39.6497 50.348 39.6184 50.3325 39.5912C50.317 39.564 50.2935 39.5422 50.2652 39.5288C50.0875 39.4564 49.8966 39.4218 49.7047 39.4275C49.4751 39.2635 50.4053 37.9606 50.7512 37.5432C51.0971 37.1258 51.0344 36.8008 50.7273 36.8008C50.5157 36.8008 49.4304 38.053 49.0965 38.4734C48.7625 38.8938 47.877 40.0625 47.8472 39.1293C47.8174 38.1961 47.4417 37.4925 47.2062 37.3732C46.9707 37.254 46.7202 37.5342 46.8484 37.7936C46.9611 38.0883 47.0313 38.3975 47.0571 38.7119C47.0895 38.9624 47.0784 39.2166 47.0243 39.4632C46.9255 39.9223 46.7909 40.3728 46.6218 40.8109H46.598C46.598 40.8109 40.0924 47.0511 39.6213 47.4954C39.2009 47.8949 30.7454 47.0213 29.0489 46.8424C28.4725 46.7581 27.8903 46.7182 27.3077 46.7232C26.5713 46.756 26.4401 46.8603 25.7067 46.8693C23.8544 46.8898 22.0064 47.0523 20.179 47.3553C19.3515 47.4959 18.5786 47.8612 17.9445 48.4111C17.3104 48.9611 16.8396 49.6746 16.5833 50.4739C14.8749 55.8108 11.0049 68.4433 10.3222 75.5393C9.80626 76.4749 9.34049 77.4373 8.92685 78.4224C8.44683 79.7283 8.56311 79.773 8.72411 79.8028C9.15941 79.8833 9.65434 77.5399 9.83919 78.1063C10.024 78.6728 8.90002 80.9 9.35619 80.9656C9.95249 81.0491 10.4265 78.5804 10.4832 78.3836C10.5398 78.1868 10.835 78.2495 10.7813 78.4343C10.6949 78.6967 9.85708 81.4784 10.4415 81.5678C10.7635 81.6156 10.7992 81.0282 10.7992 81.0282C10.7992 81.0282 11.3955 78.3657 11.6668 78.4194C11.9382 78.4731 11.649 80.0443 11.5118 80.5691C11.3747 81.0938 11.5655 81.3591 11.8457 81.2309C12.0365 81.1415 12.4927 79.5464 12.6179 79.0276C12.7432 78.5088 13.0562 77.0718 13.4766 77.9036C13.897 78.7354 14.535 79.2184 14.7974 79.2304C14.8565 79.2235 14.9123 79.1992 14.9574 79.1604C15.0026 79.1217 15.0351 79.0703 15.0508 79.0129C15.0665 78.9555 15.0647 78.8947 15.0456 78.8383C15.0265 78.782 14.9909 78.7327 14.9435 78.6967C14.7178 78.4763 14.5241 78.2254 14.3681 77.9513C14.229 77.7378 14.1281 77.5017 14.0699 77.2536C13.9498 76.7591 13.8799 76.2536 13.8612 75.745L13.8135 75.4468C14.4814 72.1404 16.4044 62.4356 19.1802 56.2371L20.3191 58.5806L20.8141 60.3158L17.7789 67.8083L30.7245 67.6383L28.7925 60.2025L31.139 52.4506C33.6762 52.5073 40.1908 52.6027 41.276 52.1107C42.6415 51.5144 49.7047 42.5938 49.7047 42.5938C50.1651 42.2361 50.606 41.8539 51.0255 41.4489C51.0255 41.4489 51.4548 41.0882 51.1954 40.8198Z" fill="#FFBE9D"/>
<path d="M17.2068 62.272C17.5824 60.99 19.5114 54.6513 19.5114 54.6513C19.5114 54.6513 20.4596 59.8183 20.2091 60.4414C19.9787 60.9749 19.7066 61.4893 19.3952 61.9798C17.2068 65.3102 17.493 66.9768 17.493 66.9768L30.7159 66.5743C30.7457 64.7258 29.6515 60.4265 29.4249 59.7407C29.1983 59.055 29.9526 56.8099 29.9526 56.8099C29.9526 56.8099 31.4434 55.2924 31.3897 54.5112C31.3614 53.8095 31.2746 53.1114 31.1303 52.4242L39.1803 52.7223L38.9269 47.2662L27.3647 46.1094C26.9622 47.2453 23.3218 46.6878 23.3218 46.6878C19.3922 46.819 19.1477 47.5405 17.5139 48.8106C15.88 50.0807 13.1758 60.981 13.1758 60.981L17.2068 62.272Z" fill="#6D2794"/>
<path d="M25.0262 60.9809C24.7971 61.0218 24.5637 61.0339 24.3315 61.0167C23.8992 61.0167 23.3059 60.9869 22.653 60.9213C22 60.8557 21.4097 60.7632 20.9893 60.6798C20.7575 60.6499 20.5302 60.5918 20.3125 60.5068C20.5456 60.5069 20.7782 60.5289 21.0072 60.5724C21.4306 60.6261 22.0179 60.7006 22.6679 60.7662C23.3178 60.8318 23.9082 60.8765 24.3345 60.9064C24.5669 60.9093 24.7985 60.9343 25.0262 60.9809Z" fill="#263238"/>
<path d="M25.9338 59.8564C25.7045 59.9687 25.4621 60.0519 25.2123 60.1039C24.0227 60.4165 22.7955 60.562 21.5659 60.5362C21.3114 60.5445 21.057 60.5205 20.8086 60.4647C21.0597 60.433 21.3128 60.42 21.5659 60.4259C22.034 60.411 22.678 60.3782 23.3876 60.2947C24.0972 60.2112 24.7293 60.092 25.1765 59.9966C25.4249 59.9302 25.6781 59.8834 25.9338 59.8564Z" fill="#263238"/>
<path d="M30.3844 54.8418C30.3784 55.0691 30.3474 55.2951 30.292 55.5156C30.2145 55.93 30.0952 56.4965 29.9431 57.1167C29.7911 57.7368 29.645 58.3093 29.5138 58.6969C29.4611 58.9187 29.383 59.1338 29.2812 59.3379C29.2979 59.1113 29.3399 58.8873 29.4065 58.67C29.5198 58.2049 29.648 57.6682 29.7911 57.0809C29.9342 56.4935 30.0713 55.9569 30.1846 55.4918C30.225 55.2679 30.2921 55.0497 30.3844 54.8418Z" fill="#263238"/>
<path d="M17.3484 61.5113C16.6587 61.4048 15.9779 61.2463 15.3121 61.0372C14.6316 60.8782 13.9639 60.6689 13.3145 60.4111C14.0039 60.5194 14.6845 60.6778 15.3508 60.8852C16.0314 61.0437 16.6991 61.253 17.3484 61.5113Z" fill="#263238"/>
<path d="M31.2772 52.3581C31.1647 52.3774 31.0498 52.3774 30.9373 52.3581C30.6259 52.3261 30.3201 52.253 30.0279 52.1404C29.5402 51.9572 29.0962 51.6739 28.7245 51.3088C28.3527 50.9437 28.0614 50.5049 27.8693 50.0206C27.657 49.4878 27.5664 48.9143 27.604 48.342C27.6173 47.87 27.7585 47.4104 28.0125 47.0123C28.1911 46.7441 28.458 46.5468 28.7668 46.4547C28.8493 46.432 28.9346 46.4209 29.0202 46.4219C29.0798 46.4219 29.1096 46.4219 29.1096 46.4219C29.1096 46.4219 28.9844 46.4219 28.7847 46.5024C28.5014 46.6071 28.2611 46.8033 28.1019 47.06C27.6964 47.698 27.5831 48.8638 28.0154 49.952C28.2167 50.4651 28.5317 50.9259 28.9367 51.2997C29.2686 51.6055 29.6509 51.8516 30.0667 52.0271C30.4569 52.1813 30.8628 52.2923 31.2772 52.3581Z" fill="#263238"/>
<path d="M38.2248 52.614C38.1502 51.6997 38.1264 50.782 38.1533 49.8651C38.1299 48.9489 38.1578 48.0322 38.2368 47.1191C38.3114 48.0324 38.3353 48.9492 38.3083 49.8651C38.3334 50.7822 38.3055 51.7001 38.2248 52.614Z" fill="#263238"/>
<path d="M27.2892 46.4422C27.3219 45.7773 27.3905 45.026 27.3905 45.026C27.3905 45.026 29.0363 44.8441 29.1347 43.1447C29.2331 41.4452 29.1347 37.5246 29.1347 37.5246L26.1532 35.998L22.8438 38.6009L23.3536 47.0981L26.3887 47.2919C26.6207 47.2983 26.8458 47.2125 27.0146 47.0532C27.1834 46.8939 27.2821 46.6742 27.2892 46.4422Z" fill="#FFBE9D"/>
<path d="M27.5856 41.8005C27.5856 41.8005 27.5856 41.8333 27.5587 41.8721C27.5365 41.9002 27.5078 41.9225 27.4751 41.937C27.4424 41.9516 27.4066 41.9579 27.3709 41.9556C27.1801 41.9556 26.9952 41.7349 26.9296 41.4785C26.8985 41.3542 26.8985 41.2242 26.9296 41.0999C26.9358 41.0456 26.9553 40.9938 26.9866 40.949C27.0178 40.9042 27.0597 40.868 27.1085 40.8435C27.1486 40.8269 27.1936 40.8269 27.2337 40.8435C27.2635 40.8582 27.2876 40.8823 27.3023 40.9121C27.3232 40.9627 27.3023 40.9955 27.3023 40.9926C27.3023 40.9896 27.3023 40.9627 27.2725 40.9329C27.2569 40.9116 27.234 40.8967 27.2081 40.8912C27.1823 40.8857 27.1553 40.8899 27.1324 40.9031C27.0958 40.9252 27.0654 40.9562 27.044 40.9932C27.0227 41.0302 27.011 41.0721 27.0101 41.1148C26.985 41.2257 26.985 41.3408 27.0101 41.4517C27.0698 41.6843 27.2308 41.8721 27.3739 41.89C27.4019 41.8938 27.4304 41.8918 27.4575 41.8841C27.4847 41.8764 27.51 41.8632 27.5319 41.8453C27.5677 41.8214 27.5796 41.7976 27.5856 41.8005Z" fill="#EB996E"/>
<path d="M30.1562 36.6072C29.9266 35.826 29.0948 35.4384 28.3375 35.2238C27.1837 34.8958 25.9374 34.7527 24.8104 35.1671C23.6834 35.5815 22.3298 36.309 22.3298 37.5523C21.6649 37.4986 21.2833 38.08 21.0209 38.8015C20.8532 39.2411 20.7527 39.7035 20.7228 40.173C20.6393 41.8009 20.1831 44.049 19.1277 45.2416C18.5314 45.9064 17.7055 46.3656 17.3656 47.1944C17.0675 47.913 17.2225 48.7657 16.9452 49.4932C16.6978 50.1342 16.1521 50.5904 15.7526 51.1479C15.3456 51.7804 15.1061 52.506 15.0565 53.2565C15.007 54.007 15.149 54.7578 15.4694 55.4383C15.792 56.1013 16.2463 56.6917 16.8045 57.1736C17.3627 57.6554 18.0131 58.0185 18.7162 58.2409C20.1089 58.6646 21.594 58.6791 22.9947 58.2826C24.0459 58.0312 25.0265 57.545 25.8629 56.8604C26.7187 56.1616 27.3064 55.1883 27.5265 54.1055C27.7382 52.8891 27.3983 51.6518 27.1449 50.4413C26.3518 46.616 26.5784 46.4163 27.5802 42.8653C27.604 42.8027 27.616 42.7371 27.6339 42.6745C27.6518 42.6119 27.6607 42.5821 27.6726 42.5344C27.7011 42.394 27.7161 42.2512 27.7173 42.108C27.571 42.1624 27.4122 42.1739 27.2596 42.1412C27.1069 42.1085 26.9668 42.0328 26.8557 41.9232C26.7443 41.8063 26.6667 41.6614 26.631 41.5039C26.5953 41.3464 26.6029 41.1822 26.653 41.0287C26.7233 40.8608 26.8281 40.7096 26.9606 40.5848C27.0931 40.46 27.2504 40.3644 27.4222 40.3042C27.7531 40.1671 28.1079 40.0955 28.4329 39.9435C29.1216 39.6155 29.5987 38.9357 29.9236 38.2231C30.1908 37.7293 30.2733 37.1563 30.1562 36.6072Z" fill="#263238"/>
<path d="M27.7029 41.8809C27.7659 41.9739 27.8179 42.074 27.8579 42.179C27.9473 42.3668 28.0666 42.6322 28.1978 42.9393L28.2216 42.9959H28.159L27.8609 43.0228C27.6552 43.0228 27.4822 43.0615 27.2795 43.0585C27.2618 43.0546 27.2455 43.0462 27.2319 43.0342C27.2184 43.0222 27.2081 43.007 27.202 42.99C27.1931 42.9629 27.1931 42.9336 27.202 42.9065C27.2089 42.8663 27.2178 42.8265 27.2288 42.7872L27.2825 42.5755C27.3094 42.4343 27.3514 42.2964 27.4077 42.1641C27.4021 42.308 27.3812 42.451 27.3451 42.5905L27.3033 42.8021C27.2884 42.8737 27.2616 42.984 27.3033 42.9751C27.4524 42.9751 27.6641 42.9423 27.8609 42.9303L28.159 42.9035L28.1203 42.9691C27.9921 42.671 27.8847 42.3907 27.8221 42.1969C27.7672 42.0979 27.727 41.9914 27.7029 41.8809Z" fill="#6D2794"/>
</svg>
