<svg width="64" height="64" viewBox="0 0 64 64" fill="none" xmlns="http://www.w3.org/2000/svg">
<circle cx="32.0009" cy="32.4784" r="31.5126" fill="#FEF8F7"/>
<path d="M34.9167 35.3944C34.167 36.1442 33.15 36.5654 32.0897 36.5654C31.0293 36.5654 30.0124 36.1442 29.2626 35.3944C28.5128 34.6446 28.0916 33.6277 28.0916 32.5673C28.0916 31.507 28.5128 30.49 29.2626 29.7402M43.2828 31.1953C42.7521 31.1192 42.2187 31.0621 41.6838 31.0243M22.4955 34.1104C21.9497 34.072 21.4167 34.015 20.8965 33.9393" stroke="#222222" stroke-width="2.39854" stroke-linecap="round" stroke-linejoin="round"/>
<path d="M41.684 43.0378H39.359C36.3848 43.0378 33.6713 43.6279 31.6054 44.5985C29.5394 45.5691 26.8243 46.1591 23.8517 46.1591C22.1999 46.1591 20.6265 45.9768 19.2001 45.6474C18.2839 45.4364 17.825 45.3308 17.2765 44.8943C16.9157 44.5855 16.6181 44.2097 16.4002 43.7878C16.0996 43.1514 16.0996 42.5341 16.0996 41.2981V24.4875C16.0996 22.9525 17.713 21.8955 19.2017 22.2393C19.8973 22.3992 20.7672 22.663 21.5267 22.7494M48.0801 41.362V23.9551C48.0801 21.5661 47.4117 20.079 44.8821 19.4986C43.411 19.1628 41.7896 18.9757 40.085 18.9757C37.0197 18.9757 34.2214 19.5801 32.0899 20.5747C30.9386 21.112 29.5698 21.8987 28.0923 22.1737M16.0996 16.5771L48.0801 48.5577" stroke="#222222" stroke-width="2.64666" stroke-linecap="round" stroke-linejoin="round"/>
<path d="M16.0996 16.5771C28.5026 29.1094 35.7874 36.1357 48.1904 48.6679" stroke="#D75337" stroke-width="2.64666" stroke-linecap="round" stroke-linejoin="round"/>
</svg>
