<svg width="56" height="56" viewBox="0 0 56 56" fill="none" xmlns="http://www.w3.org/2000/svg">
<path fill-rule="evenodd" clip-rule="evenodd" d="M35.6439 35.6433V35.6439L0 0V56H56.0006L52.4362 52.4356H52.4356L48.8712 48.8712H48.8718L45.3074 45.3068H45.3068L41.7424 41.7424H41.743L35.6439 35.6433ZM47.3674 52.4356H3.56439V8.63251L47.3674 52.4356ZM27.4848 45.3068L10.6932 28.5151V45.3068H27.4848ZM14.2576 41.7424V37.1477L18.8523 41.7424H14.2576Z" fill="#222222"/>
<path fill-rule="evenodd" clip-rule="evenodd" d="M55.3146 53.4659H55.3883V0H34.002V32.3524L40.9226 39.2083H44.6951V35.6439H37.5663V32.0795H44.6951V28.5151H37.5663V24.9507H48.2595V21.3864H37.5663V17.822H44.6951V14.2576H37.5663V10.6932H44.6951V7.12879H37.5663V3.56439H51.8239V49.9015H51.7166L55.3146 53.4659ZM48.1186 46.3371H48.2595V42.7727H44.5206L48.1186 46.3371Z" fill="#D75438"/>
</svg>
