<svg width="44" height="46" viewBox="0 0 44 46" fill="none" xmlns="http://www.w3.org/2000/svg">
<path d="M13.6371 18.0839C13.4677 18.0839 13.3052 18.1512 13.1854 18.271C13.0656 18.3908 12.9983 18.5532 12.9983 18.7227V23.8331C12.9983 24.0025 13.0656 24.165 13.1854 24.2848C13.3052 24.4046 13.4677 24.4719 13.6371 24.4719C13.8065 24.4719 13.969 24.4046 14.0888 24.2848C14.2086 24.165 14.2759 24.0025 14.2759 23.8331V18.7227C14.2759 18.5532 14.2086 18.3908 14.0888 18.271C13.969 18.1512 13.8065 18.0839 13.6371 18.0839ZM18.1087 9.14063C21.6362 9.14063 24.4968 8.06744 24.4968 6.74512C24.4968 5.4228 21.6349 4.34961 18.1087 4.34961C14.5825 4.34961 11.7207 5.4228 11.7207 6.74512C11.7207 8.06744 14.5813 9.14063 18.1087 9.14063ZM18.1087 7.86302C15.9917 7.86302 14.2759 7.29066 14.2759 6.58542C14.2759 5.88018 15.9917 5.30781 18.1087 5.30781C20.2257 5.30781 21.9415 5.88018 21.9415 6.58542C21.9415 7.29066 20.2257 7.86302 18.1087 7.86302Z" fill="#181818"/>
<path d="M33.5172 8.1593C32.8166 7.4588 31.872 7.05679 30.8815 7.03756C30.8265 5.66031 30.1609 4.53218 29.3637 3.70812C28.5422 2.85852 27.4779 2.20949 26.3613 1.72145C24.1166 0.740248 21.1985 0.197266 18.1067 0.197266C15.0187 0.197266 12.0994 0.740248 9.85593 1.72145C8.7393 2.20949 7.67378 2.85852 6.85356 3.70812C6.02183 4.56923 5.33321 5.76124 5.33321 7.22409V17.9381C4.74151 17.8506 4.13754 17.9027 3.56961 18.0904C3.00168 18.2781 2.48556 18.5961 2.06254 19.0189L1.15799 19.9222C0.802013 20.2781 0.519632 20.7007 0.326974 21.1657C0.134316 21.6308 0.0351563 22.1293 0.0351562 22.6327C0.0351563 23.136 0.134316 23.6345 0.326974 24.0996C0.519632 24.5646 0.802013 24.9872 1.15799 25.3431L5.33321 29.5183V31.4986C5.33321 32.9614 6.02183 34.1535 6.85356 35.0158C7.67506 35.8642 8.74058 36.5119 9.85721 37.0012C12.1007 37.9824 15.0187 38.5254 18.1093 38.5254C20.7667 38.5254 23.2797 38.1243 25.3431 37.4011C26.5849 36.9655 27.7552 36.3803 28.6993 35.6201C29.816 34.7207 30.8853 33.3371 30.8853 31.4986V18.0199L34.4217 14.4834C34.7777 14.1275 35.0601 13.705 35.2527 13.2399C35.4454 12.7749 35.5446 12.2764 35.5446 11.773C35.5446 11.2696 35.4454 10.7712 35.2527 10.3061C35.0601 9.84104 34.7777 9.41849 34.4217 9.06257L33.5172 8.1593ZM7.88842 23.0408V11.6254C8.28958 11.9142 8.72014 12.171 9.16602 12.3997V17.4449C9.16602 17.6144 9.23332 17.7768 9.35312 17.8966C9.47292 18.0164 9.6354 18.0837 9.80482 18.0837C9.97425 18.0837 10.1367 18.0164 10.2565 17.8966C10.3763 17.7768 10.4436 17.6144 10.4436 17.4449V12.9669C12.5977 13.7974 15.2819 14.2509 18.1093 14.2509C21.1985 14.2509 24.1178 13.7079 26.36 12.7267C27.4779 12.2374 28.5435 11.5897 29.3637 10.7401C29.6345 10.4603 29.8901 10.146 30.1111 9.79847C30.3565 9.63887 30.6493 9.56841 30.9405 9.59888C31.2317 9.62934 31.5036 9.75889 31.7106 9.96583L32.6152 10.8704C32.8547 11.11 32.9893 11.4349 32.9893 11.7736C32.9893 12.1124 32.8547 12.4373 32.6152 12.6769L28.3301 16.9594V31.4986C28.3301 32.2703 27.8829 32.9959 27.0959 33.6296C26.7254 33.9277 26.2851 34.2033 25.7749 34.4562V28.9434C25.7749 28.774 25.7076 28.6115 25.5878 28.4917C25.468 28.3719 25.3055 28.3046 25.1361 28.3046C24.9667 28.3046 24.8042 28.3719 24.6844 28.4917C24.5646 28.6115 24.4973 28.774 24.4973 28.9434V34.989C22.747 35.6023 20.5265 35.9702 18.1093 35.9702C12.4648 35.9702 7.88842 33.9682 7.88842 31.4986V28.4592L2.96453 23.5366C2.84574 23.4179 2.7515 23.277 2.68721 23.1219C2.62291 22.9668 2.58982 22.8005 2.58982 22.6327C2.58982 22.4648 2.62291 22.2985 2.68721 22.1434C2.7515 21.9883 2.84574 21.8474 2.96453 21.7287L3.86907 20.8255C4.10866 20.586 4.43356 20.4514 4.77234 20.4514C5.11111 20.4514 5.43602 20.586 5.6756 20.8255L7.88842 23.0408ZM28.3301 7.22409C28.3301 9.6937 23.7537 11.6957 18.1093 11.6957C12.4648 11.6957 7.88842 9.6937 7.88842 7.22409C7.88842 4.75448 12.4648 2.75248 18.1093 2.75248C23.7537 2.75248 28.3301 4.75448 28.3301 7.22409Z" fill="#181818"/>
<mask id="path-3-outside-1_1_52450" maskUnits="userSpaceOnUse" x="21.0332" y="22.2881" width="23" height="23" fill="black">
<rect fill="white" x="21.0332" y="22.2881" width="23" height="23"/>
<path fill-rule="evenodd" clip-rule="evenodd" d="M37.2841 25.0953C37.0945 24.7922 36.815 24.5558 36.4847 24.4189C36.1544 24.2821 35.7896 24.2517 35.4412 24.3319L32.9683 24.9C32.7148 24.9582 32.4515 24.9582 32.1981 24.9L29.7252 24.3319C29.3768 24.2517 29.012 24.2821 28.6817 24.4189C28.3514 24.5558 28.0719 24.7922 27.8822 25.0953L26.5344 27.2465C26.3968 27.4665 26.2112 27.6522 25.9911 27.7911L23.8401 29.1391C23.5375 29.3286 23.3015 29.6076 23.1647 29.9374C23.0279 30.2672 22.9972 30.6314 23.0767 30.9794L23.6448 33.4552C23.7028 33.7082 23.7028 33.9711 23.6448 34.2241L23.0767 36.6985C22.9968 37.0467 23.0274 37.4112 23.1642 37.7413C23.301 38.0714 23.5372 38.3506 23.8401 38.5402L25.9911 39.8881C26.2112 40.0257 26.3968 40.2114 26.5358 40.4314L27.8836 42.5826C28.2714 43.203 29.0114 43.5097 29.7252 43.346L32.1981 42.778C32.4515 42.7197 32.7148 42.7197 32.9683 42.778L35.4425 43.346C35.7908 43.4259 36.1552 43.3953 36.4853 43.2585C36.8153 43.1217 37.0945 42.8855 37.2841 42.5826L38.632 40.4314C38.7695 40.2114 38.9552 40.0257 39.1752 39.8881L41.3277 38.5402C41.6305 38.3503 41.8666 38.0708 42.0032 37.7404C42.1397 37.4101 42.17 37.0454 42.0896 36.6971L41.523 34.2241C41.4647 33.9706 41.4647 33.7073 41.523 33.4538L42.091 30.9794C42.171 30.6313 42.1406 30.2669 42.0041 29.9369C41.8676 29.6068 41.6316 29.3275 41.329 29.1377L39.1766 27.7898C38.9569 27.652 38.7711 27.4662 38.6334 27.2465L37.2841 25.0953ZM36.5923 30.7717C36.6774 30.6153 36.6985 30.432 36.6511 30.2603C36.6038 30.0886 36.4917 29.942 36.3385 29.8513C36.1852 29.7606 36.0028 29.7329 35.8295 29.774C35.6563 29.8151 35.5057 29.9218 35.4095 30.0716L31.813 36.1593L29.6413 34.0797C29.5769 34.0135 29.4998 33.961 29.4146 33.9253C29.3295 33.8896 29.238 33.8714 29.1457 33.8718C29.0533 33.8722 28.962 33.8912 28.8772 33.9276C28.7923 33.9641 28.7157 34.0173 28.6518 34.084C28.588 34.1507 28.5382 34.2296 28.5055 34.3159C28.4728 34.4023 28.4579 34.4944 28.4615 34.5866C28.4652 34.6789 28.4874 34.7695 28.5268 34.853C28.5662 34.9365 28.622 35.0113 28.6909 35.0727L31.4884 37.7535C31.5633 37.8251 31.6534 37.8788 31.7519 37.9107C31.8505 37.9426 31.955 37.9518 32.0576 37.9377C32.1602 37.9235 32.2583 37.8864 32.3445 37.829C32.4308 37.7716 32.503 37.6955 32.5557 37.6063L36.5923 30.7717Z"/>
</mask>
<path fill-rule="evenodd" clip-rule="evenodd" d="M37.2841 25.0953C37.0945 24.7922 36.815 24.5558 36.4847 24.4189C36.1544 24.2821 35.7896 24.2517 35.4412 24.3319L32.9683 24.9C32.7148 24.9582 32.4515 24.9582 32.1981 24.9L29.7252 24.3319C29.3768 24.2517 29.012 24.2821 28.6817 24.4189C28.3514 24.5558 28.0719 24.7922 27.8822 25.0953L26.5344 27.2465C26.3968 27.4665 26.2112 27.6522 25.9911 27.7911L23.8401 29.1391C23.5375 29.3286 23.3015 29.6076 23.1647 29.9374C23.0279 30.2672 22.9972 30.6314 23.0767 30.9794L23.6448 33.4552C23.7028 33.7082 23.7028 33.9711 23.6448 34.2241L23.0767 36.6985C22.9968 37.0467 23.0274 37.4112 23.1642 37.7413C23.301 38.0714 23.5372 38.3506 23.8401 38.5402L25.9911 39.8881C26.2112 40.0257 26.3968 40.2114 26.5358 40.4314L27.8836 42.5826C28.2714 43.203 29.0114 43.5097 29.7252 43.346L32.1981 42.778C32.4515 42.7197 32.7148 42.7197 32.9683 42.778L35.4425 43.346C35.7908 43.4259 36.1552 43.3953 36.4853 43.2585C36.8153 43.1217 37.0945 42.8855 37.2841 42.5826L38.632 40.4314C38.7695 40.2114 38.9552 40.0257 39.1752 39.8881L41.3277 38.5402C41.6305 38.3503 41.8666 38.0708 42.0032 37.7404C42.1397 37.4101 42.17 37.0454 42.0896 36.6971L41.523 34.2241C41.4647 33.9706 41.4647 33.7073 41.523 33.4538L42.091 30.9794C42.171 30.6313 42.1406 30.2669 42.0041 29.9369C41.8676 29.6068 41.6316 29.3275 41.329 29.1377L39.1766 27.7898C38.9569 27.652 38.7711 27.4662 38.6334 27.2465L37.2841 25.0953ZM36.5923 30.7717C36.6774 30.6153 36.6985 30.432 36.6511 30.2603C36.6038 30.0886 36.4917 29.942 36.3385 29.8513C36.1852 29.7606 36.0028 29.7329 35.8295 29.774C35.6563 29.8151 35.5057 29.9218 35.4095 30.0716L31.813 36.1593L29.6413 34.0797C29.5769 34.0135 29.4998 33.961 29.4146 33.9253C29.3295 33.8896 29.238 33.8714 29.1457 33.8718C29.0533 33.8722 28.962 33.8912 28.8772 33.9276C28.7923 33.9641 28.7157 34.0173 28.6518 34.084C28.588 34.1507 28.5382 34.2296 28.5055 34.3159C28.4728 34.4023 28.4579 34.4944 28.4615 34.5866C28.4652 34.6789 28.4874 34.7695 28.5268 34.853C28.5662 34.9365 28.622 35.0113 28.6909 35.0727L31.4884 37.7535C31.5633 37.8251 31.6534 37.8788 31.7519 37.9107C31.8505 37.9426 31.955 37.9518 32.0576 37.9377C32.1602 37.9235 32.2583 37.8864 32.3445 37.829C32.4308 37.7716 32.503 37.6955 32.5557 37.6063L36.5923 30.7717Z" fill="#D75337"/>
<path d="M37.2841 25.0953L35.7863 26.0326L35.7872 26.0341L37.2841 25.0953ZM35.4412 24.3319L35.8368 26.054L35.8376 26.0538L35.4412 24.3319ZM32.9683 24.9L32.5727 23.1778L32.5725 23.1779L32.9683 24.9ZM32.1981 24.9L32.5939 23.1779L32.5937 23.1778L32.1981 24.9ZM29.7252 24.3319L29.3288 26.0538L29.3296 26.054L29.7252 24.3319ZM27.8822 25.0953L29.3796 26.0334L29.3801 26.0326L27.8822 25.0953ZM26.5344 27.2465L25.037 26.3083L25.036 26.31L26.5344 27.2465ZM25.9911 27.7911L26.9294 29.2884L26.9344 29.2853L25.9911 27.7911ZM23.8401 29.1391L24.7781 30.6365L24.7783 30.6364L23.8401 29.1391ZM23.0767 30.9794L21.3542 31.3733L21.3545 31.3745L23.0767 30.9794ZM23.6448 33.4552L25.367 33.0601L25.367 33.0601L23.6448 33.4552ZM23.6448 34.2241L25.3669 34.6194L25.367 34.6191L23.6448 34.2241ZM23.0767 36.6985L21.3546 36.3032L21.3545 36.3034L23.0767 36.6985ZM23.8401 38.5402L24.7783 37.0429L24.7778 37.0426L23.8401 38.5402ZM25.9911 39.8881L25.0529 41.3854L25.0546 41.3865L25.9911 39.8881ZM26.5358 40.4314L28.0331 39.4933L28.03 39.4883L26.5358 40.4314ZM27.8836 42.5826L29.3818 41.6459L29.3809 41.6445L27.8836 42.5826ZM29.7252 43.346L30.1201 45.0683L30.1208 45.0681L29.7252 43.346ZM32.1981 42.778L32.5937 44.5001L32.5939 44.5L32.1981 42.778ZM32.9683 42.778L32.5725 44.5L32.5729 44.5001L32.9683 42.778ZM35.4425 43.346L35.0472 45.0682L35.0474 45.0682L35.4425 43.346ZM37.2841 42.5826L35.7868 41.6445L35.7865 41.645L37.2841 42.5826ZM38.632 40.4314L40.1293 41.3696L40.1304 41.3679L38.632 40.4314ZM39.1752 39.8881L40.1118 41.3865L40.1131 41.3857L39.1752 39.8881ZM41.3277 38.5402L42.2655 40.0378L42.2664 40.0372L41.3277 38.5402ZM42.0896 36.6971L40.3673 37.0918L40.3679 37.0942L42.0896 36.6971ZM41.523 34.2241L43.2453 33.8294L43.245 33.8283L41.523 34.2241ZM41.523 33.4538L43.245 33.8496L43.2451 33.8492L41.523 33.4538ZM42.091 30.9794L40.3689 30.5835L40.3688 30.5841L42.091 30.9794ZM41.329 29.1377L42.268 27.6409L42.2669 27.6401L41.329 29.1377ZM39.1766 27.7898L38.2379 29.2868L38.2388 29.2873L39.1766 27.7898ZM38.6334 27.2465L40.1304 26.3078L40.1303 26.3076L38.6334 27.2465ZM36.5923 30.7717L38.1138 31.6703L38.1297 31.6433L38.1446 31.6158L36.5923 30.7717ZM35.4095 30.0716L33.9226 29.1171L33.9049 29.1446L33.8882 29.1728L35.4095 30.0716ZM31.813 36.1593L30.5909 37.4355L32.2006 38.977L33.3343 37.0581L31.813 36.1593ZM29.6413 34.0797L28.3754 35.3124L28.3969 35.3345L28.4192 35.3558L29.6413 34.0797ZM28.6909 35.0727L29.9135 33.797L29.8907 33.7751L29.8671 33.7541L28.6909 35.0727ZM31.4884 37.7535L30.2659 39.0292L30.2672 39.0305L31.4884 37.7535ZM32.5557 37.6063L34.0769 38.5052L34.0771 38.5049L32.5557 37.6063ZM38.782 24.1579C38.3974 23.5433 37.8307 23.0639 37.1609 22.7865L35.8085 26.0514C35.7993 26.0476 35.7916 26.041 35.7863 26.0326L38.782 24.1579ZM37.1609 22.7865C36.491 22.509 35.7513 22.4473 35.0448 22.61L35.8376 26.0538C35.8279 26.0561 35.8177 26.0552 35.8085 26.0514L37.1609 22.7865ZM35.0456 22.6098L32.5727 23.1778L33.3639 26.6221L35.8368 26.054L35.0456 22.6098ZM32.5725 23.1779C32.5795 23.1763 32.5868 23.1763 32.5939 23.1779L31.8023 26.622C32.3162 26.7401 32.8502 26.7401 33.3641 26.622L32.5725 23.1779ZM32.5937 23.1778L30.1208 22.6098L29.3296 26.054L31.8025 26.6221L32.5937 23.1778ZM30.1216 22.61C29.415 22.4473 28.6753 22.509 28.0055 22.7865L29.3579 26.0514C29.3487 26.0552 29.3385 26.0561 29.3288 26.0538L30.1216 22.61ZM28.0055 22.7865C27.3357 23.0639 26.769 23.5433 26.3844 24.1579L29.3801 26.0326C29.3748 26.041 29.3671 26.0476 29.3579 26.0514L28.0055 22.7865ZM26.3849 24.1571L25.037 26.3083L28.0317 28.1846L29.3796 26.0334L26.3849 24.1571ZM25.036 26.31C25.0409 26.3022 25.046 26.2982 25.0479 26.297L26.9344 29.2853C27.3764 29.0062 27.7528 28.6309 28.0328 28.1829L25.036 26.31ZM25.0529 26.2939L22.9018 27.6418L24.7783 30.6364L26.9294 29.2884L25.0529 26.2939ZM22.9021 27.6416C22.2885 28.026 21.8099 28.5917 21.5325 29.2604L24.7968 30.6144C24.793 30.6235 24.7865 30.6312 24.7781 30.6365L22.9021 27.6416ZM21.5325 29.2604C21.2552 29.9291 21.1929 30.6676 21.3542 31.3733L24.7992 30.5855C24.8014 30.5952 24.8006 30.6052 24.7968 30.6144L21.5325 29.2604ZM21.3545 31.3745L21.9225 33.8503L25.367 33.0601L24.799 30.5843L21.3545 31.3745ZM21.9225 33.8503C21.9209 33.8433 21.9209 33.836 21.9225 33.829L25.367 34.6191C25.4847 34.1061 25.4847 33.5731 25.367 33.0601L21.9225 33.8503ZM21.9226 33.8287L21.3546 36.3032L24.7989 37.0938L25.3669 34.6194L21.9226 33.8287ZM21.3545 36.3034C21.1925 37.0095 21.2545 37.7486 21.5319 38.4178L24.7965 37.0648C24.8003 37.0739 24.8012 37.084 24.799 37.0936L21.3545 36.3034ZM21.5319 38.4178C21.8093 39.0871 22.2883 39.6533 22.9023 40.0378L24.7778 37.0426C24.7862 37.0479 24.7928 37.0556 24.7965 37.0648L21.5319 38.4178ZM22.9018 40.0375L25.0529 41.3854L26.9294 38.3909L24.7783 37.0429L22.9018 40.0375ZM25.0546 41.3865C25.0467 41.3816 25.0428 41.3765 25.0416 41.3746L28.03 39.4883C27.7509 39.0462 27.3756 38.6698 26.9276 38.3898L25.0546 41.3865ZM25.0384 41.3696L26.3863 43.5208L29.3809 41.6445L28.0331 39.4933L25.0384 41.3696ZM26.3854 43.5194C27.173 44.7791 28.6733 45.4 30.1201 45.0683L29.3303 41.6237C29.3494 41.6193 29.3699 41.6269 29.3818 41.6459L26.3854 43.5194ZM30.1208 45.0681L32.5937 44.5001L31.8025 41.0558L29.3296 41.6239L30.1208 45.0681ZM32.5939 44.5C32.5868 44.5016 32.5795 44.5016 32.5725 44.5L33.3641 41.0559C32.8502 40.9378 32.3162 40.9378 31.8023 41.0559L32.5939 44.5ZM32.5729 44.5001L35.0472 45.0682L35.8379 41.6238L33.3637 41.0558L32.5729 44.5001ZM35.0474 45.0682C35.7535 45.2302 36.4926 45.1682 37.1619 44.8908L35.8087 41.6262C35.8178 41.6224 35.828 41.6216 35.8377 41.6238L35.0474 45.0682ZM37.1619 44.8908C37.8312 44.6134 38.3974 44.1343 38.7818 43.5203L35.7865 41.645C35.7917 41.6366 35.7995 41.63 35.8087 41.6262L37.1619 44.8908ZM38.7815 43.5208L40.1293 41.3696L37.1346 39.4933L35.7868 41.6445L38.7815 43.5208ZM40.1304 41.3679C40.1257 41.3753 40.1193 41.3818 40.1118 41.3865L38.2387 38.3898C37.7911 38.6696 37.4133 39.0474 37.1336 39.495L40.1304 41.3679ZM40.1131 41.3857L42.2655 40.0378L40.3899 37.0427L38.2374 38.3906L40.1131 41.3857ZM42.2664 40.0372C42.8804 39.6522 43.3592 39.0853 43.6361 38.4155L40.3703 37.0654C40.374 37.0562 40.3806 37.0485 40.389 37.0432L42.2664 40.0372ZM43.6361 38.4155C43.913 37.7457 43.9743 37.0062 43.8114 36.3L40.3679 37.0942C40.3656 37.0846 40.3665 37.0745 40.3703 37.0654L43.6361 38.4155ZM43.812 36.3025L43.2453 33.8294L39.8006 34.6187L40.3673 37.0918L43.812 36.3025ZM43.245 33.8283C43.2467 33.8353 43.2467 33.8426 43.245 33.8496L39.8009 33.0581C39.6828 33.572 39.6828 34.106 39.8009 34.6199L43.245 33.8283ZM43.2451 33.8492L43.8132 31.3747L40.3688 30.5841L39.8008 33.0585L43.2451 33.8492ZM43.813 31.3753C43.9753 30.6695 43.9137 29.9306 43.6369 29.2614L40.3714 30.6124C40.3676 30.6032 40.3667 30.5932 40.3689 30.5835L43.813 31.3753ZM43.6369 29.2614C43.36 28.5921 42.8816 28.0257 42.268 27.6409L40.3901 30.6345C40.3817 30.6293 40.3751 30.6215 40.3714 30.6124L43.6369 29.2614ZM42.2669 27.6401L40.1144 26.2922L38.2388 29.2873L40.3912 30.6352L42.2669 27.6401ZM40.1153 26.2928C40.1214 26.2966 40.1266 26.3018 40.1304 26.3078L37.1363 28.1851C37.4157 28.6307 37.7923 29.0073 38.2379 29.2868L40.1153 26.2928ZM40.1303 26.3076L38.781 24.1564L35.7872 26.0341L37.1365 28.1853L40.1303 26.3076ZM38.1446 31.6158C38.4483 31.0575 38.5235 30.4031 38.3545 29.7905L34.9478 30.7301C34.8735 30.4608 34.9065 30.1731 35.04 29.9276L38.1446 31.6158ZM38.3545 29.7905C38.1855 29.1778 37.7855 28.6545 37.2385 28.3308L35.4384 31.3719C35.1979 31.2295 35.0221 30.9995 34.9478 30.7301L38.3545 29.7905ZM37.2385 28.3308C36.6915 28.007 36.0403 27.9081 35.4218 28.0547L36.2373 31.4933C35.9653 31.5578 35.679 31.5143 35.4384 31.3719L37.2385 28.3308ZM35.4218 28.0547C34.8034 28.2014 34.266 28.5822 33.9226 29.1171L36.8965 31.0262C36.7455 31.2613 36.5092 31.4288 36.2373 31.4933L35.4218 28.0547ZM33.8882 29.1728L30.2917 35.2606L33.3343 37.0581L36.9308 30.9704L33.8882 29.1728ZM33.0351 34.8831L30.8634 32.8035L28.4192 35.3558L30.5909 37.4355L33.0351 34.8831ZM30.9072 32.8469C30.6772 32.6108 30.4021 32.4233 30.0981 32.2958L28.7312 35.5547C28.5975 35.4987 28.4765 35.4162 28.3754 35.3124L30.9072 32.8469ZM30.0981 32.2958C29.7941 32.1683 29.4676 32.1034 29.138 32.1048L29.1534 35.6387C29.0084 35.6393 28.8648 35.6108 28.7312 35.5547L30.0981 32.2958ZM29.138 32.1048C28.8083 32.1063 28.4824 32.1741 28.1795 32.3042L29.5748 35.551C29.4416 35.6083 29.2983 35.6381 29.1534 35.6387L29.138 32.1048ZM28.1795 32.3042C27.8767 32.4344 27.6032 32.6242 27.3753 32.8623L29.9284 35.3057C29.8282 35.4104 29.708 35.4938 29.5748 35.551L28.1795 32.3042ZM27.3753 32.8623C27.1474 33.1004 26.9698 33.382 26.8531 33.6903L30.158 34.9416C30.1067 35.0772 30.0286 35.201 29.9284 35.3057L27.3753 32.8623ZM26.8531 33.6903C26.7363 33.9985 26.6829 34.3271 26.6959 34.6564L30.2271 34.5169C30.2328 34.6616 30.2093 34.8061 30.158 34.9416L26.8531 33.6903ZM26.6959 34.6564C26.7089 34.9858 26.7882 35.3091 26.9288 35.6072L30.1247 34.0989C30.1866 34.2299 30.2214 34.3721 30.2271 34.5169L26.6959 34.6564ZM26.9288 35.6072C27.0695 35.9053 27.2688 36.172 27.5148 36.3914L29.8671 33.7541C29.9752 33.8505 30.0629 33.9678 30.1247 34.0989L26.9288 35.6072ZM27.4684 36.3485L30.2659 39.0292L32.7109 36.4777L29.9135 33.797L27.4684 36.3485ZM30.2672 39.0305C30.5345 39.2861 30.856 39.478 31.2078 39.5918L32.296 36.2296C32.4507 36.2797 32.5921 36.364 32.7096 36.4764L30.2672 39.0305ZM31.2078 39.5918C31.5596 39.7057 31.9326 39.7386 32.299 39.6881L31.8162 36.1873C31.9773 36.1651 32.1413 36.1795 32.296 36.2296L31.2078 39.5918ZM32.299 39.6881C32.6653 39.6376 33.0154 39.5049 33.3233 39.3001L31.3658 36.3579C31.5012 36.2678 31.6551 36.2095 31.8162 36.1873L32.299 39.6881ZM33.3233 39.3001C33.6312 39.0953 33.8888 38.8236 34.0769 38.5052L31.0345 36.7074C31.1172 36.5674 31.2304 36.4479 31.3658 36.3579L33.3233 39.3001ZM34.0771 38.5049L38.1138 31.6703L35.0709 29.8731L31.0343 36.7077L34.0771 38.5049Z" fill="#FCF3F0" mask="url(#path-3-outside-1_1_52450)"/>
</svg>
