<svg width="463" height="439" viewBox="0 0 463 439" fill="none" xmlns="http://www.w3.org/2000/svg">
<path d="M460.904 231.196V437.174H347.757L189.875 279.572L188.948 278.647L188.021 279.572L168.039 299.503L167.109 300.431L167.124 300.446L122.561 344.901L121.63 345.83L121.645 345.845L77.8155 389.567L76.8851 390.495L76.9 390.51L30.1389 437.174H1.4066V231.196L59.6126 173.093H86.8261H89.9996L87.7536 170.851L74.8061 157.927L231.155 1.85501L460.904 231.196ZM253.885 437.175L143.865 327.365L168.986 302.303L304.097 437.175H253.885ZM162.924 437.179L98.383 372.767L123.503 347.705L213.136 437.179H162.924ZM123.646 437.179H33.8574L78.7585 392.371L123.646 437.179ZM37.3097 245.48L36.9244 245.865V246.409V286.301V289.466L39.1647 287.23L117.432 209.101L118.363 208.172L117.432 207.243L97.4509 187.297L96.5234 186.371L95.5959 187.297L37.3097 245.48ZM36.9244 377.097V380.263L39.1647 378.026L162.911 254.499L163.842 253.57L162.911 252.641L144.396 234.174L143.469 233.249L142.542 234.174L37.3098 339.205L36.9244 339.59V340.134V377.097ZM362.087 401.34L362.471 401.724H363.014H397.109H400.282L398.036 399.482L141.463 143.364L140.535 142.438L139.608 143.364L122.56 160.38L121.63 161.31L122.56 162.239L362.087 401.34ZM423.146 374.424L425.386 376.66V373.494V336.532V335.987L425.001 335.602L186.941 97.9654L186.014 97.0396L185.086 97.9654L166.572 116.447L165.641 117.376L166.572 118.305L423.146 374.424ZM423.146 283.627L425.386 285.864V282.698V246.409V245.865L425.001 245.48L232.083 52.9042L231.155 51.9783L230.228 52.9042L212.051 71.0488L211.12 71.9779L212.051 72.9071L423.146 283.627Z" stroke="url(#paint0_linear_1_81027)" stroke-width="2.6257"/>
<defs>
<linearGradient id="paint0_linear_1_81027" x1="231.155" y1="0" x2="231.155" y2="438.492" gradientUnits="userSpaceOnUse">
<stop stop-color="#DEEEF2"/>
<stop offset="1" stop-color="#39869B" stop-opacity="0"/>
</linearGradient>
</defs>
</svg>
