<svg width="231" height="219" viewBox="0 0 231 219" fill="none" xmlns="http://www.w3.org/2000/svg">
<path d="M61.584 173.174L48.9798 185.727L48.9819 185.73M61.584 173.174L107.29 217.87H106.43M61.584 173.174L61.5854 173.175M61.584 173.174L62.0124 172.747L62.0138 172.748L61.5854 173.175M48.9819 185.73L48.5519 186.158L80.9864 218.477M48.9819 185.73L61.5854 173.175M48.9819 185.73L81.2371 217.87M80.9864 218.477H107.039L106.43 217.87M80.9864 218.477V217.87H81.2371M80.9864 218.477L81.4147 218.047L81.2371 217.87M106.43 217.87H81.2371M106.43 217.87L61.5854 173.175M230.007 115.173V217.867H173.475L94.6728 139.329L94.2445 138.902L93.8161 139.329L83.8448 149.259L83.4137 149.689L83.421 149.696L61.1494 171.879L60.7179 172.309L60.7252 172.316L38.8201 194.133L38.3889 194.563L38.3963 194.57L15.0137 217.867H0.60688V115.173L29.6816 86.1958H43.2823H44.7509L43.7107 85.1591L37.2162 78.6864L115.307 0.856819L230.007 115.173ZM61.7716 217.87H16.7341L39.2563 195.43L61.7716 217.87ZM126.63 217.868L71.6791 163.108L84.2826 150.554L151.823 217.868H126.63ZM18.6064 122.342L18.4279 122.52V122.772V142.648V144.11L19.4632 143.078L58.5212 104.151L58.9525 103.721L58.5212 103.291L48.5499 93.3531L48.1215 92.9262L47.6931 93.3531L18.6064 122.342ZM18.4279 187.887V189.349L19.4632 188.317L81.2166 126.77L81.6481 126.34L81.2164 125.91L71.9772 116.709L71.5489 116.283L71.1206 116.709L18.6064 169.041L18.4279 169.218V169.47V187.887ZM180.681 199.933L180.858 200.11H181.109H198.123H199.592L198.552 199.073L70.5132 71.4634L70.0848 71.0364L69.6564 71.4634L61.1493 79.942L60.718 80.3719L61.1493 80.8017L180.681 199.933ZM211.151 186.522L212.186 187.554V186.092V167.675V167.424L212.008 167.246L93.2085 48.844L92.7801 48.417L92.3517 48.844L83.1125 58.0523L82.6812 58.4821L83.1125 58.912L211.151 186.522ZM211.151 141.283L212.186 142.315V140.853V122.772V122.52L212.008 122.342L115.736 26.3924L115.307 25.9654L114.879 26.3924L105.808 35.4329L105.377 35.8627L105.808 36.2926L211.151 141.283Z" stroke="url(#paint0_linear_1_52739)" stroke-width="1.21376"/>
<defs>
<linearGradient id="paint0_linear_1_52739" x1="115.307" y1="0" x2="115.307" y2="218.477" gradientUnits="userSpaceOnUse">
<stop stop-color="#B5CAD5"/>
<stop offset="1" stop-color="#96CCE5" stop-opacity="0"/>
</linearGradient>
</defs>
</svg>
