<svg width="50" height="51" viewBox="0 0 50 51" fill="none" xmlns="http://www.w3.org/2000/svg">
<circle cx="24.999" cy="25.4785" r="24.999" fill="#FEF8F7"/>
<path d="M15.2233 25.7774V19.1548C15.2429 17.853 15.5193 16.5679 16.0365 15.3731C16.5537 14.1784 17.3016 13.0974 18.2373 12.1921C19.173 11.2868 20.2782 10.5751 21.4895 10.0976C22.7008 9.6202 23.9944 9.38646 25.2961 9.40979C26.5979 9.38646 27.8915 9.6202 29.1028 10.0976C30.3141 10.5751 31.4192 11.2868 32.355 12.1921C33.2907 13.0974 34.0386 14.1784 34.5558 15.3731C35.073 16.5679 35.3493 17.853 35.369 19.1548V25.7774M30.3326 38.9974C31.6683 38.9974 32.9494 38.4668 33.8939 37.5223C34.8384 36.5779 35.369 35.2969 35.369 33.9612V28.2955M30.3326 38.9974C30.3326 39.8322 30.0009 40.6328 29.4106 41.2231C28.8203 41.8134 28.0196 42.145 27.1848 42.145H23.4075C22.5726 42.145 21.772 41.8134 21.1817 41.2231C20.5913 40.6328 20.2597 39.8322 20.2597 38.9974C20.2597 38.1626 20.5913 37.362 21.1817 36.7717C21.772 36.1814 22.5726 35.8498 23.4075 35.8498H27.1848C28.0196 35.8498 28.8203 36.1814 29.4106 36.7717C30.0009 37.362 30.3326 38.1626 30.3326 38.9974ZM11.446 22.0003H13.9642C14.2981 22.0003 14.6184 22.1329 14.8545 22.369C15.0906 22.6051 15.2233 22.9254 15.2233 23.2593V30.8136C15.2233 31.1475 15.0906 31.4678 14.8545 31.7039C14.6184 31.94 14.2981 32.0726 13.9642 32.0726H11.446C10.7781 32.0726 10.1376 31.8073 9.6653 31.3351C9.19305 30.8629 8.92773 30.2224 8.92773 29.5545V24.5184C8.92773 23.8505 9.19305 23.21 9.6653 22.7378C10.1376 22.2656 10.7781 22.0003 11.446 22.0003ZM39.1463 32.0726H36.6281C36.2942 32.0726 35.9739 31.94 35.7378 31.7039C35.5017 31.4678 35.369 31.1475 35.369 30.8136V23.2593C35.369 22.9254 35.5017 22.6051 35.7378 22.369C35.9739 22.1329 36.2942 22.0003 36.6281 22.0003H39.1463C39.8142 22.0003 40.4547 22.2656 40.927 22.7378C41.3992 23.21 41.6646 23.8505 41.6646 24.5184V29.5545C41.6646 30.2224 41.3992 30.8629 40.927 31.3351C40.4547 31.8073 39.8142 32.0726 39.1463 32.0726Z" stroke="#222222" stroke-width="2.08958" stroke-linecap="round" stroke-linejoin="round"/>
<path d="M19.8398 28.7148C20.1756 28.7148 24.4566 32.0725 29.9127 28.7148" stroke="#D75438" stroke-width="2.08958"/>
</svg>
