<svg width="58" height="51" viewBox="0 0 58 51" fill="none" xmlns="http://www.w3.org/2000/svg">
<path d="M2 25.5046L25.5046 2L49.0092 25.5046M7.87615 21.0975V46.0711C7.87615 46.8503 8.18569 47.5976 8.73669 48.1486C9.28768 48.6996 10.035 49.0092 10.8142 49.0092H19.6284V40.195C19.6284 39.4157 19.938 38.6684 20.489 38.1174C21.04 37.5664 21.7873 37.2569 22.5665 37.2569H28.4427C29.2219 37.2569 29.9692 37.5664 30.5202 38.1174C31.0712 38.6684 31.3807 39.4157 31.3807 40.195V49.0092H40.195C40.9742 49.0092 41.7215 48.6996 42.2725 48.1486C42.8235 47.5976 43.133 46.8503 43.133 46.0711V21.0975" stroke="#222222" stroke-width="3.54863" stroke-linecap="round" stroke-linejoin="round"/>
<path d="M55.8626 15.2213C55.8626 22.5233 49.9432 28.4427 42.6413 28.4427C35.3393 28.4427 29.4199 22.5233 29.4199 15.2213C29.4199 7.91939 35.3393 2 42.6413 2C49.9432 2 55.8626 7.91939 55.8626 15.2213Z" fill="#FEF8F6"/>
<path d="M42.0471 9.21555L42.6413 16.874L46.0157 19.6781M55.8626 15.2213C55.8626 22.5233 49.9432 28.4427 42.6413 28.4427C35.3393 28.4427 29.4199 22.5233 29.4199 15.2213C29.4199 7.91939 35.3393 2 42.6413 2C49.9432 2 55.8626 7.91939 55.8626 15.2213Z" stroke="#D75337" stroke-width="3.54863" stroke-linecap="round"/>
</svg>
