<svg width="70" height="53" viewBox="0 0 70 53" fill="none" xmlns="http://www.w3.org/2000/svg">
<circle cx="34.8666" cy="26.4877" r="25.5307" fill="#FEF8F7"/>
<path d="M29.8799 22.9074L29.9185 14.7404L30.4459 15.7063L28.3418 16.7173L27.9339 14.803L30.7443 13.4071L32.0528 13.4133L32.0079 22.9174L29.8799 22.9074ZM28.1081 23.6036L28.1172 21.6625L33.8255 21.6894L33.8163 23.6305L28.1081 23.6036ZM38.5462 23.7535C37.8177 23.7501 37.157 23.5984 36.5641 23.2984C35.9808 22.9889 35.494 22.5457 35.1037 21.9687L36.2745 20.6801C36.6845 21.1422 37.0569 21.4554 37.3916 21.62C37.7263 21.7845 38.095 21.8677 38.4976 21.8696C38.8331 21.8712 39.1354 21.8056 39.4044 21.6726C39.6735 21.5301 39.8853 21.3346 40.0398 21.0861C40.1944 20.8376 40.2724 20.56 40.2738 20.2532C40.2753 19.9369 40.2 19.6538 40.0478 19.4038C39.8956 19.1539 39.6904 18.9564 39.4323 18.8114C39.1838 18.6568 38.8966 18.5788 38.5707 18.5772C38.3598 18.5763 38.1632 18.5945 37.9809 18.632C37.7986 18.6599 37.597 18.7212 37.3761 18.8161C37.1552 18.9013 36.8862 19.0294 36.5691 19.2005L35.5974 17.9018L36.2364 13.5193L41.9015 13.546L41.8928 15.4008L37.3204 15.3793L37.8554 14.7491L37.3658 17.9389L36.6772 17.6049C36.8217 17.4714 37.0188 17.3477 37.2685 17.2339C37.5279 17.1105 37.8064 17.0159 38.1038 16.9502C38.4109 16.875 38.7083 16.8381 38.9958 16.8394C39.6285 16.8424 40.1886 16.9888 40.6761 17.2787C41.1732 17.5686 41.5643 17.9731 41.8494 18.4921C42.1442 19.0015 42.29 19.5869 42.2869 20.2483C42.2838 20.9098 42.118 21.5081 41.7895 22.0433C41.4611 22.569 41.0134 22.9887 40.4464 23.3023C39.8794 23.6064 39.246 23.7568 38.5462 23.7535Z" fill="#D75337"/>
<path d="M27.6675 29.1222L27.675 27.5363L27.7057 27.7591L26.4284 25.9355L27.1191 25.9387L28.0939 27.352L27.8804 27.3374L28.7731 25.9466L29.4365 25.9497L28.1962 27.8114L28.2659 27.5028L28.2582 29.125L27.6675 29.1222ZM30.4571 29.1353L30.4721 25.9546L32.5533 25.9644L32.5507 26.5006L31.0512 26.4935L31.0413 28.6019L32.559 28.6091L32.5564 29.1452L30.4571 29.1353ZM30.7362 27.7734L30.7387 27.2463L32.3154 27.2538L32.3129 27.7809L30.7362 27.7734ZM33.5334 29.1498L34.7889 25.9749L35.3432 25.9776L36.5596 29.1641L35.9462 29.1612L35.2732 27.3495C35.2582 27.3131 35.2372 27.2554 35.2104 27.1766C35.1865 27.0977 35.1596 27.0127 35.1298 26.9217C35.0999 26.8277 35.0731 26.7412 35.0492 26.6623C35.0253 26.5804 35.0074 26.5213 34.9955 26.4848L35.1091 26.4808C35.0907 26.5413 35.0691 26.6094 35.0445 26.685C35.02 26.7606 34.9938 26.8393 34.9662 26.9209C34.9385 27.0026 34.9109 27.0812 34.8833 27.1568C34.8587 27.2325 34.8356 27.3005 34.8142 27.361L34.1241 29.1526L33.5334 29.1498ZM34.1003 28.4255L34.3072 27.913L35.7567 27.9198L35.9724 28.4343L34.1003 28.4255ZM37.6513 29.1693L37.6663 25.9885L39.0477 25.995C39.2385 25.9959 39.4125 26.0422 39.5696 26.1338C39.7267 26.2224 39.8503 26.3442 39.9405 26.4991C40.0337 26.651 40.0798 26.8224 40.0789 27.0132C40.078 27.195 40.0303 27.3629 39.9357 27.5169C39.8441 27.668 39.7193 27.7886 39.5613 27.8787C39.4064 27.9658 39.232 28.0089 39.0382 28.008L38.2339 28.0042L38.2284 29.172L37.6513 29.1693ZM39.4961 29.178L38.6941 27.7383L39.3035 27.6276L40.1959 29.1858L39.4961 29.178ZM38.2363 27.4907L39.0451 27.4946C39.133 27.495 39.2088 27.4756 39.2726 27.4366C39.3395 27.3945 39.3912 27.3371 39.4279 27.2646C39.4646 27.1921 39.4832 27.1119 39.4836 27.024C39.4841 26.9241 39.4617 26.8376 39.4166 26.7647C39.3715 26.6918 39.3082 26.6339 39.2266 26.5911C39.145 26.5483 39.0512 26.5267 38.9452 26.5262L38.2409 26.5229L38.2363 27.4907ZM42.4189 29.2372C42.2341 29.2363 42.0646 29.2128 41.9103 29.1667C41.756 29.1175 41.617 29.0456 41.4933 28.9511C41.3695 28.8566 41.2595 28.7425 41.1632 28.6088L41.5514 28.1744C41.6989 28.381 41.8436 28.5241 41.9856 28.6035C42.1277 28.683 42.288 28.7231 42.4667 28.724C42.5697 28.7244 42.6637 28.7097 42.7487 28.6798C42.8337 28.6469 42.9005 28.6033 42.9492 28.549C42.998 28.4917 43.0225 28.4267 43.0229 28.354C43.0231 28.3025 43.0127 28.2555 42.9917 28.213C42.9738 28.1674 42.9452 28.1279 42.9059 28.0944C42.8667 28.0579 42.8184 28.0243 42.761 27.9938C42.7036 27.9632 42.6386 27.9371 42.566 27.9156C42.4934 27.894 42.4132 27.874 42.3254 27.8554C42.159 27.8213 42.0138 27.7767 41.8898 27.7215C41.7659 27.6634 41.6617 27.5932 41.5773 27.511C41.4929 27.4258 41.4312 27.3316 41.3923 27.2284C41.3534 27.1222 41.3343 27.0025 41.3349 26.8692C41.3356 26.7359 41.3649 26.6134 41.423 26.5015C41.4841 26.3897 41.5664 26.2932 41.6698 26.2119C41.7731 26.1306 41.8931 26.0675 42.0296 26.0227C42.1662 25.9779 42.3132 25.9559 42.4707 25.9567C42.6494 25.9575 42.8084 25.9795 42.9475 26.0225C43.0897 26.0656 43.2136 26.1298 43.3192 26.2151C43.4279 26.2974 43.5168 26.3978 43.5859 26.5163L43.1933 26.9007C43.1332 26.8065 43.0654 26.7289 42.9899 26.668C42.9145 26.604 42.8329 26.5567 42.7452 26.526C42.6575 26.4922 42.5652 26.4751 42.4683 26.4747C42.3592 26.4741 42.2637 26.4888 42.1818 26.5188C42.1029 26.5487 42.0406 26.5923 41.9949 26.6496C41.9492 26.704 41.9261 26.7705 41.9258 26.8493C41.9255 26.9098 41.9389 26.9644 41.9659 27.013C41.9929 27.0586 42.0306 27.0997 42.0789 27.1363C42.1302 27.1729 42.1952 27.205 42.2738 27.2326C42.3525 27.2602 42.4417 27.2849 42.5416 27.3066C42.7081 27.3407 42.8578 27.3868 42.9908 27.445C43.1238 27.5002 43.2371 27.5673 43.3307 27.6466C43.4242 27.7227 43.495 27.8109 43.543 27.9111C43.591 28.0083 43.6147 28.1174 43.6141 28.2386C43.6132 28.4476 43.5623 28.6276 43.4616 28.7786C43.364 28.9266 43.2256 29.0411 43.0465 29.122C42.8674 29.1999 42.6582 29.2383 42.4189 29.2372Z" fill="#181818"/>
<path d="M50.6706 20.6885C50.597 20.5463 50.555 20.3899 50.5477 20.2299L50.3726 16.3942C50.3562 16.0351 50.1664 15.7063 49.8636 15.5125L46.6297 13.443C46.4948 13.3567 46.3803 13.2422 46.294 13.1074L44.224 9.87297C44.0302 9.5702 43.7015 9.3804 43.3424 9.36396L39.5064 9.18834C39.3466 9.18103 39.1902 9.13912 39.0481 9.06552L35.6386 7.29977C35.3194 7.13444 34.9397 7.13446 34.6205 7.29982L31.2111 9.06596C31.0689 9.13959 30.9125 9.18151 30.7526 9.18883L26.9166 9.36445C26.5576 9.38088 26.2289 9.57067 26.0351 9.87341L23.9651 13.1074C23.8788 13.2422 23.7643 13.3567 23.6295 13.443L20.3955 15.5125C20.0927 15.7063 19.9029 16.0351 19.8865 16.3942L19.7114 20.2299C19.7041 20.3898 19.6621 20.5463 19.5885 20.6885L17.8223 24.0979C17.6569 24.4172 17.6569 24.7968 17.8223 25.1161L19.5885 28.5257C19.6621 28.6678 19.7041 28.8242 19.7114 28.9841L19.887 32.8199C19.9034 33.179 20.0932 33.5077 20.396 33.7015L23.6294 35.771C23.7643 35.8573 23.8788 35.9718 23.9651 36.1066L26.0347 39.341C26.2284 39.6438 26.5573 39.8337 26.9164 39.8501L30.7522 40.0253C30.9121 40.0326 31.0686 40.0745 31.2107 40.1481L34.6205 41.9143C34.9397 42.0796 35.3194 42.0796 35.6386 41.9143L39.048 40.1482C39.1901 40.0745 39.3466 40.0326 39.5065 40.0253L43.3423 39.8501C43.7015 39.8337 44.0303 39.6438 44.2241 39.341L46.2936 36.1067C46.3799 35.9718 46.4945 35.8573 46.6294 35.771L49.8634 33.7019C50.1663 33.5081 50.3561 33.1793 50.3725 32.8201L50.5477 28.9846C50.555 28.8246 50.597 28.6682 50.6706 28.526L52.4368 25.1164C52.6022 24.7972 52.6022 24.4175 52.4368 24.0983L50.6706 20.6885Z" stroke="#181818" stroke-width="2.21357"/>
<circle cx="35.2102" cy="24.7444" r="15.6794" stroke="#222222" stroke-width="1.84464"/>
<path d="M64.9751 44.3163C63.5179 43.3659 60.3025 42.8115 58.877 42.6531C59.5105 39.5117 60.8252 33.0386 61.0153 32.2783C63.0427 32.405 67.2982 33.5455 69.1726 34.0999L64.0248 38.6141C64.3416 40.2244 64.9751 43.6193 64.9751 44.3163Z" fill="#A23F20"/>
<path d="M5.38302 44.6521C6.81107 43.6584 10.0084 43.0078 11.4285 42.8067C10.701 39.6856 9.19263 33.2549 8.97983 32.5007C6.9571 32.6882 2.73772 33.9558 0.880869 34.5662L6.16183 38.9239C5.89351 40.543 5.36211 43.9554 5.38302 44.6521Z" fill="#A23F20"/>
<path d="M11.9121 45.7418L9.37891 34.2649C30.0194 29.2327 52.1922 32.1681 60.6986 34.2649C59.9481 37.7962 58.3906 45.0355 58.1655 45.7418C39.8517 41.3276 19.6991 43.9026 11.9121 45.7418Z" fill="#D75337"/>
<path d="M16.9814 40.2807L15.2442 36.3838L16.1353 36.2727L17.0769 38.4531C17.1139 38.5307 17.1482 38.6166 17.1795 38.7106C17.2141 38.8003 17.2428 38.8888 17.2654 38.9761C17.2914 39.059 17.3131 39.1386 17.3304 39.2148C17.3511 39.2866 17.3685 39.3472 17.3824 39.3963L17.2428 39.4079C17.2574 39.2415 17.2695 39.1029 17.2792 38.992C17.2884 38.8772 17.2973 38.7762 17.306 38.6889C17.3181 38.5973 17.3341 38.5052 17.3539 38.4127L17.782 36.6611L18.4996 36.5717L19.3329 38.1661C19.3936 38.2761 19.4442 38.3834 19.4846 38.488C19.5285 38.5883 19.5663 38.6874 19.5981 38.7853C19.6294 38.8794 19.659 38.9756 19.6869 39.0739L19.5683 39.1122C19.5698 39.0298 19.5688 38.9594 19.5655 38.901C19.5655 38.8384 19.5643 38.7817 19.5619 38.7311C19.5634 38.68 19.5648 38.6288 19.5663 38.5777C19.5673 38.5228 19.5712 38.4596 19.578 38.3882C19.5843 38.313 19.5968 38.2253 19.6157 38.125L19.9891 35.7926L20.8686 35.683L20.1292 39.8885L19.4811 39.9693L18.1874 37.6977L18.2814 37.6977L17.6468 40.1978L16.9814 40.2807Z" fill="white"/>
<path d="M22.2097 39.6629L23.4723 35.463L24.251 35.3988L26.1731 39.336L25.2781 39.4098L24.278 37.2864C24.2496 37.2264 24.214 37.1493 24.1712 37.0554C24.1322 36.9611 24.0908 36.8611 24.047 36.7555C24.0032 36.6499 23.9618 36.5499 23.9228 36.4556C23.8835 36.3575 23.8534 36.2761 23.8324 36.2115L23.9893 36.1985C23.9731 36.2857 23.9535 36.379 23.9305 36.4784C23.9111 36.5736 23.89 36.6729 23.8673 36.7762C23.8443 36.8756 23.8192 36.9732 23.792 37.0691C23.7648 37.1649 23.7394 37.2587 23.7157 37.3504L23.0756 39.5914L22.2097 39.6629ZM22.8831 38.7472L23.1103 38.0264L24.9758 37.8725L25.3239 38.5459L22.8831 38.7472Z" fill="white"/>
<path d="M27.5104 39.2566L27.3192 35.1793L29.1249 35.0946C29.3773 35.0827 29.6091 35.1302 29.8204 35.2371C30.0315 35.34 30.1998 35.4858 30.3254 35.6745C30.4549 35.8631 30.5255 36.0816 30.5371 36.3301C30.5486 36.5747 30.4989 36.8008 30.388 37.0084C30.2808 37.2119 30.127 37.3768 29.9267 37.5029C29.7263 37.6291 29.4999 37.6981 29.2475 37.7099L28.2864 37.755L28.355 39.217L27.5104 39.2566ZM29.8229 39.1482L28.6997 37.3561L29.5899 37.1684L30.8367 39.1064L29.8229 39.1482ZM28.2531 37.0444L29.1734 37.0012C29.2783 36.9963 29.3684 36.9687 29.4439 36.9184C29.5231 36.8641 29.582 36.7933 29.6207 36.7058C29.6593 36.6145 29.676 36.5145 29.6709 36.4058C29.6654 36.2893 29.6354 36.1895 29.581 36.1064C29.5265 36.0234 29.4496 35.9608 29.3503 35.9188C29.2509 35.8728 29.1371 35.8529 29.0089 35.8589L28.1993 35.8969L28.2531 37.0444Z" fill="white"/>
<path d="M32.3298 39.0619L32.2831 34.9803L34.0906 34.9596C34.3433 34.9567 34.5733 35.0124 34.7807 35.1266C34.988 35.237 35.1511 35.3887 35.2699 35.5817C35.3926 35.7747 35.4554 35.9956 35.4583 36.2444C35.4611 36.4893 35.4034 36.7135 35.2852 36.917C35.1709 37.1166 35.0113 37.2758 34.8066 37.3948C34.602 37.5138 34.3733 37.5747 34.1206 37.5776L33.1585 37.5887L33.1753 39.0522L32.3298 39.0619ZM34.6447 39.0354L33.5857 37.2047L34.4819 37.0486L35.6593 39.0296L34.6447 39.0354ZM33.1504 36.8773L34.0716 36.8667C34.1766 36.8655 34.2677 36.8412 34.3449 36.7936C34.4259 36.7422 34.4874 36.6734 34.5291 36.5874C34.5709 36.4975 34.5911 36.3981 34.5899 36.2893C34.5885 36.1727 34.5621 36.0719 34.5106 35.987C34.4591 35.902 34.3845 35.8368 34.2868 35.7913C34.189 35.7418 34.076 35.7179 33.9477 35.7193L33.1372 35.7286L33.1504 36.8773Z" fill="white"/>
<path d="M36.6607 39.0256L38.3617 34.9834L39.1428 35.0021L40.6365 39.1209L39.7387 39.0994L38.9694 36.8819C38.9476 36.8192 38.9204 36.7388 38.8877 36.6408C38.859 36.5429 38.8284 36.4392 38.796 36.3295C38.7637 36.2198 38.7331 36.1161 38.7043 36.0182C38.6757 35.9164 38.6543 35.8322 38.6404 35.7658L38.7978 35.7696C38.7724 35.8545 38.743 35.9452 38.7096 36.0416C38.6802 36.1342 38.6487 36.2307 38.6152 36.331C38.5818 36.4274 38.5464 36.5218 38.5092 36.6143C38.472 36.7067 38.4368 36.7972 38.4036 36.8859L37.5293 39.0464L36.6607 39.0256ZM37.4275 38.1866L37.7299 37.4939L39.6012 37.5387L39.8759 38.2452L37.4275 38.1866Z" fill="white"/>
<path d="M41.9697 39.1804L42.2204 35.1063L43.0003 35.1543L45.0654 38.3369L44.9025 38.3268C44.8944 38.2056 44.8879 38.0884 44.8832 37.9751C44.8787 37.858 44.8743 37.7409 44.8698 37.6238C44.8694 37.503 44.8692 37.3803 44.8691 37.2556C44.8731 37.1274 44.8774 36.9933 44.8821 36.8533C44.8871 36.7095 44.8947 36.5542 44.905 36.3874L44.9734 35.2757L45.829 35.3283L45.5782 39.4025L44.7867 39.3538L42.6768 36.1392L42.8976 36.1587C42.9046 36.3616 42.9095 36.5353 42.9123 36.6795C42.9192 36.8202 42.9234 36.9431 42.9247 37.0484C42.9299 37.1538 42.932 37.2455 42.9311 37.3233C42.9302 37.4012 42.9276 37.475 42.9233 37.5449C42.9229 37.615 42.9203 37.6888 42.9155 37.7664L42.8253 39.2331L41.9697 39.1804Z" fill="white"/>
<path d="M48.2002 39.6343L48.5206 36.3552L47.3366 36.2396L47.4132 35.4561L50.6864 35.7759L50.6099 36.5594L49.3911 36.4403L49.0707 39.7193L48.2002 39.6343Z" fill="white"/>
<path d="M52.7844 40.1454L53.0497 38.1276L53.0529 38.4162L51.7208 35.8885L52.721 36.02L53.7342 37.9765L53.3433 37.9075L54.7041 36.2808L55.6696 36.4077L53.7904 38.5779L53.9288 38.1962L53.6574 40.2601L52.7844 40.1454Z" fill="white"/>
</svg>
