<svg width="29" height="30" viewBox="0 0 29 30" fill="none" xmlns="http://www.w3.org/2000/svg">
<rect x="8.31445" y="1.46973" width="12.4814" height="8.68268" fill="#D75337"/>
<path d="M20.7949 20.1052C20.7949 19.8055 21.0379 19.5625 21.3376 19.5625H27.3069C27.6066 19.5625 27.8496 19.8055 27.8496 20.1052V25.5318C27.8496 27.0304 26.6348 28.2452 25.1363 28.2452H21.3376C21.0379 28.2452 20.7949 28.0022 20.7949 27.7025V20.1052Z" fill="#D75337"/>
<path d="M14.6298 10.3831V19.2965M20.5721 19.2965V28.2099M20.5721 1.46973V10.3831M1.25977 19.2965H27.9999M1.25977 10.3831H27.9999M8.68759 19.2965V28.2099M8.68759 1.46973V10.3831" stroke="#181818" stroke-width="1.628" stroke-linecap="round" stroke-linejoin="round"/>
<path d="M25.0288 1.46973H4.23089C2.58998 1.46973 1.25977 2.79995 1.25977 4.44085V25.2388C1.25977 26.8797 2.58998 28.2099 4.23089 28.2099H25.0288C26.6697 28.2099 27.9999 26.8797 27.9999 25.2388V4.44085C27.9999 2.79995 26.6697 1.46973 25.0288 1.46973Z" stroke="#181818" stroke-width="1.628" stroke-linecap="round" stroke-linejoin="round"/>
</svg>
