<svg width="36" height="33" viewBox="0 0 36 33" fill="none" xmlns="http://www.w3.org/2000/svg">
<path d="M1.60156 18.1592L9.95111 21.7368L18.3007 18.1592M9.95111 5.12207L18.298 8.70233L26.6476 5.12471" stroke="#D75337" stroke-width="1.78605" stroke-linecap="round" stroke-linejoin="round"/>
<path d="M18.2969 18.1602L26.6464 21.7378L34.996 18.1602" stroke="#D75337" stroke-width="1.78605" stroke-linecap="round" stroke-linejoin="round"/>
<path d="M9.95312 21.7425V31.2995M26.6549 21.7425V31.2995M18.3 8.7027V18.2571M9.9584 14.5951V5.05126L18.3053 1.47363L26.6549 5.05126V14.5951L18.3053 18.1727L9.9584 14.5951ZM18.3 27.7219V18.178L26.6496 14.6004L34.9991 18.1806V27.7219L26.6496 31.2969L18.3 27.7219Z" stroke="#181818" stroke-width="1.78605" stroke-linecap="round" stroke-linejoin="round"/>
<path d="M1.60156 27.7201V18.1763L9.95111 14.5986L18.3007 18.1789V27.7201L9.95111 31.2951L1.60156 27.7201Z" stroke="#181818" stroke-width="1.78605" stroke-linecap="round" stroke-linejoin="round"/>
</svg>
