<svg width="71" height="73" viewBox="0 0 71 73" fill="none" xmlns="http://www.w3.org/2000/svg">
<path d="M21.7657 28.8396C21.4946 28.8396 21.2346 28.9473 21.0429 29.139C20.8512 29.3307 20.7435 29.5907 20.7435 29.8617V38.039C20.7435 38.3101 20.8512 38.5701 21.0429 38.7617C21.2346 38.9534 21.4946 39.0611 21.7657 39.0611C22.0368 39.0611 22.2968 38.9534 22.4885 38.7617C22.6801 38.5701 22.7878 38.3101 22.7878 38.039V29.8617C22.7878 29.5907 22.6801 29.3307 22.4885 29.139C22.2968 28.9473 22.0368 28.8396 21.7657 28.8396ZM28.9208 14.5294C34.5651 14.5294 39.1423 12.8122 39.1423 10.6964C39.1423 8.5805 34.563 6.86328 28.9208 6.86328C23.2785 6.86328 18.6992 8.5805 18.6992 10.6964C18.6992 12.8122 23.2764 14.5294 28.9208 14.5294ZM28.9208 12.4851C25.5333 12.4851 22.7878 11.5693 22.7878 10.4408C22.7878 9.31236 25.5333 8.39651 28.9208 8.39651C32.3082 8.39651 35.0537 9.31236 35.0537 10.4408C35.0537 11.5693 32.3082 12.4851 28.9208 12.4851Z" fill="#181818"/>
<path d="M53.5749 12.9589C52.4539 11.838 50.9424 11.1947 49.3575 11.164C49.2696 8.96021 48.2045 7.15509 46.9288 5.83651C45.6144 4.47704 43.9114 3.43853 42.1247 2.65761C38.5329 1.08758 33.8637 0.21875 28.9164 0.21875C23.9754 0.21875 19.3041 1.08758 15.7143 2.65761C13.9276 3.43853 12.2226 4.47704 10.9102 5.83651C9.57934 7.21437 8.47746 9.12171 8.47746 11.4624V28.606C7.53068 28.4659 6.56426 28.5494 5.65551 28.8497C4.74676 29.15 3.92091 29.6589 3.24403 30.3355L1.79666 31.7808C1.22705 32.3503 0.775213 33.0265 0.46694 33.7706C0.158667 34.5148 0 35.3123 0 36.1178C0 36.9233 0.158667 37.7209 0.46694 38.465C0.775213 39.2092 1.22705 39.8853 1.79666 40.4548L8.47746 47.1356V50.3043C8.47746 52.645 9.57934 54.5524 10.9102 55.9323C12.2247 57.2897 13.9296 58.3261 15.7164 59.1091C19.3062 60.6791 23.9754 61.548 28.9205 61.548C33.1727 61.548 37.1939 60.9061 40.4954 59.749C42.4825 59.0519 44.3551 58.1156 45.8658 56.8992C47.6525 55.46 49.3636 53.246 49.3636 50.3043V28.7368L55.0223 23.0782C55.5919 22.5087 56.0437 21.8326 56.352 21.0884C56.6602 20.3443 56.8189 19.5467 56.8189 18.7412C56.8189 17.9357 56.6602 17.1381 56.352 16.394C56.0437 15.6498 55.5919 14.9737 55.0223 14.4042L53.5749 12.9589ZM12.5661 36.771V18.5051C13.208 18.9671 13.8969 19.378 14.6104 19.7439V27.8169C14.6104 28.088 14.7181 28.348 14.9098 28.5397C15.1015 28.7314 15.3614 28.8391 15.6325 28.8391C15.9036 28.8391 16.1636 28.7314 16.3553 28.5397C16.547 28.348 16.6547 28.088 16.6547 27.8169V20.6516C20.1014 21.9804 24.3965 22.7061 28.9205 22.7061C33.8637 22.7061 38.5349 21.8373 42.1227 20.2673C43.9114 19.4843 45.6164 18.4478 46.9288 17.0884C47.3622 16.6407 47.7711 16.1378 48.1248 15.5817C48.5175 15.3264 48.986 15.2136 49.4519 15.2624C49.9178 15.3111 50.3529 15.5184 50.6842 15.8495L52.1316 17.2969C52.5149 17.6803 52.7301 18.2001 52.7301 18.7422C52.7301 19.2843 52.5149 19.8042 52.1316 20.1875L45.275 27.0401V50.3043C45.275 51.5391 44.5595 52.7002 43.3002 53.7142C42.7073 54.1912 42.0027 54.6321 41.1864 55.0369V46.2157C41.1864 45.9446 41.0787 45.6846 40.887 45.4929C40.6953 45.3012 40.4353 45.1935 40.1642 45.1935C39.8931 45.1935 39.6331 45.3012 39.4415 45.4929C39.2498 45.6846 39.1421 45.9446 39.1421 46.2157V55.8893C36.3414 56.8706 32.7884 57.4594 28.9205 57.4594C19.8888 57.4594 12.5661 54.2559 12.5661 50.3043V45.4409L4.68731 37.5642C4.49724 37.3743 4.34645 37.1488 4.24357 36.9007C4.14069 36.6525 4.08774 36.3865 4.08774 36.1178C4.08774 35.8492 4.14069 35.5831 4.24357 35.335C4.34645 35.0868 4.49724 34.8613 4.68731 34.6715L6.13468 33.2261C6.51804 32.8429 7.03793 32.6276 7.58 32.6276C8.12208 32.6276 8.64197 32.8429 9.02533 33.2261L12.5661 36.771ZM45.275 11.4624C45.275 15.4141 37.9523 18.6175 28.9205 18.6175C19.8888 18.6175 12.5661 15.4141 12.5661 11.4624C12.5661 7.5108 19.8888 4.30737 28.9205 4.30737C37.9523 4.30737 45.275 7.5108 45.275 11.4624Z" fill="#181818"/>
<mask id="path-3-outside-1_1_81320" maskUnits="userSpaceOnUse" x="33.7969" y="35.7695" width="37" height="37" fill="black">
<rect fill="white" x="33.7969" y="35.7695" width="37" height="37"/>
<path fill-rule="evenodd" clip-rule="evenodd" d="M59.5999 40.0611C59.2964 39.5761 58.8493 39.1978 58.3207 38.9789C57.7921 38.76 57.2085 38.7113 56.651 38.8396L52.6941 39.7486C52.2886 39.8418 51.8672 39.8418 51.4617 39.7486L47.5048 38.8396C46.9473 38.7113 46.3636 38.76 45.8351 38.9789C45.3065 39.1978 44.8593 39.5761 44.5558 40.0611L42.3991 43.5033C42.1791 43.8554 41.882 44.1525 41.5299 44.3748L38.0879 46.5316C37.6038 46.8349 37.2261 47.2814 37.0072 47.809C36.7884 48.3367 36.7392 48.9195 36.8665 49.4764L37.7754 53.4379C37.8683 53.8428 37.8683 54.2634 37.7754 54.6682L36.8665 58.6275C36.7387 59.1848 36.7876 59.768 37.0065 60.2961C37.2254 60.8243 37.6034 61.2711 38.0879 61.5745L41.5299 63.7313C41.882 63.9514 42.1791 64.2485 42.4013 64.6007L44.558 68.0428C45.1786 69.0354 46.3626 69.5262 47.5048 69.2643L51.4617 68.3553C51.8672 68.2621 52.2886 68.2621 52.6941 68.3553L56.6532 69.2643C57.2104 69.3921 57.7935 69.3432 58.3217 69.1243C58.8498 68.9054 59.2966 68.5274 59.5999 68.0428L61.7566 64.6007C61.9767 64.2485 62.2738 63.9514 62.6259 63.7313L66.07 61.5745C66.5546 61.2707 66.9324 60.8233 67.1509 60.2948C67.3694 59.7662 67.4178 59.1827 67.2892 58.6253L66.3825 54.6682C66.2893 54.2627 66.2893 53.8413 66.3825 53.4357L67.2914 49.4764C67.4195 48.9194 67.3709 48.3363 67.1524 47.8082C66.9339 47.2801 66.5564 46.8331 66.0722 46.5294L62.6281 44.3726C62.2765 44.1521 61.9793 43.8549 61.7588 43.5033L59.5999 40.0611ZM58.493 49.1441C58.6291 48.8937 58.6628 48.6004 58.587 48.3257C58.5113 48.051 58.3319 47.8165 58.0868 47.6713C57.8416 47.5262 57.5497 47.4819 57.2724 47.5476C56.9952 47.6133 56.7543 47.784 56.6004 48.0238L50.8455 57.7648L47.3706 54.4371C47.2675 54.3313 47.1441 54.2472 47.0079 54.1901C46.8716 54.1329 46.7252 54.1038 46.5775 54.1045C46.4297 54.1051 46.2836 54.1355 46.1479 54.1938C46.0121 54.2522 45.8895 54.3373 45.7873 54.444C45.6852 54.5508 45.6055 54.677 45.5532 54.8152C45.5009 54.9534 45.4769 55.1007 45.4828 55.2484C45.4886 55.396 45.5241 55.541 45.5872 55.6746C45.6503 55.8082 45.7396 55.9278 45.8499 56.0261L50.3261 60.3156C50.4459 60.4302 50.5901 60.5162 50.7478 60.5672C50.9055 60.6183 51.0727 60.633 51.2369 60.6104C51.4011 60.5877 51.558 60.5283 51.696 60.4365C51.8341 60.3446 51.9495 60.2228 52.0339 60.0801L58.493 49.1441Z"/>
</mask>
<path fill-rule="evenodd" clip-rule="evenodd" d="M59.5999 40.0611C59.2964 39.5761 58.8493 39.1978 58.3207 38.9789C57.7921 38.76 57.2085 38.7113 56.651 38.8396L52.6941 39.7486C52.2886 39.8418 51.8672 39.8418 51.4617 39.7486L47.5048 38.8396C46.9473 38.7113 46.3636 38.76 45.8351 38.9789C45.3065 39.1978 44.8593 39.5761 44.5558 40.0611L42.3991 43.5033C42.1791 43.8554 41.882 44.1525 41.5299 44.3748L38.0879 46.5316C37.6038 46.8349 37.2261 47.2814 37.0072 47.809C36.7884 48.3367 36.7392 48.9195 36.8665 49.4764L37.7754 53.4379C37.8683 53.8428 37.8683 54.2634 37.7754 54.6682L36.8665 58.6275C36.7387 59.1848 36.7876 59.768 37.0065 60.2961C37.2254 60.8243 37.6034 61.2711 38.0879 61.5745L41.5299 63.7313C41.882 63.9514 42.1791 64.2485 42.4013 64.6007L44.558 68.0428C45.1786 69.0354 46.3626 69.5262 47.5048 69.2643L51.4617 68.3553C51.8672 68.2621 52.2886 68.2621 52.6941 68.3553L56.6532 69.2643C57.2104 69.3921 57.7935 69.3432 58.3217 69.1243C58.8498 68.9054 59.2966 68.5274 59.5999 68.0428L61.7566 64.6007C61.9767 64.2485 62.2738 63.9514 62.6259 63.7313L66.07 61.5745C66.5546 61.2707 66.9324 60.8233 67.1509 60.2948C67.3694 59.7662 67.4178 59.1827 67.2892 58.6253L66.3825 54.6682C66.2893 54.2627 66.2893 53.8413 66.3825 53.4357L67.2914 49.4764C67.4195 48.9194 67.3709 48.3363 67.1524 47.8082C66.9339 47.2801 66.5564 46.8331 66.0722 46.5294L62.6281 44.3726C62.2765 44.1521 61.9793 43.8549 61.7588 43.5033L59.5999 40.0611ZM58.493 49.1441C58.6291 48.8937 58.6628 48.6004 58.587 48.3257C58.5113 48.051 58.3319 47.8165 58.0868 47.6713C57.8416 47.5262 57.5497 47.4819 57.2724 47.5476C56.9952 47.6133 56.7543 47.784 56.6004 48.0238L50.8455 57.7648L47.3706 54.4371C47.2675 54.3313 47.1441 54.2472 47.0079 54.1901C46.8716 54.1329 46.7252 54.1038 46.5775 54.1045C46.4297 54.1051 46.2836 54.1355 46.1479 54.1938C46.0121 54.2522 45.8895 54.3373 45.7873 54.444C45.6852 54.5508 45.6055 54.677 45.5532 54.8152C45.5009 54.9534 45.4769 55.1007 45.4828 55.2484C45.4886 55.396 45.5241 55.541 45.5872 55.6746C45.6503 55.8082 45.7396 55.9278 45.8499 56.0261L50.3261 60.3156C50.4459 60.4302 50.5901 60.5162 50.7478 60.5672C50.9055 60.6183 51.0727 60.633 51.2369 60.6104C51.4011 60.5877 51.558 60.5283 51.696 60.4365C51.8341 60.3446 51.9495 60.2228 52.0339 60.0801L58.493 49.1441Z" fill="#D75337"/>
<path d="M59.5999 40.0611L57.2032 41.561L57.2047 41.5634L59.5999 40.0611ZM56.651 38.8396L57.284 41.5952L57.2852 41.5949L56.651 38.8396ZM52.6941 39.7486L52.0611 36.993L52.0607 36.9931L52.6941 39.7486ZM51.4617 39.7486L52.095 36.9931L52.0947 36.993L51.4617 39.7486ZM47.5048 38.8396L46.8705 41.5949L46.8718 41.5952L47.5048 38.8396ZM44.5558 40.0611L46.9517 41.5623L46.9525 41.561L44.5558 40.0611ZM42.3991 43.5033L40.0032 42.0021L40.0015 42.0048L42.3991 43.5033ZM41.5299 44.3748L43.0312 46.7706L43.0391 46.7656L41.5299 44.3748ZM38.0879 46.5316L39.5889 48.9277L39.5892 48.9275L38.0879 46.5316ZM36.8665 49.4764L34.1103 50.1066L34.1108 50.1086L36.8665 49.4764ZM37.7754 53.4379L40.5312 52.8058L40.5312 52.8057L37.7754 53.4379ZM37.7754 54.6682L40.5311 55.3008L40.5312 55.3004L37.7754 54.6682ZM36.8665 58.6275L34.1109 57.995L34.1108 57.9953L36.8665 58.6275ZM38.0879 61.5745L39.5892 59.1787L39.5884 59.1782L38.0879 61.5745ZM41.5299 63.7313L40.0285 66.1271L40.0313 66.1289L41.5299 63.7313ZM42.4013 64.6007L44.7973 63.0995L44.7922 63.0915L42.4013 64.6007ZM44.558 68.0428L46.9554 66.5439L46.9539 66.5416L44.558 68.0428ZM47.5048 69.2643L48.1367 72.0201L48.1378 72.0199L47.5048 69.2643ZM51.4617 68.3553L52.0947 71.1109L52.095 71.1108L51.4617 68.3553ZM52.6941 68.3553L52.0607 71.1108L52.0614 71.111L52.6941 68.3553ZM56.6532 69.2643L56.0205 72.0199L56.0209 72.02L56.6532 69.2643ZM59.5999 68.0428L57.204 66.5416L57.2035 66.5425L59.5999 68.0428ZM61.7566 64.6007L64.1525 66.1018L64.1542 66.0991L61.7566 64.6007ZM62.6259 63.7313L64.1245 66.1289L64.1265 66.1276L62.6259 63.7313ZM66.07 61.5745L67.5706 63.9707L67.572 63.9699L66.07 61.5745ZM67.2892 58.6253L64.5333 59.2568L64.5342 59.2608L67.2892 58.6253ZM66.3825 54.6682L69.1384 54.0367L69.138 54.0349L66.3825 54.6682ZM66.3825 53.4357L69.138 54.069L69.1382 54.0683L66.3825 53.4357ZM67.2914 49.4764L64.536 48.8429L64.5358 48.8438L67.2914 49.4764ZM66.0722 46.5294L67.5747 44.1343L67.5728 44.1332L66.0722 46.5294ZM62.6281 44.3726L61.1261 46.768L61.1275 46.7688L62.6281 44.3726ZM61.7588 43.5033L64.1543 42.0014L64.154 42.001L61.7588 43.5033ZM58.493 49.1441L60.9274 50.5819L60.9529 50.5388L60.9768 50.4947L58.493 49.1441ZM56.6004 48.0238L54.2211 46.4964L54.1928 46.5405L54.1661 46.5857L56.6004 48.0238ZM50.8455 57.7648L48.89 59.8068L51.4657 62.2734L53.2797 59.2029L50.8455 57.7648ZM47.3706 54.4371L45.345 56.4097L45.3794 56.445L45.4151 56.4791L47.3706 54.4371ZM45.8499 56.0261L47.806 53.9848L47.7696 53.9498L47.7318 53.9162L45.8499 56.0261ZM50.3261 60.3156L48.3699 62.357L48.3721 62.359L50.3261 60.3156ZM52.0339 60.0801L54.468 61.5185L54.4683 61.5179L52.0339 60.0801ZM61.9966 38.5612C61.3812 37.5778 60.4745 36.8107 59.4027 36.3668L57.2387 41.591C57.224 41.5849 57.2116 41.5744 57.2032 41.561L61.9966 38.5612ZM59.4027 36.3668C58.3308 35.9228 57.1473 35.8241 56.0167 36.0844L57.2852 41.5949C57.2697 41.5985 57.2535 41.5971 57.2387 41.591L59.4027 36.3668ZM56.018 36.0841L52.0611 36.993L53.3271 42.5042L57.284 41.5952L56.018 36.0841ZM52.0607 36.9931C52.072 36.9905 52.0838 36.9905 52.095 36.9931L50.8283 42.5041C51.6506 42.6931 52.5051 42.6931 53.3274 42.5041L52.0607 36.9931ZM52.0947 36.993L48.1378 36.0841L46.8718 41.5952L50.8287 42.5042L52.0947 36.993ZM48.1391 36.0844C47.0085 35.8241 45.8249 35.9228 44.7531 36.3668L46.917 41.591C46.9023 41.5971 46.886 41.5985 46.8705 41.5949L48.1391 36.0844ZM44.7531 36.3668C43.6813 36.8107 42.7746 37.5778 42.1591 38.5612L46.9525 41.561C46.9441 41.5744 46.9317 41.5849 46.917 41.591L44.7531 36.3668ZM42.1599 38.56L40.0032 42.0021L44.795 45.0044L46.9517 41.5623L42.1599 38.56ZM40.0015 42.0048C40.0094 41.9923 40.0175 41.9859 40.0206 41.984L43.0391 46.7656C43.7464 46.3191 44.3488 45.7185 44.7968 45.0017L40.0015 42.0048ZM40.0285 41.979L36.5866 44.1358L39.5892 48.9275L43.0312 46.7706L40.0285 41.979ZM36.587 44.1356C35.6053 44.7505 34.8394 45.6558 34.3956 46.7258L39.6188 48.8923C39.6128 48.9069 39.6023 48.9193 39.5889 48.9277L36.587 44.1356ZM34.3956 46.7258C33.9518 47.7958 33.8521 48.9774 34.1103 50.1066L39.6227 48.8461C39.6263 48.8615 39.6249 48.8777 39.6188 48.8923L34.3956 46.7258ZM34.1108 50.1086L35.0197 54.0702L40.5312 52.8057L39.6223 48.8441L34.1108 50.1086ZM35.0197 54.0701C35.0171 54.0589 35.0171 54.0472 35.0197 54.0361L40.5312 55.3004C40.7195 54.4795 40.7195 53.6266 40.5312 52.8058L35.0197 54.0701ZM35.0198 54.0356L34.1109 57.995L39.6222 59.2601L40.5311 55.3008L35.0198 54.0356ZM34.1108 57.9953C33.8516 59.1252 33.9508 60.3078 34.3946 61.3787L39.6184 59.2136C39.6245 59.2282 39.6258 59.2444 39.6223 59.2598L34.1108 57.9953ZM34.3946 61.3787C34.8385 62.4496 35.6049 63.3556 36.5875 63.9708L39.5884 59.1782C39.6019 59.1866 39.6124 59.199 39.6184 59.2136L34.3946 61.3787ZM36.5866 63.9703L40.0285 66.1271L43.0312 61.3355L39.5892 59.1787L36.5866 63.9703ZM40.0313 66.1289C40.0187 66.121 40.0124 66.1129 40.0105 66.1098L44.7922 63.0915C44.3458 62.3842 43.7452 61.7818 43.0284 61.3338L40.0313 66.1289ZM40.0054 66.1018L42.1621 69.544L46.9539 66.5416L44.7972 63.0995L40.0054 66.1018ZM42.1607 69.5417C43.4209 71.5573 45.8217 72.5509 48.1367 72.0201L46.8729 66.5085C46.9035 66.5014 46.9363 66.5135 46.9554 66.5439L42.1607 69.5417ZM48.1378 72.0199L52.0947 71.1109L50.8287 65.5998L46.8718 66.5087L48.1378 72.0199ZM52.095 71.1108C52.0838 71.1134 52.072 71.1134 52.0607 71.1108L53.3274 65.5999C52.5051 65.4108 51.6506 65.4108 50.8283 65.5999L52.095 71.1108ZM52.0614 71.111L56.0205 72.0199L57.2858 66.5086L53.3267 65.5997L52.0614 71.111ZM56.0209 72.02C57.1508 72.2793 58.3334 72.18 59.4043 71.7361L57.239 66.5125C57.2537 66.5064 57.2699 66.505 57.2855 66.5086L56.0209 72.02ZM59.4043 71.7361C60.4752 71.2922 61.3812 70.5257 61.9963 69.5431L57.2035 66.5425C57.2119 66.5291 57.2243 66.5185 57.239 66.5125L59.4043 71.7361ZM61.9958 69.544L64.1525 66.1018L59.3607 63.0995L57.204 66.5416L61.9958 69.544ZM64.1542 66.0991C64.1468 66.111 64.1364 66.1214 64.1245 66.1289L61.1273 61.3338C60.4112 61.7815 59.8066 62.386 59.359 63.1023L64.1542 66.0991ZM64.1265 66.1276L67.5706 63.9707L64.5694 59.1783L61.1253 61.3351L64.1265 66.1276ZM67.572 63.9699C68.5546 63.3538 69.3207 62.4467 69.7638 61.375L64.538 59.2146C64.5441 59.2 64.5546 59.1876 64.568 59.1791L67.572 63.9699ZM69.7638 61.375C70.2068 60.3032 70.3049 59.12 70.0442 57.9899L64.5342 59.2608C64.5307 59.2454 64.532 59.2292 64.538 59.2146L69.7638 61.375ZM70.0451 57.9939L69.1384 54.0367L63.6266 55.2997L64.5333 59.2568L70.0451 57.9939ZM69.138 54.0349C69.1406 54.0461 69.1406 54.0578 69.138 54.069L63.627 52.8024C63.438 53.6247 63.438 54.4792 63.627 55.3015L69.138 54.0349ZM69.1382 54.0683L70.0471 50.109L64.5358 48.8438L63.6269 52.8031L69.1382 54.0683ZM70.0469 50.1098C70.3065 48.9804 70.208 47.7982 69.765 46.7273L64.5398 48.8891C64.5338 48.8745 64.5324 48.8583 64.536 48.8429L70.0469 50.1098ZM69.765 46.7273C69.3219 45.6565 68.5564 44.7502 67.5747 44.1343L64.5698 48.9245C64.5563 48.9161 64.5459 48.9037 64.5398 48.8891L69.765 46.7273ZM67.5728 44.1332L64.1287 41.9764L61.1275 46.7688L64.5716 48.9257L67.5728 44.1332ZM64.1301 41.9772C64.1399 41.9834 64.1482 41.9916 64.1543 42.0014L59.3634 45.0052C59.8104 45.7182 60.4131 46.3208 61.1261 46.768L64.1301 41.9772ZM64.154 42.001L61.9951 38.5589L57.2047 41.5634L59.3636 45.0055L64.154 42.001ZM60.9768 50.4947C61.4626 49.6013 61.583 48.5543 61.3126 47.5739L55.8615 49.0775C55.7426 48.6465 55.7955 48.1862 56.0091 47.7934L60.9768 50.4947ZM61.3126 47.5739C61.0422 46.5936 60.4021 45.7563 59.5269 45.2383L56.6466 50.1044C56.2618 49.8766 55.9804 49.5085 55.8615 49.0775L61.3126 47.5739ZM59.5269 45.2383C58.6517 44.7202 57.6096 44.5619 56.62 44.7965L57.9248 50.2986C57.4897 50.4018 57.0315 50.3322 56.6466 50.1044L59.5269 45.2383ZM56.62 44.7965C55.6305 45.0312 54.7705 45.6406 54.2211 46.4964L58.9796 49.5512C58.738 49.9275 58.3599 50.1954 57.9248 50.2986L56.62 44.7965ZM54.1661 46.5857L48.4112 56.3267L53.2797 59.2029L59.0346 49.462L54.1661 46.5857ZM52.801 55.7228L49.3261 52.3951L45.4151 56.4791L48.89 59.8068L52.801 55.7228ZM49.3961 52.4645C49.0281 52.0867 48.5878 51.7868 48.1014 51.5828L45.9143 56.7974C45.7004 56.7077 45.5068 56.5758 45.345 56.4097L49.3961 52.4645ZM48.1014 51.5828C47.6151 51.3788 47.0926 51.2749 46.5651 51.2772L46.5898 56.9318C46.3579 56.9328 46.1281 56.8871 45.9143 56.7974L48.1014 51.5828ZM46.5651 51.2772C46.0377 51.2795 45.5161 51.388 45.0316 51.5962L47.2641 56.7915C47.0511 56.8831 46.8217 56.9308 46.5898 56.9318L46.5651 51.2772ZM45.0316 51.5962C44.547 51.8044 44.1093 52.1081 43.7447 52.4892L47.83 56.3989C47.6697 56.5664 47.4772 56.6999 47.2641 56.7915L45.0316 51.5962ZM43.7447 52.4892C43.38 52.8702 43.0958 53.3208 42.9091 53.814L48.1974 55.8164C48.1153 56.0332 47.9903 56.2313 47.83 56.3989L43.7447 52.4892ZM42.9091 53.814C42.7223 54.3073 42.6368 54.8331 42.6576 55.36L48.3079 55.1367C48.3171 55.3684 48.2795 55.5995 48.1974 55.8164L42.9091 53.814ZM42.6576 55.36C42.6785 55.887 42.8052 56.4044 43.0303 56.8814L48.1441 54.4678C48.243 54.6775 48.2987 54.905 48.3079 55.1367L42.6576 55.36ZM43.0303 56.8814C43.2554 57.3583 43.5743 57.785 43.9679 58.1361L47.7318 53.9162C47.9049 54.0705 48.0451 54.2581 48.1441 54.4678L43.0303 56.8814ZM43.8937 58.0675L48.3699 62.357L52.2823 58.2742L47.806 53.9848L43.8937 58.0675ZM48.3721 62.359C48.7997 62.7679 49.3142 63.075 49.8772 63.2572L51.6184 57.8773C51.8659 57.9574 52.0921 58.0924 52.2801 58.2722L48.3721 62.359ZM49.8772 63.2572C50.4401 63.4394 51.0369 63.492 51.6231 63.4112L50.8506 57.8095C51.1084 57.774 51.3708 57.7971 51.6184 57.8773L49.8772 63.2572ZM51.6231 63.4112C52.2092 63.3304 52.7695 63.1182 53.2622 62.7904L50.1299 58.0825C50.3465 57.9384 50.5929 57.8451 50.8506 57.8095L51.6231 63.4112ZM53.2622 62.7904C53.7548 62.4627 54.167 62.0279 54.468 61.5185L49.5998 58.6417C49.7321 58.4178 49.9133 58.2266 50.1299 58.0825L53.2622 62.7904ZM54.4683 61.5179L60.9274 50.5819L56.0585 47.7062L49.5994 58.6423L54.4683 61.5179Z" fill="white" mask="url(#path-3-outside-1_1_81320)"/>
</svg>
