<svg width="32" height="33" viewBox="0 0 32 33" fill="none" xmlns="http://www.w3.org/2000/svg">
<path d="M16.0604 32.3249C13.8563 32.3249 11.7834 31.9068 9.84154 31.0705C7.9009 30.2331 6.21243 29.0968 4.77614 27.6617C3.33985 26.2266 2.20298 24.5399 1.36554 22.6016C0.528096 20.6633 0.109375 18.591 0.109375 16.3846C0.109375 14.1782 0.528096 12.1052 1.36554 10.1658C2.2018 8.22512 3.3363 6.53665 4.76905 5.10036C6.2018 3.66407 7.88909 2.5272 9.83091 1.68976C11.7727 0.852315 13.8457 0.433594 16.0497 0.433594C18.2538 0.433594 20.3267 0.852315 22.2685 1.68976C24.2092 2.52602 25.8976 3.66111 27.3339 5.09504C28.7702 6.52897 29.9071 8.21626 30.7445 10.1569C31.582 12.0975 32.0007 14.1699 32.0007 16.3739C32.0007 18.578 31.5826 20.6509 30.7463 22.5927C29.91 24.5346 28.7738 26.223 27.3375 27.6581C25.9012 29.0933 24.2145 30.2301 22.2774 31.0688C20.3403 31.9074 18.2679 32.3261 16.0604 32.3249ZM16.055 30.5532C20.0119 30.5532 23.3635 29.1801 26.1097 26.4339C28.8559 23.6877 30.229 20.3361 30.229 16.3793C30.229 12.4224 28.8559 9.07083 26.1097 6.32463C23.3635 3.57843 20.0119 2.20533 16.055 2.20533C12.0981 2.20533 8.74661 3.57843 6.00041 6.32463C3.25421 9.07083 1.88111 12.4224 1.88111 16.3793C1.88111 20.3361 3.25421 23.6877 6.00041 26.4339C8.74661 29.1801 12.0981 30.5532 16.055 30.5532ZM16.0639 25.238C13.6047 25.238 11.5123 24.3775 9.78662 22.6565C8.06094 20.9356 7.19752 18.8461 7.19633 16.3881C7.19515 13.9301 8.05563 11.8365 9.77776 10.1073C11.4999 8.37808 13.5894 7.51583 16.0462 7.52055C18.503 7.52528 20.596 8.38575 22.3252 10.102C24.0544 11.8182 24.9173 13.9077 24.9137 16.3704C24.9102 18.8331 24.0497 20.9261 22.3323 22.6494C20.6149 24.3728 18.5254 25.2356 16.0639 25.238ZM16.055 23.4662C18.0039 23.4662 19.6723 22.7723 21.0602 21.3844C22.4481 19.9966 23.142 18.3282 23.142 16.3793C23.142 14.4303 22.4481 12.762 21.0602 11.3741C19.6723 9.98623 18.0039 9.29229 16.055 9.29229C14.1061 9.29229 12.4377 9.98623 11.0499 11.3741C9.66201 12.762 8.96807 14.4303 8.96807 16.3793C8.96807 18.3282 9.66201 19.9966 11.0499 21.3844C12.4377 22.7723 14.1061 23.4662 16.055 23.4662ZM16.055 18.151C15.5802 18.151 15.1662 17.9744 14.813 17.6212C14.4599 17.2681 14.2833 16.8541 14.2833 16.3793C14.2833 15.9044 14.4599 15.4904 14.813 15.1373C15.1662 14.7841 15.5802 14.6075 16.055 14.6075C16.5299 14.6075 16.9439 14.7841 17.297 15.1373C17.6502 15.4904 17.8268 15.9044 17.8268 16.3793C17.8268 16.8541 17.6502 17.2681 17.297 17.6212C16.9439 17.9744 16.5299 18.151 16.055 18.151Z" fill="#181818"/>
<path d="M15.918 16.6336L29.3802 2.53027" stroke="#D75337" stroke-width="1.82419" stroke-linecap="round"/>
</svg>
