<svg width="36" height="34" viewBox="0 0 36 34" fill="none" xmlns="http://www.w3.org/2000/svg">
<path d="M26.1797 16.8066V15.2686H29.2559L15.4131 1.42578L1.57031 15.2686H4.64649V26.0352C4.64649 26.851 4.97058 27.6335 5.54748 28.2103C6.12437 28.7872 6.90681 29.1113 7.72266 29.1113H11.5679" stroke="black" stroke-width="2.04943" stroke-linecap="round" stroke-linejoin="round"/>
<path d="M10.7988 29.1104V19.8818C10.7988 19.066 11.1229 18.2835 11.6998 17.7067C12.2767 17.1298 13.0591 16.8057 13.875 16.8057H16.9512C17.767 16.8057 18.5495 17.1298 19.1264 17.7067C19.7033 18.2835 20.0273 19.066 20.0273 19.8818" stroke="black" stroke-width="2.04943" stroke-linecap="round" stroke-linejoin="round"/>
<path d="M19.7192 24.1866L26.2011 24.8362L22.2765 30.5214L22.2743 30.5246C21.8649 31.1242 21.9107 31.9592 22.4322 32.5011L22.9863 31.9679L22.4322 32.5011C23.0106 33.1023 23.9466 33.1297 24.5542 32.5461L34.5133 23.2743L34.5133 23.2743L34.5165 23.2712C35.5817 22.268 35.0327 20.3654 33.5069 20.2167C33.5064 20.2167 33.5059 20.2166 33.5054 20.2166L27.0236 19.5671L30.9481 13.8818L30.9481 13.8818L30.9503 13.8786C31.359 13.2801 31.3141 12.447 30.7952 11.905C30.5209 11.6153 30.142 11.4431 29.7376 11.4353C29.3362 11.4276 28.9534 11.5829 28.6689 11.8586L18.7113 21.1289L18.7113 21.1289L18.7081 21.132C17.6429 22.1352 18.1919 24.0378 19.7177 24.1865C19.7182 24.1865 19.7187 24.1866 19.7192 24.1866Z" fill="#D75337" stroke="#F9F9F9" stroke-width="1.53809"/>
</svg>
