<svg width="53" height="54" viewBox="0 0 53 54" fill="none" xmlns="http://www.w3.org/2000/svg">
<path d="M19.7237 24.1374C19.81 24.0511 19.927 24.0026 20.0491 24.0026C20.1711 24.0026 20.2881 24.0511 20.3744 24.1374C20.4607 24.2236 20.5091 24.3407 20.5091 24.4627V28.9373C20.5091 29.0593 20.4607 29.1763 20.3744 29.2626C20.2881 29.3489 20.1711 29.3973 20.0491 29.3973C19.927 29.3973 19.81 29.3489 19.7237 29.2626C19.6375 29.1763 19.589 29.0593 19.589 28.9373V24.4627C19.589 24.3407 19.6375 24.2236 19.7237 24.1374ZM29.4583 13.9754C29.4583 14.2262 29.323 14.4772 29.0521 14.7173C28.7813 14.9573 28.3839 15.178 27.8843 15.3654C26.8858 15.7398 25.4998 15.9736 23.9643 15.9736C22.4288 15.9736 21.0428 15.7398 20.0443 15.3654C19.5447 15.178 19.1473 14.9573 18.8765 14.7173C18.6057 14.4772 18.4703 14.2262 18.4703 13.9754C18.4703 13.7245 18.6057 13.4736 18.8767 13.2335C19.1475 12.9935 19.5451 12.7728 20.0448 12.5854C21.0434 12.2109 22.4293 11.9772 23.9643 11.9772C25.4993 11.9772 26.8852 12.2109 27.8839 12.5854C28.3836 12.7728 28.7811 12.9935 29.0519 13.2335C29.3229 13.4736 29.4583 13.7245 29.4583 13.9754ZM20.5091 13.8356C20.5091 14.0334 20.6295 14.2061 20.8107 14.3488C20.9929 14.4924 21.2504 14.6174 21.5599 14.7206C22.1797 14.9273 23.0298 15.0534 23.9643 15.0534C24.8988 15.0534 25.7489 14.9273 26.3688 14.7206C26.6782 14.6174 26.9357 14.4924 27.118 14.3488C27.2991 14.2061 27.4195 14.0334 27.4195 13.8356C27.4195 13.6377 27.2991 13.465 27.118 13.3223C26.9357 13.1787 26.6782 13.0537 26.3688 12.9505C25.7489 12.7439 24.8988 12.6177 23.9643 12.6177C23.0298 12.6177 22.1797 12.7439 21.5599 12.9505C21.2504 13.0537 20.9929 13.1787 20.8107 13.3223C20.6295 13.465 20.5091 13.6377 20.5091 13.8356Z" fill="#181818" stroke="#D9D9D9" stroke-width="0.19849"/>
<path d="M37.3866 15.2848L37.3866 15.2847C36.7913 14.6895 35.9887 14.3479 35.1471 14.3316L35.0536 14.3298L35.0498 14.2363C35.003 13.0616 34.4352 12.0958 33.7487 11.3862L33.7487 11.3862C33.0412 10.6545 32.1216 10.0927 31.1515 9.66864C29.2013 8.81619 26.6604 8.34241 23.9637 8.34241C21.2703 8.34241 18.7283 8.81619 16.7793 9.66864L16.7792 9.66865C15.8091 10.0927 14.8884 10.6545 14.1821 11.3861L14.1821 11.3861C13.4659 12.1276 12.8787 13.1479 12.8787 14.3957V23.7767V23.8917L12.765 23.8748C12.2622 23.8005 11.749 23.8448 11.2665 24.0042C10.7839 24.1637 10.3454 24.4339 9.98592 24.7932L9.98588 24.7933L9.19393 25.5841M37.3866 15.2848L9.19393 25.5841M37.3866 15.2848L38.1786 16.0756C38.4811 16.378 38.721 16.7371 38.8847 17.1322C39.0484 17.5274 39.1327 17.9509 39.1327 18.3786C39.1327 18.8064 39.0484 19.2299 38.8847 19.625C38.721 20.0202 38.4811 20.3792 38.1786 20.6817L38.2488 20.7518L38.1786 20.6817L35.0822 23.7781L35.0531 23.8071V23.8483V35.6499C35.0531 37.218 34.1413 38.4039 33.1761 39.1814C32.3608 39.8379 31.347 40.3455 30.2668 40.7244C28.4724 41.3533 26.2834 41.7032 23.9659 41.7032C21.2703 41.7032 18.7295 41.2295 16.7804 40.377C15.8102 39.9519 14.8895 39.3912 14.1821 38.6606C13.4659 37.918 12.8787 36.8978 12.8787 35.6499V33.916V33.8749L12.8497 33.8459L9.19393 30.1901L9.12376 30.2603M37.3866 15.2848L9.12376 30.2603M9.19393 25.5841L9.19388 25.5841M9.19393 25.5841C9.19391 25.5841 9.1939 25.5841 9.19388 25.5841M9.19388 25.5841C8.89143 25.8865 8.65151 26.2456 8.48782 26.6407C8.32412 27.0359 8.23987 27.4594 8.23987 27.8871C8.23987 28.3148 8.32412 28.7384 8.48782 29.1335C8.65152 29.5287 8.89146 29.8877 9.19393 30.1901L9.12376 30.2603M9.19388 25.5841L9.12376 30.2603M14.9175 18.2494V28.0047L13.1495 26.2347L13.1494 26.2346C12.9211 26.0063 12.6113 25.878 12.2884 25.878C11.9655 25.878 11.6558 26.0063 11.4274 26.2346C11.4274 26.2346 11.4274 26.2346 11.4274 26.2346L10.6354 27.0254L10.6354 27.0255C10.5221 27.1386 10.4323 27.2729 10.371 27.4207C10.3097 27.5686 10.2782 27.7271 10.2782 27.8871C10.2782 28.0472 10.3097 28.2056 10.371 28.3535C10.4323 28.5013 10.5221 28.6356 10.6354 28.7487C10.6354 28.7488 10.6354 28.7488 10.6354 28.7488L14.9175 33.0298V35.6499C14.9175 36.2234 15.1836 36.7618 15.6487 37.2429C16.1134 37.7235 16.781 38.1518 17.5983 38.5094C19.233 39.2246 21.4845 39.6644 23.9659 39.6644C26.0918 39.6644 28.0473 39.3409 29.592 38.7997L29.6584 38.7765V38.7061V33.4127C29.6584 33.2906 29.7069 33.1736 29.7931 33.0873C29.8794 33.0011 29.9964 32.9526 30.1185 32.9526C30.2405 32.9526 30.3575 33.0011 30.4438 33.0873C30.5301 33.1736 30.5785 33.2906 30.5785 33.4127V38.2396V38.3996L30.7219 38.3285C31.1738 38.1044 31.5657 37.8595 31.8967 37.5932L31.8967 37.5931C32.5986 37.028 33.0143 36.3671 33.0143 35.6499V22.9609L36.7372 19.2403L36.7372 19.2402C36.9655 19.0119 37.0938 18.7021 37.0938 18.3792C37.0938 18.0563 36.9655 17.7465 36.7372 17.5182L36.667 17.5883L36.7372 17.5181L35.9452 16.7261L35.9452 16.7261C35.7478 16.5288 35.4886 16.4054 35.211 16.3763C34.9335 16.3473 34.6543 16.4144 34.4204 16.5666L34.4023 16.5783L34.3907 16.5965C34.2012 16.8945 33.9818 17.1644 33.7488 17.4052L33.7487 17.4053C33.0423 18.1369 32.1217 18.6976 31.1503 19.1228C29.2024 19.9752 26.6604 20.449 23.9659 20.449C21.5001 20.449 19.1623 20.0533 17.2898 19.3314L17.1548 19.2794V19.424V23.3449C17.1548 23.4669 17.1063 23.5839 17.0201 23.6702C16.9338 23.7565 16.8168 23.8049 16.6947 23.8049C16.5727 23.8049 16.4557 23.7565 16.3694 23.6702C16.2831 23.5839 16.2347 23.4669 16.2347 23.3449V18.9273V18.8667L16.1807 18.839C15.794 18.6407 15.4214 18.4184 15.0747 18.1689L14.9175 18.0557V18.2494ZM23.9659 18.4102C26.4474 18.4102 28.6988 17.9703 30.3336 17.2551C31.1508 16.8976 31.8184 16.4693 32.2831 15.9887C32.7483 15.5076 33.0143 14.9691 33.0143 14.3957C33.0143 13.8223 32.7483 13.2838 32.2831 12.8027C31.8184 12.3221 31.1508 11.8938 30.3336 11.5363C28.6988 10.8211 26.4474 10.3812 23.9659 10.3812C21.4845 10.3812 19.233 10.8211 17.5983 11.5363C16.781 11.8938 16.1134 12.3221 15.6487 12.8027C15.1836 13.2838 14.9175 13.8223 14.9175 14.3957C14.9175 14.9691 15.1836 15.5076 15.6487 15.9887C16.1134 16.4693 16.781 16.8976 17.5983 17.2551C19.233 17.9703 21.4845 18.4102 23.9659 18.4102Z" fill="#181818" stroke="#D9D9D9" stroke-width="0.19849"/>
<mask id="path-3-outside-1_1_56832" maskUnits="userSpaceOnUse" x="26.2754" y="27.3369" width="21" height="21" fill="black">
<rect fill="white" x="26.2754" y="27.3369" width="21" height="21"/>
<path fill-rule="evenodd" clip-rule="evenodd" d="M40.7532 30.0437C40.5871 29.7783 40.3424 29.5713 40.0532 29.4515C39.764 29.3317 39.4446 29.3051 39.1395 29.3753L36.9743 29.8727C36.7524 29.9237 36.5219 29.9237 36.3 29.8727L34.1348 29.3753C33.8297 29.3051 33.5103 29.3317 33.2211 29.4515C32.9319 29.5713 32.6872 29.7783 32.5211 30.0437L31.3409 31.9272C31.2205 32.1199 31.058 32.2825 30.8653 32.4041L28.9819 33.5843C28.717 33.7503 28.5103 33.9946 28.3905 34.2833C28.2707 34.5721 28.2438 34.891 28.3135 35.1957L28.8109 37.3635C28.8617 37.585 28.8617 37.8151 28.8109 38.0367L28.3135 40.2032C28.2436 40.5081 28.2703 40.8273 28.3901 41.1163C28.5099 41.4053 28.7167 41.6498 28.9819 41.8158L30.8653 42.996C31.058 43.1164 31.2205 43.279 31.3422 43.4717L32.5223 45.3552C32.8619 45.8984 33.5098 46.1669 34.1348 46.0236L36.3 45.5263C36.5219 45.4752 36.7524 45.4752 36.9743 45.5263L39.1407 46.0236C39.4456 46.0936 39.7648 46.0668 40.0537 45.947C40.3427 45.8272 40.5872 45.6204 40.7532 45.3552L41.9334 43.4717C42.0538 43.279 42.2163 43.1164 42.409 42.996L44.2936 41.8158C44.5588 41.6495 44.7655 41.4048 44.8851 41.1155C45.0047 40.8263 45.0311 40.507 44.9608 40.202L44.4646 38.0367C44.4136 37.8147 44.4136 37.5842 44.4646 37.3622L44.962 35.1957C45.0321 34.8909 45.0055 34.5719 44.8859 34.2829C44.7664 33.9939 44.5598 33.7493 44.2948 33.5831L42.4102 32.4029C42.2178 32.2823 42.0552 32.1196 41.9346 31.9272L40.7532 30.0437ZM40.1475 35.0138C40.222 34.8769 40.2404 34.7164 40.199 34.5661C40.1575 34.4158 40.0594 34.2874 39.9252 34.208C39.791 34.1286 39.6313 34.1043 39.4796 34.1403C39.3279 34.1762 39.1961 34.2697 39.1118 34.4009L35.9628 39.7311L34.0613 37.9102C34.0049 37.8523 33.9374 37.8063 33.8628 37.775C33.7883 37.7438 33.7082 37.7278 33.6273 37.7282C33.5465 37.7285 33.4665 37.7452 33.3922 37.7771C33.318 37.809 33.2509 37.8556 33.195 37.914C33.1391 37.9724 33.0955 38.0415 33.0669 38.1171C33.0382 38.1927 33.0251 38.2733 33.0283 38.3541C33.0315 38.4349 33.0509 38.5142 33.0854 38.5874C33.12 38.6605 33.1688 38.7259 33.2292 38.7797L35.6786 41.1269C35.7441 41.1896 35.823 41.2367 35.9093 41.2646C35.9956 41.2925 36.0871 41.3006 36.1769 41.2882C36.2668 41.2758 36.3527 41.2433 36.4282 41.193C36.5037 41.1428 36.5669 41.0761 36.6131 40.9981L40.1475 35.0138Z"/>
</mask>
<path fill-rule="evenodd" clip-rule="evenodd" d="M40.7532 30.0437C40.5871 29.7783 40.3424 29.5713 40.0532 29.4515C39.764 29.3317 39.4446 29.3051 39.1395 29.3753L36.9743 29.8727C36.7524 29.9237 36.5219 29.9237 36.3 29.8727L34.1348 29.3753C33.8297 29.3051 33.5103 29.3317 33.2211 29.4515C32.9319 29.5713 32.6872 29.7783 32.5211 30.0437L31.3409 31.9272C31.2205 32.1199 31.058 32.2825 30.8653 32.4041L28.9819 33.5843C28.717 33.7503 28.5103 33.9946 28.3905 34.2833C28.2707 34.5721 28.2438 34.891 28.3135 35.1957L28.8109 37.3635C28.8617 37.585 28.8617 37.8151 28.8109 38.0367L28.3135 40.2032C28.2436 40.5081 28.2703 40.8273 28.3901 41.1163C28.5099 41.4053 28.7167 41.6498 28.9819 41.8158L30.8653 42.996C31.058 43.1164 31.2205 43.279 31.3422 43.4717L32.5223 45.3552C32.8619 45.8984 33.5098 46.1669 34.1348 46.0236L36.3 45.5263C36.5219 45.4752 36.7524 45.4752 36.9743 45.5263L39.1407 46.0236C39.4456 46.0936 39.7648 46.0668 40.0537 45.947C40.3427 45.8272 40.5872 45.6204 40.7532 45.3552L41.9334 43.4717C42.0538 43.279 42.2163 43.1164 42.409 42.996L44.2936 41.8158C44.5588 41.6495 44.7655 41.4048 44.8851 41.1155C45.0047 40.8263 45.0311 40.507 44.9608 40.202L44.4646 38.0367C44.4136 37.8147 44.4136 37.5842 44.4646 37.3622L44.962 35.1957C45.0321 34.8909 45.0055 34.5719 44.8859 34.2829C44.7664 33.9939 44.5598 33.7493 44.2948 33.5831L42.4102 32.4029C42.2178 32.2823 42.0552 32.1196 41.9346 31.9272L40.7532 30.0437ZM40.1475 35.0138C40.222 34.8769 40.2404 34.7164 40.199 34.5661C40.1575 34.4158 40.0594 34.2874 39.9252 34.208C39.791 34.1286 39.6313 34.1043 39.4796 34.1403C39.3279 34.1762 39.1961 34.2697 39.1118 34.4009L35.9628 39.7311L34.0613 37.9102C34.0049 37.8523 33.9374 37.8063 33.8628 37.775C33.7883 37.7438 33.7082 37.7278 33.6273 37.7282C33.5465 37.7285 33.4665 37.7452 33.3922 37.7771C33.318 37.809 33.2509 37.8556 33.195 37.914C33.1391 37.9724 33.0955 38.0415 33.0669 38.1171C33.0382 38.1927 33.0251 38.2733 33.0283 38.3541C33.0315 38.4349 33.0509 38.5142 33.0854 38.5874C33.12 38.6605 33.1688 38.7259 33.2292 38.7797L35.6786 41.1269C35.7441 41.1896 35.823 41.2367 35.9093 41.2646C35.9956 41.2925 36.0871 41.3006 36.1769 41.2882C36.2668 41.2758 36.3527 41.2433 36.4282 41.193C36.5037 41.1428 36.5669 41.0761 36.6131 40.9981L40.1475 35.0138Z" fill="#D75337"/>
<path d="M40.7532 30.0437L39.4417 30.8644L39.4426 30.8657L40.7532 30.0437ZM39.1395 29.3753L39.4859 30.8831L39.4866 30.883L39.1395 29.3753ZM36.9743 29.8727L36.628 28.3648L36.6278 28.3649L36.9743 29.8727ZM36.3 29.8727L36.6465 28.3649L36.6463 28.3648L36.3 29.8727ZM34.1348 29.3753L33.7877 30.883L33.7884 30.8831L34.1348 29.3753ZM32.5211 30.0437L33.8321 30.8651L33.8326 30.8644L32.5211 30.0437ZM31.3409 31.9272L30.0299 31.1058L30.029 31.1073L31.3409 31.9272ZM30.8653 32.4041L31.6868 33.7151L31.6912 33.7124L30.8653 32.4041ZM28.9819 33.5843L29.8032 34.8955L29.8034 34.8953L28.9819 33.5843ZM28.3135 35.1957L26.8053 35.5406L26.8056 35.5417L28.3135 35.1957ZM28.8109 37.3635L30.3188 37.0175L30.3188 37.0175L28.8109 37.3635ZM28.8109 38.0367L30.3188 38.3828L30.3188 38.3826L28.8109 38.0367ZM28.3135 40.2032L26.8056 39.8571L26.8056 39.8573L28.3135 40.2032ZM28.9819 41.8158L29.8034 40.5048L29.8029 40.5045L28.9819 41.8158ZM30.8653 42.996L30.0438 44.307L30.0453 44.3079L30.8653 42.996ZM31.3422 43.4717L32.6532 42.6503L32.6504 42.6459L31.3422 43.4717ZM32.5223 45.3552L33.8341 44.535L33.8333 44.5338L32.5223 45.3552ZM34.1348 46.0236L34.4805 47.5316L34.4811 47.5315L34.1348 46.0236ZM36.3 45.5263L36.6463 47.0341L36.6465 47.034L36.3 45.5263ZM36.9743 45.5263L36.6278 47.034L36.6281 47.0341L36.9743 45.5263ZM39.1407 46.0236L38.7946 47.5315L38.7948 47.5316L39.1407 46.0236ZM40.7532 45.3552L39.4422 44.5338L39.4419 44.5343L40.7532 45.3552ZM41.9334 43.4717L43.2444 44.2931L43.2453 44.2916L41.9334 43.4717ZM42.409 42.996L43.229 44.3079L43.2302 44.3072L42.409 42.996ZM44.2936 41.8158L45.1148 43.127L45.1155 43.1265L44.2936 41.8158ZM44.9608 40.202L43.4527 40.5475L43.4533 40.5497L44.9608 40.202ZM44.4646 38.0367L45.9727 37.6911L45.9725 37.6901L44.4646 38.0367ZM44.4646 37.3622L45.9725 37.7088L45.9725 37.7084L44.4646 37.3622ZM44.962 35.1957L43.4542 34.8491L43.4541 34.8495L44.962 35.1957ZM44.2948 33.5831L45.117 32.2725L45.116 32.2719L44.2948 33.5831ZM42.4102 32.4029L41.5883 33.7136L41.5891 33.7141L42.4102 32.4029ZM41.9346 31.9272L43.2453 31.1054L43.2452 31.1052L41.9346 31.9272ZM40.1475 35.0138L41.4796 35.8006L41.4935 35.777L41.5066 35.7529L40.1475 35.0138ZM39.1118 34.4009L37.8099 33.5651L37.7944 33.5892L37.7798 33.6139L39.1118 34.4009ZM35.9628 39.7311L34.8927 40.8485L36.3022 42.1982L37.2948 40.5181L35.9628 39.7311ZM34.0613 37.9102L32.9529 38.9896L32.9718 39.0089L32.9913 39.0276L34.0613 37.9102ZM33.2292 38.7797L34.2996 37.6627L34.2796 37.6435L34.259 37.6251L33.2292 38.7797ZM35.6786 41.1269L34.6082 42.2439L34.6093 42.2451L35.6786 41.1269ZM36.6131 40.9981L37.945 41.7851L37.9452 41.7848L36.6131 40.9981ZM42.0647 29.2229C41.7279 28.6848 41.2318 28.2651 40.6453 28.0221L39.4612 30.8808C39.4531 30.8775 39.4463 30.8718 39.4417 30.8644L42.0647 29.2229ZM40.6453 28.0221C40.0588 27.7792 39.4111 27.7252 38.7925 27.8676L39.4866 30.883C39.4781 30.8849 39.4692 30.8842 39.4612 30.8808L40.6453 28.0221ZM38.7932 27.8674L36.628 28.3648L37.3207 31.3805L39.4859 30.8831L38.7932 27.8674ZM36.6278 28.3649C36.6339 28.3634 36.6404 28.3634 36.6465 28.3649L35.9534 31.3805C36.4034 31.4839 36.8709 31.4839 37.3209 31.3805L36.6278 28.3649ZM36.6463 28.3648L34.4811 27.8674L33.7884 30.8831L35.9536 31.3805L36.6463 28.3648ZM34.4818 27.8676C33.8632 27.7252 33.2155 27.7792 32.629 28.0221L33.8131 30.8808C33.8051 30.8842 33.7962 30.8849 33.7877 30.883L34.4818 27.8676ZM32.629 28.0221C32.0425 28.2651 31.5464 28.6848 31.2096 29.2229L33.8326 30.8644C33.828 30.8718 33.8212 30.8775 33.8131 30.8808L32.629 28.0221ZM31.2101 29.2222L30.0299 31.1058L32.652 32.7486L33.8321 30.8651L31.2101 29.2222ZM30.029 31.1073C30.0333 31.1004 30.0377 31.0969 30.0394 31.0959L31.6912 33.7124C32.0782 33.468 32.4078 33.1394 32.6529 32.7471L30.029 31.1073ZM30.0438 31.0931L28.1603 32.2733L29.8034 34.8953L31.6868 33.7151L30.0438 31.0931ZM28.1606 32.2732C27.6234 32.6097 27.2043 33.1051 26.9614 33.6906L29.8196 34.8761C29.8163 34.8841 29.8105 34.8908 29.8032 34.8955L28.1606 32.2732ZM26.9614 33.6906C26.7186 34.2761 26.664 34.9227 26.8053 35.5406L29.8217 34.8508C29.8236 34.8593 29.8229 34.8681 29.8196 34.8761L26.9614 33.6906ZM26.8056 35.5417L27.3029 37.7094L30.3188 37.0175L29.8215 34.8497L26.8056 35.5417ZM27.3029 37.7094C27.3015 37.7032 27.3015 37.6969 27.3029 37.6907L30.3188 38.3826C30.4218 37.9334 30.4218 37.4667 30.3188 37.0175L27.3029 37.7094ZM27.303 37.6905L26.8056 39.8571L29.8214 40.5494L30.3188 38.3828L27.303 37.6905ZM26.8056 39.8573C26.6637 40.4755 26.718 41.1226 26.9609 41.7086L29.8193 40.5239C29.8226 40.5319 29.8234 40.5407 29.8215 40.5492L26.8056 39.8573ZM26.9609 41.7086C27.2038 42.2946 27.6232 42.7904 28.1608 43.1271L29.8029 40.5045C29.8103 40.5091 29.816 40.5159 29.8193 40.5239L26.9609 41.7086ZM28.1603 43.1268L30.0438 44.307L31.6868 41.685L29.8034 40.5048L28.1603 43.1268ZM30.0453 44.3079C30.0384 44.3036 30.0349 44.2992 30.0339 44.2975L32.6504 42.6459C32.4061 42.2589 32.0775 41.9292 31.6853 41.6841L30.0453 44.3079ZM30.0311 44.2931L31.2113 46.1767L33.8333 44.5338L32.6532 42.6503L30.0311 44.2931ZM31.2105 46.1754C31.9001 47.2784 33.2138 47.8221 34.4805 47.5316L33.789 44.5156C33.8058 44.5118 33.8237 44.5184 33.8341 44.535L31.2105 46.1754ZM34.4811 47.5315L36.6463 47.0341L35.9536 44.0184L33.7884 44.5158L34.4811 47.5315ZM36.6465 47.034C36.6404 47.0355 36.6339 47.0355 36.6278 47.034L37.3209 44.0185C36.8709 43.915 36.4034 43.915 35.9534 44.0185L36.6465 47.034ZM36.6281 47.0341L38.7946 47.5315L39.4869 44.5157L37.3205 44.0184L36.6281 47.0341ZM38.7948 47.5316C39.413 47.6734 40.0602 47.6191 40.6462 47.3762L39.4613 44.5178C39.4694 44.5145 39.4782 44.5137 39.4867 44.5157L38.7948 47.5316ZM40.6462 47.3762C41.2322 47.1333 41.7279 46.7139 42.0645 46.1762L39.4419 44.5343C39.4465 44.5269 39.4533 44.5212 39.4613 44.5178L40.6462 47.3762ZM42.0642 46.1767L43.2444 44.2931L40.6223 42.6503L39.4422 44.5338L42.0642 46.1767ZM43.2453 44.2916C43.2413 44.2982 43.2356 44.3038 43.229 44.3079L41.589 41.6841C41.1971 41.929 40.8663 42.2599 40.6214 42.6518L43.2453 44.2916ZM43.2302 44.3072L45.1148 43.127L43.4725 40.5046L41.5879 41.6848L43.2302 44.3072ZM45.1155 43.1265C45.6532 42.7894 46.0724 42.2931 46.3149 41.7066L43.4553 40.5244C43.4587 40.5164 43.4644 40.5096 43.4718 40.505L45.1155 43.1265ZM46.3149 41.7066C46.5573 41.1201 46.611 40.4727 46.4683 39.8543L43.4533 40.5497C43.4513 40.5413 43.452 40.5325 43.4553 40.5244L46.3149 41.7066ZM46.4688 39.8565L45.9727 37.6911L42.9566 38.3822L43.4528 40.5475L46.4688 39.8565ZM45.9725 37.6901C45.9739 37.6963 45.9739 37.7026 45.9725 37.7088L42.9568 37.0157C42.8534 37.4657 42.8534 37.9332 42.9568 38.3832L45.9725 37.6901ZM45.9725 37.7084L46.4699 35.5418L43.4541 34.8495L42.9567 37.0161L45.9725 37.7084ZM46.4698 35.5423C46.6119 34.9243 46.5579 34.2774 46.3155 33.6914L43.4563 34.8743C43.453 34.8663 43.4523 34.8575 43.4542 34.8491L46.4698 35.5423ZM46.3155 33.6914C46.0731 33.1055 45.6542 32.6095 45.117 32.2725L43.4727 34.8937C43.4653 34.8891 43.4596 34.8823 43.4563 34.8743L46.3155 33.6914ZM45.116 32.2719L43.2314 31.0917L41.5891 33.7141L43.4737 34.8944L45.116 32.2719ZM43.2321 31.0922C43.2375 31.0955 43.242 31.1 43.2453 31.1054L40.6238 32.749C40.8684 33.1392 41.1982 33.469 41.5883 33.7136L43.2321 31.0922ZM43.2452 31.1052L42.0639 29.2216L39.4426 30.8657L40.6239 32.7492L43.2452 31.1052ZM41.5066 35.7529C41.7725 35.2641 41.8383 34.6911 41.6904 34.1547L38.7075 34.9774C38.6425 34.7416 38.6714 34.4897 38.7883 34.2748L41.5066 35.7529ZM41.6904 34.1547C41.5424 33.6182 41.1922 33.1601 40.7132 32.8766L39.1372 35.5394C38.9266 35.4147 38.7726 35.2133 38.7075 34.9774L41.6904 34.1547ZM40.7132 32.8766C40.2343 32.5931 39.6641 32.5065 39.1226 32.6349L39.8366 35.6456C39.5985 35.7021 39.3477 35.664 39.1372 35.5394L40.7132 32.8766ZM39.1226 32.6349C38.5811 32.7633 38.1106 33.0968 37.8099 33.5651L40.4138 35.2367C40.2816 35.4426 40.0747 35.5892 39.8366 35.6456L39.1226 32.6349ZM37.7798 33.6139L34.6308 38.9442L37.2948 40.5181L40.4439 35.1878L37.7798 33.6139ZM37.0328 38.6137L35.1314 36.7928L32.9913 39.0276L34.8927 40.8485L37.0328 38.6137ZM35.1697 36.8308C34.9683 36.6241 34.7274 36.46 34.4612 36.3483L33.2644 39.2017C33.1474 39.1527 33.0415 39.0805 32.9529 38.9896L35.1697 36.8308ZM34.4612 36.3483C34.1951 36.2367 33.9092 36.1798 33.6206 36.1811L33.6341 39.2753C33.5072 39.2758 33.3815 39.2508 33.2644 39.2017L34.4612 36.3483ZM33.6206 36.1811C33.332 36.1823 33.0466 36.2417 32.7814 36.3557L34.0031 39.1985C33.8865 39.2486 33.761 39.2747 33.6341 39.2753L33.6206 36.1811ZM32.7814 36.3557C32.5162 36.4696 32.2768 36.6358 32.0772 36.8443L34.3127 38.9837C34.225 39.0753 34.1197 39.1484 34.0031 39.1985L32.7814 36.3557ZM32.0772 36.8443C31.8777 37.0528 31.7222 37.2994 31.62 37.5693L34.5137 38.6649C34.4688 38.7836 34.4004 38.892 34.3127 38.9837L32.0772 36.8443ZM31.62 37.5693C31.5178 37.8392 31.471 38.1269 31.4824 38.4152L34.5742 38.293C34.5792 38.4198 34.5587 38.5463 34.5137 38.6649L31.62 37.5693ZM31.4824 38.4152C31.4938 38.7036 31.5631 38.9867 31.6863 39.2477L34.4846 37.927C34.5387 38.0418 34.5692 38.1662 34.5742 38.293L31.4824 38.4152ZM31.6863 39.2477C31.8095 39.5087 31.984 39.7422 32.1994 39.9343L34.259 37.6251C34.3537 37.7096 34.4304 37.8123 34.4846 37.927L31.6863 39.2477ZM32.1588 39.8968L34.6082 42.2439L36.749 40.0099L34.2996 37.6627L32.1588 39.8968ZM34.6093 42.2451C34.8433 42.4688 35.1249 42.6368 35.4329 42.7365L36.3857 39.7927C36.5212 39.8365 36.6449 39.9104 36.7478 40.0087L34.6093 42.2451ZM35.4329 42.7365C35.741 42.8362 36.0675 42.8651 36.3883 42.8208L35.9656 39.7556C36.1066 39.7361 36.2502 39.7488 36.3857 39.7927L35.4329 42.7365ZM36.3883 42.8208C36.709 42.7766 37.0156 42.6605 37.2852 42.4811L35.5712 39.905C35.6898 39.8261 35.8246 39.775 35.9656 39.7556L36.3883 42.8208ZM37.2852 42.4811C37.5547 42.3018 37.7803 42.0639 37.945 41.7851L35.2811 40.211C35.3535 40.0884 35.4527 39.9838 35.5712 39.905L37.2852 42.4811ZM37.9452 41.7848L41.4796 35.8006L38.8154 34.2271L35.2809 40.2113L37.9452 41.7848Z" fill="white" mask="url(#path-3-outside-1_1_56832)"/>
</svg>
