<svg width="56" height="55" viewBox="0 0 56 55" fill="none" xmlns="http://www.w3.org/2000/svg">
<path d="M7.71484 20.7305V47.9289C7.71484 48.418 7.90912 48.887 8.25493 49.2328C8.60074 49.5786 9.06976 49.7729 9.55881 49.7729H20.6226V34.0992C20.6226 33.3656 20.914 32.6621 21.4327 32.1434C21.9514 31.6247 22.6549 31.3332 23.3885 31.3332H32.6083C33.3419 31.3332 34.0454 31.6247 34.5641 32.1434C35.0829 32.6621 35.3743 33.3656 35.3743 34.0992V49.7729H46.438C46.9271 49.7729 47.3961 49.5786 47.7419 49.2328C48.0877 48.887 48.282 48.418 48.282 47.9289V20.7305" stroke="#181818" stroke-width="3" stroke-linecap="round" stroke-linejoin="round"/>
<path d="M53.8126 25.8015L29.2522 2.29101C28.6759 1.6825 27.3287 1.67559 26.7421 2.29101L2.18164 25.8015M44.5928 16.9275V3.67398H39.0609V11.6261" stroke="#181818" stroke-width="3" stroke-linecap="round" stroke-linejoin="round"/>
<path d="M52.3041 32.2344H34.6352C34.2217 32.2344 33.8252 32.3986 33.5328 32.691C33.2404 32.9834 33.0762 33.3799 33.0762 33.7934V51.4623C33.0762 51.8757 33.2404 52.2723 33.5328 52.5646C33.8252 52.857 34.2217 53.0213 34.6352 53.0213H52.3041C52.7175 53.0213 53.1141 52.857 53.4064 52.5646C53.6988 52.2723 53.8631 51.8757 53.8631 51.4623V33.7934C53.8631 33.3799 53.6988 32.9834 53.4064 32.691C53.1141 32.3986 52.7175 32.2344 52.3041 32.2344Z" fill="white" stroke="#D75337" stroke-width="3" stroke-linejoin="round"/>
<path d="M37.2344 39.9598C38.9621 37.8811 41.0408 36.8418 43.4704 36.8418C45.8997 36.8418 47.9784 37.8811 49.7065 39.9598" fill="white"/>
<path d="M37.2344 39.9598C38.9621 37.8811 41.0408 36.8418 43.4704 36.8418C45.8997 36.8418 47.9784 37.8811 49.7065 39.9598" stroke="#D75337" stroke-width="1.47762" stroke-linecap="round"/>
<path d="M43.6488 46.3034C43.9576 46.3034 44.2538 46.1807 44.4721 45.9624C44.6905 45.744 44.8132 45.4478 44.8132 45.139C44.8132 44.8302 44.6905 44.534 44.4721 44.3157C44.2538 44.0973 43.9576 43.9746 43.6488 43.9746C43.34 43.9746 43.0438 44.0973 42.8254 44.3157C42.6071 44.534 42.4844 44.8302 42.4844 45.139C42.4844 45.4478 42.6071 45.744 42.8254 45.9624C43.0438 46.1807 43.34 46.3034 43.6488 46.3034Z" fill="#D75337"/>
<path d="M40.8281 41.1895L43.6539 45.1393L40.8281 41.1895Z" fill="white"/>
<path d="M40.8281 41.1895L43.6539 45.1393" stroke="#D75337" stroke-width="1.47762" stroke-linecap="round"/>
</svg>
