<svg width="56" height="56" viewBox="0 0 56 56" fill="none" xmlns="http://www.w3.org/2000/svg">
<path d="M18.8016 48.8715C18.0276 49.6478 16.8413 49.8637 15.8883 49.3219C9.52621 45.7048 4.93603 39.3778 3.72167 31.9224C3.57557 31.0255 2.82247 30.3333 1.91367 30.3333C0.88292 30.3333 0.0668873 31.2162 0.220959 32.2353C2.25503 45.6905 13.9244 56 28.0117 56C28.6036 55.9732 28.8812 55.2554 28.4612 54.8374L22.461 48.8647C21.4483 47.8567 19.8105 47.8598 18.8016 48.8715ZM19.5965 34.9067C19.1511 34.9067 18.7526 34.8367 18.3776 34.72C18.0284 34.6022 17.7087 34.4112 17.4399 34.16C17.1821 33.9267 16.9711 33.6467 16.8305 33.2967C16.5849 32.7263 16.1161 32.2 15.495 32.2H15.0959C14.2544 32.2 13.5355 32.8979 13.7717 33.7055C13.8477 33.9651 13.9452 34.2047 14.0645 34.4167C14.3926 35 14.838 35.5833 15.3771 36.0267C15.9397 36.4467 16.5726 36.7733 17.2993 36.9833C18.0025 37.2167 18.7526 37.3333 19.5496 37.3333C20.4169 37.3333 21.2373 37.2167 21.964 36.9833C22.7141 36.75 23.3704 36.4 23.9096 35.9567C24.4487 35.5133 24.8941 35 25.1988 34.2767C25.5036 33.6 25.6676 32.8533 25.6676 32.0133C25.6676 31.57 25.6208 31.1267 25.5036 30.7067C25.3864 30.3333 25.2223 29.89 24.9644 29.5167C24.73 29.1667 24.4018 28.8167 24.0268 28.5133C23.5606 28.1584 23.5061 27.311 23.9369 26.9138C24.2182 26.6543 24.4691 26.3613 24.6831 26.04C24.9175 25.6667 25.0816 25.34 25.1988 24.9667C25.316 24.5933 25.3629 24.22 25.3629 23.8467C25.3629 23.0067 25.2223 22.26 24.941 21.6067C24.6128 21 24.2612 20.4167 23.7455 19.9967C23.2767 19.5533 22.6438 19.2267 21.9406 18.9933C21.2139 18.7833 20.4169 18.6667 19.5496 18.6667C18.7526 18.6667 17.9322 18.7833 17.2055 19.04C16.5023 19.2967 15.8694 19.6467 15.3537 20.09C14.8614 20.5333 14.463 21 14.1582 21.6533C14.085 21.8113 14.0213 21.9724 13.9671 22.1371C13.7042 22.9365 14.4185 23.6367 15.2599 23.6367H15.7041C16.3003 23.6367 16.7438 23.1275 16.9946 22.5867C17.127 22.2814 17.3274 22.0101 17.5806 21.7933C17.8384 21.5833 18.1197 21.3967 18.4713 21.28C18.8229 21.1633 19.1745 21.0933 19.5965 21.0933C20.5341 21.0933 21.2373 21.3267 21.6827 21.8167C22.1281 22.2833 22.3625 22.96 22.3625 23.8233C22.3625 24.2433 22.2687 24.6167 22.175 24.9667C22.0584 25.3003 21.8564 25.5979 21.589 25.83C21.3311 26.0633 21.0029 26.25 20.6279 26.39C20.2528 26.53 19.784 26.6 19.2683 26.6H18.665C18.0014 26.6 17.4634 27.138 17.4634 27.8017C17.4634 28.4653 18.0014 29.0033 18.665 29.0033H19.2683C19.784 29.0033 20.2528 29.05 20.6748 29.1667C21.0967 29.2833 21.4483 29.47 21.7296 29.7033C22.0109 29.96 22.2687 30.2633 22.4094 30.6367C22.5735 31.01 22.6438 31.5 22.6438 31.9667C22.6438 32.9233 22.3625 33.6467 21.8234 34.1367C21.2842 34.6733 20.5341 34.9067 19.5965 34.9067ZM39.6383 21.0933C38.8882 20.3233 37.9975 19.7167 36.9661 19.2967C35.9581 18.8767 34.8095 18.6667 33.5437 18.6667C30.4885 18.6667 28.0117 21.1434 28.0117 24.1987V31.942C28.0117 34.9195 30.4255 37.3333 33.4031 37.3333C34.6923 37.3333 35.8878 37.1233 36.9427 36.7033C37.9975 36.2833 38.9117 35.7 39.6618 34.93C40.4119 34.16 41.0214 33.2267 41.3964 32.1533C41.7949 31.0567 42.0059 29.8433 42.0059 28.49V27.5567C42.0059 26.2033 41.7949 24.99 41.3964 23.8933C41.0214 22.7967 40.3884 21.8633 39.6383 21.0933ZM38.6773 28.4667C38.6773 29.4467 38.6069 30.3333 38.396 31.1033C38.1616 31.8733 37.8334 32.55 37.388 33.0867C36.9427 33.6233 36.3332 34.0433 35.7237 34.3233C35.044 34.6033 34.2704 34.7433 33.4031 34.7433C32.225 34.7433 31.27 33.7883 31.27 32.6102V23.5538C31.27 22.298 32.288 21.28 33.5437 21.28C35.2315 21.28 36.5207 21.8167 37.388 22.89C38.2788 23.9633 38.6773 25.5033 38.6773 27.5333M28.0117 0C27.4198 0.0267817 27.1423 0.744551 27.5622 1.16256L33.5625 7.13532C34.5751 8.14332 36.2129 8.14025 37.2218 7.12847C37.9959 6.35215 39.1821 6.13629 40.1353 6.67785C46.4974 10.2925 51.0862 16.6033 52.2825 24.0745C52.4263 24.9726 53.1793 25.6667 54.0889 25.6667C55.1183 25.6667 55.9332 24.785 55.7796 23.7672C53.7484 10.3108 42.1 0 28.0117 0Z" fill="#343434"/>
</svg>
