<svg width="20" height="21" viewBox="0 0 20 21" fill="none" xmlns="http://www.w3.org/2000/svg">
<path d="M6.2663 18.2269C3.60017 16.955 1.6923 14.3622 1.39878 11.2966H0.175781C0.583447 16.319 4.79056 20.2652 9.91899 20.2652L10.4571 20.2407L7.3507 17.1343L6.2663 18.2269ZM6.99195 12.8946C6.83704 12.8946 6.69843 12.8702 6.56798 12.8294C6.44653 12.7882 6.33532 12.7215 6.24184 12.6337C6.15216 12.5522 6.07878 12.4543 6.02986 12.332C5.98094 12.2179 5.95648 12.0874 5.95648 11.9488H4.89655C4.89655 12.2424 4.95362 12.5196 5.06777 12.7234C5.18191 12.9272 5.33683 13.1311 5.52435 13.286C5.72003 13.4327 5.94017 13.5469 6.19292 13.6203C6.43752 13.7018 6.69843 13.7426 6.97564 13.7426C7.27732 13.7426 7.56268 13.7018 7.81543 13.6203C8.07634 13.5387 8.30463 13.4164 8.49216 13.2615C8.67968 13.1066 8.8346 12.9272 8.94059 12.6745C9.04658 12.438 9.10366 12.1771 9.10366 11.8836C9.10366 11.7287 9.08735 11.5738 9.04658 11.427C9.00582 11.2966 8.94874 11.1417 8.85906 11.0112C8.77752 10.8889 8.66338 10.7666 8.53292 10.6606C8.39432 10.5546 8.23125 10.4812 8.03557 10.4079C8.33096 10.2776 8.5828 10.0654 8.76122 9.79636C8.84275 9.66591 8.89982 9.55176 8.94059 9.42131C8.98136 9.29085 8.99766 9.1604 8.99766 9.02995C8.99766 8.73643 8.94874 8.47552 8.8509 8.24723C8.73676 8.03525 8.61446 7.83141 8.43509 7.68465C8.27202 7.52974 8.05188 7.41559 7.80728 7.33406C7.55453 7.26068 7.27732 7.21991 6.97564 7.21991C6.69843 7.21991 6.41306 7.26068 6.16031 7.35037C5.91571 7.44005 5.69557 7.56235 5.5162 7.71727C5.34498 7.87218 5.20637 8.03524 5.10038 8.26354C5.00254 8.47552 4.95362 8.70382 4.95362 8.95657H6.01355C6.01355 8.81796 6.03801 8.69566 6.08693 8.58967C6.13299 8.48301 6.20269 8.38822 6.29076 8.31246C6.38045 8.23908 6.47829 8.17385 6.60059 8.13308C6.72289 8.09232 6.84519 8.06786 6.99195 8.06786C7.31808 8.06786 7.56268 8.14939 7.71759 8.32061C7.87251 8.48368 7.95404 8.72012 7.95404 9.0218C7.95404 9.16856 7.92143 9.29901 7.88881 9.42131C7.84827 9.53789 7.77801 9.64187 7.68498 9.72298C7.59529 9.80451 7.48115 9.86974 7.3507 9.91866C7.22024 9.96758 7.05718 9.99204 6.8778 9.99204H6.25V10.8318H6.8778C7.05718 10.8318 7.22024 10.8481 7.367 10.8889C7.51376 10.9297 7.63606 10.9949 7.7339 11.0764C7.83174 11.1661 7.92143 11.2721 7.97035 11.4026C8.02742 11.533 8.05188 11.7042 8.05188 11.8673C8.05188 12.2016 7.95404 12.4543 7.76651 12.6256C7.57899 12.8131 7.31808 12.8946 6.99195 12.8946ZM13.963 8.06786C13.7021 7.7988 13.3923 7.58681 13.0336 7.44005C12.683 7.29329 12.2834 7.21991 11.8432 7.21991H9.91899V13.7426H11.7942C12.2427 13.7426 12.6585 13.6692 13.0254 13.5224C13.3923 13.3757 13.7103 13.1718 13.9712 12.9028C14.2321 12.6337 14.4441 12.3076 14.5745 11.9325C14.7131 11.5493 14.7865 11.1253 14.7865 10.6525V10.3263C14.7865 9.85343 14.7131 9.42946 14.5745 9.04626C14.4441 8.66305 14.2239 8.33692 13.963 8.06786ZM13.6287 10.6443C13.6287 10.9867 13.6043 11.2966 13.5309 11.5656C13.4494 11.8347 13.3352 12.0711 13.1803 12.2587C13.0254 12.4462 12.8134 12.5929 12.6014 12.6908C12.365 12.7886 12.0959 12.8375 11.7942 12.8375H11.0523V8.13308H11.8432C12.4302 8.13308 12.8786 8.32061 13.1803 8.69566C13.4901 9.07072 13.6287 9.60883 13.6287 10.3182M9.91899 0.697266L9.38087 0.721726L12.4873 3.82814L13.5717 2.73559C16.2378 4.00751 18.1457 6.59211 18.431 9.66591H19.654C19.2464 4.64347 15.0474 0.697266 9.91899 0.697266Z" fill="white"/>
</svg>
