<svg width="22" height="22" viewBox="0 0 22 22" fill="none" xmlns="http://www.w3.org/2000/svg">
<circle cx="11" cy="11" r="11" fill="#FFF1EC"/>
<path d="M16.6 6.8C17.006 6.8 17.335 6.94 17.594 7.213C17.86 7.5 18 7.815 18 8.2V15.9C18 16.285 17.86 16.6 17.594 16.887C17.335 17.16 17.006 17.3 16.6 17.3H5.4C4.994 17.3 4.665 17.16 4.406 16.887C4.14 16.6 4 16.285 4 15.9V8.2C4 7.815 4.14 7.5 4.406 7.213C4.665 6.94 4.994 6.8 5.4 6.8H8.2V5.4C8.2 4.994 8.34 4.665 8.606 4.406C8.865 4.14 9.194 4 9.6 4H12.4C12.806 4 13.135 4.14 13.394 4.406C13.66 4.665 13.8 4.994 13.8 5.4V6.8H16.6ZM5.4 8.2V15.9H16.6V8.2H5.4ZM12.4 6.8V5.4H9.6V6.8H12.4Z" fill="#D75438"/>
</svg>
