<svg width="28" height="27" viewBox="0 0 28 27" fill="none" xmlns="http://www.w3.org/2000/svg">
<path d="M23.5653 3.92856C22.3212 2.67861 20.8396 1.68752 19.2067 1.01306C17.5738 0.338596 15.8223 -0.00575526 14.0543 7.27582e-05C6.64623 7.27582e-05 0.608543 6.00756 0.608543 13.3785C0.608543 15.741 1.23266 18.036 2.3995 20.061L0.5 27L7.62312 25.137C9.59045 26.2035 11.802 26.7705 14.0543 26.7705C21.4623 26.7705 27.5 20.763 27.5 13.392C27.5 9.81455 26.1025 6.45306 23.5653 3.92856ZM14.0543 24.5025C12.0462 24.5025 10.0789 23.9625 8.35578 22.95L7.94874 22.707L3.71558 23.814L4.84171 19.71L4.57035 19.2915C3.45446 17.5191 2.86206 15.4701 2.8608 13.3785C2.8608 7.24955 7.8809 2.25457 14.0407 2.25457C17.0256 2.25457 19.8342 3.41556 21.9372 5.52156C22.9787 6.55277 23.804 7.77949 24.3653 9.13054C24.9266 10.4816 25.2127 11.9301 25.207 13.392C25.2342 19.521 20.2141 24.5025 14.0543 24.5025ZM20.1869 16.1865C19.8477 16.0245 18.1925 15.2145 17.894 15.093C17.5819 14.985 17.3648 14.931 17.1342 15.255C16.9035 15.5925 16.2658 16.3485 16.0759 16.5645C15.8859 16.794 15.6824 16.821 15.3432 16.6455C15.004 16.4835 13.9186 16.119 12.6432 14.985C11.6392 14.094 10.9744 13.0005 10.7709 12.663C10.5809 12.3255 10.7437 12.15 10.9201 11.9745C11.0693 11.826 11.2593 11.583 11.4221 11.394C11.5849 11.205 11.6528 11.0565 11.7613 10.8405C11.8698 10.611 11.8156 10.422 11.7342 10.26C11.6528 10.098 10.9744 8.45105 10.703 7.77605C10.4317 7.12805 10.1467 7.20905 9.94322 7.19555H9.29196C9.06131 7.19555 8.70854 7.27655 8.39648 7.61405C8.09799 7.95155 7.22965 8.76155 7.22965 10.4085C7.22965 12.0555 8.43719 13.6485 8.6 13.8645C8.76281 14.094 10.9744 17.469 14.3392 18.9135C15.1397 19.2645 15.7638 19.467 16.2523 19.6155C17.0528 19.872 17.7854 19.8315 18.3688 19.7505C19.0201 19.656 20.3633 18.9405 20.6347 18.1575C20.9196 17.3745 20.9196 16.713 20.8246 16.5645C20.7296 16.416 20.5261 16.3485 20.1869 16.1865Z" fill="#D75438"/>
</svg>
