<svg width="16" height="16" viewBox="0 0 16 16" fill="none" xmlns="http://www.w3.org/2000/svg">
<path d="M7.904 5.712C8.928 5.76 9.192 6.632 9.208 7.04H10.64C10.576 5.456 9.448 4.488 7.88 4.488C6.112 4.488 4.8 5.6 4.8 8.112C4.8 9.664 5.544 11.504 7.872 11.504C9.648 11.504 10.6 10.184 10.624 9.144H9.192C9.168 9.616 8.832 10.248 7.888 10.296C6.84 10.264 6.4 9.448 6.4 8.112C6.4 5.8 7.424 5.728 7.904 5.712ZM8 0C3.584 0 0 3.584 0 8C0 12.416 3.584 16 8 16C12.416 16 16 12.416 16 8C16 3.584 12.416 0 8 0ZM8 14.4C4.472 14.4 1.6 11.528 1.6 8C1.6 4.472 4.472 1.6 8 1.6C11.528 1.6 14.4 4.472 14.4 8C14.4 11.528 11.528 14.4 8 14.4Z" fill="white"/>
</svg>
