<svg width="15" height="9" viewBox="0 0 15 9" fill="none" xmlns="http://www.w3.org/2000/svg">
<path fill-rule="evenodd" clip-rule="evenodd" d="M0.736103 4.49964C0.736103 4.63001 0.787889 4.75503 0.88007 4.84721C0.972251 4.93939 1.09728 4.99118 1.22764 4.99118L12.821 4.99118L9.72729 8.08393C9.63499 8.17622 9.58314 8.30141 9.58314 8.43193C9.58314 8.56246 9.63499 8.68764 9.72729 8.77994C9.81958 8.87224 9.94477 8.92409 10.0753 8.92409C10.2058 8.92409 10.331 8.87224 10.4233 8.77994L14.3556 4.84765C14.4014 4.80199 14.4377 4.74775 14.4625 4.68803C14.4872 4.62832 14.5 4.5643 14.5 4.49964C14.5 4.43499 14.4872 4.37097 14.4625 4.31125C14.4377 4.25154 14.4014 4.1973 14.3556 4.15164L10.4233 0.219345C10.3776 0.173644 10.3233 0.137392 10.2636 0.112658C10.2039 0.0879252 10.1399 0.0751951 10.0753 0.0751951C9.94477 0.0751951 9.81958 0.127047 9.72729 0.219345C9.63499 0.311642 9.58314 0.436824 9.58314 0.567352C9.58314 0.697881 9.63499 0.823063 9.72729 0.91536L12.821 4.00811L1.22764 4.00811C1.09728 4.00811 0.972251 4.05989 0.880071 4.15207C0.787889 4.24426 0.736103 4.36928 0.736103 4.49964Z" fill="white"/>
</svg>
