<svg width="23" height="23" viewBox="0 0 23 23" fill="none" xmlns="http://www.w3.org/2000/svg">
<path d="M22.3818 11.586C22.3651 5.46331 17.3824 0.507731 11.2598 0.524432C5.1371 0.541133 0.181523 5.52382 0.198224 11.6465C0.212868 17.0149 4.04064 21.4745 9.10132 22.4923L9.08074 14.9498L6.86238 14.9559L6.85331 11.6283L9.07167 11.6223L9.0641 8.84934C9.05826 6.70862 10.7949 4.96245 12.9356 4.95662L15.7086 4.94905L15.7177 8.27659L13.4993 8.28264C12.8893 8.28431 12.3915 8.7848 12.3932 9.39485L12.3992 11.6132L15.7268 11.6041L15.7358 14.9317L12.4083 14.9408L12.4293 22.6496C18.0292 22.0797 22.3975 17.3426 22.3818 11.586Z" fill="white"/>
</svg>
