<svg width="26" height="30" viewBox="0 0 26 30" fill="none" xmlns="http://www.w3.org/2000/svg">
<path d="M12.1215 16.0217V15.9217C12.1215 15.5125 12.1549 15.1358 12.2223 14.7919M12.1215 16.0217L15.0866 7.45096C15.5303 7.95214 15.75 8.51819 15.75 9.15266C15.75 9.63772 15.6181 10.0809 15.3538 10.4845C15.0845 10.895 14.7048 11.3295 14.2128 11.788L14.2128 11.788L14.2118 11.789C13.8426 12.1428 13.5248 12.4813 13.2588 12.8045C12.9924 13.1281 12.7702 13.4528 12.5928 13.7785C12.4121 14.1056 12.2884 14.4435 12.2223 14.7919M12.1215 16.0217H12.2215M12.1215 16.0217H12.2215M12.2223 14.7919C12.2223 14.7918 12.2223 14.7917 12.2224 14.7916L12.3205 14.8108L12.2222 14.7922C12.2223 14.7921 12.2223 14.792 12.2223 14.7919ZM12.2215 16.0217H13.669H13.7631M12.2215 16.0217H13.7631M13.7631 16.0217L13.7688 15.9277M13.7631 16.0217L13.7688 15.9277M13.7688 15.9277C13.7886 15.6001 13.8217 15.3178 13.8677 15.08L13.8677 15.0799M13.7688 15.9277L13.8677 15.0799M13.8677 15.0799C13.9127 14.8462 13.9952 14.6148 14.116 14.3857C14.2373 14.1554 14.3944 13.9229 14.5877 13.6882C14.7821 13.4522 15.0248 13.1883 15.3163 12.8965L15.3164 12.8963M13.8677 15.0799L15.3164 12.8963M15.3164 12.8963C16.0389 12.1693 16.567 11.535 16.8969 10.9938C17.2322 10.4443 17.399 9.82104 17.399 9.12704C17.399 7.92581 16.9869 6.94965 16.1597 6.2084L16.1597 6.20836M15.3164 12.8963L16.1597 6.20836M16.1597 6.20836C15.3359 5.4712 14.3296 5.10369 13.147 5.10369C12.0611 5.10369 11.1206 5.39504 10.3304 5.98099L10.3304 5.98103M16.1597 6.20836L10.3304 5.98103M10.3304 5.98103C9.54791 6.56204 8.97375 7.26104 8.6111 8.07813L8.56955 8.17174M10.3304 5.98103L8.56955 8.17174M8.56955 8.17174L8.66413 8.21104M8.56955 8.17174L8.66413 8.21104M8.66413 8.21104L10.0426 8.78379L10.1346 8.82201M8.66413 8.21104L10.1346 8.82201M10.1346 8.82201L10.1732 8.73018M10.1346 8.82201L10.1732 8.73018M10.1732 8.73018C10.4195 8.14389 10.7699 7.6597 11.2241 7.27564L11.2241 7.27563M10.1732 8.73018L11.2241 7.27563M11.2241 7.27563C11.6692 6.89907 12.276 6.70543 13.0555 6.70543M11.2241 7.27563L13.0555 6.70543M13 29.1418L12.9291 29.0705L9.09294 25.2158H3.4225C2.70748 25.2158 2.10503 24.9742 1.6222 24.4901C1.13926 24.0059 0.898984 23.4001 0.900003 22.6801M13 29.1418L22.576 25.1158L22.5759 25.2158C23.2929 25.2169 23.896 24.9753 24.378 24.49C24.8597 24.0048 25.1 23.3997 25.1 22.6817V3.43584M13 29.1418L13.0709 29.0705L16.9071 25.2158L13 29.1418ZM0.900003 22.6801C0.900003 22.68 0.900003 22.68 0.900003 22.68L1 22.6801M0.900003 22.6801V22.6801H1M0.900003 22.6801V3.4357C0.900003 2.71662 1.14081 2.1114 1.6237 1.62724C2.10649 1.14316 2.70889 0.901041 3.42386 0.9L3.424 0.9L22.5775 0.9C23.2926 0.9 23.8951 1.14217 24.3779 1.62731C24.8607 2.11246 25.101 2.71768 25.1 3.43584M1 22.6801C0.999003 23.3755 1.23 23.9553 1.693 24.4195C2.156 24.8837 2.7325 25.1158 3.4225 25.1158H9.1345L1.6945 1.69785C1.2315 2.16208 1 2.74137 1 3.4357V22.6801ZM25.1 3.43584L25 3.4357H25.1V3.43584ZM13.0555 6.70543C13.9817 6.70543 14.6517 6.95984 15.0866 7.45095L13.0555 6.70543ZM9.8294 23.5381L9.80008 23.5086H9.7585H3.424C3.17766 23.5086 2.98263 23.4303 2.83038 23.2773L2.7595 23.3478L2.83038 23.2773C2.67802 23.1242 2.6 22.9285 2.6 22.6817V3.4357C2.6 3.18776 2.6781 2.99155 2.83038 2.83853C2.98271 2.68547 3.17727 2.60724 3.4225 2.60724H22.5775C22.8227 2.60724 23.0173 2.68547 23.1696 2.83853C23.322 2.99163 23.4 3.18737 23.4 3.43419V22.6817C23.4 22.9285 23.322 23.1242 23.1696 23.2773C23.0173 23.4304 22.8227 23.5086 22.5775 23.5086H16.243H16.2014L16.1721 23.5381L13 26.7255L9.8294 23.5381ZM12.994 21.0137C13.3526 21.0137 13.6583 20.8892 13.9047 20.6407C14.1531 20.3922 14.2775 20.0846 14.2775 19.7244C14.2775 19.3654 14.1537 19.0584 13.9064 18.8099C13.659 18.5613 13.3533 18.4367 12.9955 18.4367C12.6377 18.4367 12.3315 18.5613 12.0833 18.8097C11.8348 19.0582 11.7109 19.3654 11.712 19.7247C11.7131 20.0836 11.8368 20.3904 12.083 20.6389C12.3303 20.8885 12.6361 21.0137 12.994 21.0137Z" fill="#D75438" stroke="#D75438" stroke-width="0.2"/>
</svg>
