<svg width="22" height="22" viewBox="0 0 22 22" fill="none" xmlns="http://www.w3.org/2000/svg">
<circle cx="11" cy="11" r="11" fill="#FFF1EC"/>
<path d="M8.42188 17.2629V12.8418C8.42188 12.451 8.57714 12.0762 8.85351 11.7998C9.12988 11.5234 9.50471 11.3682 9.89556 11.3682H11.3692C11.8445 11.3682 12.2667 11.5929 12.5364 11.9429" stroke="#D75438" stroke-width="1.3" stroke-linecap="round" stroke-linejoin="round"/>
<path d="M16.5263 9.89474L10.6316 4L4 10.6316H5.47368V15.7895C5.47368 16.1803 5.62895 16.5552 5.90532 16.8315C6.18169 17.1079 6.55652 17.2632 6.94737 17.2632H9.89474M15.3621 13.2916C15.5058 13.1479 15.6764 13.0339 15.8641 12.9561C16.0519 12.8784 16.2531 12.8383 16.4563 12.8383C16.6595 12.8383 16.8608 12.8784 17.0485 12.9561C17.2362 13.0339 17.4068 13.1479 17.5505 13.2916C17.6942 13.4353 17.8082 13.6059 17.886 13.7936C17.9637 13.9814 18.0038 14.1826 18.0038 14.3858C18.0038 14.589 17.9637 14.7902 17.886 14.978C17.8082 15.1657 17.6942 15.3363 17.5505 15.48L15.0526 18L12 18.5L12.8421 15.7895L15.3621 13.2916Z" stroke="#D75438" stroke-width="1.3" stroke-linecap="round" stroke-linejoin="round"/>
</svg>
