<svg width="21" height="20" viewBox="0 0 21 20" fill="none" xmlns="http://www.w3.org/2000/svg">
<path d="M17.8979 0.0322266C18.4599 0.0322266 18.9989 0.255486 19.3963 0.65289C19.7937 1.05029 20.017 1.58929 20.017 2.1513V16.9848C20.017 17.5469 19.7937 18.0859 19.3963 18.4833C18.9989 18.8807 18.4599 19.1039 17.8979 19.1039H3.06439C2.50238 19.1039 1.96338 18.8807 1.56598 18.4833C1.16857 18.0859 0.945313 17.5469 0.945312 16.9848V2.1513C0.945312 1.58929 1.16857 1.05029 1.56598 0.65289C1.96338 0.255486 2.50238 0.0322266 3.06439 0.0322266H17.8979ZM17.3682 16.4551V10.8395C17.3682 9.92344 17.0042 9.04487 16.3565 8.39711C15.7087 7.74934 14.8301 7.38542 13.9141 7.38542C13.0135 7.38542 11.9645 7.93638 11.4559 8.76282V7.58674H8.49982V16.4551H11.4559V11.2315C11.4559 10.4157 12.1129 9.7482 12.9287 9.7482C13.3221 9.7482 13.6994 9.90448 13.9776 10.1827C14.2558 10.4608 14.412 10.8381 14.412 11.2315V16.4551H17.3682ZM5.05632 5.92326C5.52841 5.92326 5.98117 5.73572 6.31499 5.4019C6.64881 5.06808 6.83635 4.61533 6.83635 4.14324C6.83635 3.15787 6.04169 2.35262 5.05632 2.35262C4.58142 2.35262 4.12597 2.54127 3.79016 2.87708C3.45436 3.21288 3.2657 3.66833 3.2657 4.14324C3.2657 5.12861 4.07095 5.92326 5.05632 5.92326ZM6.52908 16.4551V7.58674H3.59416V16.4551H6.52908Z" fill="#D75438"/>
</svg>
