<svg width="22" height="22" viewBox="0 0 22 22" fill="none" xmlns="http://www.w3.org/2000/svg">
<circle cx="11" cy="11" r="11" fill="#FFF1EC"/>
<path d="M10.3 14.5H11.7V10.3H10.3V14.5ZM11 8.9C11.1983 8.9 11.3647 8.8328 11.4991 8.6984C11.6335 8.564 11.7005 8.39787 11.7 8.2C11.6995 8.00213 11.6323 7.836 11.4984 7.7016C11.3645 7.5672 11.1983 7.5 11 7.5C10.8017 7.5 10.6355 7.5672 10.5016 7.7016C10.3677 7.836 10.3005 8.00213 10.3 8.2C10.2995 8.39787 10.3667 8.56423 10.5016 8.6991C10.6365 8.83397 10.8026 8.90093 11 8.9ZM11 18C10.0317 18 9.12166 17.8161 8.27 17.4484C7.41833 17.0807 6.6775 16.582 6.0475 15.9525C5.4175 15.323 4.91887 14.5821 4.5516 13.73C4.18433 12.8779 4.00047 11.9679 4 11C3.99953 10.0321 4.1834 9.12213 4.5516 8.27C4.9198 7.41787 5.41843 6.67703 6.0475 6.0475C6.67657 5.41797 7.4174 4.91933 8.27 4.5516C9.1226 4.18387 10.0326 4 11 4C11.9674 4 12.8774 4.18387 13.73 4.5516C14.5826 4.91933 15.3234 5.41797 15.9525 6.0475C16.5816 6.67703 17.0804 7.41787 17.4491 8.27C17.8178 9.12213 18.0014 10.0321 18 11C17.9986 11.9679 17.8147 12.8779 17.4484 13.73C17.0821 14.5821 16.5834 15.323 15.9525 15.9525C15.3216 16.582 14.5807 17.0809 13.73 17.4491C12.8793 17.8173 11.9693 18.0009 11 18ZM11 16.6C12.5633 16.6 13.8875 16.0575 14.9725 14.9725C16.0575 13.8875 16.6 12.5633 16.6 11C16.6 9.43667 16.0575 8.1125 14.9725 7.0275C13.8875 5.9425 12.5633 5.4 11 5.4C9.43666 5.4 8.1125 5.9425 7.0275 7.0275C5.9425 8.1125 5.4 9.43667 5.4 11C5.4 12.5633 5.9425 13.8875 7.0275 14.9725C8.1125 16.0575 9.43666 16.6 11 16.6Z" fill="#D75438"/>
</svg>
