<svg width="22" height="22" viewBox="0 0 22 22" fill="none" xmlns="http://www.w3.org/2000/svg">
<path d="M20.1912 18.9143L3.06386 1.77832L1.95215 2.88135L7.14594 8.09251C5.90394 9.2737 5.22649 11.1063 5.33072 12.8433C5.38283 13.2776 5.43494 13.7119 5.58259 14.1461C5.70418 14.6673 5.93868 15.1884 6.19924 15.6487C7.13725 17.1512 8.7614 18.2282 10.5071 18.4453C12.3658 18.6798 14.3547 18.3411 15.7791 17.0557C15.8399 17.0036 15.8833 16.9341 15.9441 16.8733L19.0882 20.0174L20.1912 18.9143ZM8.63112 12.4786C8.43136 12.5654 8.22291 12.5133 8.05789 12.3743C8.0086 12.3331 7.96737 12.283 7.9363 12.2267C7.06777 11.1063 6.84195 9.56032 7.29359 8.22279L8.44004 9.36924C8.44004 10.177 8.57032 10.9847 8.86562 11.7577C8.90036 11.8445 8.9351 11.9314 8.9351 12.0443C8.9351 12.2354 8.80482 12.4091 8.63112 12.4786ZM13.5817 15.475C13.3385 15.6834 12.939 15.9092 12.6263 15.9961C11.6536 16.3435 10.6808 15.8571 10.1076 15.2839C11.1412 15.0407 11.7578 14.2764 11.9402 13.5034C11.9836 13.3037 11.9836 13.0952 11.9663 12.8955L14.016 14.9365C13.8857 15.1363 13.7467 15.3273 13.5817 15.475ZM17.4206 13.929L9.36936 5.88645C9.77757 5.18294 10.2987 4.54892 10.9414 4.0278C11.5581 3.53274 12.2789 3.08111 13.104 2.88135C12.2789 4.48812 12.5655 6.58127 13.8596 7.84932C14.4155 8.39649 15.0756 8.76996 15.6575 9.29107C15.8833 9.51689 16.1265 9.74271 16.3263 10.0033C16.3263 10.0033 16.8126 10.6981 16.995 11.0976L17.1079 11.3234C17.4553 12.1659 17.5422 13.0605 17.4206 13.929Z" fill="#D75337"/>
<path d="M2.43164 2.16992L20.0285 19.7668" stroke="#222222" stroke-width="1.73705"/>
</svg>
