<svg width="19" height="21" viewBox="0 0 19 21" fill="none" xmlns="http://www.w3.org/2000/svg">
<path d="M12.8419 10.3893C12.8419 10.5155 12.817 10.6405 12.7687 10.7572C12.7204 10.8738 12.6496 10.9798 12.5603 11.069C12.4711 11.1583 12.3651 11.2291 12.2485 11.2774C12.1318 11.3257 12.0068 11.3506 11.8806 11.3506C11.7543 11.3506 11.6293 11.3257 11.5127 11.2774C11.3961 11.2291 11.2901 11.1583 11.2008 11.069C11.1115 10.9798 11.0407 10.8738 10.9924 10.7572C10.9441 10.6405 10.9192 10.5155 10.9192 10.3893C10.9192 10.1343 11.0205 9.8898 11.2008 9.70951C11.3811 9.52923 11.6256 9.42794 11.8806 9.42794C12.1355 9.42794 12.3801 9.52923 12.5603 9.70951C12.7406 9.8898 12.8419 10.1343 12.8419 10.3893ZM9.14781 0.152963C9.05445 0.132909 8.95778 0.133973 8.86488 0.156078C8.77198 0.178182 8.68519 0.220769 8.61086 0.280724C8.53653 0.340679 8.47654 0.416487 8.43527 0.502606C8.394 0.588724 8.3725 0.682977 8.37234 0.778473V20.0052C8.37231 20.1008 8.39367 20.1952 8.43485 20.2815C8.47604 20.3678 8.53601 20.4437 8.61036 20.5038C8.68471 20.5639 8.77157 20.6066 8.86457 20.6288C8.95756 20.651 9.05434 20.6521 9.14781 20.632L18.1203 18.708C18.2636 18.677 18.392 18.5976 18.4839 18.4833C18.5758 18.369 18.6257 18.2266 18.6253 18.08V2.69858C18.6251 2.55217 18.5747 2.41026 18.4826 2.29646C18.3905 2.18265 18.2622 2.10382 18.119 2.07307L9.14781 0.152963ZM9.65412 19.2118V1.57061L17.3448 3.21771V17.5634L9.65412 19.2118ZM7.09312 19.3592V18.0774H1.96342V2.70243H7.09312V1.42065H1.32253C1.15256 1.42065 0.989544 1.48817 0.869353 1.60836C0.749163 1.72855 0.681641 1.89156 0.681641 2.06154V18.7183C0.681641 18.8883 0.749163 19.0513 0.869353 19.1715C0.989544 19.2917 1.15256 19.3592 1.32253 19.3592H7.09312Z" fill="#573C63"/>
</svg>
