<svg width="25" height="25" viewBox="0 0 25 25" fill="none" xmlns="http://www.w3.org/2000/svg">
<path d="M18.255 12.339V11.275H20.383L10.8072 1.69922L1.23145 11.275H3.35939V18.7228C3.35939 19.2872 3.58359 19.8284 3.98265 20.2275C4.38172 20.6266 4.92297 20.8507 5.48734 20.8507H8.14727" stroke="#222222" stroke-width="1.61354" stroke-linecap="round" stroke-linejoin="round"/>
<path d="M7.61426 20.8507V14.4668C7.61426 13.9024 7.83845 13.3612 8.23752 12.9621C8.63659 12.5631 9.17784 12.3389 9.7422 12.3389H11.8702C12.4345 12.3389 12.9758 12.5631 13.3748 12.9621C13.7739 13.3612 13.9981 13.9024 13.9981 14.4668" stroke="#222222" stroke-width="1.61354" stroke-linecap="round" stroke-linejoin="round"/>
<path d="M13.784 18.1522L18.2678 18.6015L15.553 22.5343L15.553 22.5343L15.5515 22.5365C15.2683 22.9513 15.3 23.5289 15.6607 23.9038L16.044 23.5349L15.6607 23.9038C16.0608 24.3196 16.7083 24.3386 17.1286 23.9348L24.0178 17.5211L24.0178 17.5211L24.0201 17.519C24.7569 16.825 24.3771 15.5089 23.3216 15.406C23.3213 15.406 23.3209 15.406 23.3206 15.4059L18.8368 14.9566L21.5516 11.0238L21.5531 11.0216C21.8358 10.6076 21.8047 10.0313 21.4458 9.65635C21.2561 9.45601 20.9939 9.33687 20.7142 9.33148C20.4365 9.32614 20.1718 9.43353 19.9749 9.62427L13.0868 16.037L13.0868 16.037L13.0845 16.0392C12.3477 16.7332 12.7274 18.0493 13.783 18.1521C13.7833 18.1521 13.7836 18.1522 13.784 18.1522Z" fill="#D75337" stroke="#F9F9F9" stroke-width="1.06397"/>
</svg>
