<svg width="20" height="22" viewBox="0 0 20 22" fill="none" xmlns="http://www.w3.org/2000/svg">
<path d="M10.0602 16.9491C10.2381 16.9492 10.4144 16.9142 10.5788 16.846C10.7431 16.7778 10.8924 16.6777 11.018 16.5516C11.1436 16.4255 11.243 16.2758 11.3105 16.1112C11.378 15.9465 11.4123 15.7701 11.4114 15.5922C11.4114 15.0674 11.1155 14.6374 10.6855 14.403C10.5068 14.3082 10.4454 14.241 10.4454 13.9675V11.0026C10.4454 10.712 10.2779 10.5391 10.0602 10.5391C9.84816 10.5391 9.67498 10.7122 9.67498 11.0026V13.967C9.67498 14.2405 9.61352 14.3077 9.43485 14.4025C9.00511 14.6369 8.709 15.0671 8.709 15.5917C8.70809 15.7696 8.74238 15.946 8.80989 16.1107C8.8774 16.2754 8.9768 16.4251 9.10237 16.5512C9.22795 16.6773 9.37722 16.7773 9.5416 16.8455C9.70597 16.9137 9.88221 16.9487 10.0602 16.9486" fill="#D75337"/>
<path d="M10.0107 18.6382C11.6455 18.6382 12.9736 17.2834 12.9736 15.6161C12.9736 14.736 12.6162 13.9661 11.9405 13.3409C11.8157 13.2251 11.7874 13.1614 11.7874 12.9877L11.7988 7.78899C11.7988 6.57916 11.0778 5.77441 10.0107 5.77441C8.93783 5.77441 8.21684 6.57916 8.21684 7.78899L8.22265 12.9877C8.22265 13.1614 8.19432 13.2251 8.07492 13.3409C7.39389 13.9661 7.04199 14.736 7.04199 15.6159C7.04199 17.2832 8.36433 18.6382 10.0107 18.6382ZM10.0107 17.7982C8.83006 17.7982 7.87076 16.8141 7.87076 15.6159C7.87076 14.8921 8.2057 14.2381 8.80729 13.827C8.98336 13.7053 9.05142 13.5954 9.05142 13.358V7.82382C9.05142 7.09441 9.44303 6.62535 10.0105 6.62535C10.5726 6.62535 10.9586 7.09441 10.9586 7.82382V13.3582C10.9586 13.5956 11.0267 13.7055 11.2028 13.827C11.8044 14.2383 12.1393 14.8924 12.1393 15.6161C12.1393 16.8143 11.1858 17.7982 10.0107 17.7982Z" fill="#D75337"/>
<path d="M1.29883 9.92457V18.9033C1.29883 19.8096 2.03356 20.5443 2.93989 20.5443H16.8889C17.7953 20.5443 18.53 19.8096 18.53 18.9033V9.92458C18.53 9.48145 18.3508 9.05715 18.0331 8.74819L11.0586 1.96447C10.4216 1.3449 9.4072 1.3449 8.7702 1.96447L1.79569 8.74819C1.47803 9.05715 1.29883 9.48145 1.29883 9.92457Z" stroke="#222222" stroke-width="1.43961"/>
</svg>
