<svg width="20" height="19" viewBox="0 0 20 19" fill="none" xmlns="http://www.w3.org/2000/svg">
<path d="M11.8451 2.42851C11.8451 2.04602 11.997 1.67919 12.2675 1.40873C12.5379 1.13827 12.9048 0.986328 13.2872 0.986328H17.6138C17.9963 0.986328 18.3631 1.13827 18.6336 1.40873C18.904 1.67919 19.056 2.04602 19.056 2.42851V14.687C19.056 15.6433 18.6761 16.5603 18 17.2365C17.3238 17.9126 16.4067 18.2925 15.4505 18.2925H1.7498C1.36731 18.2925 1.00048 18.1406 0.730022 17.8701C0.459561 17.5996 0.307617 17.2328 0.307617 16.8503V12.5238C0.307617 12.1413 0.459561 11.7745 0.730022 11.504C1.00048 11.2335 1.36731 11.0816 1.7498 11.0816H6.07634V8.19723C6.07634 7.81474 6.22828 7.44792 6.49875 7.17746C6.76921 6.907 7.13603 6.75505 7.51852 6.75505H11.8451V2.42851ZM17.6138 2.42851H13.2872V6.75505C13.2872 7.13754 13.1353 7.50437 12.8648 7.77483C12.5944 8.04529 12.2276 8.19723 11.8451 8.19723H7.51852V11.0816C7.51852 11.4641 7.36658 11.8309 7.09612 12.1014C6.82565 12.3718 6.45883 12.5238 6.07634 12.5238H1.7498V16.8503H15.4505C16.0243 16.8503 16.5745 16.6224 16.9802 16.2167C17.3859 15.811 17.6138 15.2608 17.6138 14.687V2.42851Z" fill="#573C63"/>
</svg>
