<svg width="21" height="23" viewBox="0 0 21 23" fill="none" xmlns="http://www.w3.org/2000/svg">
<path d="M9.96597 4.31168C9.96597 4.52894 9.87967 4.7373 9.72604 4.89092C9.57242 5.04455 9.36406 5.13085 9.1468 5.13085H7.50846C7.2912 5.13085 7.08284 5.04455 6.92921 4.89092C6.77559 4.7373 6.68928 4.52894 6.68928 4.31168C6.68928 4.09442 6.77559 3.88606 6.92921 3.73244C7.08284 3.57881 7.2912 3.49251 7.50846 3.49251H9.1468C9.36406 3.49251 9.57242 3.57881 9.72604 3.73244C9.87967 3.88606 9.96597 4.09442 9.96597 4.31168ZM15.3234 17.9448L15.6838 20.4637C15.7169 20.6961 15.6998 20.9328 15.6335 21.158C15.5672 21.3831 15.4533 21.5914 15.2995 21.7687C15.1457 21.946 14.9556 22.0882 14.742 22.1856C14.5285 22.2831 14.2965 22.3335 14.0618 22.3335H7.50846C7.27375 22.3335 7.04178 22.2831 6.82825 22.1856C6.61472 22.0882 6.42462 21.946 6.27083 21.7687C6.11703 21.5914 6.00312 21.3831 5.93681 21.158C5.8705 20.9328 5.85334 20.6961 5.88649 20.4637L6.24693 17.9448C4.65252 17.1138 3.31627 15.8618 2.38333 14.3249C1.45039 12.7879 0.956421 11.0247 0.955078 9.22671C0.955078 9.00946 1.04138 8.8011 1.19501 8.64747C1.34863 8.49385 1.55699 8.40754 1.77425 8.40754H3.41259V1.85416C3.41259 1.41965 3.58521 1.00293 3.89245 0.69568C4.1997 0.388431 4.61642 0.21582 5.05094 0.21582H16.5193C16.9539 0.21582 17.3706 0.388431 17.6778 0.69568C17.9851 1.00293 18.1577 1.41965 18.1577 1.85416V8.40754H19.796C20.0133 8.40754 20.2217 8.49385 20.3753 8.64747C20.5289 8.8011 20.6152 9.00946 20.6152 9.22671C20.6139 11.0247 20.1199 12.7879 19.187 14.3249C18.254 15.8618 16.9178 17.1138 15.3234 17.9448ZM5.05094 8.40754H16.5193V1.85416H5.05094V8.40754ZM13.7618 18.596C11.8249 19.2104 9.74537 19.2104 7.80848 18.596L7.50846 20.6951H14.0618L13.7618 18.596ZM18.9359 10.0459H2.63438C2.83722 12.0667 3.78349 13.9401 5.28959 15.3025C6.79568 16.665 8.75421 17.4195 10.7851 17.4195C12.8161 17.4195 14.7746 16.665 16.2807 15.3025C17.7868 13.9401 18.7331 12.0667 18.9359 10.0459Z" fill="#573C63"/>
</svg>
