<svg width="18" height="16" viewBox="0 0 18 16" fill="none" xmlns="http://www.w3.org/2000/svg">
<path d="M0.692383 14.5249V9.92109C0.694385 9.224 0.964342 8.55605 1.44329 8.06314C1.92224 7.57022 2.57126 7.29238 3.2486 7.29032H14.7516C15.4289 7.29238 16.0779 7.57022 16.5569 8.06314C17.0358 8.55605 17.3058 9.224 17.3078 9.92109V14.5249M14.1125 7.29032H2.60954V3.01532C2.61081 2.57965 2.77953 2.16219 3.07888 1.85412C3.37822 1.54604 3.78385 1.37239 4.20718 1.37109H13.793C14.2163 1.37239 14.6219 1.54604 14.9213 1.85412C15.2206 2.16219 15.3893 2.57965 15.3906 3.01532V7.29032H14.1125Z" stroke="#573C63" stroke-width="1.03846" stroke-linecap="round" stroke-linejoin="round"/>
<path d="M0.692383 14.5254V14.204C0.69312 13.9484 0.79435 13.7036 0.973959 13.5229C1.15357 13.3423 1.39696 13.2404 1.65096 13.2397H16.3492C16.6032 13.2404 16.8466 13.3423 17.0262 13.5229C17.2058 13.7036 17.307 13.9484 17.3078 14.204V14.5254M3.2486 7.45396V6.8111C3.24954 6.47041 3.38451 6.14393 3.62399 5.90302C3.86348 5.66211 4.18802 5.52634 4.5267 5.52539H7.72197C8.06065 5.52634 8.38519 5.66211 8.62468 5.90302C8.86417 6.14393 8.99913 6.47041 9.00008 6.8111M9.00008 6.8111V7.45396M9.00008 6.8111C9.00102 6.47041 9.13599 6.14393 9.37547 5.90302C9.61496 5.66211 9.9395 5.52634 10.2782 5.52539H13.4734C13.8121 5.52634 14.1367 5.66211 14.3762 5.90302C14.6156 6.14393 14.7506 6.47041 14.7516 6.8111V7.45396" stroke="#573C63" stroke-width="1.03846" stroke-linecap="round" stroke-linejoin="round"/>
</svg>
