<svg width="19" height="19" viewBox="0 0 19 19" fill="none" xmlns="http://www.w3.org/2000/svg">
<path d="M9.34548 18.9849C4.19211 18.9849 0 14.7928 0 9.63942C0 4.48606 4.19211 0.293945 9.34548 0.293945C14.4988 0.293945 18.691 4.48606 18.691 9.63942C18.691 14.7928 14.4988 18.9849 9.34548 18.9849ZM9.34548 1.62901C4.9264 1.62901 1.33507 5.22035 1.33507 9.63942C1.33507 14.0585 4.9264 17.6498 9.34548 17.6498C13.7646 17.6498 17.3559 14.0585 17.3559 9.63942C17.3559 5.22035 13.7646 1.62901 9.34548 1.62901Z" fill="#573C63"/>
<path d="M7.34342 10.9751H6.00835C5.63454 10.9751 5.34082 10.6814 5.34082 10.3076C5.34082 9.93379 5.63454 9.64008 6.00835 9.64008H7.34342C8.45153 9.64008 9.34602 8.74558 9.34602 7.63748C9.34602 6.52937 8.45153 5.63487 7.34342 5.63487H6.00835C5.63454 5.63487 5.34082 5.34116 5.34082 4.96734C5.34082 4.59352 5.63454 4.2998 6.00835 4.2998H7.34342C8.22863 4.2998 9.07758 4.65145 9.70351 5.27739C10.3294 5.90332 10.6811 6.75227 10.6811 7.63748C10.6811 8.52268 10.3294 9.37163 9.70351 9.99756C9.07758 10.6235 8.22863 10.9751 7.34342 10.9751Z" fill="#573C63"/>
<path d="M12.6837 8.30501H6.00835C5.63454 8.30501 5.34082 8.01129 5.34082 7.63748C5.34082 7.26366 5.63454 6.96994 6.00835 6.96994H12.6837C13.0575 6.96994 13.3512 7.26366 13.3512 7.63748C13.3512 8.01129 13.0575 8.30501 12.6837 8.30501ZM12.6837 5.63487H6.00835C5.63454 5.63487 5.34082 5.34116 5.34082 4.96734C5.34082 4.59352 5.63454 4.2998 6.00835 4.2998H12.6837C13.0575 4.2998 13.3512 4.59352 13.3512 4.96734C13.3512 5.34116 13.0575 5.63487 12.6837 5.63487ZM8.67849 14.9803C8.46488 14.9803 8.25127 14.8735 8.11776 14.6866L5.44763 10.6814C5.35544 10.5345 5.32433 10.3573 5.36094 10.1878C5.39755 10.0182 5.49897 9.86969 5.64357 9.77387C5.78817 9.67805 5.96449 9.64254 6.13491 9.67491C6.30532 9.70729 6.45634 9.80498 6.55573 9.94714L9.22587 13.9523C9.42613 14.2594 9.34602 14.6733 9.03896 14.8735C8.9188 14.9536 8.79865 14.9803 8.66514 14.9803H8.67849Z" fill="#573C63"/>
</svg>
