<svg width="27" height="19" viewBox="0 0 27 19" fill="none" xmlns="http://www.w3.org/2000/svg">
<path d="M13.1409 1.45185L13.1409 1.45187L6.88916 5.57451L6.88762 5.57552C6.70386 5.69614 6.48879 5.76024 6.26902 5.75991M13.1409 1.45185L6.26983 4.89615M13.1409 1.45185C13.7783 1.0315 14.6289 1.48921 14.6289 2.25332V17.1411C14.6289 17.9058 13.7786 18.3632 13.1409 17.9426L13.1407 17.9425L6.89183 13.8234M13.1409 1.45185L6.89183 13.8234M6.26902 5.75991C6.26835 5.75991 6.26768 5.75991 6.26701 5.75991L6.26983 4.89615M6.26902 5.75991H6.26983V4.89615M6.26902 5.75991H3.24767C2.71669 5.75991 2.20746 5.97084 1.83199 6.34631C1.45653 6.72177 1.2456 7.231 1.2456 7.76199V11.6324C1.2456 12.1634 1.45653 12.6726 1.83199 13.0481C2.20746 13.4236 2.71669 13.6345 3.24767 13.6345H6.26983H6.27571V13.6345C6.49407 13.636 6.70724 13.7011 6.88921 13.8217L6.88798 13.8209L6.4126 14.542M6.26983 4.89615H3.24767C2.48761 4.89615 1.75867 5.19808 1.22122 5.73553C0.683772 6.27298 0.381836 7.00192 0.381836 7.76199V11.6324C0.381836 12.3925 0.683772 13.1214 1.22122 13.6589C1.75867 14.1963 2.48761 14.4983 3.24767 14.4983H6.26983C6.32067 14.4986 6.3703 14.5138 6.4126 14.542M6.4126 14.542L6.89183 13.8234M6.4126 14.542L12.6653 18.6636L6.89183 13.8234" stroke="#222222" stroke-width="1.72753"/>
<path d="M18.8438 6.18652L25.4321 12.7749" stroke="#D75337" stroke-width="1.72753" stroke-linecap="round"/>
<path d="M25.4307 6.18652L18.8423 12.7749" stroke="#D75337" stroke-width="1.72753" stroke-linecap="round"/>
</svg>
