<svg width="20" height="20" viewBox="0 0 20 20" fill="none" xmlns="http://www.w3.org/2000/svg">
<path d="M17.616 14.5468V6.04244C18.0885 5.92138 18.5204 5.67746 18.8681 5.33545C19.2158 4.99344 19.4668 4.56552 19.5956 4.09515C19.7244 3.62477 19.7264 3.12868 19.6015 2.65726C19.4765 2.18585 19.2291 1.75588 18.8842 1.41103C18.5394 1.06618 18.1094 0.818721 17.638 0.693786C17.1666 0.568851 16.6705 0.570887 16.2001 0.699687C15.7297 0.828487 15.3018 1.07946 14.9598 1.42713C14.6178 1.7748 14.3739 2.20678 14.2528 2.67921H5.7485C5.62744 2.20678 5.38352 1.7748 5.04151 1.42713C4.6995 1.07946 4.27158 0.828487 3.8012 0.699687C3.33082 0.570887 2.83474 0.568851 2.36332 0.693786C1.8919 0.818721 1.46194 1.06618 1.11708 1.41103C0.772233 1.75588 0.524776 2.18585 0.399841 2.65726C0.274906 3.12868 0.276941 3.62477 0.405741 4.09515C0.534541 4.56552 0.785518 4.99344 1.13319 5.33545C1.48086 5.67746 1.91284 5.92138 2.38527 6.04244V14.5468C1.91284 14.6678 1.48086 14.9117 1.13319 15.2537C0.785518 15.5958 0.534541 16.0237 0.405741 16.4941C0.276941 16.9644 0.274906 17.4605 0.399841 17.9319C0.524776 18.4034 0.772233 18.8333 1.11708 19.1782C1.46194 19.523 1.8919 19.7705 2.36332 19.8954C2.83474 20.0203 3.33082 20.0183 3.8012 19.8895C4.27158 19.7607 4.6995 19.5097 5.04151 19.1621C5.38352 18.8144 5.62744 18.3824 5.7485 17.91H14.2528C14.3739 18.3824 14.6178 18.8144 14.9598 19.1621C15.3018 19.5097 15.7297 19.7607 16.2001 19.8895C16.6705 20.0183 17.1666 20.0203 17.638 19.8954C18.1094 19.7705 18.5394 19.523 18.8842 19.1782C19.2291 18.8333 19.4765 18.4034 19.6015 17.9319C19.7264 17.4605 19.7244 16.9644 19.5956 16.4941C19.4668 16.0237 19.2158 15.5958 18.8681 15.2537C18.5204 14.9117 18.0885 14.6678 17.616 14.5468ZM16.9237 1.98691C17.1976 1.98691 17.4653 2.06811 17.693 2.22026C17.9207 2.3724 18.0982 2.58865 18.2029 2.84165C18.3077 3.09466 18.3352 3.37306 18.2817 3.64165C18.2283 3.91023 18.0964 4.15695 17.9028 4.35059C17.7092 4.54423 17.4624 4.67611 17.1939 4.72953C16.9253 4.78296 16.6469 4.75554 16.3939 4.65074C16.1409 4.54594 15.9246 4.36847 15.7725 4.14077C15.6203 3.91307 15.5391 3.64537 15.5391 3.37152C15.5391 3.0043 15.685 2.65212 15.9447 2.39245C16.2043 2.13278 16.5565 1.98691 16.9237 1.98691ZM1.69296 3.37152C1.69296 3.09767 1.77417 2.82997 1.92631 2.60227C2.07845 2.37457 2.2947 2.1971 2.54771 2.0923C2.80071 1.9875 3.07911 1.96008 3.3477 2.01351C3.61629 2.06694 3.863 2.19881 4.05665 2.39245C4.25029 2.58609 4.38216 2.83281 4.43559 3.1014C4.48901 3.36999 4.46159 3.64839 4.35679 3.90139C4.252 4.1544 4.07453 4.37064 3.84683 4.52279C3.61913 4.67493 3.35143 4.75614 3.07758 4.75614C2.71035 4.75614 2.35817 4.61026 2.0985 4.35059C1.83884 4.09093 1.69296 3.73874 1.69296 3.37152ZM3.07758 18.6023C2.80372 18.6023 2.53602 18.5211 2.30832 18.3689C2.08063 18.2168 1.90316 18.0006 1.79836 17.7475C1.69356 17.4945 1.66614 17.2161 1.71957 16.9475C1.77299 16.679 1.90486 16.4322 2.0985 16.2386C2.29215 16.045 2.53886 15.9131 2.80745 15.8597C3.07604 15.8062 3.35444 15.8337 3.60745 15.9385C3.86045 16.0433 4.0767 16.2207 4.22884 16.4484C4.38098 16.6761 4.46219 16.9438 4.46219 17.2177C4.46219 17.5849 4.31631 17.9371 4.05665 18.1967C3.79698 18.4564 3.4448 18.6023 3.07758 18.6023ZM14.2528 16.5254H5.7485C5.62409 16.0496 5.37523 15.6155 5.02748 15.2678C4.67974 14.92 4.24567 14.6712 3.76988 14.5468V6.04244C4.24567 5.91804 4.67974 5.66917 5.02748 5.32143C5.37523 4.97369 5.62409 4.53961 5.7485 4.06383H14.2528C14.3772 4.53961 14.6261 4.97369 14.9738 5.32143C15.3216 5.66917 15.7556 5.91804 16.2314 6.04244V14.5468C15.7553 14.6705 15.3209 14.9191 14.973 15.267C14.6252 15.6148 14.3766 16.0493 14.2528 16.5254ZM16.9237 18.6023C16.6499 18.6023 16.3822 18.5211 16.1545 18.3689C15.9268 18.2168 15.7493 18.0006 15.6445 17.7475C15.5397 17.4945 15.5123 17.2161 15.5657 16.9475C15.6191 16.679 15.751 16.4322 15.9447 16.2386C16.1383 16.045 16.385 15.9131 16.6536 15.8597C16.9222 15.8062 17.2006 15.8337 17.4536 15.9385C17.7066 16.0433 17.9229 16.2207 18.075 16.4484C18.2271 16.6761 18.3083 16.9438 18.3083 17.2177C18.3078 17.5847 18.1617 17.9366 17.9022 18.1961C17.6426 18.4557 17.2908 18.6017 16.9237 18.6023Z" fill="#573C63"/>
</svg>
