<svg width="21" height="19" viewBox="0 0 21 19" fill="none" xmlns="http://www.w3.org/2000/svg">
<path d="M3.40344 17.703H16.8886C17.0248 17.703 17.1598 17.6761 17.2856 17.624C17.4115 17.5718 17.5259 17.4954 17.6222 17.399C17.7185 17.3027 17.7949 17.1883 17.847 17.0624C17.8991 16.9365 17.9258 16.8016 17.9258 16.6653V4.21733C17.9258 3.94226 17.8165 3.67845 17.622 3.48394C17.4275 3.28944 17.1637 3.18016 16.8886 3.18016H5.47777M5.47777 3.18016L5.47754 15.6282M5.47777 3.18016C5.48204 2.90502 5.43129 2.63183 5.32895 2.3764C5.2266 2.12096 5.07447 1.88843 4.8814 1.69235C4.68834 1.49627 4.4582 1.34056 4.20438 1.23427C3.95056 1.12798 3.67813 1.07324 3.40296 1.07324C3.12778 1.07324 2.85535 1.12798 2.60154 1.23427C2.34772 1.34056 2.11758 1.49627 1.92451 1.69235C1.73144 1.88843 1.57931 2.12096 1.47697 2.3764C1.37462 2.63183 1.32411 2.90507 1.32837 3.18022V15.6282M20.0004 14.591H17.9255M5.47754 15.6282C5.4818 15.9034 5.43129 16.1766 5.32895 16.432C5.2266 16.6875 5.07447 16.92 4.8814 17.1161C4.68834 17.3122 4.4582 17.4679 4.20438 17.5742C3.95056 17.6804 3.67813 17.7352 3.40296 17.7352C3.12778 17.7352 2.85535 17.6804 2.60154 17.5742C2.34772 17.4679 2.11758 17.3122 1.92451 17.1161C1.73144 16.92 1.57931 16.6875 1.47697 16.432C1.37462 16.1766 1.32411 15.9034 1.32837 15.6282M5.47754 15.6282C5.47754 16.1784 5.25922 16.7059 4.87016 17.0949C4.4811 17.484 3.95342 17.7025 3.40321 17.7025C2.85299 17.7025 2.32531 17.484 1.93625 17.0949C1.54719 16.7059 1.32837 16.1784 1.32837 15.6282M5.47754 15.6282C5.47754 15.078 5.25922 14.5501 4.87016 14.161C4.4811 13.772 3.95342 13.5534 3.40321 13.5534C2.85299 13.5534 2.32531 13.772 1.93625 14.161C1.54719 14.5501 1.32837 15.078 1.32837 15.6282M20.0004 6.29221H17.9255M20.0004 10.4414H17.9255M5.47778 13.5533H13.7766V7.32933H5.47778V13.5533Z" stroke="#573C63" stroke-width="1.38235" stroke-linecap="round" stroke-linejoin="round"/>
</svg>
