<svg width="29" height="29" viewBox="0 0 29 29" fill="none" xmlns="http://www.w3.org/2000/svg">
<path d="M14.0756 16.3218C13.4676 16.319 12.9382 16.1867 12.4872 15.9251C12.0436 15.6636 11.6342 15.2168 11.2591 14.5849L12.486 13.8122C12.6553 14.0725 12.8285 14.2846 13.0057 14.4485C13.1828 14.6125 13.3639 14.7319 13.5489 14.807C13.7413 14.882 13.9413 14.92 14.1489 14.921C14.3713 14.922 14.5791 14.8711 14.7724 14.7682C14.9656 14.6579 15.1183 14.5104 15.2304 14.3256C15.3499 14.1408 15.4102 13.9261 15.4114 13.6814C15.4126 13.4294 15.3654 13.2179 15.2698 13.0469C15.1742 12.8759 15.034 12.7455 14.8491 12.6557C14.6641 12.5659 14.4456 12.5203 14.1936 12.5191C14.0824 12.5186 13.96 12.5292 13.8265 12.5508C13.7003 12.5724 13.563 12.6088 13.4145 12.66C13.2734 12.7039 13.1211 12.7624 12.9577 12.8358L12.5734 11.7998L14.6412 9.56318L15.0624 9.86542L11.7932 9.80551L11.8 8.37099L16.4817 8.39308L16.779 9.00611L14.1971 11.7741L13.8212 11.3164C13.8806 11.287 13.9771 11.2615 14.1107 11.2399C14.2516 11.2109 14.3778 11.1967 14.489 11.1972C14.83 11.1988 15.1485 11.2633 15.4444 11.3907C15.7404 11.5182 16.0027 11.6936 16.2315 11.9171C16.4603 12.1406 16.637 12.4009 16.7616 12.6981C16.8936 12.9952 16.9589 13.3143 16.9573 13.6554C16.9548 14.1669 16.8229 14.6259 16.5615 15.0325C16.3076 15.4316 15.9613 15.7488 15.5228 15.9839C15.0918 16.2117 14.6093 16.3244 14.0756 16.3218Z" fill="#D75337"/>
<path d="M8.63587 20.7507L8.64165 19.5242L8.66544 19.6965L7.67753 18.2861L8.2117 18.2886L8.96565 19.3816L8.80053 19.3703L9.49091 18.2947L10.004 18.2971L9.0448 19.737L9.09865 19.4983L9.09273 20.7529L8.63587 20.7507ZM10.7934 20.7609L10.805 18.3009L12.4145 18.3085L12.4126 18.7232L11.2529 18.7177L11.2452 20.3483L12.4189 20.3539L12.417 20.7685L10.7934 20.7609ZM11.0092 19.7076L11.0111 19.2999L12.2306 19.3057L12.2287 19.7133L11.0092 19.7076ZM13.1726 20.7721L14.1436 18.3166L14.5723 18.3186L15.5131 20.7832L15.0387 20.7809L14.5181 19.3797C14.5065 19.3516 14.4903 19.307 14.4695 19.246C14.4511 19.185 14.4303 19.1193 14.4072 19.0489C14.3841 18.9761 14.3634 18.9092 14.3449 18.8482C14.3265 18.7849 14.3126 18.7391 14.3034 18.711L14.3913 18.7079C14.377 18.7547 14.3603 18.8073 14.3413 18.8658C14.3223 18.9243 14.3021 18.9851 14.2807 19.0483C14.2593 19.1114 14.2379 19.1722 14.2166 19.2307C14.1976 19.2892 14.1797 19.3418 14.1631 19.3886L13.6294 20.7743L13.1726 20.7721ZM13.611 20.2119L13.771 19.8155L14.8921 19.8208L15.0589 20.2187L13.611 20.2119ZM16.3574 20.7871L16.369 18.3271L17.4373 18.3322C17.5849 18.3329 17.7195 18.3686 17.841 18.4395C17.9625 18.508 18.0581 18.6022 18.1278 18.722C18.1999 18.8395 18.2356 18.972 18.2349 19.1196C18.2342 19.2602 18.1973 19.3901 18.1241 19.5092C18.0533 19.626 17.9568 19.7193 17.8346 19.789C17.7148 19.8564 17.5799 19.8897 17.43 19.889L16.808 19.8861L16.8037 20.7892L16.3574 20.7871ZM17.7842 20.7939L17.1639 19.6804L17.6352 19.5948L18.3254 20.7999L17.7842 20.7939ZM16.8098 19.4889L17.4354 19.4919C17.5033 19.4922 17.562 19.4773 17.6113 19.447C17.663 19.4145 17.703 19.3702 17.7314 19.3141C17.7598 19.258 17.7742 19.1959 17.7745 19.128C17.7748 19.0507 17.7576 18.9838 17.7227 18.9274C17.6878 18.871 17.6388 18.8263 17.5757 18.7932C17.5126 18.7601 17.4401 18.7434 17.3581 18.743L16.8134 18.7404L16.8098 19.4889ZM20.0447 20.8397C19.9017 20.839 19.7706 20.8208 19.6513 20.7851C19.532 20.7471 19.4245 20.6915 19.3288 20.6184C19.233 20.5453 19.1479 20.4571 19.0735 20.3536L19.3738 20.0177C19.4878 20.1775 19.5998 20.2882 19.7096 20.3496C19.8194 20.411 19.9434 20.4421 20.0817 20.4427C20.1613 20.4431 20.234 20.4317 20.2997 20.4086C20.3654 20.3831 20.4171 20.3494 20.4548 20.3074C20.4925 20.2631 20.5115 20.2128 20.5118 20.1566C20.512 20.1167 20.5039 20.0804 20.4877 20.0475C20.4738 20.0123 20.4517 19.9817 20.4213 19.9558C20.391 19.9276 20.3537 19.9016 20.3093 19.878C20.2649 19.8543 20.2146 19.8342 20.1584 19.8175C20.1023 19.8009 20.0403 19.7853 19.9724 19.771C19.8436 19.7446 19.7313 19.7101 19.6355 19.6675C19.5396 19.6225 19.4591 19.5682 19.3938 19.5047C19.3285 19.4387 19.2808 19.3659 19.2507 19.2861C19.2206 19.2039 19.2058 19.1113 19.2063 19.0082C19.2068 18.9052 19.2295 18.8104 19.2744 18.7239C19.3217 18.6374 19.3853 18.5628 19.4653 18.4999C19.5452 18.437 19.638 18.3882 19.7436 18.3536C19.8492 18.3189 19.9629 18.3019 20.0847 18.3025C20.223 18.3031 20.3459 18.3201 20.4535 18.3534C20.5635 18.3867 20.6593 18.4364 20.741 18.5024C20.825 18.566 20.8938 18.6437 20.9472 18.7353L20.6436 19.0326C20.5971 18.9597 20.5446 18.8998 20.4863 18.8526C20.428 18.8031 20.3649 18.7665 20.297 18.7428C20.2292 18.7167 20.1578 18.7035 20.0828 18.7031C19.9985 18.7027 19.9246 18.7141 19.8613 18.7372C19.8003 18.7604 19.7521 18.7941 19.7167 18.8384C19.6814 18.8805 19.6636 18.9319 19.6633 18.9928C19.663 19.0397 19.6734 19.0819 19.6943 19.1195C19.7152 19.1547 19.7444 19.1865 19.7817 19.2148C19.8214 19.2431 19.8717 19.2679 19.9325 19.2893C19.9933 19.3107 20.0623 19.3297 20.1396 19.3465C20.2683 19.3729 20.3841 19.4086 20.487 19.4536C20.5899 19.4962 20.6775 19.5482 20.7498 19.6095C20.8222 19.6684 20.8769 19.7366 20.914 19.8141C20.9512 19.8892 20.9695 19.9736 20.9691 20.0674C20.9683 20.229 20.929 20.3682 20.8511 20.485C20.7756 20.5995 20.6686 20.688 20.5301 20.7506C20.3915 20.8109 20.2297 20.8406 20.0447 20.8397Z" fill="#181818"/>
<path d="M26.4244 11.6672C26.3674 11.5572 26.335 11.4362 26.3294 11.3125L26.1939 8.346C26.1812 8.06823 26.0344 7.81392 25.8002 7.66404L23.2991 6.06349C23.1948 5.99676 23.1063 5.9082 23.0395 5.80392L21.4386 3.30242C21.2887 3.06826 21.0345 2.92146 20.7567 2.90875L17.79 2.77293C17.6663 2.76727 17.5454 2.73486 17.4355 2.67793L14.7986 1.3123C14.5517 1.18443 14.2581 1.18444 14.0112 1.31233L11.3743 2.67827C11.2644 2.73522 11.1434 2.76764 11.0197 2.7733L8.05298 2.90913C7.77528 2.92184 7.52104 3.06862 7.37118 3.30276L5.77023 5.80395C5.70349 5.90821 5.61494 5.99676 5.51067 6.06348L3.00954 7.66404C2.77533 7.81392 2.62851 8.06823 2.61583 8.346L2.48039 11.3125C2.47474 11.4362 2.44232 11.5572 2.38535 11.6672L1.01939 14.304C0.891488 14.551 0.891487 14.8446 1.01939 15.0915L2.38538 17.7285C2.44233 17.8384 2.47475 17.9594 2.48041 18.0831L2.61623 21.0497C2.62894 21.3274 2.77573 21.5816 3.00989 21.7315L5.51065 23.332C5.61493 23.3988 5.70349 23.4874 5.77022 23.5916L7.37086 26.0931C7.52073 26.3273 7.77504 26.4741 8.05282 26.4868L11.0194 26.6223C11.1431 26.628 11.2641 26.6604 11.3741 26.7174L14.0112 28.0833C14.2581 28.2112 14.5517 28.2112 14.7986 28.0833L17.4354 26.7174C17.5454 26.6604 17.6664 26.628 17.7901 26.6223L20.7566 26.4868C21.0344 26.4741 21.2887 26.3273 21.4386 26.0931L23.0392 23.5917C23.106 23.4874 23.1946 23.3988 23.2989 23.332L25.8001 21.7318C26.0343 21.5819 26.1812 21.3276 26.1939 21.0498L26.3294 18.0834C26.335 17.9597 26.3674 17.8387 26.4244 17.7287L27.7904 15.0918C27.9183 14.8449 27.9183 14.5513 27.7904 14.3044L26.4244 11.6672Z" stroke="#222222" stroke-width="1.5"/>
</svg>
