<svg width="17" height="16" viewBox="0 0 17 16" fill="none" xmlns="http://www.w3.org/2000/svg">
<path d="M15.6033 15.9095L10.3071 10.6264L11.3192 9.61677L16.6155 14.8999L15.6033 15.9095ZM2.34746 15.9095L1.33438 14.8999L7.97186 8.27887L5.13867 5.47175L4.61782 5.9913L3.71349 5.07114V6.78396L3.19265 7.30351L0.692383 4.80946L1.21323 4.2899H2.93031L2.01358 3.39258L4.07885 1.33244C4.29889 1.11294 4.53992 0.949907 4.80193 0.843332C5.06331 0.737391 5.34218 0.68442 5.63853 0.68442C5.93425 0.68442 6.21312 0.737391 6.47514 0.843332C6.73715 0.949273 6.97786 1.11231 7.19726 1.33244L5.62709 2.89872L6.6726 3.94163L6.15175 4.46119L8.98494 7.26831L11.4241 4.8342C11.2747 4.62359 11.171 4.4079 11.1132 4.18714C11.0553 3.96637 11.0264 3.72404 11.0264 3.46014C11.0264 2.68303 11.2963 2.02518 11.8362 1.48659C12.3762 0.948004 13.0357 0.678711 13.8147 0.678711C13.9801 0.678711 14.139 0.690447 14.2917 0.713919C14.4456 0.736757 14.5973 0.7837 14.7467 0.854751L12.7711 2.82544L14.451 4.50115L16.4266 2.53141C16.501 2.67985 16.549 2.83052 16.5706 2.9834C16.5922 3.13692 16.6031 3.29584 16.6031 3.46014C16.6031 4.23725 16.3328 4.8951 15.7922 5.43369C15.2529 5.97291 14.5938 6.24252 13.8147 6.24252C13.5502 6.24252 13.3072 6.21429 13.0859 6.15783C12.8646 6.10137 12.6484 5.99701 12.4372 5.84476L2.34746 15.9095Z" fill="#573C63"/>
</svg>
