<svg width="20" height="20" viewBox="0 0 20 20" fill="none" xmlns="http://www.w3.org/2000/svg">
<path d="M5.56484 0H13.6016C16.6633 0 19.1509 2.48758 19.1509 5.54922V13.586C19.1509 15.0578 18.5662 16.4692 17.5255 17.5099C16.4848 18.5506 15.0734 19.1352 13.6016 19.1352H5.56484C2.50321 19.1352 0.015625 16.6476 0.015625 13.586V5.54922C0.015625 4.07747 0.600273 2.66601 1.64095 1.62533C2.68163 0.584648 4.0931 0 5.56484 0ZM5.37349 1.91352C4.45999 1.91352 3.58391 2.27641 2.93797 2.92235C2.29203 3.56829 1.92915 4.44437 1.92915 5.35786V13.7774C1.92915 15.6813 3.46953 17.2217 5.37349 17.2217H13.793C14.7065 17.2217 15.5826 16.8588 16.2285 16.2129C16.8744 15.5669 17.2373 14.6909 17.2373 13.7774V5.35786C17.2373 3.45391 15.6969 1.91352 13.793 1.91352H5.37349ZM14.6062 3.34867C14.9234 3.34867 15.2276 3.47467 15.4519 3.69895C15.6762 3.92324 15.8022 4.22743 15.8022 4.54462C15.8022 4.8618 15.6762 5.166 15.4519 5.39028C15.2276 5.61457 14.9234 5.74057 14.6062 5.74057C14.2891 5.74057 13.9849 5.61457 13.7606 5.39028C13.5363 5.166 13.4103 4.8618 13.4103 4.54462C13.4103 4.22743 13.5363 3.92324 13.7606 3.69895C13.9849 3.47467 14.2891 3.34867 14.6062 3.34867ZM9.58324 4.78381C10.852 4.78381 12.0688 5.28781 12.9659 6.18495C13.863 7.08209 14.367 8.29887 14.367 9.56761C14.367 10.8364 13.863 12.0531 12.9659 12.9503C12.0688 13.8474 10.852 14.3514 9.58324 14.3514C8.3145 14.3514 7.09771 13.8474 6.20058 12.9503C5.30344 12.0531 4.79943 10.8364 4.79943 9.56761C4.79943 8.29887 5.30344 7.08209 6.20058 6.18495C7.09771 5.28781 8.3145 4.78381 9.58324 4.78381ZM9.58324 6.69733C8.82199 6.69733 8.09192 6.99973 7.55364 7.53802C7.01536 8.0763 6.71296 8.80637 6.71296 9.56761C6.71296 10.3289 7.01536 11.0589 7.55364 11.5972C8.09192 12.1355 8.82199 12.4379 9.58324 12.4379C10.3445 12.4379 11.0746 12.1355 11.6128 11.5972C12.1511 11.0589 12.4535 10.3289 12.4535 9.56761C12.4535 8.80637 12.1511 8.0763 11.6128 7.53802C11.0746 6.99973 10.3445 6.69733 9.58324 6.69733Z" fill="#D75438"/>
</svg>
