<svg width="22" height="19" viewBox="0 0 22 19" fill="none" xmlns="http://www.w3.org/2000/svg">
<path d="M22 4.58789V14.9994C22 15.8411 21.6784 16.6511 21.101 17.2635C20.5235 17.8759 19.7339 18.2445 18.8936 18.2939L18.7 18.2994H3.3C2.45827 18.2994 1.64833 17.9778 1.03591 17.4004C0.423492 16.8229 0.0548817 16.0333 0.00550013 15.193L0 14.9994V4.58789L10.3895 11.5146L10.5171 11.5872C10.6675 11.6607 10.8326 11.6989 11 11.6989C11.1674 11.6989 11.3325 11.6607 11.4829 11.5872L11.6105 11.5146L22 4.58789Z" fill="white"/>
<path d="M18.7007 0.699219C19.8887 0.699219 20.9304 1.32622 21.5112 2.26892L11.0007 9.27592L0.490234 2.26892C0.766106 1.82102 1.14505 1.44557 1.59548 1.17386C2.04591 0.902145 2.55477 0.74205 3.07963 0.706919L3.30073 0.699219H18.7007Z" fill="white"/>
</svg>
