<svg width="22" height="22" viewBox="0 0 22 22" fill="none" xmlns="http://www.w3.org/2000/svg">
<circle cx="11" cy="11" r="11" fill="#FFF1EC"/>
<path d="M8.7 9.4H14.1M8.7 14.8H14.1M8.7 12.1H11.4M6 17.095V4.405C6 4.29759 6.04267 4.19457 6.11862 4.11862C6.19457 4.04267 6.29759 4 6.405 4H14.2701C14.3775 4.00009 14.4804 4.04283 14.5563 4.1188L16.6812 6.2437C16.719 6.28143 16.7489 6.32626 16.7693 6.37561C16.7897 6.42496 16.8001 6.47786 16.8 6.53125V17.095C16.8 17.1482 16.7895 17.2009 16.7692 17.25C16.7488 17.2991 16.719 17.3438 16.6814 17.3814C16.6438 17.419 16.5991 17.4488 16.55 17.4692C16.5009 17.4895 16.4482 17.5 16.395 17.5H6.405C6.35181 17.5 6.29915 17.4895 6.25001 17.4692C6.20088 17.4488 6.15623 17.419 6.11862 17.3814C6.08101 17.3438 6.05118 17.2991 6.03083 17.25C6.01048 17.2009 6 17.1482 6 17.095Z" stroke="#D75438" stroke-width="1.0125" stroke-linecap="round" stroke-linejoin="round"/>
<path d="M14.0996 4V6.295C14.0996 6.40241 14.1423 6.50543 14.2182 6.58138C14.2942 6.65733 14.3972 6.7 14.5046 6.7H16.7996" stroke="#D75438" stroke-width="1.0125" stroke-linecap="round" stroke-linejoin="round"/>
</svg>
