<svg width="20" height="21" viewBox="0 0 20 21" fill="none" xmlns="http://www.w3.org/2000/svg">
<path d="M4.02222 9.15556C5.62222 12.3 8.2 14.8667 11.3444 16.4778L13.7889 14.0333C14.0889 13.7333 14.5333 13.6333 14.9222 13.7667C16.1667 14.1778 17.5111 14.4 18.8889 14.4C19.5 14.4 20 14.9 20 15.5111V19.3889C20 20 19.5 20.5 18.8889 20.5C8.45556 20.5 0 12.0444 0 1.61111C0 1 0.5 0.5 1.11111 0.5H5C5.61111 0.5 6.11111 1 6.11111 1.61111C6.11111 3 6.33333 4.33333 6.74444 5.57778C6.86667 5.96667 6.77778 6.4 6.46667 6.71111L4.02222 9.15556Z" fill="white"/>
</svg>
