<svg width="22" height="21" viewBox="0 0 22 21" fill="none" xmlns="http://www.w3.org/2000/svg">
<path d="M10.9703 16.8366C11.3303 16.8366 11.6348 16.7121 11.8837 16.4632C12.1326 16.2143 12.2567 15.9102 12.256 15.5509C12.2553 15.1916 12.1312 14.8871 11.8837 14.6375C11.6361 14.3879 11.3317 14.2638 10.9703 14.2652C10.609 14.2666 10.3049 14.391 10.058 14.6386C9.81116 14.8861 9.68671 15.1902 9.68465 15.5509C9.68259 15.9116 9.80705 16.216 10.058 16.4642C10.309 16.7125 10.6131 16.8366 10.9703 16.8366ZM10.0446 12.8767H11.9474C11.9474 12.311 12.0119 11.8653 12.1408 11.5396C12.2697 11.2139 12.6338 10.7682 13.2331 10.2025C13.6788 9.75676 14.0302 9.33232 14.2874 8.92913C14.5445 8.52594 14.6731 8.04184 14.6731 7.47683C14.6731 6.51686 14.3217 5.77973 13.6188 5.26546C12.916 4.75119 12.0846 4.49406 11.1246 4.49406C10.1475 4.49406 9.35483 4.75119 8.74662 5.26546C8.13841 5.77973 7.71396 6.39686 7.47328 7.11684L9.17038 7.78539C9.25609 7.47683 9.44911 7.14255 9.74945 6.78256C10.0498 6.42257 10.5082 6.24258 11.1246 6.24258C11.6732 6.24258 12.0846 6.39274 12.3589 6.69308C12.6331 6.99341 12.7703 7.32323 12.7703 7.68254C12.7703 8.02538 12.6674 8.34697 12.4617 8.64731C12.256 8.94764 11.9989 9.22604 11.6903 9.48248C10.936 10.151 10.4732 10.6567 10.3018 10.9996C10.1304 11.3424 10.0446 11.9681 10.0446 12.8767ZM11.0218 20.9507C9.59894 20.9507 8.26183 20.6809 7.01044 20.1413C5.75905 19.6016 4.67051 18.8686 3.74482 17.9422C2.81913 17.0159 2.08646 15.9273 1.54682 14.6766C1.00718 13.4259 0.737015 12.0888 0.736329 10.6653C0.735644 9.24181 1.00581 7.9047 1.54682 6.654C2.08783 5.40329 2.8205 4.31475 3.74482 3.38837C4.66913 2.462 5.75768 1.72934 7.01044 1.19038C8.26321 0.651423 9.60031 0.381259 11.0218 0.379888C12.4432 0.378517 13.7803 0.64868 15.0331 1.19038C16.2858 1.73208 17.3744 2.46474 18.2987 3.38837C19.223 4.312 19.956 5.40055 20.4977 6.654C21.0394 7.90744 21.3092 9.24455 21.3072 10.6653C21.3051 12.0861 21.035 13.4232 20.4967 14.6766C19.9584 15.9301 19.2258 17.0186 18.2987 17.9422C17.3716 18.8659 16.2831 19.5989 15.0331 20.1413C13.783 20.6837 12.4459 20.9535 11.0218 20.9507ZM11.0218 18.8936C13.3188 18.8936 15.2645 18.0965 16.8587 16.5023C18.453 14.908 19.2501 12.9624 19.2501 10.6653C19.2501 8.36823 18.453 6.42257 16.8587 4.82833C15.2645 3.23409 13.3188 2.43697 11.0218 2.43697C8.72468 2.43697 6.77902 3.23409 5.18478 4.82833C3.59054 6.42257 2.79341 8.36823 2.79341 10.6653C2.79341 12.9624 3.59054 14.908 5.18478 16.5023C6.77902 18.0965 8.72468 18.8936 11.0218 18.8936Z" fill="#AFAFAF"/>
</svg>
