<svg width="40" height="41" viewBox="0 0 40 41" fill="none" xmlns="http://www.w3.org/2000/svg">
<path d="M34.0332 6.50235C32.2242 4.68486 30.0698 3.24378 27.6955 2.26307C25.3212 1.28237 22.7744 0.781671 20.2037 0.790145C9.43202 0.790145 0.652944 9.52531 0.652944 20.2431C0.652944 23.6782 1.56044 27.0153 3.25708 29.9597L0.495117 40.0493L10.8525 37.3404C13.7131 38.8912 16.9288 39.7156 20.2037 39.7156C30.9753 39.7156 39.7544 30.9804 39.7544 20.2627C39.7544 15.0609 37.7224 10.1731 34.0332 6.50235ZM20.2037 36.4178C17.2839 36.4178 14.4233 35.6326 11.9178 34.1604L11.3259 33.8071L5.17072 35.4167L6.80816 29.4493L6.4136 28.8408C4.79104 26.2636 3.92966 23.2842 3.92784 20.2431C3.92784 11.3312 11.2273 4.06828 20.1839 4.06828C24.5242 4.06828 28.6079 5.75643 31.6658 8.81864C33.1802 10.3181 34.3802 12.1018 35.1964 14.0663C36.0126 16.0308 36.4286 18.137 36.4203 20.2627C36.4598 29.1745 29.1603 36.4178 20.2037 36.4178ZM29.1208 24.326C28.6276 24.0905 26.2208 22.9127 25.7868 22.736C25.333 22.579 25.0174 22.5005 24.682 22.9716C24.3466 23.4623 23.4194 24.5616 23.1432 24.8756C22.867 25.2093 22.5711 25.2486 22.0778 24.9934C21.5846 24.7579 20.0064 24.2279 18.1519 22.579C16.692 21.2834 15.7253 19.6934 15.4294 19.2027C15.1532 18.712 15.39 18.4568 15.6464 18.2016C15.8634 17.9857 16.1396 17.6323 16.3764 17.3575C16.6131 17.0827 16.7118 16.8668 16.8696 16.5527C17.0274 16.219 16.9485 15.9442 16.8301 15.7086C16.7118 15.4731 15.7253 13.0783 15.3308 12.0968C14.9362 11.1546 14.5219 11.2723 14.226 11.2527H13.279C12.9437 11.2527 12.4307 11.3705 11.977 11.8612C11.5429 12.352 10.2803 13.5297 10.2803 15.9246C10.2803 18.3194 12.0362 20.6357 12.2729 20.9497C12.5096 21.2834 15.7253 26.1908 20.618 28.2912C21.7819 28.8016 22.6894 29.096 23.3996 29.3119C24.5636 29.6849 25.6289 29.626 26.4773 29.5082C27.4242 29.3708 29.3773 28.3304 29.7719 27.1919C30.1862 26.0534 30.1862 25.0916 30.0481 24.8756C29.91 24.6597 29.614 24.5616 29.1208 24.326Z" fill="#1DAF11"/>
</svg>
