<svg width="20" height="20" viewBox="0 0 20 20" fill="none" xmlns="http://www.w3.org/2000/svg">
<path d="M16.4173 2.78423C15.54 1.89837 14.4952 1.19597 13.3437 0.717969C12.1922 0.239968 10.9571 -0.00407884 9.71039 5.15648e-05C4.48647 5.15648e-05 0.228885 4.25764 0.228885 9.48156C0.228885 11.1559 0.668995 12.7824 1.49181 14.2175L0.152344 19.1353L5.17534 17.815C6.56265 18.5708 8.12217 18.9726 9.71039 18.9726C14.9343 18.9726 19.1919 14.715 19.1919 9.49113C19.1919 6.95571 18.2064 4.57337 16.4173 2.78423ZM9.71039 17.3653C8.29438 17.3653 6.90708 16.9826 5.69199 16.265L5.40496 16.0928L2.41987 16.8773L3.21398 13.9688L3.02263 13.6722C2.23574 12.416 1.81799 10.9638 1.81711 9.48156C1.81711 5.13786 5.35713 1.59784 9.70082 1.59784C11.8057 1.59784 13.7862 2.42066 15.2692 3.91321C16.0036 4.64404 16.5856 5.51343 16.9814 6.47094C17.3772 7.42846 17.579 8.45503 17.575 9.49113C17.5941 13.8348 14.0541 17.3653 9.71039 17.3653ZM14.035 11.4716C13.7958 11.3568 12.6285 10.7828 12.418 10.6966C12.198 10.6201 12.0449 10.5818 11.8822 10.8115C11.7196 11.0506 11.2699 11.5864 11.136 11.7395C11.002 11.9022 10.8585 11.9213 10.6193 11.7969C10.3801 11.6821 9.61471 11.4238 8.71536 10.6201C8.00736 9.98864 7.53854 9.21367 7.39503 8.97447C7.26108 8.73528 7.37589 8.61091 7.50027 8.48653C7.60552 8.38128 7.73946 8.20907 7.85427 8.07512C7.96909 7.94117 8.01692 7.83593 8.09346 7.68285C8.17 7.5202 8.13173 7.38625 8.07433 7.27144C8.01692 7.15663 7.53854 5.98938 7.34719 5.511C7.15584 5.05175 6.95492 5.10916 6.8114 5.09959H6.35216C6.18951 5.09959 5.94075 5.157 5.7207 5.39619C5.51021 5.63538 4.89788 6.20943 4.89788 7.37668C4.89788 8.54393 5.7494 9.67291 5.86421 9.82599C5.97902 9.98864 7.53854 12.3805 9.91131 13.4043C10.4758 13.653 10.9159 13.7966 11.2603 13.9018C11.8248 14.0836 12.3415 14.0549 12.7529 13.9975C13.2121 13.9305 14.1593 13.4234 14.3507 12.8685C14.5516 12.3136 14.5516 11.8448 14.4846 11.7395C14.4177 11.6343 14.2741 11.5864 14.035 11.4716Z" fill="#D75438"/>
</svg>
