<svg width="23" height="23" viewBox="0 0 23 23" fill="none" xmlns="http://www.w3.org/2000/svg">
<path d="M18.8649 3.94392C17.845 2.91971 16.6315 2.10872 15.2951 1.55821C13.9587 1.0077 12.5261 0.728682 11.0807 0.737413C5.02459 0.753932 0.102198 5.70325 0.118718 11.7594C0.124013 13.7004 0.639379 15.5847 1.59781 17.2458L0.060511 22.9512L5.87953 21.4047C7.49024 22.2766 9.29947 22.7375 11.1407 22.7325C17.1968 22.7159 22.1192 17.7666 22.1027 11.7105C22.0947 8.77117 20.9447 6.01243 18.8649 3.94392ZM11.1356 20.869C9.49404 20.8735 7.88452 20.4342 6.47359 19.6062L6.14029 19.4074L2.68213 20.3264L3.59355 16.952L3.37078 16.6088C2.45456 15.1549 1.96567 13.4728 1.95996 11.7544C1.94622 6.71867 6.03899 2.60351 11.0747 2.58977C13.5149 2.58312 15.8135 3.53075 17.5374 5.25638C18.3912 6.10132 19.0686 7.10737 19.5305 8.21617C19.9924 9.32497 20.2296 10.5145 20.2282 11.7156C20.2641 16.7512 16.1713 20.8553 11.1356 20.869ZM16.1305 14.0228C15.8528 13.8905 14.4978 13.2286 14.2535 13.1295C13.9982 13.0414 13.8206 12.9976 13.6327 13.2643C13.4449 13.5421 12.9253 14.1647 12.7705 14.3425C12.6157 14.5315 12.4494 14.5542 12.1717 14.4107C11.8941 14.2784 11.0059 13.9813 9.96075 13.0525C9.13796 12.3226 8.59201 11.4257 8.42488 11.1488C8.26883 10.872 8.40154 10.7274 8.54534 10.5828C8.66702 10.4605 8.82176 10.2604 8.95444 10.1048C9.08712 9.94912 9.14224 9.82696 9.23049 9.64924C9.31871 9.46044 9.27392 9.30528 9.20701 9.17236C9.14009 9.03944 8.58181 7.68775 8.35846 7.13377C8.13518 6.60196 7.90243 6.66915 7.73602 6.65851L7.20362 6.65996C7.01505 6.66048 6.72685 6.72782 6.47249 7.00581C6.22923 7.28377 5.52117 7.95121 5.52486 9.30441C5.52855 10.6576 6.51929 11.9638 6.65288 12.1409C6.7865 12.3291 8.60202 15.0971 11.356 16.2764C12.0112 16.563 12.5219 16.728 12.9215 16.8489C13.5765 17.0579 14.1754 17.023 14.6522 16.9551C15.1844 16.876 16.2809 16.2851 16.5009 15.6412C16.7321 14.9973 16.7306 14.4538 16.6526 14.332C16.5747 14.2102 16.4081 14.1552 16.1305 14.0228Z" fill="white"/>
</svg>
