<svg width="28" height="22" viewBox="0 0 28 22" fill="none" xmlns="http://www.w3.org/2000/svg">
<path d="M14.4769 0.0605469C15.1877 0.06454 16.9659 0.0818436 18.856 0.157714L19.5269 0.186996C21.4289 0.276177 23.3296 0.430579 24.2733 0.692796C25.5312 1.04686 26.5188 2.07709 26.8529 3.38418C27.3853 5.46062 27.4518 9.50968 27.4598 10.4907L27.4612 10.693L27.4612 10.9246C27.4518 11.9056 27.3853 15.956 26.8529 18.0311C26.5148 19.3421 25.5258 20.3737 24.2733 20.7224C23.3296 20.9847 21.4289 21.1391 19.5269 21.2282L18.856 21.2589C16.9659 21.3334 15.1877 21.352 14.4769 21.3547L14.1641 21.356L13.8247 21.356C12.3206 21.3467 6.03017 21.2788 4.02829 20.7224C2.7718 20.3684 1.78284 19.3382 1.44875 18.0311C0.916335 15.9546 0.849783 11.9056 0.841797 10.9246L0.841797 10.4907C0.849783 9.50968 0.916335 5.45929 1.44875 3.38418C1.78683 2.0731 2.77579 1.04153 4.02962 0.694127C6.03017 0.136417 12.322 0.0685332 13.826 0.0605469L14.4769 0.0605469ZM11.4887 6.05027L11.4887 15.3676L19.4749 10.709L11.4887 6.05027Z" fill="white"/>
</svg>
